<?xml version="1.0" encoding="UTF-8" standalone="no"?>
<!-- Created with Inkscape (http://www.inkscape.org/) -->

<svg
   version="1.1"
   id="svg1"
   width="364.7688"
   height="337.32401"
   viewBox="0 0 364.7688 337.324"
   xmlns="http://www.w3.org/2000/svg"
   xmlns:svg="http://www.w3.org/2000/svg">
  <defs
     id="defs1">
    <clipPath
       clipPathUnits="userSpaceOnUse"
       id="clipPath6033">
      <path
         d="M 0,841.89 H 688.077 V 0 H 0 Z"
         transform="translate(-382.80801,-284.27281)"
         id="path6033" />
    </clipPath>
    <clipPath
       clipPathUnits="userSpaceOnUse"
       id="clipPath6035">
      <path
         d="M 0,841.89 H 688.077 V 0 H 0 Z"
         transform="translate(-382.84601,-284.2744)"
         id="path6035" />
    </clipPath>
    <clipPath
       clipPathUnits="userSpaceOnUse"
       id="clipPath6037">
      <path
         d="M 0,841.89 H 688.077 V 0 H 0 Z"
         transform="translate(-400.64121,-250.5226)"
         id="path6037" />
    </clipPath>
    <clipPath
       clipPathUnits="userSpaceOnUse"
       id="clipPath6039">
      <path
         d="M 0,841.89 H 688.077 V 0 H 0 Z"
         transform="translate(-400.64141,-250.52251)"
         id="path6039" />
    </clipPath>
    <clipPath
       clipPathUnits="userSpaceOnUse"
       id="clipPath6041">
      <path
         d="M 0,841.89 H 688.077 V 0 H 0 Z"
         transform="translate(-409.39761,-243.2587)"
         id="path6041" />
    </clipPath>
    <clipPath
       clipPathUnits="userSpaceOnUse"
       id="clipPath6043">
      <path
         d="M 0,841.89 H 688.077 V 0 H 0 Z"
         transform="translate(-409.39771,-243.25881)"
         id="path6043" />
    </clipPath>
    <clipPath
       clipPathUnits="userSpaceOnUse"
       id="clipPath6045">
      <path
         d="M 0,841.89 H 688.077 V 0 H 0 Z"
         transform="translate(-396.63261,-256.38201)"
         id="path6045" />
    </clipPath>
    <clipPath
       clipPathUnits="userSpaceOnUse"
       id="clipPath6047">
      <path
         d="M 0,841.89 H 688.077 V 0 H 0 Z"
         transform="translate(-396.63261,-256.3819)"
         id="path6047" />
    </clipPath>
    <clipPath
       clipPathUnits="userSpaceOnUse"
       id="clipPath6049">
      <path
         d="M 0,841.89 H 688.077 V 0 H 0 Z"
         transform="translate(-379.55851,-255.7495)"
         id="path6049" />
    </clipPath>
    <clipPath
       clipPathUnits="userSpaceOnUse"
       id="clipPath6051">
      <path
         d="M 0,841.89 H 688.077 V 0 H 0 Z"
         transform="translate(-379.59651,-255.7471)"
         id="path6051" />
    </clipPath>
    <clipPath
       clipPathUnits="userSpaceOnUse"
       id="clipPath6053">
      <path
         d="M 0,841.89 H 688.077 V 0 H 0 Z"
         transform="translate(-384.66341,-251.47851)"
         id="path6053" />
    </clipPath>
    <clipPath
       clipPathUnits="userSpaceOnUse"
       id="clipPath6055">
      <path
         d="M 0,841.89 H 688.077 V 0 H 0 Z"
         transform="translate(-208.39311,-193.10211)"
         id="path6055" />
    </clipPath>
    <clipPath
       clipPathUnits="userSpaceOnUse"
       id="clipPath6057">
      <path
         d="M 0,841.89 H 688.077 V 0 H 0 Z"
         transform="translate(-208.36501,-193.0767)"
         id="path6057" />
    </clipPath>
    <clipPath
       clipPathUnits="userSpaceOnUse"
       id="clipPath6059">
      <path
         d="M 0,841.89 H 688.077 V 0 H 0 Z"
         transform="translate(-195.0319,-191.0628)"
         id="path6059" />
    </clipPath>
    <clipPath
       clipPathUnits="userSpaceOnUse"
       id="clipPath6061">
      <path
         d="M 0,841.89 H 688.077 V 0 H 0 Z"
         transform="translate(-194.99391,-191.0601)"
         id="path6061" />
    </clipPath>
    <clipPath
       clipPathUnits="userSpaceOnUse"
       id="clipPath6063">
      <path
         d="M 0,841.89 H 688.077 V 0 H 0 Z"
         transform="translate(-192.8038,-203.95411)"
         id="path6063" />
    </clipPath>
    <clipPath
       clipPathUnits="userSpaceOnUse"
       id="clipPath6065">
      <path
         d="M 0,841.89 H 688.077 V 0 H 0 Z"
         transform="translate(-192.804,-203.99221)"
         id="path6065" />
    </clipPath>
    <clipPath
       clipPathUnits="userSpaceOnUse"
       id="clipPath6067">
      <path
         d="M 0,841.89 H 688.077 V 0 H 0 Z"
         transform="translate(-208.5598,-213.02571)"
         id="path6067" />
    </clipPath>
    <clipPath
       clipPathUnits="userSpaceOnUse"
       id="clipPath6069">
      <path
         d="M 0,841.89 H 688.077 V 0 H 0 Z"
         transform="translate(-208.58671,-213.05281)"
         id="path6069" />
    </clipPath>
    <clipPath
       clipPathUnits="userSpaceOnUse"
       id="clipPath6071">
      <path
         d="M 0,841.89 H 688.077 V 0 H 0 Z"
         transform="translate(-288.88531,-213.02191)"
         id="path6071" />
    </clipPath>
    <clipPath
       clipPathUnits="userSpaceOnUse"
       id="clipPath6073">
      <path
         d="M 0,841.89 H 688.077 V 0 H 0 Z"
         transform="translate(-288.85971,-213.04981)"
         id="path6073" />
    </clipPath>
    <clipPath
       clipPathUnits="userSpaceOnUse"
       id="clipPath6075">
      <path
         d="M 0,841.89 H 688.077 V 0 H 0 Z"
         transform="translate(-357.81911,-268.7206)"
         id="path6075" />
    </clipPath>
    <clipPath
       clipPathUnits="userSpaceOnUse"
       id="clipPath6077">
      <path
         d="M 0,841.89 H 688.077 V 0 H 0 Z"
         transform="translate(-357.84351,-268.69141)"
         id="path6077" />
    </clipPath>
    <clipPath
       clipPathUnits="userSpaceOnUse"
       id="clipPath6079">
      <path
         d="M 0,841.89 H 688.077 V 0 H 0 Z"
         transform="translate(-327.83751,-206.73631)"
         id="path6079" />
    </clipPath>
    <clipPath
       clipPathUnits="userSpaceOnUse"
       id="clipPath6081">
      <path
         d="M 0,841.89 H 688.077 V 0 H 0 Z"
         transform="translate(-327.82891,-206.6992)"
         id="path6081" />
    </clipPath>
    <clipPath
       clipPathUnits="userSpaceOnUse"
       id="clipPath6083">
      <path
         d="M 0,841.89 H 688.077 V 0 H 0 Z"
         transform="translate(-425.08951,-257.4148)"
         id="path6083" />
    </clipPath>
    <clipPath
       clipPathUnits="userSpaceOnUse"
       id="clipPath6085">
      <path
         d="M 0,841.89 H 688.077 V 0 H 0 Z"
         transform="translate(-425.08961,-257.4151)"
         id="path6085" />
    </clipPath>
    <clipPath
       clipPathUnits="userSpaceOnUse"
       id="clipPath6087">
      <path
         d="M 0,841.89 H 688.077 V 0 H 0 Z"
         transform="translate(-437.52471,-251.6908)"
         id="path6087" />
    </clipPath>
    <clipPath
       clipPathUnits="userSpaceOnUse"
       id="clipPath6089">
      <path
         d="M 0,841.89 H 688.077 V 0 H 0 Z"
         transform="translate(-437.52471,-251.69091)"
         id="path6089" />
    </clipPath>
    <clipPath
       clipPathUnits="userSpaceOnUse"
       id="clipPath6091">
      <path
         d="M 0,841.89 H 688.077 V 0 H 0 Z"
         transform="translate(-418.73741,-263.23761)"
         id="path6091" />
    </clipPath>
    <clipPath
       clipPathUnits="userSpaceOnUse"
       id="clipPath6093">
      <path
         d="M 0,841.89 H 688.077 V 0 H 0 Z"
         transform="translate(-418.73761,-263.23731)"
         id="path6093" />
    </clipPath>
    <clipPath
       clipPathUnits="userSpaceOnUse"
       id="clipPath6095">
      <path
         d="M 0,841.89 H 688.077 V 0 H 0 Z"
         transform="translate(-388.19001,-268.9849)"
         id="path6095" />
    </clipPath>
    <clipPath
       clipPathUnits="userSpaceOnUse"
       id="clipPath6097">
      <path
         d="M 0,841.89 H 688.077 V 0 H 0 Z"
         transform="translate(-388.22731,-268.99171)"
         id="path6097" />
    </clipPath>
    <clipPath
       clipPathUnits="userSpaceOnUse"
       id="clipPath6099">
      <path
         d="M 0,841.89 H 688.077 V 0 H 0 Z"
         transform="translate(-407.97241,-261.4678)"
         id="path6099" />
    </clipPath>
    <clipPath
       clipPathUnits="userSpaceOnUse"
       id="clipPath6101">
      <path
         d="M 0,841.89 H 688.077 V 0 H 0 Z"
         transform="translate(-254.38671,-251.26621)"
         id="path6101" />
    </clipPath>
    <clipPath
       clipPathUnits="userSpaceOnUse"
       id="clipPath6103">
      <path
         d="M 0,841.89 H 688.077 V 0 H 0 Z"
         transform="translate(-254.3929,-251.30371)"
         id="path6103" />
    </clipPath>
    <clipPath
       clipPathUnits="userSpaceOnUse"
       id="clipPath6105">
      <path
         d="M 0,841.89 H 688.077 V 0 H 0 Z"
         transform="translate(-261.7972,-226.9126)"
         id="path6105" />
    </clipPath>
    <clipPath
       clipPathUnits="userSpaceOnUse"
       id="clipPath6107">
      <path
         d="M 0,841.89 H 688.077 V 0 H 0 Z"
         transform="translate(-340.13161,-299.71231)"
         id="path6107" />
    </clipPath>
    <clipPath
       clipPathUnits="userSpaceOnUse"
       id="clipPath6109">
      <path
         d="M 0,841.89 H 688.077 V 0 H 0 Z"
         transform="translate(-340.09401,-299.70801)"
         id="path6109" />
    </clipPath>
    <clipPath
       clipPathUnits="userSpaceOnUse"
       id="clipPath6111">
      <path
         d="M 0,841.89 H 688.077 V 0 H 0 Z"
         transform="translate(-261.85501,-244.04341)"
         id="path6111" />
    </clipPath>
    <clipPath
       clipPathUnits="userSpaceOnUse"
       id="clipPath6113">
      <path
         d="M 0,841.89 H 688.077 V 0 H 0 Z"
         transform="translate(-261.8455,-244.00641)"
         id="path6113" />
    </clipPath>
    <clipPath
       clipPathUnits="userSpaceOnUse"
       id="clipPath6115">
      <path
         d="M 0,841.89 H 688.077 V 0 H 0 Z"
         transform="translate(-361.85961,-254.8033)"
         id="path6115" />
    </clipPath>
    <clipPath
       clipPathUnits="userSpaceOnUse"
       id="clipPath6117">
      <path
         d="M 0,841.89 H 688.077 V 0 H 0 Z"
         transform="translate(-361.89771,-254.80471)"
         id="path6117" />
    </clipPath>
    <clipPath
       clipPathUnits="userSpaceOnUse"
       id="clipPath6119">
      <path
         d="M 0,841.89 H 688.077 V 0 H 0 Z"
         transform="translate(-357.44481,-253.7824)"
         id="path6119" />
    </clipPath>
    <clipPath
       clipPathUnits="userSpaceOnUse"
       id="clipPath6121">
      <path
         d="M 0,841.89 H 688.077 V 0 H 0 Z"
         transform="translate(-357.48271,-253.77831)"
         id="path6121" />
    </clipPath>
    <clipPath
       clipPathUnits="userSpaceOnUse"
       id="clipPath6123">
      <path
         d="M 0,841.89 H 688.077 V 0 H 0 Z"
         transform="translate(-361.54081,-248.27931)"
         id="path6123" />
    </clipPath>
    <clipPath
       clipPathUnits="userSpaceOnUse"
       id="clipPath6125">
      <path
         d="M 0,841.89 H 688.077 V 0 H 0 Z"
         transform="translate(-369.90851,-249.0889)"
         id="path6125" />
    </clipPath>
    <clipPath
       clipPathUnits="userSpaceOnUse"
       id="clipPath6127">
      <path
         d="M 0,841.89 H 688.077 V 0 H 0 Z"
         transform="translate(-337.02071,-271.99921)"
         id="path6127" />
    </clipPath>
    <clipPath
       clipPathUnits="userSpaceOnUse"
       id="clipPath6129">
      <path
         d="M 0,841.89 H 688.077 V 0 H 0 Z"
         transform="translate(-336.98271,-271.9951)"
         id="path6129" />
    </clipPath>
    <clipPath
       clipPathUnits="userSpaceOnUse"
       id="clipPath6131">
      <path
         d="M 0,841.89 H 688.077 V 0 H 0 Z"
         transform="translate(-348.83991,-220.42791)"
         id="path6131" />
    </clipPath>
    <clipPath
       clipPathUnits="userSpaceOnUse"
       id="clipPath6133">
      <path
         d="M 0,841.89 H 688.077 V 0 H 0 Z"
         transform="translate(-348.81331,-220.4551)"
         id="path6133" />
    </clipPath>
    <clipPath
       clipPathUnits="userSpaceOnUse"
       id="clipPath6135">
      <path
         d="M 0,841.89 H 688.077 V 0 H 0 Z"
         transform="translate(-323.26681,-270.41431)"
         id="path6135" />
    </clipPath>
    <clipPath
       clipPathUnits="userSpaceOnUse"
       id="clipPath6137">
      <path
         d="M 0,841.89 H 688.077 V 0 H 0 Z"
         transform="translate(-323.24541,-270.44581)"
         id="path6137" />
    </clipPath>
    <clipPath
       clipPathUnits="userSpaceOnUse"
       id="clipPath6139">
      <path
         d="M 0,841.89 H 688.077 V 0 H 0 Z"
         transform="translate(-299.99841,-247.0603)"
         id="path6139" />
    </clipPath>
    <clipPath
       clipPathUnits="userSpaceOnUse"
       id="clipPath6141">
      <path
         d="M 0,841.89 H 688.077 V 0 H 0 Z"
         transform="translate(-299.9983,-247.0606)"
         id="path6141" />
    </clipPath>
    <clipPath
       clipPathUnits="userSpaceOnUse"
       id="clipPath6143">
      <path
         d="M 0,841.89 H 688.077 V 0 H 0 Z"
         transform="translate(-292.00701,-244.231)"
         id="path6143" />
    </clipPath>
    <clipPath
       clipPathUnits="userSpaceOnUse"
       id="clipPath6145">
      <path
         d="M 0,841.89 H 688.077 V 0 H 0 Z"
         transform="translate(-282.5734,-244.10151)"
         id="path6145" />
    </clipPath>
    <clipPath
       clipPathUnits="userSpaceOnUse"
       id="clipPath6147">
      <path
         d="M 0,841.89 H 688.077 V 0 H 0 Z"
         transform="translate(-344.60381,-296.851)"
         id="path6147" />
    </clipPath>
    <clipPath
       clipPathUnits="userSpaceOnUse"
       id="clipPath6149">
      <path
         d="M 0,841.89 H 688.077 V 0 H 0 Z"
         transform="translate(-344.58571,-296.8843)"
         id="path6149" />
    </clipPath>
    <clipPath
       clipPathUnits="userSpaceOnUse"
       id="clipPath6151">
      <path
         d="M 0,841.89 H 688.077 V 0 H 0 Z"
         transform="translate(-295.261,-233.7619)"
         id="path6151" />
    </clipPath>
    <clipPath
       clipPathUnits="userSpaceOnUse"
       id="clipPath6153">
      <path
         d="M 0,841.89 H 688.077 V 0 H 0 Z"
         transform="translate(-295.23861,-233.7925)"
         id="path6153" />
    </clipPath>
    <clipPath
       clipPathUnits="userSpaceOnUse"
       id="clipPath6155">
      <path
         d="M 0,841.89 H 688.077 V 0 H 0 Z"
         transform="translate(-307.24101,-232.86901)"
         id="path6155" />
    </clipPath>
    <clipPath
       clipPathUnits="userSpaceOnUse"
       id="clipPath6157">
      <path
         d="M 0,841.89 H 688.077 V 0 H 0 Z"
         transform="translate(-307.23861,-232.90681)"
         id="path6157" />
    </clipPath>
    <clipPath
       clipPathUnits="userSpaceOnUse"
       id="clipPath6159">
      <path
         d="M 0,841.89 H 688.077 V 0 H 0 Z"
         transform="translate(-288.95751,-223.44171)"
         id="path6159" />
    </clipPath>
    <clipPath
       clipPathUnits="userSpaceOnUse"
       id="clipPath6161">
      <path
         d="M 0,841.89 H 688.077 V 0 H 0 Z"
         transform="translate(-288.92461,-223.4605)"
         id="path6161" />
    </clipPath>
    <clipPath
       clipPathUnits="userSpaceOnUse"
       id="clipPath6163">
      <path
         d="M 0,841.89 H 688.077 V 0 H 0 Z"
         transform="translate(-311.88411,-206.1847)"
         id="path6163" />
    </clipPath>
    <clipPath
       clipPathUnits="userSpaceOnUse"
       id="clipPath6165">
      <path
         d="M 0,841.89 H 688.077 V 0 H 0 Z"
         transform="translate(-311.86601,-206.1514)"
         id="path6165" />
    </clipPath>
    <clipPath
       clipPathUnits="userSpaceOnUse"
       id="clipPath6167">
      <path
         d="M 0,841.89 H 688.077 V 0 H 0 Z"
         transform="translate(-331.89471,-156.2769)"
         id="path6167" />
    </clipPath>
    <clipPath
       clipPathUnits="userSpaceOnUse"
       id="clipPath6169">
      <path
         d="M 0,841.89 H 688.077 V 0 H 0 Z"
         transform="translate(-331.93291,-156.2769)"
         id="path6169" />
    </clipPath>
    <clipPath
       clipPathUnits="userSpaceOnUse"
       id="clipPath6171">
      <path
         d="M 0,841.89 H 688.077 V 0 H 0 Z"
         transform="translate(-337.23011,-161.12721)"
         id="path6171" />
    </clipPath>
    <clipPath
       clipPathUnits="userSpaceOnUse"
       id="clipPath6173">
      <path
         d="M 0,841.89 H 688.077 V 0 H 0 Z"
         transform="translate(-337.24441,-161.09181)"
         id="path6173" />
    </clipPath>
    <clipPath
       clipPathUnits="userSpaceOnUse"
       id="clipPath6175">
      <path
         d="M 0,841.89 H 688.077 V 0 H 0 Z"
         transform="translate(-342.32291,-156.76191)"
         id="path6175" />
    </clipPath>
    <clipPath
       clipPathUnits="userSpaceOnUse"
       id="clipPath6177">
      <path
         d="M 0,841.89 H 688.077 V 0 H 0 Z"
         transform="translate(-342.35571,-156.74271)"
         id="path6177" />
    </clipPath>
    <clipPath
       clipPathUnits="userSpaceOnUse"
       id="clipPath6179">
      <path
         d="M 0,841.89 H 688.077 V 0 H 0 Z"
         transform="translate(-359.29911,-166.22001)"
         id="path6179" />
    </clipPath>
    <clipPath
       clipPathUnits="userSpaceOnUse"
       id="clipPath6181">
      <path
         d="M 0,841.89 H 688.077 V 0 H 0 Z"
         transform="translate(-359.32111,-166.251)"
         id="path6181" />
    </clipPath>
    <clipPath
       clipPathUnits="userSpaceOnUse"
       id="clipPath6183">
      <path
         d="M 0,841.89 H 688.077 V 0 H 0 Z"
         transform="translate(-361.48171,-232.91211)"
         id="path6183" />
    </clipPath>
    <clipPath
       clipPathUnits="userSpaceOnUse"
       id="clipPath6185">
      <path
         d="M 0,841.89 H 688.077 V 0 H 0 Z"
         transform="translate(-361.48171,-232.91211)"
         id="path6185" />
    </clipPath>
    <clipPath
       clipPathUnits="userSpaceOnUse"
       id="clipPath6187">
      <path
         d="M 0,841.89 H 688.077 V 0 H 0 Z"
         transform="translate(-296.25051,-279.8107)"
         id="path6187" />
    </clipPath>
    <clipPath
       clipPathUnits="userSpaceOnUse"
       id="clipPath6189">
      <path
         d="M 0,841.89 H 688.077 V 0 H 0 Z"
         transform="translate(-296.22151,-279.83551)"
         id="path6189" />
    </clipPath>
    <clipPath
       clipPathUnits="userSpaceOnUse"
       id="clipPath6191">
      <path
         d="M 0,841.89 H 688.077 V 0 H 0 Z"
         transform="translate(-296.73171,-263.00611)"
         id="path6191" />
    </clipPath>
    <clipPath
       clipPathUnits="userSpaceOnUse"
       id="clipPath6193">
      <path
         d="M 0,841.89 H 688.077 V 0 H 0 Z"
         transform="translate(-296.73171,-263.0059)"
         id="path6193" />
    </clipPath>
    <clipPath
       clipPathUnits="userSpaceOnUse"
       id="clipPath6195">
      <path
         d="M 0,841.89 H 688.077 V 0 H 0 Z"
         transform="translate(-301.06061,-263.54161)"
         id="path6195" />
    </clipPath>
    <clipPath
       clipPathUnits="userSpaceOnUse"
       id="clipPath6197">
      <path
         d="M 0,841.89 H 688.077 V 0 H 0 Z"
         transform="translate(-309.84571,-265.444)"
         id="path6197" />
    </clipPath>
    <clipPath
       clipPathUnits="userSpaceOnUse"
       id="clipPath6199">
      <path
         d="M 0,841.89 H 688.077 V 0 H 0 Z"
         transform="translate(-261.26541,-249.09481)"
         id="path6199" />
    </clipPath>
    <clipPath
       clipPathUnits="userSpaceOnUse"
       id="clipPath6201">
      <path
         d="M 0,841.89 H 688.077 V 0 H 0 Z"
         transform="translate(-261.2278,-249.08791)"
         id="path6201" />
    </clipPath>
    <clipPath
       clipPathUnits="userSpaceOnUse"
       id="clipPath6203">
      <path
         d="M 0,841.89 H 688.077 V 0 H 0 Z"
         transform="translate(-265.8013,-249.20991)"
         id="path6203" />
    </clipPath>
    <clipPath
       clipPathUnits="userSpaceOnUse"
       id="clipPath6205">
      <path
         d="M 0,841.89 H 688.077 V 0 H 0 Z"
         transform="translate(-265.80111,-249.21001)"
         id="path6205" />
    </clipPath>
    <clipPath
       clipPathUnits="userSpaceOnUse"
       id="clipPath6207">
      <path
         d="M 0,841.89 H 688.077 V 0 H 0 Z"
         transform="translate(-269.52201,-249.67021)"
         id="path6207" />
    </clipPath>
    <clipPath
       clipPathUnits="userSpaceOnUse"
       id="clipPath6209">
      <path
         d="M 0,841.89 H 688.077 V 0 H 0 Z"
         transform="translate(-277.0726,-251.3053)"
         id="path6209" />
    </clipPath>
    <clipPath
       clipPathUnits="userSpaceOnUse"
       id="clipPath6211">
      <path
         d="M 0,841.89 H 688.077 V 0 H 0 Z"
         transform="translate(-262.63041,-269.96871)"
         id="path6211" />
    </clipPath>
    <clipPath
       clipPathUnits="userSpaceOnUse"
       id="clipPath6213">
      <path
         d="M 0,841.89 H 688.077 V 0 H 0 Z"
         transform="translate(-262.66821,-269.96971)"
         id="path6213" />
    </clipPath>
    <clipPath
       clipPathUnits="userSpaceOnUse"
       id="clipPath6215">
      <path
         d="M 0,841.89 H 688.077 V 0 H 0 Z"
         transform="translate(-313.10151,-293.85811)"
         id="path6215" />
    </clipPath>
    <clipPath
       clipPathUnits="userSpaceOnUse"
       id="clipPath6217">
      <path
         d="M 0,841.89 H 688.077 V 0 H 0 Z"
         transform="translate(-313.12141,-293.8906)"
         id="path6217" />
    </clipPath>
  </defs>
  <g
     id="layer-MC9"
     transform="translate(-246.85032,-610.59543)">
    <path
       id="path6032"
       d="M 0,0 C 0,16.97 -11.939,55.112 -15.886,67.517 -18.414,75.46 5.855,94.617 44.41,99.29 56.324,100.734 61.74,95.318 60.296,89.542 58.852,83.765 44.543,85.231 29.245,82.681 11.915,79.793 -5.777,70.044 -7.221,67.517 -5.416,63.907 5.777,30.69 5.416,-0.722 5.055,-32.134 1.083,-11.554 0,0"
       style="fill:#a863f2;fill-opacity:1;fill-rule:nonzero;stroke:none"
       transform="matrix(1.3333333,0,0,-1.3333333,510.41067,743.4896)"
       clip-path="url(#clipPath6033)" />
    <path
       id="path6034"
       d="M 0,0 C 0.036,-1.655 2.791,-22.255 4.303,-15.965 6.014,-3.03 5.138,10.209 3.409,23.101 1.483,36.018 -1.32,48.831 -5.346,61.263 c -0.68,2.073 -1.384,4.176 -2.25,6.13 -0.044,0.101 -0.03,0.214 0.027,0.3 0.415,0.621 0.909,0.988 1.401,1.392 7.601,5.315 16.378,8.774 25.185,11.538 4.73,1.417 9.599,2.398 14.497,2.966 4.896,0.605 9.818,0.887 14.71,1.35 3.929,0.604 11.683,0.555 12.047,5.725 0.284,2.428 -0.934,4.824 -2.907,6.227 -6.316,4.257 -14.447,2.06 -21.429,0.974 C 21.526,95.086 7.215,90.215 -4.934,81.864 -9.077,78.82 -17.856,72.246 -15.22,66.426 -11.409,54.149 -7.724,41.595 -4.726,29.107 -2.55,19.53 -0.212,9.859 0,0 m -0.076,-0.003 c -0.252,9.85 -2.619,19.505 -4.943,29.038 -3.241,13.077 -7.411,26.132 -11.367,39.01 -0.361,5.81 6.908,11.192 11.132,14.277 12.292,8.338 26.641,13.106 41.141,15.805 7.087,1.03 15.229,3.331 21.667,-0.979 2.062,-1.449 3.368,-3.977 3.076,-6.52 C 60.259,85.159 52.361,85.141 48.269,84.491 43.365,83.989 38.456,83.67 33.585,83.03 28.709,82.428 23.902,81.418 19.211,79.974 12.18,77.833 5.322,75.029 -1.111,71.468 c -2.001,-1.204 -4.322,-2.35 -5.837,-4.13 0,0 0.009,0.337 0.009,0.337 0.909,-2.048 1.592,-4.104 2.28,-6.186 7.809,-24.879 12.483,-51.462 9.205,-77.51 -2.114,-7.181 -4.615,14.9 -4.622,16.018"
       style="fill:#000000;fill-opacity:1;fill-rule:nonzero;stroke:none"
       transform="matrix(1.3333333,0,0,-1.3333333,510.46133,743.48747)"
       clip-path="url(#clipPath6035)" />
    <path
       id="path6036"
       d="m 0,0 c 2.414,-3.229 4.189,-8.29 3.968,-9.88 -0.222,-1.59 -6.896,-9.738 3.372,-7.95 10.268,1.787 8.947,11.499 8.947,11.499 L 8.315,11.347 C 5.643,15.254 -2.162,2.892 0,0"
       style="fill:#fac99c;fill-opacity:1;fill-rule:nonzero;stroke:none"
       transform="matrix(1.3333333,0,0,-1.3333333,534.18827,788.48987)"
       clip-path="url(#clipPath6037)" />
    <path
       id="path6038"
       d="m 0,0 c -1.872,2.799 4.103,13.141 7.571,12.133 0.383,-0.119 0.658,-0.425 0.886,-0.722 2.064,-4.373 6.164,-13.191 8.165,-17.591 0.598,-4.382 -1.615,-9.074 -5.741,-10.888 -3.232,-1.424 -11.631,-2.86 -8.883,3.277 0.325,0.788 0.727,1.534 1.129,2.274 0.364,0.748 0.938,1.452 0.779,2.309 C 3.401,-5.902 1.902,-2.739 0,0 m 0,0 c 1.943,-2.734 3.473,-5.866 4.022,-9.198 0.113,-1.705 -1.333,-3.098 -1.781,-4.689 -1.999,-4.813 2.971,-4.248 6.05,-3.431 3.203,0.733 6.045,2.946 7.061,6.125 0.545,1.378 0.652,3.672 0.6,4.711 0,0 -3.923,8.867 -3.923,8.867 L 8.174,11.284 C 7.905,11.726 7.166,12.145 6.527,11.908 3.403,11.063 -1.664,3.063 0,0"
       style="fill:#000000;fill-opacity:1;fill-rule:nonzero;stroke:none"
       transform="matrix(1.3333333,0,0,-1.3333333,534.18853,788.49)"
       clip-path="url(#clipPath6039)" />
    <path
       id="path6040"
       d="m 0,0 c 0.18,-2.43 -1.799,-7.171 -1.548,-10.158 0.436,-5.176 12.656,-3.379 11.347,5.014 C 8.629,2.354 5.51,3.791 5.51,3.791"
       style="fill:#fac99c;fill-opacity:1;fill-rule:nonzero;stroke:none"
       transform="matrix(1.3333333,0,0,-1.3333333,545.86347,798.17507)"
       clip-path="url(#clipPath6041)" />
    <path
       id="path6042"
       d="m 0,0 c 0.122,-3.226 -1.254,-6.314 -1.278,-9.436 -0.007,-0.748 0.106,-1.475 0.588,-2.046 1.552,-1.701 4.341,-1.38 6.304,-0.553 2.994,1.141 4.529,4.331 3.804,7.434 -0.549,3.02 -1.327,6.447 -3.908,8.393 2.798,-1.727 3.791,-5.261 4.455,-8.295 0.971,-3.266 -0.844,-6.993 -4.05,-8.227 -2.236,-0.915 -5.362,-1.176 -7.115,0.839 -0.574,0.672 -0.702,1.631 -0.65,2.466 C -1.706,-6.156 -0.162,-3.23 0,0"
       style="fill:#000000;fill-opacity:1;fill-rule:nonzero;stroke:none"
       transform="matrix(1.3333333,0,0,-1.3333333,545.8636,798.17493)"
       clip-path="url(#clipPath6043)" />
    <path
       id="path6044"
       d="m 0,0 c -0.134,3.912 0.005,12.836 2.712,15.489 2.708,2.653 5.285,0.261 7.033,-3.131 1.747,-3.392 10.866,-19.995 12.508,-21.273 1.643,-1.278 4.7,1.592 7.362,-1.715 2.663,-3.307 -1.893,-9.41 -5.937,-10.11 -4.044,-0.7 -7.199,6.901 -8.518,12.134"
       style="fill:#fac99c;fill-opacity:1;fill-rule:nonzero;stroke:none"
       transform="matrix(1.3333333,0,0,-1.3333333,528.84347,780.67733)"
       clip-path="url(#clipPath6045)" />
    <path
       id="path6046"
       d="m 0,0 c -0.15,3.632 -0.126,7.299 0.538,10.909 0.377,1.793 0.868,3.718 2.294,5.001 1.577,1.544 3.792,1.061 5.163,-0.488 1.345,-1.352 2.097,-3.087 2.964,-4.658 L 13.59,5.987 c 2.692,-4.708 5.29,-9.553 8.363,-14.007 1.099,-1.766 3.107,-0.327 4.803,-0.625 1.975,-0.156 3.731,-1.824 3.937,-3.809 0.166,-3.858 -2.953,-7.245 -6.449,-8.391 -5.405,-1.297 -8.047,8.358 -9.084,12.238 1.859,-6.309 6.024,-17.351 13.167,-8.706 2.342,2.771 2.684,7.289 -1.632,7.979 -1.329,0.175 -2.756,-0.592 -4.156,-0.138 -0.53,0.195 -0.898,0.652 -1.159,1.007 -1.112,1.497 -2.041,3.055 -2.993,4.615 -1.861,3.137 -3.641,6.313 -5.4,9.502 l -2.606,4.802 C 9.503,12.058 8.8,13.743 7.577,15.018 6.402,16.387 4.55,16.891 3.143,15.546 1.818,14.414 1.308,12.556 0.899,10.832 0.124,7.299 -0.028,3.632 0,0"
       style="fill:#000000;fill-opacity:1;fill-rule:nonzero;stroke:none"
       transform="matrix(1.3333333,0,0,-1.3333333,528.84347,780.67747)"
       clip-path="url(#clipPath6047)" />
    <path
       id="path6048"
       d="m 0,0 c -0.488,-7.112 3.258,-26.294 6.002,-31.361 1.251,-2.309 3.888,-5.811 10.354,-4.703 4.734,0.812 6.088,27.191 6.338,28.81 2.937,1.599 2.744,2.154 4.169,2.459 1.425,0.306 -3.268,1.685 -4.454,1.654 -0.377,2.454 -1.416,6.257 -1.599,8.156 -0.184,1.898 -2.917,-4.129 -3.482,-5.666 -2.077,2.387 -6.257,3.802 -7.957,3.736 -1.7,-0.066 3.09,-4.332 3.986,-6.078 -0.768,-2.327 -5.059,-7.37 -5.059,-7.37 0,0 -0.749,13.055 -2.882,18.487"
       style="fill:#a863f2;fill-opacity:1;fill-rule:nonzero;stroke:none"
       transform="matrix(1.3333333,0,0,-1.3333333,506.078,781.52067)"
       clip-path="url(#clipPath6049)" />
    <path
       id="path6050"
       d="m 0,0 c -0.07,-6.205 1.174,-12.357 2.401,-18.417 1.812,-6.618 2.613,-17.397 11.471,-17.596 0.76,-0.024 1.524,0.033 2.285,0.131 0.716,0.051 1.224,0.692 1.626,1.312 0.783,1.303 1.256,2.8 1.663,4.286 1.92,7.539 2.415,15.309 3.067,23.054 0.512,0.455 1.536,0.895 2.213,1.47 0.59,0.498 1.434,1.075 2.19,1.201 -0.02,0.004 -0.023,-0.125 -0.02,-0.098 -1.306,0.774 -3.044,1.131 -4.519,1.275 -0.124,-0.002 -0.228,0.09 -0.248,0.207 -0.434,2.564 -1.184,5.071 -1.616,7.694 l -0.064,0.492 c -0.007,0.062 -0.029,0.125 -0.029,0.125 0.007,-0.049 0.176,-0.099 0.198,-0.073 0,0 -0.141,-0.118 -0.22,-0.227 -1.166,-1.706 -2,-3.701 -2.776,-5.607 -0.087,-0.248 -0.431,-0.307 -0.6,-0.11 C 15.071,1.146 12.1,2.585 9.285,2.701 9.266,2.692 9.362,2.757 9.349,2.792 10.393,0.681 12.437,-0.68 13.668,-2.812 13.722,-2.902 13.729,-3.007 13.697,-3.1 12.503,-5.942 10.449,-8.23 8.55,-10.607 8.34,-10.876 7.876,-10.707 7.88,-10.37 7.576,-4.225 7.031,2.401 5.413,8.14 7.523,2.225 8.015,-4.126 8.64,-10.339 c 0,0 -0.669,0.224 -0.669,0.224 1.805,2.266 3.838,4.571 4.976,7.247 0,0 0.023,-0.302 0.023,-0.302 -0.648,1.094 -1.672,2.137 -2.566,3.197 -0.645,0.886 -1.752,1.717 -1.796,2.908 0.145,0.639 0.885,0.545 1.355,0.496 2.874,-0.453 5.588,-1.713 7.594,-3.847 0,-0.001 -0.6,-0.111 -0.6,-0.111 0.838,2.009 1.652,4.007 2.927,5.78 0.131,0.138 0.209,0.283 0.506,0.421 0.678,0.21 0.713,-0.62 0.751,-1.068 0.371,-2.555 1.077,-5.097 1.471,-7.707 l -0.248,0.206 c 0.74,0.011 5.57,-1.024 4.827,-1.941 -0.527,-0.284 -0.796,-0.182 -1.234,-0.471 -1.034,-0.714 -2.096,-1.506 -3.232,-2.071 0,0 0.074,0.105 0.074,0.105 -0.703,-7.702 -1.219,-15.534 -3.067,-23.087 -0.543,-1.848 -1.01,-3.895 -2.39,-5.352 -0.908,-0.834 -2.314,-0.696 -3.475,-0.806 -9.273,-0.225 -10.252,11.182 -11.95,18 C 0.837,-12.511 -0.49,-5.896 0,0"
       style="fill:#000000;fill-opacity:1;fill-rule:nonzero;stroke:none"
       transform="matrix(1.3333333,0,0,-1.3333333,506.12867,781.52387)"
       clip-path="url(#clipPath6051)" />
    <path
       id="path6052"
       d="M 0,0 C 2.132,-2.944 3.535,-6.258 4.93,-9.584 2.623,-6.766 1.199,-3.41 0,0"
       style="fill:#000000;fill-opacity:1;fill-rule:nonzero;stroke:none"
       transform="matrix(1.3333333,0,0,-1.3333333,512.88453,787.21533)"
       clip-path="url(#clipPath6053)" />
    <path
       id="path6054"
       d="m 0,0 c -7.114,7.927 -1.663,15.063 0.167,19.128 0.318,4.456 -7.958,17.666 1.866,22.947 2.886,1.553 11.586,-4.878 9.756,-9.553 C 9.96,27.847 9.079,17.536 10.352,11.648 11.327,7.14 17.833,2.099 15.604,-1.88 13.376,-5.859 5.896,-11.429 1.122,-8.405 -3.653,-5.382 0,0 0,0"
       style="fill:#fac99c;fill-opacity:1;fill-rule:nonzero;stroke:none"
       transform="matrix(1.3333333,0,0,-1.3333333,277.85747,865.05053)"
       clip-path="url(#clipPath6055)" />
    <path
       id="path6056"
       d="m 0,0 c -6.077,6.263 -3.651,12.898 -0.126,19.176 0.037,1.783 -0.964,4.433 -1.422,6.191 -1.474,4.964 -2.942,11.575 1.532,15.462 0.578,0.559 1.337,0.995 2.027,1.399 1.321,0.587 2.809,-0.039 3.998,-0.605 3.115,-1.701 6.964,-4.985 6.056,-8.936 C 10.812,29.126 10.397,25.341 10.192,21.588 10.161,17.408 9.75,12.86 11.869,9.095 16.778,1.406 19.52,-1.073 10.625,-7.361 8.775,-8.526 6.676,-9.475 4.412,-9.508 -1.065,-9.403 -3.005,-4.214 -0.003,0.047 0.024,0.091 0.086,0.043 0.06,0.004 c -0.554,-0.92 -0.953,-1.941 -1.14,-2.99 -0.779,-3.281 2.264,-6.228 5.482,-5.983 4.493,0.349 9.145,3.896 11.138,7.863 0.476,1.487 -0.184,2.98 -0.904,4.326 -1.027,1.855 -2.383,3.559 -3.454,5.488 -2.15,3.868 -1.766,8.636 -1.622,12.916 0.244,3.252 0.661,6.513 1.607,9.644 1.657,3.37 0.007,6.053 -2.606,8.348 -1.732,1.38 -4.128,3.145 -6.422,2.37 C 0.514,41.097 -0.922,39.769 -1.677,38.059 -3.81,32.954 -1.314,27.452 0.005,22.433 0.257,21.351 0.625,20.217 0.489,19.021 -3.351,11.994 -5.384,6.741 0,0"
       style="fill:#000000;fill-opacity:1;fill-rule:nonzero;stroke:none"
       transform="matrix(1.3333333,0,0,-1.3333333,277.82,865.0844)"
       clip-path="url(#clipPath6057)" />
    <path
       id="path6058"
       d="m 0,0 c 0.149,-2.088 3.183,-7.798 5.729,-9.549 2.547,-1.751 9.868,1.273 10.982,3.342 1.114,2.069 -0.637,8.753 -2.706,10.663 C 11.936,6.366 -0.159,2.228 0,0"
       style="fill:#fac99c;fill-opacity:1;fill-rule:nonzero;stroke:none"
       transform="matrix(1.3333333,0,0,-1.3333333,260.04253,867.7696)"
       clip-path="url(#clipPath6059)" />
    <path
       id="path6060"
       d="M 0,0 C 0.143,1.12 1.354,1.625 2.176,2.201 5.4,4.01 9.045,5.464 12.822,5.309 16.164,5.272 18.12,-3.628 16.957,-6.124 16.126,-7.551 14.516,-8.21 13.118,-8.924 11.185,-9.74 9.144,-10.542 6.898,-10.303 3.467,-9.615 0.608,-3.159 0,0 m 0.076,0.005 c 0.578,-3.06 2.593,-5.729 4.559,-8.062 0.715,-0.739 1.408,-1.488 2.372,-1.626 1.992,-0.327 4.143,0.226 6.005,1 1.348,0.619 2.94,1.34 3.647,2.694 C 17.543,-3.892 15.395,4.473 12.734,4.516 10.218,4.785 0.738,2.659 0.076,0.005"
       style="fill:#000000;fill-opacity:1;fill-rule:nonzero;stroke:none"
       transform="matrix(1.3333333,0,0,-1.3333333,259.99187,867.7732)"
       clip-path="url(#clipPath6061)" />
    <path
       id="path6062"
       d="m 0,0 c -2.408,0 -5.093,-1.91 -4.138,-5.411 0.955,-3.502 2.865,-9.231 7.798,-9.072 4.934,0.159 13.528,3.501 14.006,6.048 0.477,2.546 -0.319,7.957 -1.592,9.231 C 14.801,2.069 1.432,0 0,0"
       style="fill:#fac99c;fill-opacity:1;fill-rule:nonzero;stroke:none"
       transform="matrix(1.3333333,0,0,-1.3333333,257.07173,850.5812)"
       clip-path="url(#clipPath6063)" />
    <path
       id="path6064"
       d="m 0,0 c 5.203,0.389 10.398,2.044 15.646,1.378 0.79,-0.125 1.213,-0.985 1.484,-1.645 0.726,-1.879 0.948,-3.884 1.025,-5.877 -0.025,-1.024 0.07,-2.091 -0.446,-3.045 -0.977,-1.404 -2.621,-2.173 -4.091,-2.856 -2.407,-1.05 -4.914,-1.815 -7.482,-2.321 -2.565,-0.625 -5.618,-0.426 -7.371,1.835 -1.778,2.067 -2.593,4.667 -3.175,7.21 C -5.178,-2.549 -2.781,0.123 0,0 m 0,-0.076 c -2.704,0.041 -4.867,-2.504 -3.946,-5.135 0.76,-2.445 1.593,-4.957 3.189,-6.91 1.586,-2.199 4.334,-2.538 6.847,-1.986 2.555,0.423 5.037,1.295 7.349,2.437 1.391,0.743 2.839,1.509 3.722,2.804 0.376,0.799 0.274,1.812 0.279,2.701 -0.15,2.163 -0.404,4.474 -1.449,6.396 -0.191,0.255 -0.239,0.315 -0.543,0.388 -1.151,0.25 -2.5,0.154 -3.774,0.136 C 7.775,0.633 3.888,0.251 0,-0.076"
       style="fill:#000000;fill-opacity:1;fill-rule:nonzero;stroke:none"
       transform="matrix(1.3333333,0,0,-1.3333333,257.072,850.5304)"
       clip-path="url(#clipPath6065)" />
    <path
       id="path6066"
       d="m 0,0 c -2.786,2.786 -18.621,9.549 -21.485,7.799 -2.865,-1.751 -2.388,-14.006 2.387,-17.189 4.774,-3.183 14.483,-3.342 18.939,-1.273 C 4.297,-8.594 1.591,-1.591 0,0"
       style="fill:#fac99c;fill-opacity:1;fill-rule:nonzero;stroke:none"
       transform="matrix(1.3333333,0,0,-1.3333333,278.07973,838.48573)"
       clip-path="url(#clipPath6067)" />
    <path
       id="path6068"
       d="m 0,0 c 2.362,-2.903 4.053,-8.802 -0.031,-10.978 -4.872,-2.053 -10.518,-1.823 -15.542,-0.41 -3.106,0.801 -5.804,2.939 -6.697,6.095 -1.195,3.949 -1.898,8.719 -0.026,12.534 1.203,1.801 3.889,0.878 5.632,0.605 C -10.732,6.241 -4.89,3.724 0,0 m -0.054,-0.054 c -2.349,1.971 -5.289,3.116 -8.092,4.297 -2.853,1.122 -5.726,2.205 -8.668,2.992 -1.401,0.33 -2.998,0.815 -4.392,0.444 -3.099,-1.955 -1.932,-9.882 -0.676,-12.825 0.991,-3.024 3.519,-4.812 6.514,-5.557 4.345,-1.179 9.095,-1.311 13.472,-0.221 5.501,0.97 4.486,7.525 1.842,10.87"
       style="fill:#000000;fill-opacity:1;fill-rule:nonzero;stroke:none"
       transform="matrix(1.3333333,0,0,-1.3333333,278.1156,838.4496)"
       clip-path="url(#clipPath6069)" />
    <path
       id="path6070"
       d="m 0,0 c -12.806,-11.789 -61.415,-9.314 -63.439,-8.658 -2.024,0.657 -3.318,8.024 -4.791,6.752 -3.501,-3.024 -1.114,-11.141 -1.114,-11.141 0,0 -6.497,-7.246 -5.239,-8.293 1.258,-1.047 4.423,-0.156 4.423,-0.156 0,0 -3.408,-7.975 -2.049,-9.694 1.36,-1.719 9.378,6.677 9.378,6.677 0,0 58.969,3.78 71.165,13.537 C 20.53,-1.22 12.806,11.789 0,0"
       style="fill:#a863f2;fill-opacity:1;fill-rule:nonzero;stroke:none"
       transform="matrix(1.3333333,0,0,-1.3333333,385.1804,838.4908)"
       clip-path="url(#clipPath6071)" />
    <path
       id="path6072"
       d="m 0,0 c 3.425,3.362 10.802,7.672 14.045,1.984 1.431,-3.119 0.063,-6.73 -1.817,-9.338 -2.55,-3.651 -6.495,-6.016 -10.633,-7.455 -12.358,-4.335 -25.465,-5.973 -38.385,-7.647 -8.298,-0.903 -18.264,-2.077 -25.793,-2.298 -2.697,-2.518 -5.197,-5.52 -8.706,-6.895 -3.521,-0.448 0.381,8.637 0.985,10.197 0,0 0.219,-0.25 0.219,-0.25 -1.206,-0.284 -2.454,-0.499 -3.715,-0.209 -0.315,0.078 -0.612,0.221 -0.885,0.439 -0.315,0.348 -0.177,0.745 -0.104,1.035 1.132,2.671 3.663,5.542 5.36,7.33 -0.867,3.138 -1.81,9.536 1.499,11.482 0.33,0.034 0.562,-0.175 0.72,-0.343 1.508,-1.908 1.765,-4.654 3.541,-6.343 0.329,-0.26 0.767,-0.236 1.17,-0.296 3.536,-0.318 7.111,-0.375 10.672,-0.416 C -37.833,-8.895 -10.742,-9.094 0,0 m 0.051,-0.056 c -12.447,-10.42 -46.536,-10.291 -62.598,-8.985 -1.05,-0.009 -1.799,0.59 -2.271,1.48 -0.923,1.546 -1.419,3.293 -2.282,4.845 -0.203,0.348 -0.506,0.786 -0.789,0.759 -0.284,-0.083 -0.652,-0.54 -0.859,-0.815 -2.01,-3.028 -1.116,-7.084 -0.484,-10.38 -1.915,-2.312 -4.085,-4.594 -5.252,-7.378 -0.594,-1.744 3.403,-1.094 4.299,-0.817 0,0 0.358,0.089 0.358,0.089 l -0.138,-0.339 c -0.558,-1.275 -3.903,-9.953 -1.425,-9.581 3.337,1.401 5.869,4.452 8.444,6.935 8.702,0.662 17.399,1.488 26.062,2.558 12.876,1.701 25.903,3.362 38.254,7.491 4.092,1.365 7.922,3.568 10.496,7.105 1.863,2.498 3.249,5.932 1.942,8.961 C 10.7,7.489 3.413,3.172 0.051,-0.056"
       style="fill:#000000;fill-opacity:1;fill-rule:nonzero;stroke:none"
       transform="matrix(1.3333333,0,0,-1.3333333,385.14627,838.4536)"
       clip-path="url(#clipPath6073)" />
    <path
       id="path6074"
       d="m 0,0 c 6.091,5.076 15.328,13.214 17.443,16.121 2.114,2.907 8.985,8.193 14.799,-0.264 C 38.056,7.4 40.435,3.7 41.228,1.321 42.021,-1.057 27.221,-27.485 21.935,-33.828 16.65,-40.171 -7.136,-49.421 -12.157,-44.928 -17.178,-40.435 -6.343,-5.286 0,0"
       style="fill:#a863f2;fill-opacity:1;fill-rule:nonzero;stroke:none"
       transform="matrix(1.3333333,0,0,-1.3333333,477.09213,764.22587)"
       clip-path="url(#clipPath6075)" />
    <path
       id="path6076"
       d="m 0,0 c -2.734,-2.699 -4.229,-6.405 -5.747,-9.875 -2.864,-7.108 -5.068,-14.51 -6.467,-22.04 -0.397,-3.155 -2.318,-11.546 1.057,-13.168 2.584,-1.062 5.56,-0.516 8.269,-0.059 3.735,0.738 7.388,1.935 10.931,3.364 3.532,1.454 7.007,3.108 10.183,5.216 3.328,1.967 5.332,5.332 7.471,8.506 4.143,6.459 8.051,13.095 11.513,19.947 1.388,2.985 3.174,5.958 3.81,9.201 -1.393,4.005 -4.292,7.414 -6.573,10.974 -0.528,0.754 -1.93,2.827 -2.448,3.561 C 27.737,21.993 21.532,21.255 17.154,15.432 11.864,9.805 5.863,4.991 0,0 m -0.049,0.059 c 5.808,4.979 11.751,9.966 16.837,15.678 1.086,1.566 2.548,3.007 4.282,3.938 5.35,2.908 9.456,-0.3 12.281,-4.868 1.558,-2.335 3.299,-4.849 4.768,-7.223 1.135,-1.84 2.313,-3.693 3.127,-5.723 0.349,-0.67 0.095,-1.569 -0.147,-2.231 -4.055,-9.767 -9.564,-18.888 -15.052,-27.911 -2.072,-3.242 -4.15,-6.667 -7.492,-8.762 -6.451,-4.278 -13.738,-7.212 -21.29,-8.876 -2.851,-0.508 -5.976,-1.053 -8.767,0.125 0,0 -0.353,0.173 -0.353,0.173 l -0.327,0.235 c -2.956,2.442 -1.287,10.184 -0.732,13.603 1.568,7.548 3.914,14.921 6.973,21.99 1.609,3.456 3.097,7.161 5.892,9.852"
       style="fill:#000000;fill-opacity:1;fill-rule:nonzero;stroke:none"
       transform="matrix(1.3333333,0,0,-1.3333333,477.12467,764.2648)"
       clip-path="url(#clipPath6077)" />
    <path
       id="path6078"
       d="M 0,0 C 5.547,-1.28 29.379,2.263 33.589,4.314 43.896,9.336 64.149,46.51 65.999,51.267 57.542,38.053 49.12,30.713 47.16,27.892 43.102,22.053 28.951,16.464 24.987,22.278 21.023,28.092 -6.871,1.586 0,0"
       style="fill:#fac99c;fill-opacity:1;fill-rule:nonzero;stroke:none"
       transform="matrix(1.3333333,0,0,-1.3333333,437.11667,846.8716)"
       clip-path="url(#clipPath6079)" />
    <path
       id="path6080"
       d="m 0,0 c -5.311,1.789 10.128,16.015 12.379,17.606 1.514,1.221 3.078,2.383 4.731,3.423 2.055,1.169 4.431,2.806 6.975,2.325 0.515,-0.117 1.04,-0.583 1.303,-0.985 0.544,-0.721 1.302,-1.257 2.151,-1.589 5.986,-1.885 13.767,1.852 18.116,5.974 6.917,8.044 14.544,15.59 20.197,24.662 0.11,0.189 0.437,0.024 0.333,-0.181 C 64.615,47.72 62.729,44.411 60.878,41.068 57.127,34.415 53.293,27.807 49.065,21.44 46.963,18.25 44.768,15.112 42.362,12.13 39.91,9.176 37.411,6.143 34.003,4.22 30.411,2.664 26.593,2.281 22.801,1.58 15.366,0.618 7.469,-0.857 0,0 m 0.017,0.074 c 7.569,-0.818 15.243,0.752 22.717,1.904 3.673,0.756 7.546,1.265 10.984,2.781 3.243,1.886 5.721,4.937 8.136,7.783 7.119,8.923 13.219,18.69 18.796,28.653 1.811,3.349 3.673,6.706 5.18,10.179 l 0.338,-0.172 C 60.547,41.884 53.225,34.374 46.229,26.192 41.909,21.801 29.718,16.07 24.838,21.962 c -0.451,0.8 -1.324,0.954 -2.243,0.825 C 18.888,22.04 15.648,19.507 12.64,17.278 8.129,13.675 3.759,9.707 0.477,4.92 -0.298,3.649 -2.243,0.764 0.017,0.074"
       style="fill:#000000;fill-opacity:1;fill-rule:nonzero;stroke:none"
       transform="matrix(1.3333333,0,0,-1.3333333,437.1052,846.92107)"
       clip-path="url(#clipPath6081)" />
    <path
       id="path6082"
       d="m 0,0 c 3.743,-3.152 7.234,-8.646 7.411,-10.587 0.176,-1.941 -5.47,-13.41 6.175,-8.469 C 25.232,-14.116 20.997,-3 20.997,-3 L 6.705,15.704 C 2.47,19.586 -3.352,2.823 0,0"
       style="fill:#fac99c;fill-opacity:1;fill-rule:nonzero;stroke:none"
       transform="matrix(1.3333333,0,0,-1.3333333,566.786,779.30027)"
       clip-path="url(#clipPath6083)" />
    <path
       id="path6084"
       d="M 0,0 C -2.988,2.741 1.264,16.672 5.604,16.397 6.081,16.363 6.481,16.08 6.828,15.798 10.458,11.185 17.715,1.877 21.29,-2.777 c 2.753,-7.995 -1.413,-14.789 -9.309,-17.144 -3.842,-1.33 -6.662,-0.422 -5.793,4.164 0.164,1.019 0.431,2.012 0.7,2.998 0.22,0.983 0.703,1.982 0.277,2.953 C 5.652,-6.034 3.007,-2.713 0,0 m 0,0 c 3.045,-2.699 5.715,-5.983 7.275,-9.769 0.607,-1.872 -0.734,-4.075 -0.829,-6.027 -1.055,-6.274 4.701,-4.273 8.151,-2.447 3.608,1.744 6.379,5.173 6.71,9.23 0.252,1.823 -0.201,4.45 -0.603,5.79 10e-4,0 -7.09,9.393 -7.09,9.393 L 6.582,15.609 C 6.385,15.725 5.932,16.14 5.568,16.12 1.351,16.344 -2.935,2.721 0,0"
       style="fill:#000000;fill-opacity:1;fill-rule:nonzero;stroke:none"
       transform="matrix(1.3333333,0,0,-1.3333333,566.78613,779.29987)"
       clip-path="url(#clipPath6085)" />
    <path
       id="path6086"
       d="m 0,0 c 0.882,-2.823 -0.266,-9.981 0.853,-13.442 1.941,-5.999 16.216,-0.214 12.12,8.932 C 9.208,3.896 5.386,5.548 5.386,5.548"
       style="fill:#fac99c;fill-opacity:1;fill-rule:nonzero;stroke:none"
       transform="matrix(1.3333333,0,0,-1.3333333,583.36627,786.93227)"
       clip-path="url(#clipPath6087)" />
    <path
       id="path6088"
       d="m 0,0 c 0.984,-3.863 0.171,-8.001 0.8,-11.902 0.161,-0.965 0.382,-1.929 1.012,-2.574 3.608,-3.08 10.257,0.936 11.318,5.008 0.546,1.848 0.126,3.812 -0.758,5.571 -1.674,3.528 -3.634,7.247 -6.986,9.445 3.548,-1.957 5.703,-5.702 7.497,-9.205 0.991,-1.774 1.493,-3.979 0.911,-5.995 -1.109,-4.623 -8.508,-8.862 -12.458,-5.261 -0.746,0.796 -0.934,1.905 -1.084,2.933 C -0.265,-7.967 0.69,-3.963 0,0"
       style="fill:#000000;fill-opacity:1;fill-rule:nonzero;stroke:none"
       transform="matrix(1.3333333,0,0,-1.3333333,583.36627,786.93213)"
       clip-path="url(#clipPath6089)" />
    <path
       id="path6090"
       d="m 0,0 c -1.235,4.588 -3.529,15.174 -1.059,19.056 2.471,3.882 6.176,1.765 9.176,-1.764 2.999,-3.529 18.35,-20.645 20.644,-21.703 2.294,-1.059 5.117,3.176 9.175,0 4.058,-3.176 0.353,-11.646 -4.235,-13.587 -4.587,-1.941 -10.41,6.176 -13.41,11.999"
       style="fill:#fac99c;fill-opacity:1;fill-rule:nonzero;stroke:none"
       transform="matrix(1.3333333,0,0,-1.3333333,558.31653,771.53653)"
       clip-path="url(#clipPath6091)" />
    <path
       id="path6092"
       d="m 0,0 c -1.3,5.321 -4.031,14.685 -0.992,19.557 1.465,2.249 4.1,2.264 6.163,0.823 1.918,-1.207 3.287,-3.032 4.767,-4.684 l 4.424,-4.926 c 2.972,-3.264 5.968,-6.509 9.037,-9.674 1.732,-1.731 3.383,-3.61 5.325,-5.052 0.639,-0.444 1.352,-0.26 2.087,-0.005 7.075,3.489 11.333,-2.431 8.026,-8.983 -4.898,-9.085 -10.39,-5.674 -15.176,1.238 -1.26,1.821 -2.377,3.734 -3.37,5.707 2.662,-4.541 5.7,-9.944 10.832,-11.914 3.328,-0.811 5.861,2.581 7.187,5.22 0.883,1.936 1.402,4.199 0.718,6.176 -0.662,1.93 -2.895,3.238 -4.911,2.907 -1.626,-0.157 -3.091,-1.45 -4.855,-1.305 -0.657,0.083 -1.201,0.507 -1.609,0.856 -1.719,1.458 -3.246,3.046 -4.799,4.627 -3.064,3.193 -6.045,6.455 -9.004,9.739 L 9.446,15.263 C 7.968,16.914 6.667,18.716 4.855,19.892 3.045,21.199 0.722,21.284 -0.607,19.273 -1.882,17.517 -1.959,15.167 -1.959,13.052 -1.894,8.649 -1.044,4.272 0,0"
       style="fill:#000000;fill-opacity:1;fill-rule:nonzero;stroke:none"
       transform="matrix(1.3333333,0,0,-1.3333333,558.3168,771.53693)"
       clip-path="url(#clipPath6093)" />
    <path
       id="path6094"
       d="m 0,0 c 1.583,-8.506 5.737,-20.178 10.682,-25.123 4.946,-4.946 14.09,-10.829 28.091,-5.737 2.176,0.791 1.78,19.188 1.583,21.167 2.967,2.769 2.571,3.363 4.154,4.154 1.583,0.791 -4.352,0.989 -5.737,0.593 -1.187,2.77 -3.561,6.924 -4.352,9.1 -0.791,2.176 -2.176,-5.737 -2.374,-7.715 -3.165,2.176 -8.506,2.572 -10.484,1.978 -1.979,-0.593 4.945,-4.154 6.528,-5.934 -0.198,-2.968 -1.187,-8.111 -1.187,-8.111 0,0 -18.595,20.771 -22.75,26.508"
       style="fill:#a863f2;fill-opacity:1;fill-rule:nonzero;stroke:none"
       transform="matrix(1.3333333,0,0,-1.3333333,517.58667,763.87347)"
       clip-path="url(#clipPath6095)" />
    <path
       id="path6096"
       d="m 0,0 c 1.794,-8.006 4.419,-16.064 9.117,-22.853 4.994,-6.489 13.286,-10.346 21.488,-9.594 2.761,0.195 5.489,0.875 8.092,1.784 0.364,0.245 0.506,0.745 0.65,1.194 0.436,1.568 0.585,3.232 0.729,4.874 0.375,4.939 0.351,9.944 0.077,14.878 0.622,0.831 1.541,1.517 2.164,2.383 0.575,0.801 1.335,1.653 2.223,2.071 -0.014,0.008 0.014,-0.109 0.002,-0.074 -1.779,0.544 -3.937,0.423 -5.739,0.15 -0.12,-0.032 -0.243,0.029 -0.291,0.139 -1.291,2.906 -2.937,5.626 -4.218,8.556 -0.014,0.013 -0.268,0.705 -0.309,0.719 -0.031,-0.02 0.165,-0.054 0.162,-0.018 -1.142,-2.365 -1.37,-5.233 -1.775,-7.812 -0.023,-0.27 -0.349,-0.417 -0.568,-0.265 -2.739,1.735 -6.32,2.372 -9.515,2.029 -0.238,-0.028 -0.545,-0.094 -0.735,-0.177 -0.029,-0.019 0.049,0.06 0.025,0.081 0.93,-1.33 3.38,-2.632 4.726,-3.665 0.617,-0.534 1.841,-1.12 2.139,-1.943 -0.227,-2.768 -0.706,-5.46 -1.204,-8.163 -0.045,-0.305 -0.463,-0.418 -0.657,-0.182 -3.846,4.375 -7.665,8.772 -11.455,13.195 C 11.874,1.246 6.921,6.759 4.095,10.904 7.213,7.02 12.134,1.464 15.49,-2.378 c 3.858,-4.359 7.747,-8.693 11.659,-13.003 l -0.655,-0.182 c 0.485,2.674 0.957,5.379 1.169,8.065 l 0.098,-0.286 c -1.115,1.109 -2.633,2.006 -4.01,2.98 -1.162,0.786 -5.028,3.304 -1.582,3.756 3.494,0.334 7.064,-0.328 10.047,-2.219 0,-10e-4 -0.569,-0.264 -0.569,-0.264 0.132,0.949 1.408,10.761 3.02,7.832 1.217,-3.121 2.965,-6.025 4.293,-9.157 l -0.291,0.138 c 2.003,0.297 3.987,0.309 5.929,-0.192 0.122,-0.055 0.292,-0.141 0.335,-0.326 10e-4,-0.463 -0.594,-0.538 -0.769,-0.707 -1.403,-1.083 -2.324,-2.759 -3.732,-3.879 0,0 0.052,0.138 0.052,0.138 0.226,-4.991 0.153,-9.953 -0.109,-14.933 -0.237,-2.048 -0.134,-4.304 -1.216,-6.152 -0.12,-0.179 -0.401,-0.312 -0.605,-0.363 -2.555,-0.899 -5.195,-1.585 -7.904,-1.832 -8.402,-0.976 -16.976,3.033 -22.022,9.752 C 4.008,-16.401 1.225,-7.839 0,0"
       style="fill:#000000;fill-opacity:1;fill-rule:nonzero;stroke:none"
       transform="matrix(1.3333333,0,0,-1.3333333,517.6364,763.8644)"
       clip-path="url(#clipPath6097)" />
    <path
       id="path6098"
       d="M 0,0 C 3.269,-2.84 6.008,-6.399 8.701,-9.77 5.214,-7.078 2.528,-3.572 0,0"
       style="fill:#000000;fill-opacity:1;fill-rule:nonzero;stroke:none"
       transform="matrix(1.3333333,0,0,-1.3333333,543.9632,773.89627)"
       clip-path="url(#clipPath6099)" />
    <path
       id="path6100"
       d="m 0,0 c -3.685,0.621 -6.225,-1.069 -6.098,-10.518 0.055,-4.073 5.318,-17.846 13.956,-22.994 1.642,-0.979 9.341,14.591 7.816,15.718 C 14.037,-16.585 3.473,-0.585 0,0"
       style="fill:#fac99c;fill-opacity:1;fill-rule:nonzero;stroke:none"
       transform="matrix(1.3333333,0,0,-1.3333333,339.18227,787.4984)"
       clip-path="url(#clipPath6101)" />
    <path
       id="path6102"
       d="m 0,0 c 1.717,-0.52 2.871,-2.025 4.117,-3.221 4.315,-4.4 7.748,-9.623 11.746,-14.258 1.992,-1.776 -4.903,-13.886 -6.704,-15.6 -0.383,-0.335 -0.674,-0.789 -1.307,-0.689 -3.106,1.908 -5.426,4.567 -7.501,7.41 -3.354,5.015 -6.794,10.774 -6.743,16.991 C -6.295,-5.421 -5.507,1.296 0,0 m -0.013,-0.075 c -6.46,1.269 -6.032,-7.667 -5.618,-11.855 1.165,-5.059 3.305,-9.948 6.205,-14.272 1.921,-2.828 4.446,-5.5 7.403,-7.183 0.267,-0.006 0.65,0.375 0.853,0.61 1.916,2.354 3.188,5.176 4.489,7.902 0.873,2.129 2.023,4.309 2.135,6.611 -0.048,0.177 0.031,0.044 -0.242,0.301 -2.908,3.335 -5.3,7.008 -7.975,10.504 -1.585,2.082 -3.168,4.195 -5.089,5.983 -0.646,0.567 -1.321,1.188 -2.161,1.399"
       style="fill:#000000;fill-opacity:1;fill-rule:nonzero;stroke:none"
       transform="matrix(1.3333333,0,0,-1.3333333,339.19053,787.4484)"
       clip-path="url(#clipPath6103)" />
    <path
       id="path6104"
       d="m 0,0 c -1.172,3.37 -2.597,6.623 -4.245,9.776 -1.486,2.662 -2.86,5.583 -5.229,7.57 -0.35,0.238 -0.775,0.444 -1.215,0.307 0.41,0.223 0.925,0.079 1.318,-0.133 2.693,-1.704 4.281,-4.69 5.8,-7.392 C -1.935,6.937 -0.608,3.542 0,0"
       style="fill:#000000;fill-opacity:1;fill-rule:nonzero;stroke:none"
       transform="matrix(1.3333333,0,0,-1.3333333,349.06293,819.96987)"
       clip-path="url(#clipPath6105)" />
    <path
       id="path6106"
       d="m 0,0 c -1.563,14.353 -6.58,15.26 -17.834,11.821 1.96,-4.583 9.107,-10.07 13.771,-14.678"
       style="fill:#a863f2;fill-opacity:1;fill-rule:nonzero;stroke:none"
       transform="matrix(1.3333333,0,0,-1.3333333,453.5088,722.9036)"
       clip-path="url(#clipPath6107)" />
    <path
       id="path6108"
       d="m 0,0 c -1.856,12.144 -5.479,15.983 -17.729,11.604 0,0 0.146,0.312 0.146,0.312 3.319,-5.877 9.369,-9.658 13.58,-14.796 -5.016,4.373 -11.051,8.432 -14.011,14.627 -0.05,0.123 0.022,0.266 0.151,0.299 2.182,0.579 4.376,1.136 6.621,1.445 3.398,0.627 7.374,-0.235 9.036,-3.575 C -0.645,6.959 0.063,3.097 0,0"
       style="fill:#000000;fill-opacity:1;fill-rule:nonzero;stroke:none"
       transform="matrix(1.3333333,0,0,-1.3333333,453.45867,722.90933)"
       clip-path="url(#clipPath6109)" />
    <path
       id="path6110"
       d="m 0,0 c 0,0 -6.954,1.772 -6.513,0.531 0.07,-1.877 1.7,-5.074 3.233,-8.921 -2.084,0.246 -3.734,0.424 -3.711,0.001 0.117,-2.072 0.099,-9.72 19.332,-24.504"
       style="fill:#a863f2;fill-opacity:1;fill-rule:nonzero;stroke:none"
       transform="matrix(1.3333333,0,0,-1.3333333,349.14,797.1288)"
       clip-path="url(#clipPath6111)" />
    <path
       id="path6112"
       d="M 0,0 C -1.652,0.089 -3.464,0.414 -5.072,0.776 -5.35,0.844 -6.497,0.998 -6.388,0.61 c 0.137,-1.57 0.838,-3.055 1.452,-4.5 0.637,-1.451 1.311,-2.89 1.931,-4.358 0.086,-0.19 -0.082,-0.415 -0.287,-0.39 -1.108,0.074 -2.364,0.336 -3.414,0.142 -0.011,-0.006 0.048,0.035 0.064,0.097 0.01,0.122 0.002,0 0.009,-0.029 0.06,-1.642 0.52,-3.232 1.193,-4.737 3.913,-8.008 11.167,-13.934 17.813,-19.661 0.038,-0.028 -0.008,-0.09 -0.046,-0.06 -2.162,1.613 -5.087,3.781 -7.066,5.543 -5.34,4.848 -12.373,11.421 -12.564,19.125 0.03,0.151 0.171,0.268 0.237,0.302 1.265,0.389 2.56,-0.068 3.829,-0.154 0,0 -0.299,-0.389 -0.299,-0.389 -1.011,3.002 -2.679,5.847 -3.091,9.023 0,0 0.007,-0.037 0.007,-0.037 -0.029,0.084 -0.04,0.206 0.021,0.306 0.383,0.438 1.045,0.291 1.559,0.362 C -3.518,1.233 -1.118,0.793 0,0"
       style="fill:#000000;fill-opacity:1;fill-rule:nonzero;stroke:none"
       transform="matrix(1.3333333,0,0,-1.3333333,349.12733,797.17813)"
       clip-path="url(#clipPath6113)" />
    <path
       id="path6114"
       d="m 0,0 c -0.528,17.185 -0.701,35.688 -17.036,42.742 -16.335,7.053 -40.897,1.333 -52.293,-2.716 -11.396,-4.049 -22.679,-12.526 -25.92,-15.117 -5.489,-4.388 -10.068,-19.43 -8.79,-26.608 1.278,-7.177 2.678,-13.525 6.151,-20.177 3.474,-6.651 24.645,-37.078 47.315,-29.81 C -27.902,-44.417 0.477,-15.533 0,0"
       style="fill:#a863f2;fill-opacity:1;fill-rule:nonzero;stroke:none"
       transform="matrix(1.3333333,0,0,-1.3333333,482.47947,782.78227)"
       clip-path="url(#clipPath6115)" />
    <path
       id="path6116"
       d="m 0,0 c -0.382,-16.43 -23.013,-36.989 -36.265,-45.213 -12.938,-7.988 -23.584,-11.465 -37.451,-2.965 -5.718,3.462 -10.648,8.046 -15.04,13.021 -6.672,7.426 -12.06,16.15 -14.069,26.027 -0.671,3.26 -1.55,6.474 -1.658,9.823 0.069,6.664 2.059,13.219 5.102,19.104 1.513,3.012 3.921,5.404 6.696,7.257 2.673,1.958 5.395,3.85 8.21,5.6 8.365,5.434 17.776,9.071 27.523,11.145 12.068,2.632 24.981,4.076 36.975,0.327 C -0.379,37.95 -0.481,17.115 0,0 m -0.076,-0.002 c -0.498,16.829 -0.726,37.757 -20.077,43.587 -11.918,3.514 -24.693,2.263 -36.688,-0.282 -9.725,-2.004 -19.092,-5.532 -27.482,-10.893 -2.814,-1.735 -5.569,-3.572 -8.22,-5.549 -2.759,-1.877 -5.086,-4.198 -6.576,-7.207 -2.975,-5.824 -4.921,-12.39 -4.948,-18.952 0.13,-3.26 1.04,-6.52 1.728,-9.716 1.166,-4.794 2.821,-9.506 5.286,-13.784 2.547,-4.232 5.571,-8.182 8.818,-11.902 4.363,-4.93 9.256,-9.464 14.889,-12.864 13.713,-8.376 23.879,-4.79 36.706,2.957 13.307,8.026 36.009,28.207 36.564,44.605"
       style="fill:#000000;fill-opacity:1;fill-rule:nonzero;stroke:none"
       transform="matrix(1.3333333,0,0,-1.3333333,482.53027,782.7804)"
       clip-path="url(#clipPath6117)" />
    <path
       id="path6118"
       d="M 0,0 C 0.942,8.919 5.311,20.832 12.237,19.236 23.094,16.735 24.437,4.323 22.722,-3.681 21.006,-11.685 9.922,-22.096 2.245,-18.133 -5.847,-13.955 -0.309,-2.923 0,0"
       style="fill:#fac99c;fill-opacity:1;fill-rule:nonzero;stroke:none"
       transform="matrix(1.3333333,0,0,-1.3333333,476.59307,784.14347)"
       clip-path="url(#clipPath6119)" />
    <path
       id="path6120"
       d="m 0,0 c -0.858,-4.025 -2.51,-8.167 -1.688,-12.32 1.519,-7.215 9.357,-7.619 14.588,-3.905 5.101,3.434 9.468,8.782 10.061,15.099 0.505,4.146 0.183,8.49 -1.499,12.332 -1.643,3.853 -5.061,6.778 -9.155,7.671 C 10.305,19.438 8.296,18.591 6.847,17.189 2.509,12.648 0.812,6.106 0,0 m -0.076,0.008 c 0.831,6.185 2.092,12.907 6.484,17.64 5.113,5.273 13.35,-0.778 15.346,-6.316 2.001,-4.924 2.077,-10.48 0.958,-15.626 -1.436,-5.143 -5.049,-9.548 -9.419,-12.536 -1.787,-1.172 -3.783,-2.109 -5.949,-2.45 -4.381,-0.829 -9.191,2.305 -9.674,6.849 -0.651,4.347 1.351,8.326 2.254,12.439"
       style="fill:#000000;fill-opacity:1;fill-rule:nonzero;stroke:none"
       transform="matrix(1.3333333,0,0,-1.3333333,476.6436,784.14893)"
       clip-path="url(#clipPath6121)" />
    <path
       id="path6122"
       d="m 0,0 c 1.197,5.713 3.999,13.354 10.255,15.059 0.921,0.125 1.867,0.037 2.687,-0.348 -0.879,0.222 -1.769,0.217 -2.606,-0.016 C 4.553,12.486 2.108,5.329 0,0"
       style="fill:#000000;fill-opacity:1;fill-rule:nonzero;stroke:none"
       transform="matrix(1.3333333,0,0,-1.3333333,482.0544,791.48093)"
       clip-path="url(#clipPath6123)" />
    <path
       id="path6124"
       d="M 0,0 C 0.844,4.046 0.527,10.228 -4.998,6.345 -6.171,5.572 -7.253,4.633 -8.351,3.704 -7.48,4.852 -6.49,5.911 -5.34,6.818 0.516,11.424 2.132,4.562 0,0"
       style="fill:#000000;fill-opacity:1;fill-rule:nonzero;stroke:none"
       transform="matrix(1.3333333,0,0,-1.3333333,493.21133,790.40147)"
       clip-path="url(#clipPath6125)" />
    <path
       id="path6126"
       d="M 0,0 C -1.679,14.954 -12.952,22.931 -24.788,19.695 -44.141,14.403 -45.028,2.869 -51.612,0.403 c -2.733,-1.024 -9.648,6.478 -18.591,-0.512 -7.729,-6.041 -10.395,-17.689 -3.537,-38.24"
       style="fill:#fac99c;fill-opacity:1;fill-rule:nonzero;stroke:none"
       transform="matrix(1.3333333,0,0,-1.3333333,449.36093,759.8544)"
       clip-path="url(#clipPath6127)" />
    <path
       id="path6128"
       d="m 0,0 c -2.048,15.193 -14.126,24.222 -28.949,18.103 -5.126,-1.771 -9.864,-4.727 -13.499,-8.772 -1.867,-1.976 -3.387,-4.238 -5.218,-6.288 -0.922,-1.023 -1.969,-1.999 -3.233,-2.588 -0.583,-0.382 -1.442,-0.515 -2.129,-0.299 -3.215,0.969 -6.352,2.668 -9.741,2.373 -5.349,-0.366 -9.857,-4.531 -12.173,-9.173 -4.67,-9.962 -1.454,-21.813 1.204,-31.712 -4.215,12.133 -8.224,29.093 3.267,38.51 4.707,3.933 10.407,3.774 15.683,1.2 0.909,-0.345 1.84,-0.817 2.804,-0.77 4.15,1.388 6.3,5.991 9.341,8.928 3.706,4.03 8.444,7.041 13.545,8.988 2.552,0.946 5.161,1.893 7.935,2.13 C -9.155,21.842 -0.444,11.033 0,0"
       style="fill:#000000;fill-opacity:1;fill-rule:nonzero;stroke:none"
       transform="matrix(1.3333333,0,0,-1.3333333,449.31027,759.85987)"
       clip-path="url(#clipPath6129)" />
    <path
       id="path6130"
       d="m 0,0 c 8.445,8.255 18.224,25.934 18.697,31.167 -0.077,1.484 -6.398,-2.45 -6.398,-2.45 0,0 7.658,9.04 6.65,15.226 C 18.295,45.512 7.816,39.298 7.816,39.298"
       style="fill:#a863f2;fill-opacity:1;fill-rule:nonzero;stroke:none"
       transform="matrix(1.3333333,0,0,-1.3333333,465.11987,828.61613)"
       clip-path="url(#clipPath6131)" />
    <path
       id="path6132"
       d="m 0,0 c 4.142,4.496 7.557,9.573 10.82,14.722 3.115,5.075 6.692,10.565 7.698,16.407 -0.022,0.087 -0.019,0.088 -0.12,0.116 -0.985,-0.009 -1.912,-0.613 -2.795,-1.028 -1.055,-0.559 -2.089,-1.178 -3.096,-1.819 -0.159,-0.101 -0.371,-0.054 -0.473,0.106 -0.083,0.13 -0.066,0.296 0.03,0.408 2.564,3.286 4.938,6.898 6.169,10.903 0.393,1.223 0.571,3.022 0.439,3.975 -0.697,0.199 -1.753,-0.281 -2.489,-0.533 -2.863,-1.126 -5.601,-2.573 -8.321,-4.019 1.376,1.128 3.581,2.207 5.308,3.19 1.134,0.497 5.435,3.146 6.13,1.541 0.609,-5.883 -3.291,-11.095 -6.712,-15.501 0,0 -0.443,0.513 -0.443,0.513 1.05,0.621 2.113,1.198 3.211,1.729 0.741,0.283 3.332,1.773 3.573,0.441 -0.508,-3.09 -1.995,-5.825 -3.267,-8.636 C 11.673,14.391 6.711,5.884 0,0"
       style="fill:#000000;fill-opacity:1;fill-rule:nonzero;stroke:none"
       transform="matrix(1.3333333,0,0,-1.3333333,465.0844,828.57987)"
       clip-path="url(#clipPath6133)" />
    <path
       id="path6134"
       d="m 0,0 c 7.918,5.343 16.102,6.688 21.648,3.182 6.979,-4.412 10.095,-27.956 6.879,-48.455 -0.588,-3.75 -12.274,-17.265 -24.571,-24.571 -12.296,-7.306 -33.469,-10.134 -39.214,-8.868 -5.746,1.265 -33.328,14.954 -36.64,31.17 -1.052,5.154 10.833,12.433 14.516,14.435"
       style="fill:#fac99c;fill-opacity:1;fill-rule:nonzero;stroke:none"
       transform="matrix(1.3333333,0,0,-1.3333333,431.0224,761.9676)"
       clip-path="url(#clipPath6135)" />
    <path
       id="path6136"
       d="m 0,0 c 6.846,5.003 19.504,8.922 24.856,-0.012 5.992,-11.5 5.824,-28.081 4.516,-40.759 -0.241,-1.734 -0.354,-3.441 -0.789,-5.146 -1.086,-2.701 -3.043,-4.935 -4.862,-7.149 -3.017,-3.477 -6.291,-6.725 -9.769,-9.74 -6.896,-6.15 -15.123,-10.732 -24.066,-13.12 -4.428,-1.284 -8.95,-2.243 -13.521,-2.864 -4.539,-0.469 -9.44,-1.35 -13.822,0.326 -12.362,5.034 -28.862,15.25 -33.879,28.114 -0.378,1.125 -0.763,2.203 -0.829,3.416 0.002,1.239 0.571,2.347 1.211,3.31 3.442,4.671 8.612,7.705 13.575,10.519 0.042,0.024 0.079,-0.045 0.036,-0.067 -4.232,-2.561 -16.314,-9.679 -14.048,-15.386 3.946,-13.191 22.031,-24.19 34.207,-29.166 4.293,-1.651 9,-0.78 13.456,-0.361 4.536,0.604 9.042,1.493 13.456,2.716 8.936,2.267 17.11,6.714 24.032,12.789 3.496,2.967 6.798,6.182 9.741,9.702 1.777,2.207 3.678,4.433 4.719,7.082 1.127,6.168 1.347,12.538 1.27,18.805 C 29.177,-18.432 28.396,-4.01 22.296,2.327 15.626,7.536 6.209,3.821 0,0"
       style="fill:#000000;fill-opacity:1;fill-rule:nonzero;stroke:none"
       transform="matrix(1.3333333,0,0,-1.3333333,430.99387,761.9256)"
       clip-path="url(#clipPath6137)" />
    <path
       id="path6138"
       d="m 0,0 c -4.12,4.899 -10.053,4.848 -14.888,3.218 -2.183,-0.736 -7.049,-3.622 -4.535,-7.436"
       style="fill:#fac99c;fill-opacity:1;fill-rule:nonzero;stroke:none"
       transform="matrix(1.3333333,0,0,-1.3333333,399.99787,793.10627)"
       clip-path="url(#clipPath6139)" />
    <path
       id="path6140"
       d="m 0,0 c -3.048,3.258 -7.577,4.415 -11.874,3.601 -3.021,-0.52 -6.602,-1.719 -7.932,-4.729 -0.399,-0.99 -0.172,-2.143 0.383,-3.09 -0.679,0.858 -1.03,2.066 -0.699,3.191 1.169,3.337 4.92,4.756 8.123,5.359 C -7.603,5.199 -2.626,3.787 0,0"
       style="fill:#000000;fill-opacity:1;fill-rule:nonzero;stroke:none"
       transform="matrix(1.3333333,0,0,-1.3333333,399.99773,793.10587)"
       clip-path="url(#clipPath6141)" />
    <path
       id="path6142"
       d="M 0,0 C 0.251,-0.338 0.975,-0.225 1.616,0.252 2.258,0.728 2.575,1.388 2.324,1.726 2.073,2.064 1.349,1.951 0.708,1.475 0.066,0.998 -0.251,0.338 0,0"
       style="fill:#000000;fill-opacity:1;fill-rule:nonzero;stroke:none"
       transform="matrix(1.3333333,0,0,-1.3333333,389.34267,796.87867)"
       clip-path="url(#clipPath6143)" />
    <path
       id="path6144"
       d="M 0,0 C 0.17,0.385 0.9,0.436 1.632,0.114 2.363,-0.208 2.819,-0.782 2.649,-1.167 2.48,-1.552 1.749,-1.603 1.018,-1.281 0.286,-0.958 -0.169,-0.385 0,0"
       style="fill:#000000;fill-opacity:1;fill-rule:nonzero;stroke:none"
       transform="matrix(1.3333333,0,0,-1.3333333,376.76453,797.05133)"
       clip-path="url(#clipPath6145)" />
    <path
       id="path6146"
       d="M 0,0 C 9.169,4.895 13.543,4.058 19.637,4.411 18.069,8.765 9.163,20.163 2.832,18.671 -0.671,17.846 -5.367,7.884 -5.656,1.98"
       style="fill:#a863f2;fill-opacity:1;fill-rule:nonzero;stroke:none"
       transform="matrix(1.3333333,0,0,-1.3333333,459.47173,726.71867)"
       clip-path="url(#clipPath6147)" />
    <path
       id="path6148"
       d="m 0,0 c 4.333,2.732 9.384,4.526 14.552,4.392 1.705,0.011 3.404,-0.011 5.095,0.115 L 19.534,4.335 C 17.176,9.574 10.583,17.312 4.726,18.322 1.059,18.901 -0.789,14.61 -2.35,11.972 -3.976,8.897 -5.122,5.183 -5.676,1.948 -5.68,6.682 -1.327,20.332 4.825,19.12 11.269,17.9 17.249,10.141 19.777,4.422 19.808,4.343 19.749,4.251 19.662,4.249 16.284,4.139 12.87,4.014 9.572,3.278 6.285,2.704 2.927,1.058 0,0"
       style="fill:#000000;fill-opacity:1;fill-rule:nonzero;stroke:none"
       transform="matrix(1.3333333,0,0,-1.3333333,459.4476,726.67427)"
       clip-path="url(#clipPath6149)" />
    <path
       id="path6150"
       d="m 0,0 c -7.275,-5.416 -14.694,-5.8 -19.642,-6.4 -4.948,-0.6 -9.873,-6.064 -8.653,-10.809 1.219,-4.744 4.668,-8.342 10.597,-10.095 5.929,-1.752 34.884,-7.174 51.43,9.253 16.546,16.427 13.83,44.156 8.834,49.222 C 36.283,37.541 23.914,25.804 20.398,21.606 14.685,14.785 7.935,5.906 0,0"
       style="fill:#000000;fill-opacity:1;fill-rule:nonzero;stroke:none"
       transform="matrix(1.3333333,0,0,-1.3333333,393.68133,810.83747)"
       clip-path="url(#clipPath6151)" />
    <path
       id="path6152"
       d="m 0,0 c 7.193,5.443 12.795,12.588 18.435,19.552 4.165,5.267 9.196,10.279 15.482,12.947 5.007,2.093 9.503,0.449 11.11,-5.005 2.121,-6.493 2.107,-13.5 1.188,-20.198 -1.316,-8.917 -4.926,-17.671 -11.139,-24.29 -9.334,-10.182 -23.903,-13.189 -37.215,-12.773 -9.433,0.627 -22.802,0.901 -26.22,11.702 -1.899,5.767 3.874,11.586 9.442,11.885 C -12.228,-5.675 -5.429,-4.147 0,0 m 0.045,-0.061 c -5.405,-4.185 -12.244,-5.783 -18.924,-6.452 -4.366,-0.343 -8.383,-3.912 -9.192,-8.185 -0.37,-2.155 0.606,-4.331 1.693,-6.152 2.38,-3.808 6.657,-5.846 10.955,-6.731 16.989,-3.628 37.738,-2.778 50.193,10.869 6.077,6.619 9.477,15.309 10.738,24.11 0.877,6.585 0.813,13.477 -1.234,19.833 -2.536,8.498 -10.583,5.211 -15.842,1.284 C 24.819,25.895 21.592,22.77 18.8,19.251 13.027,12.393 7.258,5.352 0.045,-0.061"
       style="fill:#000000;fill-opacity:1;fill-rule:nonzero;stroke:none"
       transform="matrix(1.3333333,0,0,-1.3333333,393.65147,810.79667)"
       clip-path="url(#clipPath6153)" />
    <path
       id="path6154"
       d="M 0,0 C -3.049,-0.207 -7.154,3.593 -7.621,4.117 -3.135,8.181 0.723,13.184 4.415,17.656 6.469,15.761 7.718,14.307 8.626,11.654 10.376,6.542 5.364,0.364 0,0"
       style="fill:#ffffff;fill-opacity:1;fill-rule:nonzero;stroke:none"
       transform="matrix(1.3333333,0,0,-1.3333333,409.65467,812.028)"
       clip-path="url(#clipPath6155)" />
    <path
       id="path6156"
       d="M 0,0 C 5.701,0.558 10.531,7.452 7.735,12.814 6.968,14.586 5.65,16.042 4.227,17.411 l 0.408,0.028 C 0.548,12.975 -2.969,7.98 -7.391,3.827 c 0,0 0.025,0.478 0.025,0.478 C -5.317,2.43 -2.972,0.023 0,0 m 0.005,-0.076 c -3.016,0.054 -5.732,1.928 -7.877,3.928 -0.129,0.132 -0.122,0.348 0.016,0.47 4.553,3.991 8.452,8.621 12.057,13.475 0.098,0.13 0.292,0.142 0.407,0.028 3.064,-2.485 5.785,-6.65 4.4,-10.74 C 7.754,3.203 4.047,0.248 0.005,-0.076"
       style="fill:#000000;fill-opacity:1;fill-rule:nonzero;stroke:none"
       transform="matrix(1.3333333,0,0,-1.3333333,409.65147,811.9776)"
       clip-path="url(#clipPath6157)" />
    <path
       id="path6158"
       d="m 0,0 c -2.182,-3.781 -9.485,-3.464 -11.099,-2.232 -1.777,1.355 -3.455,3.167 -3.976,5.643 -0.007,0.032 -0.031,0.057 -0.048,0.084 0.588,0.206 1.185,0.353 1.784,0.425 3.431,0.416 8.073,0.328 13.007,2.284 C 1.027,4.204 1.264,2.19 0,0"
       style="fill:#ffffff;fill-opacity:1;fill-rule:nonzero;stroke:none"
       transform="matrix(1.3333333,0,0,-1.3333333,385.27667,824.59773)"
       clip-path="url(#clipPath6159)" />
    <path
       id="path6160"
       d="m 0,0 c 1.208,1.917 0.781,4.298 -0.582,5.993 0,0 0.41,-0.126 0.41,-0.126 -2.345,-1.031 -4.885,-1.551 -7.405,-1.793 -2.477,-0.355 -5.074,-0.038 -7.466,-0.729 0,0 0.073,0.203 0.073,0.203 0.385,-1.626 1.116,-3.001 2.306,-4.144 1.128,-1.141 2.366,-1.988 4.033,-2.069 C -5.659,-2.878 -1.779,-2.836 0,0 m 0.066,-0.038 c -2.171,-3.379 -7.729,-4.308 -11.192,-2.499 -1.903,1.498 -3.523,3.612 -4.084,5.942 -0.027,0.077 -0.01,0.172 0.074,0.203 2.406,0.857 4.986,0.796 7.473,1.191 2.47,0.329 4.891,0.878 7.238,1.705 0.151,0.062 0.325,0.007 0.41,-0.126 1.322,-1.899 1.321,-4.496 0.081,-6.416"
       style="fill:#000000;fill-opacity:1;fill-rule:nonzero;stroke:none"
       transform="matrix(1.3333333,0,0,-1.3333333,385.2328,824.57267)"
       clip-path="url(#clipPath6161)" />
    <path
       id="path6162"
       d="M 0,0 C 6.179,1.692 12.192,4.645 17.109,9.526 23.467,15.838 26.98,23.818 28.614,31.541 19.667,33.01 -5.491,17.109 0,0"
       style="fill:#8a3131;fill-opacity:1;fill-rule:nonzero;stroke:none"
       transform="matrix(1.3333333,0,0,-1.3333333,415.84547,847.60707)"
       clip-path="url(#clipPath6163)" />
    <path
       id="path6164"
       d="m 0,0 c -4.153,12.343 6.944,23.526 17.05,28.813 3.581,1.757 7.526,3.432 11.612,2.944 0.105,-0.015 0.174,-0.118 0.151,-0.221 C 27.966,27.869 26.775,24.287 25.204,20.869 20.635,10.27 11.318,2.44 0,0 m 0.036,0.067 c 14.646,4.166 25.741,16.567 28.415,31.546 0,-0.001 0.151,-0.221 0.151,-0.221 C 24.657,31.754 20.816,29.964 17.376,28.195 7.562,22.773 -3.203,12.288 0.036,0.067"
       style="fill:#000000;fill-opacity:1;fill-rule:nonzero;stroke:none"
       transform="matrix(1.3333333,0,0,-1.3333333,415.82133,847.65147)"
       clip-path="url(#clipPath6165)" />
    <path
       id="path6166"
       d="m 0,0 c 0,3.646 0.728,8.973 5.578,11.883 4.85,2.911 15.764,2.183 18.674,0.97 C 27.162,11.641 30.8,7.518 27.889,4.365 24.979,1.212 21.099,-6.548 17.219,-7.761 13.338,-8.973 8.003,-1.94 5.578,-2.183 3.153,-2.425 0,-1.94 0,0"
       style="fill:#fac99c;fill-opacity:1;fill-rule:nonzero;stroke:none"
       transform="matrix(1.3333333,0,0,-1.3333333,442.52627,914.1508)"
       clip-path="url(#clipPath6167)" />
    <path
       id="path6168"
       d="m 0,0 c -0.007,-0.862 0.751,-1.45 1.5,-1.721 1.758,-0.747 3.328,-0.097 4.953,-0.455 2.34,-0.959 4.167,-2.827 6.308,-4.064 1.306,-0.767 2.863,-1.581 4.369,-1.118 2.931,1.256 4.806,4.383 6.699,6.886 1.334,2.077 3.026,3.959 4.48,5.947 1.438,3.105 -1.738,6.371 -4.519,7.401 -3.977,1.105 -8.262,0.955 -12.311,0.455 C 3.965,12.633 -0.126,7.401 0,0 m -0.076,0 c -0.216,7.576 3.532,13.366 11.475,13.954 4.17,0.367 8.427,0.241 12.466,-0.855 C 26.829,12.02 30.226,8.645 28.757,5.253 28.396,4.469 27.753,3.895 27.255,3.202 25.267,0.539 23.582,-2.359 21.418,-4.919 18.819,-8.102 16.082,-9.482 12.377,-6.853 10.955,-5.924 9.682,-4.84 8.384,-3.814 7.4,-3.117 6.456,-2.214 5.178,-2.352 3.39,-2.337 0.15,-2.323 -0.076,0"
       style="fill:#000000;fill-opacity:1;fill-rule:nonzero;stroke:none"
       transform="matrix(1.3333333,0,0,-1.3333333,442.5772,914.1508)"
       clip-path="url(#clipPath6169)" />
    <path
       id="path6170"
       d="m 0,0 c -5.335,-2.183 -11.883,-5.335 -14.066,-8.246 -2.183,-2.91 -6.327,-19.256 2.425,-21.098 4.608,-0.971 6.306,8.003 8.003,12.368 1.698,4.365 6.791,6.79 9.216,8.003"
       style="fill:#fac99c;fill-opacity:1;fill-rule:nonzero;stroke:none"
       transform="matrix(1.3333333,0,0,-1.3333333,449.64013,907.68373)"
       clip-path="url(#clipPath6171)" />
    <path
       id="path6172"
       d="m 0,0 c -2.596,-1.215 -5.18,-2.448 -7.665,-3.842 -2.35,-1.388 -5.058,-2.823 -6.533,-5.153 -2.372,-4.958 -3.739,-11.194 -1.68,-16.476 0.93,-2.359 4.107,-4.574 6.45,-3.04 2.153,1.712 2.968,4.713 3.906,7.243 0.921,2.704 1.608,5.737 3.771,7.774 2.044,2.02 4.803,3.656 7.332,4.523 -9.914,-5.255 -8.098,-7.513 -11.919,-16.597 -0.904,-1.857 -2.487,-4.399 -4.945,-4.107 -2.287,0.231 -4.194,1.969 -4.977,4.041 -1.053,2.762 -0.946,5.727 -0.656,8.569 0.377,2.848 0.9,5.702 2.165,8.37 1.552,2.598 4.291,3.945 6.808,5.366 C -5.405,-2.091 -2.602,-0.684 0,0"
       style="fill:#000000;fill-opacity:1;fill-rule:nonzero;stroke:none"
       transform="matrix(1.3333333,0,0,-1.3333333,449.6592,907.73093)"
       clip-path="url(#clipPath6173)" />
    <path
       id="path6174"
       d="m 0,0 c -2.668,-4.608 -5.093,-13.338 -2.668,-18.189 2.425,-4.85 9.216,-9.458 13.581,-6.305 4.365,3.152 2.425,8.003 0,8.973 -2.425,0.97 -3.88,5.093 -1.94,8.246"
       style="fill:#fac99c;fill-opacity:1;fill-rule:nonzero;stroke:none"
       transform="matrix(1.3333333,0,0,-1.3333333,456.43053,913.50413)"
       clip-path="url(#clipPath6175)" />
    <path
       id="path6176"
       d="m 0,0 c -2.509,-5.523 -5.391,-14.424 -1.533,-19.826 2.467,-3.443 7.49,-6.817 11.667,-4.677 1.926,1.075 3.262,3.237 2.879,5.401 -0.165,1.061 -0.709,2.068 -1.498,2.789 -0.968,0.662 -2.148,1.137 -2.725,2.251 -1.261,2.004 -1.287,5.149 0.183,6.786 -1.347,-2.496 -0.855,-5.969 1.456,-7.6 3.056,-1.072 4.383,-4.975 2.702,-7.731 -4.718,-7.417 -14.439,-0.362 -16.551,5.747 -1.114,3.418 -0.494,7.132 0.463,10.495 C -2.229,-4.201 -1.371,-1.68 0,0"
       style="fill:#000000;fill-opacity:1;fill-rule:nonzero;stroke:none"
       transform="matrix(1.3333333,0,0,-1.3333333,456.47427,913.52973)"
       clip-path="url(#clipPath6177)" />
    <path
       id="path6178"
       d="m 0,0 c 2.425,-1.698 5.82,-6.063 4.608,-7.518 -1.213,-1.455 -6.306,-3.395 -6.306,-3.395 0,0 1.213,-2.91 2.91,-2.668 1.698,0.243 8.489,0.728 8.004,-5.093 -0.485,-5.82 -11.399,-7.518 -15.522,-3.88 -4.122,3.638 -3.395,8.488 -3.152,10.428"
       style="fill:#fac99c;fill-opacity:1;fill-rule:nonzero;stroke:none"
       transform="matrix(1.3333333,0,0,-1.3333333,479.06547,900.89333)"
       clip-path="url(#clipPath6179)" />
    <path
       id="path6180"
       d="m 0,0 c 2.231,-1.593 4.484,-3.735 5.118,-6.507 0.331,-2.298 -4.991,-3.941 -6.734,-4.708 0,0 0.164,0.382 0.164,0.382 0.345,-0.821 0.823,-1.662 1.5,-2.22 0.736,-0.67 1.727,-0.257 2.607,-0.297 1.886,-0.006 3.956,-0.224 5.426,-1.54 1.481,-1.345 1.687,-3.695 0.922,-5.487 -0.805,-1.885 -2.644,-3.004 -4.432,-3.677 -8.778,-3.15 -16.12,2.534 -14.089,11.902 -0.501,-5.722 1.794,-11.557 8.414,-11.906 3.435,-0.179 7.848,0.65 9.605,3.913 0.778,1.556 0.701,3.786 -0.612,5.051 -1.727,1.576 -4.392,1.634 -6.62,1.321 -1.616,-0.215 -2.624,1.497 -3.256,2.717 0,0 -0.127,0.258 -0.127,0.258 l 0.291,0.125 c 1.863,0.807 3.779,1.605 5.469,2.726 0.506,0.363 0.971,0.687 0.88,1.382 C 4.039,-3.925 1.696,-1.781 0,0"
       style="fill:#000000;fill-opacity:1;fill-rule:nonzero;stroke:none"
       transform="matrix(1.3333333,0,0,-1.3333333,479.0948,900.852)"
       clip-path="url(#clipPath6181)" />
    <path
       id="path6182"
       d="m 0,0 c -2.888,-7.221 -18.751,-56.956 -19.473,-60.566 -4.333,-2.166 -2.776,-1.308 -6.474,-1.024 -2.596,0.2 -0.025,-6.919 6.474,-6.919 1.634,-6.167 7.103,-5.879 10.353,-6.601 0.991,-0.317 -1.11,4.083 -0.243,6.24 4.693,-1.084 11.192,0 15.345,5.596 -7.583,0.361 -9.207,0.542 -8.846,1.986 0.361,1.444 9.233,58.021 9.594,61.632"
       style="fill:#a863f2;fill-opacity:1;fill-rule:nonzero;stroke:none"
       transform="matrix(1.3333333,0,0,-1.3333333,481.9756,811.97053)"
       clip-path="url(#clipPath6183)" />
    <path
       id="path6184"
       d="m 0,0 c -3.13,-8.574 -7.019,-21.409 -9.884,-30.236 -2.76,-8.96 -6.909,-21.487 -9.31,-30.386 -0.018,-0.087 -0.077,-0.161 -0.152,-0.198 -1.095,-0.511 -2.101,-1.162 -3.31,-1.444 -1.213,-0.097 -2.317,0.418 -3.504,0.362 -0.546,-0.028 -0.559,-0.905 -0.331,-1.571 0.965,-2.854 4.036,-4.754 7.018,-4.695 0.157,0.002 0.289,-0.104 0.328,-0.248 0.522,-2.068 1.805,-3.921 3.766,-4.829 1.982,-0.976 4.207,-1.056 6.374,-1.506 0.008,0.004 -0.058,0.025 -0.178,-0.06 -0.07,-0.07 -0.045,-0.086 -0.047,-0.044 -0.173,2.021 -1.186,4.072 -0.474,6.121 0.067,0.171 0.25,0.264 0.423,0.221 5.511,-1.3 11.655,0.809 15.009,5.427 0,0 0.238,-0.504 0.238,-0.504 -1.501,0.078 -3.003,0.154 -4.508,0.266 -1.251,0.219 -4.834,-0.026 -4.638,1.896 2.183,12.625 5.049,31.254 7.12,43.955 0.947,5.936 1.941,11.866 2.789,17.817 C 5.969,-5.62 5.063,-11.564 4.205,-17.514 2.236,-30.92 -0.337,-47.54 -2.519,-60.972 c -0.227,-0.87 -0.093,-1.092 0.733,-1.328 2.539,-0.552 5.191,-0.491 7.783,-0.658 0.244,-0.003 0.392,-0.313 0.238,-0.504 -3.476,-4.846 -9.897,-7.098 -15.681,-5.765 0,0 0.423,0.22 0.423,0.22 -0.549,-1.682 0.273,-3.692 0.526,-5.439 0.018,-0.301 0.11,-0.604 -0.174,-0.918 -0.221,-0.195 -0.446,-0.133 -0.563,-0.105 -1.917,0.399 -4.434,0.554 -6.463,1.579 -2.114,0.983 -3.569,3.069 -4.106,5.293 l 0.33,-0.254 c -3.563,-0.046 -7.71,2.652 -7.761,6.49 0.376,2.102 3.159,0.482 4.484,0.68 1.088,0.257 2.12,0.895 3.15,1.368 l -0.151,-0.197 C -13.807,-40.469 -7.092,-19.637 0,0"
       style="fill:#000000;fill-opacity:1;fill-rule:nonzero;stroke:none"
       transform="matrix(1.3333333,0,0,-1.3333333,481.9756,811.97053)"
       clip-path="url(#clipPath6185)" />
    <path
       id="path6186"
       d="m 0,0 c -6.146,-7.194 -6.284,-17.164 -0.308,-22.268 5.975,-5.104 16.093,-0.886 22.239,6.308 6.145,7.194 6.502,13.077 0.527,18.181 C 16.483,7.326 6.145,7.194 0,0"
       style="fill:#ffffff;fill-opacity:1;fill-rule:nonzero;stroke:none"
       transform="matrix(1.3333333,0,0,-1.3333333,395.00067,749.43907)"
       clip-path="url(#clipPath6187)" />
    <path
       id="path6188"
       d="m 0,0 c 5.163,6.309 15.226,8.148 21.929,3.117 3.318,-2.354 5.948,-6.384 5.042,-10.596 -1.85,-7.581 -9.28,-14.068 -16.495,-16.491 -6.359,-2.208 -12.618,0.538 -14.713,7.073 C -6.152,-11.019 -3.863,-4.523 0,0 m 0.058,-0.049 c -2.565,-3.054 -4.22,-6.897 -4.426,-10.848 -0.599,-8.542 6.028,-15.77 14.767,-12.822 7.172,2.274 14.108,8.972 15.869,16.363 0.777,3.964 -1.723,7.581 -4.804,9.842 C 15.07,7.235 5.194,6.091 0.058,-0.049"
       style="fill:#1d1d1b;fill-opacity:1;fill-rule:nonzero;stroke:none"
       transform="matrix(1.3333333,0,0,-1.3333333,394.962,749.406)"
       clip-path="url(#clipPath6189)" />
    <path
       id="path6190"
       d="m 0,0 c 1.398,-4.787 7.51,-7.213 13.652,-5.42 6.142,1.794 9.988,7.128 8.59,11.915 -1.398,4.787 -7.51,7.214 -13.652,5.42 C 2.448,10.121 -1.398,4.787 0,0"
       style="fill:#a661f2;fill-opacity:1;fill-rule:nonzero;stroke:none"
       transform="matrix(1.3333333,0,0,-1.3333333,395.64227,771.8452)"
       clip-path="url(#clipPath6191)" />
    <path
       id="path6192"
       d="M 0,0 C -2.026,8.736 9.221,14.72 16.694,12.19 22.854,10.363 24.839,3.566 20.63,-1.289 15.693,-7.44 2.993,-8.453 0,0 M 0,0 C 3.011,-8.347 15.494,-7.033 20.126,-0.88 23.927,3.621 22.116,9.824 16.489,11.573 9.275,14.263 -1.956,8.656 0,0"
       style="fill:#000000;fill-opacity:1;fill-rule:nonzero;stroke:none"
       transform="matrix(1.3333333,0,0,-1.3333333,395.64227,771.84547)"
       clip-path="url(#clipPath6193)" />
    <path
       id="path6194"
       d="m 0,0 c 0.952,-3.261 5.085,-4.922 9.231,-3.711 4.146,1.21 6.736,4.835 5.783,8.096 C 14.062,7.645 9.929,9.307 5.783,8.096 1.637,6.885 -0.952,3.261 0,0"
       style="fill:#000000;fill-opacity:1;fill-rule:nonzero;stroke:none"
       transform="matrix(1.3333333,0,0,-1.3333333,401.41413,771.1312)"
       clip-path="url(#clipPath6195)" />
    <path
       id="path6196"
       d="M 0,0 C 0.669,-2.292 3.197,-3.569 5.646,-2.854 8.094,-2.139 9.537,0.298 8.868,2.59 8.199,4.881 5.671,6.159 3.222,5.444 0.773,4.729 -0.669,2.291 0,0"
       style="fill:#ffffff;fill-opacity:1;fill-rule:nonzero;stroke:none"
       transform="matrix(1.3333333,0,0,-1.3333333,413.1276,768.59467)"
       clip-path="url(#clipPath6197)" />
    <path
       id="path6198"
       d="M 0,0 C 1.364,-7.187 5.227,-8.059 11.594,-6.851 17.961,-5.643 23.33,3.593 20.274,10.246 17.219,16.899 13.998,20.71 7.631,19.502 1.264,18.295 -1.363,7.187 0,0"
       style="fill:#ffffff;fill-opacity:1;fill-rule:nonzero;stroke:none"
       transform="matrix(1.3333333,0,0,-1.3333333,348.35387,790.3936)"
       clip-path="url(#clipPath6199)" />
    <path
       id="path6200"
       d="M 0,0 C -1.067,6.477 -0.22,16.581 6.589,19.607 14.283,22.087 18.575,15.626 20.851,9.277 22.567,3.034 18.919,-4.481 12.839,-6.862 6.236,-8.654 1.158,-7.526 0,0 m 0.075,0.014 c 1.037,-5.938 4.485,-7.851 10.253,-6.745 1.079,0.174 2.393,0.449 3.374,0.937 4.545,2.322 7.696,7.505 7.309,12.649 -0.28,3.165 -2.183,6.012 -3.941,8.567 C 14.806,18.718 10.644,20.2 6.863,18.856 0.781,16.225 -0.92,5.936 0.075,0.014"
       style="fill:#1d1d1b;fill-opacity:1;fill-rule:nonzero;stroke:none"
       transform="matrix(1.3333333,0,0,-1.3333333,348.30373,790.4028)"
       clip-path="url(#clipPath6201)" />
    <path
       id="path6202"
       d="m 0,0 c 1.202,-4.114 6.455,-6.2 11.734,-4.658 5.279,1.541 8.584,6.127 7.383,10.241 -1.202,4.114 -6.455,6.2 -11.734,4.658 C 2.104,8.699 -1.202,4.114 0,0"
       style="fill:#a661f2;fill-opacity:1;fill-rule:nonzero;stroke:none"
       transform="matrix(1.3333333,0,0,-1.3333333,354.40173,790.24013)"
       clip-path="url(#clipPath6203)" />
    <path
       id="path6204"
       d="M 0,0 C -1.745,7.514 7.922,12.684 14.363,10.52 19.704,8.931 21.414,3.079 17.767,-1.136 13.502,-6.424 2.572,-7.274 0,0 M 0,0 C 2.59,-7.168 13.303,-6.017 17.264,-0.728 20.503,3.076 18.938,8.441 14.158,9.903 7.975,12.227 -1.676,7.435 0,0"
       style="fill:#000000;fill-opacity:1;fill-rule:nonzero;stroke:none"
       transform="matrix(1.3333333,0,0,-1.3333333,354.40147,790.24)"
       clip-path="url(#clipPath6205)" />
    <path
       id="path6206"
       d="m 0,0 c 0.818,-2.802 4.371,-4.231 7.934,-3.19 3.564,1.041 5.789,4.156 4.971,6.959 C 12.086,6.571 8.534,7.999 4.97,6.959 1.407,5.918 -0.818,2.803 0,0"
       style="fill:#000000;fill-opacity:1;fill-rule:nonzero;stroke:none"
       transform="matrix(1.3333333,0,0,-1.3333333,359.36267,789.6264)"
       clip-path="url(#clipPath6207)" />
    <path
       id="path6208"
       d="M 0,0 C 0.575,-1.969 2.748,-3.068 4.852,-2.453 6.957,-1.838 8.197,0.256 7.622,2.226 7.047,4.195 4.874,5.294 2.77,4.679 0.665,4.064 -0.575,1.969 0,0"
       style="fill:#ffffff;fill-opacity:1;fill-rule:nonzero;stroke:none"
       transform="matrix(1.3333333,0,0,-1.3333333,369.43013,787.44627)"
       clip-path="url(#clipPath6209)" />
    <path
       id="path6210"
       d="m 0,0 c -0.109,3.866 0.264,6.814 2.335,14.18 0.442,1.574 -2.963,1.758 -4.32,1.375 -1.357,-0.382 -3.98,-4.01 -2.44,-15.94 C -4.212,-2.036 0.062,-2.199 0,0"
       style="fill:#441d6e;fill-opacity:1;fill-rule:nonzero;stroke:none"
       transform="matrix(1.3333333,0,0,-1.3333333,350.17387,762.56173)"
       clip-path="url(#clipPath6211)" />
    <path
       id="path6212"
       d="m 0,0 c -0.031,-2.003 -3.197,-2.195 -4.37,-0.991 -0.314,0.322 -0.316,0.932 -0.413,1.338 -0.548,3.06 -0.749,6.204 -0.338,9.303 0.252,1.758 0.632,3.588 1.742,5.097 0.523,0.8 1.538,1.175 2.456,1.13 C 0.153,15.85 1.501,15.871 2.285,14.982 2.685,14.54 2.182,13.456 2.104,12.972 1.666,11.262 0.886,7.021 0.524,5.233 0.171,3.522 -0.064,1.763 0,0 m -0.076,-0.002 c -0.396,4.452 0.426,8.856 1.917,13.046 0.189,0.755 0.798,1.755 -0.225,2.162 -0.764,0.347 -1.67,0.402 -2.523,0.345 -0.887,-0.025 -1.618,-0.305 -2.068,-1.095 -2.08,-3.815 -1.513,-8.525 -1.418,-12.739 0.03,-0.418 0.071,-1.567 0.106,-1.976 0.215,-1.799 4.286,-1.767 4.211,0.257"
       style="fill:#000000;fill-opacity:1;fill-rule:nonzero;stroke:none"
       transform="matrix(1.3333333,0,0,-1.3333333,350.22427,762.5604)"
       clip-path="url(#clipPath6213)" />
    <path
       id="path6214"
       d="m 0,0 c -3.707,2.272 -5.646,3.614 -16.139,4.88 -1.623,0.196 -0.853,3.765 0.06,4.839 0.912,1.075 8.631,2.815 17.597,-5.017 C 2.771,3.607 0.897,-0.55 0,0"
       style="fill:#441d6e;fill-opacity:1;fill-rule:nonzero;stroke:none"
       transform="matrix(1.3333333,0,0,-1.3333333,417.46867,730.7092)"
       clip-path="url(#clipPath6215)" />
    <path
       id="path6216"
       d="M 0,0 C 0.463,-0.178 0.818,0.46 1.04,0.792 1.618,1.9 2.413,3.823 1.168,4.724 -3.387,8.122 -9.112,11.272 -14.948,10.036 -16.005,9.857 -16.41,9.008 -16.689,8.084 -16.937,7.219 -17.17,6.119 -16.7,5.314 c 0.226,-0.398 0.763,-0.345 1.254,-0.439 l 1.477,-0.175 2.96,-0.349 C -6.985,4.036 -3.246,2.297 0,0 m -0.04,-0.065 c -4.852,3.046 -10.616,3.966 -16.177,4.795 -1.451,0.38 -1.031,2.362 -0.782,3.445 0.251,1.039 0.818,2.045 1.91,2.303 C -8.946,12.191 -2.158,8.902 1.893,4.361 2.436,3.411 1.24,-0.427 -0.04,-0.065"
       style="fill:#000000;fill-opacity:1;fill-rule:nonzero;stroke:none"
       transform="matrix(1.3333333,0,0,-1.3333333,417.4952,730.66587)"
       clip-path="url(#clipPath6217)" />
  </g>
</svg>
