<?xml version="1.0" encoding="UTF-8" standalone="no"?>
<!-- Created with Inkscape (http://www.inkscape.org/) -->

<svg
   version="1.1"
   id="svg1"
   width="761.97949"
   height="442.53012"
   viewBox="0 0 761.9795 442.53012"
   sodipodi:docname="Juani y Nacho Banners Editables INCOGNITA.ai"
   xmlns:inkscape="http://www.inkscape.org/namespaces/inkscape"
   xmlns:sodipodi="http://sodipodi.sourceforge.net/DTD/sodipodi-0.dtd"
   xmlns="http://www.w3.org/2000/svg"
   xmlns:svg="http://www.w3.org/2000/svg">
  <defs
     id="defs1">
    <clipPath
       clipPathUnits="userSpaceOnUse"
       id="clipPath90">
      <path
         d="M 0,453.543 H 1785.827 V 0 H 0 Z"
         transform="translate(-735.72772,-145.3558)"
         id="path90" />
    </clipPath>
  </defs>
  <sodipodi:namedview
     id="namedview1"
     pagecolor="#ffffff"
     bordercolor="#000000"
     borderopacity="0.25"
     inkscape:showpageshadow="2"
     inkscape:pageopacity="0.0"
     inkscape:pagecheckerboard="0"
     inkscape:deskcolor="#d1d1d1">
    <inkscape:page
       x="0"
       y="0"
       width="761.97949"
       height="442.53012"
       id="page2"
       margin="0"
       bleed="0" />
  </sodipodi:namedview>
  <g
     id="layer-MC5"
     inkscape:groupmode="layer"
     inkscape:label="triceratops"
     transform="translate(-237.31221,-72.225738)">
    <path
       id="path89"
       d="M 0,0 C 0.158,0.174 0.322,0.349 0.477,0.521 1.208,1.333 1.912,2.136 2.591,2.93 2.75,3.117 2.902,3.3 3.058,3.486 3.595,4.122 4.115,4.752 4.62,5.377 4.792,5.59 4.964,5.803 5.132,6.014 c 0.616,0.775 1.214,1.543 1.781,2.3 0.037,0.05 0.072,0.099 0.109,0.15 0.532,0.712 1.037,1.413 1.526,2.108 0.146,0.208 0.289,0.413 0.431,0.619 0.419,0.607 0.823,1.207 1.211,1.8 0.09,0.136 0.184,0.275 0.272,0.41 0.458,0.71 0.892,1.409 1.307,2.098 0.103,0.17 0.199,0.337 0.299,0.506 0.322,0.546 0.632,1.085 0.928,1.618 0.098,0.177 0.199,0.356 0.295,0.532 0.36,0.663 0.705,1.317 1.026,1.958 0.037,0.075 0.07,0.147 0.107,0.222 0.283,0.573 0.548,1.135 0.801,1.689 0.079,0.176 0.157,0.35 0.234,0.524 0.23,0.521 0.448,1.034 0.652,1.538 0.039,0.097 0.082,0.196 0.12,0.292 0.234,0.589 0.446,1.163 0.645,1.728 0.05,0.144 0.096,0.285 0.145,0.427 0.15,0.445 0.291,0.881 0.42,1.31 0.042,0.138 0.086,0.278 0.125,0.414 0.154,0.532 0.296,1.054 0.418,1.561 0.019,0.075 0.033,0.147 0.05,0.222 0.103,0.438 0.193,0.865 0.273,1.283 0.013,0.066 0.032,0.138 0.044,0.204 -0.002,-0.001 -0.005,-0.003 -0.007,-0.004 0.668,3.619 0.502,6.486 -0.177,8.452 -2.004,5.801 -13.917,2.538 -25.43,-0.589 v 0 c -2.595,3.448 -7.616,8.203 -11.151,7.941 -3.534,-0.262 -6.79,-7.47 -9.588,-13.223 -11.686,-2.84 -25.743,-6.045 -34.148,-7.26 -1.189,7.005 -6.274,13.152 -8.63,14.068 -2.356,0.916 -8.966,-0.435 -15.552,-3.409 -6.482,5.041 -12.247,10.503 -12.476,13.364 -0.368,4.595 -0.973,14.213 -1.573,25.025 7.325,8.117 10.304,14.898 9.708,18.176 -0.612,3.366 -5.938,4.527 -11.689,6.415 h -0.001 c -1.436,8.426 -3.438,12.649 -4.226,15.013 -0.525,1.575 -2.37,6.2 -5,12.255 0,10e-4 0.001,10e-4 0.001,10e-4 -0.029,0.067 -0.062,0.14 -0.091,0.208 -0.296,0.681 -0.6,1.375 -0.915,2.09 -0.026,0.059 -0.053,0.121 -0.08,0.18 -0.291,0.66 -0.591,1.335 -0.897,2.019 -0.099,0.221 -0.199,0.443 -0.299,0.666 -0.252,0.561 -0.508,1.128 -0.769,1.702 -0.101,0.223 -0.201,0.444 -0.304,0.669 -0.182,0.399 -0.367,0.802 -0.553,1.207 l 10e-4,0.001 c 3.791,6.927 7.991,18.931 6.461,22.603 -1.531,3.672 -14.735,7.988 -22.079,7.163 -0.049,0.077 -0.098,0.149 -0.148,0.226 -0.419,0.652 -0.836,1.29 -1.249,1.9 -0.624,0.92 -1.275,1.865 -1.942,2.823 -0.214,0.307 -0.436,0.619 -0.655,0.929 -0.468,0.666 -0.945,1.337 -1.433,2.018 -0.264,0.369 -0.531,0.738 -0.801,1.11 -0.492,0.678 -0.995,1.362 -1.506,2.052 -0.256,0.347 -0.508,0.689 -0.769,1.039 -0.084,0.111 -0.163,0.22 -0.247,0.332 l -0.004,-0.002 c -5.591,7.448 -12.252,15.481 -19.819,23.247 0.002,0.004 0.004,0.007 0.005,0.01 1.989,5.207 3.826,18.663 0,22.641 -3.825,3.978 -17.113,0.673 -24.89,-1.304 -0.005,-0.001 -0.008,-0.004 -0.012,-0.005 -11.929,8.118 -22.19,9.779 -33.745,8.676 0,0.001 -0.001,0.002 -0.001,0.003 -3.106,5.075 -6.534,10.685 -13.266,9.92 -6.732,-0.765 -12.956,-9.522 -18.035,-15.849 -0.495,-0.1 -0.985,-0.2 -1.488,-0.3 -7.274,-1.442 -15.713,-3.671 -24.564,-6.379 v 0 c -3.999,5.167 -13.598,10.747 -19.259,9.522 -5.662,-1.224 -9.759,-11.901 -13.098,-20.812 0,-0.002 -0.001,-0.003 -0.001,-0.004 -0.263,-0.102 -0.527,-0.204 -0.789,-0.306 1.781,4.233 2.749,7.727 1.72,9.344 -2.375,3.732 -13.015,3.045 -20.603,1.741 -2.286,0.454 -4.963,0.261 -7.797,-0.568 -7.804,-2.284 -23.222,-11.611 -26.458,-9.327 -2.897,2.045 -2.117,8.655 -4.116,11.659 0.053,3.036 -0.371,6.242 -2.201,7.459 -2.902,1.929 -10.707,-2.628 -16.834,-8.109 -1.666,-0.612 -3.304,-1.332 -4.851,-2.16 -2.261,12.525 -5.104,25.366 -6.584,32.14 -2.523,11.549 -4.973,17.351 -7.606,14.385 -2.634,-2.966 -13.169,-17.626 -13.817,-23.096 -0.528,-4.467 1.048,-31.346 1.313,-44.041 -3.99,-1.875 -8.245,-4.305 -9.371,-6.129 -1.161,-1.879 -7.285,-14.819 -11.542,-22.007 0.127,5.077 0.037,20.397 -0.072,24.565 -0.126,4.788 -2.017,9.955 -6.175,15.5 -4.159,5.544 -18.337,28.045 -22.683,33.898 -2.71,3.65 -9.565,11.399 -13.358,15.753 -1.877,2.154 -3.99,2.743 -4.411,0.252 -0.552,-3.269 -3.15,-16.761 -2.394,-20.919 0.756,-4.159 12.854,-28.858 17.39,-38.436 4.537,-9.577 11.342,-22.809 10.586,-26.841 -0.617,-3.293 -3.278,-8.263 -5.046,-11.486 -2.24,-1 -4.489,-3.54 -6.558,-6.57 -2.773,1.392 -5.779,2.707 -6.603,2.648 -1.373,-0.098 -4.618,-3.144 -7.628,-7.425 -4.505,0.541 -6.552,0.397 -6.745,-2.41 -0.011,-0.162 -10e-4,-0.388 0.024,-0.661 -0.665,0.255 -1.268,0.409 -1.777,0.439 -3.875,0.228 -15.728,1.595 -33.051,2.963 -17.323,1.367 -22.793,-10.257 -25.756,-30.088 -2.964,-19.83 2.279,-46.27 4.786,-54.02 2.507,-7.75 12.992,-20.058 16.639,-19.147 3.647,0.912 21.882,19.375 23.934,19.831 2.051,0.456 8.889,-6.155 18.69,-7.978 4.233,-0.788 11.952,4.422 19.356,10.592 V 53.249 c 0,-7.627 -1.46,-14.279 -4.536,-16.411 -3.552,-1.052 -6.608,-1.555 -7.798,-1.442 -3.409,0.325 1.46,-4.544 8.277,-7.465 5.667,-2.429 15.48,-4.28 23.853,-1.296 1.34,-0.568 2.793,-1.071 4.332,-1.487 0.974,-0.264 1.979,-0.494 3.007,-0.688 1.541,-0.29 3.132,-0.496 4.74,-0.605 1.072,-0.073 2.151,-0.103 3.228,-0.086 1.076,0.017 2.15,0.08 3.212,0.195 1.592,0.172 3.156,0.458 4.659,0.871 0.501,0.138 0.995,0.29 1.481,0.456 1.944,0.667 3.76,1.567 5.366,2.732 0.399,0.289 0.812,0.59 1.237,0.9 0.028,0.021 0.059,0.043 0.087,0.064 0.125,0.092 0.257,0.189 0.385,0.282 0.275,0.202 0.549,0.402 0.835,0.612 0.061,0.045 0.125,0.093 0.187,0.138 0.166,0.123 0.336,0.249 0.506,0.373 0.222,0.165 0.441,0.326 0.669,0.495 0.104,0.077 0.212,0.157 0.317,0.236 0.184,0.136 0.37,0.274 0.556,0.413 0.182,0.135 0.36,0.267 0.545,0.405 0.153,0.114 0.311,0.233 0.467,0.349 0.194,0.146 0.389,0.292 0.587,0.44 0.144,0.108 0.286,0.213 0.431,0.323 0.199,0.149 0.403,0.304 0.605,0.456 0.204,0.153 0.405,0.305 0.611,0.461 0.105,0.078 0.208,0.156 0.313,0.236 0.251,0.19 0.508,0.386 0.763,0.58 0.203,0.154 0.402,0.304 0.607,0.46 0.073,0.056 0.146,0.111 0.219,0.167 0.272,0.208 0.549,0.42 0.825,0.631 0.213,0.164 0.424,0.324 0.639,0.49 0.063,0.048 0.126,0.097 0.189,0.145 0.28,0.216 0.565,0.436 0.849,0.655 0.239,0.185 0.478,0.369 0.72,0.556 0.076,0.059 0.15,0.117 0.227,0.176 0.234,0.181 0.471,0.367 0.707,0.551 0.264,0.206 0.528,0.411 0.794,0.619 0.102,0.079 0.203,0.158 0.306,0.238 0.172,0.135 0.347,0.274 0.52,0.41 0.036,0.028 0.073,0.057 0.109,0.085 0.252,0.198 0.504,0.396 0.757,0.596 0.155,0.122 0.309,0.243 0.464,0.366 0.201,0.159 0.402,0.319 0.603,0.478 0.22,0.175 0.44,0.35 0.661,0.526 0.202,0.16 0.403,0.32 0.605,0.482 0.198,0.159 0.397,0.318 0.597,0.478 0.178,0.143 0.356,0.286 0.534,0.429 0.25,0.201 0.5,0.403 0.75,0.605 0.197,0.159 0.393,0.318 0.59,0.477 0.133,0.108 0.266,0.217 0.399,0.325 0.16,0.13 0.32,0.259 0.48,0.39 0.135,-0.387 0.271,-0.772 0.408,-1.148 0.08,-0.216 0.159,-0.426 0.239,-0.638 0.165,-0.439 0.33,-0.874 0.497,-1.297 0.088,-0.224 0.177,-0.442 0.265,-0.66 0.161,-0.398 0.323,-0.79 0.486,-1.173 0.093,-0.221 0.187,-0.438 0.282,-0.654 0.023,-0.055 0.047,-0.112 0.071,-0.167 0.004,-1.353 0.038,-2.716 0.108,-4.088 0.22,-4.298 1.428,-11.221 0,-14.077 -1.428,-2.856 -19.381,-41.617 -24.073,-54.878 -0.087,-0.247 -0.174,-0.489 -0.261,-0.732 -0.088,-0.246 -0.176,-0.492 -0.263,-0.734 -0.051,-0.144 -0.103,-0.286 -0.154,-0.429 -0.096,-0.265 -0.192,-0.53 -0.286,-0.79 -0.036,-0.1 -0.072,-0.198 -0.108,-0.296 -0.475,-1.306 -0.934,-2.554 -1.367,-3.748 -0.028,-0.078 -0.058,-0.158 -0.086,-0.237 -0.092,-0.253 -0.181,-0.502 -0.27,-0.751 -0.039,-0.106 -0.077,-0.213 -0.115,-0.318 -0.078,-0.22 -0.155,-0.435 -0.231,-0.651 -0.045,-0.127 -0.09,-0.255 -0.134,-0.381 -0.07,-0.199 -0.137,-0.395 -0.205,-0.59 -0.046,-0.133 -0.093,-0.267 -0.137,-0.399 -0.066,-0.191 -0.128,-0.378 -0.191,-0.565 -0.043,-0.13 -0.088,-0.262 -0.131,-0.39 -0.059,-0.181 -0.116,-0.358 -0.173,-0.536 -0.042,-0.131 -0.085,-0.263 -0.126,-0.392 -0.053,-0.169 -0.103,-0.333 -0.154,-0.498 -0.041,-0.134 -0.083,-0.269 -0.122,-0.4 -0.047,-0.16 -0.092,-0.315 -0.136,-0.472 -0.038,-0.131 -0.077,-0.264 -0.113,-0.393 -0.042,-0.152 -0.081,-0.301 -0.12,-0.45 -0.034,-0.129 -0.07,-0.259 -0.102,-0.385 -0.037,-0.147 -0.07,-0.289 -0.104,-0.433 -0.03,-0.124 -0.061,-0.25 -0.088,-0.372 -0.032,-0.141 -0.059,-0.277 -0.088,-0.415 -0.025,-0.12 -0.051,-0.242 -0.073,-0.36 -0.026,-0.135 -0.048,-0.267 -0.07,-0.399 -0.02,-0.116 -0.042,-0.233 -0.059,-0.346 -0.02,-0.128 -0.035,-0.252 -0.051,-0.377 -0.015,-0.114 -0.031,-0.229 -0.044,-0.34 -0.013,-0.121 -0.021,-0.238 -0.031,-0.357 -0.009,-0.11 -0.02,-0.221 -0.026,-0.329 -0.007,-0.114 -0.008,-0.225 -0.012,-0.338 -0.003,-0.106 -0.008,-0.214 -0.008,-0.319 0,-0.108 0.006,-0.213 0.009,-0.319 0.004,-0.102 0.005,-0.206 0.011,-0.306 0.007,-0.106 0.021,-0.207 0.032,-0.31 0.01,-0.095 0.017,-0.193 0.03,-0.287 0.015,-0.101 0.036,-0.198 0.055,-0.297 0.017,-0.09 0.031,-0.182 0.051,-0.27 0.022,-0.095 0.051,-0.186 0.077,-0.279 0.025,-0.087 0.046,-0.175 0.074,-0.259 0.03,-0.09 0.068,-0.175 0.102,-0.263 0.032,-0.081 0.06,-0.165 0.096,-0.244 0.039,-0.086 0.085,-0.168 0.129,-0.251 0.039,-0.076 0.075,-0.154 0.118,-0.227 0.049,-0.083 0.106,-0.162 0.16,-0.242 0.046,-0.069 0.088,-0.14 0.138,-0.206 0.06,-0.08 0.128,-0.156 0.194,-0.233 0.052,-0.062 0.1,-0.126 0.156,-0.186 0.071,-0.076 0.151,-0.147 0.227,-0.219 0.06,-0.057 0.115,-0.116 0.178,-0.171 0.086,-0.074 0.181,-0.143 0.274,-0.214 0.063,-0.048 0.12,-0.099 0.187,-0.145 0.111,-0.079 0.233,-0.152 0.353,-0.226 0.056,-0.034 0.107,-0.071 0.165,-0.104 0.183,-0.105 0.376,-0.206 0.579,-0.301 0.184,-0.086 0.396,-0.17 0.62,-0.252 0.068,-0.025 0.141,-0.049 0.211,-0.073 0.173,-0.059 0.355,-0.117 0.547,-0.174 0.082,-0.024 0.162,-0.048 0.247,-0.072 0.246,-0.068 0.504,-0.135 0.778,-0.2 0.032,-0.008 0.061,-0.016 0.094,-0.024 0.309,-0.072 0.639,-0.142 0.981,-0.21 0.101,-0.02 0.207,-0.039 0.31,-0.059 0.257,-0.049 0.521,-0.097 0.794,-0.144 0.12,-0.02 0.24,-0.041 0.364,-0.061 0.313,-0.051 0.637,-0.101 0.969,-0.15 0.077,-0.011 0.149,-0.023 0.226,-0.034 0.407,-0.058 0.829,-0.114 1.261,-0.168 0.13,-0.017 0.263,-0.032 0.395,-0.048 0.321,-0.039 0.648,-0.077 0.982,-0.114 0.153,-0.017 0.307,-0.033 0.463,-0.05 0.36,-0.038 0.728,-0.075 1.101,-0.111 0.117,-0.011 0.231,-0.023 0.349,-0.034 0.484,-0.045 0.977,-0.088 1.479,-0.13 0.137,-0.011 0.277,-0.021 0.414,-0.032 0.382,-0.031 0.767,-0.06 1.158,-0.089 0.179,-0.013 0.359,-0.026 0.54,-0.038 0.384,-0.027 0.772,-0.052 1.164,-0.077 0.157,-0.01 0.312,-0.02 0.47,-0.03 0.043,-0.002 0.084,-0.005 0.127,-0.008 0,0 0,10e-4 0,10e-4 12.043,-0.723 27.178,-0.545 34.142,0.341 11.22,1.428 15.3,4.08 17.34,12.853 1.812,7.791 10.057,23.836 13.023,31.879 2.815,-1.315 6.365,-2.563 11.109,-3.796 -0.007,-0.082 -0.013,-0.167 -0.02,-0.249 -1.042,-11.601 -2.56,-26.203 -3.492,-35.118 -0.006,-0.061 -0.012,-0.121 -0.019,-0.181 -0.05,-0.483 -0.098,-0.944 -0.145,-1.391 -0.053,-0.51 -0.104,-0.996 -0.152,-1.456 -0.054,-0.519 -0.105,-1.005 -0.152,-1.453 -0.014,-0.135 -0.027,-0.267 -0.041,-0.395 -0.015,-0.144 -0.029,-0.285 -0.043,-0.421 -0.042,-0.405 -0.08,-0.767 -0.113,-1.091 -0.007,-0.072 -0.014,-0.145 -0.021,-0.213 -0.018,-0.171 -0.034,-0.329 -0.048,-0.473 0,-0.002 -10e-4,-0.004 -10e-4,-0.006 -0.014,-0.146 -0.027,-0.274 -0.038,-0.39 -0.003,-0.023 -0.005,-0.045 -0.007,-0.067 -0.011,-0.112 -0.02,-0.214 -0.028,-0.294 -0.252,-2.782 18.716,-4.805 29.844,-4.299 0.366,0.016 0.744,0.033 1.132,0.05 0.122,0.005 0.25,0.011 0.374,0.016 0.382,0.016 0.773,0.033 1.173,0.05 0.25,0.011 0.499,0.021 0.756,0.033 0.209,0.009 0.422,0.018 0.635,0.027 0.228,0.01 0.454,0.02 0.687,0.03 0.186,0.009 0.376,0.017 0.565,0.026 0.259,0.012 0.519,0.024 0.783,0.036 0.186,0.009 0.374,0.018 0.562,0.027 0.267,0.013 0.535,0.026 0.807,0.04 0.198,0.01 0.397,0.02 0.597,0.03 0.259,0.014 0.518,0.028 0.779,0.042 0.215,0.012 0.43,0.024 0.647,0.036 0.259,0.015 0.518,0.03 0.779,0.045 0.116,0.007 0.23,0.013 0.346,0.02 v 0.001 c 10.852,0.66 23.249,2.117 25.291,6.572 0.447,0.977 0.822,2.706 1.138,4.93 4.75,0.071 9.84,0.406 15.11,1.103 21.964,2.902 30.701,5.335 31.692,10.882 0.756,4.232 2.765,17.426 1.204,29.074 6.971,1.697 13.882,3.194 20.65,4.523 1.951,-1.733 3.91,-3.34 5.807,-4.799 -0.925,-7.281 -2.42,-17.031 -5.604,-24.459 -3.807,-8.883 -11.674,-21.318 -7.867,-24.11 3.807,-2.792 22.841,-5.33 44.666,-1.523 21.826,3.807 30.455,6.599 31.217,12.182 0.665,4.882 2.494,21.597 -1.127,34.033 10.008,-2.807 18.961,-5.39 25.134,-6.609 17.996,-3.551 44.28,-7.103 53.988,-6.866 9.709,0.236 24.153,4.262 46.175,26.047 0.866,0.857 1.694,1.703 2.503,2.544 0.224,0.233 0.444,0.465 0.664,0.697 C -1.229,-1.335 -0.606,-0.665 0,0"
       style="fill:#000b30;fill-opacity:1;fill-rule:nonzero;stroke:none"
       transform="matrix(1.3333333,0,0,-1.3333333,974.2667,425.66412)"
       clip-path="url(#clipPath90)" />
  </g>
</svg>
