<?xml version="1.0" encoding="UTF-8" standalone="no"?>
<!-- Created with Inkscape (http://www.inkscape.org/) -->

<svg
   version="1.1"
   id="svg1"
   width="2381.1025"
   height="599.73999"
   viewBox="0 0 2381.1025 599.73999"
   xmlns="http://www.w3.org/2000/svg"
   xmlns:svg="http://www.w3.org/2000/svg">
  <defs
     id="defs1">
    <pattern
       patternTransform="translate(500.949,258.054)"
       patternUnits="userSpaceOnUse"
       x="0"
       y="0"
       width="210"
       height="210"
       id="pattern8">
      <path
         d="m 0,0 -7.487,25.108 c -1.183,3.967 1.902,7.586 5.552,6.515 l 23.106,-6.78 23.105,-6.781 c 3.651,-1.071 5.129,-6.03 2.662,-8.925 L 31.319,-9.191 15.701,-27.518 c -2.468,-2.896 -7.031,-1.557 -8.214,2.41 L 0,0 Z"
         style="fill:#29235c;fill-opacity:1;fill-rule:nonzero;stroke:none"
         transform="translate(189.794,51.1303)"
         id="path2" />
      <path
         d="m 0,0 -7.487,25.108 c -1.183,3.967 1.902,7.586 5.552,6.515 l 23.106,-6.78 23.105,-6.781 c 3.651,-1.071 5.129,-6.03 2.662,-8.925 L 31.319,-9.191 15.701,-27.518 c -2.468,-2.896 -7.031,-1.557 -8.214,2.41 L 0,0 Z"
         style="fill:#29235c;fill-opacity:1;fill-rule:nonzero;stroke:none"
         transform="translate(84.794,-1.3697)"
         id="path3" />
      <path
         d="m 0,0 -7.487,25.108 c -1.183,3.967 1.902,7.586 5.552,6.515 l 23.106,-6.78 23.105,-6.781 c 3.651,-1.071 5.129,-6.03 2.662,-8.925 L 31.319,-9.191 15.701,-27.518 c -2.468,-2.896 -7.031,-1.557 -8.214,2.41 L 0,0 Z"
         style="fill:#29235c;fill-opacity:1;fill-rule:nonzero;stroke:none"
         transform="translate(-20.206,51.1303)"
         id="path4" />
      <path
         d="m 0,0 -7.487,25.108 c -1.183,3.967 1.902,7.586 5.552,6.515 l 23.106,-6.78 23.105,-6.781 c 3.651,-1.071 5.129,-6.03 2.662,-8.925 L 31.319,-9.191 15.701,-27.518 c -2.468,-2.896 -7.031,-1.557 -8.214,2.41 L 0,0 Z"
         style="fill:#29235c;fill-opacity:1;fill-rule:nonzero;stroke:none"
         transform="translate(189.794,156.1303)"
         id="path5" />
      <path
         d="m 0,0 -7.487,25.108 c -1.183,3.967 1.902,7.586 5.552,6.515 l 23.106,-6.78 23.105,-6.781 c 3.651,-1.071 5.129,-6.03 2.662,-8.925 L 31.319,-9.191 15.701,-27.518 c -2.468,-2.896 -7.031,-1.557 -8.214,2.41 L 0,0 Z"
         style="fill:#29235c;fill-opacity:1;fill-rule:nonzero;stroke:none"
         transform="translate(84.794,103.6303)"
         id="path6" />
      <path
         d="m 0,0 -7.487,25.108 c -1.183,3.967 1.902,7.586 5.552,6.515 l 23.106,-6.78 23.105,-6.781 c 3.651,-1.071 5.129,-6.03 2.662,-8.925 L 31.319,-9.191 15.701,-27.518 c -2.468,-2.896 -7.031,-1.557 -8.214,2.41 L 0,0 Z"
         style="fill:#29235c;fill-opacity:1;fill-rule:nonzero;stroke:none"
         transform="translate(-20.206,156.1303)"
         id="path7" />
      <path
         d="m 0,0 -7.487,25.108 c -1.183,3.967 1.902,7.586 5.552,6.515 l 23.106,-6.78 23.105,-6.781 c 3.651,-1.071 5.129,-6.03 2.662,-8.925 L 31.319,-9.191 15.701,-27.518 c -2.468,-2.896 -7.031,-1.557 -8.214,2.41 L 0,0 Z"
         style="fill:#29235c;fill-opacity:1;fill-rule:nonzero;stroke:none"
         transform="translate(84.794,208.6303)"
         id="path8" />
    </pattern>
    <clipPath
       clipPathUnits="userSpaceOnUse"
       id="clipPath9">
      <path
         d="M -1.87183,453.738 H 1787.7 V 3.7375 H -1.87183 Z"
         id="path9" />
    </clipPath>
    <clipPath
       clipPathUnits="userSpaceOnUse"
       id="clipPath11">
      <path
         d="M 0,453.543 H 1785.827 V 0 H 0 Z"
         transform="matrix(1.3333333,0,0,-1.3333333,0,604.724)"
         id="path11" />
    </clipPath>
  </defs>
  <g
     id="layer-MC1"
     transform="translate(0,-1.51181e-5)">
    <g
       opacity="0.210007"
       id="g10"
       clip-path="url(#clipPath11)">
      <path
         d="M 1787.699,3.738 H -1.871 v 450 h 1789.57 z"
         style="fill:url(#pattern8);fill-opacity:1;fill-rule:nonzero;stroke:none"
         transform="matrix(1.3333333,0,0,-1.3333333,0,604.724)"
         clip-path="url(#clipPath9)"
         id="path10" />
    </g>
  </g>
</svg>
