<?xml version="1.0" encoding="UTF-8" standalone="no"?>
<!-- Created with Inkscape (http://www.inkscape.org/) -->

<svg
   version="1.1"
   id="svg1"
   width="584.39508"
   height="450.47839"
   viewBox="0 0 584.39508 450.47839"
   xmlns="http://www.w3.org/2000/svg"
   xmlns:svg="http://www.w3.org/2000/svg">
  <defs
     id="defs1">
    <clipPath
       clipPathUnits="userSpaceOnUse"
       id="clipPath2492">
      <path
         d="M 0,841.89 H 688.077 V 0 H 0 Z"
         transform="translate(-380.81061,-492.15231)"
         id="path2492" />
    </clipPath>
    <clipPath
       clipPathUnits="userSpaceOnUse"
       id="clipPath2494">
      <path
         d="M 0,841.89 H 688.077 V 0 H 0 Z"
         transform="translate(-380.85291,-492.18031)"
         id="path2494" />
    </clipPath>
    <clipPath
       clipPathUnits="userSpaceOnUse"
       id="clipPath2496">
      <path
         d="M 0,841.89 H 688.077 V 0 H 0 Z"
         transform="translate(-208.24891,-492.62321)"
         id="path2496" />
    </clipPath>
    <clipPath
       clipPathUnits="userSpaceOnUse"
       id="clipPath2498">
      <path
         d="M 0,841.89 H 688.077 V 0 H 0 Z"
         transform="translate(-204.7225,-479.43221)"
         id="path2498" />
    </clipPath>
    <clipPath
       clipPathUnits="userSpaceOnUse"
       id="clipPath2500">
      <path
         d="M 0,841.89 H 688.077 V 0 H 0 Z"
         transform="translate(-208.98861,-462.60561)"
         id="path2500" />
    </clipPath>
    <clipPath
       clipPathUnits="userSpaceOnUse"
       id="clipPath2502">
      <path
         d="M 0,841.89 H 688.077 V 0 H 0 Z"
         transform="translate(-332.03731,-508.64231)"
         id="path2502" />
    </clipPath>
    <clipPath
       clipPathUnits="userSpaceOnUse"
       id="clipPath2504">
      <path
         d="M 0,841.89 H 688.077 V 0 H 0 Z"
         transform="translate(-332.07511,-508.67591)"
         id="path2504" />
    </clipPath>
    <clipPath
       clipPathUnits="userSpaceOnUse"
       id="clipPath2506">
      <path
         d="M 0,841.89 H 688.077 V 0 H 0 Z"
         transform="translate(-387.30061,-473.95791)"
         id="path2506" />
    </clipPath>
    <clipPath
       clipPathUnits="userSpaceOnUse"
       id="clipPath2508">
      <path
         d="M 0,841.89 H 688.077 V 0 H 0 Z"
         transform="translate(-387.24991,-473.95761)"
         id="path2508" />
    </clipPath>
    <clipPath
       clipPathUnits="userSpaceOnUse"
       id="clipPath2510">
      <path
         d="M 0,841.89 H 688.077 V 0 H 0 Z"
         transform="translate(-376.43051,-473.47831)"
         id="path2510" />
    </clipPath>
    <clipPath
       clipPathUnits="userSpaceOnUse"
       id="clipPath2512">
      <path
         d="M 0,841.89 H 688.077 V 0 H 0 Z"
         transform="translate(-376.37981,-473.47811)"
         id="path2512" />
    </clipPath>
    <clipPath
       clipPathUnits="userSpaceOnUse"
       id="clipPath2514">
      <path
         d="M 0,841.89 H 688.077 V 0 H 0 Z"
         transform="translate(-116.67981,-591.21691)"
         id="path2514" />
    </clipPath>
    <clipPath
       clipPathUnits="userSpaceOnUse"
       id="clipPath2516">
      <path
         d="M 0,841.89 H 688.077 V 0 H 0 Z"
         transform="translate(-116.63511,-591.24082)"
         id="path2516" />
    </clipPath>
    <clipPath
       clipPathUnits="userSpaceOnUse"
       id="clipPath2518">
      <path
         d="M 0,841.89 H 688.077 V 0 H 0 Z"
         transform="translate(-137.9872,-567.14321)"
         id="path2518" />
    </clipPath>
    <clipPath
       clipPathUnits="userSpaceOnUse"
       id="clipPath2520">
      <path
         d="M 0,841.89 H 688.077 V 0 H 0 Z"
         transform="translate(-138.12981,-549.34732)"
         id="path2520" />
    </clipPath>
    <clipPath
       clipPathUnits="userSpaceOnUse"
       id="clipPath2522">
      <path
         d="M 0,841.89 H 688.077 V 0 H 0 Z"
         transform="translate(-140.8441,-532.10221)"
         id="path2522" />
    </clipPath>
    <clipPath
       clipPathUnits="userSpaceOnUse"
       id="clipPath2524">
      <path
         d="M 0,841.89 H 688.077 V 0 H 0 Z"
         transform="translate(-94.522502,-432.66751)"
         id="path2524" />
    </clipPath>
    <clipPath
       clipPathUnits="userSpaceOnUse"
       id="clipPath2526">
      <path
         d="M 0,841.89 H 688.077 V 0 H 0 Z"
         transform="translate(-94.472005,-432.66471)"
         id="path2526" />
    </clipPath>
    <clipPath
       clipPathUnits="userSpaceOnUse"
       id="clipPath2528">
      <path
         d="M 0,841.89 H 688.077 V 0 H 0 Z"
         transform="translate(-98.443802,-462.53971)"
         id="path2528" />
    </clipPath>
    <clipPath
       clipPathUnits="userSpaceOnUse"
       id="clipPath2530">
      <path
         d="M 0,841.89 H 688.077 V 0 H 0 Z"
         transform="translate(-98.4349,-462.48991)"
         id="path2530" />
    </clipPath>
    <clipPath
       clipPathUnits="userSpaceOnUse"
       id="clipPath2532">
      <path
         d="M 0,841.89 H 688.077 V 0 H 0 Z"
         transform="translate(-107.0839,-431.74771)"
         id="path2532" />
    </clipPath>
    <clipPath
       clipPathUnits="userSpaceOnUse"
       id="clipPath2534">
      <path
         d="M 0,841.89 H 688.077 V 0 H 0 Z"
         transform="translate(-246.95941,-444.31191)"
         id="path2534" />
    </clipPath>
    <clipPath
       clipPathUnits="userSpaceOnUse"
       id="clipPath2536">
      <path
         d="M 0,841.89 H 688.077 V 0 H 0 Z"
         transform="translate(-246.9388,-444.26531)"
         id="path2536" />
    </clipPath>
    <clipPath
       clipPathUnits="userSpaceOnUse"
       id="clipPath2538">
      <path
         d="M 0,841.89 H 688.077 V 0 H 0 Z"
         transform="translate(-197.89491,-437.87071)"
         id="path2538" />
    </clipPath>
    <clipPath
       clipPathUnits="userSpaceOnUse"
       id="clipPath2540">
      <path
         d="M 0,841.89 H 688.077 V 0 H 0 Z"
         transform="translate(-94.838102,-502.12411)"
         id="path2540" />
    </clipPath>
    <clipPath
       clipPathUnits="userSpaceOnUse"
       id="clipPath2542">
      <path
         d="M 0,841.89 H 688.077 V 0 H 0 Z"
         transform="translate(-94.873405,-502.08802)"
         id="path2542" />
    </clipPath>
    <clipPath
       clipPathUnits="userSpaceOnUse"
       id="clipPath2544">
      <path
         d="M 0,841.89 H 688.077 V 0 H 0 Z"
         transform="translate(-93.4384,-508.89742)"
         id="path2544" />
    </clipPath>
    <clipPath
       clipPathUnits="userSpaceOnUse"
       id="clipPath2546">
      <path
         d="M 0,841.89 H 688.077 V 0 H 0 Z"
         transform="translate(-93.474002,-508.86101)"
         id="path2546" />
    </clipPath>
    <clipPath
       clipPathUnits="userSpaceOnUse"
       id="clipPath2548">
      <path
         d="M 0,841.89 H 688.077 V 0 H 0 Z"
         transform="translate(-129.04311,-477.04971)"
         id="path2548" />
    </clipPath>
    <clipPath
       clipPathUnits="userSpaceOnUse"
       id="clipPath2550">
      <path
         d="M 0,841.89 H 688.077 V 0 H 0 Z"
         transform="translate(-128.9926,-477.05331)"
         id="path2550" />
    </clipPath>
    <clipPath
       clipPathUnits="userSpaceOnUse"
       id="clipPath2552">
      <path
         d="M 0,841.89 H 688.077 V 0 H 0 Z"
         transform="translate(-138.2742,-470.65031)"
         id="path2552" />
    </clipPath>
    <clipPath
       clipPathUnits="userSpaceOnUse"
       id="clipPath2554">
      <path
         d="M 0,841.89 H 688.077 V 0 H 0 Z"
         transform="translate(-138.2235,-470.65391)"
         id="path2554" />
    </clipPath>
    <clipPath
       clipPathUnits="userSpaceOnUse"
       id="clipPath2556">
      <path
         d="M 0,841.89 H 688.077 V 0 H 0 Z"
         transform="translate(-156.3537,-606.21242)"
         id="path2556" />
    </clipPath>
    <clipPath
       clipPathUnits="userSpaceOnUse"
       id="clipPath2558">
      <path
         d="M 0,841.89 H 688.077 V 0 H 0 Z"
         transform="translate(-156.3309,-606.16712)"
         id="path2558" />
    </clipPath>
    <clipPath
       clipPathUnits="userSpaceOnUse"
       id="clipPath2560">
      <path
         d="M 0,841.89 H 688.077 V 0 H 0 Z"
         transform="translate(-96.4717,-627.83741)"
         id="path2560" />
    </clipPath>
    <clipPath
       clipPathUnits="userSpaceOnUse"
       id="clipPath2562">
      <path
         d="M 0,841.89 H 688.077 V 0 H 0 Z"
         transform="translate(-96.424705,-627.85631)"
         id="path2562" />
    </clipPath>
    <clipPath
       clipPathUnits="userSpaceOnUse"
       id="clipPath2564">
      <path
         d="M 0,841.89 H 688.077 V 0 H 0 Z"
         transform="translate(-445.16781,-590.81122)"
         id="path2564" />
    </clipPath>
    <clipPath
       clipPathUnits="userSpaceOnUse"
       id="clipPath2566">
      <path
         d="M 0,841.89 H 688.077 V 0 H 0 Z"
         transform="translate(-445.11711,-590.81362)"
         id="path2566" />
    </clipPath>
    <clipPath
       clipPathUnits="userSpaceOnUse"
       id="clipPath2568">
      <path
         d="M 0,841.89 H 688.077 V 0 H 0 Z"
         transform="translate(-318.25261,-523.62922)"
         id="path2568" />
    </clipPath>
    <clipPath
       clipPathUnits="userSpaceOnUse"
       id="clipPath2570">
      <path
         d="M 0,841.89 H 688.077 V 0 H 0 Z"
         transform="translate(-318.30311,-523.62901)"
         id="path2570" />
    </clipPath>
    <clipPath
       clipPathUnits="userSpaceOnUse"
       id="clipPath2572">
      <path
         d="M 0,841.89 H 688.077 V 0 H 0 Z"
         transform="translate(-230.17041,-546.31961)"
         id="path2572" />
    </clipPath>
    <clipPath
       clipPathUnits="userSpaceOnUse"
       id="clipPath2574">
      <path
         d="M 0,841.89 H 688.077 V 0 H 0 Z"
         transform="translate(-230.22061,-546.32731)"
         id="path2574" />
    </clipPath>
    <clipPath
       clipPathUnits="userSpaceOnUse"
       id="clipPath2576">
      <path
         d="M 0,841.89 H 688.077 V 0 H 0 Z"
         transform="translate(-203.99751,-566.05801)"
         id="path2576" />
    </clipPath>
    <clipPath
       clipPathUnits="userSpaceOnUse"
       id="clipPath2578">
      <path
         d="M 0,841.89 H 688.077 V 0 H 0 Z"
         transform="translate(-204.0463,-566.07191)"
         id="path2578" />
    </clipPath>
    <clipPath
       clipPathUnits="userSpaceOnUse"
       id="clipPath2580">
      <path
         d="M 0,841.89 H 688.077 V 0 H 0 Z"
         transform="translate(-282.80281,-671.27381)"
         id="path2580" />
    </clipPath>
    <clipPath
       clipPathUnits="userSpaceOnUse"
       id="clipPath2582">
      <path
         d="M 0,841.89 H 688.077 V 0 H 0 Z"
         transform="translate(-282.79581,-671.32412)"
         id="path2582" />
    </clipPath>
    <clipPath
       clipPathUnits="userSpaceOnUse"
       id="clipPath2584">
      <path
         d="M 0,841.89 H 688.077 V 0 H 0 Z"
         transform="translate(-444.35251,-607.81991)"
         id="path2584" />
    </clipPath>
    <clipPath
       clipPathUnits="userSpaceOnUse"
       id="clipPath2586">
      <path
         d="M 0,841.89 H 688.077 V 0 H 0 Z"
         transform="translate(-444.40221,-607.82872)"
         id="path2586" />
    </clipPath>
    <clipPath
       clipPathUnits="userSpaceOnUse"
       id="clipPath2588">
      <path
         d="M 0,841.89 H 688.077 V 0 H 0 Z"
         transform="translate(-354.21081,-617.18711)"
         id="path2588" />
    </clipPath>
    <clipPath
       clipPathUnits="userSpaceOnUse"
       id="clipPath2590">
      <path
         d="M 0,841.89 H 688.077 V 0 H 0 Z"
         transform="translate(-354.16001,-617.18591)"
         id="path2590" />
    </clipPath>
    <clipPath
       clipPathUnits="userSpaceOnUse"
       id="clipPath2592">
      <path
         d="M 0,841.89 H 688.077 V 0 H 0 Z"
         transform="translate(-346.21601,-620.60081)"
         id="path2592" />
    </clipPath>
    <clipPath
       clipPathUnits="userSpaceOnUse"
       id="clipPath2594">
      <path
         d="M 0,841.89 H 688.077 V 0 H 0 Z"
         transform="translate(-346.16541,-620.59952)"
         id="path2594" />
    </clipPath>
    <clipPath
       clipPathUnits="userSpaceOnUse"
       id="clipPath2596">
      <path
         d="M 0,841.89 H 688.077 V 0 H 0 Z"
         transform="translate(-177.892,-634.29142)"
         id="path2596" />
    </clipPath>
    <clipPath
       clipPathUnits="userSpaceOnUse"
       id="clipPath2598">
      <path
         d="M 0,841.89 H 688.077 V 0 H 0 Z"
         transform="translate(-199.63221,-638.12801)"
         id="path2598" />
    </clipPath>
    <clipPath
       clipPathUnits="userSpaceOnUse"
       id="clipPath2600">
      <path
         d="M 0,841.89 H 688.077 V 0 H 0 Z"
         transform="translate(-222.33141,-639.08702)"
         id="path2600" />
    </clipPath>
    <clipPath
       clipPathUnits="userSpaceOnUse"
       id="clipPath2602">
      <path
         d="M 0,841.89 H 688.077 V 0 H 0 Z"
         transform="translate(-249.5062,-639.40691)"
         id="path2602" />
    </clipPath>
    <clipPath
       clipPathUnits="userSpaceOnUse"
       id="clipPath2604">
      <path
         d="M 0,841.89 H 688.077 V 0 H 0 Z"
         transform="translate(-277.00131,-638.76752)"
         id="path2604" />
    </clipPath>
    <clipPath
       clipPathUnits="userSpaceOnUse"
       id="clipPath2606">
      <path
         d="M 0,841.89 H 688.077 V 0 H 0 Z"
         transform="translate(-305.77531,-636.20981)"
         id="path2606" />
    </clipPath>
    <clipPath
       clipPathUnits="userSpaceOnUse"
       id="clipPath2608">
      <path
         d="M 0,841.89 H 688.077 V 0 H 0 Z"
         transform="translate(-428.22321,-634.93091)"
         id="path2608" />
    </clipPath>
    <clipPath
       clipPathUnits="userSpaceOnUse"
       id="clipPath2610">
      <path
         d="M 0,841.89 H 688.077 V 0 H 0 Z"
         transform="translate(-428.18441,-634.89832)"
         id="path2610" />
    </clipPath>
    <clipPath
       clipPathUnits="userSpaceOnUse"
       id="clipPath2612">
      <path
         d="M 0,841.89 H 688.077 V 0 H 0 Z"
         transform="translate(-415.11521,-627.25792)"
         id="path2612" />
    </clipPath>
    <clipPath
       clipPathUnits="userSpaceOnUse"
       id="clipPath2614">
      <path
         d="M 0,841.89 H 688.077 V 0 H 0 Z"
         transform="translate(-415.07651,-627.22522)"
         id="path2614" />
    </clipPath>
    <clipPath
       clipPathUnits="userSpaceOnUse"
       id="clipPath2616">
      <path
         d="M 0,841.89 H 688.077 V 0 H 0 Z"
         transform="translate(-446.94601,-617.72372)"
         id="path2616" />
    </clipPath>
    <clipPath
       clipPathUnits="userSpaceOnUse"
       id="clipPath2618">
      <path
         d="M 0,841.89 H 688.077 V 0 H 0 Z"
         transform="translate(-446.89541,-617.71912)"
         id="path2618" />
    </clipPath>
    <clipPath
       clipPathUnits="userSpaceOnUse"
       id="clipPath2620">
      <path
         d="M 0,841.89 H 688.077 V 0 H 0 Z"
         transform="translate(-420.36461,-612.80092)"
         id="path2620" />
    </clipPath>
    <clipPath
       clipPathUnits="userSpaceOnUse"
       id="clipPath2622">
      <path
         d="M 0,841.89 H 688.077 V 0 H 0 Z"
         transform="translate(-419.25871,-594.38291)"
         id="path2622" />
    </clipPath>
    <clipPath
       clipPathUnits="userSpaceOnUse"
       id="clipPath2624">
      <path
         d="M 0,841.89 H 688.077 V 0 H 0 Z"
         transform="translate(-417.54431,-576.28042)"
         id="path2624" />
    </clipPath>
    <clipPath
       clipPathUnits="userSpaceOnUse"
       id="clipPath2626">
      <path
         d="M 0,841.89 H 688.077 V 0 H 0 Z"
         transform="translate(-461.99921,-431.02341)"
         id="path2626" />
    </clipPath>
    <clipPath
       clipPathUnits="userSpaceOnUse"
       id="clipPath2628">
      <path
         d="M 0,841.89 H 688.077 V 0 H 0 Z"
         transform="translate(-462.04281,-431.04891)"
         id="path2628" />
    </clipPath>
    <clipPath
       clipPathUnits="userSpaceOnUse"
       id="clipPath2630">
      <path
         d="M 0,841.89 H 688.077 V 0 H 0 Z"
         transform="translate(-435.47111,-405.74671)"
         id="path2630" />
    </clipPath>
    <clipPath
       clipPathUnits="userSpaceOnUse"
       id="clipPath2632">
      <path
         d="M 0,841.89 H 688.077 V 0 H 0 Z"
         transform="translate(-463.60911,-437.80391)"
         id="path2632" />
    </clipPath>
    <clipPath
       clipPathUnits="userSpaceOnUse"
       id="clipPath2634">
      <path
         d="M 0,841.89 H 688.077 V 0 H 0 Z"
         transform="translate(-463.64831,-437.77161)"
         id="path2634" />
    </clipPath>
    <clipPath
       clipPathUnits="userSpaceOnUse"
       id="clipPath2636">
      <path
         d="M 0,841.89 H 688.077 V 0 H 0 Z"
         transform="translate(-380.45531,-439.92481)"
         id="path2636" />
    </clipPath>
    <clipPath
       clipPathUnits="userSpaceOnUse"
       id="clipPath2638">
      <path
         d="M 0,841.89 H 688.077 V 0 H 0 Z"
         transform="translate(-380.49841,-439.95131)"
         id="path2638" />
    </clipPath>
    <clipPath
       clipPathUnits="userSpaceOnUse"
       id="clipPath2640">
      <path
         d="M 0,841.89 H 688.077 V 0 H 0 Z"
         transform="translate(-447.66861,-467.59171)"
         id="path2640" />
    </clipPath>
    <clipPath
       clipPathUnits="userSpaceOnUse"
       id="clipPath2642">
      <path
         d="M 0,841.89 H 688.077 V 0 H 0 Z"
         transform="translate(-447.61901,-467.58211)"
         id="path2642" />
    </clipPath>
    <clipPath
       clipPathUnits="userSpaceOnUse"
       id="clipPath2644">
      <path
         d="M 0,841.89 H 688.077 V 0 H 0 Z"
         transform="translate(-437.84651,-465.26501)"
         id="path2644" />
    </clipPath>
    <clipPath
       clipPathUnits="userSpaceOnUse"
       id="clipPath2646">
      <path
         d="M 0,841.89 H 688.077 V 0 H 0 Z"
         transform="translate(-437.79681,-465.25551)"
         id="path2646" />
    </clipPath>
    <clipPath
       clipPathUnits="userSpaceOnUse"
       id="clipPath2648">
      <path
         d="M 0,841.89 H 688.077 V 0 H 0 Z"
         transform="translate(-367.55601,-497.45071)"
         id="path2648" />
    </clipPath>
    <clipPath
       clipPathUnits="userSpaceOnUse"
       id="clipPath2650">
      <path
         d="M 0,841.89 H 688.077 V 0 H 0 Z"
         transform="translate(-367.55511,-497.40001)"
         id="path2650" />
    </clipPath>
    <clipPath
       clipPathUnits="userSpaceOnUse"
       id="clipPath2652">
      <path
         d="M 0,841.89 H 688.077 V 0 H 0 Z"
         transform="translate(-372.45301,-455.91861)"
         id="path2652" />
    </clipPath>
    <clipPath
       clipPathUnits="userSpaceOnUse"
       id="clipPath2654">
      <path
         d="M 0,841.89 H 688.077 V 0 H 0 Z"
         transform="translate(-465.99131,-621.94132)"
         id="path2654" />
    </clipPath>
    <clipPath
       clipPathUnits="userSpaceOnUse"
       id="clipPath2656">
      <path
         d="M 0,841.89 H 688.077 V 0 H 0 Z"
         transform="translate(-465.95151,-621.97252)"
         id="path2656" />
    </clipPath>
    <clipPath
       clipPathUnits="userSpaceOnUse"
       id="clipPath2658">
      <path
         d="M 0,841.89 H 688.077 V 0 H 0 Z"
         transform="translate(-459.81421,-627.29951)"
         id="path2658" />
    </clipPath>
    <clipPath
       clipPathUnits="userSpaceOnUse"
       id="clipPath2660">
      <path
         d="M 0,841.89 H 688.077 V 0 H 0 Z"
         transform="translate(-459.77331,-627.26992)"
         id="path2660" />
    </clipPath>
    <clipPath
       clipPathUnits="userSpaceOnUse"
       id="clipPath2662">
      <path
         d="M 0,841.89 H 688.077 V 0 H 0 Z"
         transform="translate(-462.57701,-633.73312)"
         id="path2662" />
    </clipPath>
    <clipPath
       clipPathUnits="userSpaceOnUse"
       id="clipPath2664">
      <path
         d="M 0,841.89 H 688.077 V 0 H 0 Z"
         transform="translate(-462.57561,-633.68252)"
         id="path2664" />
    </clipPath>
    <clipPath
       clipPathUnits="userSpaceOnUse"
       id="clipPath2666">
      <path
         d="M 0,841.89 H 688.077 V 0 H 0 Z"
         transform="translate(-274.93141,-691.03532)"
         id="path2666" />
    </clipPath>
    <clipPath
       clipPathUnits="userSpaceOnUse"
       id="clipPath2668">
      <path
         d="M 0,841.89 H 688.077 V 0 H 0 Z"
         transform="translate(-274.93011,-691.08611)"
         id="path2668" />
    </clipPath>
    <clipPath
       clipPathUnits="userSpaceOnUse"
       id="clipPath2670">
      <path
         d="M 0,841.89 H 688.077 V 0 H 0 Z"
         transform="translate(-328.79401,-682.12192)"
         id="path2670" />
    </clipPath>
    <clipPath
       clipPathUnits="userSpaceOnUse"
       id="clipPath2672">
      <path
         d="M 0,841.89 H 688.077 V 0 H 0 Z"
         transform="translate(-328.74351,-682.12192)"
         id="path2672" />
    </clipPath>
    <clipPath
       clipPathUnits="userSpaceOnUse"
       id="clipPath2674">
      <path
         d="M 0,841.89 H 688.077 V 0 H 0 Z"
         transform="translate(-267.09021,-703.98792)"
         id="path2674" />
    </clipPath>
    <clipPath
       clipPathUnits="userSpaceOnUse"
       id="clipPath2676">
      <path
         d="M 0,841.89 H 688.077 V 0 H 0 Z"
         transform="translate(-346.95671,-680.36962)"
         id="path2676" />
    </clipPath>
    <clipPath
       clipPathUnits="userSpaceOnUse"
       id="clipPath2678">
      <path
         d="M 0,841.89 H 688.077 V 0 H 0 Z"
         transform="translate(-346.99111,-680.40662)"
         id="path2678" />
    </clipPath>
    <clipPath
       clipPathUnits="userSpaceOnUse"
       id="clipPath2680">
      <path
         d="M 0,841.89 H 688.077 V 0 H 0 Z"
         transform="translate(-278.44,-671.53751)"
         id="path2680" />
    </clipPath>
    <clipPath
       clipPathUnits="userSpaceOnUse"
       id="clipPath2682">
      <path
         d="M 0,841.89 H 688.077 V 0 H 0 Z"
         transform="translate(-278.46471,-671.49332)"
         id="path2682" />
    </clipPath>
    <clipPath
       clipPathUnits="userSpaceOnUse"
       id="clipPath2684">
      <path
         d="M 0,841.89 H 688.077 V 0 H 0 Z"
         transform="translate(-244.6105,-678.39332)"
         id="path2684" />
    </clipPath>
    <clipPath
       clipPathUnits="userSpaceOnUse"
       id="clipPath2686">
      <path
         d="M 0,841.89 H 688.077 V 0 H 0 Z"
         transform="translate(-254.6386,-679.25272)"
         id="path2686" />
    </clipPath>
    <clipPath
       clipPathUnits="userSpaceOnUse"
       id="clipPath2688">
      <path
         d="M 0,841.89 H 688.077 V 0 H 0 Z"
         transform="translate(-266.6692,-678.76082)"
         id="path2688" />
    </clipPath>
    <clipPath
       clipPathUnits="userSpaceOnUse"
       id="clipPath2690">
      <path
         d="M 0,841.89 H 688.077 V 0 H 0 Z"
         transform="translate(-245.82391,-685.96012)"
         id="path2690" />
    </clipPath>
    <clipPath
       clipPathUnits="userSpaceOnUse"
       id="clipPath2692">
      <path
         d="M 0,841.89 H 688.077 V 0 H 0 Z"
         transform="translate(-245.79631,-686.00282)"
         id="path2692" />
    </clipPath>
    <clipPath
       clipPathUnits="userSpaceOnUse"
       id="clipPath2694">
      <path
         d="M 0,841.89 H 688.077 V 0 H 0 Z"
         transform="translate(-285.95311,-691.19951)"
         id="path2694" />
    </clipPath>
    <clipPath
       clipPathUnits="userSpaceOnUse"
       id="clipPath2696">
      <path
         d="M 0,841.89 H 688.077 V 0 H 0 Z"
         transform="translate(-285.9022,-691.19962)"
         id="path2696" />
    </clipPath>
    <clipPath
       clipPathUnits="userSpaceOnUse"
       id="clipPath2698">
      <path
         d="M 0,841.89 H 688.077 V 0 H 0 Z"
         transform="translate(-250.62541,-695.51561)"
         id="path2698" />
    </clipPath>
    <clipPath
       clipPathUnits="userSpaceOnUse"
       id="clipPath2700">
      <path
         d="M 0,841.89 H 688.077 V 0 H 0 Z"
         transform="translate(-250.66641,-695.54582)"
         id="path2700" />
    </clipPath>
    <clipPath
       clipPathUnits="userSpaceOnUse"
       id="clipPath2702">
      <path
         d="M 0,841.89 H 688.077 V 0 H 0 Z"
         transform="translate(-275.4028,-698.87252)"
         id="path2702" />
    </clipPath>
    <clipPath
       clipPathUnits="userSpaceOnUse"
       id="clipPath2704">
      <path
         d="M 0,841.89 H 688.077 V 0 H 0 Z"
         transform="translate(-275.40271,-698.92322)"
         id="path2704" />
    </clipPath>
  </defs>
  <g
     id="layer-MC2"
     transform="translate(-71.58677,-183.10351)">
    <path
       id="path2491"
       d="m 0,0 c -26.115,13.493 -56.337,20.253 -85.729,20.719 -29.391,0.466 -57.73,-4.674 -84.26,-17.333 -0.009,-0.066 -0.016,-0.133 -0.025,-0.199 -3.506,-2.338 -6.049,-9.308 -6.049,-17.545 0,-10.153 4.795,-17.424 8.632,-18.383 0.389,-0.097 17.817,-6.082 26.789,-7.828 45.993,-8.947 94.944,-7.886 140.243,4.09 C 1.304,-25.08 0.927,-11.488 0,0"
       style="fill:#413d6a;fill-opacity:1;fill-rule:nonzero;stroke:none"
       transform="matrix(1.3333333,0,0,-1.3333333,507.74747,466.31693)"
       clip-path="url(#clipPath2492)" />
    <path
       id="path2493"
       d="m 0,0 c 1.053,-12.172 1.532,-24.415 -0.153,-36.55 -8.244,-2.705 -17.245,-4.198 -25.865,-5.917 -17.269,-3.001 -34.786,-4.515 -52.315,-4.568 -17.526,-0.025 -35.053,1.383 -52.35,4.208 -10.861,1.57 -21.436,4.564 -31.814,8.08 -0.771,0.286 -3.86,1.262 -4.669,1.558 -2.797,0.704 -4.699,3.188 -6.03,5.535 -3.207,5.851 -3.685,12.834 -2.647,19.314 0.792,4.237 2.057,8.934 5.69,11.644 12.158,6.387 27.558,11.137 41.697,14.036 C -85.367,25.697 -39.074,20.423 0,0 m -0.085,-0.056 c -39.295,19.594 -85.238,24.723 -128.258,16.822 -14.167,-2.597 -28.996,-7.62 -41.516,-13.431 0,0 -0.025,-0.198 -0.025,-0.198 -0.006,-0.051 -0.038,-0.095 -0.076,-0.122 -1.765,-1.226 -2.895,-3.187 -3.74,-5.158 -3.064,-8 -3.127,-17.611 0.979,-25.245 1.325,-2.29 3.106,-4.585 5.745,-5.221 7.771,-2.524 15.622,-5.066 23.561,-6.966 21.354,-4.402 43.284,-6.364 65.079,-6.401 26.209,0.089 52.423,3.225 77.82,9.751 l -0.214,-0.239 c 1.76,12.02 1.453,24.32 0.645,36.408"
       style="fill:#000000;fill-opacity:1;fill-rule:nonzero;stroke:none"
       transform="matrix(1.3333333,0,0,-1.3333333,507.80387,466.2796)"
       clip-path="url(#clipPath2494)" />
    <path
       id="path2495"
       d="m 0,0 c 45.91,17.9 98.097,19.047 144.826,3.486 0,0 9.913,-3.598 9.913,-3.598 l 9.723,-4.071 -9.81,3.839 -9.979,3.358 C 97.849,17.827 46.183,16.653 0,0"
       style="fill:#000000;fill-opacity:1;fill-rule:nonzero;stroke:none"
       transform="matrix(1.3333333,0,0,-1.3333333,277.6652,465.68907)"
       clip-path="url(#clipPath2496)" />
    <path
       id="path2497"
       d="m 0,0 c 51.331,5.467 103.584,4.775 154.752,-2.029 0,0 10.235,-1.455 10.235,-1.455 l -10.265,1.209 C 103.459,3.441 51.411,4.19 0,0"
       style="fill:#000000;fill-opacity:1;fill-rule:nonzero;stroke:none"
       transform="matrix(1.3333333,0,0,-1.3333333,272.96333,483.27707)"
       clip-path="url(#clipPath2498)" />
    <path
       id="path2499"
       d="m 0,0 c 49.69,-13.048 102.599,-14.11 152.772,-3.072 0,0 10.016,2.368 10.016,2.368 l -9.96,-2.61 C 102.816,-15.447 49.437,-14.318 0,0"
       style="fill:#000000;fill-opacity:1;fill-rule:nonzero;stroke:none"
       transform="matrix(1.3333333,0,0,-1.3333333,278.65147,505.71253)"
       clip-path="url(#clipPath2500)" />
    <path
       id="path2501"
       d="m 0,0 c -12.144,2.6 -24.538,4.032 -36.956,4.229 -16.116,0.255 -31.914,-1.18 -47.273,-4.61 -2.9,-2.567 -5.337,-5.685 -6.64,-9.314 -2.683,-7.475 -0.212,-15.811 3.263,-22.953 5.314,-10.922 13.027,-20.66 22.391,-28.393 13.965,-1.472 28.029,-1.997 42.066,-1.584 C -13.206,-45.55 3.09,-30.479 0,0"
       style="fill:#b4abba;fill-opacity:1;fill-rule:nonzero;stroke:none"
       transform="matrix(1.3333333,0,0,-1.3333333,442.7164,444.33027)"
       clip-path="url(#clipPath2502)" />
    <path
       id="path2503"
       d="m 0,0 c 2.363,-18.146 -3.336,-33.748 -13.434,-48.574 -3.124,-4.792 -6.445,-9.437 -9.3,-14.348 -0.094,-0.162 -0.263,-0.254 -0.437,-0.26 -14.058,-0.446 -28.149,0.136 -42.128,1.672 -12.319,9.953 -26.694,29.183 -26.891,45.52 -0.019,6.122 3.217,11.808 7.747,15.774 C -56.829,6.235 -27.663,6.333 0,0 m -0.076,-0.067 c -20.754,4.123 -42.18,4.856 -63.22,2.663 -7.017,-0.746 -14.006,-1.79 -20.913,-3.271 -1.627,-1.557 -4.291,-4.252 -5.481,-6.783 -8.831,-16.894 11.95,-43.092 24.715,-53.279 5.683,-0.326 14.116,-1.219 20.748,-1.324 7.006,-0.229 14.018,-0.27 21.025,-0.074 l -0.437,-0.261 c 2.913,4.954 6.215,9.629 9.393,14.359 10.331,14.731 15.895,29.783 14.17,47.97"
       style="fill:#000000;fill-opacity:1;fill-rule:nonzero;stroke:none"
       transform="matrix(1.3333333,0,0,-1.3333333,442.7668,444.28547)"
       clip-path="url(#clipPath2504)" />
    <path
       id="path2505"
       d="m 0,0 c 0,-10.153 -3.865,-18.383 -8.632,-18.383 -4.768,0 -8.632,8.23 -8.632,18.383 0,10.153 3.864,18.383 8.632,18.383 C -3.865,18.383 0,10.153 0,0"
       style="fill:#272447;fill-opacity:1;fill-rule:nonzero;stroke:none"
       transform="matrix(1.3333333,0,0,-1.3333333,516.4008,490.57613)"
       clip-path="url(#clipPath2506)" />
    <path
       id="path2507"
       d="m 0,0 c -0.055,3.629 -0.608,7.286 -1.916,10.673 -1.71,4.89 -6.289,10.547 -10.763,4.649 -4.796,-6.908 -5.346,-18.189 -2.718,-26.046 1.141,-3.098 3.127,-7.034 6.815,-7.239 C -2.211,-17.205 0.058,-5.314 0,0 m 0.101,0 c -0.109,-5.428 -0.563,-11.309 -3.816,-15.91 -2.617,-3.809 -7.065,-3.778 -9.608,0.095 -4.68,7.339 -5.24,18.538 -2.692,26.75 1.168,3.415 3.29,7.773 7.433,7.971 C -1.013,18.078 0.075,5.961 0.101,0"
       style="fill:#000000;fill-opacity:1;fill-rule:nonzero;stroke:none"
       transform="matrix(1.3333333,0,0,-1.3333333,516.3332,490.57653)"
       clip-path="url(#clipPath2508)" />
    <path
       id="path2509"
       d="m 0,0 c 0,-4.944 -1.36,-8.952 -3.037,-8.952 -1.678,0 -3.037,4.008 -3.037,8.952 0,4.944 1.359,8.952 3.037,8.952 C -1.36,8.952 0,4.944 0,0"
       style="fill:#ff522a;fill-opacity:1;fill-rule:nonzero;stroke:none"
       transform="matrix(1.3333333,0,0,-1.3333333,501.90733,491.2156)"
       clip-path="url(#clipPath2510)" />
    <path
       id="path2511"
       d="m 0,0 c 0.229,1.729 -1.918,11.892 -4.252,7.098 -1.682,-3.149 -2.747,-14.11 1.266,-15.628 0.499,0.031 1.003,0.722 1.339,1.396 1.04,2.196 1.64,4.675 1.647,7.134 m 0.102,0 c -0.117,-2.888 0.246,-6.251 -1.689,-8.678 -1.321,-1.519 -2.87,-0.28 -3.394,1.227 C -6.396,-4.094 -7.768,8.578 -2.986,9.493 0.443,8.861 0.004,2.634 0.102,0"
       style="fill:#000000;fill-opacity:1;fill-rule:nonzero;stroke:none"
       transform="matrix(1.3333333,0,0,-1.3333333,501.83973,491.21587)"
       clip-path="url(#clipPath2512)" />
    <path
       id="path2513"
       d="m 0,0 c -4.567,-23.432 -5.763,-47.518 -3.538,-71.288 0.279,-2.982 0.674,-6.124 2.491,-8.506 2.16,-2.833 5.836,-3.969 9.282,-4.871 3.622,-0.949 7.313,-1.825 11.057,-1.765 3.743,0.061 7.388,1.689 10.136,4.232 -7.806,23.753 -10.129,49.29 -6.736,74.063 0.672,4.901 -3.574,9.137 -8.245,10.768 C 9.777,4.265 3.498,3.498 0,0"
       style="fill:#49444c;fill-opacity:1;fill-rule:nonzero;stroke:none"
       transform="matrix(1.3333333,0,0,-1.3333333,155.57307,334.2308)"
       clip-path="url(#clipPath2514)" />
    <path
       id="path2515"
       d="m 0,0 c 6.437,6.294 19.158,4.181 22.647,-4.32 0.884,-2.121 0.399,-4.474 0.162,-6.654 -0.727,-6.504 -1.052,-13.055 -1.058,-19.599 0.04,-8.725 0.698,-17.453 2.047,-26.073 1.338,-8.625 3.342,-17.146 5.972,-25.478 0.04,-0.12 0.003,-0.249 -0.084,-0.328 -1.79,-1.621 -3.919,-2.864 -6.225,-3.572 -4.635,-1.411 -9.563,-0.233 -14.126,0.889 -8.868,2.054 -12.576,4.837 -13.125,14.326 C -6.265,-47.195 -4.958,-23.222 0,0 m 0.089,-0.048 c -3.251,-18.638 -4.664,-37.619 -4.11,-56.536 0.121,-4.73 0.35,-9.46 0.735,-14.179 0.185,-2.351 0.381,-4.733 1.276,-6.899 1.789,-4.635 7.027,-6.083 11.427,-7.147 6.884,-1.894 14.329,-2.605 19.843,2.817 -5.677,14.835 -8.551,34.399 -8.549,51.418 -0.009,4.391 0.196,8.781 0.555,13.155 0.237,2.182 0.407,4.371 0.722,6.543 0.25,2.127 0.789,4.252 -0.013,6.31 C 18.726,3.631 6.441,5.745 0.089,-0.048"
       style="fill:#000000;fill-opacity:1;fill-rule:nonzero;stroke:none"
       transform="matrix(1.3333333,0,0,-1.3333333,155.51347,334.19893)"
       clip-path="url(#clipPath2516)" />
    <path
       id="path2517"
       d="m 0,0 c -3.145,9.04 -14.175,12.648 -21.857,6.768 -1.05,-0.746 -1.972,-1.667 -2.792,-2.688 0.631,1.152 1.502,2.171 2.478,3.074 C -14.544,14.076 -2.074,10.095 0,0"
       style="fill:#000000;fill-opacity:1;fill-rule:nonzero;stroke:none"
       transform="matrix(1.3333333,0,0,-1.3333333,183.98293,366.32907)"
       clip-path="url(#clipPath2518)" />
    <path
       id="path2519"
       d="m 0,0 c -3.635,9.405 -14.879,12.289 -22.791,6.248 -1.075,-0.777 -2.023,-1.726 -2.873,-2.772 0.662,1.178 1.557,2.224 2.557,3.156 C -15.329,13.706 -2.534,10.459 0,0"
       style="fill:#000000;fill-opacity:1;fill-rule:nonzero;stroke:none"
       transform="matrix(1.3333333,0,0,-1.3333333,184.17307,390.05693)"
       clip-path="url(#clipPath2520)" />
    <path
       id="path2521"
       d="m 0,0 c -5.222,9.402 -17.934,11.439 -25.569,3.719 -1.045,-0.996 -1.927,-2.161 -2.679,-3.419 0.547,1.364 1.365,2.617 2.315,3.758 C -18.552,12.786 -4.3,10.596 0,0"
       style="fill:#000000;fill-opacity:1;fill-rule:nonzero;stroke:none"
       transform="matrix(1.3333333,0,0,-1.3333333,187.79213,413.0504)"
       clip-path="url(#clipPath2522)" />
    <path
       id="path2523"
       d="m 0,0 c 1.484,-24.915 28.86,-43.553 61.145,-41.629 32.284,1.924 57.253,23.68 55.768,48.595 C 115.429,31.881 88.053,50.519 55.769,48.595 23.484,46.671 -1.484,24.915 0,0"
       style="fill:#b4abba;fill-opacity:1;fill-rule:nonzero;stroke:none"
       transform="matrix(1.3333333,0,0,-1.3333333,126.03,545.63)"
       clip-path="url(#clipPath2524)" />
    <path
       id="path2525"
       d="m 0,0 c -1.363,29.293 29.42,48.01 55.788,49.12 26.335,2.095 59.42,-12.773 61.453,-42.135 1.126,-29.236 -29.767,-47.7 -56.021,-49.03 C 34.917,-44.18 2.127,-29.228 0,0 m 0.101,0.006 c 2.26,-29.04 35.141,-43.068 61.069,-41.212 26.088,0.918 56.948,19.006 55.516,48.159 C 114.326,35.81 81.739,50.016 55.85,48.075 29.885,46.949 -1.103,29.089 0.101,0.006"
       style="fill:#000000;fill-opacity:1;fill-rule:nonzero;stroke:none"
       transform="matrix(1.3333333,0,0,-1.3333333,125.96267,545.63373)"
       clip-path="url(#clipPath2526)" />
    <path
       id="path2527"
       d="m 0,0 c 8.625,-7.457 15.576,-16.841 20.194,-27.266 -4.682,-3.405 -9.667,-5.982 -15.316,-7.24 -3.655,-0.813 -7.347,-1.456 -11.062,-1.926 -3.595,-0.454 -7.086,-0.475 -10.669,-0.726 -1.552,-0.109 -3.104,-0.218 -4.656,-0.327 0.823,-5.425 2.054,-10.787 3.675,-16.029 0.401,-1.296 0.826,-2.584 1.274,-3.864 0.4,-1.142 1.155,-2.447 1.318,-3.642 0.087,-0.644 -0.153,-1.851 -0.828,-2.139 -0.669,-0.287 -1.428,0.368 -1.896,0.77 -3.268,2.804 -6.742,5.122 -9.829,8.126 -4.041,3.895 -7.818,8.065 -11.293,12.474 -1.611,2.043 -3.174,4.166 -4.157,6.574 -0.983,2.409 -1.345,5.158 -0.511,7.623 1.129,3.331 5.185,5.668 7.951,7.651 3.679,2.638 7.455,5.15 11.299,7.538 C -16.721,-7.568 -8.57,-3.271 0,0"
       style="fill:#413d6a;fill-opacity:1;fill-rule:nonzero;stroke:none"
       transform="matrix(1.3333333,0,0,-1.3333333,131.2584,505.8004)"
       clip-path="url(#clipPath2528)" />
    <path
       id="path2529"
       d="m 0,0 c -8.488,-3.465 -16.688,-7.838 -24.429,-12.772 -2.066,-1.405 -7.647,-5.205 -9.784,-6.658 -3.829,-2.832 -9.715,-5.552 -9.467,-11.096 0.085,-5.264 3.879,-9.473 7.025,-13.413 5.014,-6.101 10.553,-11.708 16.876,-16.457 0,0 1.526,-1.269 1.526,-1.269 0.787,-0.673 2.077,-2.046 2.596,-0.475 0.602,1.909 -0.952,3.607 -1.356,5.46 -0.395,1.261 -0.818,2.512 -1.191,3.778 -1.516,5.06 -2.63,10.23 -3.464,15.441 -0.015,0.092 0.047,0.179 0.139,0.193 0.003,-0.004 5.453,0.409 5.461,0.406 5.274,0.246 11.066,0.746 16.216,1.828 7.199,1.147 13.96,3.792 19.804,8.164 0,-10e-4 -0.14,-0.519 -0.14,-0.519 -2.272,5.195 -5.138,10.125 -8.455,14.733 C 8.034,-8.079 4.186,-3.783 0,0 m 0.018,0.1 c 4.438,-3.674 8.378,-7.798 11.842,-12.384 3.469,-4.555 6.388,-9.529 8.734,-14.759 0.083,-0.186 0.018,-0.402 -0.14,-0.519 -5.851,-4.492 -12.878,-7.218 -20.173,-8.201 -7.067,-1.367 -14.598,-1.298 -21.77,-1.842 0,0 0.156,0.195 0.156,0.195 0.948,-6.511 2.576,-12.917 4.765,-19.117 0.52,-2.088 2.86,-4.795 0.803,-6.76 -1.117,-0.663 -2.167,0.563 -2.905,1.126 l -1.536,1.231 c -8.54,6.26 -15.999,13.993 -22.044,22.698 -2.148,3.36 -3.472,7.939 -1.601,11.767 2.014,3.622 5.815,5.537 9.067,7.844 10.877,7.344 22.369,14.354 34.802,18.721"
       style="fill:#000000;fill-opacity:1;fill-rule:nonzero;stroke:none"
       transform="matrix(1.3333333,0,0,-1.3333333,131.24653,505.8668)"
       clip-path="url(#clipPath2530)" />
    <path
       id="path2531"
       d="m 0,0 c -10.277,-2.01 -20.768,-2.853 -31.232,-2.817 l 0.241,0.319 c 0.302,-1.554 0.632,-3.101 0.899,-4.664 -0.498,1.505 -0.934,3.026 -1.399,4.539 -0.051,0.159 0.077,0.324 0.242,0.32 C -22.214,-1.687 -8.915,-0.652 0,0"
       style="fill:#000000;fill-opacity:1;fill-rule:nonzero;stroke:none"
       transform="matrix(1.3333333,0,0,-1.3333333,142.77853,546.8564)"
       clip-path="url(#clipPath2532)" />
    <path
       id="path2533"
       d="m 0,0 c 3.351,-1.472 6.977,-3.333 8.255,-6.762 1.011,-2.712 0.273,-5.748 -0.734,-8.461 -3.542,-9.539 -10.437,-17.795 -19.192,-22.981 -0.762,-0.451 -1.653,-0.894 -2.495,-0.624 -1.47,0.47 -1.516,2.507 -1.271,4.03 0.908,5.637 1.816,11.274 2.724,16.911 -10.984,1.829 -21.967,3.658 -32.95,5.486 -1.393,0.232 -2.825,0.478 -4.029,1.216 -2.063,1.262 -3.06,3.706 -3.664,6.048 -1.133,4.397 -1.309,9.03 -0.574,13.509 0.367,2.239 0.963,4.441 1.781,6.558 0.266,0.689 0.717,2.548 1.36,2.95 0.712,0.445 2.373,-0.461 3.132,-0.704 10.312,-3.29 20.614,-6.622 30.765,-10.383 C -11.2,4.684 -5.557,2.441 0,0"
       style="fill:#413d6a;fill-opacity:1;fill-rule:nonzero;stroke:none"
       transform="matrix(1.3333333,0,0,-1.3333333,329.2792,530.10413)"
       clip-path="url(#clipPath2534)" />
    <path
       id="path2535"
       d="m 0,0 c -14.751,6.477 -31.598,11.474 -46.952,16.455 -1.208,0.287 -2.556,1.11 -3.418,1.055 -0.164,0.077 -0.511,-0.554 -0.704,-1.096 -0.584,-1.749 -1.31,-3.584 -1.757,-5.401 -1.243,-4.869 -1.367,-10.034 -0.298,-14.954 0.674,-3.645 2.392,-7.405 6.502,-7.862 11.303,-2.002 22.634,-4.04 33.962,-5.867 0.094,-0.015 0.157,-0.104 0.143,-0.198 -0.468,-3.017 -1.677,-10.887 -2.102,-13.816 l -0.343,-2.304 c -0.19,-1.352 -0.536,-3.106 0.434,-4.137 0.454,-0.42 1.127,-0.438 1.772,-0.148 1.31,0.629 2.632,1.583 3.86,2.418 4.992,3.595 9.278,8.17 12.511,13.407 C 9.082,-12.948 12.639,-5.089 0,0 m 0.041,0.093 c 6.777,-2.696 10.708,-6.793 8.051,-14.387 -2.9,-8.923 -8.796,-16.878 -16.496,-22.263 -1.706,-1.005 -3.266,-2.633 -5.372,-2.689 -3.44,0.634 -1.684,5.381 -1.43,7.656 0.509,2.874 1.842,10.789 2.343,13.778 0,0 0.142,-0.198 0.142,-0.198 -11.313,1.955 -22.708,3.661 -34.047,5.476 -1.264,0.231 -2.612,0.596 -3.699,1.459 -2.147,1.689 -2.994,4.403 -3.571,6.932 -1.422,6.318 -0.96,13.066 1.339,19.127 0.532,1.164 0.658,3.235 2.186,3.577 1.554,0.045 2.514,-0.79 3.879,-1.108 C -30.802,12.467 -15.138,6.81 0.041,0.093"
       style="fill:#000000;fill-opacity:1;fill-rule:nonzero;stroke:none"
       transform="matrix(1.3333333,0,0,-1.3333333,329.25173,530.16627)"
       clip-path="url(#clipPath2536)" />
    <path
       id="path2537"
       d="m 0,0 c 13.579,-2.487 28.362,-5.704 41.869,-8.787 0.261,-0.056 0.416,-0.337 0.325,-0.588 -2.479,-6.859 -5.041,-13.689 -7.724,-20.474 2.183,6.962 4.49,13.882 6.88,20.774 l 0.325,-0.587 C 28.112,-6.769 13.378,-3.465 0,0"
       style="fill:#000000;fill-opacity:1;fill-rule:nonzero;stroke:none"
       transform="matrix(1.3333333,0,0,-1.3333333,263.85987,538.6924)"
       clip-path="url(#clipPath2538)" />
    <path
       id="path2539"
       d="m 0,0 c 2.954,15.764 19.669,27.398 39.34,26.61 13.225,-0.53 24.669,-6.55 31.262,-15.285 0,0 39.743,-54.532 40.704,-56.325 l 0.007,-0.01 h -0.002 c 3.725,-6.956 4.302,-16.052 0.824,-24.654 -0.029,-0.072 -0.06,-0.142 -0.089,-0.213 -4.526,-15.36 -28.289,-26.351 -56.435,-25.223 -20.92,0.837 -38.89,8.155 -48.088,18.291 -5.816,4.903 -10.031,12.398 -11.238,21.156 h -0.002 l 10e-4,0.007 c -0.049,0.351 -0.094,0.704 -0.132,1.058 -0.519,4.774 3.371,49.85 3.405,50.685 0.053,1.319 0.203,2.615 0.44,3.884 L -0.002,0 Z"
       style="fill:#413d6a;fill-opacity:1;fill-rule:nonzero;stroke:none"
       transform="matrix(1.3333333,0,0,-1.3333333,126.4508,453.0212)"
       clip-path="url(#clipPath2540)" />
    <path
       id="path2541"
       d="m 0,0 c -1.201,-12.399 -2.135,-28.956 -3.046,-41.707 -0.17,-4.633 -0.777,-9.31 -0.3,-13.93 0.008,-0.029 -0.44,0.432 -0.441,0.426 0.216,0.021 0.409,-0.139 0.439,-0.35 1.129,-7.989 5.023,-15.65 11.214,-20.869 19.29,-19.847 58.227,-22.562 82.98,-12.57 8.849,3.668 17.938,9.703 20.932,19.255 3.272,7.817 3.361,17.123 -0.649,24.692 -0.06,0.102 0.018,0.238 0.133,0.245 l -0.12,-0.262 -0.007,0.009 c -1.791,2.701 -3.75,5.363 -5.667,8.014 -8.254,11.404 -20.62,28.212 -28.964,39.621 -0.001,0 -5.808,7.913 -5.808,7.913 C 64.941,18.362 55.926,23.465 46.437,25.409 27.741,29.503 4.288,20.128 0,0 M -0.071,0.072 C 3.8,20.58 27.674,30.165 46.589,26.174 56.27,24.289 65.579,19.105 71.36,10.971 l 5.748,-7.958 c 11.091,-15.486 23.445,-32.355 34.31,-47.898 0,0 -0.011,0.017 -0.011,0.017 l 0.007,-0.009 c 0.075,-0.099 0.003,-0.256 -0.122,-0.263 l 0.131,0.245 c 4.128,-7.616 4.064,-17.196 0.828,-25.018 -3.008,-9.753 -12.149,-15.968 -21.114,-19.787 -25.222,-10.462 -64.48,-7.614 -83.978,12.537 -6.354,5.378 -10.223,13.312 -11.313,21.491 0,0 0.441,-0.351 0.437,-0.35 -0.246,-0.024 -0.461,0.185 -0.441,0.432 -10e-4,0.027 0.004,-0.078 0.003,-0.075 -0.45,4.656 0.223,9.347 0.434,14.001 1.084,13.386 2.048,28.617 3.65,41.736"
       style="fill:#000000;fill-opacity:1;fill-rule:nonzero;stroke:none"
       transform="matrix(1.3333333,0,0,-1.3333333,126.49787,453.06933)"
       clip-path="url(#clipPath2542)" />
    <path
       id="path2543"
       d="m 0,0 c 2.954,15.764 19.67,27.398 39.34,26.61 13.226,-0.529 24.669,-6.55 31.262,-15.285 0,0 39.743,-54.532 40.704,-56.325 l 0.007,-0.01 h -0.002 c 3.725,-6.956 4.302,-16.052 0.824,-24.654 -0.029,-0.072 -0.06,-0.142 -0.089,-0.213 -4.526,-15.36 -28.289,-26.351 -56.435,-25.223 -20.92,0.837 -38.89,8.155 -48.088,18.291 -5.816,4.903 -10.031,12.398 -11.238,21.156 h -0.002 l 10e-4,0.007 c -0.049,0.351 -0.094,0.703 -0.132,1.059 -0.519,4.773 3.372,49.849 3.405,50.684 0.053,1.319 0.203,2.614 0.44,3.884 L -0.002,0 Z"
       style="fill:#b4abba;fill-opacity:1;fill-rule:nonzero;stroke:none"
       transform="matrix(1.3333333,0,0,-1.3333333,124.58453,443.99013)"
       clip-path="url(#clipPath2544)" />
    <path
       id="path2545"
       d="m 0,0 c -1.201,-12.397 -2.135,-28.957 -3.046,-41.707 -0.17,-4.633 -0.778,-9.309 -0.3,-13.929 0.008,-0.029 -0.44,0.432 -0.441,0.425 0.215,0.02 0.408,-0.138 0.439,-0.35 1.128,-7.988 5.022,-15.65 11.214,-20.868 19.289,-19.848 58.227,-22.562 82.98,-12.571 8.849,3.669 17.937,9.703 20.932,19.255 3.272,7.818 3.36,17.123 -0.649,24.693 -0.061,0.102 0.018,0.237 0.132,0.245 l -0.119,-0.263 -0.007,0.009 c -1.791,2.701 -3.751,5.363 -5.667,8.014 -8.254,11.404 -20.621,28.211 -28.965,39.621 l -5.808,7.913 C 64.941,18.363 55.925,23.465 46.437,25.409 27.74,29.503 4.288,20.128 0,0 m -0.071,0.073 c 3.871,20.508 27.744,30.092 46.66,26.102 9.681,-1.886 18.989,-7.069 24.77,-15.204 0,0 5.748,-7.957 5.748,-7.957 11.092,-15.487 23.445,-32.355 34.31,-47.899 0,0 -0.01,0.018 -0.01,0.018 l 0.006,-0.009 c 0.075,-0.1 0.004,-0.256 -0.121,-0.264 l 0.131,0.245 c 4.127,-7.616 4.064,-17.195 0.828,-25.017 -3.008,-9.753 -12.15,-15.969 -21.114,-19.788 -25.223,-10.462 -64.481,-7.614 -83.978,12.537 -6.355,5.378 -10.223,13.313 -11.313,21.491 0,0 0.442,-0.351 0.436,-0.35 -0.245,-0.024 -0.461,0.186 -0.44,0.433 -10e-4,0.027 0.004,-0.078 0.003,-0.076 -0.451,4.656 0.223,9.348 0.434,14.002 1.084,13.385 2.047,28.617 3.65,41.736"
       style="fill:#000000;fill-opacity:1;fill-rule:nonzero;stroke:none"
       transform="matrix(1.3333333,0,0,-1.3333333,124.632,444.03867)"
       clip-path="url(#clipPath2546)" />
    <path
       id="path2547"
       d="M 0,0 C -0.484,-6.64 8.105,-12.676 19.183,-13.483 30.262,-14.29 39.634,-9.561 40.118,-2.922 40.602,3.718 32.013,9.754 20.935,10.561 9.856,11.368 0.483,6.639 0,0"
       style="fill:#272447;fill-opacity:1;fill-rule:nonzero;stroke:none"
       transform="matrix(1.3333333,0,0,-1.3333333,172.05747,486.45373)"
       clip-path="url(#clipPath2548)" />
    <path
       id="path2549"
       d="m 0,0 c 0.369,4.485 4.38,7.549 8.251,9.179 8.045,3.23 17.632,2.482 25.204,-1.706 C 43.396,1.868 42.533,-7.936 31.91,-11.96 23.894,-15.008 14.317,-14.665 6.842,-10.264 3.231,-8.104 -0.248,-4.484 0,0 M 0.101,-0.007 C 0.151,-12.284 22.9,-15.479 31.783,-11.633 42.036,-7.86 42.566,1.508 32.985,6.643 25.595,10.551 16.422,11.171 8.493,8.556 4.603,7.231 0.533,4.413 0.101,-0.007"
       style="fill:#000000;fill-opacity:1;fill-rule:nonzero;stroke:none"
       transform="matrix(1.3333333,0,0,-1.3333333,171.99013,486.44893)"
       clip-path="url(#clipPath2550)" />
    <path
       id="path2551"
       d="M 0,0 C -0.258,-3.547 4.697,-6.799 11.067,-7.263 17.437,-7.727 22.811,-5.227 23.07,-1.68 23.328,1.867 18.373,5.119 12.003,5.583 5.632,6.047 0.258,3.547 0,0"
       style="fill:#ff522a;fill-opacity:1;fill-rule:nonzero;stroke:none"
       transform="matrix(1.3333333,0,0,-1.3333333,184.3656,494.98627)"
       clip-path="url(#clipPath2552)" />
    <path
       id="path2553"
       d="M 0,0 C 0.247,2.549 2.637,4.172 4.827,5.071 9.434,6.865 14.817,6.406 19.195,4.157 25.16,1.059 24.645,-4.508 18.288,-6.599 13.72,-8.212 8.325,-8.178 4.048,-5.703 2.008,-4.506 -0.115,-2.553 0,0 M 0.101,-0.007 C 0.223,-6.519 13.44,-7.983 18.181,-6.288 24.109,-4.36 24.359,0.654 18.756,3.31 14.269,5.761 1.312,6.549 0.101,-0.007"
       style="fill:#000000;fill-opacity:1;fill-rule:nonzero;stroke:none"
       transform="matrix(1.3333333,0,0,-1.3333333,184.298,494.98147)"
       clip-path="url(#clipPath2554)" />
    <path
       id="path2555"
       d="m 0,0 25.349,11.223 c 0.388,0.172 0.357,0.733 -0.047,0.861 l -30.327,9.604 z"
       style="fill:#413d6a;fill-opacity:1;fill-rule:nonzero;stroke:none"
       transform="matrix(1.3333333,0,0,-1.3333333,208.4716,314.2368)"
       clip-path="url(#clipPath2556)" />
    <path
       id="path2557"
       d="m 0,0 c -0.952,3.589 -3.341,12.608 -4.206,16.097 l -1.312,5.517 c -0.101,0.388 0.298,0.755 0.675,0.624 9.97,-3.051 19.73,-6.756 29.712,-9.761 0.309,-0.116 0.8,-0.142 0.941,-0.541 0.183,-0.453 -0.134,-0.843 -0.564,-0.983 L 24.384,10.542 C 16.52,6.707 7.98,3.198 0,0 m 0.045,0.091 c 8.434,4.075 16.432,7.891 25.012,11.298 l 0.218,0.089 c 0.042,0.018 0.073,0.039 0.1,0.068 0.108,0.152 0.058,0.362 -0.173,0.412 -0.271,0.086 -1.066,0.353 -1.35,0.444 -9.604,3.153 -19.406,5.68 -29.014,8.827 0,0 0.675,0.624 0.675,0.624 1.398,-6.008 3.323,-15.638 4.532,-21.762"
       style="fill:#000000;fill-opacity:1;fill-rule:nonzero;stroke:none"
       transform="matrix(1.3333333,0,0,-1.3333333,208.4412,314.2972)"
       clip-path="url(#clipPath2558)" />
    <path
       id="path2559"
       d="m 0,0 c -6.85,-16.943 2.393,-36.66 20.645,-44.039 18.252,-7.38 38.602,0.372 45.452,17.315 C 72.947,-9.782 63.704,9.935 45.452,17.315 27.2,24.695 6.85,16.943 0,0"
       style="fill:#b4abba;fill-opacity:1;fill-rule:nonzero;stroke:none"
       transform="matrix(1.3333333,0,0,-1.3333333,128.62893,285.40347)"
       clip-path="url(#clipPath2560)" />
    <path
       id="path2561"
       d="M 0,0 C 11.988,28.423 52.465,26.275 65.364,-0.362 74.066,-17.864 65.484,-38.396 47.145,-44.886 19.253,-55.101 -11.037,-28.88 0,0 m 0.094,-0.038 c -10.798,-27.799 20.289,-54.263 46.933,-44.517 18.118,6.213 26.165,26.802 17.481,43.773 -12.476,25.608 -52.65,28.277 -64.414,0.744"
       style="fill:#000000;fill-opacity:1;fill-rule:nonzero;stroke:none"
       transform="matrix(1.3333333,0,0,-1.3333333,128.56627,285.37827)"
       clip-path="url(#clipPath2562)" />
    <path
       id="path2563"
       d="m 0,0 c -1.918,-41.882 -66.079,-78.648 -154.099,-78.648 -88.02,0 -164.829,45.453 -164.65,78.648 0.32,59.146 62.343,87.667 155.378,87.92 C -45.718,88.239 2.444,53.359 0,0"
       style="fill:#232125;fill-opacity:1;fill-rule:nonzero;stroke:none"
       transform="matrix(1.3333333,0,0,-1.3333333,593.55707,334.77173)"
       clip-path="url(#clipPath2564)" />
    <path
       id="path2565"
       d="m 0,0 c 1.188,25.966 -10.235,46.767 -31.863,60.876 -35.644,22.07 -79.198,25.098 -120.123,26.461 -32.694,0.494 -65.906,-1.461 -97.347,-11.004 -23.128,-7.157 -46.575,-19.23 -59.422,-40.579 -6.442,-10.472 -9.451,-22.806 -9.658,-35.042 -0.165,-4.077 0.878,-8.11 2.532,-11.829 10.164,-21.025 35.858,-35.872 56.471,-45.261 45.068,-20.049 95.746,-25.784 144.467,-19.299 32.204,4.49 65.139,13.771 90.856,34.449 C -11.51,-31.021 -0.873,-16.668 0,0 m 0.102,-0.005 c -2.43,-33.948 -38.277,-54.517 -67.039,-65.053 -72.569,-25.899 -174.314,-16.424 -234.271,34.389 -8.819,8.181 -17.87,18.685 -17.721,31.388 0.176,12.336 3.147,24.776 9.602,35.378 12.856,21.569 36.409,33.922 59.722,41.121 31.56,9.599 64.829,11.58 97.636,11.108 40.694,-1.145 85.155,-4.84 120.366,-27.056 C -9.976,46.996 1.43,26.072 0.102,-0.005"
       style="fill:#000000;fill-opacity:1;fill-rule:nonzero;stroke:none"
       transform="matrix(1.3333333,0,0,-1.3333333,593.48947,334.76853)"
       clip-path="url(#clipPath2566)" />
    <path
       id="path2567"
       d="m 0,0 c -0.02,-5.496 -0.042,-11.534 -0.062,-17.03 -13.935,-7.412 -29.885,-10.989 -45.651,-10.24 -3.548,0.169 -7.137,0.564 -10.441,1.868 -3.304,1.305 -6.555,3.348 -7.379,6.803 -1.679,7.035 -3.357,14.07 -5.035,21.105"
       style="fill:#413d6a;fill-opacity:1;fill-rule:nonzero;stroke:none"
       transform="matrix(1.3333333,0,0,-1.3333333,424.3368,424.34773)"
       clip-path="url(#clipPath2568)" />
    <path
       id="path2569"
       d="m 0,0 c 0.211,-5.676 0.293,-11.354 0.307,-17.032 0.001,-0.16 -0.089,-0.299 -0.222,-0.369 -6.61,-3.66 -13.844,-6.062 -21.189,-7.718 -10.863,-2.398 -41.217,-7.432 -43.41,8.333 -1.399,6.261 -2.912,13.003 -4.154,19.28 1.23,-3.303 1.985,-7.314 3.013,-10.864 0.465,-1.841 1.639,-6.418 2.082,-8.191 0.482,-2.747 1.637,-5.133 4.124,-6.608 4.722,-3.036 10.43,-3.578 15.968,-3.743 7.462,-0.252 15.014,0.317 22.293,2.145 7.269,1.814 14.215,4.723 20.878,8.107 0,0 -0.222,-0.369 -0.222,-0.369 C -0.373,-11.42 -0.542,-5.41 0,0"
       style="fill:#000000;fill-opacity:1;fill-rule:nonzero;stroke:none"
       transform="matrix(1.3333333,0,0,-1.3333333,424.40413,424.348)"
       clip-path="url(#clipPath2570)" />
    <path
       id="path2571"
       d="m 0,0 c 0.66,-4.415 0.404,-9.309 1.718,-13.575 1.692,-5.495 3.384,-10.99 5.077,-16.484 30.893,-5.952 62.846,-5.152 93.427,2.245 0.927,6.576 1.218,13.239 2.146,19.816"
       style="fill:#413d6a;fill-opacity:1;fill-rule:nonzero;stroke:none"
       transform="matrix(1.3333333,0,0,-1.3333333,306.89387,394.09387)"
       clip-path="url(#clipPath2572)" />
    <path
       id="path2573"
       d="m 0,0 c 0.865,-5.078 0.652,-10.299 2.536,-15.167 1.444,-4.356 3.277,-10.461 4.636,-14.769 -10e-4,0 -0.343,0.308 -0.343,0.308 23.035,-4.913 46.847,-5.206 70.138,-1.965 7.764,1.006 15.47,2.436 23.107,4.174 l -0.313,-0.345 c 0.987,6.557 1.412,13.215 2.506,19.765 -0.089,-3.084 -0.588,-6.677 -0.752,-9.94 -0.252,-3.312 -0.491,-6.634 -0.933,-9.941 -0.023,-0.171 -0.148,-0.303 -0.305,-0.343 -7.62,-1.953 -15.37,-3.397 -23.169,-4.439 -23.394,-2.907 -47.248,-1.846 -70.448,2.156 -0.166,0.033 -0.294,0.157 -0.343,0.308 -0.785,2.457 -1.499,4.936 -2.253,7.404 -0.714,2.59 -2.724,8.599 -3.201,11.188 C 0.254,-7.825 0.137,-3.632 0,0"
       style="fill:#000000;fill-opacity:1;fill-rule:nonzero;stroke:none"
       transform="matrix(1.3333333,0,0,-1.3333333,306.9608,394.0836)"
       clip-path="url(#clipPath2574)" />
    <path
       id="path2575"
       d="m 0,0 c 1.174,-4.197 1.433,-8.39 3.133,-12.403 2.577,-6.086 5.155,-12.173 7.732,-18.259 43.717,-5.283 88.29,-4.388 131.798,2.402 4.218,8.823 4.884,18.921 3.564,28.611"
       style="fill:#413d6a;fill-opacity:1;fill-rule:nonzero;stroke:none"
       transform="matrix(1.3333333,0,0,-1.3333333,271.99667,367.776)"
       clip-path="url(#clipPath2576)" />
    <path
       id="path2577"
       d="m 0,0 c 1.168,-3.903 1.587,-8.007 3.12,-11.789 2.712,-6.198 5.433,-12.512 8.09,-18.72 l -0.342,0.257 c 2.736,-0.3 5.475,-0.569 8.208,-0.897 7.326,-0.747 17.335,-1.653 24.684,-2.115 19.08,-1.194 38.696,-0.523 57.77,0.845 13.635,1.033 27.505,2.587 41.02,4.555 0,0 -0.31,-0.231 -0.31,-0.231 2.126,4.332 3.399,9.069 3.965,13.88 0.548,4.816 0.498,9.709 -0.077,14.545 0.989,-4.515 1.041,-9.809 0.622,-14.604 -0.478,-4.873 -1.674,-9.71 -3.762,-14.179 -0.061,-0.129 -0.178,-0.211 -0.31,-0.231 -21.583,-3.632 -43.977,-5.384 -65.876,-5.611 -16.391,-0.1 -33.205,0.378 -49.579,1.51 l -8.239,0.743 c -2.743,0.285 -5.479,0.629 -8.219,0.941 -0.158,0.018 -0.285,0.122 -0.343,0.258 -2.617,6.227 -5.261,12.59 -7.8,18.859 C 1.253,-8.173 0.704,-3.773 0,0"
       style="fill:#000000;fill-opacity:1;fill-rule:nonzero;stroke:none"
       transform="matrix(1.3333333,0,0,-1.3333333,272.06173,367.75747)"
       clip-path="url(#clipPath2578)" />
    <path
       id="path2579"
       d="m 0,0 c -1.808,-0.242 -3.618,-0.468 -5.43,-0.677 -19.296,-2.221 -38.813,-2.527 -58.167,-0.887 -20.273,1.719 -40.949,-6.594 -57.827,-17.545 -21.386,-13.875 -34.821,-35.562 -34.96,-61.354 -0.127,-23.525 38.415,-53.206 92.209,-68.502 -2.038,0.917 -4.076,1.834 -6.114,2.751 -11.301,5.084 -22.765,10.27 -32.23,18.27 23.527,-2.906 48.09,3.397 68.483,15.482 29.812,-11.297 62.953,-15.94 94.83,-15.509 5.08,0.068 10.375,0.247 14.982,-1.891 3.705,-1.719 6.589,-4.771 9.434,-7.701 2.844,-2.931 5.864,-5.889 9.685,-7.332 0.226,-0.085 0.457,-0.162 0.69,-0.234 40.23,14.468 65.585,38.574 66.78,64.666 0.331,7.232 -0.262,14.525 -2.069,21.545 -4.683,18.189 -17.486,32.309 -33.342,41.814 C 103.793,-3.219 76.026,2.195 49.519,5.05 45.186,5.517 40.844,5.902 36.497,6.223 32.004,6.554 27.987,5.113 23.587,4.151 15.786,2.445 7.915,1.061 0,0"
       style="fill:#b4abba;fill-opacity:1;fill-rule:nonzero;stroke:none"
       transform="matrix(1.3333333,0,0,-1.3333333,377.0704,227.48827)"
       clip-path="url(#clipPath2580)" />
    <path
       id="path2581"
       d="m 0,0 c 6.318,0.863 12.608,1.931 18.855,3.203 6.27,1 12.389,3.76 18.833,3.002 36.928,-3.104 79.156,-9.296 106.619,-36.446 13.999,-13.941 20.23,-33.304 18.365,-52.851 -1.352,-12.927 -8.629,-24.477 -17.704,-33.455 -13.797,-13.504 -31.431,-22.824 -49.515,-29.081 -8.474,2.723 -12.336,12.027 -20.293,15.48 -5.253,2.242 -11.132,1.601 -16.738,1.661 -8.581,-0.039 -17.167,0.292 -25.717,1.027 -17.099,1.433 -34.084,4.435 -50.562,9.244 -5.125,1.554 -11.915,3.623 -16.034,5.469 -20.506,-12.074 -44.871,-18.344 -68.641,-15.416 0,0 0.13,0.298 0.13,0.298 5.58,-4.712 11.884,-8.5 18.408,-11.774 6.523,-3.291 13.248,-6.174 19.912,-9.185 0.241,-0.085 0.088,-0.478 -0.143,-0.393 -12.818,3.633 -25.383,8.213 -37.436,13.918 -19.413,9.421 -43.591,23.916 -52.798,44.188 -1.311,3.094 -2.187,6.415 -2.299,9.808 -0.213,13.419 3.573,26.826 10.78,38.14 7.117,11.374 17.43,20.493 29.008,27.13 12.887,7.621 27.212,13.306 42.221,14.606 3.202,0.263 6.783,0.294 10.006,0.068 C -43.191,-3.202 -21.453,-2.862 0,0 m 0.014,-0.101 c -21.446,-2.956 -43.212,-3.392 -64.782,-1.642 -3.194,0.195 -6.76,0.163 -9.945,-0.11 -14.923,-1.357 -29.147,-7.088 -41.929,-14.73 -11.465,-6.649 -21.627,-15.717 -28.628,-27.024 -7.701,-12.257 -14.255,-33.311 -8.451,-47.193 2.589,-6.087 6.708,-11.425 11.295,-16.155 6.939,-7.149 15.025,-13.102 23.493,-18.324 17.014,-10.437 35.67,-18.01 54.823,-23.535 0,0 -0.144,-0.393 -0.144,-0.393 -13.256,6.069 -27.062,11.632 -38.367,21.083 -0.132,0.098 -0.027,0.325 0.13,0.298 11.811,-1.441 23.851,-0.549 35.412,2.183 11.683,2.658 22.792,7.552 33.146,13.385 26.746,-10.001 55.304,-14.631 83.794,-15.258 2.852,-0.051 5.704,-0.087 8.556,-0.057 5.705,-0.051 11.682,0.589 17.108,-1.726 8.024,-3.396 11.878,-12.681 20.205,-15.432 16.288,6.18 35.402,15.504 48.552,28.873 8.926,8.837 16.081,20.186 17.402,32.871 1.833,19.156 -4.369,38.391 -18.011,52.131 C 116.482,-3.681 74.426,2.674 37.667,5.929 31.264,6.713 25.141,3.979 18.892,3.018 12.635,1.773 6.338,0.734 0.014,-0.101"
       style="fill:#000000;fill-opacity:1;fill-rule:nonzero;stroke:none"
       transform="matrix(1.3333333,0,0,-1.3333333,377.06107,227.4212)"
       clip-path="url(#clipPath2582)" />
    <path
       id="path2583"
       d="m 0,0 c -1.553,8.635 -4.907,16.983 -9.952,24.173 -6.066,8.643 -13.756,16.127 -22.493,22.048 -9.01,6.107 -20.23,12.003 -31.455,10.795 -4.392,-0.473 -8.957,-2.307 -11.24,-6.088 -1.992,-3.298 -1.894,-7.424 -1.431,-11.249 0.477,-3.932 1.279,-7.814 2.37,-11.615 -46.514,16.511 -97.322,18.119 -146.822,16.217 -15.66,-0.602 -31.394,-1.542 -46.678,-5.006 -11.376,-2.579 -22.548,-6.626 -32.491,-12.654 10.219,13.643 26.22,23.71 39.646,29.743 -18.575,1.389 -38.37,-6.231 -50.372,-20.476 -9.399,-11.155 -14.451,-25.948 -13.525,-40.505 0.925,-14.557 7.895,-28.694 19.08,-38.056 -7.85,16.843 -9.346,36.125 -3.242,53.466 1.279,-4.337 3.416,-8.404 6.249,-12.098 4.699,-6.124 10.809,-11.029 17.218,-15.331 20.443,-13.725 44.609,-21.845 69.191,-23.247 5.668,-5.081 10.307,-10.531 15.975,-15.611 1.932,-1.732 4.291,-3.588 6.831,-3.061 1.796,0.373 3.119,1.854 4.308,3.251 4.053,4.768 8.106,9.535 12.159,14.302 24.324,1.46 49.125,6.486 71.618,15.86 10.557,4.4 20.974,9.78 28.923,18.004 4.377,4.528 8.007,10.164 10.123,16.205 1.293,-2.208 2.683,-4.359 4.162,-6.443 2.385,-3.363 4.998,-6.561 7.798,-9.585 5.094,-5.502 10.804,-10.423 16.922,-14.753 5.642,-3.995 13.217,-7.83 20.109,-8.859 5.415,-0.808 11.499,0.609 14.877,4.917 C 2.845,-19.294 1.346,-7.487 0,0"
       style="fill:#413d6a;fill-opacity:1;fill-rule:nonzero;stroke:none"
       transform="matrix(1.3333333,0,0,-1.3333333,592.47,312.09347)"
       clip-path="url(#clipPath2584)" />
    <path
       id="path2585"
       d="m 0,0 c 2.469,-13.023 3.41,-31.011 -14.575,-30.918 -13.658,1.018 -25.061,10.085 -34.857,18.936 -6.502,6.009 -12.261,13.317 -16.86,20.904 -0.001,0 0.486,0.047 0.486,0.047 -1.767,-5.04 -4.497,-9.721 -7.905,-13.825 -15.621,-18.409 -48.263,-27.883 -71.373,-32.701 -9.831,-1.821 -22.67,-3.735 -31.26,-3.777 0,0 -8.809,-10.356 -8.809,-10.356 -2.388,-2.447 -4.08,-5.859 -7.423,-7.216 -3.706,-1.129 -6.805,2.187 -9.214,4.36 -4.969,4.636 -9.484,9.772 -14.53,14.292 l 0.296,-0.122 c -18.493,1.087 -36.723,5.924 -53.357,14.066 -15.8,8.268 -34.127,18.91 -39.713,36.965 0,0 0.87,-0.023 0.87,-0.023 -6.126,-17.212 -4.549,-36.687 3.143,-53.16 0.193,-0.332 -0.303,-0.69 -0.565,-0.434 -24.272,20.333 -25.297,58.013 -3.866,80.793 12.334,13.243 30.989,19.926 48.928,18.684 0.088,-0.006 0.154,-0.082 0.149,-0.17 -14.949,-7.087 -29.532,-16.456 -39.629,-29.865 l -0.292,0.322 c 8.245,4.999 17.262,8.64 26.535,11.213 18.605,5.141 38.011,6.083 57.196,6.761 38.382,1.36 77.234,0.462 114.781,-8.337 9.362,-2.228 18.613,-4.912 27.694,-8.1 l -0.39,-0.367 c -0.735,2.587 -1.34,5.212 -1.799,7.862 -0.785,5.203 -1.879,11.153 1.328,15.808 3.288,4.541 9.298,5.849 14.595,5.721 8.127,-0.191 15.815,-3.549 22.704,-7.623 C -19.474,38.866 -3.593,21.498 0,0 m -0.1,-0.017 c -3.665,21.425 -19.564,38.686 -37.789,49.459 -6.864,4.024 -14.48,7.322 -22.535,7.483 -5.144,0.112 -11.03,-1.178 -14.178,-5.571 -3.078,-4.51 -1.966,-10.348 -1.177,-15.422 0.466,-2.628 1.078,-5.23 1.818,-7.794 0.046,-0.16 -0.046,-0.327 -0.206,-0.373 -9.152,3.007 -18.424,5.825 -27.841,7.967 -37.517,8.505 -76.272,9.575 -114.594,8.336 -29.07,-0.739 -58.236,-2.926 -83.828,-17.572 9.751,13.566 24.749,22.984 39.768,30.006 0,-0.001 0.054,-0.306 0.054,-0.306 -5.962,0.388 -11.98,-0.064 -17.81,-1.373 -45.352,-9.685 -62.353,-66.19 -26.76,-97.225 0,0 -0.565,-0.434 -0.565,-0.434 -7.83,16.63 -9.51,36.33 -3.343,53.772 0.121,0.416 0.77,0.384 0.869,-0.022 5.955,-20.406 33.284,-34.552 51.915,-41.826 12.935,-4.795 26.56,-7.686 40.333,-8.496 3.633,-2.826 6.709,-6.472 10.007,-9.678 1.588,-1.613 3.191,-3.204 4.84,-4.743 3.124,-2.982 7.108,-6.627 10.804,-2.351 2.879,3.262 10.245,12.028 13.214,15.493 10.553,1.081 21.351,1.945 31.828,4.125 23,4.699 55.461,13.903 71.09,32.102 3.384,4.033 6.104,8.645 7.872,13.607 0.06,0.213 0.385,0.238 0.486,0.047 6.807,-11.527 16.185,-21.574 26.967,-29.471 9.493,-6.983 26.362,-16.114 36.298,-5.66 5.543,7.161 3.726,17.585 2.463,25.92"
       style="fill:#000000;fill-opacity:1;fill-rule:nonzero;stroke:none"
       transform="matrix(1.3333333,0,0,-1.3333333,592.53627,312.08173)"
       clip-path="url(#clipPath2586)" />
    <path
       id="path2587"
       d="m 0,0 c 0.456,-19.591 -65.22,-41.242 -118.292,-37.086 -57.738,4.522 -90.477,27.495 -90.797,40.923 -0.298,12.53 42.154,18.543 100.069,18.543 C -51.105,22.38 -0.32,13.747 0,0"
       style="fill:#ff7656;fill-opacity:1;fill-rule:nonzero;stroke:none"
       transform="matrix(1.3333333,0,0,-1.3333333,472.28107,299.60387)"
       clip-path="url(#clipPath2588)" />
    <path
       id="path2589"
       d="m 0,0 c -0.678,8.187 -16.373,12.107 -23.051,13.967 -18.412,4.52 -37.407,6.154 -56.299,7.157 -28.371,1.301 -56.899,1.084 -85.178,-1.606 -11.711,-1.334 -23.602,-2.676 -34.684,-6.823 -3.962,-1.706 -9.323,-3.987 -9.514,-8.918 0.31,-4.707 3.566,-8.661 6.798,-11.884 18.848,-17.227 47.113,-24.107 71.856,-27.452 28.182,-3.727 57.007,-0.868 84.403,6.432 C -32.995,-25.576 -0.647,-15.303 0,0 m 0.102,0.003 c -0.431,-15.196 -33.126,-26.107 -45.612,-29.699 -36.53,-10.525 -75.875,-11.073 -112.531,-0.81 -13.647,3.903 -27.216,9.047 -38.779,17.441 -5.498,4.251 -11.737,9.455 -12.517,16.823 0.165,12.272 35.111,15.495 44.714,16.681 18.899,1.912 37.895,2.418 56.867,2.433 28.407,-0.199 57.117,-1.77 84.794,-8.562 6.865,-1.979 22.416,-6.017 23.064,-14.307"
       style="fill:#000000;fill-opacity:1;fill-rule:nonzero;stroke:none"
       transform="matrix(1.3333333,0,0,-1.3333333,472.21333,299.60547)"
       clip-path="url(#clipPath2590)" />
    <path
       id="path2591"
       d="m 0,0 c 0.406,-16.603 -58.139,-34.951 -105.448,-31.429 -51.469,3.832 -80.653,23.301 -80.938,34.68 -0.266,10.619 37.576,15.715 89.203,15.715 C -45.557,18.966 -0.285,11.65 0,0"
       style="fill:#ff522a;fill-opacity:1;fill-rule:nonzero;stroke:none"
       transform="matrix(1.3333333,0,0,-1.3333333,461.62133,295.05227)"
       clip-path="url(#clipPath2592)" />
    <path
       id="path2593"
       d="m 0,0 c -0.621,7.039 -14.96,10.385 -20.736,11.894 -16.373,3.727 -33.187,5.106 -49.928,5.932 -25.134,1.067 -50.389,0.845 -75.453,-1.318 -9.436,-1.11 -34.799,-3.06 -39.541,-11.453 -0.701,-1.648 -0.242,-3.482 0.429,-5.093 1.203,-2.594 3.099,-4.78 5.178,-6.736 11.001,-9.775 25.307,-15.002 39.344,-18.756 32.564,-8.434 67.064,-7.475 99.558,0.8 C -30.145,-21.872 -0.639,-13.18 0,0 m 0.101,0.003 c -0.41,-13.088 -30.302,-22.372 -41.087,-25.349 -32.49,-8.855 -67.247,-9.197 -99.818,-0.555 -14.06,3.93 -28.488,8.948 -39.599,18.749 -3.118,2.943 -7.494,7.887 -5.826,12.461 4.653,8.789 30.493,11.019 40.021,12.149 16.75,1.615 33.577,2.063 50.384,2.029 25.167,-0.223 50.585,-1.532 75.155,-7.319 6.007,-1.692 20.107,-4.979 20.77,-12.165"
       style="fill:#000000;fill-opacity:1;fill-rule:nonzero;stroke:none"
       transform="matrix(1.3333333,0,0,-1.3333333,461.55387,295.054)"
       clip-path="url(#clipPath2594)" />
    <path
       id="path2595"
       d="M 0,0 C 2.802,-10.486 4.948,-21.212 6.394,-31.971 3.591,-21.483 1.446,-10.758 0,0"
       style="fill:#000000;fill-opacity:1;fill-rule:nonzero;stroke:none"
       transform="matrix(1.3333333,0,0,-1.3333333,237.18933,276.79813)"
       clip-path="url(#clipPath2596)" />
    <path
       id="path2597"
       d="M 0,0 C 3.126,-14.446 5.591,-29.122 7.353,-43.8 4.226,-29.35 1.762,-14.676 0,0"
       style="fill:#000000;fill-opacity:1;fill-rule:nonzero;stroke:none"
       transform="matrix(1.3333333,0,0,-1.3333333,266.17627,271.68267)"
       clip-path="url(#clipPath2598)" />
    <path
       id="path2599"
       d="M 0,0 C 3.435,-16.148 6.22,-32.534 8.312,-48.915 4.876,-32.761 2.092,-16.378 0,0"
       style="fill:#000000;fill-opacity:1;fill-rule:nonzero;stroke:none"
       transform="matrix(1.3333333,0,0,-1.3333333,296.44187,270.404)"
       clip-path="url(#clipPath2600)" />
    <path
       id="path2601"
       d="M 0,0 C 3.648,-16.891 6.646,-34.024 8.952,-51.153 5.303,-34.258 2.305,-17.127 0,0"
       style="fill:#000000;fill-opacity:1;fill-rule:nonzero;stroke:none"
       transform="matrix(1.3333333,0,0,-1.3333333,332.67493,269.97747)"
       clip-path="url(#clipPath2602)" />
    <path
       id="path2603"
       d="M 0,0 C 3.857,-15.596 7.069,-31.447 9.592,-47.317 5.733,-31.717 2.521,-15.867 0,0"
       style="fill:#000000;fill-opacity:1;fill-rule:nonzero;stroke:none"
       transform="matrix(1.3333333,0,0,-1.3333333,369.33507,270.83)"
       clip-path="url(#clipPath2604)" />
    <path
       id="path2605"
       d="M 0,0 C 3.228,-12.615 5.801,-25.476 7.673,-38.365 4.443,-25.746 1.872,-12.888 0,0"
       style="fill:#000000;fill-opacity:1;fill-rule:nonzero;stroke:none"
       transform="matrix(1.3333333,0,0,-1.3333333,407.7004,274.24027)"
       clip-path="url(#clipPath2606)" />
    <path
       id="path2607"
       d="m 0,0 c 13.795,-16.402 15.839,-31.781 9.809,-36.852 -6.03,-5.072 -22.102,4.113 -35.897,20.515 C -39.883,0.065 -46.177,17.474 -40.147,22.545 -34.116,27.617 -13.795,16.402 0,0"
       style="fill:#272447;fill-opacity:1;fill-rule:nonzero;stroke:none"
       transform="matrix(1.3333333,0,0,-1.3333333,570.96427,275.94547)"
       clip-path="url(#clipPath2608)" />
    <path
       id="path2609"
       d="m 0,0 c -7.196,8.385 -15.993,15.488 -25.906,20.36 -15.681,7.615 -19.057,-0.534 -13.428,-14.691 6.881,-16.014 20.279,-32.582 35.795,-40.858 14.998,-7.833 18.744,3.221 14.553,16.149 C 8.723,-12.025 4.701,-5.66 0,0 m 0.078,0.065 c 4.756,-5.669 8.961,-11.911 11.538,-18.898 2.024,-5.816 3.654,-14.184 -1.889,-18.609 -6.856,-4.138 -17.357,3.873 -22.725,8.005 -12.331,10.183 -28.736,29.159 -29.918,45.637 -0.201,11.218 10.614,8.567 17.433,5.028 9.93,-5.095 18.363,-12.72 25.561,-21.163"
       style="fill:#000000;fill-opacity:1;fill-rule:nonzero;stroke:none"
       transform="matrix(1.3333333,0,0,-1.3333333,570.91253,275.98893)"
       clip-path="url(#clipPath2610)" />
    <path
       id="path2611"
       d="M 0,0 C 7.451,-8.859 8.817,-19.357 6.122,-21.623 3.428,-23.89 -4.796,-18.545 -12.247,-9.686 -19.698,-0.826 -23.554,8.193 -20.86,10.459 -18.165,12.725 -7.451,8.859 0,0"
       style="fill:#ff522a;fill-opacity:1;fill-rule:nonzero;stroke:none"
       transform="matrix(1.3333333,0,0,-1.3333333,553.48693,286.17613)"
       clip-path="url(#clipPath2612)" />
    <path
       id="path2613"
       d="m 0,0 c -4.453,5.091 -10.457,9.131 -17.115,10.487 -6.917,1.393 -3.196,-6.643 -1.575,-9.881 3.694,-6.838 8.584,-13.239 14.664,-18.146 2.672,-2.049 10.36,-7.622 10.934,-1.177 C 7.28,-11.935 4.202,-5.207 0,0 m 0.078,0.065 c 2.5,-3.037 4.685,-6.37 6.183,-10.064 1.237,-3.406 2.846,-8.618 0.307,-11.764 -2.989,-2.481 -8.393,2.116 -10.814,3.95 -6.016,5.108 -11.448,11.024 -15.288,17.973 -2.316,4.065 -5.597,12.78 2.583,11.34 6.88,-1.411 12.554,-6.25 17.029,-11.435"
       style="fill:#000000;fill-opacity:1;fill-rule:nonzero;stroke:none"
       transform="matrix(1.3333333,0,0,-1.3333333,553.43533,286.21973)"
       clip-path="url(#clipPath2614)" />
    <path
       id="path2615"
       d="m 0,0 c 1.714,-18.898 3.426,-37.977 0.998,-56.796 -1.176,-9.115 -3.321,-18.103 -6.387,-26.766 -1.34,-3.787 -3.052,-7.756 -6.441,-9.912 -5.088,-3.236 -12.197,-0.976 -16.304,3.439 -4.698,5.048 -6.424,12.275 -6.307,19.17 0.117,6.895 1.876,13.639 3.302,20.386 4.139,19.572 5.535,39.722 4.134,59.678 -0.163,2.316 2.367,4.131 4.531,4.973 2.165,0.843 4.579,0.854 6.866,0.454 C -8.259,13.339 -0.674,7.43 0,0"
       style="fill:#49444c;fill-opacity:1;fill-rule:nonzero;stroke:none"
       transform="matrix(1.3333333,0,0,-1.3333333,595.928,298.8884)"
       clip-path="url(#clipPath2616)" />
    <path
       id="path2617"
       d="m 0,0 c -0.956,8.011 -8.859,13.565 -16.443,14.528 -3.634,0.478 -8.222,-0.616 -9.926,-4.087 -0.401,-0.923 -0.013,-2.735 -0.008,-3.75 1.242,-18.441 -0.105,-37.048 -3.816,-55.148 -1.025,-5.183 -2.393,-10.274 -3.196,-15.456 -1.238,-7.67 -1.022,-16.004 3.093,-22.806 3.643,-6.57 13.451,-11.24 19.755,-5.582 3.855,3.644 5.043,9.139 6.647,14.019 1.494,5.04 2.688,10.166 3.57,15.343 C 3.244,-42.155 1.87,-20.899 0,0 m 0.101,0.009 c 2.622,-26.102 5.082,-53.127 -3.456,-78.457 -1.732,-4.923 -3.002,-10.413 -6.951,-14.114 -4.09,-3.773 -10.53,-3.029 -14.898,-0.122 -9.21,6.183 -10.51,18.762 -8.955,28.885 0.735,5.25 2.03,10.375 3.03,15.53 3.562,18.054 4.83,36.537 3.909,54.911 0.007,1.112 -0.382,2.997 0.135,4.082 1.949,3.813 6.799,4.838 10.701,4.267 C -8.736,13.802 -0.81,8.124 0.101,0.009"
       style="fill:#000000;fill-opacity:1;fill-rule:nonzero;stroke:none"
       transform="matrix(1.3333333,0,0,-1.3333333,595.86053,298.89453)"
       clip-path="url(#clipPath2618)" />
    <path
       id="path2619"
       d="m 0,0 c 3.264,4.667 9.822,6.272 15.016,4.117 3.958,-1.491 7.076,-4.385 9.761,-7.53 0.867,-1.059 1.726,-2.117 2.534,-3.218 l -2.898,2.88 C 17.813,3.295 7.901,7.896 0,0"
       style="fill:#000000;fill-opacity:1;fill-rule:nonzero;stroke:none"
       transform="matrix(1.3333333,0,0,-1.3333333,560.48613,305.45213)"
       clip-path="url(#clipPath2620)" />
    <path
       id="path2621"
       d="m 0,0 c 6.955,7.971 20.193,7.599 26.837,-0.584 0.908,-1.115 1.713,-2.312 2.3,-3.611 -0.786,1.184 -1.658,2.299 -2.666,3.276 C 19.523,6.378 7.482,6.648 0,0"
       style="fill:#000000;fill-opacity:1;fill-rule:nonzero;stroke:none"
       transform="matrix(1.3333333,0,0,-1.3333333,559.0116,330.00947)"
       clip-path="url(#clipPath2622)" />
    <path
       id="path2623"
       d="m 0,0 c 9.021,7.297 23.092,4.52 28.83,-5.523 0.779,-1.365 1.431,-2.804 1.833,-4.31 -0.619,1.428 -1.349,2.795 -2.251,4.041 C 22.23,3.426 9.317,5.902 0,0"
       style="fill:#000000;fill-opacity:1;fill-rule:nonzero;stroke:none"
       transform="matrix(1.3333333,0,0,-1.3333333,556.72573,354.14613)"
       clip-path="url(#clipPath2624)" />
    <path
       id="path2625"
       d="m 0,0 c 3.036,-5.179 5.986,-10.471 7.761,-16.206 1.776,-5.734 2.316,-12.002 0.504,-17.725 -1.477,-4.667 -4.426,-8.73 -7.663,-12.402 -5.895,-6.684 -12.917,-12.374 -20.678,-16.754 -1.287,-0.727 -3.197,-1.287 -4.005,-0.05 -0.397,0.609 -0.305,1.402 -0.197,2.121 1.232,8.234 3.942,15.511 5.174,23.746 -4.882,4.826 -11.242,10.609 -16.124,15.435"
       style="fill:#413d6a;fill-opacity:1;fill-rule:nonzero;stroke:none"
       transform="matrix(1.3333333,0,0,-1.3333333,615.99893,547.82213)"
       clip-path="url(#clipPath2626)" />
    <path
       id="path2627"
       d="m 0,0 c 6.002,-9.358 11.707,-20.506 9.17,-31.951 -1.561,-6.744 -6.22,-12.173 -10.841,-17.064 -3.129,-3.264 -6.495,-6.308 -10.096,-9.06 -1.799,-1.378 -3.661,-2.676 -5.583,-3.881 -1.492,-0.861 -2.905,-2.016 -4.666,-2.346 -4.471,-0.58 -2.438,4.81 -2.105,7.304 1.324,6.632 3.452,13.113 4.514,19.771 l 0.133,-0.399 c -5.324,5.197 -10.614,10.427 -15.834,15.73 5.548,-4.603 11.038,-10.092 16.486,-15.07 0.114,-0.106 0.157,-0.256 0.133,-0.399 -0.931,-6.753 -3.027,-13.207 -4.419,-19.84 -0.234,-1.097 -0.445,-2.198 -0.625,-3.304 -0.201,-1.107 -0.406,-2.237 0.288,-2.684 0.651,-0.459 1.836,-0.153 2.755,0.29 10.653,5.943 20.884,14.032 26.863,24.846 4.236,8.077 3.045,17.707 -0.31,25.889 C 4.331,-7.996 1.762,-3.895 0,0"
       style="fill:#000000;fill-opacity:1;fill-rule:nonzero;stroke:none"
       transform="matrix(1.3333333,0,0,-1.3333333,616.05707,547.78813)"
       clip-path="url(#clipPath2628)" />
    <path
       id="path2629"
       d="M 0,0 C 16.709,-12.503 15.209,-7.799 7.538,-27.122 6.239,-30.149 4.391,-34.484 3,-37.427 c 1.02,3.069 2.664,7.515 3.814,10.595 C 14.089,-6.79 15.595,-14.075 0,0"
       style="fill:#000000;fill-opacity:1;fill-rule:nonzero;stroke:none"
       transform="matrix(1.3333333,0,0,-1.3333333,580.62813,581.5244)"
       clip-path="url(#clipPath2630)" />
    <path
       id="path2631"
       d="m 0,0 0.002,0.001 c 0,0 0.009,0.06 0.024,0.167 0.001,0.007 0.002,0.015 0.003,0.022 0.423,3.01 5.783,42.85 -0.248,89.648 -0.12,0.934 -0.279,1.84 -0.472,2.72 -1.497,10.24 -10.38,21.529 -23.815,28.744 -16.73,8.985 -34.827,8.596 -43.024,-0.263 -0.481,-0.037 -41.884,-55.147 -43.381,-80.378 -0.026,-0.437 -0.029,-0.87 -0.015,-1.299 -3.379,-19.119 6.254,-41.978 26.166,-57.586 26.404,-20.695 60.877,-20.8 76.998,-0.232 C -3.517,-13.042 -0.97,-6.733 0,0"
       style="fill:#b4abba;fill-opacity:1;fill-rule:nonzero;stroke:none"
       transform="matrix(1.3333333,0,0,-1.3333333,618.14547,538.78147)"
       clip-path="url(#clipPath2632)" />
    <path
       id="path2633"
       d="m 0,0 c -3.109,-23.613 -24.792,-36.133 -47.37,-33.955 -24.304,2.149 -46.603,17.974 -57.965,39.374 -0.402,0.865 -1.376,2.833 -1.761,3.656 -0.282,0.761 -1.218,2.963 -1.522,3.762 -0.337,0.883 -0.964,3.007 -1.274,3.854 -0.186,0.794 -0.809,3.1 -1.006,3.934 l -0.483,2.665 c -0.956,5.179 -0.882,11.267 -0.05,16.089 0.211,7.966 3.344,15.335 6.481,22.493 3.237,7.102 7.01,13.943 10.992,20.648 7.489,12.545 15.657,24.693 24.436,36.37 0,0 0.895,1.157 0.895,1.157 l 0.457,0.574 c 0.183,0.187 0.239,0.371 0.589,0.602 l -0.1,-0.048 c 5.216,5.496 13.199,7.185 20.522,6.897 14.836,-0.754 29.186,-8.079 38.898,-19.272 2.417,-2.833 4.473,-5.994 5.972,-9.427 1.59,-3.416 2.137,-7.196 2.644,-10.841 C 3.744,59.14 3.934,29.358 0,0 m -0.079,0.064 c 3.301,29.295 3.152,59.093 -0.471,88.355 -0.604,7.387 -3.427,14.299 -8.299,19.888 -9.498,11.1 -23.689,18.457 -38.328,19.303 -7.217,0.337 -15.111,-1.263 -20.279,-6.643 l -0.101,-0.049 -1.709,-2.223 c -8.695,-11.713 -16.803,-23.893 -24.194,-36.468 -3.915,-6.716 -7.624,-13.57 -10.791,-20.67 -3.025,-7.01 -6.065,-14.459 -6.249,-22.147 -1.24,-7.46 -0.543,-15.191 1.584,-22.431 0.252,-0.867 0.999,-2.908 1.266,-3.784 0.331,-0.746 1.191,-2.955 1.511,-3.695 0.391,-0.828 1.349,-2.755 1.746,-3.59 11.229,-21.099 33.164,-36.688 57.094,-39.058 22.329,-2.343 43.736,9.91 47.22,33.212"
       style="fill:#000000;fill-opacity:1;fill-rule:nonzero;stroke:none"
       transform="matrix(1.3333333,0,0,-1.3333333,618.19773,538.82453)"
       clip-path="url(#clipPath2634)" />
    <path
       id="path2635"
       d="m 0,0 c -13.826,22.571 -16.162,47.461 -7.255,62.114 l -5.867,-0.206 C -23.155,47.5 -21.153,21.653 -6.843,-1.708 9.237,-27.957 35.171,-41.787 53.186,-34.571 35.893,-36.556 14.137,-23.078 0,0"
       style="fill:#413d6a;fill-opacity:1;fill-rule:nonzero;stroke:none"
       transform="matrix(1.3333333,0,0,-1.3333333,507.27373,535.9536)"
       clip-path="url(#clipPath2636)" />
    <path
       id="path2637"
       d="m 0,0 c 11.175,-17.806 30.75,-35.695 53.084,-34.082 0.287,0.035 0.548,-0.175 0.577,-0.462 0.025,-0.236 -0.114,-0.453 -0.325,-0.536 -22.768,-8.375 -47.196,12.378 -58.733,30.469 -11.928,18.387 -20.734,46.741 -8.108,66.728 0.076,0.113 0.198,0.175 0.325,0.177 l 5.867,0.224 C -6.976,62.534 -6.75,62.147 -6.93,61.863 -17.521,42.698 -10.647,17.738 0,0 m -0.086,-0.053 c -8.366,13.939 -14.23,30.268 -12.564,46.726 0.578,5.459 2.143,10.878 4.983,15.638 l 0.384,-0.655 -5.868,-0.187 0.324,0.177 c -6.649,-9.738 -7.373,-22.341 -5.391,-33.693 4.292,-22.878 18.359,-44.227 38.09,-56.633 9.711,-5.918 22.064,-9.738 33.078,-5.436 0,0 0.252,-0.998 0.252,-0.998 -5.631,-0.57 -11.313,0.387 -16.565,2.301 -15.798,5.866 -27.959,18.732 -36.723,32.76"
       style="fill:#000000;fill-opacity:1;fill-rule:nonzero;stroke:none"
       transform="matrix(1.3333333,0,0,-1.3333333,507.3312,535.91827)"
       clip-path="url(#clipPath2638)" />
    <path
       id="path2639"
       d="m 0,0 c 2.259,-11.568 -1.801,-22.096 -9.067,-23.515 -7.267,-1.419 -14.988,6.809 -17.247,18.377 -2.259,11.568 1.8,22.096 9.067,23.515 C -9.981,19.796 -2.259,11.568 0,0"
       style="fill:#272447;fill-opacity:1;fill-rule:nonzero;stroke:none"
       transform="matrix(1.3333333,0,0,-1.3333333,596.89147,499.0644)"
       clip-path="url(#clipPath2640)" />
    <path
       id="path2641"
       d="m 0,0 c -1.405,6.594 -4.798,13.299 -10.78,16.717 -6.973,3.88 -12.905,-1.519 -14.677,-8.282 -2.811,-10.346 0.127,-24.707 9.924,-30.447 7.073,-3.826 13.024,1.647 14.928,8.415 C 0.762,-9.249 0.842,-4.511 0,0 m 0.099,0.02 c 0.808,-4.521 1.073,-9.243 -0.092,-13.791 -1.655,-7.449 -8.387,-13.147 -15.816,-8.733 -9.417,6.082 -13.348,20.659 -10.567,31.199 1.191,4.518 4.153,9.215 9.078,10.205 10.28,1.243 15.74,-10.425 17.397,-18.88"
       style="fill:#000000;fill-opacity:1;fill-rule:nonzero;stroke:none"
       transform="matrix(1.3333333,0,0,-1.3333333,596.82533,499.0772)"
       clip-path="url(#clipPath2642)" />
    <path
       id="path2643"
       d="m 0,0 c 1.411,-7.225 -1.125,-13.801 -5.663,-14.687 -4.539,-0.886 -9.361,4.253 -10.772,11.478 -1.411,7.225 1.125,13.801 5.663,14.687 C -6.234,12.364 -1.411,7.225 0,0"
       style="fill:#ff522a;fill-opacity:1;fill-rule:nonzero;stroke:none"
       transform="matrix(1.3333333,0,0,-1.3333333,583.79533,502.16667)"
       clip-path="url(#clipPath2644)" />
    <path
       id="path2645"
       d="M 0,0 C -1.384,8.529 -11.661,17.108 -15.709,5.223 -17.455,-1.288 -15.862,-10.04 -9.631,-13.652 -1.734,-17.309 1.455,-5.89 0,0 m 0.1,0.019 c 0.734,-4.19 0.911,-9.079 -1.808,-12.69 -1.856,-2.598 -5.567,-3.229 -8.198,-1.473 -7.579,4.429 -11.192,23.104 -0.92,26.162 C -4.254,12.821 -0.931,5.345 0.1,0.019"
       style="fill:#000000;fill-opacity:1;fill-rule:nonzero;stroke:none"
       transform="matrix(1.3333333,0,0,-1.3333333,583.72907,502.17933)"
       clip-path="url(#clipPath2646)" />
    <path
       id="path2647"
       d="m 0,0 c -10.691,0.225 -18.077,-0.597 -28.321,-3.662 -3.888,-1.163 -7.826,-2.628 -10.781,-5.41 -3.483,-3.28 -5.201,-8.028 -6.12,-12.724 -2.41,-12.311 0.052,-25.508 6.739,-36.122 3.149,-4.708 14.69,25.637 15.348,25.95 1.051,0.498 2.269,-0.1 3.274,-0.685 8.983,-5.229 11.179,-6.594 20.162,-11.822"
       style="fill:#413d6a;fill-opacity:1;fill-rule:nonzero;stroke:none"
       transform="matrix(1.3333333,0,0,-1.3333333,490.07467,459.2524)"
       clip-path="url(#clipPath2648)" />
    <path
       id="path2649"
       d="m 0,0 c -9.461,0.048 -18.853,-1.089 -27.869,-3.944 -5.973,-1.632 -11.978,-4.46 -14.688,-10.366 -5.858,-12.884 -3.767,-28.558 2.944,-40.72 0.453,-0.859 0.994,-1.678 1.484,-2.514 0.245,-0.378 0.413,-0.442 0.882,-0.192 2.35,1.868 3.634,4.948 5.087,7.544 1.422,2.793 2.768,5.634 4.057,8.503 1.523,3.271 2.808,6.649 4.463,9.877 0.08,0.115 0.043,0.097 0.197,0.242 1.121,0.687 2.617,0.03 3.567,-0.532 l 4.055,-2.442 c 5.291,-3.301 11.122,-6.469 16.097,-9.924 -5.523,3.038 -10.995,6.163 -16.468,9.288 l -4.102,2.334 c -0.866,0.449 -1.74,0.888 -2.607,0.52 -0.016,-0.002 -0.06,-0.033 0.038,0.024 0.098,0.097 0.031,0.026 0.024,0.004 -2.783,-6.115 -5.25,-12.41 -8.38,-18.381 -1.609,-2.78 -2.892,-5.909 -5.556,-7.889 -0.692,-0.475 -1.763,-0.268 -2.142,0.515 0,0 -0.304,0.515 -0.304,0.515 -1.239,2.039 -2.297,4.186 -3.205,6.391 -4.678,11.642 -5.467,25.378 -0.634,37.083 2.58,6.167 8.786,9.369 14.938,10.974 C -19.114,-0.388 -9.198,0.891 0,0"
       style="fill:#000000;fill-opacity:1;fill-rule:nonzero;stroke:none"
       transform="matrix(1.3333333,0,0,-1.3333333,490.07347,459.32)"
       clip-path="url(#clipPath2650)" />
    <path
       id="path2651"
       d="m 0,0 c -8.846,3.97 -17.438,8.475 -25.854,13.284 0,0 0.375,0.092 0.375,0.092 -1.187,-1.63 -2.016,-3.569 -3.27,-5.171 1.05,1.765 1.654,3.727 2.791,5.503 0.082,0.128 0.248,0.165 0.376,0.092 C -16.855,9.583 -8.279,5.048 0,0"
       style="fill:#000000;fill-opacity:1;fill-rule:nonzero;stroke:none"
       transform="matrix(1.3333333,0,0,-1.3333333,496.604,514.62853)"
       clip-path="url(#clipPath2652)" />
    <path
       id="path2653"
       d="M 0,0 C -11.367,-14.501 -33.142,-16.412 -48.637,-4.266 -64.132,7.879 -67.479,29.48 -56.112,43.982 -44.746,58.483 -22.97,60.393 -7.475,48.248 8.02,36.103 11.366,14.502 0,0"
       style="fill:#b4abba;fill-opacity:1;fill-rule:nonzero;stroke:none"
       transform="matrix(1.3333333,0,0,-1.3333333,621.32173,293.26493)"
       clip-path="url(#clipPath2654)" />
    <path
       id="path2655"
       d="M 0,0 C 18.142,23.961 -4.054,57.775 -32.697,55.623 -51.744,54.572 -65.654,37.256 -62.12,18.412 -57.333,-9.873 -18.831,-23.35 0,0 M 0.08,-0.062 C -19.519,-24.17 -57.516,-11.219 -62.467,18.353 -65.889,37.471 -52.24,55.313 -32.764,56.575 -2.973,58.836 18.873,24.583 0.08,-0.062"
       style="fill:#000000;fill-opacity:1;fill-rule:nonzero;stroke:none"
       transform="matrix(1.3333333,0,0,-1.3333333,621.26867,293.22333)"
       clip-path="url(#clipPath2656)" />
    <path
       id="path2657"
       d="m 0,0 c 1.191,-1.644 2.787,-3.318 4.817,-3.346 1.365,-0.018 2.651,0.754 3.536,1.793 0.885,1.04 1.424,2.326 1.878,3.613 4.443,12.586 1.511,27.485 -7.37,37.448 C 1.115,41.467 0.237,41.365 -1.433,39.482 -2.888,37.84 -3.939,35.859 -4.683,33.805 -8.642,22.88 -6.823,9.415 0,0"
       style="fill:#272447;fill-opacity:1;fill-rule:nonzero;stroke:none"
       transform="matrix(1.3333333,0,0,-1.3333333,613.0856,286.12067)"
       clip-path="url(#clipPath2658)" />
    <path
       id="path2659"
       d="m 0,0 c -4.978,6.885 -7.738,15.525 -7.143,24.058 0.263,5.188 2.395,14.962 7.582,17.278 0.712,0.128 1.337,-0.24 1.764,-0.59 1.208,-1.111 2.134,-2.424 3.074,-3.745 4.826,-6.991 7.51,-15.527 7.421,-24.032 C 12.636,9.763 12.13,6.548 11.13,3.501 10.478,1.467 9.727,-0.674 8.096,-2.158 5.15,-4.858 1.856,-2.844 0,0 m 0.082,0.059 c 1.795,-2.702 5,-4.668 7.708,-1.89 0.721,0.719 1.226,1.632 1.617,2.585 1.435,3.915 2.291,8.063 2.451,12.243 0.625,9.402 -2.586,19.141 -9.037,26.097 -0.579,0.63 -1.369,1.573 -2.234,1.451 -0.761,-0.199 -1.491,-1.12 -2.112,-1.889 C -2.78,37.02 -3.708,35.148 -4.328,33.176 -7.81,22.288 -6.456,9.555 0.082,0.059"
       style="fill:#000000;fill-opacity:1;fill-rule:nonzero;stroke:none"
       transform="matrix(1.3333333,0,0,-1.3333333,613.03107,286.16013)"
       clip-path="url(#clipPath2660)" />
    <path
       id="path2661"
       d="M 0,0 C 0,0 29.163,5.083 29.182,6.124 29.201,7.164 -0.076,21.743 -0.076,21.743 -6.4,22.896 -6.467,1.455 0,0"
       style="fill:#413d6a;fill-opacity:1;fill-rule:nonzero;stroke:none"
       transform="matrix(1.3333333,0,0,-1.3333333,616.76933,277.54253)"
       clip-path="url(#clipPath2662)" />
    <path
       id="path2663"
       d="m 0,0 c -6.098,1.656 -6.524,16.513 -3.256,20.835 0.703,1.04 2.139,1.839 3.42,1.436 C 4.862,19.905 9.533,17.487 14.159,14.98 18.766,12.431 23.389,9.941 27.981,7.345 28.31,7.105 29.11,6.713 29.36,6.353 29.52,6.102 29.269,5.848 29.064,5.768 27.202,4.973 25.264,4.601 23.328,4.089 15.622,2.312 7.849,1.03 0,0 m 0.003,0.101 c 5.113,1.166 10.283,2.19 15.43,3.228 4.479,1.049 9.186,1.493 13.544,2.938 -0.028,0.012 -0.027,-0.196 -0.011,-0.153 -0.006,0.008 -0.02,0.03 -0.044,0.054 -4.637,3.336 -9.992,5.606 -15.087,8.183 0,0 -14.147,6.965 -14.147,6.965 l 0.141,-0.047 C -1.038,21.453 -1.846,20.997 -2.419,20.21 -5.349,16.172 -5.475,2.077 0.003,0.101"
       style="fill:#000000;fill-opacity:1;fill-rule:nonzero;stroke:none"
       transform="matrix(1.3333333,0,0,-1.3333333,616.76747,277.61)"
       clip-path="url(#clipPath2664)" />
    <path
       id="path2665"
       d="m 0,0 c -24.569,-0.694 -46.635,-2.683 -61.941,-5.291 1.518,-5.143 3.299,-10.208 5.335,-15.169 15.047,-1.376 35.154,-1.909 57.22,-1.285 21.879,0.618 41.773,2.263 56.677,4.457 1.555,5.159 3.022,10.344 4.398,15.553 C 46.281,-0.031 24.331,0.687 0,0"
       style="fill:#25257e;fill-opacity:1;fill-rule:nonzero;stroke:none"
       transform="matrix(1.3333333,0,0,-1.3333333,366.5752,201.1396)"
       clip-path="url(#clipPath2666)" />
    <path
       id="path2667"
       d="m 0,0 c 15.437,0.428 30.897,0.666 46.329,-0.09 5.146,-0.248 10.29,-0.621 15.418,-1.183 0.282,-0.027 0.49,-0.28 0.459,-0.562 0.056,-0.067 -4.427,-15.584 -4.401,-15.658 -0.058,-0.207 -0.234,-0.349 -0.435,-0.375 -28.3,-3.938 -56.948,-4.709 -85.483,-4.242 -9.516,0.165 -19.031,0.505 -28.522,1.265 -0.129,0.01 -0.235,0.094 -0.28,0.207 -2.084,4.953 -3.918,10.016 -5.442,15.173 -0.074,0.247 0.088,0.51 0.344,0.551 5.119,0.888 10.266,1.583 15.427,2.138 C -31.114,-1.086 -15.549,-0.463 0,0 m 0.003,-0.102 c -15.542,-0.46 -31.057,-1.674 -46.493,-3.507 -5.14,-0.633 -10.271,-1.327 -15.377,-2.161 l 0.344,0.551 c 1.511,-5.129 3.241,-10.196 5.229,-15.164 l -0.28,0.206 c 9.456,-0.941 18.96,-1.423 28.467,-1.62 28.496,-0.319 57.088,1.051 85.321,4.988 0,0 -0.434,-0.375 -0.434,-0.375 l 4.411,15.53 0.443,-0.645 C 51.422,-1.205 41.15,-0.606 30.87,-0.236 20.586,0.133 10.29,0.152 0.003,-0.102"
       style="fill:#000000;fill-opacity:1;fill-rule:nonzero;stroke:none"
       transform="matrix(1.3333333,0,0,-1.3333333,366.57347,201.07187)"
       clip-path="url(#clipPath2668)" />
    <path
       id="path2669"
       d="m 0,0 c 0,-11.286 -24.333,-20.436 -54.35,-20.436 -30.017,0 -54.351,9.15 -54.351,20.436 0,11.286 21.776,21.866 51.793,21.866 C -26.891,21.866 0,11.286 0,0"
       style="fill:#413d6a;fill-opacity:1;fill-rule:nonzero;stroke:none"
       transform="matrix(1.3333333,0,0,-1.3333333,438.392,213.02413)"
       clip-path="url(#clipPath2670)" />
    <path
       id="path2671"
       d="m 0,0 c -0.708,9.643 -15.895,14.726 -23.809,17.054 -19.859,5.211 -41.221,5.979 -61.156,0.79 -8.354,-2.411 -22.119,-7.42 -23.373,-17.265 -0.314,-11.836 21.34,-17.187 30.603,-18.81 17.805,-2.833 36.243,-2.391 53.828,1.616 C -15.727,-14.497 -0.681,-9.995 0,0 m 0.101,0 c -0.493,-9.919 -15.794,-14.943 -23.85,-17.232 -20.106,-5.1 -41.573,-4.743 -61.646,0.293 -8.092,2.27 -23.717,7.305 -23.496,17.556 1.12,10.22 15.078,15.63 23.669,18.146 20.069,5.383 41.702,4.712 61.6,-1.068 C -15.767,15.158 -0.445,9.582 0.101,0"
       style="fill:#000000;fill-opacity:1;fill-rule:nonzero;stroke:none"
       transform="matrix(1.3333333,0,0,-1.3333333,438.32467,213.02413)"
       clip-path="url(#clipPath2672)" />
    <path
       id="path2673"
       d="m 0,0 c -12.029,-5.814 -13.317,-20.682 -12.532,-32.515 0,0 0.248,-5.356 0.248,-5.356 -0.292,1.766 -0.517,3.539 -0.744,5.316 C -14.68,-20.674 -12.923,-4.735 0,0"
       style="fill:#000000;fill-opacity:1;fill-rule:nonzero;stroke:none"
       transform="matrix(1.3333333,0,0,-1.3333333,356.12027,183.86947)"
       clip-path="url(#clipPath2674)" />
    <path
       id="path2675"
       d="M 0,0 C -3.229,3.005 -6.578,5.881 -10.037,8.619 -23.283,6.413 -41.075,4.63 -60.962,3.673 l -7.555,-12.505 -39.324,0.32 -4.113,11.826 c -8.538,0.345 -16.135,0.911 -22.447,1.666 -3.243,-3.01 -6.279,-6.242 -9.083,-9.665 -2.351,-2.869 -4.538,-5.873 -6.545,-8.993 2.534,-0.949 6.165,-1.802 10.713,-2.54 15.226,-2.471 40.701,-3.655 69.512,-2.84 10.902,0.308 21.31,0.874 30.854,1.64 22.591,1.812 40.332,4.739 48.3,7.991 C 6.361,-6.161 3.241,-3.016 0,0"
       style="fill:#413d6a;fill-opacity:1;fill-rule:nonzero;stroke:none"
       transform="matrix(1.3333333,0,0,-1.3333333,462.60893,215.36053)"
       clip-path="url(#clipPath2676)" />
    <path
       id="path2677"
       d="m 0,0 c 3.188,-3.062 6.656,-6.169 9.383,-9.534 -6.271,-2.435 -12.929,-3.651 -19.526,-4.831 -19.84,-3.265 -39.944,-4.688 -60.028,-5.267 -23.413,-0.507 -47.021,-0.457 -70.207,3.205 -3.301,0.598 -6.606,1.27 -9.786,2.443 -0.148,0.055 -0.225,0.219 -0.169,0.368 4.432,6.872 9.762,13.162 15.764,18.704 3.743,-0.258 7.566,-0.817 11.352,-1.033 3.741,-0.274 7.488,-0.44 11.236,-0.581 0.083,-0.003 0.152,-0.059 0.178,-0.132 l 4.167,-11.808 -0.237,0.17 39.325,-0.152 -0.363,-0.204 c 2.498,4.181 4.996,8.361 7.544,12.512 0.076,0.126 0.213,0.2 0.35,0.209 17.025,0.84 34.082,1.92 50.931,4.602 C -6.579,5.991 -3.25,3.003 0,0 M -0.069,-0.074 C -3.182,2.875 -6.954,5.938 -10.056,8.493 -26.901,5.705 -43.928,4.081 -60.975,3.203 l 0.35,0.208 c -2.489,-4.186 -5.028,-8.341 -7.566,-12.498 -0.078,-0.131 -0.222,-0.203 -0.364,-0.203 -0.324,0.206 -39.391,0.134 -39.559,0.657 -10e-4,0 -4.06,11.845 -4.06,11.845 l 0.177,-0.131 c -3.751,0.164 -7.497,0.398 -11.242,0.66 -3.519,0.308 -8.182,0.507 -11.062,1.057 -5.927,-5.545 -11.162,-11.829 -15.521,-18.669 l -0.14,0.425 c 3.119,-1.116 6.414,-1.754 9.698,-2.313 23.165,-3.405 46.702,-3.275 70.064,-2.817 20.045,0.636 40.129,1.732 59.981,4.679 6.582,1.065 13.246,2.143 19.499,4.522 L 9.245,-9.529 C 6.269,-6.255 3.161,-3.1 -0.069,-0.074"
       style="fill:#000000;fill-opacity:1;fill-rule:nonzero;stroke:none"
       transform="matrix(1.3333333,0,0,-1.3333333,462.6548,215.3112)"
       clip-path="url(#clipPath2678)" />
    <path
       id="path2679"
       d="M 0,0 3.083,5.103 C -11.393,8.49 -26.614,8.665 -41.164,5.608 l 1.84,-5.288 z"
       style="fill:#ff442a;fill-opacity:1;fill-rule:nonzero;stroke:none"
       transform="matrix(1.3333333,0,0,-1.3333333,371.25333,227.13667)"
       clip-path="url(#clipPath2680)" />
    <path
       id="path2681"
       d="m 0,0 c -5.576,-0.188 -13.87,-0.242 -19.56,-0.289 l -9.895,0.045 -9.897,0.168 c -0.19,-0.001 -0.356,0.123 -0.412,0.296 l -1.748,5.32 c -0.065,0.178 0.028,0.377 0.21,0.436 C -26.65,8.534 -11.364,9.342 3.119,5.406 3.264,5.375 3.358,5.228 3.318,5.083 2.245,3.334 1.083,1.647 0,0 m -0.049,0.088 c 0.975,1.781 1.917,3.508 2.88,5.197 L 2.998,4.888 c -14.486,2.841 -29.656,4.002 -44.116,0.429 0,0 0.253,0.448 0.253,0.448 l 1.931,-5.257 -0.411,0.295 c 4.872,0.032 14.663,-0.021 19.532,-0.106 5.847,-0.133 13.974,-0.341 19.764,-0.609"
       style="fill:#000000;fill-opacity:1;fill-rule:nonzero;stroke:none"
       transform="matrix(1.3333333,0,0,-1.3333333,371.28627,227.1956)"
       clip-path="url(#clipPath2682)" />
    <path
       id="path2683"
       d="M 0,0 C 0.112,-1.919 0.223,-3.838 0.335,-5.757"
       style="fill:#ffffff;fill-opacity:1;fill-rule:nonzero;stroke:#000000;stroke-width:1.014;stroke-linecap:round;stroke-linejoin:round;stroke-miterlimit:10;stroke-dasharray:none;stroke-opacity:1"
       transform="matrix(1.3333333,0,0,-1.3333333,326.14733,217.9956)"
       clip-path="url(#clipPath2684)" />
    <path
       id="path2685"
       d="M 0,0 C -0.122,-2.408 -0.245,-4.816 -0.367,-7.224"
       style="fill:#ffffff;fill-opacity:1;fill-rule:nonzero;stroke:#000000;stroke-width:1.014;stroke-linecap:round;stroke-linejoin:round;stroke-miterlimit:10;stroke-dasharray:none;stroke-opacity:1"
       transform="matrix(1.3333333,0,0,-1.3333333,339.51813,216.84973)"
       clip-path="url(#clipPath2686)" />
    <path
       id="path2687"
       d="M 0,0 C -0.398,-2.165 -0.797,-4.33 -1.195,-6.495"
       style="fill:#ffffff;fill-opacity:1;fill-rule:nonzero;stroke:#000000;stroke-width:1.014;stroke-linecap:round;stroke-linejoin:round;stroke-miterlimit:10;stroke-dasharray:none;stroke-opacity:1"
       transform="matrix(1.3333333,0,0,-1.3333333,355.55893,217.5056)"
       clip-path="url(#clipPath2688)" />
    <path
       id="path2689"
       d="m 0,0 c -3.73,-2.4 -8.189,-2.398 -10.072,-0.08 -1.813,2.233 0.7,5.684 4.323,8.357 3.624,2.672 8.612,3.907 10.55,1.279 C 6.74,6.927 3.786,2.436 0,0"
       style="fill:#ff442a;fill-opacity:1;fill-rule:nonzero;stroke:none"
       transform="matrix(1.3333333,0,0,-1.3333333,327.7652,207.90653)"
       clip-path="url(#clipPath2690)" />
    <path
       id="path2691"
       d="M 0,0 C 8.26,6.112 5.641,14.223 -4.719,8.582 -7.161,7.125 -11.723,3.47 -9.83,0.316 -7.525,-2.373 -2.816,-1.805 0,0 m 0.055,-0.085 c -2.976,-1.947 -8.057,-3.587 -10.584,-0.072 -1.947,3.446 3.125,7.316 5.511,9.207 2.319,1.606 5.298,2.944 8.213,2.195 C 5.384,10.714 6.492,8.178 5.717,6.16 4.794,3.378 2.359,1.472 0.055,-0.085"
       style="fill:#000000;fill-opacity:1;fill-rule:nonzero;stroke:none"
       transform="matrix(1.3333333,0,0,-1.3333333,327.7284,207.8496)"
       clip-path="url(#clipPath2692)" />
    <path
       id="path2693"
       d="m 0,0 c 0,-4.238 -4.724,-7.673 -10.55,-7.673 -5.827,0 -10.551,3.435 -10.551,7.673 0,4.238 4.724,7.673 10.551,7.673 C -4.724,7.673 0,4.238 0,0"
       style="fill:#ff442a;fill-opacity:1;fill-rule:nonzero;stroke:none"
       transform="matrix(1.3333333,0,0,-1.3333333,381.2708,200.92067)"
       clip-path="url(#clipPath2694)" />
    <path
       id="path2695"
       d="M 0,0 C -0.617,7.442 -11.881,8.663 -17.109,5.416 -21.792,2.74 -22.032,-2.888 -17.274,-5.682 -12.075,-8.851 -0.502,-7.331 0,0 m 0.102,0 c -0.563,-8.199 -11.761,-10.038 -17.551,-5.96 -4.984,3.006 -5.196,9.087 -0.165,12.185 5.873,3.993 17.16,1.91 17.716,-6.225"
       style="fill:#000000;fill-opacity:1;fill-rule:nonzero;stroke:none"
       transform="matrix(1.3333333,0,0,-1.3333333,381.20293,200.92053)"
       clip-path="url(#clipPath2696)" />
    <path
       id="path2697"
       d="m 0,0 c -1.939,2.629 -6.927,1.394 -10.55,-1.279 -0.043,-0.032 -0.085,-0.064 -0.128,-0.096 L -1.11,-6.159 C 0.511,-4.016 1.213,-1.644 0,0"
       style="fill:#25257e;fill-opacity:1;fill-rule:nonzero;stroke:none"
       transform="matrix(1.3333333,0,0,-1.3333333,334.1672,195.16587)"
       clip-path="url(#clipPath2698)" />
    <path
       id="path2699"
       d="m 0,0 c 1.422,-1.932 0.63,-4.74 -0.731,-6.507 -0.154,-0.209 -0.434,-0.268 -0.656,-0.153 -3.245,1.494 -6.261,3.437 -9.401,5.118 -0.075,0.036 -0.107,0.127 -0.07,0.203 0.783,0.632 1.639,1.201 2.507,1.747 C -5.916,2.036 -1.995,2.567 0,0 m -0.082,-0.06 c -2.02,2.341 -5.551,0.66 -7.998,-0.08 -0.899,-0.35 -1.77,-0.802 -2.547,-1.388 l -0.023,0.26 c 3.229,-1.503 6.591,-2.749 9.734,-4.449 0.001,0 -0.656,-0.154 -0.656,-0.154 1.179,1.599 2.834,3.851 1.49,5.811"
       style="fill:#000000;fill-opacity:1;fill-rule:nonzero;stroke:none"
       transform="matrix(1.3333333,0,0,-1.3333333,334.22187,195.1256)"
       clip-path="url(#clipPath2700)" />
    <path
       id="path2701"
       d="m 0,0 c -5.827,0 -10.55,-3.435 -10.55,-7.673 0,-1.019 0.275,-1.99 0.771,-2.879 L 9.989,-5.203 C 8.575,-2.178 4.638,0 0,0"
       style="fill:#25257e;fill-opacity:1;fill-rule:nonzero;stroke:none"
       transform="matrix(1.3333333,0,0,-1.3333333,367.20373,190.69)"
       clip-path="url(#clipPath2702)" />
    <path
       id="path2703"
       d="M 0,0 C 3.979,-0.004 8.528,-1.135 10.471,-5.028 10.599,-5.289 10.49,-5.604 10.23,-5.731 5.454,-7.1 0.085,-8.346 -4.788,-9.449 c -1.654,-0.419 -3.311,-0.829 -4.94,-1.344 -0.082,-0.026 -0.169,0.008 -0.213,0.077 -0.81,1.268 -1.136,2.877 -0.827,4.411 C -9.732,-1.556 -4.269,0.048 0,0 m 0,-0.101 c -5.263,0.12 -12.287,-4.646 -9.607,-10.406 0,0 -0.224,0.094 -0.224,0.094 1.667,0.377 3.304,0.858 4.944,1.33 4.732,1.506 9.959,3.095 14.737,4.343 L 9.506,-5.48 C 7.834,-2.099 3.734,-0.116 0,-0.101"
       style="fill:#000000;fill-opacity:1;fill-rule:nonzero;stroke:none"
       transform="matrix(1.3333333,0,0,-1.3333333,367.2036,190.6224)"
       clip-path="url(#clipPath2704)" />
  </g>
</svg>
