<?xml version="1.0" encoding="UTF-8" standalone="no"?>
<!-- Created with Inkscape (http://www.inkscape.org/) -->

<svg
   version="1.1"
   id="svg1"
   width="373.92981"
   height="416.12228"
   viewBox="0 0 373.92981 416.12228"
   xmlns="http://www.w3.org/2000/svg"
   xmlns:svg="http://www.w3.org/2000/svg">
  <defs
     id="defs1">
    <clipPath
       clipPathUnits="userSpaceOnUse"
       id="clipPath2924">
      <path
         d="M 0,841.89 H 688.077 V 0 H 0 Z"
         transform="translate(-172.83531,-501.13481)"
         id="path2924" />
    </clipPath>
    <clipPath
       clipPathUnits="userSpaceOnUse"
       id="clipPath2926">
      <path
         d="M 0,841.89 H 688.077 V 0 H 0 Z"
         transform="translate(-223.97181,-341.45121)"
         id="path2926" />
    </clipPath>
    <clipPath
       clipPathUnits="userSpaceOnUse"
       id="clipPath2928">
      <path
         d="M 0,841.89 H 688.077 V 0 H 0 Z"
         transform="translate(-227.58661,-277.23031)"
         id="path2928" />
    </clipPath>
    <clipPath
       clipPathUnits="userSpaceOnUse"
       id="clipPath2930">
      <path
         d="M 0,841.89 H 688.077 V 0 H 0 Z"
         transform="translate(-206.8633,-418.18421)"
         id="path2930" />
    </clipPath>
    <clipPath
       clipPathUnits="userSpaceOnUse"
       id="clipPath2932">
      <path
         d="M 0,841.89 H 688.077 V 0 H 0 Z"
         transform="translate(-243.0301,-341.28221)"
         id="path2932" />
    </clipPath>
    <clipPath
       clipPathUnits="userSpaceOnUse"
       id="clipPath2934">
      <path
         d="M 0,841.89 H 688.077 V 0 H 0 Z"
         transform="translate(-257.93271,-437.64181)"
         id="path2934" />
    </clipPath>
    <clipPath
       clipPathUnits="userSpaceOnUse"
       id="clipPath2936">
      <path
         d="M 0,841.89 H 688.077 V 0 H 0 Z"
         transform="translate(-291.47241,-435.98541)"
         id="path2936" />
    </clipPath>
    <clipPath
       clipPathUnits="userSpaceOnUse"
       id="clipPath2938">
      <path
         d="M 0,841.89 H 688.077 V 0 H 0 Z"
         transform="translate(-323.94411,-460.01761)"
         id="path2938" />
    </clipPath>
    <clipPath
       clipPathUnits="userSpaceOnUse"
       id="clipPath2940">
      <path
         d="M 0,841.89 H 688.077 V 0 H 0 Z"
         transform="translate(-144.5649,-369.48361)"
         id="path2940" />
    </clipPath>
    <clipPath
       clipPathUnits="userSpaceOnUse"
       id="clipPath2942">
      <path
         d="M 0,841.89 H 688.077 V 0 H 0 Z"
         transform="translate(-109.7928,-282.0142)"
         id="path2942" />
    </clipPath>
    <clipPath
       clipPathUnits="userSpaceOnUse"
       id="clipPath2944">
      <path
         d="M 0,841.89 H 688.077 V 0 H 0 Z"
         transform="translate(-137.4486,-393.50931)"
         id="path2944" />
    </clipPath>
    <clipPath
       clipPathUnits="userSpaceOnUse"
       id="clipPath2946">
      <path
         d="M 0,841.89 H 688.077 V 0 H 0 Z"
         transform="translate(-143.5291,-464.60551)"
         id="path2946" />
    </clipPath>
    <clipPath
       clipPathUnits="userSpaceOnUse"
       id="clipPath2948">
      <path
         d="M 0,841.89 H 688.077 V 0 H 0 Z"
         transform="translate(-189.2715,-430.29921)"
         id="path2948" />
    </clipPath>
    <clipPath
       clipPathUnits="userSpaceOnUse"
       id="clipPath2950">
      <path
         d="M 0,841.89 H 688.077 V 0 H 0 Z"
         transform="translate(-171.5526,-367.29241)"
         id="path2950" />
    </clipPath>
    <clipPath
       clipPathUnits="userSpaceOnUse"
       id="clipPath2952">
      <path
         d="M 0,841.89 H 688.077 V 0 H 0 Z"
         transform="translate(-171.68091,-367.24661)"
         id="path2952" />
    </clipPath>
    <clipPath
       clipPathUnits="userSpaceOnUse"
       id="clipPath2954">
      <path
         d="M 0,841.89 H 688.077 V 0 H 0 Z"
         transform="translate(-142.48281,-272.46501)"
         id="path2954" />
    </clipPath>
    <clipPath
       clipPathUnits="userSpaceOnUse"
       id="clipPath2956">
      <path
         d="M 0,841.89 H 688.077 V 0 H 0 Z"
         transform="translate(-268.85191,-335.18901)"
         id="path2956" />
    </clipPath>
    <clipPath
       clipPathUnits="userSpaceOnUse"
       id="clipPath2958">
      <path
         d="M 0,841.89 H 688.077 V 0 H 0 Z"
         transform="translate(-277.64461,-268.6105)"
         id="path2958" />
    </clipPath>
    <clipPath
       clipPathUnits="userSpaceOnUse"
       id="clipPath2960">
      <path
         d="M 0,841.89 H 688.077 V 0 H 0 Z"
         transform="translate(-251.9188,-426.00321)"
         id="path2960" />
    </clipPath>
    <clipPath
       clipPathUnits="userSpaceOnUse"
       id="clipPath2962">
      <path
         d="M 0,841.89 H 688.077 V 0 H 0 Z"
         transform="translate(-273.79281,-432.37941)"
         id="path2962" />
    </clipPath>
    <clipPath
       clipPathUnits="userSpaceOnUse"
       id="clipPath2964">
      <path
         d="M 0,841.89 H 688.077 V 0 H 0 Z"
         transform="translate(-280.30591,-338.34911)"
         id="path2964" />
    </clipPath>
    <clipPath
       clipPathUnits="userSpaceOnUse"
       id="clipPath2966">
      <path
         d="M 0,841.89 H 688.077 V 0 H 0 Z"
         transform="translate(-130.8472,-461.70141)"
         id="path2966" />
    </clipPath>
    <clipPath
       clipPathUnits="userSpaceOnUse"
       id="clipPath2968">
      <path
         d="M 0,841.89 H 688.077 V 0 H 0 Z"
         transform="translate(-122.3395,-453.02491)"
         id="path2968" />
    </clipPath>
    <clipPath
       clipPathUnits="userSpaceOnUse"
       id="clipPath2970">
      <path
         d="m 112.101,448.572 c 0.202,-10.983 4.38,-20.282 6.67,-20.551 v 0 c 2.292,-0.269 3.436,4.716 3.841,8.202 v 0 c 0.405,3.485 -0.032,12.548 -0.272,16.802 v 0 c -0.169,2.966 -1.143,7.742 -3.569,8.415 v 0 c -0.234,0.065 -0.488,0.1 -0.754,0.1 v 0 c -2.488,0 -6.099,-3.049 -5.916,-12.968"
         transform="translate(-112.6998,-455.23531)"
         id="path2970" />
    </clipPath>
    <clipPath
       clipPathUnits="userSpaceOnUse"
       id="clipPath2972">
      <path
         d="M 0,841.89 H 688.077 V 0 H 0 Z"
         transform="translate(-122.3395,-453.02491)"
         id="path2972" />
    </clipPath>
    <clipPath
       clipPathUnits="userSpaceOnUse"
       id="clipPath2974">
      <path
         d="M 0,841.89 H 688.077 V 0 H 0 Z"
         transform="translate(-173.1924,-508.22251)"
         id="path2974" />
    </clipPath>
    <clipPath
       clipPathUnits="userSpaceOnUse"
       id="clipPath2976">
      <path
         d="M 0,841.89 H 688.077 V 0 H 0 Z"
         transform="translate(-136.68501,-543.54862)"
         id="path2976" />
    </clipPath>
    <clipPath
       clipPathUnits="userSpaceOnUse"
       id="clipPath2978">
      <path
         d="M 0,841.89 H 688.077 V 0 H 0 Z"
         transform="translate(-154.1673,-513.72761)"
         id="path2978" />
    </clipPath>
    <clipPath
       clipPathUnits="userSpaceOnUse"
       id="clipPath2980">
      <path
         d="M 0,841.89 H 688.077 V 0 H 0 Z"
         transform="translate(-109.6149,-517.74281)"
         id="path2980" />
    </clipPath>
    <clipPath
       clipPathUnits="userSpaceOnUse"
       id="clipPath2982">
      <path
         d="M 0,841.89 H 688.077 V 0 H 0 Z"
         transform="translate(-132.6814,-528.33502)"
         id="path2982" />
    </clipPath>
    <clipPath
       clipPathUnits="userSpaceOnUse"
       id="clipPath2984">
      <path
         d="M 0,841.89 H 688.077 V 0 H 0 Z"
         transform="translate(-109.8025,-430.93311)"
         id="path2984" />
    </clipPath>
    <clipPath
       clipPathUnits="userSpaceOnUse"
       id="clipPath2986">
      <path
         d="M 0,841.89 H 688.077 V 0 H 0 Z"
         transform="translate(-98.730205,-432.10511)"
         id="path2986" />
    </clipPath>
    <clipPath
       clipPathUnits="userSpaceOnUse"
       id="clipPath2988">
      <path
         d="M 0,841.89 H 688.077 V 0 H 0 Z"
         transform="translate(-80.537605,-464.34611)"
         id="path2988" />
    </clipPath>
    <clipPath
       clipPathUnits="userSpaceOnUse"
       id="clipPath2990">
      <path
         d="M 0,841.89 H 688.077 V 0 H 0 Z"
         transform="translate(-88.409102,-486.59481)"
         id="path2990" />
    </clipPath>
    <clipPath
       clipPathUnits="userSpaceOnUse"
       id="clipPath2992">
      <path
         d="M 0,841.89 H 688.077 V 0 H 0 Z"
         transform="translate(-123.568,-453.91611)"
         id="path2992" />
    </clipPath>
    <clipPath
       clipPathUnits="userSpaceOnUse"
       id="clipPath2994">
      <path
         d="M 0,841.89 H 688.077 V 0 H 0 Z"
         transform="translate(-78.089604,-456.71781)"
         id="path2994" />
    </clipPath>
    <clipPath
       clipPathUnits="userSpaceOnUse"
       id="clipPath2996">
      <path
         d="M 0,841.89 H 688.077 V 0 H 0 Z"
         transform="translate(-94.294705,-457.55521)"
         id="path2996" />
    </clipPath>
    <clipPath
       clipPathUnits="userSpaceOnUse"
       id="clipPath2998">
      <path
         d="M 0,841.89 H 688.077 V 0 H 0 Z"
         transform="translate(-97.241005,-458.16311)"
         id="path2998" />
    </clipPath>
    <clipPath
       clipPathUnits="userSpaceOnUse"
       id="clipPath3000">
      <path
         d="M 0,841.89 H 688.077 V 0 H 0 Z"
         transform="translate(-91.6726,-462.26321)"
         id="path3000" />
    </clipPath>
    <clipPath
       clipPathUnits="userSpaceOnUse"
       id="clipPath3002">
      <path
         d="M 0,841.89 H 688.077 V 0 H 0 Z"
         transform="translate(-122.0662,-455.89061)"
         id="path3002" />
    </clipPath>
    <clipPath
       clipPathUnits="userSpaceOnUse"
       id="clipPath3004">
      <path
         d="M 0,841.89 H 688.077 V 0 H 0 Z"
         transform="translate(-128.9733,-534.28091)"
         id="path3004" />
    </clipPath>
    <clipPath
       clipPathUnits="userSpaceOnUse"
       id="clipPath3006">
      <path
         d="M 0,841.89 H 688.077 V 0 H 0 Z"
         transform="translate(-113.6848,-560.30371)"
         id="path3006" />
    </clipPath>
    <clipPath
       clipPathUnits="userSpaceOnUse"
       id="clipPath3008">
      <path
         d="M 0,841.89 H 688.077 V 0 H 0 Z"
         transform="translate(-110.1901,-518.35421)"
         id="path3008" />
    </clipPath>
    <clipPath
       clipPathUnits="userSpaceOnUse"
       id="clipPath3010">
      <path
         d="M 0,841.89 H 688.077 V 0 H 0 Z"
         transform="translate(-106.9575,-528.98981)"
         id="path3010" />
    </clipPath>
    <clipPath
       clipPathUnits="userSpaceOnUse"
       id="clipPath3012">
      <path
         d="M 0,841.89 H 688.077 V 0 H 0 Z"
         transform="translate(-106.8709,-529.31741)"
         id="path3012" />
    </clipPath>
    <clipPath
       clipPathUnits="userSpaceOnUse"
       id="clipPath3014">
      <path
         d="M 0,841.89 H 688.077 V 0 H 0 Z"
         transform="translate(-149.4055,-566.43172)"
         id="path3014" />
    </clipPath>
    <clipPath
       clipPathUnits="userSpaceOnUse"
       id="clipPath3016">
      <path
         d="M 0,841.89 H 688.077 V 0 H 0 Z"
         transform="translate(-151.1448,-562.13281)"
         id="path3016" />
    </clipPath>
    <clipPath
       clipPathUnits="userSpaceOnUse"
       id="clipPath3018">
      <path
         d="M 0,841.89 H 688.077 V 0 H 0 Z"
         transform="translate(-151.08621,-560.27542)"
         id="path3018" />
    </clipPath>
    <clipPath
       clipPathUnits="userSpaceOnUse"
       id="clipPath3020">
      <path
         d="M 0,841.89 H 688.077 V 0 H 0 Z"
         transform="translate(-129.07521,-522.30791)"
         id="path3020" />
    </clipPath>
    <clipPath
       clipPathUnits="userSpaceOnUse"
       id="clipPath3022">
      <path
         d="M 0,841.89 H 688.077 V 0 H 0 Z"
         transform="translate(-128.8831,-522.32231)"
         id="path3022" />
    </clipPath>
    <clipPath
       clipPathUnits="userSpaceOnUse"
       id="clipPath3024">
      <path
         d="M 0,841.89 H 688.077 V 0 H 0 Z"
         transform="translate(-136.78701,-513.43012)"
         id="path3024" />
    </clipPath>
    <clipPath
       clipPathUnits="userSpaceOnUse"
       id="clipPath3026">
      <path
         d="m 132.101,521.175 c -0.26,-2.408 2.343,-5.727 4.686,-7.745 v 0 c 5.922,1.497 10.413,1.627 10.413,1.627 v 0 c 0,0 1.171,2.798 0,6.787 v 0 c -1.171,3.988 -6.247,6.946 -8.46,7.141 v 0 c -0.038,0.003 -0.077,0.005 -0.116,0.005 v 0 c -2.239,0 -6.267,-5.448 -6.523,-7.815"
         transform="translate(-148.24851,-518.35421)"
         id="path3026" />
    </clipPath>
    <clipPath
       clipPathUnits="userSpaceOnUse"
       id="clipPath3028">
      <path
         d="m 132.101,521.175 c -0.26,-2.408 2.343,-5.727 4.686,-7.745 v 0 c 5.922,1.497 10.413,1.627 10.413,1.627 v 0 c 0,0 1.171,2.798 0,6.787 v 0 c -1.171,3.988 -6.247,6.946 -8.46,7.141 v 0 c -0.038,0.003 -0.077,0.005 -0.116,0.005 v 0 c -2.239,0 -6.267,-5.448 -6.523,-7.815"
         transform="translate(-145.8562,-518.35421)"
         id="path3028" />
    </clipPath>
    <clipPath
       clipPathUnits="userSpaceOnUse"
       id="clipPath3030">
      <path
         d="M 0,841.89 H 688.077 V 0 H 0 Z"
         transform="translate(-147.2002,-515.05711)"
         id="path3030" />
    </clipPath>
    <clipPath
       clipPathUnits="userSpaceOnUse"
       id="clipPath3032">
      <path
         d="M 0,841.89 H 688.077 V 0 H 0 Z"
         transform="translate(-131.76441,-521.21141)"
         id="path3032" />
    </clipPath>
    <clipPath
       clipPathUnits="userSpaceOnUse"
       id="clipPath3034">
      <path
         d="M 0,841.89 H 688.077 V 0 H 0 Z"
         transform="translate(-147.2376,-515.39362)"
         id="path3034" />
    </clipPath>
    <clipPath
       clipPathUnits="userSpaceOnUse"
       id="clipPath3036">
      <path
         d="M 0,841.89 H 688.077 V 0 H 0 Z"
         transform="translate(-140.3212,-519.80081)"
         id="path3036" />
    </clipPath>
    <clipPath
       clipPathUnits="userSpaceOnUse"
       id="clipPath3038">
      <path
         d="M 0,841.89 H 688.077 V 0 H 0 Z"
         transform="translate(-122.14521,-521.84401)"
         id="path3038" />
    </clipPath>
    <clipPath
       clipPathUnits="userSpaceOnUse"
       id="clipPath3040">
      <path
         d="M 0,841.89 H 688.077 V 0 H 0 Z"
         transform="translate(-125.09211,-525.79201)"
         id="path3040" />
    </clipPath>
    <clipPath
       clipPathUnits="userSpaceOnUse"
       id="clipPath3042">
      <path
         d="M 0,841.89 H 688.077 V 0 H 0 Z"
         transform="translate(-104.67411,-533.48002)"
         id="path3042" />
    </clipPath>
  </defs>
  <g
     id="layer-MC4"
     transform="translate(-102.12423,-366.79983)">
    <path
       id="path2923"
       d="m 0,0 c 1.742,-2.904 3.113,-9.887 4.394,-16.178 1.282,-6.291 5.01,-15.013 9.786,-18.807 4.777,-3.794 1.864,-3.561 -2.796,-1.93 -4.66,1.631 -11.766,2.446 -14.329,7.922 -2.563,5.475 -6.431,23.683 -7.364,28.809 C -11.24,4.942 -5.246,8.744 0,0"
       style="fill:#87366a;fill-opacity:1;fill-rule:nonzero;stroke:#000000;stroke-width:0.677;stroke-linecap:round;stroke-linejoin:miter;stroke-miterlimit:10;stroke-dasharray:none;stroke-opacity:1"
       transform="matrix(1.3333333,0,0,-1.3333333,230.44707,454.34027)"
       clip-path="url(#clipPath2924)" />
    <path
       id="path2925"
       d="m 0,0 c -3.791,-6.195 -15.164,-25.057 -19.554,-33.621 -4.39,-8.564 -10.639,-21.838 -12.364,-28.546 -1.724,-6.709 -2.168,-6.709 1.61,-7.565 3.778,-0.857 8.807,-2.712 21.433,-0.286 12.625,2.427 12.409,3.426 12.549,6.994 0.14,3.568 2.17,23.836 5.863,35.397 3.694,11.562 9.301,25.922 10.89,30.089 C 22.015,6.629 7.785,12.723 0,0"
       style="fill:#fa6a54;fill-opacity:1;fill-rule:nonzero;stroke:#000000;stroke-width:0.672;stroke-linecap:round;stroke-linejoin:miter;stroke-miterlimit:10;stroke-dasharray:none;stroke-opacity:1"
       transform="matrix(1.3333333,0,0,-1.3333333,298.62907,667.25173)"
       clip-path="url(#clipPath2926)" />
    <path
       id="path2927"
       d="m 0,0 c -3.412,1.914 -13.173,5.022 -19.918,7.041 -6.817,2.041 -10.245,2.043 -13.642,0.917 -0.864,-2.249 -1.553,-4.271 -1.973,-5.904 -1.724,-6.709 -2.168,-6.709 1.61,-7.565 3.778,-0.857 8.808,-2.712 21.433,-0.286 C -1.404,-3.666 -0.219,-2.636 0,0"
       style="fill:#87366a;fill-opacity:1;fill-rule:nonzero;stroke:#000000;stroke-width:0.672;stroke-linecap:round;stroke-linejoin:miter;stroke-miterlimit:10;stroke-dasharray:none;stroke-opacity:1"
       transform="matrix(1.3333333,0,0,-1.3333333,303.4488,752.8796)"
       clip-path="url(#clipPath2928)" />
    <path
       id="path2929"
       d="m 0,0 c -4.115,-5.996 -9.879,-13.263 -13.409,-25.837 -6.348,-22.616 6.927,-39.082 17.174,-44.637 10.247,-5.555 11.449,-5.952 16.653,-7.737 5.203,-1.786 14.047,-1.786 16.218,2.182 2.171,3.968 3.96,8.248 -5.032,9.19 -8.991,0.942 -8.196,2.153 -7.615,4.172 0.581,2.018 6.045,16.147 10.215,34.986 1.69,7.636 2.578,14.535 3.263,20.609 C 40.203,17.158 9.263,13.497 0,0"
       style="fill:#fa6a54;fill-opacity:1;fill-rule:nonzero;stroke:none"
       transform="matrix(1.3333333,0,0,-1.3333333,275.81773,564.94107)"
       clip-path="url(#clipPath2930)" />
    <path
       id="path2931"
       d="m 0,0 0.611,1.841 0.008,0.025 c 5.143,9.135 -6.562,7.093 -11.742,9.06 -2.7,0.915 -1.482,2.987 -0.873,4.914 l 1.171,3.38 c 4.581,13.525 8.504,27.34 10.618,41.479 1.237,8.881 3.931,20.54 -6.329,25.036 -8.77,3.524 -19.364,0.355 -26.327,-5.611 -3.427,-3.265 -5.796,-7.507 -8.45,-11.391 -7.439,-11.852 -12.277,-26.758 -7.862,-40.561 5.026,-15.65 15.79,-21.839 30.075,-27.943 3.389,0.245 8.26,1.038 11.564,3.229 0.068,0.046 0.163,0.026 0.205,-0.044 0.041,-0.066 0.022,-0.152 -0.04,-0.196 -0.855,-0.596 -1.743,-1.164 -2.702,-1.589 -2.867,-1.301 -5.976,-2.044 -9.143,-2.052 -4.517,1.736 -8.746,4.121 -12.998,6.368 -12.699,7.021 -20.403,21.877 -19.227,36.286 0.774,9.578 4.481,18.773 9.56,26.859 2.696,3.953 5.078,8.213 8.568,11.533 7.153,6.143 18.049,9.363 27.048,5.727 10.638,-4.711 8.042,-16.504 6.722,-25.749 -2.119,-14.18 -6.053,-28.04 -10.646,-41.598 0,0 -1.172,-3.382 -1.172,-3.382 -0.258,-0.977 -0.976,-2.27 -0.728,-3.201 0.181,-0.385 0.693,-0.663 1.209,-0.868 5.794,-1.956 17.361,-0.066 12.108,-9.97 0,0 0.02,0.048 0.02,0.048 L 0.638,-0.211 C 0.485,-0.602 -0.127,-0.441 0,0"
       style="fill:#000000;fill-opacity:1;fill-rule:nonzero;stroke:none"
       transform="matrix(1.3333333,0,0,-1.3333333,324.04013,667.47707)"
       clip-path="url(#clipPath2932)" />
    <path
       id="path2933"
       d="m 0,0 c 4.59,1.268 7.468,1.652 9.195,6.641 1.727,4.989 9.979,25.138 12.09,28.784 2.11,3.646 2.302,7.484 17.846,7.292 15.543,-0.192 35.5,-6.141 44.135,-10.938 8.635,-4.797 12.281,-8.059 14.584,-11.13 2.303,-3.07 0.192,-1.919 -4.413,-0.575 -4.606,1.343 -19.957,2.978 -27.441,2.64 0,0 16.886,-12.427 20.724,-18.376 3.838,-5.948 2.303,-18.23 -8.827,-38.954 -11.13,-20.725 -20.149,-26.673 -21.3,-25.33 -1.151,1.343 -1.535,10.938 -1.727,23.219 -0.192,12.281 -2.495,15.352 -8.252,21.684 -5.756,6.333 -13.048,13.049 -13.048,13.049 0,0 -7.868,-1.152 -18.038,-2.879 C 5.357,-6.6 1.136,-7.751 -1.167,-4.489 -3.47,-1.227 0,0 0,0"
       style="fill:#87366a;fill-opacity:1;fill-rule:nonzero;stroke:#000000;stroke-width:0.638;stroke-linecap:round;stroke-linejoin:miter;stroke-miterlimit:10;stroke-dasharray:none;stroke-opacity:1"
       transform="matrix(1.3333333,0,0,-1.3333333,343.91027,538.9976)"
       clip-path="url(#clipPath2934)" />
    <path
       id="path2935"
       d="M 0,0 5.144,0.533 C 10.438,1.305 15.61,-0.956 19.892,-3.819 20.096,-3.948 19.906,-4.275 19.69,-4.149 15.259,-1.507 10.426,0.517 5.208,-0.207 3.504,-0.361 1.784,-0.579 0.052,-0.675 -0.373,-0.706 -0.431,-0.037 0,0"
       style="fill:#000000;fill-opacity:1;fill-rule:nonzero;stroke:none"
       transform="matrix(1.3333333,0,0,-1.3333333,388.62987,541.20613)"
       clip-path="url(#clipPath2936)" />
    <path
       id="path2937"
       d="m 0,0 c -4.088,-0.169 -8.495,-0.121 -11.622,-3.174 -0.13,-0.123 -0.331,0.081 -0.197,0.208 1.488,1.515 3.436,2.581 5.515,3.028 2.081,0.46 4.195,0.561 6.273,0.615 C 0.396,0.693 0.431,0.025 0,0"
       style="fill:#000000;fill-opacity:1;fill-rule:nonzero;stroke:none"
       transform="matrix(1.3333333,0,0,-1.3333333,431.92547,509.1632)"
       clip-path="url(#clipPath2938)" />
    <path
       id="path2939"
       d="m 0,0 c -2.182,-4.83 -14.289,-28.772 -19.545,-38.608 -5.257,-9.835 -17.107,-35.377 -19.467,-42.277 -2.359,-6.899 -5.148,-13.065 -5.875,-16.882 -0.726,-3.816 8.577,-5.137 12.228,-5.284 3.651,-0.147 15.052,-1.028 19.098,0 4.045,1.027 3.046,2.789 3.763,6.459 0.716,3.67 2.467,23.194 3.808,31.561 1.341,8.367 7.836,29.693 12.701,42.151 4.864,12.457 6.169,15.125 7.58,19.944 C 16.338,4.057 3.795,8.402 0,0"
       style="fill:#fa6a54;fill-opacity:1;fill-rule:nonzero;stroke:#000000;stroke-width:0.643;stroke-linecap:round;stroke-linejoin:miter;stroke-miterlimit:10;stroke-dasharray:none;stroke-opacity:1"
       transform="matrix(1.3333333,0,0,-1.3333333,192.7532,629.8752)"
       clip-path="url(#clipPath2940)" />
    <path
       id="path2941"
       d="m 0,0 c -3.29,1.319 -5.633,1.25 -6.233,1.091 -1.745,-4.62 -3.355,-8.621 -3.882,-11.388 -0.726,-3.817 8.578,-5.138 12.228,-5.285 3.651,-0.146 15.052,-1.027 19.098,0 0.916,0.233 1.573,0.504 2.05,0.825 C 23.121,-14.455 17.576,-7.046 0,0"
       style="fill:#87366a;fill-opacity:1;fill-rule:nonzero;stroke:#000000;stroke-width:0.643;stroke-linecap:round;stroke-linejoin:miter;stroke-miterlimit:10;stroke-dasharray:none;stroke-opacity:1"
       transform="matrix(1.3333333,0,0,-1.3333333,146.3904,746.50107)"
       clip-path="url(#clipPath2942)" />
    <path
       id="path2943"
       d="m 0,0 c -0.163,-7.955 -1.12,-12.577 1.835,-19.042 2.956,-6.466 13.612,-20.227 32.765,-23.702 19.354,-3.511 23.575,-4.191 32.626,-3.083 9.051,1.108 24.014,14.039 31.957,16.44 7.943,2.402 38.976,2.217 43.409,38.422 4.433,36.205 -17.918,35.651 -26.415,35.467 C 107.68,44.317 72.214,35.635 63.901,34.527 55.589,33.418 51.939,34.891 49.423,41.328 46.907,47.766 28.867,46.403 17.986,35.91 8.909,27.154 0.198,9.617 0,0"
       style="fill:#fa6a54;fill-opacity:1;fill-rule:nonzero;stroke:#000000;stroke-width:0.677;stroke-linecap:round;stroke-linejoin:miter;stroke-miterlimit:10;stroke-dasharray:none;stroke-opacity:1"
       transform="matrix(1.3333333,0,0,-1.3333333,183.2648,597.84093)"
       clip-path="url(#clipPath2944)" />
    <path
       id="path2945"
       d="m 0,0 c 2.439,-5.336 4.337,-8.979 4.337,-14.496 0,-5.517 -1.905,-17.524 -5.336,-31.245 -3.43,-13.721 -6.289,-26.108 -4.954,-34.112 1.334,-8.004 27.442,-7.242 39.448,0 12.006,7.241 17.825,36.018 12.247,45.547 -5.577,9.528 -6.685,17.042 -8.132,27.483 C 36.163,3.618 32.086,25.893 24.348,44.21 18.366,58.371 21.008,70.047 -1.968,76.454 -24.943,82.862 -30.051,37.921 -17.049,21.532 -4.048,5.142 -1.41,3.083 0,0"
       style="fill:#fa6a54;fill-opacity:1;fill-rule:nonzero;stroke:none"
       transform="matrix(1.3333333,0,0,-1.3333333,191.37213,503.046)"
       clip-path="url(#clipPath2946)" />
    <path
       id="path2947"
       d="m 0,0 c -5.577,9.529 -6.686,17.042 -8.132,27.483 -1.447,10.441 -5.525,32.716 -13.263,51.033 -5.982,14.161 -3.34,25.838 -26.315,32.245 -22.975,6.407 -28.084,-38.534 -15.082,-54.923 13.002,-16.389 15.64,-18.448 17.05,-21.532 2.439,-5.335 4.337,-8.978 4.337,-14.496 0,-5.517 -1.906,-17.523 -5.336,-31.244 -3.43,-13.722 -6.289,-26.109 -4.955,-34.113"
       style="fill:none;stroke:#000000;stroke-width:0.677;stroke-linecap:round;stroke-linejoin:miter;stroke-miterlimit:10;stroke-dasharray:none;stroke-opacity:1"
       transform="matrix(1.3333333,0,0,-1.3333333,252.362,548.78773)"
       clip-path="url(#clipPath2948)" />
    <path
       id="path2949"
       d="m 0,0 c -1.867,-5.236 -12.413,-31.192 -17.029,-41.855 -4.615,-10.663 -14.8,-38.354 -16.71,-45.834 -1.91,-7.48 -4.297,-14.164 -4.774,-18.302 -0.478,-4.138 8.912,-5.57 12.572,-5.729 3.661,-0.159 15.119,-1.114 19.098,0 3.978,1.114 2.864,3.024 3.342,7.002 0.477,3.979 0.955,25.145 1.75,34.217 0.796,9.071 5.901,32.191 9.953,45.696 4.052,13.506 5.184,16.398 6.28,21.622 C 16.074,4.399 3.247,9.109 0,0"
       style="fill:#fa6a54;fill-opacity:1;fill-rule:nonzero;stroke:none"
       transform="matrix(1.3333333,0,0,-1.3333333,228.7368,632.7968)"
       clip-path="url(#clipPath2950)" />
    <path
       id="path2951"
       d="m 0,0 c -5.124,-14.708 -12.2,-30.716 -18.163,-45.093 -5.909,-15.051 -11.952,-30.141 -16.213,-45.755 -1.15,-4.49 -3.541,-10.988 -3.938,-15.569 0.823,-4.188 10.479,-4.863 14.038,-5.023 5.911,-0.152 12.252,-1.202 18,0.342 2.96,0.848 1.888,4.369 2.35,6.764 0.618,8.473 0.893,21.879 1.463,30.331 0.441,8.109 2.203,16.093 3.859,24.019 2.282,10.564 4.964,21.056 8.209,31.365 1.547,5.178 3.289,10.289 4.6,15.514 0.02,0.081 0.103,0.131 0.185,0.11 0.077,-0.019 0.126,-0.096 0.114,-0.174 -0.44,-2.674 -1.152,-5.299 -1.925,-7.887 l -2.371,-7.748 C 6.969,-29.108 4.298,-39.565 2.022,-50.12 c -1.651,-7.914 -3.401,-15.834 -3.839,-23.924 -0.621,-9.326 -0.838,-23.048 -1.617,-32.357 0.094,-3.702 -0.761,-5.244 -4.631,-5.828 -5.426,-0.656 -10.833,-0.13 -16.249,0.129 -3.911,0.191 -13.847,0.85 -14.663,5.629 0.124,2.729 1.038,5.387 1.723,8.016 0,0 2.233,7.786 2.233,7.786 2.701,10.469 6.647,20.58 10.347,30.725 3.697,10.154 8,20.082 12.158,30.048 0,0 6.13,14.996 6.13,14.996 2.015,5.009 4.026,10.022 6.129,14.992 C -0.201,0.249 0.055,0.161 0,0"
       style="fill:#000000;fill-opacity:1;fill-rule:nonzero;stroke:none"
       transform="matrix(1.3333333,0,0,-1.3333333,228.90787,632.85787)"
       clip-path="url(#clipPath2952)" />
    <path
       id="path2953"
       d="m 0,0 c -3.377,1.43 -5.714,1.355 -6.304,1.183 -1.444,-5.009 -2.793,-9.347 -3.139,-12.346 -0.478,-4.138 8.912,-5.57 12.572,-5.73 3.66,-0.159 15.119,-1.114 19.097,0 0.901,0.253 1.541,0.546 1.997,0.895 C 24.063,-15.671 18.035,-7.639 0,0"
       style="fill:#87366a;fill-opacity:1;fill-rule:nonzero;stroke:#000000;stroke-width:0.677;stroke-linecap:round;stroke-linejoin:miter;stroke-miterlimit:10;stroke-dasharray:none;stroke-opacity:1"
       transform="matrix(1.3333333,0,0,-1.3333333,189.97707,759.23333)"
       clip-path="url(#clipPath2954)" />
    <path
       id="path2955"
       d="m 0,0 c -3.292,-6.423 -13.144,-25.977 -16.843,-34.856 -3.7,-8.878 -8.879,-22.639 -10.062,-29.594 -1.184,-6.954 -1.628,-6.954 2.219,-7.842 3.847,-0.888 9.026,-2.811 21.456,-0.296 12.429,2.515 12.134,3.551 11.985,7.251 -0.148,3.699 0.248,24.711 3.01,36.696 2.761,11.986 7.21,26.873 8.463,31.193 C 21.481,6.872 6.759,13.19 0,0"
       style="fill:#fa6a54;fill-opacity:1;fill-rule:nonzero;stroke:#000000;stroke-width:0.677;stroke-linecap:round;stroke-linejoin:miter;stroke-miterlimit:10;stroke-dasharray:none;stroke-opacity:1"
       transform="matrix(1.3333333,0,0,-1.3333333,358.4692,675.60133)"
       clip-path="url(#clipPath2956)" />
    <path
       id="path2957"
       d="m 0,0 c -3.567,1.985 -13.577,5.206 -20.486,7.3 -6.982,2.115 -10.409,2.118 -13.716,0.95 -0.682,-2.331 -1.208,-4.428 -1.496,-6.121 -1.184,-6.955 -1.628,-6.955 2.219,-7.843 3.848,-0.887 9.027,-2.811 21.456,-0.295 C -1.108,-3.801 -0.006,-2.732 0,0"
       style="fill:#87366a;fill-opacity:1;fill-rule:nonzero;stroke:#000000;stroke-width:0.677;stroke-linecap:round;stroke-linejoin:miter;stroke-miterlimit:10;stroke-dasharray:none;stroke-opacity:1"
       transform="matrix(1.3333333,0,0,-1.3333333,370.1928,764.37267)"
       clip-path="url(#clipPath2958)" />
    <path
       id="path2959"
       d="m 0,0 c -3.502,-4.314 -13.163,-14.603 -17.688,-38.049 -4.524,-23.447 10.078,-40.518 20.773,-46.277 10.695,-5.758 11.929,-6.17 17.277,-8.021 5.347,-1.851 14.191,-1.851 16.042,2.263 1.851,4.113 3.295,8.551 -5.773,9.527 -9.067,0.977 -8.37,2.232 -7.951,4.325 0.418,2.092 4.743,16.74 7.393,36.271 2.651,19.53 3.039,34.22 -6.432,44.104 C 14.17,14.027 3.154,3.886 0,0"
       style="fill:#fa6a54;fill-opacity:1;fill-rule:nonzero;stroke:none"
       transform="matrix(1.3333333,0,0,-1.3333333,335.89173,554.51573)"
       clip-path="url(#clipPath2960)" />
    <path
       id="path2961"
       d="M 0,0 C 11.418,-9.624 10.945,-25.856 9.437,-39.416 7.877,-53.928 4.982,-68.275 1.251,-82.375 1.134,-82.925 0.969,-83.532 0.974,-84 c -0.025,-0.925 1.241,-1.363 2.281,-1.662 3.675,-1.312 11.437,-0.143 12.837,-4.671 0.453,-2.467 -0.65,-4.698 -1.253,-6.987 -0.051,-0.17 -0.231,-0.266 -0.401,-0.216 -0.17,0.052 -0.267,0.231 -0.215,0.401 0.761,2.864 2.954,7.377 -0.922,8.835 -3.792,1.536 -8.198,0.757 -11.96,2.587 -1.46,0.724 -1.164,2.254 -0.836,3.507 4.709,18.56 8.794,37.572 8.924,56.787 -0.135,6.896 -1.353,14.013 -5.352,19.754 -1.282,1.904 -2.96,3.52 -4.321,5.448 C -0.363,-0.073 -0.134,0.138 0,0"
       style="fill:#000000;fill-opacity:1;fill-rule:nonzero;stroke:none"
       transform="matrix(1.3333333,0,0,-1.3333333,365.05707,546.01413)"
       clip-path="url(#clipPath2962)" />
    <path
       id="path2963"
       d="m 0,0 c -3.018,-2.907 -7.436,-3.976 -11.533,-3.72 l -0.729,0.156 -0.031,0.007 c -4.359,1.739 -8.414,4.034 -12.52,6.204 -12.351,6.674 -20.814,19.923 -22.226,33.835 -0.986,9.339 1.496,18.604 4.448,27.386 3.108,8.693 7.756,17.501 14.299,23.892 0.057,-0.051 0.063,-0.137 0.017,-0.196 -2.897,-3.627 -5.672,-7.319 -7.94,-11.345 -2.322,-3.987 -4.187,-8.231 -5.73,-12.58 -2.909,-8.673 -5.373,-17.868 -4.391,-27.085 1.391,-13.662 9.735,-26.713 21.872,-33.257 4.094,-2.16 8.147,-4.444 12.418,-6.146 -0.247,0.062 0.699,-0.145 0.671,-0.138 3.691,-0.257 7.963,0.969 11.166,3.238 C -0.059,0.376 0.145,0.125 0,0"
       style="fill:#000000;fill-opacity:1;fill-rule:nonzero;stroke:none"
       transform="matrix(1.3333333,0,0,-1.3333333,373.7412,671.38787)"
       clip-path="url(#clipPath2964)" />
    <path
       id="path2965"
       d="m 0,0 c -1.559,-0.818 -2.71,-2.228 -3.249,-6.466 -0.539,-4.238 -1.887,-8.863 -1.348,-11.604 0.539,-2.741 2.291,-9.209 1.752,-11.231 -0.539,-2.021 -5.525,-7.546 -8.422,-7.546 -2.897,0 -6.266,6.805 -7.479,11.791 -1.213,4.986 -1.913,15.725 -0.27,20.752 1.451,4.44 6.642,10.639 12.802,11.185 C -0.053,7.427 2.04,1.071 0,0"
       style="fill:#fa6a54;fill-opacity:1;fill-rule:nonzero;stroke:#000000;stroke-width:0.677;stroke-linecap:round;stroke-linejoin:miter;stroke-miterlimit:10;stroke-dasharray:none;stroke-opacity:1"
       transform="matrix(1.3333333,0,0,-1.3333333,174.46293,506.91813)"
       clip-path="url(#clipPath2966)" />
    <path
       id="path2967"
       d="m 0,0 c 0.241,-4.253 0.677,-13.317 0.272,-16.802 -0.404,-3.485 -1.549,-8.471 -3.84,-8.202 -2.291,0.27 -6.468,9.568 -6.67,20.55 -0.203,10.983 4.244,13.543 6.67,12.869 C -1.142,7.742 -0.168,2.966 0,0"
       style="fill:#87366a;fill-opacity:1;fill-rule:nonzero;stroke:none"
       transform="matrix(1.3333333,0,0,-1.3333333,163.11933,518.4868)"
       clip-path="url(#clipPath2968)" />
    <path
       id="path2969"
       d="M 0,0 C -0.069,-3.91 3.85,-13.885 10.765,-14.779 17.679,-15.674 14.404,14.389 7.511,10.812 0.618,7.234 -0.497,3.286 -0.748,2.509 -0.999,1.732 0,0 0,0"
       style="fill:#b54d95;fill-opacity:1;fill-rule:nonzero;stroke:#000000;stroke-width:0.677;stroke-linecap:round;stroke-linejoin:miter;stroke-miterlimit:10;stroke-dasharray:none;stroke-opacity:1"
       transform="matrix(1.3333333,0,0,-1.3333333,150.2664,515.5396)"
       clip-path="url(#clipPath2970)" />
    <path
       id="path2971"
       d="m 0,0 c 0.241,-4.253 0.677,-13.317 0.272,-16.802 -0.404,-3.485 -1.549,-8.471 -3.84,-8.202 -2.291,0.27 -6.468,9.568 -6.67,20.55 -0.203,10.983 4.244,13.543 6.67,12.869 C -1.142,7.742 -0.168,2.966 0,0 Z"
       style="fill:none;stroke:#000000;stroke-width:0.677;stroke-linecap:round;stroke-linejoin:miter;stroke-miterlimit:10;stroke-dasharray:none;stroke-opacity:1"
       transform="matrix(1.3333333,0,0,-1.3333333,163.11933,518.4868)"
       clip-path="url(#clipPath2972)" />
    <path
       id="path2973"
       d="m 0,0 c 1.023,-3.228 1.331,-7.247 1.722,-13.655 0.391,-6.409 2.865,-15.566 7.065,-19.99 4.2,-4.423 1.348,-3.786 -3.038,-1.52 -4.387,2.265 -11.31,4.065 -13.084,9.845 -1.773,5.78 -2.855,20.639 -3.062,25.845 C -10.604,5.731 -2.85,8.991 0,0"
       style="fill:#87366a;fill-opacity:1;fill-rule:nonzero;stroke:#000000;stroke-width:0.677;stroke-linecap:round;stroke-linejoin:miter;stroke-miterlimit:10;stroke-dasharray:none;stroke-opacity:1"
       transform="matrix(1.3333333,0,0,-1.3333333,230.9232,444.89)"
       clip-path="url(#clipPath2974)" />
    <path
       id="path2975"
       d="m 0,0 c 2.15,2.648 4.735,5.261 5.984,4.932 1.25,-0.329 9.371,-2.696 15.142,-6.05 5.771,-3.354 11.229,-9.536 10.703,-10.325 -0.526,-0.789 -5.063,-0.526 -5.063,-1.315 0,-0.789 5.721,-4.437 6.707,-5.901 0.987,-1.464 4.341,-7.778 5.985,-13.894 1.644,-6.115 2.827,-10.259 2.104,-10.324 -0.723,-0.066 -7.563,8.089 -10.719,9.996 -3.157,1.907 -6.474,2.737 -7.873,3.604 -1.4,0.868 -5.411,7.707 -7.121,12.836 -1.71,5.13 -5.53,6.733 -11.051,6.063 C -0.723,-11.048 -5.393,-6.642 0,0"
       style="fill:#87366a;fill-opacity:1;fill-rule:nonzero;stroke:#000000;stroke-width:0.677;stroke-linecap:round;stroke-linejoin:miter;stroke-miterlimit:10;stroke-dasharray:none;stroke-opacity:1"
       transform="matrix(1.3333333,0,0,-1.3333333,182.24667,397.78853)"
       clip-path="url(#clipPath2976)" />
    <path
       id="path2977"
       d="m 0,0 c 4.803,-11.928 6.093,-26.72 1.133,-38.796 -1.906,-3.582 -5.797,-5.548 -9.247,-7.29 -3.828,-1.899 -7.961,-3.177 -11.901,-4.729 -1.284,-0.572 -2.534,-1.248 -3.805,-1.88 l 0.05,0.031 c -0.404,-0.298 -0.85,-0.683 -1.048,-1.06 -0.07,-0.162 -0.267,-0.237 -0.425,-0.152 -0.588,0.414 0.719,1.495 1.036,1.79 2.483,1.428 5.213,2.557 7.915,3.439 5.633,2.24 14.803,5.13 17.205,11.116 2.52,6.605 2.974,13.847 2.416,20.857 -0.478,5.649 -1.925,11.15 -3.66,16.549 C -0.412,0.071 -0.079,0.214 0,0"
       style="fill:#000000;fill-opacity:1;fill-rule:nonzero;stroke:none"
       transform="matrix(1.3333333,0,0,-1.3333333,205.5564,437.54987)"
       clip-path="url(#clipPath2978)" />
    <path
       id="path2979"
       d="m 0,0 c -4.796,-5.217 -17.941,-22.368 -22.485,-34.135 -4.543,-11.766 -2.796,-23.3 8.388,-30.523 11.184,-7.223 33.087,8.388 39.844,10.718 6.757,2.33 17.125,6.174 19.572,11.184 2.447,5.01 6.058,20.155 -0.932,38.678 C 37.397,14.446 14.563,15.844 0,0"
       style="fill:#fa6a54;fill-opacity:1;fill-rule:nonzero;stroke:none"
       transform="matrix(1.3333333,0,0,-1.3333333,146.1532,432.19627)"
       clip-path="url(#clipPath2980)" />
    <path
       id="path2981"
       d="m 0,0 c -8.371,-0.033 -16.331,-4.173 -22.068,-10.129 -5.679,-6.144 -10.572,-13.048 -15.189,-20.02 -2.259,-3.53 -4.434,-7.122 -6.255,-10.896 -0.65,-1.252 -1.064,-2.584 -1.906,-3.743 -0.05,-0.068 -0.145,-0.081 -0.212,-0.031 -0.046,1.424 0.901,2.808 1.44,4.102 1.831,3.807 4.019,7.429 6.288,10.984 4.651,7.038 9.533,13.944 15.263,20.157 C -16.782,-3.447 -8.583,0.708 0.002,0.677 0.407,0.645 0.49,0.043 0,0"
       style="fill:#000000;fill-opacity:1;fill-rule:nonzero;stroke:none"
       transform="matrix(1.3333333,0,0,-1.3333333,176.90853,418.07333)"
       clip-path="url(#clipPath2982)" />
    <path
       id="path2983"
       d="M 0,0 C 1.299,-1.518 1.833,-2.533 3.765,-1.953 5.697,-1.374 10.657,3.006 10.399,5.84 10.141,8.674 6.594,11.621 5.204,12.539 2.863,14.085 -3.378,3.95 0,0"
       style="fill:#ffffff;fill-opacity:1;fill-rule:nonzero;stroke:#000000;stroke-width:0.677;stroke-linecap:round;stroke-linejoin:miter;stroke-miterlimit:10;stroke-dasharray:none;stroke-opacity:1"
       transform="matrix(1.3333333,0,0,-1.3333333,146.40333,547.94253)"
       clip-path="url(#clipPath2984)" />
    <path
       id="path2985"
       d="m 0,0 c 0.73,-1.778 2.026,-5.299 3.065,-5.559 1.039,-0.26 5.144,-0.364 5.767,0.519 0.624,0.884 0,4.936 -0.363,6.287 C 8.105,2.598 -1.403,3.416 0,0"
       style="fill:#ffffff;fill-opacity:1;fill-rule:nonzero;stroke:#000000;stroke-width:0.677;stroke-linecap:round;stroke-linejoin:miter;stroke-miterlimit:10;stroke-dasharray:none;stroke-opacity:1"
       transform="matrix(1.3333333,0,0,-1.3333333,131.64027,546.37987)"
       clip-path="url(#clipPath2986)" />
    <path
       id="path2987"
       d="m 0,0 c -2.42,-2.182 -4.228,-2.649 -3.411,-6.916 0.817,-4.266 3.086,-9.168 5.174,-10.439 2.088,-1.271 3.638,-1.034 5.949,-1.969 2.311,-0.935 1.685,8.051 -0.412,14.042 C 5.395,0.161 2.481,2.237 0,0"
       style="fill:#fa6a54;fill-opacity:1;fill-rule:nonzero;stroke:#000000;stroke-width:0.677;stroke-linecap:round;stroke-linejoin:miter;stroke-miterlimit:10;stroke-dasharray:none;stroke-opacity:1"
       transform="matrix(1.3333333,0,0,-1.3333333,107.38347,503.39187)"
       clip-path="url(#clipPath2988)" />
    <path
       id="path2989"
       d="m 0,0 c -2.535,-5.361 -9.261,-19.07 -7.924,-27.914 1.337,-8.844 6.479,-12.443 10.901,-16.454 0,0 -0.103,-0.925 1.131,-2.776 1.234,-1.851 -0.823,-4.011 -0.206,-6.273 0.617,-2.263 4.422,-3.599 11.826,-3.188 7.405,0.411 11.724,2.571 12.032,12.032 0.309,9.461 0.807,7.909 6.17,11.003 5.348,3.085 16.58,21.39 -0.902,34.759 C 15.546,14.557 2.947,6.233 0,0"
       style="fill:#fa6a54;fill-opacity:1;fill-rule:nonzero;stroke:none"
       transform="matrix(1.3333333,0,0,-1.3333333,117.8788,473.72693)"
       clip-path="url(#clipPath2990)" />
    <path
       id="path2991"
       d="m 0,0 c -0.431,-0.37 -0.845,-0.67 -1.229,-0.891 -5.363,-3.095 -5.861,-1.543 -6.17,-11.004 -0.308,-9.46 -4.627,-11.62 -12.032,-12.031 -7.404,-0.412 -11.209,0.925 -11.826,3.188 -0.617,2.262 1.44,4.421 0.206,6.272 -1.234,1.851 -1.131,2.777 -1.131,2.777 -4.422,4.011 -9.564,7.61 -10.901,16.454 -1.337,8.844 5.389,22.553 7.924,27.914 l 2.069,4.079"
       style="fill:none;stroke:#000000;stroke-width:0.677;stroke-linecap:round;stroke-linejoin:miter;stroke-miterlimit:10;stroke-dasharray:none;stroke-opacity:1"
       transform="matrix(1.3333333,0,0,-1.3333333,164.75733,517.29853)"
       clip-path="url(#clipPath2992)" />
    <path
       id="path2993"
       d="M 0,0 C 1.671,-2.486 3.05,-5.168 3.91,-8.047 3.941,-8.161 3.873,-8.279 3.759,-8.31 3.653,-8.338 3.543,-8.278 3.503,-8.18 2.388,-5.459 1.032,-2.815 -0.332,-0.207 -0.449,0.001 -0.135,0.197 0,0"
       style="fill:#000000;fill-opacity:1;fill-rule:nonzero;stroke:none"
       transform="matrix(1.3333333,0,0,-1.3333333,104.11947,513.56293)"
       clip-path="url(#clipPath2994)" />
    <path
       id="path2995"
       d="M 0,0 C 0.193,0.972 0.384,2.763 1.788,2.504 3.91,1.829 5.712,0.929 7.461,-0.447 c 1.4,-1.26 4.445,-8.356 3.01,-9.878 -1.835,-1.196 -3.919,0.557 -5.218,1.744 -0.124,0.118 0.042,0.311 0.177,0.215 1.313,-0.797 3.028,-2.203 4.547,-1.422 0.438,0.985 -0.141,2.304 -0.414,3.391 C 8.879,-4.566 8.301,-2.38 6.983,-0.94 5.537,0.281 3.482,1.392 1.71,2.002 0.664,2.196 0.614,0.655 0.359,-0.078 0.312,-0.31 -0.049,-0.227 0,0"
       style="fill:#000000;fill-opacity:1;fill-rule:nonzero;stroke:none"
       transform="matrix(1.3333333,0,0,-1.3333333,125.72627,512.4464)"
       clip-path="url(#clipPath2996)" />
    <path
       id="path2997"
       d="M 0,0 C 1.124,-2.164 2.929,-3.835 4.627,-5.646 4.93,-6.917 1.792,-3.727 1.556,-3.431 0.741,-2.471 -0.02,-1.383 -0.335,-0.127 -0.359,-0.03 -0.3,0.068 -0.204,0.092 -0.122,0.113 -0.038,0.073 0,0"
       style="fill:#000000;fill-opacity:1;fill-rule:nonzero;stroke:none"
       transform="matrix(1.3333333,0,0,-1.3333333,129.65467,511.63587)"
       clip-path="url(#clipPath2998)" />
    <path
       id="path2999"
       d="M 0,0 C 1.397,2.029 2.544,4.815 5.054,5.794 6.679,5.991 8.209,4.879 9.407,3.91 11.03,2.561 11.82,0.525 12.626,-1.358 c 0.775,-1.883 1.451,-3.8 2.006,-5.754 0.06,-0.197 -0.241,-0.311 -0.32,-0.114 0,0 -2.331,5.597 -2.331,5.597 C 10.882,1.17 9.373,3.841 6.481,4.919 5.606,5.364 4.749,5.173 4.032,4.486 2.58,3.187 1.545,1.401 0.405,-0.263 0.24,-0.522 -0.17,-0.26 0,0"
       style="fill:#000000;fill-opacity:1;fill-rule:nonzero;stroke:none"
       transform="matrix(1.3333333,0,0,-1.3333333,122.23013,506.16907)"
       clip-path="url(#clipPath3000)" />
    <path
       id="path3001"
       d="M 0,0 C 1.357,-0.42 2.531,-1.79 2.475,-3.257 2.47,-3.454 2.178,-3.491 2.121,-3.306 1.707,-2.027 0.942,-1.058 -0.127,-0.246 -0.25,-0.156 -0.143,0.047 0,0"
       style="fill:#000000;fill-opacity:1;fill-rule:nonzero;stroke:none"
       transform="matrix(1.3333333,0,0,-1.3333333,162.75493,514.66587)"
       clip-path="url(#clipPath3002)" />
    <path
       id="path3003"
       d="m 0,0 c -7.305,2.97 -15.551,9.652 -16.971,13.911 -1.419,4.258 -0.496,13.272 1.42,13.414 C -13.635,27.467 -3.699,13.414 0.631,8.943 4.96,4.471 6.876,2.768 5.528,0.781 4.179,-1.207 2.604,-1.059 0,0"
       style="fill:#fa6a54;fill-opacity:1;fill-rule:nonzero;stroke:#000000;stroke-width:0.677;stroke-linecap:round;stroke-linejoin:miter;stroke-miterlimit:10;stroke-dasharray:none;stroke-opacity:1"
       transform="matrix(1.3333333,0,0,-1.3333333,171.9644,410.14547)"
       clip-path="url(#clipPath3004)" />
    <path
       id="path3005"
       d="m 0,0 c 1.405,-3.081 1.691,-6.453 2.039,-9.77 0.041,-0.709 0.065,-1.237 0.347,-1.803 1.847,-3.413 5.098,-5.938 8.011,-8.464 2.038,-1.655 4.12,-3.313 6.27,-4.776 0.383,-0.218 0.019,-0.834 -0.359,-0.574 -4.415,3.012 -8.564,6.308 -12.23,10.204 -1.286,1.475 -2.858,3.24 -2.755,5.366 -0.255,3.218 -0.536,6.622 -1.715,9.628 C -0.509,0.054 -0.123,0.253 0,0"
       style="fill:#000000;fill-opacity:1;fill-rule:nonzero;stroke:none"
       transform="matrix(1.3333333,0,0,-1.3333333,151.57973,375.4484)"
       clip-path="url(#clipPath3006)" />
    <path
       id="path3007"
       d="m 0,0 c 0.065,-2.085 -0.472,-3.121 -2.362,-4.924 -1.891,-1.803 -2.347,-5.797 -3.252,-8.388 -0.906,-2.591 -5.224,-7.017 -6.735,-8.312 -1.511,-1.295 -2.807,-5.829 -3.994,-8.744 -1.188,-2.915 -4.426,-7.232 -5.505,-8.42 -1.08,-1.187 0.38,-6.369 1.377,-7.124 0.997,-0.756 7.366,5.721 8.23,7.664 0.864,1.943 0.54,9.391 2.699,11.227 2.159,1.835 9.163,7.233 9.547,9.338 0.384,2.104 -0.77,4.85 0.67,6.662 1.441,1.811 12.387,10.447 13.499,12.606 1.112,2.159 2.364,2.759 3.652,4.307 C 19.115,7.441 10.735,9.051 7.246,6.236 3.756,3.42 0,0 0,0"
       style="fill:#87366a;fill-opacity:1;fill-rule:nonzero;stroke:none"
       transform="matrix(1.3333333,0,0,-1.3333333,146.92013,431.38107)"
       clip-path="url(#clipPath3008)" />
    <path
       id="path3009"
       d="m 0,0 c 1.563,0.413 2.048,2.049 2.198,5.05 0.15,3.001 0.6,7.577 2.475,9.303 1.876,1.725 8.628,4.876 16.58,5.476 7.952,0.6 10.353,0 9.978,-7.502 C 30.855,4.825 29.736,-2.404 14.767,-7.342 -0.203,-12.279 -2.648,-0.699 0,0"
       style="fill:#87366a;fill-opacity:1;fill-rule:nonzero;stroke:none"
       transform="matrix(1.3333333,0,0,-1.3333333,142.61,417.20027)"
       clip-path="url(#clipPath3010)" />
    <path
       id="path3011"
       d="m 0,0 c 1.932,0.594 1.793,3.262 1.959,4.967 0.116,2.049 0.313,4.112 0.877,6.128 0.43,2.111 2.058,3.843 3.979,4.7 6.416,3.22 13.862,4.776 21.015,4.01 2.356,-0.348 3.732,-2.435 3.771,-4.709 0.096,-1.049 0.005,-2.083 -0.106,-3.105 -0.01,-0.098 -0.099,-0.169 -0.196,-0.158 -0.092,0.01 -0.158,0.087 -0.16,0.176 -0.097,2.715 -0.068,6.562 -3.467,7.063 C 20.708,19.889 13.378,18.341 7.137,15.199 5.262,14.314 3.946,12.959 3.486,10.907 2.948,8.984 2.748,6.953 2.635,4.931 2.482,2.974 2.512,0 0.163,-0.658 -0.261,-0.763 -0.447,-0.112 0,0"
       style="fill:#000000;fill-opacity:1;fill-rule:nonzero;stroke:none"
       transform="matrix(1.3333333,0,0,-1.3333333,142.49453,416.76347)"
       clip-path="url(#clipPath3012)" />
    <path
       id="path3013"
       d="m 0,0 c -1.685,-0.497 -1.916,-13.272 -3.123,-19.66 -1.206,-6.387 -2.058,-10.788 -2.697,-13.697 -0.638,-2.91 3.123,-4.898 5.82,-2.839 2.697,2.058 8.588,10.291 9.723,13.343 1.136,3.051 0.497,6.174 -2.555,12.136 C 4.117,-4.755 1.301,0.383 0,0"
       style="fill:#fa6a54;fill-opacity:1;fill-rule:nonzero;stroke:#000000;stroke-width:0.677;stroke-linecap:round;stroke-linejoin:miter;stroke-miterlimit:10;stroke-dasharray:none;stroke-opacity:1"
       transform="matrix(1.3333333,0,0,-1.3333333,199.20733,367.27773)"
       clip-path="url(#clipPath3014)" />
    <path
       id="path3015"
       d="m 0,0 c -0.74,-4.522 -0.365,-9.116 -0.182,-13.667 -0.608,-5.907 -2.618,-11.545 -4.503,-17.137 -0.139,-0.408 -0.79,-0.194 -0.638,0.226 1.644,4.928 3.284,9.93 4.222,15.039 0.531,2.587 -0.081,5.162 -0.023,7.765 0.016,2.629 0.126,5.274 0.769,7.855 C -0.304,0.3 0.051,0.231 0,0"
       style="fill:#000000;fill-opacity:1;fill-rule:nonzero;stroke:none"
       transform="matrix(1.3333333,0,0,-1.3333333,201.5264,373.0096)"
       clip-path="url(#clipPath3016)" />
    <path
       id="path3017"
       d="m 0,0 c 2.373,-2.996 4.036,-6.616 4.377,-10.432 0.005,-0.093 -0.066,-0.173 -0.158,-0.178 -0.086,-0.005 -0.161,0.057 -0.176,0.14 -0.54,2.728 -1.633,5.339 -3.011,7.747 -0.477,0.796 -0.974,1.587 -1.55,2.288 C -0.798,-0.107 -0.278,0.335 0,0"
       style="fill:#000000;fill-opacity:1;fill-rule:nonzero;stroke:none"
       transform="matrix(1.3333333,0,0,-1.3333333,201.44827,375.48613)"
       clip-path="url(#clipPath3018)" />
    <path
       id="path3019"
       d="m 0,0 c 0.463,6.196 0,7.126 3.49,9.598 3.491,2.473 6.254,4.945 10.326,4.363 4.072,-0.581 7.417,-6.399 8.144,-9.598 0.727,-3.2 4.509,-13.234 0,-15.998 C 17.452,-14.398 4.508,-17.161 2.181,-12.362 -0.145,-7.562 -0.27,-3.615 0,0"
       style="fill:#fa6a54;fill-opacity:1;fill-rule:nonzero;stroke:none"
       transform="matrix(1.3333333,0,0,-1.3333333,172.10027,426.10947)"
       clip-path="url(#clipPath3020)" />
    <path
       id="path3021"
       d="m 0,0 c 0.314,4.212 -0.439,7.515 3.757,10.011 2.949,2.156 6.239,4.885 10.166,4.308 4.623,-0.917 7.302,-5.722 8.43,-9.925 C 22.377,4.283 22.307,4.174 22.197,4.149 22.086,4.124 21.978,4.194 21.952,4.303 20.404,9.496 15.736,15.819 9.667,13.022 7.738,12.235 5.837,10.724 4.11,9.517 2.958,8.693 1.707,7.844 1.201,6.484 0.526,4.415 0.641,2.136 0.384,-0.029 0.372,-0.271 -0.022,-0.249 0,0"
       style="fill:#000000;fill-opacity:1;fill-rule:nonzero;stroke:none"
       transform="matrix(1.3333333,0,0,-1.3333333,171.84413,426.09027)"
       clip-path="url(#clipPath3022)" />
    <path
       id="path3023"
       d="m 0,0 c -2.343,2.017 -4.946,5.337 -4.686,7.745 0.26,2.408 4.426,8.005 6.638,7.81 2.213,-0.196 7.29,-3.153 8.461,-7.141 1.172,-3.988 0,-6.787 0,-6.787 0,0 -4.49,-0.13 -10.413,-1.627"
       style="fill:#ffffff;fill-opacity:1;fill-rule:nonzero;stroke:none"
       transform="matrix(1.3333333,0,0,-1.3333333,182.38267,437.94653)"
       clip-path="url(#clipPath3024)" />
    <path
       id="path3025"
       d="m 0,0 c 0,3.609 -2.854,6.535 -6.374,6.535 -3.52,0 -6.373,-2.926 -6.373,-6.535 0,-3.609 2.853,-6.535 6.373,-6.535 C -2.854,-6.535 0,-3.609 0,0"
       style="fill:#b336e0;fill-opacity:1;fill-rule:nonzero;stroke:#000000;stroke-width:0.672;stroke-linecap:round;stroke-linejoin:miter;stroke-miterlimit:10;stroke-dasharray:none;stroke-opacity:1"
       transform="matrix(1.3333333,0,0,-1.3333333,197.66467,431.38107)"
       clip-path="url(#clipPath3026)" />
    <path
       id="path3027"
       d="M 0,0 C 0,2.255 -1.783,4.082 -3.981,4.082 -6.18,4.082 -7.962,2.255 -7.962,0 c 0,-2.255 1.782,-4.082 3.981,-4.082 C -1.783,-4.082 0,-2.255 0,0"
       style="fill:#000000;fill-opacity:1;fill-rule:nonzero;stroke:none"
       transform="matrix(1.3333333,0,0,-1.3333333,194.47493,431.38107)"
       clip-path="url(#clipPath3028)" />
    <path
       id="path3029"
       d="M 0,0 C 0,0 -4.491,-0.13 -10.413,-1.627"
       style="fill:none;stroke:#000000;stroke-width:0.677;stroke-linecap:round;stroke-linejoin:miter;stroke-miterlimit:10;stroke-dasharray:none;stroke-opacity:1"
       transform="matrix(1.3333333,0,0,-1.3333333,196.26693,435.7772)"
       clip-path="url(#clipPath3030)" />
    <path
       id="path3031"
       d="M 0,0 C 0.461,2.957 3.689,7.812 6.753,8.347 9.937,7.89 13.087,6.956 15.659,4.901 15.982,4.615 15.541,4.108 15.212,4.392 12.884,5.903 10.008,6.6 7.307,7.156 6.879,7.227 6.721,7.225 6.381,7.104 5.03,6.541 3.898,5.196 2.952,4.045 2.021,2.807 0.995,1.396 0.666,-0.108 0.599,-0.529 -0.069,-0.424 0,0"
       style="fill:#000000;fill-opacity:1;fill-rule:nonzero;stroke:none"
       transform="matrix(1.3333333,0,0,-1.3333333,175.68587,427.57147)"
       clip-path="url(#clipPath3032)" />
    <path
       id="path3033"
       d="M 0,0 C 0.807,-0.11 1.721,-0.424 2.303,-1.002 2.366,-1.052 2.376,-1.145 2.325,-1.208 2.279,-1.265 2.199,-1.278 2.138,-1.242 1.434,-0.765 0.752,-0.674 -0.075,-0.673 -0.557,-0.654 -0.476,0.088 0,0"
       style="fill:#000000;fill-opacity:1;fill-rule:nonzero;stroke:none"
       transform="matrix(1.3333333,0,0,-1.3333333,196.3168,435.32853)"
       clip-path="url(#clipPath3034)" />
    <path
       id="path3035"
       d="m 0,0 c -0.929,-1.129 -2.331,-1.51 -3.131,-0.852 -0.801,0.659 -0.697,2.108 0.232,3.237 0.929,1.129 2.331,1.51 3.131,0.852 C 1.033,2.578 0.929,1.129 0,0"
       style="fill:#ffffff;fill-opacity:1;fill-rule:nonzero;stroke:none"
       transform="matrix(1.3333333,0,0,-1.3333333,187.09493,429.45227)"
       clip-path="url(#clipPath3036)" />
    <path
       id="path3037"
       d="m 0,0 c -2.195,-2.056 -5.727,-6.312 -17.348,-3.793 -11.621,2.519 -8.529,8.229 -7.498,10.527 1.03,2.297 7.096,10.312 7.498,10.312 0.402,0 -0.86,-5.267 -0.343,-6.985 C -17.175,8.344 -14.77,4.68 -7.9,8 -1.031,11.321 2.537,11.817 3.69,8.667 4.606,6.167 1.594,1.493 0,0"
       style="fill:#87366a;fill-opacity:1;fill-rule:nonzero;stroke:none"
       transform="matrix(1.3333333,0,0,-1.3333333,162.86027,426.728)"
       clip-path="url(#clipPath3038)" />
    <path
       id="path3039"
       d="m 0,0 c -4.319,-9.764 -14.243,-10.167 -23.249,-7.267 -11.109,3.596 -4.151,11.846 0.379,17.857 0.788,0.946 1.435,2.002 2.404,2.79 0.088,0.027 0.17,0.094 0.386,-0.028 0.204,-0.2 0.154,-0.28 0.182,-0.35 -0.025,-1.74 -0.473,-3.451 -0.526,-5.15 -0.415,-2.999 2.484,-5.23 5.332,-4.78 1.418,0.139 2.794,0.631 4.165,1.146 0.203,0.088 0.356,-0.224 0.159,-0.331 -3.583,-2.261 -9.484,-2.296 -10.3,2.849 -0.132,2.089 0.444,4.146 0.522,6.183 0.011,0.019 -0.05,0.04 0.086,-0.098 0.318,-0.123 0.291,0.024 0.268,-0.039 -0.017,-0.011 -0.047,-0.04 -0.077,-0.069 -2.611,-3.017 -5.05,-6.334 -7.076,-9.764 -2.739,-4.94 -0.759,-7.956 4.313,-9.582 6.882,-2.175 15.103,-2.789 20.185,3.263 0.974,1.049 1.806,2.261 2.583,3.501 C -0.185,0.288 0.074,0.16 0,0"
       style="fill:#000000;fill-opacity:1;fill-rule:nonzero;stroke:none"
       transform="matrix(1.3333333,0,0,-1.3333333,166.78947,421.464)"
       clip-path="url(#clipPath3040)" />
    <path
       id="path3041"
       d="M 0,0 C -0.119,-2.576 -0.803,-5.195 0.583,-7.519 0.635,-7.605 0.607,-7.717 0.521,-7.769 0.443,-7.816 0.341,-7.794 0.285,-7.725 -1.428,-5.546 -1.004,-2.477 -0.676,0.036 -0.649,0.463 0.02,0.428 0,0"
       style="fill:#000000;fill-opacity:1;fill-rule:nonzero;stroke:none"
       transform="matrix(1.3333333,0,0,-1.3333333,139.56547,411.21333)"
       clip-path="url(#clipPath3042)" />
  </g>
</svg>
