<?xml version="1.0" encoding="UTF-8" standalone="no"?>
<!-- Created with Inkscape (http://www.inkscape.org/) -->

<svg
   version="1.1"
   id="svg1"
   width="73.065079"
   height="87.370483"
   viewBox="0 0 73.065078 87.370482"
   xmlns="http://www.w3.org/2000/svg"
   xmlns:svg="http://www.w3.org/2000/svg">
  <defs
     id="defs1">
    <clipPath
       clipPathUnits="userSpaceOnUse"
       id="clipPath3044">
      <path
         d="M 0,841.89 H 688.077 V 0 H 0 Z"
         transform="translate(-424.10441,-154.77981)"
         id="path3044" />
    </clipPath>
    <clipPath
       clipPathUnits="userSpaceOnUse"
       id="clipPath3046">
      <path
         d="M 0,841.89 H 688.077 V 0 H 0 Z"
         transform="translate(-412.13641,-126.95421)"
         id="path3046" />
    </clipPath>
    <clipPath
       clipPathUnits="userSpaceOnUse"
       id="clipPath3048">
      <path
         d="M 0,841.89 H 688.077 V 0 H 0 Z"
         transform="translate(-414.45371,-134.95671)"
         id="path3048" />
    </clipPath>
    <clipPath
       clipPathUnits="userSpaceOnUse"
       id="clipPath3050">
      <path
         d="M 0,841.89 H 688.077 V 0 H 0 Z"
         transform="translate(-412.73191,-127.4071)"
         id="path3050" />
    </clipPath>
    <clipPath
       clipPathUnits="userSpaceOnUse"
       id="clipPath3052">
      <path
         d="M 0,841.89 H 688.077 V 0 H 0 Z"
         transform="translate(-418.89681,-140.59101)"
         id="path3052" />
    </clipPath>
    <clipPath
       clipPathUnits="userSpaceOnUse"
       id="clipPath3054">
      <path
         d="M 0,841.89 H 688.077 V 0 H 0 Z"
         transform="translate(-423.85631,-152.4879)"
         id="path3054" />
    </clipPath>
    <clipPath
       clipPathUnits="userSpaceOnUse"
       id="clipPath3056">
      <path
         d="M 0,841.89 H 688.077 V 0 H 0 Z"
         transform="translate(-406.11101,-123.5718)"
         id="path3056" />
    </clipPath>
    <clipPath
       clipPathUnits="userSpaceOnUse"
       id="clipPath3058">
      <path
         d="M 0,841.89 H 688.077 V 0 H 0 Z"
         transform="translate(-401.67161,-133.30731)"
         id="path3058" />
    </clipPath>
    <clipPath
       clipPathUnits="userSpaceOnUse"
       id="clipPath3060">
      <path
         d="M 0,841.89 H 688.077 V 0 H 0 Z"
         transform="translate(-397.44031,-128.00331)"
         id="path3060" />
    </clipPath>
    <clipPath
       clipPathUnits="userSpaceOnUse"
       id="clipPath3062">
      <path
         d="M 0,841.89 H 688.077 V 0 H 0 Z"
         transform="translate(-408.21621,-137.49351)"
         id="path3062" />
    </clipPath>
    <clipPath
       clipPathUnits="userSpaceOnUse"
       id="clipPath3064">
      <path
         d="M 0,841.89 H 688.077 V 0 H 0 Z"
         transform="translate(-408.31851,-137.3881)"
         id="path3064" />
    </clipPath>
    <clipPath
       clipPathUnits="userSpaceOnUse"
       id="clipPath3066">
      <path
         d="M 0,841.89 H 688.077 V 0 H 0 Z"
         transform="translate(-408.74041,-153.2041)"
         id="path3066" />
    </clipPath>
    <clipPath
       clipPathUnits="userSpaceOnUse"
       id="clipPath3068">
      <path
         d="M 0,841.89 H 688.077 V 0 H 0 Z"
         transform="translate(-408.16421,-152.01651)"
         id="path3068" />
    </clipPath>
    <clipPath
       clipPathUnits="userSpaceOnUse"
       id="clipPath3070">
      <path
         d="M 0,841.89 H 688.077 V 0 H 0 Z"
         transform="translate(-390.40151,-158.9022)"
         id="path3070" />
    </clipPath>
    <clipPath
       clipPathUnits="userSpaceOnUse"
       id="clipPath3072">
      <path
         d="M 0,841.89 H 688.077 V 0 H 0 Z"
         transform="translate(-422.17461,-184.80951)"
         id="path3072" />
    </clipPath>
    <clipPath
       clipPathUnits="userSpaceOnUse"
       id="clipPath3074">
      <path
         d="M 0,841.89 H 688.077 V 0 H 0 Z"
         transform="translate(-414.44301,-183.58221)"
         id="path3074" />
    </clipPath>
    <clipPath
       clipPathUnits="userSpaceOnUse"
       id="clipPath3076">
      <path
         d="M 0,841.89 H 688.077 V 0 H 0 Z"
         transform="translate(-415.67991,-184.5316)"
         id="path3076" />
    </clipPath>
    <clipPath
       clipPathUnits="userSpaceOnUse"
       id="clipPath3078">
      <path
         d="M 0,841.89 H 688.077 V 0 H 0 Z"
         transform="translate(-422.83891,-150.2022)"
         id="path3078" />
    </clipPath>
    <clipPath
       clipPathUnits="userSpaceOnUse"
       id="clipPath3080">
      <path
         d="M 0,841.89 H 688.077 V 0 H 0 Z"
         transform="translate(-416.79671,-158.8908)"
         id="path3080" />
    </clipPath>
    <clipPath
       clipPathUnits="userSpaceOnUse"
       id="clipPath3082">
      <path
         d="M 0,841.89 H 688.077 V 0 H 0 Z"
         transform="translate(-427.24241,-169.95201)"
         id="path3082" />
    </clipPath>
    <clipPath
       clipPathUnits="userSpaceOnUse"
       id="clipPath3084">
      <path
         d="m 429.863,175.845 c -1.744,-0.168 -2.917,-2.806 -2.62,-5.893 v 0 c 0.296,-3.087 1.95,-5.455 3.693,-5.287 v 0 c 1.744,0.167 2.918,2.806 2.621,5.893 v 0 c -0.286,2.984 -1.841,5.295 -3.519,5.295 v 0 c -0.058,0 -0.116,-0.003 -0.175,-0.008"
         transform="translate(-426.78011,-169.08711)"
         id="path3084" />
    </clipPath>
    <clipPath
       clipPathUnits="userSpaceOnUse"
       id="clipPath3086">
      <path
         d="m 429.863,175.845 c -1.744,-0.168 -2.917,-2.806 -2.62,-5.893 v 0 c 0.296,-3.087 1.95,-5.455 3.693,-5.287 v 0 c 1.744,0.167 2.918,2.806 2.621,5.893 v 0 c -0.286,2.984 -1.841,5.295 -3.519,5.295 v 0 c -0.058,0 -0.116,-0.003 -0.175,-0.008"
         transform="translate(-426.54551,-168.3946)"
         id="path3086" />
    </clipPath>
    <clipPath
       clipPathUnits="userSpaceOnUse"
       id="clipPath3088">
      <path
         d="M 0,841.89 H 688.077 V 0 H 0 Z"
         transform="translate(-433.03971,-172.3675)"
         id="path3088" />
    </clipPath>
    <clipPath
       clipPathUnits="userSpaceOnUse"
       id="clipPath3090">
      <path
         d="M 0,841.89 H 688.077 V 0 H 0 Z"
         transform="translate(-428.91261,-170.403)"
         id="path3090" />
    </clipPath>
    <clipPath
       clipPathUnits="userSpaceOnUse"
       id="clipPath3092">
      <path
         d="M 0,841.89 H 688.077 V 0 H 0 Z"
         transform="translate(-407.35351,-165.2349)"
         id="path3092" />
    </clipPath>
    <clipPath
       clipPathUnits="userSpaceOnUse"
       id="clipPath3094">
      <path
         d="M 0,841.89 H 688.077 V 0 H 0 Z"
         transform="translate(-406.72821,-170.0199)"
         id="path3094" />
    </clipPath>
    <clipPath
       clipPathUnits="userSpaceOnUse"
       id="clipPath3096">
      <path
         d="M 0,841.89 H 688.077 V 0 H 0 Z"
         transform="translate(-408.72331,-166.84821)"
         id="path3096" />
    </clipPath>
    <clipPath
       clipPathUnits="userSpaceOnUse"
       id="clipPath3098">
      <path
         d="M 0,841.89 H 688.077 V 0 H 0 Z"
         transform="translate(-410.38641,-166.5106)"
         id="path3098" />
    </clipPath>
    <clipPath
       clipPathUnits="userSpaceOnUse"
       id="clipPath3100">
      <path
         d="M 0,841.89 H 688.077 V 0 H 0 Z"
         transform="translate(-413.58821,-166.79451)"
         id="path3100" />
    </clipPath>
    <clipPath
       clipPathUnits="userSpaceOnUse"
       id="clipPath3102">
      <path
         d="M 0,841.89 H 688.077 V 0 H 0 Z"
         transform="translate(-431.34811,-155.385)"
         id="path3102" />
    </clipPath>
    <clipPath
       clipPathUnits="userSpaceOnUse"
       id="clipPath3104">
      <path
         d="M 0,841.89 H 688.077 V 0 H 0 Z"
         transform="translate(-425.97821,-162.9247)"
         id="path3104" />
    </clipPath>
  </defs>
  <g
     id="layer-MC5"
     transform="translate(-507.82133,-873.44093)">
    <path
       id="path3043"
       d="m 0,0 c 0.898,-4.783 2.125,-9.797 -0.596,-12.056 -2.72,-2.259 -12.7,-2.793 -15.401,-2.637 -2.701,0.157 -7.685,1.494 -1.152,6.215 0,0 2.568,6.515 9.796,9.957 C -0.124,4.921 -0.248,1.319 0,0"
       style="fill:#feeb7c;fill-opacity:1;fill-rule:nonzero;stroke:#000000;stroke-width:0.686;stroke-linecap:round;stroke-linejoin:miter;stroke-miterlimit:10;stroke-dasharray:none;stroke-opacity:1"
       transform="matrix(1.3333333,0,0,-1.3333333,565.47253,916.14693)"
       clip-path="url(#clipPath3044)" />
    <path
       id="path3045"
       d="m 0,0 c -1.687,-1.788 -3.72,-4.336 -2.928,-4.775 0.792,-0.44 5.312,2.727 6.336,2.991 1.025,0.264 7.668,-2.683 8.108,-1.804 0.44,0.88 -6.788,4.712 -8.108,5.064 C 2.088,1.828 0.792,0.839 0,0"
       style="fill:#f9ba47;fill-opacity:1;fill-rule:nonzero;stroke:#000000;stroke-width:0.686;stroke-linecap:round;stroke-linejoin:miter;stroke-miterlimit:10;stroke-dasharray:none;stroke-opacity:1"
       transform="matrix(1.3333333,0,0,-1.3333333,549.5152,953.24773)"
       clip-path="url(#clipPath3046)" />
    <path
       id="path3047"
       d="M 0,0 C 0.529,-2.166 1.451,-5.831 1.709,-6.966 1.967,-8.101 -1.388,-10.011 -1.774,-7.276 -2.161,-4.541 -2.898,-0.782 -2.986,0 -3.075,0.782 -0.369,1.509 0,0"
       style="fill:#f9ba47;fill-opacity:1;fill-rule:nonzero;stroke:none"
       transform="matrix(1.3333333,0,0,-1.3333333,552.60493,942.57773)"
       clip-path="url(#clipPath3048)" />
    <path
       id="path3049"
       d="m 0,0 c -0.387,2.735 -1.176,6.767 -1.265,7.55 -0.089,0.782 2.618,1.509 2.987,0 C 2.251,5.384 3.173,1.719 3.431,0.583"
       style="fill:none;stroke:#000000;stroke-width:0.686;stroke-linecap:round;stroke-linejoin:miter;stroke-miterlimit:10;stroke-dasharray:none;stroke-opacity:1"
       transform="matrix(1.3333333,0,0,-1.3333333,550.3092,952.64387)"
       clip-path="url(#clipPath3050)" />
    <path
       id="path3051"
       d="m 0,0 c -1.265,-2.506 -3.854,-6.982 -5.63,-7.038 -1.776,-0.055 -6.105,3.237 -6.827,4.671 -0.721,1.434 2.331,3.543 6.66,4.209 C -1.468,2.508 0.694,1.376 0,0"
       style="fill:#feeb7c;fill-opacity:1;fill-rule:nonzero;stroke:#000000;stroke-width:0.686;stroke-linecap:round;stroke-linejoin:miter;stroke-miterlimit:10;stroke-dasharray:none;stroke-opacity:1"
       transform="matrix(1.3333333,0,0,-1.3333333,558.52907,935.06533)"
       clip-path="url(#clipPath3052)" />
    <path
       id="path3053"
       d="m 0,0 c -0.58,-2.66 -1.987,-9.76 -6.799,-13.748 -4.811,-3.989 -14.149,-5.464 -19.862,-3.365 -5.713,2.099 -11.981,15.351 -13.184,17.113 -1.202,1.762 -3.228,4.041 -2.722,5.307 0.507,1.266 6.078,2.785 9.37,3.545 3.292,0.759 20.827,2.405 27.284,-0.76 C -0.292,5.337 0.475,2.177 0,0"
       style="fill:#feeb7c;fill-opacity:1;fill-rule:nonzero;stroke:#000000;stroke-width:0.686;stroke-linecap:round;stroke-linejoin:miter;stroke-miterlimit:10;stroke-dasharray:none;stroke-opacity:1"
       transform="matrix(1.3333333,0,0,-1.3333333,565.14173,919.2028)"
       clip-path="url(#clipPath3054)" />
    <path
       id="path3055"
       d="m 0,0 c -2.556,2.107 -5.72,4.796 -7.304,4.928 -1.584,0.132 -4.839,-3.168 -6.247,-5.104 -1.408,-1.936 -0.264,-2.244 1.628,-1.1 1.892,1.144 4.003,2.42 5.015,2.508 C -5.896,1.32 -2.112,-0.88 -1.1,-1.408 -0.088,-1.936 1.83,-1.508 0,0"
       style="fill:#f9ba47;fill-opacity:1;fill-rule:nonzero;stroke:#000000;stroke-width:0.686;stroke-linecap:round;stroke-linejoin:miter;stroke-miterlimit:10;stroke-dasharray:none;stroke-opacity:1"
       transform="matrix(1.3333333,0,0,-1.3333333,541.48133,957.7576)"
       clip-path="url(#clipPath3056)" />
    <path
       id="path3057"
       d="m 0,0 c -0.397,-1.965 -0.826,-4.169 -0.826,-5.768 0,-1.6 -3.612,-2.219 -3.405,0.464 0.206,2.683 0.67,6.192 1.135,7.327 C -2.632,3.159 0.504,2.494 0,0"
       style="fill:#f9ba47;fill-opacity:1;fill-rule:nonzero;stroke:none"
       transform="matrix(1.3333333,0,0,-1.3333333,535.56213,944.77693)"
       clip-path="url(#clipPath3058)" />
    <path
       id="path3059"
       d="M 0,0 C 0.206,2.683 0.671,6.192 1.135,7.327 1.6,8.463 4.736,7.798 4.231,5.304 3.834,3.339 3.406,1.135 3.406,-0.464"
       style="fill:none;stroke:#000000;stroke-width:0.686;stroke-linecap:round;stroke-linejoin:miter;stroke-miterlimit:10;stroke-dasharray:none;stroke-opacity:1"
       transform="matrix(1.3333333,0,0,-1.3333333,529.9204,951.84893)"
       clip-path="url(#clipPath3060)" />
    <path
       id="path3061"
       d="m 0,0 c -3.06,-2.97 -5.661,-5.494 -8.325,-4.773 -2.663,0.722 -4.051,4.884 -4.606,7.825 -0.555,2.942 4.995,4.361 8.935,2.403 C -0.055,3.496 1.571,1.525 0,0"
       style="fill:#feeb7c;fill-opacity:1;fill-rule:nonzero;stroke:none"
       transform="matrix(1.3333333,0,0,-1.3333333,544.28827,939.19533)"
       clip-path="url(#clipPath3062)" />
    <path
       id="path3063"
       d="m 0,0 c -6.058,-7.585 -11.763,-6.985 -13.165,3.133 -0.013,0.155 0.219,0.201 0.263,0.05 1.329,-4.6 3.49,-10.371 8.958,-6.044 1.266,0.96 2.417,2.104 3.739,3.071 C -0.075,0.314 0.109,0.129 0,0"
       style="fill:#000000;fill-opacity:1;fill-rule:nonzero;stroke:none"
       transform="matrix(1.3333333,0,0,-1.3333333,544.42467,939.33587)"
       clip-path="url(#clipPath3064)" />
    <path
       id="path3065"
       d="M 0,0 C -2.574,-4.13 -5.062,-8.653 -8.594,-8.476 -12.126,-8.3 -19.836,-1.943 -21.72,0 c -1.884,1.942 -4.65,6.298 3.355,5.356 0,0 6.298,3.061 13.95,0.707 C 3.237,3.708 0.71,1.139 0,0"
       style="fill:#feeb7c;fill-opacity:1;fill-rule:nonzero;stroke:none"
       transform="matrix(1.3333333,0,0,-1.3333333,544.9872,918.24787)"
       clip-path="url(#clipPath3066)" />
    <path
       id="path3067"
       d="m 0,0 c -4.353,-7.924 -7.043,-10.007 -14.94,-4.311 -2.58,1.871 -5.146,3.694 -7.249,6.139 -0.681,0.879 -1.378,1.97 -1.345,3.162 0.436,2.561 3.9,2.016 5.785,1.895 1.517,0.922 5.401,1.651 7.855,1.429 0.209,-0.014 0.211,-0.332 0.002,-0.347 -2.646,-0.235 -5.301,-0.693 -7.747,-1.731 -0.08,-0.041 -0.102,-0.044 -0.19,-0.032 -1.423,0.103 -3.131,0.323 -4.393,-0.357 -3.329,-2.629 9.348,-10.971 11.654,-11.992 4.95,-2.956 7.861,2.941 10.338,6.287 C -0.145,0.278 0.084,0.142 0,0"
       style="fill:#000000;fill-opacity:1;fill-rule:nonzero;stroke:none"
       transform="matrix(1.3333333,0,0,-1.3333333,544.21893,919.83133)"
       clip-path="url(#clipPath3068)" />
    <path
       id="path3069"
       d="M 0,0 C 2.925,-0.231 5.763,-1.019 8.553,-1.884 8.642,-1.914 8.69,-2.011 8.661,-2.1 8.633,-2.182 8.547,-2.229 8.465,-2.213 c -2.128,0.432 -4.254,0.874 -6.392,1.234 -0.711,0.11 -1.421,0.217 -2.125,0.295 -0.189,0.019 -0.326,0.188 -0.307,0.376 C -0.34,-0.126 -0.18,0.007 0,0"
       style="fill:#000000;fill-opacity:1;fill-rule:nonzero;stroke:none"
       transform="matrix(1.3333333,0,0,-1.3333333,520.53533,910.6504)"
       clip-path="url(#clipPath3070)" />
    <path
       id="path3071"
       d="M 0,0 C 4.073,-1.075 11.659,-3.13 12.947,-13.193 14.236,-23.256 9.388,-32.89 -4.234,-33.135 -17.856,-33.381 -26.386,-19.801 -23.256,-10.453 -20.127,-1.104 -8.836,2.332 0,0"
       style="fill:#feeb7c;fill-opacity:1;fill-rule:nonzero;stroke:#000000;stroke-width:0.686;stroke-linecap:round;stroke-linejoin:miter;stroke-miterlimit:10;stroke-dasharray:none;stroke-opacity:1"
       transform="matrix(1.3333333,0,0,-1.3333333,562.89947,876.10733)"
       clip-path="url(#clipPath3072)" />
    <path
       id="path3073"
       d="m 0,0 c 0.938,0.651 7.793,4.725 10.063,2.025 2.271,-2.7 1.78,-7.67 0.798,-8.161 -0.982,-0.491 -1.964,1.595 -1.964,1.411 0,-0.184 2.025,-4.111 0.737,-4.479 C 8.345,-9.572 5.154,-5.093 2.638,-3.682 0.123,-2.27 -1.659,-1.151 0,0"
       style="fill:#feeb7c;fill-opacity:1;fill-rule:nonzero;stroke:none"
       transform="matrix(1.3333333,0,0,-1.3333333,552.59067,877.74373)"
       clip-path="url(#clipPath3074)" />
    <path
       id="path3075"
       d="m 0,0 c 2.225,1.438 4.881,2.632 7.632,2.181 0.317,-0.11 0.731,-0.266 0.999,-0.47 1.822,-1.638 2.294,-4.326 2.132,-6.67 -0.13,-0.813 -0.183,-2.06 -1.122,-2.5 -0.983,-0.354 -1.963,1.084 -2.164,1.507 0.241,-0.175 0.548,0.061 0.534,0.289 0,-10e-4 0.001,0.017 0.001,0.017 -0.016,0.048 0.02,-0.046 0.027,-0.062 0.475,-1.172 1.047,-2.329 1.123,-3.63 -0.08,-1.925 -1.853,-1.036 -2.685,-0.216 -1.02,0.882 -1.908,1.841 -2.736,2.867 -0.053,0.065 -0.043,0.161 0.022,0.213 0.054,0.044 0.13,0.044 0.184,0.005 1.082,-0.776 1.989,-1.743 2.958,-2.581 0.363,-0.302 0.982,-0.823 1.401,-0.78 0.111,0.021 0.181,0.189 0.181,0.485 C 8.412,-8.263 7.915,-7.207 7.496,-6.2 7.426,-6.019 7.343,-5.889 7.315,-5.683 7.285,-5.416 7.663,-5.184 7.9,-5.405 8.301,-5.89 8.613,-6.553 9.165,-6.779 9.37,-6.844 9.478,-6.802 9.602,-6.61 10.649,-4.437 10.067,0.661 7.461,1.544 4.954,2.071 2.477,0.559 0.171,-0.311 -0.014,-0.389 -0.163,-0.115 0,0"
       style="fill:#000000;fill-opacity:1;fill-rule:nonzero;stroke:none"
       transform="matrix(1.3333333,0,0,-1.3333333,554.23987,876.47787)"
       clip-path="url(#clipPath3076)" />
    <path
       id="path3077"
       d="m 0,0 c -2.252,0.622 -5.071,2.881 -6.301,5.108 -1.23,2.227 -1.571,4.51 -1.025,4.847 0.547,0.337 3.741,-0.16 3.946,-1.031 C -3.175,8.053 0,0 0,0"
       style="fill:#f9ba47;fill-opacity:1;fill-rule:nonzero;stroke:#000000;stroke-width:0.686;stroke-linecap:round;stroke-linejoin:miter;stroke-miterlimit:10;stroke-dasharray:none;stroke-opacity:1"
       transform="matrix(1.3333333,0,0,-1.3333333,563.7852,922.2504)"
       clip-path="url(#clipPath3078)" />
    <path
       id="path3079"
       d="m 0,0 c 0.451,-1.47 2.508,-6.208 4.456,-7.708 1.948,-1.5 3.229,-1.971 3.69,2.192 C 8.607,-1.354 9.017,-1.465 8.812,0 8.607,1.465 6.147,1.67 4.2,1.619 2.253,1.568 -0.317,1.035 0,0"
       style="fill:#43260f;fill-opacity:1;fill-rule:nonzero;stroke:#000000;stroke-width:0.686;stroke-linecap:round;stroke-linejoin:miter;stroke-miterlimit:10;stroke-dasharray:none;stroke-opacity:1"
       transform="matrix(1.3333333,0,0,-1.3333333,555.72893,910.6656)"
       clip-path="url(#clipPath3080)" />
    <path
       id="path3081"
       d="M 0,0 C 0.296,-3.087 1.95,-5.454 3.694,-5.287 5.438,-5.119 6.611,-2.481 6.315,0.606 6.018,3.693 4.365,6.06 2.621,5.893 0.877,5.726 -0.296,3.087 0,0"
       style="fill:#ffffff;fill-opacity:1;fill-rule:nonzero;stroke:none"
       transform="matrix(1.3333333,0,0,-1.3333333,569.65653,895.91733)"
       clip-path="url(#clipPath3082)" />
    <path
       id="path3083"
       d="M 0,0 C 0.25,-2.603 1.822,-4.582 3.51,-4.419 5.199,-4.257 6.366,-2.016 6.116,0.587 5.866,3.19 4.294,5.169 2.606,5.007 0.917,4.844 -0.25,2.603 0,0"
       style="fill:#37b6dd;fill-opacity:1;fill-rule:nonzero;stroke:#000000;stroke-width:0.686;stroke-linecap:round;stroke-linejoin:miter;stroke-miterlimit:10;stroke-dasharray:none;stroke-opacity:1"
       transform="matrix(1.3333333,0,0,-1.3333333,569.04013,897.07053)"
       clip-path="url(#clipPath3084)" />
    <path
       id="path3085"
       d="M 0,0 C 0.16,-1.672 1.363,-2.924 2.685,-2.797 4.008,-2.67 4.95,-1.212 4.79,0.46 4.629,2.132 3.427,3.384 2.104,3.257 0.782,3.13 -0.161,1.672 0,0"
       style="fill:#000000;fill-opacity:1;fill-rule:nonzero;stroke:none"
       transform="matrix(1.3333333,0,0,-1.3333333,568.72733,897.99387)"
       clip-path="url(#clipPath3086)" />
    <path
       id="path3087"
       d="m 0,0 c -1.546,4.051 -4.533,4.355 -5.62,-0.139 -0.017,-0.068 -0.085,-0.109 -0.152,-0.093 -0.06,0.014 -0.099,0.071 -0.096,0.131 0.053,0.835 0.253,1.68 0.685,2.446 1.956,3.231 5.062,0.498 5.494,-2.251 C 0.356,-0.098 0.07,-0.182 0,0"
       style="fill:#000000;fill-opacity:1;fill-rule:nonzero;stroke:none"
       transform="matrix(1.3333333,0,0,-1.3333333,577.38627,892.69667)"
       clip-path="url(#clipPath3088)" />
    <path
       id="path3089"
       d="M 0,0 C 0.511,-1.179 1.523,-1.876 2.259,-1.557 2.995,-1.238 3.177,-0.023 2.666,1.156 2.155,2.335 1.143,3.032 0.407,2.713 -0.329,2.394 -0.511,1.179 0,0"
       style="fill:#ffffff;fill-opacity:1;fill-rule:nonzero;stroke:none"
       transform="matrix(1.3333333,0,0,-1.3333333,571.88347,895.316)"
       clip-path="url(#clipPath3090)" />
    <path
       id="path3091"
       d="M 0,0 C -1.571,3.038 -0.544,6.691 2.294,8.159 5.132,9.627 8.707,8.354 10.279,5.316 11.85,2.277 10.823,-1.376 7.985,-2.844 5.146,-4.311 1.571,-3.038 0,0"
       style="fill:#ffffff;fill-opacity:1;fill-rule:nonzero;stroke:none"
       transform="matrix(1.3333333,0,0,-1.3333333,543.138,902.2068)"
       clip-path="url(#clipPath3092)" />
    <path
       id="path3093"
       d="M 0,0 C 1.281,5.601 8.948,5.667 11.093,0.629 11.203,0.392 10.844,0.204 10.714,0.433 8.301,4.672 2.033,4.741 0.281,-0.083 0.225,-0.249 -0.044,-0.172 0,0"
       style="fill:#000000;fill-opacity:1;fill-rule:nonzero;stroke:none"
       transform="matrix(1.3333333,0,0,-1.3333333,542.30427,895.8268)"
       clip-path="url(#clipPath3094)" />
    <path
       id="path3095"
       d="M 0,0 C 0,2.647 2.146,4.793 4.793,4.793 7.44,4.793 9.586,2.647 9.586,0 9.586,-2.647 7.44,-4.793 4.793,-4.793 2.146,-4.793 0,-2.647 0,0"
       style="fill:#37b6dd;fill-opacity:1;fill-rule:nonzero;stroke:#000000;stroke-width:0.686;stroke-linecap:round;stroke-linejoin:miter;stroke-miterlimit:10;stroke-dasharray:none;stroke-opacity:1"
       transform="matrix(1.3333333,0,0,-1.3333333,544.9644,900.05573)"
       clip-path="url(#clipPath3096)" />
    <path
       id="path3097"
       d="M 0,0 C 0,1.915 1.553,3.468 3.468,3.468 5.383,3.468 6.935,1.915 6.935,0 6.935,-1.915 5.383,-3.468 3.468,-3.468 1.553,-3.468 0,-1.915 0,0"
       style="fill:#000000;fill-opacity:1;fill-rule:nonzero;stroke:none"
       transform="matrix(1.3333333,0,0,-1.3333333,547.18187,900.50587)"
       clip-path="url(#clipPath3098)" />
    <path
       id="path3099"
       d="M 0,0 C 1.171,-0.956 2.726,-0.99 3.473,-0.075 4.22,0.84 3.876,2.357 2.705,3.313 1.534,4.27 -0.022,4.303 -0.768,3.388 -1.515,2.473 -1.171,0.956 0,0"
       style="fill:#ffffff;fill-opacity:1;fill-rule:nonzero;stroke:none"
       transform="matrix(1.3333333,0,0,-1.3333333,551.45093,900.12733)"
       clip-path="url(#clipPath3100)" />
    <path
       id="path3101"
       d="m 0,0 c -0.217,4.464 -2.409,10.71 -4.305,10.762 -1.896,0.051 -6.047,-3.141 -6.559,-3.697 -0.512,-0.557 -4.612,-1.825 -4.971,-2.293 -0.358,-0.467 2.05,-2.126 5.381,-2.45 C -7.123,1.999 -5.432,1.23 -2.818,-0.41 -0.205,-2.05 0.075,-1.544 0,0"
       style="fill:#f9ba47;fill-opacity:1;fill-rule:nonzero;stroke:#000000;stroke-width:0.686;stroke-linecap:round;stroke-linejoin:miter;stroke-miterlimit:10;stroke-dasharray:none;stroke-opacity:1"
       transform="matrix(1.3333333,0,0,-1.3333333,575.1308,915.34)"
       clip-path="url(#clipPath3102)" />
    <path
       id="path3103"
       d="M 0,0 C -0.337,0.208 -0.647,0.456 -0.834,0.418 -1.104,0.386 -1.35,0.1 -1.598,-0.079 c -0.49,-0.169 -0.114,0.566 0.053,0.732 0.31,0.425 1.045,0.468 1.39,0.063 C 0.033,0.564 0.534,-0.108 0,0"
       style="fill:#000000;fill-opacity:1;fill-rule:nonzero;stroke:none"
       transform="matrix(1.3333333,0,0,-1.3333333,567.97093,905.28707)"
       clip-path="url(#clipPath3104)" />
  </g>
</svg>
