<?xml version="1.0" encoding="UTF-8" standalone="no"?>
<!-- Created with Inkscape (http://www.inkscape.org/) -->

<svg
   version="1.1"
   id="svg1"
   width="132.77832"
   height="222.6579"
   viewBox="0 0 132.77832 222.65789"
   xmlns="http://www.w3.org/2000/svg"
   xmlns:svg="http://www.w3.org/2000/svg">
  <defs
     id="defs1">
    <clipPath
       clipPathUnits="userSpaceOnUse"
       id="clipPath6219">
      <path
         d="M 0,841.89 H 688.077 V 0 H 0 Z"
         transform="translate(-113.56611,-266.6635)"
         id="path6219" />
    </clipPath>
    <clipPath
       clipPathUnits="userSpaceOnUse"
       id="clipPath6221">
      <path
         d="M 0,841.89 H 688.077 V 0 H 0 Z"
         transform="translate(-113.5872,-266.647)"
         id="path6221" />
    </clipPath>
    <clipPath
       clipPathUnits="userSpaceOnUse"
       id="clipPath6223">
      <path
         d="M 0,841.89 H 688.077 V 0 H 0 Z"
         transform="translate(-113.56611,-266.6635)"
         id="path6223" />
    </clipPath>
    <clipPath
       clipPathUnits="userSpaceOnUse"
       id="clipPath6225">
      <path
         d="M 0,841.89 H 688.077 V 0 H 0 Z"
         transform="translate(-113.5872,-266.647)"
         id="path6225" />
    </clipPath>
    <clipPath
       clipPathUnits="userSpaceOnUse"
       id="clipPath6227">
      <path
         d="M 0,841.89 H 688.077 V 0 H 0 Z"
         transform="translate(-126.00081,-244.9888)"
         id="path6227" />
    </clipPath>
    <clipPath
       clipPathUnits="userSpaceOnUse"
       id="clipPath6229">
      <path
         d="M 0,841.89 H 688.077 V 0 H 0 Z"
         transform="translate(-126.9178,-260.33841)"
         id="path6229" />
    </clipPath>
    <clipPath
       clipPathUnits="userSpaceOnUse"
       id="clipPath6231">
      <path
         d="M 0,841.89 H 688.077 V 0 H 0 Z"
         transform="translate(-132.44121,-235.0327)"
         id="path6231" />
    </clipPath>
    <clipPath
       clipPathUnits="userSpaceOnUse"
       id="clipPath6233">
      <path
         d="M 0,841.89 H 688.077 V 0 H 0 Z"
         transform="translate(-137.6038,-227.00151)"
         id="path6233" />
    </clipPath>
    <clipPath
       clipPathUnits="userSpaceOnUse"
       id="clipPath6235">
      <path
         d="M 0,841.89 H 688.077 V 0 H 0 Z"
         transform="translate(-123.14661,-270.73231)"
         id="path6235" />
    </clipPath>
    <clipPath
       clipPathUnits="userSpaceOnUse"
       id="clipPath6237">
      <path
         d="M 0,841.89 H 688.077 V 0 H 0 Z"
         transform="translate(-123.15561,-270.70711)"
         id="path6237" />
    </clipPath>
    <clipPath
       clipPathUnits="userSpaceOnUse"
       id="clipPath6239">
      <path
         d="M 0,841.89 H 688.077 V 0 H 0 Z"
         transform="translate(-135.88881,-276.46351)"
         id="path6239" />
    </clipPath>
    <clipPath
       clipPathUnits="userSpaceOnUse"
       id="clipPath6241">
      <path
         d="M 0,841.89 H 688.077 V 0 H 0 Z"
         transform="translate(-135.90651,-276.44391)"
         id="path6241" />
    </clipPath>
    <clipPath
       clipPathUnits="userSpaceOnUse"
       id="clipPath6243">
      <path
         d="M 0,841.89 H 688.077 V 0 H 0 Z"
         transform="translate(-127.1848,-303.45011)"
         id="path6243" />
    </clipPath>
    <clipPath
       clipPathUnits="userSpaceOnUse"
       id="clipPath6245">
      <path
         d="M 0,841.89 H 688.077 V 0 H 0 Z"
         transform="translate(-127.1785,-303.42431)"
         id="path6245" />
    </clipPath>
    <clipPath
       clipPathUnits="userSpaceOnUse"
       id="clipPath6247">
      <path
         d="M 0,841.89 H 688.077 V 0 H 0 Z"
         transform="translate(-99.821005,-358.26821)"
         id="path6247" />
    </clipPath>
    <clipPath
       clipPathUnits="userSpaceOnUse"
       id="clipPath6249">
      <path
         d="M 0,841.89 H 688.077 V 0 H 0 Z"
         transform="translate(-99.823502,-358.24171)"
         id="path6249" />
    </clipPath>
    <clipPath
       clipPathUnits="userSpaceOnUse"
       id="clipPath6251">
      <path
         d="m 99.821,358.268 c -3.985,-0.395 -20.92,-18.639 -4.447,-43.345 v 0 c 1.48,-2.22 4.212,-5.935 7.332,-0.581 v 0 c 6.915,9.527 28.979,8.719 39.111,-1.326 v 0 c 0,0 -0.014,-0.424 -0.045,-1.161 v 0 c 14.16,-14.88 2.785,-37.624 1.882,-40.578 v 0 c -2.13,-6.971 -1.41,-16.123 0.006,-23.19 v 0 c 0.785,-3.92 2.99,-6.306 5.871,-8.038 v 0 c 1.403,2.122 -2.952,4.465 -3.052,8.25 v 0 c -0.071,2.662 3.854,2.922 3.345,6.86 v 0 c -0.684,5.278 -5.57,11.258 0.401,14.377 v 0 c 3.435,1.794 6.244,0.857 8.489,-0.079 v 0 c 2.449,-1.021 4.228,-2.043 5.422,0.475 v 0 c 4.282,9.032 -4.46,22.724 -3.303,25.452 v 0 c 1.156,2.728 10.135,1.55 12.057,6.003 v 0 c 1.923,4.453 -11.658,24.269 -22.557,29.178 v 0 c -10.899,4.908 -10.161,6.066 -6.983,8.297 v 0 c 14.789,10.385 11.182,13.662 7.023,14.604 v 0 c -16.335,3.699 -29.035,-0.587 -37.046,-4.872 v 0 c -6.155,-3.291 -9.543,-6.583 -9.688,-6.255 v 0 c -0.329,0.75 -1.541,15.933 -3.77,15.932 v 0 c -0.016,0 -0.032,-0.001 -0.048,-0.003"
         transform="translate(-102.6126,-312.32331)"
         id="path6251" />
    </clipPath>
    <clipPath
       clipPathUnits="userSpaceOnUse"
       id="clipPath6253">
      <path
         d="m 99.821,358.268 c -3.985,-0.395 -20.92,-18.639 -4.447,-43.345 v 0 c 1.48,-2.22 4.212,-5.935 7.332,-0.581 v 0 c 6.915,9.527 28.979,8.719 39.111,-1.326 v 0 c 0,0 -0.014,-0.424 -0.045,-1.161 v 0 c 14.16,-14.88 2.785,-37.624 1.882,-40.578 v 0 c -2.13,-6.971 -1.41,-16.123 0.006,-23.19 v 0 c 0.785,-3.92 2.99,-6.306 5.871,-8.038 v 0 c 1.403,2.122 -2.952,4.465 -3.052,8.25 v 0 c -0.071,2.662 3.854,2.922 3.345,6.86 v 0 c -0.684,5.278 -5.57,11.258 0.401,14.377 v 0 c 3.435,1.794 6.244,0.857 8.489,-0.079 v 0 c 2.449,-1.021 4.228,-2.043 5.422,0.475 v 0 c 4.282,9.032 -4.46,22.724 -3.303,25.452 v 0 c 1.156,2.728 10.135,1.55 12.057,6.003 v 0 c 1.923,4.453 -11.658,24.269 -22.557,29.178 v 0 c -10.899,4.908 -10.161,6.066 -6.983,8.297 v 0 c 14.789,10.385 11.182,13.662 7.023,14.604 v 0 c -16.335,3.699 -29.035,-0.587 -37.046,-4.872 v 0 c -6.155,-3.291 -9.543,-6.583 -9.688,-6.255 v 0 c -0.329,0.75 -1.541,15.933 -3.77,15.932 v 0 c -0.016,0 -0.032,-0.001 -0.048,-0.003"
         transform="translate(-112.0911,-317.88431)"
         id="path6253" />
    </clipPath>
    <clipPath
       clipPathUnits="userSpaceOnUse"
       id="clipPath6255">
      <path
         d="m 99.821,358.268 c -3.985,-0.395 -20.92,-18.639 -4.447,-43.345 v 0 c 1.48,-2.22 4.212,-5.935 7.332,-0.581 v 0 c 6.915,9.527 28.979,8.719 39.111,-1.326 v 0 c 0,0 -0.014,-0.424 -0.045,-1.161 v 0 c 14.16,-14.88 2.785,-37.624 1.882,-40.578 v 0 c -2.13,-6.971 -1.41,-16.123 0.006,-23.19 v 0 c 0.785,-3.92 2.99,-6.306 5.871,-8.038 v 0 c 1.403,2.122 -2.952,4.465 -3.052,8.25 v 0 c -0.071,2.662 3.854,2.922 3.345,6.86 v 0 c -0.684,5.278 -5.57,11.258 0.401,14.377 v 0 c 3.435,1.794 6.244,0.857 8.489,-0.079 v 0 c 2.449,-1.021 4.228,-2.043 5.422,0.475 v 0 c 4.282,9.032 -4.46,22.724 -3.303,25.452 v 0 c 1.156,2.728 10.135,1.55 12.057,6.003 v 0 c 1.923,4.453 -11.658,24.269 -22.557,29.178 v 0 c -10.899,4.908 -10.161,6.066 -6.983,8.297 v 0 c 14.789,10.385 11.182,13.662 7.023,14.604 v 0 c -16.335,3.699 -29.035,-0.587 -37.046,-4.872 v 0 c -6.155,-3.291 -9.543,-6.583 -9.688,-6.255 v 0 c -0.329,0.75 -1.541,15.933 -3.77,15.932 v 0 c -0.016,0 -0.032,-0.001 -0.048,-0.003"
         transform="translate(-120.5017,-320.20121)"
         id="path6255" />
    </clipPath>
    <clipPath
       clipPathUnits="userSpaceOnUse"
       id="clipPath6257">
      <path
         d="m 99.821,358.268 c -3.985,-0.395 -20.92,-18.639 -4.447,-43.345 v 0 c 1.48,-2.22 4.212,-5.935 7.332,-0.581 v 0 c 6.915,9.527 28.979,8.719 39.111,-1.326 v 0 c 0,0 -0.014,-0.424 -0.045,-1.161 v 0 c 14.16,-14.88 2.785,-37.624 1.882,-40.578 v 0 c -2.13,-6.971 -1.41,-16.123 0.006,-23.19 v 0 c 0.785,-3.92 2.99,-6.306 5.871,-8.038 v 0 c 1.403,2.122 -2.952,4.465 -3.052,8.25 v 0 c -0.071,2.662 3.854,2.922 3.345,6.86 v 0 c -0.684,5.278 -5.57,11.258 0.401,14.377 v 0 c 3.435,1.794 6.244,0.857 8.489,-0.079 v 0 c 2.449,-1.021 4.228,-2.043 5.422,0.475 v 0 c 4.282,9.032 -4.46,22.724 -3.303,25.452 v 0 c 1.156,2.728 10.135,1.55 12.057,6.003 v 0 c 1.923,4.453 -11.658,24.269 -22.557,29.178 v 0 c -10.899,4.908 -10.161,6.066 -6.983,8.297 v 0 c 14.789,10.385 11.182,13.662 7.023,14.604 v 0 c -16.335,3.699 -29.035,-0.587 -37.046,-4.872 v 0 c -6.155,-3.291 -9.543,-6.583 -9.688,-6.255 v 0 c -0.329,0.75 -1.541,15.933 -3.77,15.932 v 0 c -0.016,0 -0.032,-0.001 -0.048,-0.003"
         transform="translate(-107.83431,-316.84181)"
         id="path6257" />
    </clipPath>
    <clipPath
       clipPathUnits="userSpaceOnUse"
       id="clipPath6259">
      <path
         d="m 99.821,358.268 c -3.985,-0.395 -20.92,-18.639 -4.447,-43.345 v 0 c 1.48,-2.22 4.212,-5.935 7.332,-0.581 v 0 c 6.915,9.527 28.979,8.719 39.111,-1.326 v 0 c 0,0 -0.014,-0.424 -0.045,-1.161 v 0 c 14.16,-14.88 2.785,-37.624 1.882,-40.578 v 0 c -2.13,-6.971 -1.41,-16.123 0.006,-23.19 v 0 c 0.785,-3.92 2.99,-6.306 5.871,-8.038 v 0 c 1.403,2.122 -2.952,4.465 -3.052,8.25 v 0 c -0.071,2.662 3.854,2.922 3.345,6.86 v 0 c -0.684,5.278 -5.57,11.258 0.401,14.377 v 0 c 3.435,1.794 6.244,0.857 8.489,-0.079 v 0 c 2.449,-1.021 4.228,-2.043 5.422,0.475 v 0 c 4.282,9.032 -4.46,22.724 -3.303,25.452 v 0 c 1.156,2.728 10.135,1.55 12.057,6.003 v 0 c 1.923,4.453 -11.658,24.269 -22.557,29.178 v 0 c -10.899,4.908 -10.161,6.066 -6.983,8.297 v 0 c 14.789,10.385 11.182,13.662 7.023,14.604 v 0 c -16.335,3.699 -29.035,-0.587 -37.046,-4.872 v 0 c -6.155,-3.291 -9.543,-6.583 -9.688,-6.255 v 0 c -0.329,0.75 -1.541,15.933 -3.77,15.932 v 0 c -0.016,0 -0.032,-0.001 -0.048,-0.003"
         transform="translate(-137.9856,-315.14111)"
         id="path6259" />
    </clipPath>
    <clipPath
       clipPathUnits="userSpaceOnUse"
       id="clipPath6261">
      <path
         d="m 99.821,358.268 c -3.985,-0.395 -20.92,-18.639 -4.447,-43.345 v 0 c 1.48,-2.22 4.212,-5.935 7.332,-0.581 v 0 c 6.915,9.527 28.979,8.719 39.111,-1.326 v 0 c 0,0 -0.014,-0.424 -0.045,-1.161 v 0 c 14.16,-14.88 2.785,-37.624 1.882,-40.578 v 0 c -2.13,-6.971 -1.41,-16.123 0.006,-23.19 v 0 c 0.785,-3.92 2.99,-6.306 5.871,-8.038 v 0 c 1.403,2.122 -2.952,4.465 -3.052,8.25 v 0 c -0.071,2.662 3.854,2.922 3.345,6.86 v 0 c -0.684,5.278 -5.57,11.258 0.401,14.377 v 0 c 3.435,1.794 6.244,0.857 8.489,-0.079 v 0 c 2.449,-1.021 4.228,-2.043 5.422,0.475 v 0 c 4.282,9.032 -4.46,22.724 -3.303,25.452 v 0 c 1.156,2.728 10.135,1.55 12.057,6.003 v 0 c 1.923,4.453 -11.658,24.269 -22.557,29.178 v 0 c -10.899,4.908 -10.161,6.066 -6.983,8.297 v 0 c 14.789,10.385 11.182,13.662 7.023,14.604 v 0 c -16.335,3.699 -29.035,-0.587 -37.046,-4.872 v 0 c -6.155,-3.291 -9.543,-6.583 -9.688,-6.255 v 0 c -0.329,0.75 -1.541,15.933 -3.77,15.932 v 0 c -0.016,0 -0.032,-0.001 -0.048,-0.003"
         transform="translate(-144.88551,-305.14261)"
         id="path6261" />
    </clipPath>
    <clipPath
       clipPathUnits="userSpaceOnUse"
       id="clipPath6263">
      <path
         d="m 99.821,358.268 c -3.985,-0.395 -20.92,-18.639 -4.447,-43.345 v 0 c 1.48,-2.22 4.212,-5.935 7.332,-0.581 v 0 c 6.915,9.527 28.979,8.719 39.111,-1.326 v 0 c 0,0 -0.014,-0.424 -0.045,-1.161 v 0 c 14.16,-14.88 2.785,-37.624 1.882,-40.578 v 0 c -2.13,-6.971 -1.41,-16.123 0.006,-23.19 v 0 c 0.785,-3.92 2.99,-6.306 5.871,-8.038 v 0 c 1.403,2.122 -2.952,4.465 -3.052,8.25 v 0 c -0.071,2.662 3.854,2.922 3.345,6.86 v 0 c -0.684,5.278 -5.57,11.258 0.401,14.377 v 0 c 3.435,1.794 6.244,0.857 8.489,-0.079 v 0 c 2.449,-1.021 4.228,-2.043 5.422,0.475 v 0 c 4.282,9.032 -4.46,22.724 -3.303,25.452 v 0 c 1.156,2.728 10.135,1.55 12.057,6.003 v 0 c 1.923,4.453 -11.658,24.269 -22.557,29.178 v 0 c -10.899,4.908 -10.161,6.066 -6.983,8.297 v 0 c 14.789,10.385 11.182,13.662 7.023,14.604 v 0 c -16.335,3.699 -29.035,-0.587 -37.046,-4.872 v 0 c -6.155,-3.291 -9.543,-6.583 -9.688,-6.255 v 0 c -0.329,0.75 -1.541,15.933 -3.77,15.932 v 0 c -0.016,0 -0.032,-0.001 -0.048,-0.003"
         transform="translate(-145.3435,-295.91361)"
         id="path6263" />
    </clipPath>
    <clipPath
       clipPathUnits="userSpaceOnUse"
       id="clipPath6265">
      <path
         d="M 0,841.89 H 688.077 V 0 H 0 Z"
         transform="translate(-154.2726,-277.35451)"
         id="path6265" />
    </clipPath>
    <clipPath
       clipPathUnits="userSpaceOnUse"
       id="clipPath6267">
      <path
         d="M 0,841.89 H 688.077 V 0 H 0 Z"
         transform="translate(-154.25661,-277.333)"
         id="path6267" />
    </clipPath>
    <clipPath
       clipPathUnits="userSpaceOnUse"
       id="clipPath6269">
      <path
         d="M 0,841.89 H 688.077 V 0 H 0 Z"
         transform="translate(-141.7093,-258.87751)"
         id="path6269" />
    </clipPath>
    <clipPath
       clipPathUnits="userSpaceOnUse"
       id="clipPath6271">
      <path
         d="M 0,841.89 H 688.077 V 0 H 0 Z"
         transform="translate(-145.972,-256.0567)"
         id="path6271" />
    </clipPath>
    <clipPath
       clipPathUnits="userSpaceOnUse"
       id="clipPath6273">
      <path
         d="M 0,841.89 H 688.077 V 0 H 0 Z"
         transform="translate(-136.8394,-262.57651)"
         id="path6273" />
    </clipPath>
    <clipPath
       clipPathUnits="userSpaceOnUse"
       id="clipPath6275">
      <path
         d="M 0,841.89 H 688.077 V 0 H 0 Z"
         transform="translate(-136.81281,-262.57281)"
         id="path6275" />
    </clipPath>
    <clipPath
       clipPathUnits="userSpaceOnUse"
       id="clipPath6277">
      <path
         d="M 0,841.89 H 688.077 V 0 H 0 Z"
         transform="translate(-91.7197,-297.51261)"
         id="path6277" />
    </clipPath>
    <clipPath
       clipPathUnits="userSpaceOnUse"
       id="clipPath6279">
      <path
         d="M 0,841.89 H 688.077 V 0 H 0 Z"
         transform="translate(-91.693105,-297.51171)"
         id="path6279" />
    </clipPath>
    <clipPath
       clipPathUnits="userSpaceOnUse"
       id="clipPath6281">
      <path
         d="M 0,841.89 H 688.077 V 0 H 0 Z"
         transform="translate(-99.8668,-299.24581)"
         id="path6281" />
    </clipPath>
    <clipPath
       clipPathUnits="userSpaceOnUse"
       id="clipPath6283">
      <path
         d="M 0,841.89 H 688.077 V 0 H 0 Z"
         transform="translate(-99.8401,-299.24661)"
         id="path6283" />
    </clipPath>
    <clipPath
       clipPathUnits="userSpaceOnUse"
       id="clipPath6285">
      <path
         d="M 0,841.89 H 688.077 V 0 H 0 Z"
         transform="translate(-99.075002,-299.2759)"
         id="path6285" />
    </clipPath>
    <clipPath
       clipPathUnits="userSpaceOnUse"
       id="clipPath6287">
      <path
         d="M 0,841.89 H 688.077 V 0 H 0 Z"
         transform="translate(-100.2183,-301.13511)"
         id="path6287" />
    </clipPath>
    <clipPath
       clipPathUnits="userSpaceOnUse"
       id="clipPath6289">
      <path
         d="M 0,841.89 H 688.077 V 0 H 0 Z"
         transform="translate(-88.673102,-307.25211)"
         id="path6289" />
    </clipPath>
    <clipPath
       clipPathUnits="userSpaceOnUse"
       id="clipPath6291">
      <path
         d="M 0,841.89 H 688.077 V 0 H 0 Z"
         transform="translate(-88.692205,-307.23341)"
         id="path6291" />
    </clipPath>
    <clipPath
       clipPathUnits="userSpaceOnUse"
       id="clipPath6293">
      <path
         d="M 0,841.89 H 688.077 V 0 H 0 Z"
         transform="translate(-98.456005,-307.00901)"
         id="path6293" />
    </clipPath>
    <clipPath
       clipPathUnits="userSpaceOnUse"
       id="clipPath6295">
      <path
         d="M 0,841.89 H 688.077 V 0 H 0 Z"
         transform="translate(-98.4817,-307.01561)"
         id="path6295" />
    </clipPath>
    <clipPath
       clipPathUnits="userSpaceOnUse"
       id="clipPath6297">
      <path
         d="M 0,841.89 H 688.077 V 0 H 0 Z"
         transform="translate(-131.0955,-302.92531)"
         id="path6297" />
    </clipPath>
    <clipPath
       clipPathUnits="userSpaceOnUse"
       id="clipPath6299">
      <path
         d="M 0,841.89 H 688.077 V 0 H 0 Z"
         transform="translate(-82.796702,-274.92481)"
         id="path6299" />
    </clipPath>
    <clipPath
       clipPathUnits="userSpaceOnUse"
       id="clipPath6301">
      <path
         d="M 0,841.89 H 688.077 V 0 H 0 Z"
         transform="translate(-79.732704,-292.5298)"
         id="path6301" />
    </clipPath>
    <clipPath
       clipPathUnits="userSpaceOnUse"
       id="clipPath6303">
      <path
         d="M 0,841.89 H 688.077 V 0 H 0 Z"
         transform="translate(-122.0749,-308.83361)"
         id="path6303" />
    </clipPath>
    <clipPath
       clipPathUnits="userSpaceOnUse"
       id="clipPath6305">
      <path
         d="M 0,841.89 H 688.077 V 0 H 0 Z"
         transform="translate(-119.81001,-307.55291)"
         id="path6305" />
    </clipPath>
    <clipPath
       clipPathUnits="userSpaceOnUse"
       id="clipPath6307">
      <path
         d="M 0,841.89 H 688.077 V 0 H 0 Z"
         transform="translate(-119.78541,-307.54201)"
         id="path6307" />
    </clipPath>
    <clipPath
       clipPathUnits="userSpaceOnUse"
       id="clipPath6309">
      <path
         d="M 0,841.89 H 688.077 V 0 H 0 Z"
         transform="translate(-117.56181,-306.56291)"
         id="path6309" />
    </clipPath>
    <clipPath
       clipPathUnits="userSpaceOnUse"
       id="clipPath6311">
      <path
         d="M 0,841.89 H 688.077 V 0 H 0 Z"
         transform="translate(-119.7094,-308.95351)"
         id="path6311" />
    </clipPath>
    <clipPath
       clipPathUnits="userSpaceOnUse"
       id="clipPath6313">
      <path
         d="M 0,841.89 H 688.077 V 0 H 0 Z"
         transform="translate(-123.6372,-303.89011)"
         id="path6313" />
    </clipPath>
    <clipPath
       clipPathUnits="userSpaceOnUse"
       id="clipPath6315">
      <path
         d="M 0,841.89 H 688.077 V 0 H 0 Z"
         transform="translate(-123.6372,-303.89011)"
         id="path6315" />
    </clipPath>
    <clipPath
       clipPathUnits="userSpaceOnUse"
       id="clipPath6317">
      <path
         d="M 0,841.89 H 688.077 V 0 H 0 Z"
         transform="translate(-123.637,-303.89021)"
         id="path6317" />
    </clipPath>
    <clipPath
       clipPathUnits="userSpaceOnUse"
       id="clipPath6319">
      <path
         d="M 0,841.89 H 688.077 V 0 H 0 Z"
         transform="translate(-117.0852,-316.00031)"
         id="path6319" />
    </clipPath>
    <clipPath
       clipPathUnits="userSpaceOnUse"
       id="clipPath6321">
      <path
         d="M 0,841.89 H 688.077 V 0 H 0 Z"
         transform="translate(-117.1092,-315.98831)"
         id="path6321" />
    </clipPath>
    <clipPath
       clipPathUnits="userSpaceOnUse"
       id="clipPath6323">
      <path
         d="M 0,841.89 H 688.077 V 0 H 0 Z"
         transform="translate(-144.387,-342.33491)"
         id="path6323" />
    </clipPath>
    <clipPath
       clipPathUnits="userSpaceOnUse"
       id="clipPath6325">
      <path
         d="M 0,841.89 H 688.077 V 0 H 0 Z"
         transform="translate(-144.3601,-342.33501)"
         id="path6325" />
    </clipPath>
    <clipPath
       clipPathUnits="userSpaceOnUse"
       id="clipPath6327">
      <path
         d="M 0,841.89 H 688.077 V 0 H 0 Z"
         transform="translate(-132.8245,-313.31891)"
         id="path6327" />
    </clipPath>
    <clipPath
       clipPathUnits="userSpaceOnUse"
       id="clipPath6329">
      <path
         d="M 0,841.89 H 688.077 V 0 H 0 Z"
         transform="translate(-137.00421,-311.62311)"
         id="path6329" />
    </clipPath>
    <clipPath
       clipPathUnits="userSpaceOnUse"
       id="clipPath6331">
      <path
         d="M 0,841.89 H 688.077 V 0 H 0 Z"
         transform="translate(-126.0937,-315.13971)"
         id="path6331" />
    </clipPath>
    <clipPath
       clipPathUnits="userSpaceOnUse"
       id="clipPath6333">
      <path
         d="M 0,841.89 H 688.077 V 0 H 0 Z"
         transform="translate(-126.06861,-315.14851)"
         id="path6333" />
    </clipPath>
  </defs>
  <g
     id="layer-MC10"
     transform="translate(-99.859161,-644.79373)">
    <path
       id="path6218"
       d="m 0,0 c 2.226,2.868 10.284,7.511 7.639,10.368 -0.258,0.415 -0.91,1.073 -1.775,1.917 -0.699,5.583 20.294,34.222 21.261,33.986 15.898,-14.843 3.427,-39.976 2.502,-43.002 -2.131,-6.971 -0.949,-14.779 0.467,-21.846 2.604,-13 20.808,-9.144 27.587,-20.444 5.862,-9.77 4.687,-30.107 -14.032,-35.374 -19.621,-5.52 -29.174,18.22 -17.605,24.702 6.893,3.861 13.069,1.018 14.955,-3.722 1.508,-3.79 -0.376,-9.603 -6.546,-10.357 -1.666,-0.288 -0.603,-4.322 8.931,-3.25 8.457,0.951 13.982,19.494 -0.822,27.376 -8.696,4.631 -31.185,-19.006 -45.71,-5.012 C -15.795,-32.475 -3.748,-4.828 0,0"
       style="fill:#e73c6c;fill-opacity:1;fill-rule:nonzero;stroke:none"
       transform="matrix(1.3333333,0,0,-1.3333333,151.42147,766.96867)"
       clip-path="url(#clipPath6219)" />
    <path
       id="path6220"
       d="m 0,0 c -6.817,-10.693 -13.182,-32.068 -4.486,-43 5.026,-6.487 13.339,-7.05 20.647,-4.541 3.618,1.134 7.084,2.708 10.536,4.302 4.557,1.833 11.545,6.315 16.375,3.617 5.129,-2.733 8.832,-8.107 8.936,-13.993 0.179,-5.505 -2.507,-12.584 -8.569,-13.634 -1.906,-0.209 -3.84,-0.289 -5.761,0.01 -1.415,0.262 -3.042,0.675 -3.908,1.966 -0.319,0.476 -0.354,1.277 0.217,1.61 0.74,0.313 1.822,0.295 2.777,0.77 7.011,3.127 5.215,12.829 -1.916,14.478 -5.348,1.265 -11.962,-1.818 -13.259,-7.422 -1.763,-7.414 3.24,-15.442 10.216,-18.092 7.133,-2.726 15.496,-0.175 21.167,4.603 9.771,8.093 10.912,27.59 -0.058,35.088 -4.78,3.223 -10.552,4.221 -15.679,6.762 -3.466,1.639 -6.457,4.616 -7.229,8.479 -0.796,3.731 -1.447,7.495 -1.683,11.312 -0.227,3.809 0.009,7.69 1.194,11.371 5.679,13.357 9.439,31.439 -2.521,42.486 0,0 0.07,-0.038 0.07,-0.038 0.094,0.008 -0.082,-0.059 -0.128,-0.121 C 25.808,44.924 24.87,43.65 23.892,42.426 17.819,34.373 11.864,26.107 7.323,17.077 6.65,15.634 5.853,13.822 5.881,12.341 6.456,11.762 7.21,11.074 7.66,10.411 10.271,7.186 1.669,2.488 0,0 m -0.042,0.033 c 1.488,1.774 3.408,3.109 5.089,4.686 1.197,1.172 2.661,2.375 3.022,4.081 0.112,0.566 -0.11,1.143 -0.493,1.558 -0.445,0.675 -1.219,1.325 -1.772,1.903 0.053,3.353 2.268,6.436 3.743,9.36 3.362,5.853 7.155,11.444 11.094,16.921 1.881,2.545 3.711,5.148 5.854,7.484 0.119,0.115 0.236,0.236 0.376,0.334 0.065,0.027 0.079,0.09 0.27,0.081 5.843,-5.135 8.446,-13.138 8.196,-20.782 -0.138,-7.687 -2.527,-15.118 -5.418,-22.12 -2.323,-7.271 -1.07,-15.128 0.417,-22.459 1.725,-8.189 11.058,-9.693 17.635,-12.477 8.015,-2.992 12.036,-8.972 12.774,-17.389 1.261,-12.046 -5.735,-23.082 -17.74,-25.897 -3.694,-0.952 -7.716,-0.944 -11.316,0.455 -7.163,2.701 -12.283,10.848 -10.51,18.496 1.331,5.845 8.191,9.123 13.789,7.786 8.773,-2.14 9.15,-14.426 -0.122,-15.999 0.001,0 -0.357,-0.054 -0.357,-0.054 -0.488,-0.057 -0.576,-0.574 -0.29,-1.018 2.128,-2.44 6.231,-1.931 9.18,-1.731 5.75,1.022 8.284,7.848 8.113,13.114 -0.109,5.717 -3.695,10.897 -8.678,13.551 -4.433,2.552 -11.584,-1.889 -15.915,-3.597 -3.464,-1.572 -6.959,-3.132 -10.618,-4.251 -7.455,-2.491 -15.868,-1.867 -20.967,4.77 -8.721,11.043 -2.265,32.459 4.644,43.194"
       style="fill:#000000;fill-opacity:1;fill-rule:nonzero;stroke:none"
       transform="matrix(1.3333333,0,0,-1.3333333,151.4496,766.99067)"
       clip-path="url(#clipPath6221)" />
    <path
       id="path6222"
       d="m 0,0 c 2.226,2.868 10.284,7.511 7.639,10.368 -0.258,0.415 -0.91,1.073 -1.775,1.917 -0.119,0.95 0.391,2.568 1.323,4.598 3.32,0.286 6.685,0.298 9.976,-0.277 2.612,-0.456 3.473,-4.548 3.143,-5.516 -5.373,-15.766 -9.793,-29.136 -3.656,-37.876 11.03,-15.707 26.886,-1.058 36.309,-15.84 5.961,-9.352 1.358,-22.111 -8.738,-24.241 7.967,2.025 12.65,19.602 -1.659,27.221 -8.696,4.631 -31.185,-19.006 -45.71,-5.012 C -15.795,-32.475 -3.748,-4.828 0,0"
       style="fill:#d8eb36;fill-opacity:1;fill-rule:nonzero;stroke:none"
       transform="matrix(1.3333333,0,0,-1.3333333,151.42147,766.96867)"
       clip-path="url(#clipPath6223)" />
    <path
       id="path6224"
       d="m 0,0 c -7.76,-12.277 -15.361,-39.201 1.204,-47.404 9.056,-4.013 18.656,1.193 26.973,4.855 2.477,1.119 4.96,2.261 7.585,3.069 2.606,0.855 5.694,1.17 8.015,-0.578 4.76,-2.8 8.109,-7.981 8.197,-13.564 0.144,-5.296 -2.243,-11.729 -7.731,-13.4 0,0.001 -0.079,0.344 -0.079,0.344 5.261,1.033 9.377,5.452 10.702,10.565 1.841,6.429 -0.628,13.728 -5.913,17.804 -3.221,2.473 -7.374,3 -11.326,3.099 -3.98,0.119 -8.083,-0.006 -11.931,1.242 -3.873,1.226 -7.121,3.977 -9.366,7.319 -3.11,4.521 -3.268,10.326 -2.507,15.574 0.94,6.586 3.188,13.014 5.294,19.304 0.175,0.476 0.795,2.341 0.976,2.838 0.31,1.535 -0.392,3.294 -1.365,4.474 -0.881,1.07 -2.329,1.047 -3.586,1.226 -2.643,0.29 -5.315,0.247 -7.967,0.029 l 0.085,0.06 C 6.617,15.517 5.889,13.653 5.903,12.363 6.48,11.78 7.229,11.095 7.683,10.425 8.052,10.038 8.312,9.368 8.185,8.783 7.808,7.042 6.328,5.83 5.108,4.653 3.42,3.087 1.492,1.759 0,0 M -0.042,0.033 C 1.443,1.811 3.36,3.149 5.038,4.729 6.23,5.9 7.688,7.105 8.046,8.803 8.155,9.366 7.933,9.932 7.553,10.344 c -0.436,0.667 -1.225,1.322 -1.771,1.895 -0.137,1.602 0.655,3.399 1.374,4.764 2.661,0.238 5.347,0.3 8.013,0.029 1.323,-0.161 2.862,-0.176 3.778,-1.289 1.073,-1.291 1.81,-3.108 1.466,-4.785 C 20.22,10.412 19.661,8.696 19.46,8.113 17.399,1.833 15.267,-4.602 14.272,-11.14 c -0.774,-5.162 -0.662,-10.851 2.364,-15.303 2.195,-3.301 5.355,-6.009 9.154,-7.24 3.816,-1.258 7.867,-1.154 11.846,-1.298 3.968,-0.116 8.175,-0.698 11.416,-3.197 5.369,-4.1 7.899,-11.482 6.063,-18.003 -1.329,-5.215 -5.509,-9.752 -10.879,-10.842 -0.232,-0.04 -0.294,0.282 -0.079,0.343 5.268,1.642 7.53,7.939 7.355,13.041 -0.13,6.099 -4.229,11.666 -9.751,14.073 -4.651,1.12 -9.17,-1.757 -13.372,-3.446 -7.32,-3.254 -15.171,-7.409 -23.466,-6.116 -21.562,5.079 -13.685,35.784 -4.965,49.161"
       style="fill:#000000;fill-opacity:1;fill-rule:nonzero;stroke:none"
       transform="matrix(1.3333333,0,0,-1.3333333,151.4496,766.99067)"
       clip-path="url(#clipPath6225)" />
    <path
       id="path6226"
       d="M 0,0 C -6.168,-2.625 -13.006,-4.336 -19.362,-6.446 -13.154,-3.627 -6.505,-1.979 0,0"
       style="fill:#000000;fill-opacity:1;fill-rule:nonzero;stroke:none"
       transform="matrix(1.3333333,0,0,-1.3333333,168.00107,795.86827)"
       clip-path="url(#clipPath6227)" />
    <path
       id="path6228"
       d="m 0,0 c -3.035,-0.759 -6.039,-1.614 -9.04,-2.489 -2.956,-0.933 -6.101,-1.542 -8.833,-3.024 2.546,1.863 5.737,2.556 8.685,3.537 C -6.165,-1.154 -3.122,-0.336 0,0"
       style="fill:#000000;fill-opacity:1;fill-rule:nonzero;stroke:none"
       transform="matrix(1.3333333,0,0,-1.3333333,169.22373,775.40213)"
       clip-path="url(#clipPath6229)" />
    <path
       id="path6230"
       d="m 0,0 c -3.224,-2.785 -7.243,-4.468 -11.077,-6.237 -3.435,-1.349 -6.967,-2.923 -10.712,-3.028 -0.52,0.033 -1.127,0.111 -1.462,0.551 0.378,-0.395 0.954,-0.408 1.462,-0.409 3.672,0.409 7.108,1.993 10.503,3.376 C -7.445,-4.028 -3.451,-2.432 0,0"
       style="fill:#000000;fill-opacity:1;fill-rule:nonzero;stroke:none"
       transform="matrix(1.3333333,0,0,-1.3333333,176.58827,809.14307)"
       clip-path="url(#clipPath6231)" />
    <path
       id="path6232"
       d="M 0,0 C -3.23,-4.779 -9.51,-7.098 -15.001,-8.018 -9.616,-6.338 -3.839,-4.318 0,0"
       style="fill:#000000;fill-opacity:1;fill-rule:nonzero;stroke:none"
       transform="matrix(1.3333333,0,0,-1.3333333,183.47173,819.85133)"
       clip-path="url(#clipPath6233)" />
    <path
       id="path6234"
       d="m 0,0 c -6.58,-2.393 -14.347,2.356 -17.466,4.194 -3.118,1.839 -8.529,4.117 -12.456,1.532 4.253,4.015 11.934,3.217 23.764,9.098 7.02,3.49 17.597,-0.576 17.992,-9.165"
       style="fill:#d8eb36;fill-opacity:1;fill-rule:nonzero;stroke:none"
       transform="matrix(1.3333333,0,0,-1.3333333,164.19547,761.5436)"
       clip-path="url(#clipPath6235)" />
    <path
       id="path6236"
       d="m 0,0 c -8.024,-3.263 -15.122,3.78 -22.342,6.107 -2.465,0.739 -5.278,0.834 -7.435,-0.589 -0.129,-0.085 -0.302,-0.05 -0.387,0.079 -0.076,0.115 -0.056,0.266 0.041,0.357 1.557,1.466 3.559,2.273 5.516,2.888 1.975,0.616 3.972,1.087 5.947,1.632 5.059,1.177 9.63,3.404 14.407,5.313 6.842,2.045 16.026,-2.401 16.08,-10.13 -0.492,8.728 -11.787,12.83 -18.777,8.585 -3.703,-1.805 -7.601,-3.2 -11.569,-4.285 -3.818,-1.156 -8.176,-1.668 -11.22,-4.409 0,0 -0.345,0.437 -0.345,0.437 2.324,1.562 5.329,1.405 7.888,0.618 3.9,-1.08 6.931,-3.9 10.642,-5.379 C -7.929,-0.221 -3.708,-0.901 0,0"
       style="fill:#000000;fill-opacity:1;fill-rule:nonzero;stroke:none"
       transform="matrix(1.3333333,0,0,-1.3333333,164.20747,761.5772)"
       clip-path="url(#clipPath6237)" />
    <path
       id="path6238"
       d="m 0,0 c -3.68,-3.332 -7.943,-6.103 -12.29,-8.017 -12.855,-5.661 -26.297,-5.478 -33.029,4.456 -1.075,1.586 4.781,8.543 3.973,10.38 -6.47,14.691 -2.005,30.984 12.686,37.453 14.692,6.47 31.847,-0.195 38.316,-14.886"
       style="fill:#e73c6c;fill-opacity:1;fill-rule:nonzero;stroke:none"
       transform="matrix(1.3333333,0,0,-1.3333333,181.18507,753.902)"
       clip-path="url(#clipPath6239)" />
    <path
       id="path6240"
       d="m 0,0 c -10.414,-9.83 -31.489,-17.843 -43.244,-6.286 0,0 -0.831,0.864 -0.831,0.864 -0.446,0.599 -1.041,1.308 -1.441,1.941 -0.168,0.445 -0.042,0.868 0.061,1.253 0.519,1.538 1.39,2.876 2.159,4.26 0.725,1.363 1.7,2.736 1.917,4.278 0.049,0.376 -0.171,0.712 -0.304,1.096 l -0.439,1.108 c -1.432,3.694 -2.274,7.67 -2.257,11.647 -0.326,17.529 15.73,29.322 32.49,26.406 C -2.42,44.861 5.935,38.27 9.663,29.416 9.678,29.385 9.627,29.363 9.614,29.395 6.918,35.112 2.504,40.061 -3.102,42.986 -20.974,52.667 -44.144,41.375 -44.087,20.16 c -0.052,-3.158 0.474,-6.313 1.385,-9.334 0.328,-1.569 1.202,-2.901 1.491,-4.526 -0.089,-0.822 -0.45,-1.548 -0.786,-2.265 -1.02,-2.13 -2.456,-4.112 -3.213,-6.335 -0.101,-0.362 -0.188,-0.768 -0.06,-1.074 2.412,-3.555 6.14,-6.258 10.322,-7.317 C -22.508,-13.647 -9.317,-7.841 0,0"
       style="fill:#000000;fill-opacity:1;fill-rule:nonzero;stroke:none"
       transform="matrix(1.3333333,0,0,-1.3333333,181.20867,753.92813)"
       clip-path="url(#clipPath6241)" />
    <path
       id="path6242"
       d="m 0,0 c 13.65,-3.281 6.652,-28.763 5.571,-29.583 -2.88,-2.184 -5.996,-4.029 -9.157,-5.421 -12.855,-5.661 -26.297,-5.478 -33.029,4.456 C -37.69,-28.961 -13.65,3.281 0,0"
       style="fill:#d8eb36;fill-opacity:1;fill-rule:nonzero;stroke:none"
       transform="matrix(1.3333333,0,0,-1.3333333,169.57973,717.91987)"
       clip-path="url(#clipPath6243)" />
    <path
       id="path6244"
       d="m 0,0 c -5.476,1.078 -10.596,-2.355 -14.839,-5.413 -6.472,-4.952 -12.016,-11.032 -16.981,-17.468 -1.614,-2.17 -3.266,-4.363 -4.456,-6.772 -0.112,-0.236 -0.282,-0.628 -0.185,-0.824 6.247,-9.173 18.898,-9.274 28.474,-5.958 4.835,1.546 9.415,3.892 13.475,6.944 0.193,0.181 0.322,0.545 0.448,0.841 C 8.646,-20.597 10.855,-2.669 0,0 m 0.013,0.052 c 8.948,-2.18 9.252,-13.404 8.012,-20.836 -0.413,-2.694 -1.03,-5.35 -1.907,-7.937 -0.139,-0.318 -0.208,-0.643 -0.501,-0.941 -11.27,-8.611 -31.456,-15.06 -41.73,-1.82 0,0 -0.59,0.841 -0.59,0.841 -0.155,0.229 -0.059,0.452 -0.023,0.611 2.434,5.085 6.318,9.301 9.948,13.552 6.002,6.41 17.276,18.329 26.791,16.53"
       style="fill:#000000;fill-opacity:1;fill-rule:nonzero;stroke:none"
       transform="matrix(1.3333333,0,0,-1.3333333,169.57133,717.95427)"
       clip-path="url(#clipPath6245)" />
    <path
       id="path6246"
       d="m 0,0 c 2.259,0.224 3.486,-15.174 3.819,-15.929 0.332,-0.755 17.85,17.668 46.732,11.126 4.16,-0.942 7.767,-4.218 -7.021,-14.603 -3.178,-2.232 -3.917,-3.389 6.982,-8.298 10.899,-4.908 24.48,-24.724 22.557,-29.177 -1.922,-4.453 -10.901,-3.275 -12.057,-6.003 -1.156,-2.729 7.584,-16.42 3.303,-25.452 -2.288,-4.826 -6.731,3.355 -13.911,-0.396 -5.971,-3.119 -1.085,-9.099 -0.401,-14.377 0.51,-3.938 -3.416,-4.197 -3.345,-6.86 0.1,-3.785 4.454,-6.128 3.051,-8.251 -2.88,1.733 -5.085,4.119 -5.87,8.038 -1.416,7.067 -2.136,16.22 -0.005,23.191 0.902,2.954 12.278,25.697 -1.883,40.579 0.031,0.736 0.045,1.16 0.045,1.16 C 31.865,-35.207 9.8,-34.4 2.885,-43.926 -0.235,-49.28 -2.966,-45.565 -4.447,-43.345 -20.92,-18.639 -3.985,-0.395 0,0"
       style="fill:#6137ed;fill-opacity:1;fill-rule:nonzero;stroke:none"
       transform="matrix(1.3333333,0,0,-1.3333333,133.09467,644.82907)"
       clip-path="url(#clipPath6247)" />
    <path
       id="path6248"
       d="m 0,0 c -1.202,-0.225 -2.186,-1.088 -3.093,-1.866 -2.703,-2.49 -4.7,-5.678 -6.115,-9.05 -3.871,-9.133 -2.327,-19.722 2.425,-28.225 1.465,-2.222 4.443,-9.317 7.83,-6.749 0.697,0.583 1.208,1.328 1.68,2.103 2.183,2.962 5.565,4.769 9.021,5.742 10.358,2.68 22.509,0.438 30.429,-6.996 0.164,-0.051 0.004,-1.236 0.031,-1.356 0,0 -0.071,0.19 -0.071,0.19 4.511,-4.686 6.914,-11.115 7.089,-17.574 0.229,-6.464 -1.269,-12.85 -3.474,-18.861 -2.842,-5.8 -3.316,-12.315 -2.874,-18.66 0.574,-4.613 0.456,-9.805 3.36,-13.663 0.972,-1.235 2.22,-2.237 3.573,-3.055 l -0.273,-0.061 c 0.317,0.444 0.296,1.007 0.087,1.527 -0.723,1.62 -2.069,2.897 -2.718,4.6 -2.078,5.033 4.114,4.489 2.806,9.577 -0.587,3.486 -2.873,6.792 -2.233,10.43 0.573,2.478 3.139,3.786 5.436,4.258 3.068,0.661 5.831,-1.084 8.624,-1.984 1.756,-0.478 2.514,0.83 3.046,2.291 2.437,7.276 -1.171,14.682 -3.329,21.589 -1.235,3.473 0.19,4.164 3.314,4.91 3.067,0.843 7.951,1.131 8.542,4.953 -0.226,3.538 -2.321,6.709 -4.098,9.695 -5.216,7.765 -11.614,15.55 -20.451,19.225 -1.923,1.124 -9.86,3.894 -6.424,6.84 0.81,0.76 2.014,1.476 2.874,2.161 2.826,2.195 13.479,9.789 6.784,12.637 C 36.901,-1.107 20.29,-4.369 7.7,-13.306 6.46,-14.138 5.314,-15.091 4.066,-15.915 3.99,-15.936 3.951,-16.027 3.783,-15.962 3.71,-15.852 3.721,-15.795 3.699,-15.715 3.143,-13.053 2.326,-0.447 0,0 m -0.005,0.053 c 2.376,-0.302 3.295,-13.247 3.836,-15.74 0.009,-0.063 0.041,-0.165 0.043,-0.174 1.265,0.775 2.467,1.847 3.735,2.685 12.784,9.081 30.122,12.801 45.173,7.787 5.5,-3.564 -4.608,-10.792 -7.491,-12.995 -0.949,-0.718 -1.98,-1.369 -2.845,-2.119 -0.42,-0.375 -0.803,-0.837 -0.735,-1.321 0.071,-0.477 0.449,-0.944 0.894,-1.304 1.806,-1.464 4.008,-2.475 6.134,-3.509 8.876,-3.761 15.322,-11.577 20.533,-19.436 1.794,-3.046 3.89,-6.236 4.1,-9.866 -0.553,-3.981 -5.656,-4.328 -8.751,-5.154 -3.091,-0.731 -4.34,-1.316 -3.186,-4.649 2.117,-6.924 5.799,-14.39 3.351,-21.715 -0.36,-0.784 -0.658,-1.797 -1.484,-2.257 -0.548,-0.348 -1.23,-0.314 -1.813,-0.18 -1.73,0.468 -3.292,1.43 -5.035,1.817 -3.203,0.823 -7.743,-0.435 -8.703,-3.933 -0.599,-3.571 1.69,-6.855 2.279,-10.306 0.258,-1.151 0.289,-2.509 -0.405,-3.575 -0.645,-1.071 -1.723,-1.738 -2.366,-2.671 -1.542,-2.817 1.664,-5.42 2.736,-7.849 0.247,-0.569 0.282,-1.347 -0.124,-1.9 -0.062,-0.086 -0.18,-0.108 -0.269,-0.056 -1.386,0.829 -2.681,1.856 -3.698,3.136 -1.024,1.273 -1.732,2.786 -2.134,4.361 -1.335,6.288 -1.959,12.764 -1.176,19.166 0.298,3.225 1.523,6.266 2.693,9.233 2.188,5.973 3.663,12.302 3.432,18.67 -0.18,6.351 -2.527,12.633 -6.959,17.236 -0.153,0.101 -0.003,1.194 -0.027,1.347 l 0.077,-0.193 c -2.522,2.494 -5.664,4.31 -8.974,5.584 -9.793,3.627 -24.664,4.132 -30.878,-5.692 -1.455,-1.784 -3.498,-1.637 -4.964,0.06 -7.586,9.491 -11.279,23.071 -6.322,34.593 1.439,3.381 3.459,6.567 6.186,9.054 0.922,0.786 1.911,1.641 3.137,1.865"
       style="fill:#000000;fill-opacity:1;fill-rule:nonzero;stroke:none"
       transform="matrix(1.3333333,0,0,-1.3333333,133.098,644.8644)"
       clip-path="url(#clipPath6249)" />
    <path
       id="path6250"
       d="M 0,0 C -3.786,3.168 -5.669,8.16 -5.729,13.01 -4.914,8.255 -3.217,3.665 0,0"
       style="fill:#000000;fill-opacity:1;fill-rule:nonzero;stroke:none"
       transform="matrix(1.3333333,0,0,-1.3333333,136.8168,706.08893)"
       clip-path="url(#clipPath6251)" />
    <path
       id="path6252"
       d="M 0,0 C 1.037,12.769 10.017,24.751 22.623,27.992 10.279,23.976 1.842,12.657 0,0"
       style="fill:#000000;fill-opacity:1;fill-rule:nonzero;stroke:none"
       transform="matrix(1.3333333,0,0,-1.3333333,149.4548,698.67427)"
       clip-path="url(#clipPath6253)" />
    <path
       id="path6254"
       d="M 0,0 C 1.236,4.859 4.39,9.511 8.984,11.723 4.797,8.868 1.94,4.607 0,0"
       style="fill:#000000;fill-opacity:1;fill-rule:nonzero;stroke:none"
       transform="matrix(1.3333333,0,0,-1.3333333,160.66893,695.58507)"
       clip-path="url(#clipPath6255)" />
    <path
       id="path6256"
       d="M 0,0 C -2.961,5.324 -3.629,12.021 -1.744,17.817 -2.895,11.865 -2.277,5.617 0,0"
       style="fill:#000000;fill-opacity:1;fill-rule:nonzero;stroke:none"
       transform="matrix(1.3333333,0,0,-1.3333333,143.77907,700.06427)"
       clip-path="url(#clipPath6257)" />
    <path
       id="path6258"
       d="M 0,0 C 8.428,0.886 21.527,-5.095 26.586,-11.87 20.978,-5.611 8.432,0.139 0,0"
       style="fill:#000000;fill-opacity:1;fill-rule:nonzero;stroke:none"
       transform="matrix(1.3333333,0,0,-1.3333333,183.9808,702.33187)"
       clip-path="url(#clipPath6259)" />
    <path
       id="path6260"
       d="M 0,0 C 5.878,-1.067 10.711,-5.818 12.978,-11.205 10.039,-6.183 5.651,-1.8 0,0"
       style="fill:#000000;fill-opacity:1;fill-rule:nonzero;stroke:none"
       transform="matrix(1.3333333,0,0,-1.3333333,193.18067,715.6632)"
       clip-path="url(#clipPath6261)" />
    <path
       id="path6262"
       d="M 0,0 C 3.067,-2.675 6.158,-5.825 7.597,-9.692 5.493,-6.158 2.564,-3.213 0,0"
       style="fill:#000000;fill-opacity:1;fill-rule:nonzero;stroke:none"
       transform="matrix(1.3333333,0,0,-1.3333333,193.79133,727.96853)"
       clip-path="url(#clipPath6263)" />
    <path
       id="path6264"
       d="m 0,0 c 2.437,-1.823 4.541,-4.433 4.695,-5.611 0.153,-1.177 -2.61,-4.982 -2.622,-6.12 -0.013,-1.137 0.884,-2.144 1.861,-2.819 0.977,-0.675 -1.24,-0.051 -1.704,-1.605 -0.464,-1.555 1.216,-2.224 1.06,-3.59 -0.155,-1.366 -2.55,-1.839 -2.705,-3.205 -0.156,-1.366 1.673,-2.511 1.329,-3.568 -0.344,-1.057 -9.773,1.664 -11.316,3.266 -1.542,1.601 -5.453,7.549 -3.182,10.771 C -10.312,-9.259 -1.04,0.778 0,0"
       style="fill:#d8eb36;fill-opacity:1;fill-rule:nonzero;stroke:none"
       transform="matrix(1.3333333,0,0,-1.3333333,205.6968,752.714)"
       clip-path="url(#clipPath6265)" />
    <path
       id="path6266"
       d="m 0,0 c -0.348,0.122 -0.724,-0.217 -1.019,-0.385 -2.184,-1.614 -3.992,-3.676 -5.824,-5.666 -1.937,-2.272 -4.257,-4.607 -5.821,-7.14 -1.135,-3.38 1.465,-7.736 3.744,-10.126 2.589,-1.608 5.665,-2.48 8.633,-3.13 0.645,-0.074 1.568,-0.374 2.118,-0.014 0.179,1.161 -1.173,1.965 -1.3,3.107 -0.28,1.809 2.3,2.071 2.632,3.579 0.169,1.239 -1.253,1.873 -1.178,3.209 -0.002,1.059 0.917,1.704 1.872,1.846 0.08,0.007 0.203,0.086 0.133,0.022 -0.05,-0.222 0.018,-0.119 -0.089,-0.077 -0.406,0.284 -0.796,0.595 -1.133,0.966 -0.533,0.595 -1.008,1.381 -0.887,2.289 0.456,1.588 1.397,2.786 2.106,4.221 0.296,0.652 0.788,1.365 0.497,2.089 C 3.567,-3.096 1.781,-1.422 0,0 m 0.032,0.043 c 1.827,-1.429 3.631,-3.057 4.673,-5.17 0.359,-0.779 -0.12,-1.611 -0.417,-2.32 -0.592,-1.37 -1.568,-2.736 -1.95,-4.141 -0.076,-0.665 0.295,-1.369 0.777,-1.909 0.308,-0.349 0.689,-0.653 1.07,-0.927 0.122,-0.102 0.337,-0.266 0.175,-0.528 -0.204,-0.2 -0.29,-0.154 -0.393,-0.199 -0.804,-0.126 -1.578,-0.54 -1.609,-1.435 -0.078,-0.714 0.483,-1.313 0.85,-2.023 0.446,-0.729 0.227,-1.739 -0.456,-2.234 -1.26,-1.003 -2.88,-1.706 -1.619,-3.521 0.384,-0.669 1.094,-1.295 0.898,-2.16 -0.293,-0.447 -0.776,-0.287 -1.193,-0.313 -3.472,0.457 -6.973,1.397 -10.033,3.141 -2.499,2.471 -5.28,7.125 -3.974,10.726 2.56,3.949 6.056,7.155 9.42,10.407 1.02,0.894 1.994,1.884 3.197,2.532 0.175,0.069 0.376,0.188 0.584,0.074"
       style="fill:#000000;fill-opacity:1;fill-rule:nonzero;stroke:none"
       transform="matrix(1.3333333,0,0,-1.3333333,205.67547,752.74267)"
       clip-path="url(#clipPath6267)" />
    <path
       id="path6268"
       d="M 0,0 C 3.602,4.781 9.37,7.147 13.919,10.795 13.052,9.591 11.711,8.829 10.549,7.936 7.082,5.453 3.019,3.01 0,0"
       style="fill:#000000;fill-opacity:1;fill-rule:nonzero;stroke:none"
       transform="matrix(1.3333333,0,0,-1.3333333,188.94573,777.35)"
       clip-path="url(#clipPath6269)" />
    <path
       id="path6270"
       d="M 0,0 C 2.304,0.674 4.809,0.461 7.123,-0.077 4.736,-0.268 2.392,-0.055 0,0"
       style="fill:#000000;fill-opacity:1;fill-rule:nonzero;stroke:none"
       transform="matrix(1.3333333,0,0,-1.3333333,194.62933,781.11107)"
       clip-path="url(#clipPath6271)" />
    <path
       id="path6272"
       d="m 0,0 c -0.253,1.759 -0.301,2.671 1.053,3.65 2.836,2.05 17.109,16.045 19.76,17.525 2.65,1.481 3.646,-3.324 -12.011,-18.4 -1.549,-1.493 -3.006,-4.706 0.871,-4.116 3.878,0.589 11.048,2.503 13.15,2.419 2.102,-0.084 4.969,-1.383 -8.942,-5.73 -1.378,-0.431 -5.246,-2.381 -0.573,-3.767 3.495,-1.036 12.143,-5.028 5.496,-4.301 -7.03,0.768 -13.575,3.163 -14.781,3.795"
       style="fill:#e73c6c;fill-opacity:1;fill-rule:nonzero;stroke:none"
       transform="matrix(1.3333333,0,0,-1.3333333,182.45253,772.418)"
       clip-path="url(#clipPath6273)" />
    <path
       id="path6274"
       d="m 0,0 c -0.253,1.241 -0.342,2.763 0.837,3.579 2.971,2.43 5.697,5.144 8.517,7.748 3.419,3.007 7.795,7.717 11.602,10.158 0.313,0.133 0.702,0.258 1.111,0.078 1.664,-1.206 -1.115,-5.026 -1.904,-6.285 C 17.205,11.07 13.593,7.397 9.989,3.752 9.093,2.862 8.104,2.019 7.613,0.832 6.924,-0.662 7.7,-1.434 9.249,-1.231 c 3.773,0.563 7.503,1.652 11.279,2.313 1.254,0.171 2.599,0.537 3.953,-0.133 0.161,-0.1 0.357,-0.284 0.39,-0.559 0.03,-0.273 -0.091,-0.476 -0.198,-0.626 -0.659,-0.805 -1.602,-1.208 -2.485,-1.665 -2.337,-1.101 -4.777,-1.913 -7.227,-2.703 -1.183,-0.362 -2.422,-0.746 -3.289,-1.614 -1.023,-1.097 0.932,-1.68 1.778,-1.952 1.241,-0.389 2.431,-0.876 3.61,-1.396 1.485,-0.779 3.33,-1.311 4.373,-2.707 0.243,-1.081 -1.987,-0.634 -2.564,-0.621 -5.015,0.656 -10.394,1.873 -14.807,3.996 4.72,-1.933 9.785,-3.067 14.844,-3.653 0.704,-0.034 1.566,-0.207 2.169,0.094 -0.073,0.297 -0.527,0.545 -0.807,0.752 -2.153,1.3 -4.577,2.262 -6.972,3.022 -0.909,0.325 -2.23,0.614 -2.468,1.773 0.143,1.765 2.66,2.38 3.964,2.833 2.985,1.023 6.102,1.924 8.806,3.572 0.487,0.335 1.035,0.846 0.599,1.021 C 21.961,1.363 19.163,0.184 16.846,-0.119 14.332,-0.621 11.848,-1.215 9.276,-1.545 8.645,-1.58 7.879,-1.599 7.355,-1.033 6.337,0.83 8.645,2.729 9.834,3.911 c 3.665,3.554 7.2,7.31 10.078,11.537 2.589,3.741 4.055,8.781 -1.756,3.326 C 16.339,17.192 11.451,12.744 9.604,11.059 6.741,8.499 4.008,5.768 0.948,3.44 0.447,3.065 0.052,2.539 -0.028,1.908 -0.117,1.284 -0.02,0.641 0.053,0.007 0.06,-0.026 0.003,-0.034 0,0"
       style="fill:#000000;fill-opacity:1;fill-rule:nonzero;stroke:none"
       transform="matrix(1.3333333,0,0,-1.3333333,182.41707,772.42293)"
       clip-path="url(#clipPath6275)" />
    <path
       id="path6276"
       d="M 0,0 C 0.114,-4.847 2.136,-7.38 4.169,-7.311 6.577,-7.23 8.415,-3.256 8.274,1.59 8.133,6.436 6.042,9.454 3.636,9.479 2.157,9.494 -0.149,6.326 0,0"
       style="fill:#ffffff;fill-opacity:1;fill-rule:nonzero;stroke:none"
       transform="matrix(1.3333333,0,0,-1.3333333,122.29293,725.83653)"
       clip-path="url(#clipPath6277)" />
    <path
       id="path6278"
       d="M 0,0 C 0.031,3.257 -0.054,7.452 2.907,9.555 3.758,10.001 4.831,9.616 5.58,9.123 9.016,6.24 8.782,1.004 7.887,-2.981 7.404,-5.326 5.323,-8.821 2.552,-7.062 0.344,-5.469 0.101,-2.47 0,0 M 0.053,0.002 C 0.002,-5.966 5.234,-10.912 7.725,-2.937 8.592,0.884 8.449,5.964 5.258,8.657 1.324,11.358 -0.137,2.548 0.053,0.002"
       style="fill:#000000;fill-opacity:1;fill-rule:nonzero;stroke:none"
       transform="matrix(1.3333333,0,0,-1.3333333,122.25747,725.83773)"
       clip-path="url(#clipPath6279)" />
    <path
       id="path6280"
       d="m 0,0 c -0.098,-3.108 -1.847,-5.563 -3.907,-5.484 -2.06,0.079 -3.651,2.663 -3.554,5.771 0.098,3.108 1.848,5.564 3.908,5.484 C -1.493,5.692 0.098,3.108 0,0"
       style="fill:#36d94c;fill-opacity:1;fill-rule:nonzero;stroke:none"
       transform="matrix(1.3333333,0,0,-1.3333333,133.15573,723.5256)"
       clip-path="url(#clipPath6281)" />
    <path
       id="path6282"
       d="M 0,0 C -0.194,6.982 -6.635,7.435 -7.288,0.282 -7.536,-6.952 -0.541,-7.049 0,0 m 0.053,-0.002 c 0.127,-3.03 -2.375,-7.614 -5.728,-4.895 -2.918,2.74 -2.701,10.612 2.176,10.941 2.851,-0.261 3.661,-3.679 3.552,-6.046"
       style="fill:#000000;fill-opacity:1;fill-rule:nonzero;stroke:none"
       transform="matrix(1.3333333,0,0,-1.3333333,133.12013,723.52453)"
       clip-path="url(#clipPath6283)" />
    <path
       id="path6284"
       d="m 0,0 c -0.07,-2.225 -1.306,-3.984 -2.76,-3.928 -1.455,0.056 -2.577,1.905 -2.507,4.131 0.07,2.225 1.306,3.983 2.76,3.927 C -1.052,4.074 0.07,2.225 0,0"
       style="fill:#000000;fill-opacity:1;fill-rule:nonzero;stroke:none"
       transform="matrix(1.3333333,0,0,-1.3333333,132.1,723.48547)"
       clip-path="url(#clipPath6285)" />
    <path
       id="path6286"
       d="m 0,0 c 0.663,-1.026 0.649,-2.598 -0.031,-3.511 -0.681,-0.913 -1.77,-0.822 -2.433,0.204 -0.664,1.026 -0.65,2.597 0.031,3.511 C -1.753,1.117 -0.663,1.026 0,0"
       style="fill:#ffffff;fill-opacity:1;fill-rule:nonzero;stroke:none"
       transform="matrix(1.3333333,0,0,-1.3333333,133.6244,721.00653)"
       clip-path="url(#clipPath6287)" />
    <path
       id="path6288"
       d="M 0,0 C 0.52,0.681 2.822,3.59 3.503,3.89 4.313,4.247 4.68,5.193 4.323,6.003 3.967,6.813 3.021,7.18 2.211,6.823 1.359,6.448 -1.012,4.158 -1.856,1.986 -2.342,0.735 -1.237,-1.012 0,0"
       style="fill:#6137ed;fill-opacity:1;fill-rule:nonzero;stroke:none"
       transform="matrix(1.3333333,0,0,-1.3333333,118.2308,712.85053)"
       clip-path="url(#clipPath6289)" />
    <path
       id="path6290"
       d="m 0,0 c -0.769,-0.731 -1.844,-0.126 -2.112,0.794 -0.345,0.896 0.169,1.82 0.611,2.584 0.979,1.46 2.083,2.838 3.693,3.652 C 3.632,7.505 5.022,5.964 4.454,4.597 4.317,4.147 3.819,3.785 3.491,3.636 2.251,2.604 1.022,1.294 0,0 M -0.038,0.037 C 1.07,1.383 1.855,2.887 3.228,4.036 3.96,4.346 4.5,5.072 4.248,5.888 4.039,6.703 2.996,7.08 2.32,6.703 1.65,6.325 1.043,5.681 0.485,5.077 -0.44,3.871 -1.842,2.505 -1.733,0.894 -1.647,0.049 -0.786,-0.618 -0.038,0.037"
       style="fill:#000000;fill-opacity:1;fill-rule:nonzero;stroke:none"
       transform="matrix(1.3333333,0,0,-1.3333333,118.25627,712.87547)"
       clip-path="url(#clipPath6291)" />
    <path
       id="path6292"
       d="m 0,0 c 1.491,-6.004 1.062,-10.334 -0.504,-12.133 -1.565,-1.799 -5.097,-1.967 -7.296,-0.439 -2.198,1.528 -6.498,3.102 -9.996,1.284 -3.499,-1.818 -9.501,-14.814 -2.223,-24.556 4.054,-5.427 53.184,6.778 48.697,32.401"
       style="fill:#e73c6c;fill-opacity:1;fill-rule:nonzero;stroke:none"
       transform="matrix(1.3333333,0,0,-1.3333333,131.27467,713.17467)"
       clip-path="url(#clipPath6293)" />
    <path
       id="path6294"
       d="m 0,0 c 1.709,-6.047 2.309,-16.295 -7.059,-13.244 -1.143,0.59 -2.185,1.377 -3.422,1.787 -6.212,2.237 -9.43,-0.583 -11.516,-6.335 -2.251,-5.939 -1.912,-13.285 2.321,-18.26 1.009,-0.732 2.378,-0.831 3.634,-0.904 2.572,-0.074 5.146,0.293 7.676,0.778 15.436,3.252 39.556,13.766 37.044,32.733 3.275,-19.167 -21.515,-30.226 -36.968,-33.133 -2.557,-0.45 -5.153,-0.78 -7.764,-0.667 -1.301,0.095 -2.691,0.187 -3.78,1.002 -5.052,6.173 -4.679,15.427 -0.817,22.11 1.932,4.017 6.525,4.674 10.332,3.104 1.225,-0.418 2.334,-1.258 3.429,-1.843 C 2.296,-15.918 1.13,-5.592 0,0"
       style="fill:#000000;fill-opacity:1;fill-rule:nonzero;stroke:none"
       transform="matrix(1.3333333,0,0,-1.3333333,131.30893,713.16587)"
       clip-path="url(#clipPath6295)" />
    <path
       id="path6296"
       d="M 0,0 C -2.235,0.247 -4.501,0.385 -6.741,0.419 -4.562,1.12 -2.076,0.964 0,0"
       style="fill:#000000;fill-opacity:1;fill-rule:nonzero;stroke:none"
       transform="matrix(1.3333333,0,0,-1.3333333,174.794,718.6196)"
       clip-path="url(#clipPath6297)" />
    <path
       id="path6298"
       d="m 0,0 c -1.974,0.085 -3.408,4.012 -3.204,8.773 0.203,4.761 1.969,8.552 3.942,8.467 C 2.712,17.156 4.724,13.398 4.52,8.637 4.316,3.876 1.974,-0.085 0,0"
       style="fill:#000000;fill-opacity:1;fill-rule:nonzero;stroke:none"
       transform="matrix(1.3333333,0,0,-1.3333333,110.3956,755.9536)"
       clip-path="url(#clipPath6299)" />
    <path
       id="path6300"
       d="M 0,0 C 2.242,3.45 5.1,0.285 6.012,-2.384 7.8,-7.51 7.246,-14.321 3.199,-18.246 c -3.036,-2.411 -4.893,2.148 -5.171,4.588 0.464,-2.169 2.198,-6.522 4.913,-4.268 3.765,3.921 4.27,10.387 2.687,15.401 C 4.835,0.053 2.309,3.137 0,0"
       style="fill:#000000;fill-opacity:1;fill-rule:nonzero;stroke:none"
       transform="matrix(1.3333333,0,0,-1.3333333,106.31027,732.48027)"
       clip-path="url(#clipPath6301)" />
    <path
       id="path6302"
       d="m 0,0 c 2.055,-4.667 -0.062,-10.117 -4.729,-12.172 -4.668,-2.056 -10.117,0.062 -12.173,4.729 -2.055,4.667 0.062,10.117 4.73,12.172 C -7.505,6.785 -2.055,4.667 0,0"
       style="fill:#ffffff;fill-opacity:1;fill-rule:nonzero;stroke:#000000;stroke-width:0.534;stroke-linecap:round;stroke-linejoin:round;stroke-miterlimit:10;stroke-dasharray:none;stroke-opacity:1"
       transform="matrix(1.3333333,0,0,-1.3333333,162.76653,710.74187)"
       clip-path="url(#clipPath6303)" />
    <path
       id="path6304"
       d="m 0,0 c 1.401,-3.18 -0.042,-6.894 -3.223,-8.294 -3.18,-1.401 -6.894,0.042 -8.294,3.222 -1.401,3.181 0.042,6.894 3.223,8.295 C -5.114,4.623 -1.401,3.18 0,0"
       style="fill:#36d94c;fill-opacity:1;fill-rule:nonzero;stroke:none"
       transform="matrix(1.3333333,0,0,-1.3333333,159.74667,712.44947)"
       clip-path="url(#clipPath6305)" />
    <path
       id="path6306"
       d="M 0,0 C -3.565,7.099 -14.185,2.464 -11.358,-5.002 -8.05,-12.47 2.918,-7.348 0,0 m 0.049,0.022 c 2.417,-5.241 -2.716,-10.732 -8.095,-8.498 -3.205,1.215 -5.077,5.069 -3.787,8.321 2.017,5.458 9.683,5.501 11.882,0.177"
       style="fill:#000000;fill-opacity:1;fill-rule:nonzero;stroke:none"
       transform="matrix(1.3333333,0,0,-1.3333333,159.71387,712.464)"
       clip-path="url(#clipPath6307)" />
    <path
       id="path6308"
       d="m 0,0 c 0.854,-1.939 -0.026,-4.202 -1.964,-5.056 -1.939,-0.854 -4.203,0.026 -5.057,1.964 -0.853,1.939 0.026,4.203 1.965,5.057 C -3.117,2.818 -0.854,1.939 0,0"
       style="fill:#000000;fill-opacity:1;fill-rule:nonzero;stroke:none"
       transform="matrix(1.3333333,0,0,-1.3333333,156.74907,713.76947)"
       clip-path="url(#clipPath6309)" />
    <path
       id="path6310"
       d="m 0,0 c 1.063,-1.09 1.181,-2.826 0.265,-3.878 -0.916,-1.051 -2.52,-1.019 -3.583,0.072 -1.062,1.09 -1.181,2.826 -0.265,3.877 C -2.667,1.122 -1.062,1.09 0,0"
       style="fill:#ffffff;fill-opacity:1;fill-rule:nonzero;stroke:none"
       transform="matrix(1.3333333,0,0,-1.3333333,159.61253,710.582)"
       clip-path="url(#clipPath6311)" />
    <path
       id="path6312"
       d="m 0,0 c -3.301,-1.446 -10.957,-3.953 -12.044,-9.014 0,0 -1.681,-3.129 5.057,-4.97 C -0.25,-15.825 6.164,-6.172 0,0"
       style="fill:#e73c6c;fill-opacity:1;fill-rule:nonzero;stroke:none"
       transform="matrix(1.3333333,0,0,-1.3333333,164.8496,717.3332)"
       clip-path="url(#clipPath6313)" />
    <path
       id="path6314"
       d="M 0,0 C -3.301,-1.446 -10.957,-3.953 -12.044,-9.014"
       style="fill:#e73c6c;fill-opacity:1;fill-rule:nonzero;stroke:none"
       transform="matrix(1.3333333,0,0,-1.3333333,164.8496,717.3332)"
       clip-path="url(#clipPath6315)" />
    <path
       id="path6316"
       d="M 0,0 C -4.335,-2.372 -10.2,-3.917 -12.044,-9.014 -10.908,-3.58 -4.602,-1.657 0,0"
       style="fill:#000000;fill-opacity:1;fill-rule:nonzero;stroke:none"
       transform="matrix(1.3333333,0,0,-1.3333333,164.84933,717.33307)"
       clip-path="url(#clipPath6317)" />
    <path
       id="path6318"
       d="m 0,0 c 0.382,0.764 0.107,1.741 -0.612,2.181 -3.63,2.22 -10.474,2.953 -14.878,0.502 -0.714,-0.397 -0.975,-1.358 -0.582,-2.145 0.392,-0.788 1.289,-1.103 2.003,-0.707 3.697,2.057 9.508,1.111 12.075,-0.418 C -0.835,-1.277 -0.209,-0.418 0,0"
       style="fill:#6137ed;fill-opacity:1;fill-rule:nonzero;stroke:none"
       transform="matrix(1.3333333,0,0,-1.3333333,156.1136,701.18627)"
       clip-path="url(#clipPath6319)" />
    <path
       id="path6320"
       d="m 0,0 c -0.939,-1.942 -2.755,0.011 -4.195,0.163 -2.967,0.717 -6.218,0.914 -9.096,-0.206 -0.672,-0.378 -1.678,-0.807 -2.407,-0.182 -1.123,0.793 -0.934,2.724 0.382,3.146 3.934,1.791 8.699,2.034 12.725,0.384 C -1.254,2.765 0.864,1.762 0,0 m -0.048,0.024 c 1.286,2.907 -5.352,3.619 -7.207,3.905 -2.68,0.308 -5.551,0.124 -7.955,-1.212 -1.109,-0.404 -1.182,-2.016 -0.251,-2.607 0.692,-0.476 1.28,-0.034 1.971,0.308 2.971,1.249 6.395,1.106 9.394,0.068 1.359,-0.263 3.069,-2.346 4.048,-0.462"
       style="fill:#000000;fill-opacity:1;fill-rule:nonzero;stroke:none"
       transform="matrix(1.3333333,0,0,-1.3333333,156.1456,701.20227)"
       clip-path="url(#clipPath6321)" />
    <path
       id="path6322"
       d="m 0,0 c 0.038,-8.825 5.582,-7.007 6.674,-9.959 1.092,-2.952 -3.587,-8.861 2.61,-8.524 3.207,0.174 -2.087,-3.891 -2.832,-5.616 -0.745,-1.726 3.28,-1.78 3.853,-4.025 0.572,-2.244 -1.491,-4.854 -9.549,-5.245 -8.758,-0.424 -5.77,-1.036 -6.765,0.246 -0.994,1.281 -10.448,6.56 -9.48,9.243 C -14.521,-21.196 -0.005,1.147 0,0"
       style="fill:#d8eb36;fill-opacity:1;fill-rule:nonzero;stroke:none"
       transform="matrix(1.3333333,0,0,-1.3333333,192.516,666.07347)"
       clip-path="url(#clipPath6323)" />
    <path
       id="path6324"
       d="M 0,0 C -0.093,0.02 -0.388,-0.39 -0.479,-0.486 -0.764,-0.855 -1.573,-1.963 -1.85,-2.368 -5.835,-8.23 -9.795,-14.705 -13.454,-20.75 c -0.521,-0.891 -1.047,-1.786 -1.505,-2.695 -0.251,-0.483 -0.384,-0.825 -0.214,-1.272 1.064,-2.282 3.429,-3.69 5.384,-5.234 10e-4,0 2.524,-1.815 2.524,-1.815 0.635,-0.551 1.759,-1.069 1.731,-2.026 -0.004,0.072 -0.147,0.125 -0.104,0.104 0.062,-0.004 0.221,0.014 0.339,0.027 4.882,0.8 10.904,-0.486 14.881,3.015 1.673,2.032 0.337,3.764 -1.772,4.631 -0.627,0.339 -1.75,0.803 -1.544,1.74 0.807,1.942 2.751,3.126 3.732,4.954 0.109,0.208 0.144,0.437 0.074,0.485 -0.206,0.198 -0.829,0.107 -1.338,0.108 -0.533,0.01 -1.08,0.061 -1.61,0.263 -3.302,1.575 0.688,6.318 -0.756,8.815 C 5.88,-8.793 4.865,-8.379 3.965,-7.889 0.893,-6.573 -0.103,-3.073 0,0 m 0.054,0 c -0.063,-3.068 0.924,-6.469 4.018,-7.682 0.896,-0.463 1.97,-0.83 2.58,-1.8 1.627,-2.369 -2.119,-7.19 0.648,-8.543 0.649,-0.265 1.505,-0.248 2.215,-0.225 3.239,-0.228 -2.127,-4.382 -2.628,-5.456 -0.896,-1.061 0.16,-1.62 1.046,-2.072 0.887,-0.479 1.94,-0.967 2.395,-2.002 0.425,-1.013 0.131,-2.224 -0.611,-2.987 -2.308,-2.215 -5.769,-2.452 -8.791,-2.71 -2.068,-0.124 -4.132,-0.274 -6.174,-0.578 -1.334,1.361 -3.167,2.489 -4.834,3.696 -1.678,1.222 -3.386,2.433 -4.785,4.053 -0.504,0.627 -1.079,1.435 -0.914,2.326 2.326,4.951 5.606,9.399 8.559,13.988 1.966,2.932 4.127,6.074 6.215,8.932 0.139,0.153 0.576,0.763 0.733,0.91 0.07,0.07 0.133,0.15 0.223,0.201 C -0.03,0.085 0.066,0.06 0.054,0"
       style="fill:#000000;fill-opacity:1;fill-rule:nonzero;stroke:none"
       transform="matrix(1.3333333,0,0,-1.3333333,192.48013,666.07333)"
       clip-path="url(#clipPath6325)" />
    <path
       id="path6326"
       d="M 0,0 C 2.68,4.726 6.207,8.892 9.633,13.084 7.214,9.041 2.871,3.807 0,0"
       style="fill:#000000;fill-opacity:1;fill-rule:nonzero;stroke:none"
       transform="matrix(1.3333333,0,0,-1.3333333,177.09933,704.76147)"
       clip-path="url(#clipPath6327)" />
    <path
       id="path6328"
       d="M 0,0 C 2.798,1.148 5.805,1.534 8.754,2.087 6.011,0.831 2.968,0.44 0,0"
       style="fill:#000000;fill-opacity:1;fill-rule:nonzero;stroke:none"
       transform="matrix(1.3333333,0,0,-1.3333333,182.67227,707.02253)"
       clip-path="url(#clipPath6329)" />
    <path
       id="path6330"
       d="m 0,0 c 0.547,1.593 7.377,17.499 18.656,30.1 0.971,1.085 3.785,2.327 1.066,-3.316 C 16.962,21.055 9.732,8.134 7.893,4.516 6.054,0.898 8.027,-1.458 11.543,0.715 c 5.118,3.162 14.73,8.359 17.354,9.722 2.139,1.112 5.901,1.247 1.552,-1.397 C 26.1,6.397 13.659,-1.208 11.579,-2.91 c -1.376,-1.126 0.886,-1.066 3.66,-0.989 2.722,0.076 11.802,-0.108 15.542,-0.333 3.794,-0.229 3.172,-2.244 -2.579,-2.176 -5.751,0.068 -14.91,-1.573 -16.231,-0.698"
       style="fill:#e73c6c;fill-opacity:1;fill-rule:nonzero;stroke:none"
       transform="matrix(1.3333333,0,0,-1.3333333,168.12493,702.33373)"
       clip-path="url(#clipPath6331)" />
    <path
       id="path6332"
       d="m 0,0 c 3.981,9.831 9.465,19.081 16.072,27.378 1.214,1.296 2.113,3.065 3.807,3.791 2.562,0.528 0.463,-3.604 -0.013,-4.612 C 16.294,19.446 12.32,12.542 8.555,5.542 8.145,4.76 7.691,3.996 7.475,3.148 6.892,1.273 7.809,-0.544 9.968,0.104 c 1.422,0.427 3.263,1.835 4.599,2.55 4.449,2.585 9.367,5.37 13.88,7.782 4.157,2.125 6.394,0.57 1.347,-2.104 -3.749,-2.29 -7.559,-4.634 -11.268,-6.973 -2.339,-1.56 -4.91,-2.937 -7.035,-4.762 -0.047,-0.067 -0.034,-0.094 -0.043,-0.056 -0.014,0.018 0.035,-0.034 0.115,-0.06 2.093,-0.388 4.358,0.016 6.516,-0.114 0,0 5.305,-0.11 5.305,-0.11 l 5.302,-0.188 c 1.33,-0.105 2.716,0.006 3.998,-0.486 0.214,-0.101 0.445,-0.208 0.61,-0.464 0.197,-0.285 0.003,-0.681 -0.191,-0.811 -1.604,-1.018 -3.492,-0.835 -5.274,-0.876 -3.053,-0.003 -7.477,-0.437 -10.566,-0.685 -1.741,-0.04 -3.609,-0.466 -5.282,0.116 -0.032,0.018 0,0.063 0.03,0.044 1.659,-0.532 3.52,-0.079 5.238,-0.005 0,0 5.276,0.528 5.276,0.528 1.762,0.155 3.528,0.294 5.304,0.307 1.653,0.036 3.629,-0.063 5.033,0.84 0.838,1.105 -3.561,1.023 -4.192,1.076 -5.158,0.162 -10.761,0.241 -15.902,0.148 -1.165,-0.032 -2.772,0.405 -1.176,1.599 2.152,1.586 4.417,2.956 6.662,4.39 4.406,2.861 9.121,5.46 13.462,8.399 0.208,0.181 0.443,0.383 0.518,0.619 -0.001,0.039 0.016,0.005 -0.023,0.044 -1.117,0.283 -2.519,-0.28 -3.553,-0.818 C 23.966,7.579 19.297,5.058 14.703,2.421 L 12.419,1.079 C 11.072,0.212 8.8,-1.105 7.516,0.554 6.517,2.233 7.628,4.117 8.401,5.624 l 1.24,2.344 c 3.606,7.057 7.842,13.86 10.843,21.188 0.241,0.756 0.407,1.969 -0.465,1.581 -1.491,-0.678 -2.456,-2.475 -3.591,-3.65 -2.254,-2.712 -4.318,-5.58 -6.267,-8.52 C 6.28,12.728 2.816,6.245 0,0"
       style="fill:#000000;fill-opacity:1;fill-rule:nonzero;stroke:none"
       transform="matrix(1.3333333,0,0,-1.3333333,168.09147,702.322)"
       clip-path="url(#clipPath6333)" />
  </g>
</svg>
