<?xml version="1.0" encoding="UTF-8" standalone="no"?>
<!-- Created with Inkscape (http://www.inkscape.org/) -->

<svg
   version="1.1"
   id="svg1"
   width="219.41547"
   height="199.90381"
   viewBox="0 0 219.41547 199.90381"
   xmlns="http://www.w3.org/2000/svg"
   xmlns:svg="http://www.w3.org/2000/svg">
  <defs
     id="defs1">
    <clipPath
       clipPathUnits="userSpaceOnUse"
       id="clipPath3106">
      <path
         d="M 0,841.89 H 688.077 V 0 H 0 Z"
         transform="translate(-427.72011,-257.88021)"
         id="path3106" />
    </clipPath>
    <clipPath
       clipPathUnits="userSpaceOnUse"
       id="clipPath3108">
      <path
         d="M 0,841.89 H 688.077 V 0 H 0 Z"
         transform="translate(-418.45911,-265.46271)"
         id="path3108" />
    </clipPath>
    <clipPath
       clipPathUnits="userSpaceOnUse"
       id="clipPath3110">
      <path
         d="M 0,841.89 H 688.077 V 0 H 0 Z"
         transform="translate(-436.31461,-274.4461)"
         id="path3110" />
    </clipPath>
    <clipPath
       clipPathUnits="userSpaceOnUse"
       id="clipPath3112">
      <path
         d="M 0,841.89 H 688.077 V 0 H 0 Z"
         transform="translate(-520.06091,-184.19661)"
         id="path3112" />
    </clipPath>
    <clipPath
       clipPathUnits="userSpaceOnUse"
       id="clipPath3114">
      <path
         d="M 0,841.89 H 688.077 V 0 H 0 Z"
         transform="translate(-528.19351,-157.3026)"
         id="path3114" />
    </clipPath>
    <clipPath
       clipPathUnits="userSpaceOnUse"
       id="clipPath3116">
      <path
         d="M 0,841.89 H 688.077 V 0 H 0 Z"
         transform="translate(-511.85741,-200.86921)"
         id="path3116" />
    </clipPath>
    <clipPath
       clipPathUnits="userSpaceOnUse"
       id="clipPath3118">
      <path
         d="M 0,841.89 H 688.077 V 0 H 0 Z"
         transform="translate(-535.19251,-195.2503)"
         id="path3118" />
    </clipPath>
    <clipPath
       clipPathUnits="userSpaceOnUse"
       id="clipPath3120">
      <path
         d="M 0,841.89 H 688.077 V 0 H 0 Z"
         transform="translate(-529.22021,-186.89601)"
         id="path3120" />
    </clipPath>
    <clipPath
       clipPathUnits="userSpaceOnUse"
       id="clipPath3122">
      <path
         d="M 0,841.89 H 688.077 V 0 H 0 Z"
         transform="translate(-528.91522,-186.9315)"
         id="path3122" />
    </clipPath>
    <clipPath
       clipPathUnits="userSpaceOnUse"
       id="clipPath3124">
      <path
         d="M 0,841.89 H 688.077 V 0 H 0 Z"
         transform="translate(-521.09051,-184.9383)"
         id="path3124" />
    </clipPath>
    <clipPath
       clipPathUnits="userSpaceOnUse"
       id="clipPath3126">
      <path
         d="M 0,841.89 H 688.077 V 0 H 0 Z"
         transform="translate(-468.01661,-191.2999)"
         id="path3126" />
    </clipPath>
    <clipPath
       clipPathUnits="userSpaceOnUse"
       id="clipPath3128">
      <path
         d="M 0,841.89 H 688.077 V 0 H 0 Z"
         transform="translate(-465.87391,-213.50371)"
         id="path3128" />
    </clipPath>
    <clipPath
       clipPathUnits="userSpaceOnUse"
       id="clipPath3130">
      <path
         d="M 0,841.89 H 688.077 V 0 H 0 Z"
         transform="translate(-516.54131,-276.29371)"
         id="path3130" />
    </clipPath>
    <clipPath
       clipPathUnits="userSpaceOnUse"
       id="clipPath3132">
      <path
         d="M 0,841.89 H 688.077 V 0 H 0 Z"
         transform="translate(-459.76531,-276.0145)"
         id="path3132" />
    </clipPath>
    <clipPath
       clipPathUnits="userSpaceOnUse"
       id="clipPath3134">
      <path
         d="M 0,841.89 H 688.077 V 0 H 0 Z"
         transform="translate(-493.79161,-281.4613)"
         id="path3134" />
    </clipPath>
    <clipPath
       clipPathUnits="userSpaceOnUse"
       id="clipPath3136">
      <path
         d="M 0,841.89 H 688.077 V 0 H 0 Z"
         transform="translate(-516.54431,-276.29371)"
         id="path3136" />
    </clipPath>
    <clipPath
       clipPathUnits="userSpaceOnUse"
       id="clipPath3138">
      <path
         d="M 0,841.89 H 688.077 V 0 H 0 Z"
         transform="translate(-438.86981,-263.44951)"
         id="path3138" />
    </clipPath>
    <clipPath
       clipPathUnits="userSpaceOnUse"
       id="clipPath3140">
      <path
         d="M 0,841.89 H 688.077 V 0 H 0 Z"
         transform="translate(-517.81141,-196.05651)"
         id="path3140" />
    </clipPath>
    <clipPath
       clipPathUnits="userSpaceOnUse"
       id="clipPath3142">
      <path
         d="M 0,841.89 H 688.077 V 0 H 0 Z"
         transform="translate(-515.82391,-201.99741)"
         id="path3142" />
    </clipPath>
    <clipPath
       clipPathUnits="userSpaceOnUse"
       id="clipPath3144">
      <path
         d="M 0,841.89 H 688.077 V 0 H 0 Z"
         transform="translate(-509.91592,-253.44601)"
         id="path3144" />
    </clipPath>
    <clipPath
       clipPathUnits="userSpaceOnUse"
       id="clipPath3146">
      <path
         d="M 0,841.89 H 688.077 V 0 H 0 Z"
         transform="translate(-509.82652,-253.44601)"
         id="path3146" />
    </clipPath>
    <clipPath
       clipPathUnits="userSpaceOnUse"
       id="clipPath3148">
      <path
         d="M 0,841.89 H 688.077 V 0 H 0 Z"
         transform="translate(-565.31261,-264.01311)"
         id="path3148" />
    </clipPath>
    <clipPath
       clipPathUnits="userSpaceOnUse"
       id="clipPath3150">
      <path
         d="M 0,841.89 H 688.077 V 0 H 0 Z"
         transform="translate(-575.39662,-261.0667)"
         id="path3150" />
    </clipPath>
    <clipPath
       clipPathUnits="userSpaceOnUse"
       id="clipPath3152">
      <path
         d="M 0,841.89 H 688.077 V 0 H 0 Z"
         transform="translate(-565.31261,-264.01311)"
         id="path3152" />
    </clipPath>
    <clipPath
       clipPathUnits="userSpaceOnUse"
       id="clipPath3154">
      <path
         d="M 0,841.89 H 688.077 V 0 H 0 Z"
         transform="translate(-563.89642,-264.5566)"
         id="path3154" />
    </clipPath>
    <clipPath
       clipPathUnits="userSpaceOnUse"
       id="clipPath3156">
      <path
         d="M 0,841.89 H 688.077 V 0 H 0 Z"
         transform="translate(-569.00992,-255.62191)"
         id="path3156" />
    </clipPath>
    <clipPath
       clipPathUnits="userSpaceOnUse"
       id="clipPath3158">
      <path
         d="M 0,841.89 H 688.077 V 0 H 0 Z"
         transform="translate(-563.61052,-262.807)"
         id="path3158" />
    </clipPath>
    <clipPath
       clipPathUnits="userSpaceOnUse"
       id="clipPath3160">
      <path
         d="M 0,841.89 H 688.077 V 0 H 0 Z"
         transform="translate(-520.30741,-279.95971)"
         id="path3160" />
    </clipPath>
    <clipPath
       clipPathUnits="userSpaceOnUse"
       id="clipPath3162">
      <path
         d="M 0,841.89 H 688.077 V 0 H 0 Z"
         transform="translate(-510.11002,-252.11661)"
         id="path3162" />
    </clipPath>
    <clipPath
       clipPathUnits="userSpaceOnUse"
       id="clipPath3164">
      <path
         d="M 0,841.89 H 688.077 V 0 H 0 Z"
         transform="translate(-497.40931,-263.32891)"
         id="path3164" />
    </clipPath>
    <clipPath
       clipPathUnits="userSpaceOnUse"
       id="clipPath3166">
      <path
         d="M 0,841.89 H 688.077 V 0 H 0 Z"
         transform="translate(-500.94502,-258.2332)"
         id="path3166" />
    </clipPath>
    <clipPath
       clipPathUnits="userSpaceOnUse"
       id="clipPath3168">
      <path
         d="M 0,841.89 H 688.077 V 0 H 0 Z"
         transform="translate(-515.69231,-260.7058)"
         id="path3168" />
    </clipPath>
    <clipPath
       clipPathUnits="userSpaceOnUse"
       id="clipPath3170">
      <path
         d="M 0,841.89 H 688.077 V 0 H 0 Z"
         transform="translate(-520.37962,-239.64921)"
         id="path3170" />
    </clipPath>
    <clipPath
       clipPathUnits="userSpaceOnUse"
       id="clipPath3172">
      <path
         d="M 0,841.89 H 688.077 V 0 H 0 Z"
         transform="translate(-513.96451,-249.38511)"
         id="path3172" />
    </clipPath>
    <clipPath
       clipPathUnits="userSpaceOnUse"
       id="clipPath3174">
      <path
         d="M 0,841.89 H 688.077 V 0 H 0 Z"
         transform="translate(-519.29461,-248.00961)"
         id="path3174" />
    </clipPath>
    <clipPath
       clipPathUnits="userSpaceOnUse"
       id="clipPath3176">
      <path
         d="M 0,841.89 H 688.077 V 0 H 0 Z"
         transform="translate(-558.40921,-242.68821)"
         id="path3176" />
    </clipPath>
    <clipPath
       clipPathUnits="userSpaceOnUse"
       id="clipPath3178">
      <path
         d="m 559.07,254.274 c -1.321,-3.659 -1.271,-7.165 -0.661,-11.585 v 0 c 0,0 1.118,-4.828 3.449,-0.323 v 0 c 2.332,4.506 2.344,10.231 1.607,13.313 v 0 c -0.309,1.289 -0.897,1.894 -1.573,1.894 v 0 c -0.941,0 -2.053,-1.17 -2.822,-3.299"
         transform="translate(-562.96001,-248.81941)"
         id="path3178" />
    </clipPath>
    <clipPath
       clipPathUnits="userSpaceOnUse"
       id="clipPath3180">
      <path
         d="m 559.07,254.274 c -1.321,-3.659 -1.271,-7.165 -0.661,-11.585 v 0 c 0,0 1.118,-4.828 3.449,-0.323 v 0 c 2.332,4.506 2.344,10.231 1.607,13.313 v 0 c -0.309,1.289 -0.897,1.894 -1.573,1.894 v 0 c -0.941,0 -2.053,-1.17 -2.822,-3.299"
         transform="translate(-562.96001,-248.81941)"
         id="path3180" />
    </clipPath>
    <clipPath
       clipPathUnits="userSpaceOnUse"
       id="clipPath3182">
      <path
         d="m 559.07,254.274 c -1.321,-3.659 -1.271,-7.165 -0.661,-11.585 v 0 c 0,0 1.118,-4.828 3.449,-0.323 v 0 c 2.332,4.506 2.344,10.231 1.607,13.313 v 0 c -0.309,1.289 -0.897,1.894 -1.573,1.894 v 0 c -0.941,0 -2.053,-1.17 -2.822,-3.299"
         transform="translate(-562.19242,-248.97081)"
         id="path3182" />
    </clipPath>
    <clipPath
       clipPathUnits="userSpaceOnUse"
       id="clipPath3184">
      <path
         d="m 559.07,254.274 c -1.321,-3.659 -1.271,-7.165 -0.661,-11.585 v 0 c 0,0 1.118,-4.828 3.449,-0.323 v 0 c 2.332,4.506 2.344,10.231 1.607,13.313 v 0 c -0.309,1.289 -0.897,1.894 -1.573,1.894 v 0 c -0.941,0 -2.053,-1.17 -2.822,-3.299"
         transform="translate(-561.17441,-251.76991)"
         id="path3184" />
    </clipPath>
    <clipPath
       clipPathUnits="userSpaceOnUse"
       id="clipPath3186">
      <path
         d="M 0,841.89 H 688.077 V 0 H 0 Z"
         transform="translate(-558.93712,-254.32161)"
         id="path3186" />
    </clipPath>
    <clipPath
       clipPathUnits="userSpaceOnUse"
       id="clipPath3188">
      <path
         d="M 0,841.89 H 688.077 V 0 H 0 Z"
         transform="translate(-512.80781,-266.40271)"
         id="path3188" />
    </clipPath>
    <clipPath
       clipPathUnits="userSpaceOnUse"
       id="clipPath3190">
      <path
         d="M 0,841.89 H 688.077 V 0 H 0 Z"
         transform="translate(-512.95471,-266.40901)"
         id="path3190" />
    </clipPath>
    <clipPath
       clipPathUnits="userSpaceOnUse"
       id="clipPath3192">
      <path
         d="M 0,841.89 H 688.077 V 0 H 0 Z"
         transform="translate(-552.11191,-288.53211)"
         id="path3192" />
    </clipPath>
    <clipPath
       clipPathUnits="userSpaceOnUse"
       id="clipPath3194">
      <path
         d="M 0,841.89 H 688.077 V 0 H 0 Z"
         transform="translate(-530.73451,-288.83631)"
         id="path3194" />
    </clipPath>
    <clipPath
       clipPathUnits="userSpaceOnUse"
       id="clipPath3196">
      <path
         d="M 0,841.89 H 688.077 V 0 H 0 Z"
         transform="translate(-542.63441,-264.3709)"
         id="path3196" />
    </clipPath>
    <clipPath
       clipPathUnits="userSpaceOnUse"
       id="clipPath3198">
      <path
         d="M 0,841.89 H 688.077 V 0 H 0 Z"
         transform="translate(-529.46572,-265.82581)"
         id="path3198" />
    </clipPath>
    <clipPath
       clipPathUnits="userSpaceOnUse"
       id="clipPath3200">
      <path
         d="M 0,841.89 H 688.077 V 0 H 0 Z"
         transform="translate(-529.24282,-265.61461)"
         id="path3200" />
    </clipPath>
    <clipPath
       clipPathUnits="userSpaceOnUse"
       id="clipPath3202">
      <path
         d="M 0,841.89 H 688.077 V 0 H 0 Z"
         transform="translate(-538.60402,-240.97521)"
         id="path3202" />
    </clipPath>
    <clipPath
       clipPathUnits="userSpaceOnUse"
       id="clipPath3204">
      <path
         d="M 0,841.89 H 688.077 V 0 H 0 Z"
         transform="translate(-522.76781,-242.96421)"
         id="path3204" />
    </clipPath>
    <clipPath
       clipPathUnits="userSpaceOnUse"
       id="clipPath3206">
      <path
         d="M 0,841.89 H 688.077 V 0 H 0 Z"
         transform="translate(-530.68421,-227.7823)"
         id="path3206" />
    </clipPath>
    <clipPath
       clipPathUnits="userSpaceOnUse"
       id="clipPath3208">
      <path
         d="M 0,841.89 H 688.077 V 0 H 0 Z"
         transform="translate(-531.16762,-226.16541)"
         id="path3208" />
    </clipPath>
    <clipPath
       clipPathUnits="userSpaceOnUse"
       id="clipPath3210">
      <path
         d="M 0,841.89 H 688.077 V 0 H 0 Z"
         transform="translate(-535.26361,-228.2083)"
         id="path3210" />
    </clipPath>
    <clipPath
       clipPathUnits="userSpaceOnUse"
       id="clipPath3212">
      <path
         d="M 0,841.89 H 688.077 V 0 H 0 Z"
         transform="translate(-543.12281,-218.58631)"
         id="path3212" />
    </clipPath>
    <clipPath
       clipPathUnits="userSpaceOnUse"
       id="clipPath3214">
      <path
         d="M 0,841.89 H 688.077 V 0 H 0 Z"
         transform="translate(-541.97962,-222.58581)"
         id="path3214" />
    </clipPath>
    <clipPath
       clipPathUnits="userSpaceOnUse"
       id="clipPath3216">
      <path
         d="M 0,841.89 H 688.077 V 0 H 0 Z"
         transform="translate(-538.60402,-240.97521)"
         id="path3216" />
    </clipPath>
    <clipPath
       clipPathUnits="userSpaceOnUse"
       id="clipPath3218">
      <path
         d="M 0,841.89 H 688.077 V 0 H 0 Z"
         transform="translate(-543.45961,-242.12871)"
         id="path3218" />
    </clipPath>
    <clipPath
       clipPathUnits="userSpaceOnUse"
       id="clipPath3220">
      <path
         d="M 0,841.89 H 688.077 V 0 H 0 Z"
         transform="translate(-554.25451,-232.4539)"
         id="path3220" />
    </clipPath>
    <clipPath
       clipPathUnits="userSpaceOnUse"
       id="clipPath3222">
      <path
         d="M 0,841.89 H 688.077 V 0 H 0 Z"
         transform="translate(-556.73452,-215.43391)"
         id="path3222" />
    </clipPath>
    <clipPath
       clipPathUnits="userSpaceOnUse"
       id="clipPath3224">
      <path
         d="M 0,841.89 H 688.077 V 0 H 0 Z"
         transform="translate(-530.14081,-228.3499)"
         id="path3224" />
    </clipPath>
    <clipPath
       clipPathUnits="userSpaceOnUse"
       id="clipPath3226">
      <path
         d="M 0,841.89 H 688.077 V 0 H 0 Z"
         transform="translate(-526.35341,-243.54261)"
         id="path3226" />
    </clipPath>
    <clipPath
       clipPathUnits="userSpaceOnUse"
       id="clipPath3228">
      <path
         d="M 0,841.89 H 688.077 V 0 H 0 Z"
         transform="translate(-539.15671,-249.18201)"
         id="path3228" />
    </clipPath>
    <clipPath
       clipPathUnits="userSpaceOnUse"
       id="clipPath3230">
      <path
         d="M 0,841.89 H 688.077 V 0 H 0 Z"
         transform="translate(-537.08561,-257.61021)"
         id="path3230" />
    </clipPath>
    <clipPath
       clipPathUnits="userSpaceOnUse"
       id="clipPath3232">
      <path
         d="M 0,841.89 H 688.077 V 0 H 0 Z"
         transform="translate(-539.15671,-249.18201)"
         id="path3232" />
    </clipPath>
    <clipPath
       clipPathUnits="userSpaceOnUse"
       id="clipPath3234">
      <path
         d="M 0,841.89 H 688.077 V 0 H 0 Z"
         transform="translate(-537.29512,-249.28701)"
         id="path3234" />
    </clipPath>
    <clipPath
       clipPathUnits="userSpaceOnUse"
       id="clipPath3236">
      <path
         d="M 0,841.89 H 688.077 V 0 H 0 Z"
         transform="translate(-537.84442,-241.0198)"
         id="path3236" />
    </clipPath>
    <clipPath
       clipPathUnits="userSpaceOnUse"
       id="clipPath3238">
      <path
         d="M 0,841.89 H 688.077 V 0 H 0 Z"
         transform="translate(-530.50252,-250.77121)"
         id="path3238" />
    </clipPath>
    <clipPath
       clipPathUnits="userSpaceOnUse"
       id="clipPath3240">
      <path
         d="M 0,841.89 H 688.077 V 0 H 0 Z"
         transform="translate(-445.98741,-192.69501)"
         id="path3240" />
    </clipPath>
    <clipPath
       clipPathUnits="userSpaceOnUse"
       id="clipPath3242">
      <path
         d="M 0,841.89 H 688.077 V 0 H 0 Z"
         transform="translate(-444.17001,-214.08771)"
         id="path3242" />
    </clipPath>
    <clipPath
       clipPathUnits="userSpaceOnUse"
       id="clipPath3244">
      <path
         d="M 0,841.89 H 688.077 V 0 H 0 Z"
         transform="translate(-444.14911,-213.9403)"
         id="path3244" />
    </clipPath>
    <clipPath
       clipPathUnits="userSpaceOnUse"
       id="clipPath3246">
      <path
         d="M 0,841.89 H 688.077 V 0 H 0 Z"
         transform="translate(-443.87901,-197.4217)"
         id="path3246" />
    </clipPath>
    <clipPath
       clipPathUnits="userSpaceOnUse"
       id="clipPath3248">
      <path
         d="M 0,841.89 H 688.077 V 0 H 0 Z"
         transform="translate(-484.47301,-184.6587)"
         id="path3248" />
    </clipPath>
    <clipPath
       clipPathUnits="userSpaceOnUse"
       id="clipPath3250">
      <path
         d="M 0,841.89 H 688.077 V 0 H 0 Z"
         transform="translate(-478.11001,-219.02341)"
         id="path3250" />
    </clipPath>
    <clipPath
       clipPathUnits="userSpaceOnUse"
       id="clipPath3252">
      <path
         d="M 0,841.89 H 688.077 V 0 H 0 Z"
         transform="translate(-478.16911,-218.90311)"
         id="path3252" />
    </clipPath>
    <clipPath
       clipPathUnits="userSpaceOnUse"
       id="clipPath3254">
      <path
         d="M 0,841.89 H 688.077 V 0 H 0 Z"
         transform="translate(-501.80242,-197.64531)"
         id="path3254" />
    </clipPath>
    <clipPath
       clipPathUnits="userSpaceOnUse"
       id="clipPath3256">
      <path
         d="M 0,841.89 H 688.077 V 0 H 0 Z"
         transform="translate(-479.19301,-192.49491)"
         id="path3256" />
    </clipPath>
    <clipPath
       clipPathUnits="userSpaceOnUse"
       id="clipPath3258">
      <path
         d="M 0,841.89 H 688.077 V 0 H 0 Z"
         transform="translate(-473.42351,-209.78061)"
         id="path3258" />
    </clipPath>
    <clipPath
       clipPathUnits="userSpaceOnUse"
       id="clipPath3260">
      <path
         d="M 0,841.89 H 688.077 V 0 H 0 Z"
         transform="translate(-484.28581,-183.13311)"
         id="path3260" />
    </clipPath>
    <clipPath
       clipPathUnits="userSpaceOnUse"
       id="clipPath3262">
      <path
         d="M 0,841.89 H 688.077 V 0 H 0 Z"
         transform="translate(-492.98991,-184.3621)"
         id="path3262" />
    </clipPath>
  </defs>
  <g
     id="layer-MC6"
     transform="translate(-551.92833,-728.73949)">
    <path
       id="path3105"
       d="m 0,0 c -2.638,0.417 -7.983,2.013 -8.607,4.026 -0.625,2.013 -0.347,3.54 -0.347,3.54 0,0 -4.582,3.263 -4.512,5.9 0.069,2.638 3.817,6.456 6.525,8.261 2.707,1.805 6.941,4.234 9.856,3.123 2.916,-1.11 5.068,-5.692 5.623,-7.982 0,0 1.944,0.555 2.985,-0.486 1.041,-1.041 1.18,-5.692 1.18,-5.692 0,0 1.249,0.833 2.638,-0.07 1.388,-0.902 1.11,-8.052 0,-8.885 -1.111,-0.833 -3.194,-1.249 -3.194,-1.249 0,0 1.875,-1.735 -1.388,-3.263 -3.262,-1.527 -9.44,-1.804 -10.412,0 C -0.625,-0.972 0,0 0,0"
       style="fill:#ebeeff;fill-opacity:1;fill-rule:nonzero;stroke:#000000;stroke-width:0.614;stroke-linecap:round;stroke-linejoin:miter;stroke-miterlimit:10;stroke-dasharray:none;stroke-opacity:1"
       transform="matrix(1.3333333,0,0,-1.3333333,570.29347,778.67973)"
       clip-path="url(#clipPath3106)" />
    <path
       id="path3107"
       d="M 0,0 C 0.296,2.979 2.178,6.275 5.329,6.848 8.36,7.123 11.8,5.551 12.755,2.464 13.384,0.358 11.926,-1.758 10.062,-2.618 9.99,-2.653 9.903,-2.624 9.867,-2.552 9.832,-2.481 9.861,-2.397 9.928,-2.36 11.465,-1.361 12.72,0.435 12.174,2.306 11.39,4.979 8.08,6.493 5.433,6.209 2.638,5.68 0.917,2.611 0.613,-0.033 0.606,-0.438 -0.037,-0.405 0,0"
       style="fill:#000000;fill-opacity:1;fill-rule:nonzero;stroke:none"
       transform="matrix(1.3333333,0,0,-1.3333333,557.94547,768.56973)"
       clip-path="url(#clipPath3108)" />
    <path
       id="path3109"
       d="M 0,0 C -1.227,-0.36 -2.438,-1.333 -3.325,-2.292 -3.363,-2.339 -3.431,-2.346 -3.477,-2.308 -3.614,-1.666 -0.171,1.469 0.244,0.357 0.275,0.19 0.164,0.032 0,0"
       style="fill:#000000;fill-opacity:1;fill-rule:nonzero;stroke:none"
       transform="matrix(1.3333333,0,0,-1.3333333,581.7528,756.59187)"
       clip-path="url(#clipPath3110)" />
    <path
       id="path3111"
       d="m 0,0 c 0,-1.896 0.147,-14.742 0,-17.215 -0.147,-2.474 -0.86,-7.375 -0.956,-8.088 -0.095,-0.714 0.904,-2.474 4.758,-2.665 3.854,-0.19 4.995,-0.047 4.615,1.19 0,0 3.901,0.238 3.949,1.427 0.047,1.189 -4.71,5.9 -4.948,7.517 C 7.18,-16.216 7.085,-0.992 7.085,1.101 7.085,3.195 7.18,7.762 3.326,7.762 -0.527,7.762 0,2.801 0,0"
       style="fill:#87366a;fill-opacity:1;fill-rule:nonzero;stroke:#000000;stroke-width:0.614;stroke-linecap:round;stroke-linejoin:miter;stroke-miterlimit:10;stroke-dasharray:none;stroke-opacity:1"
       transform="matrix(1.3333333,0,0,-1.3333333,693.41453,876.92453)"
       clip-path="url(#clipPath3112)" />
    <path
       id="path3113"
       d="M 0,0 C -0.31,0.831 -0.843,1.654 -1.328,2.414 -1.369,2.475 -1.353,2.558 -1.292,2.599 -1.236,2.636 -1.16,2.624 -1.117,2.574 -0.496,1.82 0.105,1.117 0.568,0.231 0.762,-0.152 0.13,-0.41 0,0"
       style="fill:#000000;fill-opacity:1;fill-rule:nonzero;stroke:none"
       transform="matrix(1.3333333,0,0,-1.3333333,704.258,912.7832)"
       clip-path="url(#clipPath3114)" />
    <path
       id="path3115"
       d="m 0,0 c -0.069,-2.283 -0.217,-5.257 3.246,-8.301 0,0 1.527,-7.748 3.671,-8.232 2.145,-0.484 2.56,0.415 2.56,0.415 0,0 1.729,-2.974 4.773,-1.521 3.044,1.452 3.113,3.666 3.113,3.666 0,0 4.634,1.763 5.464,3.718 0.831,1.954 0.416,4.929 0.416,4.929 0,0 2.213,0.622 3.251,3.735 1.037,3.113 1.484,8.35 -0.088,10.885 C 24.834,11.829 12.521,20.346 6.433,13.908 0.346,7.471 0,0 0,0"
       style="fill:#ebeeff;fill-opacity:1;fill-rule:nonzero;stroke:#000000;stroke-width:0.614;stroke-linecap:round;stroke-linejoin:miter;stroke-miterlimit:10;stroke-dasharray:none;stroke-opacity:1"
       transform="matrix(1.3333333,0,0,-1.3333333,682.47653,854.6944)"
       clip-path="url(#clipPath3116)" />
    <path
       id="path3117"
       d="m 0,0 -1.775,-0.38 c -0.117,-0.025 -0.232,0.05 -0.257,0.167 -0.025,0.114 0.046,0.225 0.157,0.254 l 1.69,0.544 C 0.225,0.747 0.43,0.101 0,0"
       style="fill:#000000;fill-opacity:1;fill-rule:nonzero;stroke:none"
       transform="matrix(1.3333333,0,0,-1.3333333,713.59,862.18627)"
       clip-path="url(#clipPath3118)" />
    <path
       id="path3119"
       d="M 0,0 C 0.161,1.39 -0.192,3.101 -0.192,3.101"
       style="fill:#3b3b3c;fill-opacity:1;fill-rule:nonzero;stroke:none"
       transform="matrix(1.3333333,0,0,-1.3333333,705.62693,873.32533)"
       clip-path="url(#clipPath3120)" />
    <path
       id="path3121"
       d="M 0,0 C 0.143,0.978 0.073,2.029 -0.071,3.037 -0.085,3.139 -0.015,3.233 0.087,3.247 0.184,3.262 0.274,3.197 0.295,3.104 0.523,2.068 0.68,1.025 0.61,-0.071 0.587,-0.489 -0.073,-0.414 0,0"
       style="fill:#000000;fill-opacity:1;fill-rule:nonzero;stroke:none"
       transform="matrix(1.3333333,0,0,-1.3333333,705.22027,873.278)"
       clip-path="url(#clipPath3122)" />
    <path
       id="path3123"
       d="M 0,0 C 0.205,0.27 0.306,0.804 0.384,1.171 0.468,1.617 0.531,2.075 0.554,2.526 0.556,2.598 0.615,2.655 0.686,2.653 0.752,2.652 0.806,2.597 0.813,2.533 0.85,2.058 0.845,1.591 0.817,1.117 0.76,0.715 0.762,-0.743 0.063,-0.478 -0.104,-0.378 -0.135,-0.14 0,0"
       style="fill:#000000;fill-opacity:1;fill-rule:nonzero;stroke:none"
       transform="matrix(1.3333333,0,0,-1.3333333,694.78733,875.9356)"
       clip-path="url(#clipPath3124)" />
    <path
       id="path3125"
       d="m 0,0 c 0.117,-2.873 0.79,-15.81 0.503,-19.834 -0.287,-4.024 -0.431,-4.527 1.006,-5.749 1.437,-1.222 3.09,-2.228 5.174,0 0,0 3.593,0.072 3.953,1.868 0.359,1.797 -2.516,3.162 -3.809,8.193 C 5.533,-10.492 5.664,-2.389 5.44,0.503 5.217,3.395 -0.205,5.031 0,0"
       style="fill:#87366a;fill-opacity:1;fill-rule:nonzero;stroke:#000000;stroke-width:0.614;stroke-linecap:round;stroke-linejoin:miter;stroke-miterlimit:10;stroke-dasharray:none;stroke-opacity:1"
       transform="matrix(1.3333333,0,0,-1.3333333,624.02213,867.45347)"
       clip-path="url(#clipPath3126)" />
    <path
       id="path3127"
       d="m 0,0 c -3.071,0.439 -4.753,-1.316 -5.118,-3.729 -0.366,-2.413 1.535,-11.114 1.974,-11.991 0.439,-0.878 2.288,-1.147 2.288,-1.147 0,0 -0.314,-6.61 3.342,-6.534 3.656,0.076 7.012,-1.219 8.474,1.413 1.462,2.632 2.932,6.779 2.932,6.779 0,0 4.899,1.527 5.777,3.542 0.877,2.015 -1.316,5.898 -1.316,5.898 0,0 3.119,1.967 1.523,5.55 -1.596,3.582 -7.153,13.38 -11.833,8.701 0,0 -2.12,3.416 -6.8,-1.18 C -3.437,2.705 0,0 0,0"
       style="fill:#ebeeff;fill-opacity:1;fill-rule:nonzero;stroke:#000000;stroke-width:0.614;stroke-linecap:round;stroke-linejoin:miter;stroke-miterlimit:10;stroke-dasharray:none;stroke-opacity:1"
       transform="matrix(1.3333333,0,0,-1.3333333,621.1652,837.8484)"
       clip-path="url(#clipPath3128)" />
    <path
       id="path3129"
       d="m 0,0 c -0.837,2.313 -5.159,7.578 -8.172,8.082 -3.013,0.504 -11.58,-1.008 -14.73,-2.646 0,0 -9.449,7.181 -14.363,6.174 -4.913,-1.008 -16.756,-6.463 -19.78,-11.736 0,0 -5.04,4.05 -8.693,3.042 -3.654,-1.008 -14.363,-10.205 -12.222,-15.874 0,0 -8.441,-1.386 -10.709,-3.906 -2.267,-2.52 -3.401,-6.804 -3.905,-12.347 -0.504,-5.544 -0.756,-9.072 3.905,-10.583 0,0 -5.417,-7.938 -5.039,-11.339 0.378,-3.402 3.527,-8.82 8.819,-13.985 5.292,-5.166 8.315,-5.796 10.835,-5.418 0,0 2.394,-3.528 6.678,-5.543 4.283,-2.016 7.685,-0.63 10.331,0 0,0 2.898,-4.284 6.803,-5.544 3.906,-1.26 9.828,1.386 9.828,1.386 0,0 2.645,-2.016 11.339,-4.032 8.693,-2.016 26.043,-2.772 30.345,4.032 0,0 5.94,0.756 9.216,5.165 3.275,4.41 2.658,3.906 5.675,4.158 3.018,0.252 6.05,2.167 5.794,7.824 0,0 4.289,-0.751 6.993,6.107 2.704,6.857 6.483,25.619 1.947,32.806 -4.535,7.187 -10.204,8.151 -10.204,8.151 0,0 4.549,3.599 -0.354,9.881 C 15.434,0.138 4.885,6.659 0,0"
       style="fill:#ebeeff;fill-opacity:1;fill-rule:nonzero;stroke:none"
       transform="matrix(1.3333333,0,0,-1.3333333,688.72173,754.1284)"
       clip-path="url(#clipPath3130)" />
    <path
       id="path3131"
       d="m 0,0 c -0.917,-1.738 -1.767,-3.725 -1.694,-5.715 0.685,-3.358 4.638,-4.829 7.709,-5.25 0.187,-0.019 0.169,-0.317 -0.021,-0.31 -4.02,-0.123 -9.558,2.992 -8.082,7.659 0.34,1.381 0.87,2.68 1.556,3.922 0.082,0.149 0.268,0.202 0.417,0.121 C 0.037,0.343 0.088,0.148 0,0"
       style="fill:#000000;fill-opacity:1;fill-rule:nonzero;stroke:none"
       transform="matrix(1.3333333,0,0,-1.3333333,613.0204,754.50067)"
       clip-path="url(#clipPath3132)" />
    <path
       id="path3133"
       d="m 0,0 c -1.51,-0.919 -2.446,-2.929 -1.914,-4.681 0.445,-1.82 1.641,-3.446 3.27,-4.439 C 1.495,-9.198 1.37,-9.422 1.229,-9.341 -2.415,-7.517 -4.385,-1.948 -0.298,0.537 0.048,0.736 0.353,0.189 0,0"
       style="fill:#000000;fill-opacity:1;fill-rule:nonzero;stroke:none"
       transform="matrix(1.3333333,0,0,-1.3333333,658.3888,747.23827)"
       clip-path="url(#clipPath3134)" />
    <path
       id="path3135"
       d="m 0,0 c -0.837,2.313 -5.159,7.578 -8.172,8.082 -3.013,0.504 -11.58,-1.008 -14.73,-2.646 0,0 -9.449,7.181 -14.363,6.174 -4.913,-1.008 -16.756,-6.463 -19.78,-11.736 0,0 -5.04,4.05 -8.693,3.042 -3.654,-1.008 -14.363,-10.205 -12.222,-15.874 0,0 -8.441,-1.386 -10.709,-3.906 -2.267,-2.52 -3.401,-6.804 -3.905,-12.347 -0.504,-5.544 -0.756,-9.072 3.905,-10.583 0,0 -5.417,-7.938 -5.039,-11.339 0.378,-3.402 3.527,-8.82 8.819,-13.985 5.292,-5.166 8.315,-5.796 10.835,-5.418 0,0 2.394,-3.528 6.678,-5.543 4.283,-2.016 7.685,-0.63 10.331,0 0,0 2.898,-4.284 6.803,-5.544 3.906,-1.26 9.828,1.386 9.828,1.386 0,0 2.645,-2.016 11.339,-4.032 8.693,-2.016 26.043,-2.772 30.345,4.032 0,0 5.94,0.756 9.216,5.165 3.275,4.41 2.658,3.906 5.675,4.158 3.018,0.252 6.05,2.167 5.794,7.824 0,0 4.289,-0.751 6.993,6.107 2.704,6.857 6.483,25.619 1.947,32.806 -4.535,7.187 -10.204,8.151 -10.204,8.151 0,0 4.549,3.599 -0.354,9.881 C 15.434,0.138 4.885,6.659 0,0 Z"
       style="fill:none;stroke:#000000;stroke-width:0.614;stroke-linecap:round;stroke-linejoin:miter;stroke-miterlimit:10;stroke-dasharray:none;stroke-opacity:1"
       transform="matrix(1.3333333,0,0,-1.3333333,688.72573,754.1284)"
       clip-path="url(#clipPath3136)" />
    <path
       id="path3137"
       d="m 0,0 c 1.901,-3.255 6.536,-4.727 10.004,-3.189 0.141,0.077 0.265,-0.148 0.118,-0.223 C 6.548,-5.415 1.357,-3.882 -0.57,-0.229 -0.732,0.144 -0.143,0.383 0,0"
       style="fill:#000000;fill-opacity:1;fill-rule:nonzero;stroke:none"
       transform="matrix(1.3333333,0,0,-1.3333333,585.15973,771.254)"
       clip-path="url(#clipPath3138)" />
    <path
       id="path3139"
       d="M 0,0 C 1.042,1.483 1.888,3.94 1.969,5.914"
       style="fill:none;stroke:#000000;stroke-width:0.614;stroke-linecap:round;stroke-linejoin:miter;stroke-miterlimit:10;stroke-dasharray:none;stroke-opacity:1"
       transform="matrix(1.3333333,0,0,-1.3333333,690.4152,861.11133)"
       clip-path="url(#clipPath3140)" />
    <path
       id="path3141"
       d="m 0,0 c 3.317,0.29 6.779,0.786 9.866,2.033 0.738,0.333 1.476,0.771 1.841,1.361 1.361,2.195 0.566,4.849 -1.286,6.577 -0.204,1.027 1.875,-1.425 1.951,-1.735 C 13.333,6.674 13.261,4.607 12.362,3.027 10.645,0.814 7.666,0.522 5.158,-0.033 3.457,-0.324 1.748,-0.496 0.017,-0.537 -0.325,-0.548 -0.348,-0.01 0,0"
       style="fill:#000000;fill-opacity:1;fill-rule:nonzero;stroke:none"
       transform="matrix(1.3333333,0,0,-1.3333333,687.7652,853.19013)"
       clip-path="url(#clipPath3142)" />
    <path
       id="path3143"
       d="m 0,0 c -3.806,-1.903 -12.474,-6.822 -12.119,-10.038 0.354,-3.215 1.772,-5.483 4.606,-7.822 2.835,-2.339 5.959,-5.457 10.492,-3.402 0,0 -3.611,-4.536 0,-8.505 3.612,-3.969 8.786,-0.324 9.07,2.142 0,0 0,-3.18 3.401,-3.901 3.402,-0.721 6.212,1.367 7.323,3.122 1.111,1.756 -1.298,13.308 -5.48,21.175 C 13.112,0.638 5.67,2.835 0,0"
       style="fill:#ebeeff;fill-opacity:1;fill-rule:nonzero;stroke:none"
       transform="matrix(1.3333333,0,0,-1.3333333,679.88787,784.592)"
       clip-path="url(#clipPath3144)" />
    <path
       id="path3145"
       d="m 0,0 c -3.805,-1.903 -12.474,-6.822 -12.119,-10.038 0.354,-3.215 1.771,-5.483 4.607,-7.822 2.834,-2.339 5.958,-5.457 10.491,-3.402 0,0 -3.611,-4.536 0,-8.505 3.612,-3.969 8.786,-0.324 9.069,2.142 0,0 0,-3.18 3.402,-3.901 3.402,-0.721 6.212,1.367 7.323,3.122 1.111,1.756 -1.298,13.308 -5.48,21.175 C 13.112,0.638 5.67,2.835 0,0 Z"
       style="fill:none;stroke:#000000;stroke-width:0.614;stroke-linecap:round;stroke-linejoin:miter;stroke-miterlimit:10;stroke-dasharray:none;stroke-opacity:1"
       transform="matrix(1.3333333,0,0,-1.3333333,679.76867,784.592)"
       clip-path="url(#clipPath3146)" />
    <path
       id="path3147"
       d="M 0,0 C 3.339,2.011 10.185,6.16 12.024,4.375 13.863,2.59 12.533,-5.739 10.223,-6.983 7.913,-8.227 5.534,-9.741 4.398,-10.445 3.262,-11.148 -1.335,-11.234 -2.958,-6.459 -4.58,-1.683 -2.325,-1.4 0,0"
       style="fill:#a762f1;fill-opacity:1;fill-rule:nonzero;stroke:none"
       transform="matrix(1.3333333,0,0,-1.3333333,753.75013,770.50253)"
       clip-path="url(#clipPath3148)" />
    <path
       id="path3149"
       d="m 0,0 c -0.501,2.087 -0.85,2.708 -2.969,1.674 -1.453,-0.735 -2.828,-1.704 -4.203,-2.651 -0.226,-0.168 -0.492,0.178 -0.273,0.355 1.462,1.195 2.998,2.406 4.785,3.161 0.67,0.218 1.405,0.484 2.11,0.042 C 0.293,1.942 0.217,0.94 0.279,0.046 0.286,-0.116 0.044,-0.154 0,0"
       style="fill:#000000;fill-opacity:1;fill-rule:nonzero;stroke:none"
       transform="matrix(1.3333333,0,0,-1.3333333,767.19547,774.43107)"
       clip-path="url(#clipPath3150)" />
    <path
       id="path3151"
       d="M 0,0 C 3.339,2.011 10.185,6.16 12.024,4.375 13.863,2.59 12.533,-5.739 10.223,-6.983 7.913,-8.227 5.534,-9.741 4.398,-10.445 3.262,-11.148 -1.335,-11.234 -2.958,-6.459 -4.58,-1.683 -2.325,-1.4 0,0 Z"
       style="fill:none;stroke:#000000;stroke-width:0.614;stroke-linecap:round;stroke-linejoin:miter;stroke-miterlimit:10;stroke-dasharray:none;stroke-opacity:1"
       transform="matrix(1.3333333,0,0,-1.3333333,753.75013,770.50253)"
       clip-path="url(#clipPath3152)" />
    <path
       id="path3153"
       d="m 0,0 c 3.783,-0.215 4.235,-0.565 5.192,-2.163 0.956,-1.599 0,-6.475 0,-6.475 0,0 2.064,-0.364 2.286,-3.802 0.221,-3.438 -0.18,-9.548 -6.779,-6.973 -6.598,2.574 -7.259,3.056 -7.111,9.908 C -6.265,-2.653 0,0 0,0"
       style="fill:#ebeeff;fill-opacity:1;fill-rule:nonzero;stroke:#000000;stroke-width:0.614;stroke-linecap:round;stroke-linejoin:miter;stroke-miterlimit:10;stroke-dasharray:none;stroke-opacity:1"
       transform="matrix(1.3333333,0,0,-1.3333333,751.86187,769.77787)"
       clip-path="url(#clipPath3154)" />
    <path
       id="path3155"
       d="m 0,0 c -0.641,0.183 -1.47,-0.307 -2.021,-0.683 -0.065,-0.045 -0.153,-0.029 -0.198,0.035 -0.042,0.059 -0.032,0.138 0.019,0.186 0.309,0.287 0.635,0.54 1.012,0.751 C -0.896,0.471 0.385,0.984 0.41,0.239 0.38,0.051 0.178,-0.067 0,0"
       style="fill:#000000;fill-opacity:1;fill-rule:nonzero;stroke:none"
       transform="matrix(1.3333333,0,0,-1.3333333,758.67987,781.6908)"
       clip-path="url(#clipPath3156)" />
    <path
       id="path3157"
       d="m 0,0 c 0.898,-2.808 3.649,-8.081 0.182,-21.037 -3.466,-12.956 -39.552,-9.158 -45.808,-3.903 -6.256,5.255 -1.084,31.696 6.006,35.95 C -32.53,15.264 -5.922,18.517 0,0"
       style="fill:#fac99c;fill-opacity:1;fill-rule:nonzero;stroke:#000000;stroke-width:0.614;stroke-linecap:round;stroke-linejoin:miter;stroke-miterlimit:10;stroke-dasharray:none;stroke-opacity:1"
       transform="matrix(1.3333333,0,0,-1.3333333,751.48067,772.11067)"
       clip-path="url(#clipPath3158)" />
    <path
       id="path3159"
       d="m 0,0 c -3.275,-0.414 -9.731,-3.26 -11.177,-5.841 -1.325,-2.364 -0.649,-8.581 0,-11.249 0.649,-2.669 0.877,-6.07 3.676,-7.572 2.798,-1.503 10.169,11.105 11.107,15.72 C 4.543,-4.327 4.799,0.607 0,0"
       style="fill:#ebeeff;fill-opacity:1;fill-rule:nonzero;stroke:#000000;stroke-width:0.614;stroke-linecap:round;stroke-linejoin:miter;stroke-miterlimit:10;stroke-dasharray:none;stroke-opacity:1"
       transform="matrix(1.3333333,0,0,-1.3333333,693.7432,749.2404)"
       clip-path="url(#clipPath3160)" />
    <path
       id="path3161"
       d="m 0,0 c -2.693,-1.222 -5.883,-1.789 -9.851,-1.08 -3.969,0.709 -8.576,1.984 -7.726,7.725 0.851,5.741 3.261,11.836 6.308,11.765 C -8.221,18.339 -0.299,16.851 4.28,10.189 8.859,3.527 0,0 0,0"
       style="fill:#a762f1;fill-opacity:1;fill-rule:nonzero;stroke:#000000;stroke-width:0.614;stroke-linecap:round;stroke-linejoin:miter;stroke-miterlimit:10;stroke-dasharray:none;stroke-opacity:1"
       transform="matrix(1.3333333,0,0,-1.3333333,680.14667,786.36453)"
       clip-path="url(#clipPath3162)" />
    <path
       id="path3163"
       d="m 0,0 c 1.39,1.276 2.978,3.083 5.098,2.754 4.028,-1.354 7.499,-4.236 10.066,-7.601 0.232,-0.319 -0.27,-0.686 -0.5,-0.357 -1.81,2.368 -4.19,4.308 -6.727,5.862 C 6.743,1.293 5.364,2.304 3.99,1.989 2.659,1.638 1.529,0.534 0.333,-0.384 0.091,-0.585 -0.232,-0.214 0,0"
       style="fill:#000000;fill-opacity:1;fill-rule:nonzero;stroke:none"
       transform="matrix(1.3333333,0,0,-1.3333333,663.2124,771.4148)"
       clip-path="url(#clipPath3164)" />
    <path
       id="path3165"
       d="M 0,0 C 1.103,2.023 2.867,4.152 5.296,4.458 6.814,4.374 8.02,3.696 9.315,2.859 9.627,2.628 9.269,2.137 8.954,2.368 7.971,2.989 6.557,3.782 5.326,3.845 3.129,3.585 1.449,1.613 0.356,-0.188 0.237,-0.412 -0.12,-0.227 0,0"
       style="fill:#000000;fill-opacity:1;fill-rule:nonzero;stroke:none"
       transform="matrix(1.3333333,0,0,-1.3333333,667.92667,778.20907)"
       clip-path="url(#clipPath3166)" />
    <path
       id="path3167"
       d="m 0,0 c -2.453,0.988 -5.048,-0.072 -6.562,-1.586 -1.515,-1.515 -3.678,-4.976 0.505,-7.861 4.182,-2.884 4.903,-2.091 4.903,-2.091 0,0 -3.245,-4.11 -0.865,-7.932 2.38,-3.822 5.985,-3.317 6.706,-1.587 0.721,1.731 2.164,5.697 1.659,6.995 -0.505,1.298 -2.957,1.587 -2.957,1.587 0,0 1.947,1.947 1.947,3.677 C 5.336,-7.067 5.192,-2.091 0,0"
       style="fill:#ebeeff;fill-opacity:1;fill-rule:nonzero;stroke:none"
       transform="matrix(1.3333333,0,0,-1.3333333,687.58973,774.91227)"
       clip-path="url(#clipPath3168)" />
    <path
       id="path3169"
       d="m 0,0 c 0.721,1.731 2.163,5.697 1.659,6.995 -0.505,1.298 -2.957,1.586 -2.957,1.586 0,0 1.947,1.947 1.947,3.678 0,1.731 -0.144,6.706 -5.336,8.798 -2.454,0.988 -5.048,-0.073 -6.562,-1.587 -1.515,-1.514 -3.678,-4.975 0.504,-7.86 4.183,-2.885 4.904,-2.091 4.904,-2.091"
       style="fill:none;stroke:#000000;stroke-width:0.614;stroke-linecap:round;stroke-linejoin:miter;stroke-miterlimit:10;stroke-dasharray:none;stroke-opacity:1"
       transform="matrix(1.3333333,0,0,-1.3333333,693.83947,802.98773)"
       clip-path="url(#clipPath3170)" />
    <path
       id="path3171"
       d="M 0,0 C 1.392,0.104 2.349,1.432 2.664,2.743 2.697,2.915 2.961,2.892 2.969,2.72 3.078,1.097 1.724,-0.625 0,-0.614 -0.384,-0.606 -0.382,-0.007 0,0"
       style="fill:#000000;fill-opacity:1;fill-rule:nonzero;stroke:none"
       transform="matrix(1.3333333,0,0,-1.3333333,685.286,790.00653)"
       clip-path="url(#clipPath3172)" />
    <path
       id="path3173"
       d="m 0,0 c -0.772,-0.703 -1.675,-1.208 -2.719,-1.293 -0.154,-0.011 -0.212,0.214 -0.074,0.279 0.812,0.436 1.679,0.899 2.383,1.469 C -0.122,0.687 0.259,0.259 0,0"
       style="fill:#000000;fill-opacity:1;fill-rule:nonzero;stroke:none"
       transform="matrix(1.3333333,0,0,-1.3333333,692.3928,791.84053)"
       clip-path="url(#clipPath3174)" />
    <path
       id="path3175"
       d="m 0,0 c -0.61,4.421 -0.661,7.927 0.661,11.586 1.321,3.658 3.657,4.486 4.394,1.405 C 5.793,9.909 5.781,4.184 3.449,-0.322 1.118,-4.827 0,0 0,0"
       style="fill:#ffffff;fill-opacity:1;fill-rule:nonzero;stroke:none"
       transform="matrix(1.3333333,0,0,-1.3333333,744.5456,798.93573)"
       clip-path="url(#clipPath3176)" />
    <path
       id="path3177"
       d="m 0,0 c 0.206,3.547 -0.851,6.493 -2.36,6.581 -1.509,0.087 -2.899,-2.717 -3.105,-6.264 -0.206,-3.546 0.85,-6.493 2.36,-6.58 C -1.596,-6.351 -0.206,-3.547 0,0"
       style="fill:#9c5ddf;fill-opacity:1;fill-rule:nonzero;stroke:#000000;stroke-width:0.614;stroke-linecap:round;stroke-linejoin:miter;stroke-miterlimit:10;stroke-dasharray:none;stroke-opacity:1"
       transform="matrix(1.3333333,0,0,-1.3333333,750.61333,790.7608)"
       clip-path="url(#clipPath3178)" />
    <path
       id="path3179"
       d="m 0,0 c 0.206,3.547 -0.851,6.493 -2.36,6.581 -1.509,0.087 -2.899,-2.717 -3.105,-6.264 -0.206,-3.546 0.85,-6.493 2.36,-6.58 C -1.596,-6.351 -0.206,-3.547 0,0 Z"
       style="fill:none;stroke:#000000;stroke-width:0.378;stroke-linecap:round;stroke-linejoin:miter;stroke-miterlimit:10;stroke-dasharray:none;stroke-opacity:1"
       transform="matrix(1.3333333,0,0,-1.3333333,750.61333,790.7608)"
       clip-path="url(#clipPath3180)" />
    <path
       id="path3181"
       d="M 0,0 C 0.158,2.715 -0.651,4.971 -1.806,5.038 -2.962,5.105 -4.026,2.958 -4.184,0.243 -4.341,-2.472 -3.533,-4.728 -2.377,-4.795 -1.222,-4.862 -0.158,-2.715 0,0"
       style="fill:#000000;fill-opacity:1;fill-rule:nonzero;stroke:none"
       transform="matrix(1.3333333,0,0,-1.3333333,749.58987,790.55893)"
       clip-path="url(#clipPath3182)" />
    <path
       id="path3183"
       d="m 0,0 c -0.402,-1.262 -1.453,-2.055 -2.349,-1.77 -0.895,0.285 -1.294,1.539 -0.892,2.802 0.402,1.263 1.453,2.055 2.348,1.77 C 0.002,2.517 0.402,1.263 0,0"
       style="fill:#ffffff;fill-opacity:1;fill-rule:nonzero;stroke:none"
       transform="matrix(1.3333333,0,0,-1.3333333,748.23253,786.8268)"
       clip-path="url(#clipPath3184)" />
    <path
       id="path3185"
       d="m 0,0 c 0.453,1.573 2.147,4.694 4.09,3.097 0.393,-0.402 0.581,-0.9 0.699,-1.376 0.325,-1.414 0.514,-2.766 0.562,-4.226 0,0 -0.629,0.315 -0.629,0.315 0.873,0.597 1.787,1.261 2.385,2.117 1.176,0.364 -1.597,-2.579 -1.914,-2.746 0,0 -0.629,-0.554 -0.629,-0.554 v 0.869 C 4.419,-0.897 4.527,1.333 3.639,2.662 2.237,3.894 0.721,1.016 0.265,-0.096 0.204,-0.26 -0.057,-0.166 0,0"
       style="fill:#000000;fill-opacity:1;fill-rule:nonzero;stroke:none"
       transform="matrix(1.3333333,0,0,-1.3333333,745.24947,783.42453)"
       clip-path="url(#clipPath3186)" />
    <path
       id="path3187"
       d="m 0,0 c 0.18,-4.057 1.803,-8.293 4.615,-8.798 2.812,-0.505 7.932,2.813 12.043,8.221 0,0 3.101,-3.8 7.283,-3.847 4.183,-0.047 6.13,2.578 6.13,2.578 0,0 2.956,-4.428 7.139,-5.582 4.182,-1.153 14.927,3.246 19.542,8.726 4.615,5.481 5.913,10.528 3.173,15.576 -2.74,5.048 -11.971,7.211 -20.696,5.553 0,0 -2.524,5.048 -5.481,6.057 -2.956,1.01 -14.783,-3.461 -16.081,-5.913 0,0 -4.471,1.154 -6.922,0.361 C 8.293,22.138 3.101,16.441 3.678,12.259 4.255,8.076 7.932,6.129 7.932,6.129 7.932,6.129 -0.144,3.245 0,0"
       style="fill:#ebeeff;fill-opacity:1;fill-rule:nonzero;stroke:none"
       transform="matrix(1.3333333,0,0,-1.3333333,683.74373,767.3164)"
       clip-path="url(#clipPath3188)" />
    <path
       id="path3189"
       d="m 0,0 c 0.459,-3.518 1.806,-9.836 6.591,-8.264 4.077,1.447 7.261,4.823 9.909,8.159 3.144,-4.074 9.424,-5.757 13.177,-1.564 0,0 0.264,0.314 0.264,0.314 1.726,-2.44 4.025,-4.728 6.88,-5.677 2.762,-0.797 5.79,0.316 8.433,1.228 7.748,2.947 16.369,9.775 15.522,18.874 -1.635,9.697 -14.033,10.442 -21.859,9.009 -1.017,1.926 -2.259,3.838 -3.911,5.231 -1.581,1.548 -3.835,0.936 -5.888,0.491 -3.095,-0.791 -6.141,-1.944 -8.941,-3.486 -0.903,-0.524 -1.866,-1.13 -2.385,-1.894 l -0.157,-0.198 -0.191,0.045 C 14.093,23.027 10.415,23.577 7.94,20.648 3.225,16.046 1.927,10.492 7.857,6.258 8.036,6.166 7.877,5.899 7.714,5.988 0.984,9.828 2.606,16.423 7.47,21.129 c 2.712,3.15 6.491,2.608 10.127,1.733 0.006,0.005 -0.376,-0.174 -0.342,-0.146 0.673,1.004 1.639,1.539 2.617,2.131 2.865,1.577 5.932,2.74 9.099,3.55 1.582,0.331 3.38,0.844 4.965,0.272 2.555,-1.191 4.101,-3.767 5.42,-6.111 0,0 -0.331,0.164 -0.331,0.164 6.892,1.143 16.297,0.881 20.771,-5.314 C 63.4,11.92 60.685,5.285 56.657,0.896 53.643,-2.454 49.614,-4.72 45.474,-6.378 c -2.808,-0.96 -5.832,-2.095 -8.84,-1.238 -2.912,0.976 -5.187,3.159 -6.966,5.593 0,0 0.502,-0.012 0.502,-0.012 -3.799,-4.396 -10.558,-2.932 -13.897,1.258 0,0 0.482,0.008 0.482,0.008 C 13.696,-4.783 5.092,-13.67 1.133,-6.331 0.108,-4.373 -0.38,-2.179 -0.294,-0.013 -0.289,0.165 -0.02,0.171 0,0"
       style="fill:#000000;fill-opacity:1;fill-rule:nonzero;stroke:none"
       transform="matrix(1.3333333,0,0,-1.3333333,683.9396,767.308)"
       clip-path="url(#clipPath3190)" />
    <path
       id="path3191"
       d="m 0,0 c -3.332,-1.041 -6.449,-3.68 -7.661,-7.001 -1.118,-3.353 0.217,-7.499 3.175,-9.503 0.15,-0.071 0.025,-0.312 -0.12,-0.225 -5.39,3.359 -5.189,10.693 -0.449,14.562 1.407,1.249 3.043,2.269 4.905,2.762 C 0.013,0.638 0.181,0.541 0.225,0.377 0.269,0.211 0.167,0.04 0,0"
       style="fill:#000000;fill-opacity:1;fill-rule:nonzero;stroke:none"
       transform="matrix(1.3333333,0,0,-1.3333333,736.1492,737.81053)"
       clip-path="url(#clipPath3192)" />
    <path
       id="path3193"
       d="m 0,0 c -1.783,-3.181 -1.464,-7.001 0.808,-9.847 2.017,-2.775 5.505,-5.124 9.046,-4.132 0.212,0.073 0.325,-0.269 0.108,-0.337 -3.71,-1.262 -7.507,1.177 -9.7,4.059 -2.491,2.885 -2.849,7.321 -0.78,10.532 C -0.341,0.602 0.174,0.334 0,0"
       style="fill:#000000;fill-opacity:1;fill-rule:nonzero;stroke:none"
       transform="matrix(1.3333333,0,0,-1.3333333,707.646,737.40493)"
       clip-path="url(#clipPath3194)" />
    <path
       id="path3195"
       d="m 0,0 c -0.4,0.506 -0.732,1.031 -0.965,1.643 -0.031,0.091 0.019,0.19 0.111,0.22 0.07,0.024 0.145,-10e-4 0.19,-0.055 C -0.287,1.346 0.138,0.876 0.488,0.372 0.711,0.061 0.24,-0.294 0,0"
       style="fill:#000000;fill-opacity:1;fill-rule:nonzero;stroke:none"
       transform="matrix(1.3333333,0,0,-1.3333333,723.51253,770.02547)"
       clip-path="url(#clipPath3196)" />
    <path
       id="path3197"
       d="M 0,0 C -1.287,1.359 -1.697,2.384 -2.335,3.899"
       style="fill:#413b37;fill-opacity:1;fill-rule:nonzero;stroke:none"
       transform="matrix(1.3333333,0,0,-1.3333333,705.95427,768.0856)"
       clip-path="url(#clipPath3198)" />
    <path
       id="path3199"
       d="M 0,0 C -1.182,1.035 -1.841,2.577 -2.231,4.06 -2.25,4.129 -2.21,4.202 -2.14,4.221 -2.081,4.237 -2.021,4.21 -1.992,4.161 -1.268,2.814 -0.551,1.575 0.446,0.422 0.682,0.14 0.268,-0.25 0,0"
       style="fill:#000000;fill-opacity:1;fill-rule:nonzero;stroke:none"
       transform="matrix(1.3333333,0,0,-1.3333333,705.65707,768.3672)"
       clip-path="url(#clipPath3200)" />
    <path
       id="path3201"
       d="m 0,0 c -4.529,1.51 -13.19,3.814 -17.322,1.351 -4.132,-2.464 -6.834,-5.165 -6.039,-6.993 0.794,-1.827 5.323,-8.184 8.025,-9.217 2.702,-1.033 37.823,-4.768 43.624,1.192 5.801,5.959 -3.099,14.462 -3.099,14.462 z"
       style="fill:#fac99c;fill-opacity:1;fill-rule:nonzero;stroke:none"
       transform="matrix(1.3333333,0,0,-1.3333333,718.13867,801.21973)"
       clip-path="url(#clipPath3202)" />
    <path
       id="path3203"
       d="m 0,0 c -0.541,-0.162 -1.04,-0.372 -1.486,-0.638 -4.132,-2.464 -6.834,-5.165 -6.039,-6.993 0.794,-1.827 5.324,-8.184 8.025,-9.217 2.702,-1.033 37.824,-4.768 43.624,1.192"
       style="fill:none;stroke:#000000;stroke-width:0.614;stroke-linecap:round;stroke-linejoin:miter;stroke-miterlimit:10;stroke-dasharray:none;stroke-opacity:1"
       transform="matrix(1.3333333,0,0,-1.3333333,697.02373,798.56773)"
       clip-path="url(#clipPath3204)" />
    <path
       id="path3205"
       d="m 0,0 c 0.302,-1.372 1.01,-3.977 0.638,-6.347 -0.372,-2.371 -1.223,-6.676 2.232,-8.909 3.456,-2.232 6.379,-1.595 7.549,-0.957 1.169,0.638 3.344,2.34 4.884,6.403 1.54,4.064 1.972,12.68 -4.061,14.807 C 5.209,7.123 -1.063,4.837 0,0"
       style="fill:#fac99c;fill-opacity:1;fill-rule:nonzero;stroke:none"
       transform="matrix(1.3333333,0,0,-1.3333333,707.57893,818.81027)"
       clip-path="url(#clipPath3206)" />
    <path
       id="path3207"
       d="m 0,0 c 1.602,-3.721 -1.122,-8.042 0.867,-11.599 1.952,-3.06 7.073,-4.512 9.964,-1.994 1.483,1.22 2.557,2.902 3.333,4.682 2.032,4.899 2.306,12.932 -3.507,15.235 -0.16,0.056 -0.244,0.231 -0.188,0.391 0.055,0.159 0.233,0.241 0.392,0.188 6.234,-2.395 6.138,-10.851 3.917,-16.082 -1.219,-2.676 -3.21,-5.689 -6.346,-6.242 -3.016,-0.42 -6.473,0.874 -8.104,3.518 -1.621,2.846 -0.395,5.97 -0.369,8.919 -0.015,0.97 -0.15,1.938 -0.197,2.936 C -0.245,0.087 -0.046,0.13 0,0"
       style="fill:#000000;fill-opacity:1;fill-rule:nonzero;stroke:none"
       transform="matrix(1.3333333,0,0,-1.3333333,708.22347,820.96613)"
       clip-path="url(#clipPath3208)" />
    <path
       id="path3209"
       d="m 0,0 c -0.076,-1.867 -1.649,-9.705 -1.11,-11.938 0.539,-2.234 3.312,-4.39 5.468,-3.928 2.157,0.462 4.853,4.635 5.623,7.901 C 10.751,-4.698 9.673,2.311 5.822,3.004 1.971,3.697 0.076,1.87 0,0"
       style="fill:#87366a;fill-opacity:1;fill-rule:nonzero;stroke:#000000;stroke-width:0.614;stroke-linecap:round;stroke-linejoin:miter;stroke-miterlimit:10;stroke-dasharray:none;stroke-opacity:1"
       transform="matrix(1.3333333,0,0,-1.3333333,713.6848,818.24227)"
       clip-path="url(#clipPath3210)" />
    <path
       id="path3211"
       d="m 0,0 c -0.283,-0.765 -1.648,-4.465 -4.359,-4.093 -2.711,0.372 -1.807,5.528 -2.073,6.007 -0.266,0.478 -1.329,0.531 -2.477,-0.274 -0.177,-1.678 -0.251,-3.167 -0.06,-3.956 0.539,-2.234 3.312,-4.39 5.468,-3.928 1.781,0.381 3.93,3.295 5.058,6.138 C 0.996,0.499 0.21,0.567 0,0"
       style="fill:#ffffff;fill-opacity:1;fill-rule:nonzero;stroke:#000000;stroke-width:0.614;stroke-linecap:round;stroke-linejoin:miter;stroke-miterlimit:10;stroke-dasharray:none;stroke-opacity:1"
       transform="matrix(1.3333333,0,0,-1.3333333,724.16373,831.0716)"
       clip-path="url(#clipPath3212)" />
    <path
       id="path3213"
       d="m 0,0 c -1.771,-1.968 -3.205,-4.159 -0.432,-7.086 2.773,-2.927 5.16,-3.697 7.702,-3.235 2.542,0.462 5.237,3.851 5.622,4.699 C 13.278,-4.775 2.358,2.619 0,0"
       style="fill:#ffffff;fill-opacity:1;fill-rule:nonzero;stroke:#000000;stroke-width:0.614;stroke-linecap:round;stroke-linejoin:miter;stroke-miterlimit:10;stroke-dasharray:none;stroke-opacity:1"
       transform="matrix(1.3333333,0,0,-1.3333333,722.63947,825.73893)"
       clip-path="url(#clipPath3214)" />
    <path
       id="path3215"
       d="m 0,0 c 6.47,1.555 9.567,1.713 14.574,1.713 5.006,0 9.319,0.04 14.788,-1.559 5.468,-1.599 7.625,-3.91 7.625,-6.22 0,-2.311 -0.609,-7.086 -6.813,-12.94 -6.204,-5.853 -13.752,-8.934 -20.607,-6.161 -6.855,2.773 -8.703,12.323 -16.02,13.555 0,0 -0.034,10.053 6.453,11.612"
       style="fill:#fac99c;fill-opacity:1;fill-rule:nonzero;stroke:none"
       transform="matrix(1.3333333,0,0,-1.3333333,718.13867,801.21973)"
       clip-path="url(#clipPath3216)" />
    <path
       id="path3217"
       d="m 0,0 c 3.854,0.89 7.849,0.91 11.779,0.864 5.878,-0.009 12.062,-0.553 17.326,-3.437 4.54,-2.431 3.678,-6.673 1.879,-10.678 C 27.36,-20.092 20.362,-25.9 12.69,-27.429 c -3.931,-0.673 -8.267,0.172 -11.32,2.843 -3.03,2.576 -4.894,6.193 -7.754,8.877 -1.397,1.317 -3.09,2.329 -4.975,2.641 -0.168,0.028 -0.281,0.186 -0.253,0.353 0.027,0.167 0.187,0.28 0.355,0.253 4.128,-0.674 6.786,-4.231 9.145,-7.317 4.96,-7.422 12.244,-9.185 20.178,-5.19 6.454,3.52 13.374,9.718 13.754,17.531 C 31.621,-0.757 16.85,0.365 11.776,0.25 7.842,0.238 3.936,0.284 0.044,-0.256 -0.111,-0.288 -0.165,-0.027 0,0"
       style="fill:#000000;fill-opacity:1;fill-rule:nonzero;stroke:none"
       transform="matrix(1.3333333,0,0,-1.3333333,724.6128,799.68173)"
       clip-path="url(#clipPath3218)" />
    <path
       id="path3219"
       d="M 0,0 C 1.977,1.483 3.994,0.33 5.172,-1.468 6.313,-3.039 7.079,-4.784 7.722,-6.556 7.758,-6.655 7.707,-6.764 7.608,-6.799 7.52,-6.831 7.421,-6.79 7.376,-6.71 6.577,-5.294 5.49,-3.223 4.512,-1.961 3.399,-0.445 2.072,0.522 0.157,-0.327 -0.042,-0.404 -0.182,-0.107 0,0"
       style="fill:#000000;fill-opacity:1;fill-rule:nonzero;stroke:none"
       transform="matrix(1.3333333,0,0,-1.3333333,739.006,812.58147)"
       clip-path="url(#clipPath3220)" />
    <path
       id="path3221"
       d="m 0,0 c 1.646,0.576 3.142,1.586 4.573,2.635 2.805,2.158 5.637,4.549 6.766,8.042 2.083,4.945 0.343,11.254 -4.182,14.197 -3.058,1.86 -6.809,2.014 -10.316,2.073 -0.171,-0.002 -0.312,0.138 -0.31,0.31 0.002,0.168 0.138,0.303 0.305,0.304 C 2.114,27.688 8.743,26.69 11,21.182 13.531,16.288 12.598,9.928 9.005,5.789 7.781,4.437 6.461,3.171 5.001,2.071 3.548,0.972 1.983,-0.043 0.182,-0.586 0.02,-0.635 -0.151,-0.543 -0.2,-0.381 -0.249,-0.22 -0.158,-0.051 0,0"
       style="fill:#000000;fill-opacity:1;fill-rule:nonzero;stroke:none"
       transform="matrix(1.3333333,0,0,-1.3333333,742.31267,835.2748)"
       clip-path="url(#clipPath3222)" />
    <path
       id="path3223"
       d="M 0,0 C 0.795,0.55 1.534,1.23 2.541,1.6 3.542,1.944 4.573,1.948 5.559,1.852 5.681,1.84 5.771,1.732 5.759,1.609 5.748,1.499 5.655,1.415 5.548,1.407 4.577,1.339 3.606,1.325 2.73,1.046 1.862,0.772 1.071,0.148 0.17,-0.283 -0.007,-0.38 -0.169,-0.11 0,0"
       style="fill:#000000;fill-opacity:1;fill-rule:nonzero;stroke:none"
       transform="matrix(1.3333333,0,0,-1.3333333,706.8544,818.05347)"
       clip-path="url(#clipPath3224)" />
    <path
       id="path3225"
       d="m 0,0 c -0.704,4.061 -1.124,7.594 1.161,10.992 2.49,3.703 5.386,5.736 7.927,4.821 C 11.628,14.898 13.761,8.14 13.152,4.176 12.714,1.326 11.663,-0.581 10.716,-1.973 7.374,-1.236 4.212,-0.394 0,0"
       style="fill:#ffffff;fill-opacity:1;fill-rule:nonzero;stroke:none"
       transform="matrix(1.3333333,0,0,-1.3333333,701.80453,797.79653)"
       clip-path="url(#clipPath3226)" />
    <path
       id="path3227"
       d="m 0,0 c 0,3.496 -2.943,6.33 -6.574,6.33 -3.631,0 -6.574,-2.834 -6.574,-6.33 0,-3.496 2.943,-6.331 6.574,-6.331 C -2.943,-6.331 0,-3.496 0,0"
       style="fill:#9c5ddf;fill-opacity:1;fill-rule:nonzero;stroke:#000000;stroke-width:0.604;stroke-linecap:round;stroke-linejoin:miter;stroke-miterlimit:10;stroke-dasharray:none;stroke-opacity:1"
       transform="matrix(1.3333333,0,0,-1.3333333,718.8756,790.27733)"
       clip-path="url(#clipPath3228)" />
    <path
       id="path3229"
       d="m 0,0 c -3.674,4.994 -9.322,-2.501 -10.455,-6.155 -0.806,0.274 -1.55,0.654 -2.204,1.174 -0.527,0.405 -0.985,0.895 -1.357,1.434 -0.068,0.099 -0.043,0.235 0.057,0.303 0.089,0.062 0.208,0.047 0.281,-0.029 0.809,-0.857 1.913,-1.471 3.05,-1.725 l -0.624,-0.335 c 0.37,1.281 1.128,2.433 1.901,3.439 1.841,2.38 5.197,5.466 8.362,3.577 C -0.438,1.273 -0.043,0.742 0.296,0.197 0.348,0.114 0.322,0.004 0.239,-0.048 0.16,-0.098 0.055,-0.074 0,0"
       style="fill:#000000;fill-opacity:1;fill-rule:nonzero;stroke:none"
       transform="matrix(1.3333333,0,0,-1.3333333,716.11413,779.03973)"
       clip-path="url(#clipPath3230)" />
    <path
       id="path3231"
       d="m 0,0 c 0,3.496 -2.943,6.33 -6.574,6.33 -3.631,0 -6.574,-2.834 -6.574,-6.33 0,-3.496 2.943,-6.331 6.574,-6.331 C -2.943,-6.331 0,-3.496 0,0 Z"
       style="fill:none;stroke:#000000;stroke-width:0.58;stroke-linecap:round;stroke-linejoin:miter;stroke-miterlimit:10;stroke-dasharray:none;stroke-opacity:1"
       transform="matrix(1.3333333,0,0,-1.3333333,718.8756,790.27733)"
       clip-path="url(#clipPath3232)" />
    <path
       id="path3233"
       d="m 0,0 c 0,2.676 -2.253,4.846 -5.033,4.846 -2.779,0 -5.032,-2.17 -5.032,-4.846 0,-2.676 2.253,-4.846 5.032,-4.846 C -2.253,-4.846 0,-2.676 0,0"
       style="fill:#000000;fill-opacity:1;fill-rule:nonzero;stroke:none"
       transform="matrix(1.3333333,0,0,-1.3333333,716.39347,790.13733)"
       clip-path="url(#clipPath3234)" />
    <path
       id="path3235"
       d="m 0,0 c -3.986,1.086 -8.033,2.113 -12.177,2.203 -0.097,0.001 -0.175,0.08 -0.174,0.176 0.001,0.091 0.073,0.164 0.161,0.173 C -7.986,2.821 -3.817,1.736 0.118,0.368 0.343,0.29 0.233,-0.068 0,0"
       style="fill:#000000;fill-opacity:1;fill-rule:nonzero;stroke:none"
       transform="matrix(1.3333333,0,0,-1.3333333,717.12587,801.16027)"
       clip-path="url(#clipPath3236)" />
    <path
       id="path3237"
       d="m 0,0 c -0.828,-1.007 -2.079,-1.347 -2.793,-0.76 -0.714,0.587 -0.621,1.88 0.208,2.887 0.828,1.007 2.078,1.347 2.792,0.76 C 0.921,2.299 0.828,1.007 0,0"
       style="fill:#ffffff;fill-opacity:1;fill-rule:nonzero;stroke:none"
       transform="matrix(1.3333333,0,0,-1.3333333,707.33667,788.1584)"
       clip-path="url(#clipPath3238)" />
    <path
       id="path3239"
       d="m 0,0 c -0.309,-3.762 -1.041,-10.787 -2.183,-15.959 -1.142,-5.172 -3.284,-11.895 -4.023,-12.56 -0.739,-0.665 -5.172,-3.398 -4.581,-4.507 0.591,-1.108 2.512,-0.221 3.805,-0.443 1.293,-0.222 2.106,-2.143 4.101,-1.921 1.994,0.222 3.915,3.251 4.285,4.507 0.369,1.256 2.216,24.012 3.398,30.366 C 5.984,5.837 0.285,3.466 0,0"
       style="fill:#87366a;fill-opacity:1;fill-rule:nonzero;stroke:#000000;stroke-width:0.614;stroke-linecap:round;stroke-linejoin:miter;stroke-miterlimit:10;stroke-dasharray:none;stroke-opacity:1"
       transform="matrix(1.3333333,0,0,-1.3333333,594.64987,865.59333)"
       clip-path="url(#clipPath3240)" />
    <path
       id="path3241"
       d="m 0,0 c -3.071,0.439 -4.753,-1.316 -5.118,-3.729 -0.366,-2.413 1.535,-11.114 1.974,-11.992 0.439,-0.877 2.778,-1.243 2.778,-1.243 0,0 -0.804,-6.513 2.852,-6.437 3.656,0.076 6.435,-0.29 7.897,2.343 1.462,2.632 3.51,5.849 3.51,5.849 0,0 4.899,1.527 5.776,3.542 0.877,2.015 -1.316,5.897 -1.316,5.897 0,0 3.12,1.968 1.523,5.551 -1.596,3.582 -7.153,13.38 -11.833,8.701 0,0 -2.12,3.416 -6.8,-1.18 C -3.437,2.705 0,0 0,0"
       style="fill:#ebeeff;fill-opacity:1;fill-rule:nonzero;stroke:none"
       transform="matrix(1.3333333,0,0,-1.3333333,592.22667,837.06973)"
       clip-path="url(#clipPath3242)" />
    <path
       id="path3243"
       d="m 0,0 c -7.385,0.372 -4.226,-8.742 -3.454,-13.081 0.208,-0.628 0.383,-2.053 0.748,-2.502 0.557,-0.51 1.551,-0.761 2.409,-0.93 l 0.286,-0.049 -0.029,-0.292 c -0.157,-2.137 -0.259,-6.089 2.663,-6.091 10e-4,0 0.737,0.009 0.737,0.009 2.242,0.071 5.061,-0.281 6.516,1.763 l 0.748,1.224 c 0.006,0.012 3.024,5.042 3.031,5.052 0,0 0.052,0.088 0.052,0.088 l 0.115,0.041 c 2.01,0.802 4.395,1.514 5.727,3.31 0.075,0.165 0.353,0.051 0.282,-0.123 -1.067,-2.184 -3.69,-3.001 -5.826,-3.773 0,0 0.167,0.128 0.167,0.128 l -0.006,-0.011 -3.009,-5.014 c -0.502,-0.848 -1.024,-1.823 -1.908,-2.373 -2.288,-1.268 -4.906,-0.9 -7.414,-0.872 -2.762,0.83 -2.632,4.396 -2.485,6.717 -0.005,0.003 0.291,-0.365 0.245,-0.338 -1.146,0.245 -2.812,0.486 -3.174,1.818 -0.731,2.492 -1.183,5.048 -1.582,7.612 -0.474,2.714 -0.756,6.504 2.309,7.797 0.936,0.399 1.964,0.378 2.894,0.185 C 0.224,0.252 0.177,-0.009 0,0"
       style="fill:#000000;fill-opacity:1;fill-rule:nonzero;stroke:none"
       transform="matrix(1.3333333,0,0,-1.3333333,592.1988,837.26627)"
       clip-path="url(#clipPath3244)" />
    <path
       id="path3245"
       d="M 0,0 C 0.99,-0.173 1.995,-0.371 2.975,-0.634 3.137,-0.677 3.108,-0.928 2.942,-0.936 1.897,-0.965 0.861,-0.897 -0.149,-0.595 -0.31,-0.541 -0.396,-0.366 -0.342,-0.205 -0.292,-0.06 -0.146,0.024 0,0"
       style="fill:#000000;fill-opacity:1;fill-rule:nonzero;stroke:none"
       transform="matrix(1.3333333,0,0,-1.3333333,591.83867,859.29107)"
       clip-path="url(#clipPath3246)" />
    <path
       id="path3247"
       d="m 0,0 c -0.789,-4.185 -3.664,-21.033 -4.289,-24.295 -0.625,-3.263 -3.609,-10.065 -3.332,-11.245 0.278,-1.18 2.466,-3.263 3.801,-3.263 1.336,0 1.475,1.736 2.377,1.597 0.902,-0.139 1.959,-1.805 3.305,-1.736 1.346,0.07 2.04,1.875 1.901,3.055 -0.139,1.18 -1.388,5.553 -2.499,8.121 -1.11,2.568 3.332,23.803 3.818,26.756 C 5.568,1.944 0.882,4.677 0,0"
       style="fill:#87366a;fill-opacity:1;fill-rule:nonzero;stroke:#000000;stroke-width:0.614;stroke-linecap:round;stroke-linejoin:miter;stroke-miterlimit:10;stroke-dasharray:none;stroke-opacity:1"
       transform="matrix(1.3333333,0,0,-1.3333333,645.964,876.3084)"
       clip-path="url(#clipPath3248)" />
    <path
       id="path3249"
       d="m 0,0 c -3.082,-1.511 -4.411,-5.62 -4.653,-9.548 0,0 -1.511,-0.06 -2.296,-0.967 -0.786,-0.906 -1.149,-3.105 -1.088,-6.538 0.06,-3.432 0.054,-6.091 3.774,-7.542 3.719,-1.45 5.653,-1.933 5.653,-1.933 v -5.56 c 0,-1.933 1.311,-3.821 2.779,-4.105 1.095,-0.212 2.055,0 2.055,0 0,0 1.39,-3.448 2.78,-3.509 1.39,-0.06 4.895,2.961 6.103,4.835 0,0 1.873,-0.726 2.538,1.51 0.665,2.236 -0.616,3.165 0.718,4.09 1.334,0.925 4.358,3.162 4.842,4.612 0.483,1.45 0.785,3.203 0.785,3.203 0,0 5.862,1.692 7.735,4.894 1.873,3.203 1.269,11.542 0,13.114 -1.269,1.571 -3.746,2.356 -3.746,2.356 0,0 1.933,3.569 -2.116,5.894 -4.048,2.325 -11.99,2.933 -13.428,0.181 0,0 -3.975,1.298 -7.963,0.331 C 0.483,4.351 -2.055,1.39 0,0"
       style="fill:#ebeeff;fill-opacity:1;fill-rule:nonzero;stroke:none"
       transform="matrix(1.3333333,0,0,-1.3333333,637.48,830.4888)"
       clip-path="url(#clipPath3250)" />
    <path
       id="path3251"
       d="M 0,0 C -3.264,-1.901 -4.013,-5.971 -4.406,-9.446 L -4.436,-9.712 -4.7,-9.734 c -2.389,-0.077 -2.831,-2.041 -2.995,-4.052 -0.155,-1.983 -0.139,-4.058 0.05,-6.029 0.162,-2.027 1.412,-3.64 3.321,-4.324 1.875,-0.738 3.802,-1.438 5.729,-1.971 l 0.233,-0.065 v -0.233 -3.235 -1.617 c -0.105,-1.542 0.373,-3.13 1.605,-4.08 0.82,-0.654 2.074,-0.569 3.11,-0.395 0.566,-1.17 1.321,-3.27 2.668,-3.533 0.398,0.027 0.879,0.268 1.305,0.518 1.77,1.112 3.433,2.632 4.597,4.368 0.634,-0.271 1.468,-0.239 1.912,0.336 0.961,1.177 0.497,2.716 0.562,4.133 0.161,0.839 1.095,1.225 1.668,1.69 1.383,1.102 2.977,2.166 3.77,3.743 0.352,1.029 0.594,2.128 0.794,3.2 l 0.032,0.182 0.185,0.061 c 2.983,1.086 6.561,2.446 7.89,5.531 1.126,3.644 1.109,7.876 0.009,11.527 -0.714,1.459 -2.411,2.265 -3.872,2.865 -0.204,0.044 -0.09,0.368 0.093,0.293 2.244,-0.696 4.479,-2.081 4.744,-4.638 0.648,-4.244 1.257,-10.122 -2.509,-13.092 -1.839,-1.47 -3.979,-2.388 -6.185,-3.076 l 0.217,0.243 c -0.21,-1.124 -0.449,-2.22 -0.821,-3.306 -1.042,-2.071 -3.122,-3.329 -4.89,-4.678 -1.036,-0.659 -0.265,-1.72 -0.438,-2.836 -0.039,-1.66 -1.234,-3.522 -3.147,-2.829 0.001,0 0.369,0.119 0.369,0.119 -1.256,-1.774 -2.838,-3.208 -4.668,-4.365 -0.476,-0.265 -0.948,-0.548 -1.602,-0.602 -1.721,0.178 -2.486,2.367 -3.156,3.693 0,0 0.351,-0.185 0.351,-0.185 -3.297,-0.805 -5.466,2.047 -5.207,5.113 10e-4,1.009 -0.001,3.803 0,4.852 l 0.232,-0.298 c -1.996,0.553 -3.901,1.248 -5.812,1.998 -0.965,0.396 -1.92,0.97 -2.588,1.84 -1.326,1.744 -1.2,4.012 -1.26,6.057 0.026,2.082 -0.069,4.19 0.845,6.151 0.263,0.504 0.74,0.922 1.244,1.142 0.511,0.232 1.028,0.356 1.59,0.397 l -0.294,-0.288 c 0.133,3.617 1.37,7.978 4.901,9.649 C 0.036,0.305 0.143,0.082 0,0"
       style="fill:#000000;fill-opacity:1;fill-rule:nonzero;stroke:none"
       transform="matrix(1.3333333,0,0,-1.3333333,637.5588,830.6492)"
       clip-path="url(#clipPath3252)" />
    <path
       id="path3253"
       d="m 0,0 c 0.266,1.95 -0.456,4.201 -1.657,5.747 -0.13,0.146 0.099,0.354 0.232,0.207 1.4,-1.676 2.231,-3.907 2.021,-6.102 C 0.564,-0.315 0.403,-0.424 0.237,-0.393 0.057,-0.36 -0.053,-0.174 0,0"
       style="fill:#000000;fill-opacity:1;fill-rule:nonzero;stroke:none"
       transform="matrix(1.3333333,0,0,-1.3333333,669.06987,858.99293)"
       clip-path="url(#clipPath3254)" />
    <path
       id="path3255"
       d="M 0,0 C -0.073,0.35 0.342,5.203 0.85,4.217 0.811,2.814 0.661,1.395 0.614,0 0.605,-0.384 0.012,-0.382 0,0"
       style="fill:#000000;fill-opacity:1;fill-rule:nonzero;stroke:none"
       transform="matrix(1.3333333,0,0,-1.3333333,638.924,865.86013)"
       clip-path="url(#clipPath3256)" />
    <path
       id="path3257"
       d="M 0,0 C 1.896,0.432 4.327,-0.578 4.77,-2.617 4.788,-2.691 4.742,-2.766 4.668,-2.785 4.611,-2.798 4.555,-2.776 4.522,-2.732 3.536,-1.16 1.949,-0.339 0.067,-0.61 -0.318,-0.649 -0.385,-0.045 0,0"
       style="fill:#000000;fill-opacity:1;fill-rule:nonzero;stroke:none"
       transform="matrix(1.3333333,0,0,-1.3333333,631.23133,842.81253)"
       clip-path="url(#clipPath3258)" />
    <path
       id="path3259"
       d="M 0,0 C 0.684,0.12 1.549,0.383 2.176,0.685 2.268,0.732 2.381,0.697 2.429,0.605 2.474,0.519 2.444,0.414 2.365,0.361 1.603,-0.09 0.948,-0.359 0.097,-0.606 -0.327,-0.703 -0.434,-0.041 0,0"
       style="fill:#000000;fill-opacity:1;fill-rule:nonzero;stroke:none"
       transform="matrix(1.3333333,0,0,-1.3333333,645.7144,878.34253)"
       clip-path="url(#clipPath3260)" />
    <path
       id="path3261"
       d="M 0,0 C 0.427,0.476 0.765,1.217 1.061,1.815 1.101,1.901 1.202,1.939 1.289,1.9 1.368,1.864 1.406,1.772 1.38,1.691 1.111,0.943 0.93,0.275 0.455,-0.412 0.184,-0.761 -0.321,-0.305 0,0"
       style="fill:#000000;fill-opacity:1;fill-rule:nonzero;stroke:none"
       transform="matrix(1.3333333,0,0,-1.3333333,657.31987,876.70387)"
       clip-path="url(#clipPath3262)" />
  </g>
</svg>
