<?xml version="1.0" encoding="UTF-8" standalone="no"?>
<!-- Created with Inkscape (http://www.inkscape.org/) -->

<svg
   version="1.1"
   id="svg1"
   width="2007.9882"
   height="211.91405"
   viewBox="0 0 2007.9881 211.91405"
   xmlns="http://www.w3.org/2000/svg"
   xmlns:svg="http://www.w3.org/2000/svg">
  <defs
     id="defs1" />
  <g
     id="layer-MC4"
     style="display:inline"
     transform="translate(-790.98828,-673.19141)">
    <path
       id="path277"
       d="m 15.210905,0.38747969 c 2.671875,0 4.898437,-0.515625 6.679687,-1.59374999 1.710938,-1.078125 3.046875,-2.484375 3.9375,-4.3242188 0.890625,-1.78125 1.335938,-3.7617187 1.335938,-5.8593749 0,-2.484375 -0.503907,-4.582031 -1.523438,-6.234375 -1.078125,-1.59375 -2.355469,-2.988281 -3.820312,-4.066406 -1.523438,-1.089844 -3.046875,-2.039063 -4.582032,-2.871094 -1.464843,-0.820313 -2.730468,-1.582031 -3.75,-2.414063 -1.078125,-0.820312 -1.59375,-1.78125 -1.59375,-2.859375 0,-0.574218 0.257813,-1.148437 0.703125,-1.59375 0.445313,-0.445312 1.078125,-0.703125 2.039063,-0.703125 1.078125,0 1.910156,0.199219 2.472656,0.644532 0.574219,0.445312 1.089844,1.136718 1.664063,2.097656 0.5625,0.949219 1.207031,1.464844 1.898437,1.464844 0.445313,0 0.960938,-0.257813 1.464844,-0.761719 l 3.503906,-3.632813 c 0.820313,-0.890625 1.207031,-1.910156 1.207031,-2.988281 0,-0.761719 -0.1875,-1.464844 -0.632812,-2.039062 -1.335938,-1.78125 -2.988281,-3.117188 -4.898438,-3.9375 -1.980468,-0.832032 -4.078125,-1.21875 -6.433593,-1.21875 -8.9062503,0.07031 -13.3593753,3.949218 -13.3593753,11.519531 0,2.542969 0.515625,4.582031 1.5351562,6.175781 1.0078125,1.582031 2.2851563,2.917969 3.75,3.9375 1.4648438,1.089844 2.9296875,1.980469 4.3945311,2.742188 1.582031,0.820312 2.917969,1.582031 4.007813,2.414062 1.078125,0.832031 1.582031,1.910156 1.582031,3.175781 0,0.832032 -0.246094,1.40625 -0.761719,1.851563 -0.574219,0.445312 -1.207031,0.632812 -2.039062,0.632812 -2.097657,0 -3.621094,-0.890625 -4.6406253,-2.730468 -0.5742188,-0.960938 -1.2070313,-1.464844 -1.9101563,-1.464844 -0.4453125,0 -0.9492187,0.257812 -1.4648437,0.761719 l -3.4921875,3.6328122 c -0.8320313,0.890625 -1.2070313,1.8984375 -1.2070313,2.9882812 0,0.7617188 0.1875,1.4648438 0.6328125,2.0273438 1.3359375,1.78125 2.9882813,3.1171875 5.0273438,3.94921874 2.0273437,0.83203125 4.7695308,1.27734375 8.2734378,1.27734375 z M 49.625944,-42.503145 c -12.28125,0 -18,7.007812 -18,21.445312 0,14.3789064 5.71875,21.44531269 18,21.44531269 12.28125,0 17.941406,-7.06640629 17.941406,-21.44531269 0,-14.4375 -5.660156,-21.445312 -17.941406,-21.445312 z m 0,10.371093 c 4.394531,0 6.421875,3.632813 6.421875,11.074219 0,7.382813 -2.027344,11.003906 -6.421875,11.003906 -4.453125,0 -6.492188,-3.621093 -6.492188,-11.003906 0,-7.441406 2.039063,-11.074219 6.492188,-11.074219 z M 75.196256,-42.17502 c -1.007812,0 -1.898437,0.890625 -1.898437,1.898437 v 38.3671877 c 0,1.01953124 0.890625,1.9101562375 1.898437,1.9101562375 h 6.75 c 1.078125,0 1.910157,-0.8906249975 1.910157,-1.9101562375 V -16.921114 l 7.382812,15.7734374 c 0.316406,0.70312504 0.949219,1.1484375375 1.710938,1.1484375375 h 6.75 c 1.007817,0 1.898437,-0.8906249975 1.898437,-1.9101562375 V -40.276583 c 0,-1.007812 -0.89062,-1.898437 -1.898437,-1.898437 h -6.75 c -1.019532,0 -1.910157,0.890625 -1.910157,1.898437 v 12.925781 l -6.105468,-12.925781 c -0.503907,-1.007812 -1.839844,-1.898437 -2.988282,-1.898437 z m 56.370114,0 c -1.07812,0 -1.89843,0.890625 -1.89843,1.898437 v 38.3671877 c 0,1.01953124 0.82031,1.9101562375 1.89843,1.9101562375 h 13.17188 c 12.28125,0 17.9414,-6.9375000375 17.9414,-21.0585939375 0,-14.191406 -5.66015,-21.117187 -17.9414,-21.117187 z m 9.10547,10.359375 h 2.15625 c 5.73047,0 8.40235,3.574218 8.40235,10.757812 0,7.125 -2.67188,10.6875 -8.40235,10.6875 h -2.15625 z m 45.74121,-10.6875 c -12.28125,0 -18,7.007812 -18,21.445312 0,14.3789064 5.71875,21.44531269 18,21.44531269 12.28125,0 17.94141,-7.06640629 17.94141,-21.44531269 0,-14.4375 -5.66016,-21.445312 -17.94141,-21.445312 z m 0,10.371093 c 4.39453,0 6.42188,3.632813 6.42188,11.074219 0,7.382813 -2.02735,11.003906 -6.42188,11.003906 -4.45312,0 -6.49218,-3.621093 -6.49218,-11.003906 0,-7.441406 2.03906,-11.074219 6.49218,-11.074219 z m 36.33399,32.51953169 c 2.67187,0 4.89844,-0.515625 6.67969,-1.59374999 1.71093,-1.078125 3.04687,-2.484375 3.9375,-4.3242188 0.89062,-1.78125 1.33593,-3.7617187 1.33593,-5.8593749 0,-2.484375 -0.5039,-4.582031 -1.52343,-6.234375 -1.07813,-1.59375 -2.35547,-2.988281 -3.82032,-4.066406 -1.52343,-1.089844 -3.04687,-2.039063 -4.58203,-2.871094 -1.46484,-0.820313 -2.73047,-1.582031 -3.75,-2.414063 -1.07812,-0.820312 -1.59375,-1.78125 -1.59375,-2.859375 0,-0.574218 0.25781,-1.148437 0.70313,-1.59375 0.44531,-0.445312 1.07812,-0.703125 2.03906,-0.703125 1.07812,0 1.91016,0.199219 2.47266,0.644532 0.57421,0.445312 1.08984,1.136718 1.66406,2.097656 0.5625,0.949219 1.20703,1.464844 1.89844,1.464844 0.44531,0 0.96093,-0.257813 1.46484,-0.761719 l 3.50391,-3.632813 c 0.82031,-0.890625 1.20703,-1.910156 1.20703,-2.988281 0,-0.761719 -0.1875,-1.464844 -0.63282,-2.039062 -1.33593,-1.78125 -2.98828,-3.117188 -4.89843,-3.9375 -1.98047,-0.832032 -4.07813,-1.21875 -6.4336,-1.21875 -8.90625,0.07031 -13.35937,3.949218 -13.35937,11.519531 0,2.542969 0.51562,4.582031 1.53515,6.175781 1.00782,1.582031 2.28516,2.917969 3.75,3.9375 1.46485,1.089844 2.92969,1.980469 4.39454,2.742188 1.58203,0.820312 2.91796,1.582031 4.00781,2.414062 1.07812,0.832031 1.58203,1.910156 1.58203,3.175781 0,0.832032 -0.24609,1.40625 -0.76172,1.851563 -0.57422,0.445312 -1.20703,0.632812 -2.03906,0.632812 -2.09766,0 -3.6211,-0.890625 -4.64063,-2.730468 -0.57422,-0.960938 -1.20703,-1.464844 -1.91015,-1.464844 -0.44532,0 -0.94922,0.257812 -1.46485,0.761719 l -3.49218,3.6328122 c -0.83204,0.890625 -1.20704,1.8984375 -1.20704,2.9882812 0,0.7617188 0.1875,1.4648438 0.63282,2.0273438 1.33593,1.78125 2.98828,3.1171875 5.02734,3.94921874 2.02734,0.83203125 4.76953,1.27734375 8.27344,1.27734375 z M 264.66208,-42.17502 c -1.07813,0 -1.89844,0.890625 -1.89844,1.898437 v 38.3671877 c 0,1.01953124 0.82031,1.9101562375 1.89844,1.9101562375 h 7.19531 c 1.01953,0 1.91016,-0.8906249975 1.91016,-1.9101562375 V -16.288302 h 8.83593 v 14.3789067 c 0,1.01953124 0.89063,1.9101562375 1.91016,1.9101562375 h 7.19531 c 1.07813,0 1.96875,-0.8906249975 1.96875,-1.9101562375 V -40.276583 c 0,-1.007812 -0.89062,-1.898437 -1.96875,-1.898437 h -7.19531 c -1.01953,0 -1.91016,0.890625 -1.91016,1.898437 v 13.617188 h -8.83593 v -13.617188 c 0,-1.007812 -0.89063,-1.898437 -1.91016,-1.898437 z m 36.64746,0 c -1.07813,0 -1.89844,0.890625 -1.89844,1.898437 v 38.3671877 c 0,1.01953124 0.82031,1.9101562375 1.89844,1.9101562375 h 22.78125 c 1.01953,0 1.91015,-0.8906249975 1.91015,-1.9101562375 v -6.5507813 c 0,-1.078125 -0.89062,-1.9101564 -1.91015,-1.9101564 h -13.67578 v -5.789062 h 9.60937 c 1.00781,0 1.89844,-0.832032 1.89844,-1.910157 v -6.550781 c 0,-1.019531 -0.89063,-1.910156 -1.89844,-1.910156 h -9.60937 v -5.285156 h 13.41797 c 1.08984,0 1.91015,-0.820313 1.91015,-1.898438 v -6.5625 c 0,-1.007812 -0.82031,-1.898437 -1.91015,-1.898437 z m 32.32031,0 c -1.00781,0 -1.89844,0.890625 -1.89844,1.898437 v 38.3671877 c 0,1.01953124 0.89063,1.9101562375 1.89844,1.9101562375 h 7.19531 c 1.07813,0 1.91016,-0.8906249975 1.91016,-1.9101562375 V -13.171114 h 1.52344 l 4.00781,11.1328124 c 0.38672,1.08984379 1.72266,2.0390625375 2.92969,2.0390625375 h 6.60937 c 0.96094,0 1.59375,-0.5742187475 1.59375,-1.3945312375 0,-0.1992188 -0.0586,-0.3867188 -0.1289,-0.6445313 l -5.08594,-14.2500004 c 2.92969,-2.355468 4.26562,-6.164062 4.26562,-11.390625 0,-9.726562 -4.76953,-14.496093 -15.08203,-14.496093 z m 9.10547,10.359375 h 0.63281 c 2.41406,0 3.5625,1.40625 3.5625,4.136718 0,2.742188 -1.14844,4.136719 -3.5625,4.136719 h -0.63281 z m 24.2959,-10.359375 c -1.07813,0 -1.89844,0.890625 -1.89844,1.898437 v 38.3671877 c 0,1.01953124 0.82031,1.9101562375 1.89844,1.9101562375 h 6.67968 c 1.08985,0 1.91016,-0.8906249975 1.91016,-1.9101562375 V -19.217989 l 6.43359,16.0429687 c 0.12891,0.2460937 0.44532,0.5039062 0.76172,0.5039062 h 0.70313 c 0.3164,0 0.63281,-0.2578125 0.76172,-0.5039062 l 7.69922,-16.1015627 v 17.3671877 c 0,1.01953124 0.82031,1.9101562375 1.89843,1.9101562375 h 7.19532 c 1.01953,0 1.91015,-0.8906249975 1.91015,-1.9101562375 V -40.276583 c 0,-1.007812 -0.89062,-1.898437 -1.91015,-1.898437 h -7.38282 c -1.20703,0 -2.09765,0.890625 -2.67187,1.898437 l -6.29297,12.925781 -5.60156,-12.925781 c -0.44532,-1.007812 -1.78125,-1.898437 -2.92969,-1.898437 z m 54.02051,-0.328125 c -1.33594,0 -2.67188,1.019531 -2.98829,2.296875 l -9.42187,38.2382809 c -0.0586,0.1289063 -0.0586,0.3164063 -0.0586,0.4453125 0,0.89062504 0.63281,1.5234375375 1.58203,1.5234375375 h 6.67968 c 1.08985,0 2.16797,-0.8906249975 2.42579,-1.9687500375 l 0.82031,-3.8203125 h 9.99609 l 0.82031,3.8203125 c 0.25782,1.07812504 1.33594,1.9687500375 2.42579,1.9687500375 h 7.125 c 0.94921,0 1.58203,-0.6328124975 1.58203,-1.5234375375 0,-0.1289062 0,-0.3164062 -0.0586,-0.4453125 L 432.62985,-40.20627 c -0.31641,-1.277344 -1.65234,-2.296875 -2.98828,-2.296875 z m 4.0664,14.378906 2.61328,11.964844 h -5.28515 z M 449.5488,-42.17502 c -1.00782,0 -1.89844,0.890625 -1.89844,1.898437 v 38.3671877 c 0,1.01953124 0.89062,1.9101562375 1.89844,1.9101562375 h 6.75 c 1.07812,0 1.91015,-0.8906249975 1.91015,-1.9101562375 V -16.921114 l 7.38281,15.7734374 c 0.31641,0.70312504 0.94922,1.1484375375 1.71094,1.1484375375 h 6.75 c 1.00781,0 1.89844,-0.8906249975 1.89844,-1.9101562375 V -40.276583 c 0,-1.007812 -0.89063,-1.898437 -1.89844,-1.898437 h -6.75 c -1.01953,0 -1.91015,0.890625 -1.91015,1.898437 v 12.925781 l -6.10547,-12.925781 c -0.50391,-1.007812 -1.83985,-1.898437 -2.98828,-1.898437 z m 50.13867,-0.328125 c -12.28125,0 -18,7.007812 -18,21.445312 0,14.3789064 5.71875,21.44531269 18,21.44531269 12.28125,0 17.9414,-7.06640629 17.9414,-21.44531269 0,-14.4375 -5.66015,-21.445312 -17.9414,-21.445312 z m 0,10.371093 c 4.39453,0 6.42187,3.632813 6.42187,11.074219 0,7.382813 -2.02734,11.003906 -6.42187,11.003906 -4.45313,0 -6.49219,-3.621093 -6.49219,-11.003906 0,-7.441406 2.03906,-11.074219 6.49219,-11.074219 z m 36.33398,32.51953169 c 2.67188,0 4.89844,-0.515625 6.67969,-1.59374999 1.71094,-1.078125 3.04687,-2.484375 3.9375,-4.3242188 0.89062,-1.78125 1.33594,-3.7617187 1.33594,-5.8593749 0,-2.484375 -0.50391,-4.582031 -1.52344,-6.234375 -1.07813,-1.59375 -2.35547,-2.988281 -3.82031,-4.066406 -1.52344,-1.089844 -3.04688,-2.039063 -4.58203,-2.871094 -1.46485,-0.820313 -2.73047,-1.582031 -3.75,-2.414063 -1.07813,-0.820312 -1.59375,-1.78125 -1.59375,-2.859375 0,-0.574218 0.25781,-1.148437 0.70312,-1.59375 0.44531,-0.445312 1.07813,-0.703125 2.03906,-0.703125 1.07813,0 1.91016,0.199219 2.47266,0.644532 0.57422,0.445312 1.08984,1.136718 1.66406,2.097656 0.5625,0.949219 1.20703,1.464844 1.89844,1.464844 0.44531,0 0.96094,-0.257813 1.46484,-0.761719 l 3.50391,-3.632813 c 0.82031,-0.890625 1.20703,-1.910156 1.20703,-2.988281 0,-0.761719 -0.1875,-1.464844 -0.63281,-2.039062 -1.33594,-1.78125 -2.98828,-3.117188 -4.89844,-3.9375 -1.98047,-0.832032 -4.07812,-1.21875 -6.43359,-1.21875 -8.90625,0.07031 -13.35938,3.949218 -13.35938,11.519531 0,2.542969 0.51563,4.582031 1.53516,6.175781 1.00781,1.582031 2.28515,2.917969 3.75,3.9375 1.46484,1.089844 2.92969,1.980469 4.39453,2.742188 1.58203,0.820312 2.91797,1.582031 4.00781,2.414062 1.07813,0.832031 1.58203,1.910156 1.58203,3.175781 0,0.832032 -0.24609,1.40625 -0.76172,1.851563 -0.57421,0.445312 -1.20703,0.632812 -2.03906,0.632812 -2.09765,0 -3.62109,-0.890625 -4.64062,-2.730468 -0.57422,-0.960938 -1.20703,-1.464844 -1.91016,-1.464844 -0.44531,0 -0.94922,0.257812 -1.46484,0.761719 l -3.49219,3.6328122 c -0.83203,0.890625 -1.20703,1.8984375 -1.20703,2.9882812 0,0.7617188 0.1875,1.4648438 0.63281,2.0273438 1.33594,1.78125 2.98828,3.1171875 5.02734,3.94921874 2.02735,0.83203125 4.76954,1.27734375 8.27344,1.27734375 z M 588.3779,-42.503145 c -1.33594,0 -2.67188,1.019531 -2.98828,2.296875 l -9.42188,38.2382809 c -0.0586,0.1289063 -0.0586,0.3164063 -0.0586,0.4453125 0,0.89062504 0.63281,1.5234375375 1.58203,1.5234375375 h 6.67969 c 1.08984,0 2.16796,-0.8906249975 2.42578,-1.9687500375 l 0.82031,-3.8203125 h 9.99609 l 0.82032,3.8203125 c 0.25781,1.07812504 1.33593,1.9687500375 2.42578,1.9687500375 h 7.125 c 0.94922,0 1.58203,-0.6328124975 1.58203,-1.5234375375 0,-0.1289062 0,-0.3164062 -0.0586,-0.4453125 L 599.95602,-40.20627 c -0.3164,-1.277344 -1.65234,-2.296875 -2.98828,-2.296875 z m 4.0664,14.378906 2.61328,11.964844 h -5.28515 z m 46.76075,-14.050781 c -1.00782,0 -1.89844,0.890625 -1.89844,1.898437 v 38.3671877 c 0,1.01953124 0.89062,1.9101562375 1.89844,1.9101562375 h 22.78125 c 1.07812,0 1.91015,-0.8906249975 1.91015,-1.9101562375 v -6.5507813 c 0,-1.078125 -0.83203,-1.9101564 -1.91015,-1.9101564 h -13.67579 v -29.90625 c 0,-1.007812 -0.83203,-1.898437 -1.91015,-1.898437 z m 47.15039,-0.328125 c -12.28125,0 -18,7.007812 -18,21.445312 0,14.3789064 5.71875,21.44531269 18,21.44531269 12.28125,0 17.9414,-7.06640629 17.9414,-21.44531269 0,-14.4375 -5.66015,-21.445312 -17.9414,-21.445312 z m 0,10.371093 c 4.39453,0 6.42187,3.632813 6.42187,11.074219 0,7.382813 -2.02734,11.003906 -6.42187,11.003906 -4.45313,0 -6.49219,-3.621093 -6.49219,-11.003906 0,-7.441406 2.03906,-11.074219 6.49219,-11.074219 z m 36.33398,32.51953169 c 2.67188,0 4.89844,-0.515625 6.67969,-1.59374999 1.71094,-1.078125 3.04687,-2.484375 3.9375,-4.3242188 0.89062,-1.78125 1.33594,-3.7617187 1.33594,-5.8593749 0,-2.484375 -0.50391,-4.582031 -1.52344,-6.234375 -1.07813,-1.59375 -2.35547,-2.988281 -3.82031,-4.066406 -1.52344,-1.089844 -3.04688,-2.039063 -4.58204,-2.871094 -1.46484,-0.820313 -2.73046,-1.582031 -3.75,-2.414063 -1.07812,-0.820312 -1.59375,-1.78125 -1.59375,-2.859375 0,-0.574218 0.25782,-1.148437 0.70313,-1.59375 0.44531,-0.445312 1.07812,-0.703125 2.03906,-0.703125 1.07813,0 1.91016,0.199219 2.47266,0.644532 0.57422,0.445312 1.08984,1.136718 1.66406,2.097656 0.5625,0.949219 1.20703,1.464844 1.89844,1.464844 0.44531,0 0.96094,-0.257813 1.46484,-0.761719 l 3.50391,-3.632813 c 0.82031,-0.890625 1.20703,-1.910156 1.20703,-2.988281 0,-0.761719 -0.1875,-1.464844 -0.63281,-2.039062 -1.33594,-1.78125 -2.98828,-3.117188 -4.89844,-3.9375 -1.98047,-0.832032 -4.07813,-1.21875 -6.43359,-1.21875 -8.90625,0.07031 -13.35938,3.949218 -13.35938,11.519531 0,2.542969 0.51563,4.582031 1.53516,6.175781 1.00781,1.582031 2.28515,2.917969 3.75,3.9375 1.46484,1.089844 2.92968,1.980469 4.39453,2.742188 1.58203,0.820312 2.91797,1.582031 4.00781,2.414062 1.07813,0.832031 1.58203,1.910156 1.58203,3.175781 0,0.832032 -0.24609,1.40625 -0.76172,1.851563 -0.57422,0.445312 -1.20703,0.632812 -2.03906,0.632812 -2.09766,0 -3.62109,-0.890625 -4.64062,-2.730468 -0.57422,-0.960938 -1.20704,-1.464844 -1.91016,-1.464844 -0.44531,0 -0.94922,0.257812 -1.46484,0.761719 l -3.49219,3.6328122 c -0.83203,0.890625 -1.20703,1.8984375 -1.20703,2.9882812 0,0.7617188 0.1875,1.4648438 0.63281,2.0273438 1.33594,1.78125 2.98828,3.1171875 5.02734,3.94921874 2.02735,0.83203125 4.76953,1.27734375 8.27344,1.27734375 z M 780.64743,-42.503145 c -12.28125,0 -17.94141,7.007812 -17.94141,21.445312 0,14.3789064 5.66016,21.44531269 17.94141,21.44531269 1.20703,0 2.28515,-0.0703125 3.30469,-0.19921875 l 1.71093,3.11718746 c 0.32813,0.6445313 1.01953,1.0195313 1.72266,1.0195313 0.31641,0 0.63281,-0.058594 0.89062,-0.2578125 l 5.78907,-3.11718751 c 0.63281,-0.375 1.01953,-1.0078125 1.01953,-1.7109375 0,-0.31640629 -0.12891,-0.63281249 -0.25781,-0.89062499 l -1.33594,-2.484375 c 3.43359,-3.4921875 5.15625,-9.1640622 5.15625,-16.9218752 0,-14.4375 -5.73047,-21.445312 -18,-21.445312 z m 0,10.371093 c 4.45312,0 6.48047,3.632813 6.48047,11.074219 0,1.78125 -0.12891,3.304688 -0.375,4.710938 -0.31641,-0.644532 -1.01953,-1.019532 -1.65235,-1.019532 -0.32812,0 -0.64453,0.05859 -0.96093,0.257813 l -5.71875,3.117187 c -0.64454,0.316407 -1.01954,1.007813 -1.01954,1.652344 0,0.316406 0.0586,0.632813 0.2461,0.949219 l 0.44531,0.832031 c -2.67187,-1.207031 -3.9375,-4.710937 -3.9375,-10.5 0,-7.441406 2.09766,-11.074219 6.49219,-11.074219 z m 25.6289,-10.042968 c -1.07812,0 -1.89843,0.890625 -1.89843,1.898437 v 28.570313 c 0,8.7773434 5.66015,12.09374969 14.12109,12.09374969 8.46094,0 14.17969,-3.31640629 14.17969,-12.09374969 v -28.570313 c 0,-1.007812 -0.89063,-1.898437 -1.96875,-1.898437 h -6.67969 c -1.07812,0 -1.91016,0.890625 -1.91016,1.898437 v 26.472656 c 0,2.097657 -1.26562,3.375 -3.36328,3.375 -2.10937,0 -3.375,-1.277343 -3.375,-3.375 v -26.472656 c 0,-1.007812 -0.83203,-1.898437 -1.91015,-1.898437 z m 34.04004,0 c -1.07812,0 -1.89843,0.890625 -1.89843,1.898437 v 38.3671877 c 0,1.01953124 0.82031,1.9101562375 1.89843,1.9101562375 h 22.78125 c 1.01953,0 1.91016,-0.8906249975 1.91016,-1.9101562375 v -6.5507813 c 0,-1.078125 -0.89063,-1.9101564 -1.91016,-1.9101564 h -13.67578 v -5.789062 h 9.60938 c 1.00781,0 1.89843,-0.832032 1.89843,-1.910157 v -6.550781 c 0,-1.019531 -0.89062,-1.910156 -1.89843,-1.910156 h -9.60938 v -5.285156 h 13.41797 c 1.08984,0 1.91016,-0.820313 1.91016,-1.898438 v -6.5625 c 0,-1.007812 -0.82032,-1.898437 -1.91016,-1.898437 z m 54.65039,0 c -1.00781,0 -1.89843,0.890625 -1.89843,1.898437 v 38.3671877 c 0,1.01953124 0.89062,1.9101562375 1.89843,1.9101562375 h 22.78125 c 1.07813,0 1.91016,-0.8906249975 1.91016,-1.9101562375 v -6.5507813 c 0,-1.078125 -0.83203,-1.9101564 -1.91016,-1.9101564 h -13.67578 v -29.90625 c 0,-1.007812 -0.83203,-1.898437 -1.91015,-1.898437 z m 32.32032,0 c -1.07813,0 -1.89844,0.890625 -1.89844,1.898437 v 38.3671877 c 0,1.01953124 0.82031,1.9101562375 1.89844,1.9101562375 h 22.78125 c 1.01953,0 1.91015,-0.8906249975 1.91015,-1.9101562375 v -6.5507813 c 0,-1.078125 -0.89062,-1.9101564 -1.91015,-1.9101564 h -13.67578 v -5.789062 h 9.60937 c 1.00781,0 1.89844,-0.832032 1.89844,-1.910157 v -6.550781 c 0,-1.019531 -0.89063,-1.910156 -1.89844,-1.910156 h -9.60937 v -5.285156 h 13.41796 c 1.08985,0 1.91016,-0.820313 1.91016,-1.898438 v -6.5625 c 0,-1.007812 -0.82031,-1.898437 -1.91016,-1.898437 z m 44.35547,42.56249969 c 2.67187,0 4.89843,-0.515625 6.67968,-1.59374999 1.71094,-1.078125 3.04688,-2.484375 3.9375,-4.3242188 0.89063,-1.78125 1.33594,-3.7617187 1.33594,-5.8593749 0,-2.484375 -0.50391,-4.582031 -1.52344,-6.234375 -1.07812,-1.59375 -2.35547,-2.988281 -3.82031,-4.066406 -1.52344,-1.089844 -3.04687,-2.039063 -4.58203,-2.871094 -1.46484,-0.820313 -2.73047,-1.582031 -3.75,-2.414063 -1.07813,-0.820312 -1.59375,-1.78125 -1.59375,-2.859375 0,-0.574218 0.25781,-1.148437 0.70312,-1.59375 0.44532,-0.445312 1.07813,-0.703125 2.03907,-0.703125 1.07812,0 1.91015,0.199219 2.47265,0.644532 0.57422,0.445312 1.08985,1.136718 1.66407,2.097656 0.5625,0.949219 1.20703,1.464844 1.89843,1.464844 0.44532,0 0.96094,-0.257813 1.46485,-0.761719 l 3.5039,-3.632813 c 0.82032,-0.890625 1.20703,-1.910156 1.20703,-2.988281 0,-0.761719 -0.1875,-1.464844 -0.63281,-2.039062 -1.33594,-1.78125 -2.98828,-3.117188 -4.89844,-3.9375 -1.98046,-0.832032 -4.07812,-1.21875 -6.43359,-1.21875 -8.90625,0.07031 -13.35937,3.949218 -13.35937,11.519531 0,2.542969 0.51562,4.582031 1.53515,6.175781 1.00781,1.582031 2.28516,2.917969 3.75,3.9375 1.46485,1.089844 2.92969,1.980469 4.39453,2.742188 1.58203,0.820312 2.91797,1.582031 4.00782,2.414062 1.07812,0.832031 1.58203,1.910156 1.58203,3.175781 0,0.832032 -0.2461,1.40625 -0.76172,1.851563 -0.57422,0.445312 -1.20703,0.632812 -2.03906,0.632812 -2.09766,0 -3.6211,-0.890625 -4.64063,-2.730468 -0.57422,-0.960938 -1.20703,-1.464844 -1.91016,-1.464844 -0.44531,0 -0.94921,0.257812 -1.46484,0.761719 l -3.49219,3.6328122 c -0.83203,0.890625 -1.20703,1.8984375 -1.20703,2.9882812 0,0.7617188 0.1875,1.4648438 0.63281,2.0273438 1.33594,1.78125 2.98829,3.1171875 5.02735,3.94921874 2.02734,0.83203125 4.76953,1.27734375 8.27344,1.27734375 z M 1013.5576,-42.17502 c -1.0781,0 -1.8985,0.890625 -1.8985,1.898437 v 38.3671877 c 0,1.01953124 0.8204,1.9101562375 1.8985,1.9101562375 h 22.7812 c 1.0196,0 1.9102,-0.8906249975 1.9102,-1.9101562375 v -6.5507813 c 0,-1.078125 -0.8906,-1.9101564 -1.9102,-1.9101564 h -13.6757 v -5.789062 h 9.6093 c 1.0078,0 1.8985,-0.832032 1.8985,-1.910157 v -6.550781 c 0,-1.019531 -0.8907,-1.910156 -1.8985,-1.910156 h -9.6093 v -5.285156 h 13.4179 c 1.0899,0 1.9102,-0.820313 1.9102,-1.898438 v -6.5625 c 0,-1.007812 -0.8203,-1.898437 -1.9102,-1.898437 z m 32.3203,0 c -1.0078,0 -1.8984,0.890625 -1.8984,1.898437 v 38.3671877 c 0,1.01953124 0.8906,1.9101562375 1.8984,1.9101562375 h 6.75 c 1.0781,0 1.9102,-0.8906249975 1.9102,-1.9101562375 V -16.921114 l 7.3828,15.7734374 c 0.3164,0.70312504 0.9492,1.1484375375 1.7109,1.1484375375 h 6.75 c 1.0078,0 1.8984,-0.8906249975 1.8984,-1.9101562375 V -40.276583 c 0,-1.007812 -0.8906,-1.898437 -1.8984,-1.898437 h -6.75 c -1.0195,0 -1.9102,0.890625 -1.9102,1.898437 v 12.925781 l -6.1054,-12.925781 c -0.5039,-1.007812 -1.8399,-1.898437 -2.9883,-1.898437 z m 50.1387,-0.328125 c -12.2813,0 -18,7.007812 -18,21.445312 0,14.3789064 5.7187,21.44531269 18,21.44531269 6.1054,0 9.9843,-1.66406249 12.7265,-5.22656249 0.4453,-0.5625 0.6328,-1.265625 0.6328,-2.0273438 0,-1.0898437 -0.4453,-2.2265625 -1.1484,-2.9882812 l -3.4922,-3.6328122 c -0.5156,-0.503907 -1.0195,-0.761719 -1.4648,-0.761719 -0.7617,0 -1.4063,0.574219 -1.9688,1.464844 -1.2187,1.839843 -3.0586,2.730468 -5.2851,2.730468 -4.4532,0 -6.4922,-3.621093 -6.4922,-11.003906 0,-7.441406 2.039,-11.074219 6.4922,-11.074219 2.2265,0 4.0664,0.890625 5.2851,2.742188 0.5625,0.890625 1.2071,1.464844 1.9688,1.464844 0.4453,0 0.9492,-0.257813 1.4648,-0.761719 l 3.4922,-3.632813 c 0.7031,-0.761718 1.1484,-1.910156 1.1484,-2.988281 0,-0.761719 -0.1875,-1.464844 -0.6328,-2.039062 -2.7422,-3.5625 -6.6211,-5.15625 -12.7265,-5.15625 z m 30.6064,0 c -1.3359,0 -2.6719,1.019531 -2.9883,2.296875 l -9.4218,38.2382809 c -0.059,0.1289063 -0.059,0.3164063 -0.059,0.4453125 0,0.89062504 0.6328,1.5234375375 1.582,1.5234375375 h 6.6797 c 1.0898,0 2.168,-0.8906249975 2.4258,-1.9687500375 l 0.8203,-3.8203125 h 9.9961 l 0.8203,3.8203125 c 0.2578,1.07812504 1.3359,1.9687500375 2.4258,1.9687500375 h 7.125 c 0.9492,0 1.582,-0.6328124975 1.582,-1.5234375375 0,-0.1289062 0,-0.3164062 -0.059,-0.4453125 l -9.3516,-38.2382809 c -0.3164,-1.277344 -1.6523,-2.296875 -2.9882,-2.296875 z m 4.0664,14.378906 2.6133,11.964844 h -5.2852 z m 24.4278,-14.050781 c -1.0079,0 -1.8985,0.890625 -1.8985,1.898437 v 38.3671877 c 0,1.01953124 0.8906,1.9101562375 1.8985,1.9101562375 h 6.75 c 1.0781,0 1.9101,-0.8906249975 1.9101,-1.9101562375 V -16.921114 l 7.3828,15.7734374 c 0.3164,0.70312504 0.9492,1.1484375375 1.711,1.1484375375 h 6.75 c 1.0078,0 1.8984,-0.8906249975 1.8984,-1.9101562375 V -40.276583 c 0,-1.007812 -0.8906,-1.898437 -1.8984,-1.898437 h -6.75 c -1.0196,0 -1.9102,0.890625 -1.9102,1.898437 v 12.925781 l -6.1055,-12.925781 c -0.5039,-1.007812 -1.8398,-1.898437 -2.9882,-1.898437 z m 34.0371,0 c -1.0782,0 -1.8985,0.890625 -1.8985,1.898437 v 6.5625 c 0,1.078125 0.8203,1.898438 1.8985,1.898438 h 9.6093 v 29.9062497 c 0,1.01953124 0.8321,1.9101562375 1.9102,1.9101562375 h 7.1953 c 1.0078,0 1.8984,-0.8906249975 1.8984,-1.9101562375 V -31.815645 h 9.6094 c 1.0196,0 1.9102,-0.820313 1.9102,-1.898438 v -6.5625 c 0,-1.007812 -0.8906,-1.898437 -1.9102,-1.898437 z m 45.7529,-0.328125 c -1.3359,0 -2.6719,1.019531 -2.9883,2.296875 l -9.4219,38.2382809 c -0.059,0.1289063 -0.059,0.3164063 -0.059,0.4453125 0,0.89062504 0.6329,1.5234375375 1.5821,1.5234375375 h 6.6797 c 1.0898,0 2.1679,-0.8906249975 2.4257,-1.9687500375 l 0.8204,-3.8203125 h 9.9961 l 0.8203,3.8203125 c 0.2578,1.07812504 1.3359,1.9687500375 2.4257,1.9687500375 h 7.125 c 0.9493,0 1.5821,-0.6328124975 1.5821,-1.5234375375 0,-0.1289062 0,-0.3164062 -0.059,-0.4453125 l -9.3516,-38.2382809 c -0.3164,-1.277344 -1.6523,-2.296875 -2.9883,-2.296875 z m 4.0664,14.378906 2.6133,11.964844 h -5.2852 z m 46.7607,-14.050781 c -1.0781,0 -1.8984,0.890625 -1.8984,1.898437 v 38.3671877 c 0,1.01953124 0.8203,1.9101562375 1.8984,1.9101562375 h 13.1719 c 12.2813,0 17.9414,-6.9375000375 17.9414,-21.0585939375 0,-14.191406 -5.6601,-21.117187 -17.9414,-21.117187 z m 9.1055,10.359375 h 2.1563 c 5.7304,0 8.4023,3.574218 8.4023,10.757812 0,7.125 -2.6719,10.6875 -8.4023,10.6875 h -2.1563 z m 36.835,-10.359375 h -7.1953 c -1.0782,0 -1.8985,0.890625 -1.8985,1.898437 v 38.3671877 c 0,1.01953124 0.8203,1.9101562375 1.8985,1.9101562375 h 7.1953 c 1.0781,0 1.9101,-0.8906249975 1.9101,-1.9101562375 V -40.276583 c 0,-1.007812 -0.832,-1.898437 -1.9101,-1.898437 z m 9.5361,0 c -1.0078,0 -1.8984,0.890625 -1.8984,1.898437 v 38.3671877 c 0,1.01953124 0.8906,1.9101562375 1.8984,1.9101562375 h 10.6992 c 10.2422,0 15.0117,-4.0664062375 15.0117,-12.4101559375 0,-4.582032 -1.4062,-7.816407 -4.3242,-9.855469 2.3438,-1.910156 3.4336,-4.769531 3.4336,-8.589844 0,-7.570312 -4.4531,-11.320312 -14.1211,-11.320312 z m 9.1641,10.359375 h 0.7031 c 2.3555,0 3.5039,0.902343 3.5039,3.246093 0,2.355469 -1.1484,3.246094 -3.5039,3.246094 h -0.7031 z m 0,12.796875 h 0.4453 c 3.1172,0 4.582,1.265625 4.582,4.324218 0,3.046875 -1.4648,4.324219 -4.582,4.324219 h -0.4453 z m 24.1757,-23.15625 c -1.0781,0 -1.8984,0.890625 -1.8984,1.898437 v 28.570313 c 0,8.7773434 5.6602,12.09374969 14.1211,12.09374969 8.4609,0 14.1797,-3.31640629 14.1797,-12.09374969 v -28.570313 c 0,-1.007812 -0.8906,-1.898437 -1.9688,-1.898437 h -6.6796 c -1.0782,0 -1.9102,0.890625 -1.9102,1.898437 v 26.472656 c 0,2.097657 -1.2656,3.375 -3.3633,3.375 -2.1094,0 -3.375,-1.277343 -3.375,-3.375 v -26.472656 c 0,-1.007812 -0.832,-1.898437 -1.9101,-1.898437 z m 41.2325,0 h -7.1953 c -1.0782,0 -1.8985,0.890625 -1.8985,1.898437 v 39.1992189 c 0,1.52343754 -0.832,2.9179688 -2.2265,3.4921875 -0.8321,0.3867188 -1.5938,1.0898438 -1.5938,1.9804688 v 6.5507808 c 0,1.394532 1.0195,2.484375 2.3555,2.484375 h 0.1875 c 7.8867,-0.644531 12.2812,-4.5234371 12.2812,-12.4101558 V -40.276583 c 0,-1.007812 -0.832,-1.898437 -1.9101,-1.898437 z m 19.9775,-0.328125 c -1.3359,0 -2.6719,1.019531 -2.9883,2.296875 l -9.4218,38.2382809 c -0.059,0.1289063 -0.059,0.3164063 -0.059,0.4453125 0,0.89062504 0.6328,1.5234375375 1.582,1.5234375375 h 6.6797 c 1.0898,0 2.1679,-0.8906249975 2.4258,-1.9687500375 l 0.8203,-3.8203125 h 9.9961 l 0.8203,3.8203125 c 0.2578,1.07812504 1.3359,1.9687500375 2.4258,1.9687500375 h 7.125 c 0.9492,0 1.582,-0.6328124975 1.582,-1.5234375375 0,-0.1289062 0,-0.3164062 -0.059,-0.4453125 L 1447.338,-40.20627 c -0.3164,-1.277344 -1.6523,-2.296875 -2.9882,-2.296875 z m 4.0664,14.378906 2.6133,11.964844 h -5.2852 z m 24.4307,-14.050781 c -1.0078,0 -1.8985,0.890625 -1.8985,1.898437 v 38.3671877 c 0,1.01953124 0.8907,1.9101562375 1.8985,1.9101562375 h 7.1953 c 1.0781,0 1.9101,-0.8906249975 1.9101,-1.9101562375 V -13.171114 h 1.5235 l 4.0078,11.1328124 c 0.3867,1.08984379 1.7227,2.0390625375 2.9297,2.0390625375 h 6.6094 c 0.9609,0 1.5937,-0.5742187475 1.5937,-1.3945312375 0,-0.1992188 -0.059,-0.3867188 -0.1289,-0.6445313 l -5.0859,-14.2500004 c 2.9297,-2.355468 4.2656,-6.164062 4.2656,-11.390625 0,-9.726562 -4.7695,-14.496093 -15.082,-14.496093 z m 9.1054,10.359375 h 0.6329 c 2.414,0 3.5625,1.40625 3.5625,4.136718 0,2.742188 -1.1485,4.136719 -3.5625,4.136719 h -0.6329 z m 28.1866,20.296875 c -3.1875,0 -5.7891,2.6132809 -5.7891,5.7890622 0,2.0390625 1.0781,3.890625 2.7891,4.89843749 -0.1172,2.29687501 -0.9492,4.00781251 -1.5235,4.96875001 -0.1289,0.1875 -0.1875,0.375 -0.1875,0.5742187 0,0.2460938 0.1875,0.5039063 0.5039,0.6914063 l 2.0391,0.890625 c 0.1875,0.1289062 0.4453,0.1289062 0.7031,0.1289062 0.375,0 0.7617,-0.058594 1.0196,-0.3164062 1.8398,-1.59375 6.1054,-5.84765626 6.164,-11.7070313 v -0.1289062 c 0,-3.1757813 -2.5429,-5.7890622 -5.7187,-5.7890622 z M 171.33395,15.847441 h -7.19531 c -1.07813,0 -1.89844,0.890625 -1.89844,1.898437 v 38.367188 c 0,1.019531 0.82031,1.910156 1.89844,1.910156 h 7.19531 c 1.07813,0 1.91016,-0.890625 1.91016,-1.910156 V 17.745878 c 0,-1.007812 -0.83203,-1.898437 -1.91016,-1.898437 z m 9.53906,0 c -1.00781,0 -1.89843,0.890625 -1.89843,1.898437 v 38.367188 c 0,1.019531 0.89062,1.910156 1.89843,1.910156 h 6.75 c 1.07813,0 1.91016,-0.890625 1.91016,-1.910156 V 41.101347 l 7.38281,15.773437 c 0.31641,0.703125 0.94922,1.148438 1.71094,1.148438 h 6.75 c 1.00781,0 1.89844,-0.890625 1.89844,-1.910156 V 17.745878 c 0,-1.007812 -0.89063,-1.898437 -1.89844,-1.898437 h -6.75 c -1.01953,0 -1.91016,0.890625 -1.91016,1.898437 V 30.671659 L 190.6113,17.745878 c -0.50391,-1.007812 -1.83985,-1.898437 -2.98829,-1.898437 z m 33.5918,0 c -0.94922,0 -1.58203,0.632812 -1.58203,1.523437 0,0.128906 0,0.257813 0.0586,0.445313 l 9.35157,38.238281 c 0.3164,1.265625 1.65234,2.355469 2.92968,2.355469 h 8.64844 c 1.33594,0 2.67188,-1.089844 2.98828,-2.355469 l 9.42188,-38.238281 c 0.0586,-0.128907 0.0586,-0.316407 0.0586,-0.445313 0,-0.890625 -0.63281,-1.523437 -1.58203,-1.523437 h -6.67969 c -1.08984,0 -2.16797,0.890625 -2.42578,1.96875 l -5.84766,26.144531 -5.78906,-26.144531 c -0.25781,-1.078125 -1.33594,-1.96875 -2.42578,-1.96875 z m 39.38086,0 c -1.07812,0 -1.89844,0.890625 -1.89844,1.898437 v 38.367188 c 0,1.019531 0.82032,1.910156 1.89844,1.910156 h 22.78125 c 1.01953,0 1.91016,-0.890625 1.91016,-1.910156 v -6.550782 c 0,-1.078125 -0.89063,-1.910156 -1.91016,-1.910156 h -13.67578 v -5.789062 h 9.60937 c 1.00782,0 1.89844,-0.832032 1.89844,-1.910157 v -6.550781 c 0,-1.019531 -0.89062,-1.910156 -1.89844,-1.910156 h -9.60937 v -5.285156 h 13.41797 c 1.08984,0 1.91015,-0.820313 1.91015,-1.898438 v -6.5625 c 0,-1.007812 -0.82031,-1.898437 -1.91015,-1.898437 z m 32.32031,0 c -1.00781,0 -1.89843,0.890625 -1.89843,1.898437 v 38.367188 c 0,1.019531 0.89062,1.910156 1.89843,1.910156 h 6.75 c 1.07813,0 1.91016,-0.890625 1.91016,-1.910156 V 41.101347 l 7.38281,15.773437 c 0.31641,0.703125 0.94922,1.148438 1.71094,1.148438 h 6.75 c 1.00781,0 1.89844,-0.890625 1.89844,-1.910156 V 17.745878 c 0,-1.007812 -0.89063,-1.898437 -1.89844,-1.898437 h -6.75 c -1.01953,0 -1.91016,0.890625 -1.91016,1.898437 v 12.925781 l -6.10547,-12.925781 c -0.5039,-1.007812 -1.83984,-1.898437 -2.98828,-1.898437 z m 34.04004,0 c -1.07812,0 -1.89844,0.890625 -1.89844,1.898437 v 6.5625 c 0,1.078125 0.82032,1.898438 1.89844,1.898438 h 9.60938 v 29.90625 c 0,1.019531 0.83203,1.910156 1.91015,1.910156 h 7.19532 c 1.00781,0 1.89843,-0.890625 1.89843,-1.910156 v -29.90625 h 9.60938 c 1.01953,0 1.91015,-0.820313 1.91015,-1.898438 v -6.5625 c 0,-1.007812 -0.89062,-1.898437 -1.91015,-1.898437 z m 45.75,-0.328125 c -1.33594,0 -2.67187,1.019531 -2.98828,2.296875 l -9.42187,38.238281 c -0.0586,0.128906 -0.0586,0.316406 -0.0586,0.445312 0,0.890625 0.63281,1.523438 1.58203,1.523438 h 6.67969 c 1.08984,0 2.16797,-0.890625 2.42578,-1.96875 l 0.82031,-3.820313 h 9.9961 l 0.82031,3.820313 c 0.25781,1.078125 1.33594,1.96875 2.42578,1.96875 h 7.125 c 0.94922,0 1.58203,-0.632813 1.58203,-1.523438 0,-0.128906 0,-0.316406 -0.0586,-0.445312 l -9.35156,-38.238281 c -0.31641,-1.277344 -1.65235,-2.296875 -2.98828,-2.296875 z m 4.06641,14.378906 2.61328,11.964844 h -5.28516 z m 24.43066,-14.050781 c -1.00781,0 -1.89844,0.890625 -1.89844,1.898437 v 38.367188 c 0,1.019531 0.89063,1.910156 1.89844,1.910156 h 7.19531 c 1.07813,0 1.91016,-0.890625 1.91016,-1.910156 V 44.851347 h 1.52344 l 4.00781,11.132812 c 0.38672,1.089844 1.72266,2.039063 2.92969,2.039063 h 6.60937 c 0.96094,0 1.59375,-0.574219 1.59375,-1.394531 0,-0.199219 -0.0586,-0.386719 -0.1289,-0.644532 l -5.08594,-14.25 c 2.92969,-2.355468 4.26562,-6.164062 4.26562,-11.390625 0,-9.726562 -4.76953,-14.496093 -15.08203,-14.496093 z m 9.10547,10.359375 h 0.63281 c 2.41407,0 3.5625,1.40625 3.5625,4.136718 0,2.742188 -1.14843,4.136719 -3.5625,4.136719 h -0.63281 z m 46.62598,-10.359375 c -1.07813,0 -1.89844,0.890625 -1.89844,1.898437 v 38.367188 c 0,1.019531 0.82031,1.910156 1.89844,1.910156 h 7.19531 c 1.01953,0 1.91016,-0.890625 1.91016,-1.910156 v -8.273438 c 10.30078,0 15.07031,-5.273437 15.07031,-15.960937 0,-10.757813 -4.76953,-16.03125 -15.07031,-16.03125 z m 9.10547,10.359375 c 2.48437,0 3.5625,1.851562 3.5625,5.671875 0,3.75 -1.07813,5.589843 -3.5625,5.589843 z m 22.70507,-10.359375 c -1.07812,0 -1.89843,0.890625 -1.89843,1.898437 v 38.367188 c 0,1.019531 0.82031,1.910156 1.89843,1.910156 h 22.78125 c 1.01954,0 1.91016,-0.890625 1.91016,-1.910156 v -6.550782 c 0,-1.078125 -0.89062,-1.910156 -1.91016,-1.910156 h -13.67578 v -5.789062 h 9.60938 c 1.00781,0 1.89844,-0.832032 1.89844,-1.910157 v -6.550781 c 0,-1.019531 -0.89063,-1.910156 -1.89844,-1.910156 h -9.60938 v -5.285156 h 13.41797 c 1.08985,0 1.91016,-0.820313 1.91016,-1.898438 v -6.5625 c 0,-1.007812 -0.82031,-1.898437 -1.91016,-1.898437 z m 32.32032,0 c -1.00782,0 -1.89844,0.890625 -1.89844,1.898437 v 38.367188 c 0,1.019531 0.89062,1.910156 1.89844,1.910156 h 7.19531 c 1.07812,0 1.91016,-0.890625 1.91016,-1.910156 V 44.851347 h 1.52343 l 4.00782,11.132812 c 0.38671,1.089844 1.72265,2.039063 2.92968,2.039063 h 6.60938 c 0.96094,0 1.59375,-0.574219 1.59375,-1.394531 0,-0.199219 -0.0586,-0.386719 -0.12891,-0.644532 l -5.08594,-14.25 c 2.92969,-2.355468 4.26563,-6.164062 4.26563,-11.390625 0,-9.726562 -4.76953,-14.496093 -15.08203,-14.496093 z m 9.10547,10.359375 h 0.63281 c 2.41406,0 3.5625,1.40625 3.5625,4.136718 0,2.742188 -1.14844,4.136719 -3.5625,4.136719 h -0.63281 z m 35.05957,32.203125 c 2.67187,0 4.89843,-0.515625 6.67968,-1.59375 1.71094,-1.078125 3.04688,-2.484375 3.9375,-4.324219 0.89063,-1.78125 1.33594,-3.761719 1.33594,-5.859375 0,-2.484375 -0.50391,-4.582031 -1.52344,-6.234375 -1.07812,-1.59375 -2.35547,-2.988281 -3.82031,-4.066406 -1.52344,-1.089844 -3.04687,-2.039063 -4.58203,-2.871094 -1.46484,-0.820313 -2.73047,-1.582031 -3.75,-2.414063 -1.07813,-0.820312 -1.59375,-1.78125 -1.59375,-2.859375 0,-0.574218 0.25781,-1.148437 0.70312,-1.59375 0.44532,-0.445312 1.07813,-0.703125 2.03907,-0.703125 1.07812,0 1.91015,0.199219 2.47265,0.644532 0.57422,0.445312 1.08985,1.136718 1.66407,2.097656 0.5625,0.949219 1.20703,1.464844 1.89843,1.464844 0.44532,0 0.96094,-0.257813 1.46485,-0.761719 l 3.5039,-3.632813 c 0.82032,-0.890625 1.20703,-1.910156 1.20703,-2.988281 0,-0.761719 -0.1875,-1.464844 -0.63281,-2.039062 -1.33594,-1.78125 -2.98828,-3.117188 -4.89844,-3.9375 -1.98046,-0.832032 -4.07812,-1.21875 -6.43359,-1.21875 -8.90625,0.07031 -13.35937,3.949218 -13.35937,11.519531 0,2.542969 0.51562,4.582031 1.53515,6.175781 1.00781,1.582031 2.28516,2.917969 3.75,3.9375 1.46485,1.089844 2.92969,1.980469 4.39453,2.742188 1.58203,0.820312 2.91797,1.582031 4.00782,2.414062 1.07812,0.832031 1.58203,1.910156 1.58203,3.175781 0,0.832032 -0.2461,1.40625 -0.76172,1.851563 -0.57422,0.445312 -1.20703,0.632812 -2.03906,0.632812 -2.09766,0 -3.6211,-0.890625 -4.64063,-2.730468 -0.57422,-0.960938 -1.20703,-1.464844 -1.91016,-1.464844 -0.44531,0 -0.94921,0.257812 -1.46484,0.761719 l -3.49219,3.632812 c -0.83203,0.890625 -1.20703,1.898438 -1.20703,2.988281 0,0.761719 0.1875,1.464844 0.63281,2.027344 1.33594,1.78125 2.98829,3.117188 5.02735,3.949219 2.02734,0.832031 4.76953,1.277344 8.27344,1.277344 z m 34.41504,-42.890625 c -12.28125,0 -18,7.007812 -18,21.445312 0,14.378906 5.71875,21.445313 18,21.445313 12.28125,0 17.9414,-7.066407 17.9414,-21.445313 0,-14.4375 -5.66015,-21.445312 -17.9414,-21.445312 z m 0,10.371093 c 4.39453,0 6.42187,3.632813 6.42187,11.074219 0,7.382813 -2.02734,11.003906 -6.42187,11.003906 -4.45313,0 -6.49219,-3.621093 -6.49219,-11.003906 0,-7.441406 2.03906,-11.074219 6.49219,-11.074219 z m 25.57031,-10.042968 c -1.00781,0 -1.89844,0.890625 -1.89844,1.898437 v 38.367188 c 0,1.019531 0.89063,1.910156 1.89844,1.910156 h 6.75 c 1.07812,0 1.91015,-0.890625 1.91015,-1.910156 V 41.101347 l 7.38282,15.773437 c 0.3164,0.703125 0.94922,1.148438 1.71093,1.148438 h 6.75 c 1.00782,0 1.89844,-0.890625 1.89844,-1.910156 V 17.745878 c 0,-1.007812 -0.89062,-1.898437 -1.89844,-1.898437 h -6.75 c -1.01953,0 -1.91015,0.890625 -1.91015,1.898437 v 12.925781 l -6.10547,-12.925781 c -0.50391,-1.007812 -1.83984,-1.898437 -2.98828,-1.898437 z m 44.47851,-0.328125 c -1.33593,0 -2.67187,1.019531 -2.98828,2.296875 l -9.42187,38.238281 c -0.0586,0.128906 -0.0586,0.316406 -0.0586,0.445312 0,0.890625 0.63282,1.523438 1.58203,1.523438 h 6.67969 c 1.08985,0 2.16797,-0.890625 2.42578,-1.96875 l 0.82032,-3.820313 h 9.99609 l 0.82031,3.820313 c 0.25781,1.078125 1.33594,1.96875 2.42578,1.96875 h 7.125 c 0.94922,0 1.58203,-0.632813 1.58203,-1.523438 0,-0.128906 0,-0.316406 -0.0586,-0.445312 l -9.35156,-38.238281 c -0.31641,-1.277344 -1.65235,-2.296875 -2.98828,-2.296875 z m 4.06641,14.378906 2.61328,11.964844 h -5.28516 z m 31.62305,-14.050781 h -7.19532 c -1.07812,0 -1.89843,0.890625 -1.89843,1.898437 v 39.199219 c 0,1.523437 -0.83203,2.917969 -2.22657,3.492187 -0.83203,0.386719 -1.59375,1.089844 -1.59375,1.980469 v 6.550781 c 0,1.394532 1.01954,2.484375 2.35547,2.484375 h 0.1875 c 7.88672,-0.644531 12.28125,-4.523437 12.28125,-12.410156 V 17.745878 c 0,-1.007812 -0.83203,-1.898437 -1.91015,-1.898437 z m 9.53906,0 c -1.07813,0 -1.89844,0.890625 -1.89844,1.898437 v 38.367188 c 0,1.019531 0.82031,1.910156 1.89844,1.910156 h 22.78125 c 1.01953,0 1.91016,-0.890625 1.91016,-1.910156 v -6.550782 c 0,-1.078125 -0.89063,-1.910156 -1.91016,-1.910156 h -13.67578 v -5.789062 h 9.60937 c 1.00782,0 1.89844,-0.832032 1.89844,-1.910157 v -6.550781 c 0,-1.019531 -0.89062,-1.910156 -1.89844,-1.910156 h -9.60937 v -5.285156 h 13.41797 c 1.08984,0 1.91015,-0.820313 1.91015,-1.898438 v -6.5625 c 0,-1.007812 -0.82031,-1.898437 -1.91015,-1.898437 z m 44.35547,42.5625 c 2.67187,0 4.89844,-0.515625 6.67969,-1.59375 1.71093,-1.078125 3.04687,-2.484375 3.9375,-4.324219 0.89062,-1.78125 1.33593,-3.761719 1.33593,-5.859375 0,-2.484375 -0.5039,-4.582031 -1.52343,-6.234375 -1.07813,-1.59375 -2.35547,-2.988281 -3.82032,-4.066406 -1.52343,-1.089844 -3.04687,-2.039063 -4.58203,-2.871094 -1.46484,-0.820313 -2.73047,-1.582031 -3.75,-2.414063 -1.07812,-0.820312 -1.59375,-1.78125 -1.59375,-2.859375 0,-0.574218 0.25781,-1.148437 0.70313,-1.59375 0.44531,-0.445312 1.07812,-0.703125 2.03906,-0.703125 1.07812,0 1.91016,0.199219 2.47266,0.644532 0.57421,0.445312 1.08984,1.136718 1.66406,2.097656 0.5625,0.949219 1.20703,1.464844 1.89844,1.464844 0.44531,0 0.96093,-0.257813 1.46484,-0.761719 l 3.50391,-3.632813 c 0.82031,-0.890625 1.20703,-1.910156 1.20703,-2.988281 0,-0.761719 -0.1875,-1.464844 -0.63282,-2.039062 -1.33593,-1.78125 -2.98828,-3.117188 -4.89843,-3.9375 -1.98047,-0.832032 -4.07813,-1.21875 -6.4336,-1.21875 -8.90625,0.07031 -13.35937,3.949218 -13.35937,11.519531 0,2.542969 0.51562,4.582031 1.53515,6.175781 1.00782,1.582031 2.28516,2.917969 3.75,3.9375 1.46485,1.089844 2.92969,1.980469 4.39454,2.742188 1.58203,0.820312 2.91796,1.582031 4.00781,2.414062 1.07812,0.832031 1.58203,1.910156 1.58203,3.175781 0,0.832032 -0.24609,1.40625 -0.76172,1.851563 -0.57422,0.445312 -1.20703,0.632812 -2.03906,0.632812 -2.09766,0 -3.6211,-0.890625 -4.64063,-2.730468 -0.57422,-0.960938 -1.20703,-1.464844 -1.91015,-1.464844 -0.44532,0 -0.94922,0.257812 -1.46485,0.761719 l -3.49218,3.632812 c -0.83204,0.890625 -1.20704,1.898438 -1.20704,2.988281 0,0.761719 0.1875,1.464844 0.63282,2.027344 1.33593,1.78125 2.98828,3.117188 5.02734,3.949219 2.02734,0.832031 4.76953,1.277344 8.27344,1.277344 z m 41.46972,-42.5625 c -0.94921,0 -1.58203,0.632812 -1.58203,1.523437 0,0.128906 0,0.316406 0.0586,0.445313 l 11.13281,22.652343 v 15.644532 c 0,1.019531 0.89062,1.910156 1.91016,1.910156 h 7.19531 c 1.07812,0 1.96875,-0.890625 1.96875,-1.910156 V 40.468534 l 11.13281,-22.652343 c 0.0586,-0.128907 0.0586,-0.316407 0.0586,-0.445313 0,-0.890625 -0.63281,-1.523437 -1.58203,-1.523437 h -6.62109 c -1.14844,0 -2.22656,0.890625 -2.48438,1.96875 l -5.84765,12.46875 -5.78906,-12.46875 c -0.25782,-1.078125 -1.33594,-1.96875 -2.42579,-1.96875 z m 77.81543,-0.328125 c -12.28125,0 -18,7.007812 -18,21.445312 0,14.378906 5.71875,21.445313 18,21.445313 6.10547,0 9.98438,-1.664063 12.72657,-5.226563 0.44531,-0.5625 0.63281,-1.265625 0.63281,-2.027344 0,-1.089843 -0.44531,-2.226562 -1.14844,-2.988281 l -3.49219,-3.632812 c -0.51562,-0.503907 -1.01953,-0.761719 -1.46484,-0.761719 -0.76172,0 -1.40625,0.574219 -1.96875,1.464844 -1.21875,1.839843 -3.05859,2.730468 -5.28516,2.730468 -4.45312,0 -6.49218,-3.621093 -6.49218,-11.003906 0,-7.441406 2.03906,-11.074219 6.49218,-11.074219 2.22657,0 4.06641,0.890625 5.28516,2.742188 0.5625,0.890625 1.20703,1.464844 1.96875,1.464844 0.44531,0 0.94922,-0.257813 1.46484,-0.761719 l 3.49219,-3.632813 c 0.70313,-0.761718 1.14844,-1.910156 1.14844,-2.988281 0,-0.761719 -0.1875,-1.464844 -0.63281,-2.039062 -2.74219,-3.5625 -6.6211,-5.15625 -12.72657,-5.15625 z m 21.43653,0.328125 c -1.00782,0 -1.89844,0.890625 -1.89844,1.898437 v 38.367188 c 0,1.019531 0.89062,1.910156 1.89844,1.910156 h 7.19531 c 1.07812,0 1.91016,-0.890625 1.91016,-1.910156 V 44.851347 h 1.52343 l 4.00782,11.132812 c 0.38671,1.089844 1.72265,2.039063 2.92968,2.039063 h 6.60938 c 0.96094,0 1.59375,-0.574219 1.59375,-1.394531 0,-0.199219 -0.0586,-0.386719 -0.12891,-0.644532 l -5.08594,-14.25 c 2.92969,-2.355468 4.26563,-6.164062 4.26563,-11.390625 0,-9.726562 -4.76953,-14.496093 -15.08203,-14.496093 z m 9.10547,10.359375 h 0.63281 c 2.41406,0 3.5625,1.40625 3.5625,4.136718 0,2.742188 -1.14844,4.136719 -3.5625,4.136719 h -0.63281 z m 24.29589,-10.359375 c -1.07812,0 -1.89843,0.890625 -1.89843,1.898437 v 38.367188 c 0,1.019531 0.82031,1.910156 1.89843,1.910156 h 22.78125 c 1.01954,0 1.91016,-0.890625 1.91016,-1.910156 v -6.550782 c 0,-1.078125 -0.89062,-1.910156 -1.91016,-1.910156 H 935.7568 v -5.789062 h 9.60938 c 1.00781,0 1.89844,-0.832032 1.89844,-1.910157 v -6.550781 c 0,-1.019531 -0.89063,-1.910156 -1.89844,-1.910156 h -9.60938 v -5.285156 h 13.41797 c 1.08985,0 1.91016,-0.820313 1.91016,-1.898438 v -6.5625 c 0,-1.007812 -0.82031,-1.898437 -1.91016,-1.898437 z m 42.76172,-0.328125 c -1.33593,0 -2.67187,1.019531 -2.98828,2.296875 l -9.42187,38.238281 c -0.0586,0.128906 -0.0586,0.316406 -0.0586,0.445312 0,0.890625 0.63282,1.523438 1.58203,1.523438 h 6.67969 c 1.08985,0 2.16797,-0.890625 2.42578,-1.96875 l 0.82032,-3.820313 h 9.99609 l 0.82031,3.820313 c 0.25781,1.078125 1.33594,1.96875 2.42578,1.96875 h 7.125 c 0.94922,0 1.58203,-0.632813 1.58203,-1.523438 0,-0.128906 0,-0.316406 -0.0586,-0.445312 l -9.35156,-38.238281 c -0.31641,-1.277344 -1.65235,-2.296875 -2.98828,-2.296875 z m 4.06641,14.378906 2.61328,11.964844 h -5.28516 z m 24.42773,-14.050781 c -1.00781,0 -1.89843,0.890625 -1.89843,1.898437 v 38.367188 c 0,1.019531 0.89062,1.910156 1.89843,1.910156 h 7.19531 c 1.0781,0 1.9102,-0.890625 1.9102,-1.910156 V 44.851347 h 1.5234 l 4.0078,11.132812 c 0.3867,1.089844 1.7227,2.039063 2.9297,2.039063 h 6.6094 c 0.9609,0 1.5937,-0.574219 1.5937,-1.394531 0,-0.199219 -0.059,-0.386719 -0.1289,-0.644532 l -5.0859,-14.25 c 2.9297,-2.355468 4.2656,-6.164062 4.2656,-11.390625 0,-9.726562 -4.7695,-14.496093 -15.082,-14.496093 z m 9.10551,10.359375 h 0.6328 c 2.414,0 3.5625,1.40625 3.5625,4.136718 0,2.742188 -1.1485,4.136719 -3.5625,4.136719 h -0.6328 z m 46.6289,-10.359375 c -1.0782,0 -1.8985,0.890625 -1.8985,1.898437 v 38.367188 c 0,1.019531 0.8203,1.910156 1.8985,1.910156 h 7.1953 c 1.0195,0 1.9101,-0.890625 1.9101,-1.910156 V 41.734159 h 8.836 v 14.378907 c 0,1.019531 0.8906,1.910156 1.9101,1.910156 h 7.1953 c 1.0782,0 1.9688,-0.890625 1.9688,-1.910156 V 17.745878 c 0,-1.007812 -0.8906,-1.898437 -1.9688,-1.898437 h -7.1953 c -1.0195,0 -1.9101,0.890625 -1.9101,1.898437 v 13.617188 h -8.836 V 17.745878 c 0,-1.007812 -0.8906,-1.898437 -1.9101,-1.898437 z m 43.8398,0 h -7.1953 c -1.0781,0 -1.8984,0.890625 -1.8984,1.898437 v 38.367188 c 0,1.019531 0.8203,1.910156 1.8984,1.910156 h 7.1953 c 1.0781,0 1.9102,-0.890625 1.9102,-1.910156 V 17.745878 c 0,-1.007812 -0.8321,-1.898437 -1.9102,-1.898437 z m 21.5742,42.5625 c 2.6719,0 4.8985,-0.515625 6.6797,-1.59375 1.711,-1.078125 3.0469,-2.484375 3.9375,-4.324219 0.8906,-1.78125 1.336,-3.761719 1.336,-5.859375 0,-2.484375 -0.5039,-4.582031 -1.5235,-6.234375 -1.0781,-1.59375 -2.3554,-2.988281 -3.8203,-4.066406 -1.5234,-1.089844 -3.0469,-2.039063 -4.582,-2.871094 -1.4649,-0.820313 -2.7305,-1.582031 -3.75,-2.414063 -1.0781,-0.820312 -1.5938,-1.78125 -1.5938,-2.859375 0,-0.574218 0.2578,-1.148437 0.7032,-1.59375 0.4453,-0.445312 1.0781,-0.703125 2.039,-0.703125 1.0781,0 1.9102,0.199219 2.4727,0.644532 0.5742,0.445312 1.0898,1.136718 1.664,2.097656 0.5625,0.949219 1.2071,1.464844 1.8985,1.464844 0.4453,0 0.9609,-0.257813 1.4648,-0.761719 l 3.5039,-3.632813 c 0.8203,-0.890625 1.2071,-1.910156 1.2071,-2.988281 0,-0.761719 -0.1875,-1.464844 -0.6329,-2.039062 -1.3359,-1.78125 -2.9882,-3.117188 -4.8984,-3.9375 -1.9805,-0.832032 -4.0781,-1.21875 -6.4336,-1.21875 -8.9062,0.07031 -13.3594,3.949218 -13.3594,11.519531 0,2.542969 0.5157,4.582031 1.5352,6.175781 1.0078,1.582031 2.2851,2.917969 3.75,3.9375 1.4648,1.089844 2.9297,1.980469 4.3945,2.742188 1.5821,0.820312 2.918,1.582031 4.0078,2.414062 1.0782,0.832031 1.5821,1.910156 1.5821,3.175781 0,0.832032 -0.2461,1.40625 -0.7618,1.851563 -0.5742,0.445312 -1.207,0.632812 -2.039,0.632812 -2.0977,0 -3.6211,-0.890625 -4.6406,-2.730468 -0.5743,-0.960938 -1.2071,-1.464844 -1.9102,-1.464844 -0.4453,0 -0.9492,0.257812 -1.4648,0.761719 l -3.4922,3.632812 c -0.8321,0.890625 -1.2071,1.898438 -1.2071,2.988281 0,0.761719 0.1875,1.464844 0.6329,2.027344 1.3359,1.78125 2.9882,3.117188 5.0273,3.949219 2.0273,0.832031 4.7695,1.277344 8.2734,1.277344 z m 18.3106,-42.5625 c -1.0781,0 -1.8985,0.890625 -1.8985,1.898437 v 6.5625 c 0,1.078125 0.8204,1.898438 1.8985,1.898438 h 9.6094 v 29.90625 c 0,1.019531 0.832,1.910156 1.9101,1.910156 h 7.1953 c 1.0078,0 1.8985,-0.890625 1.8985,-1.910156 v -29.90625 h 9.6093 c 1.0196,0 1.9102,-0.820313 1.9102,-1.898438 v -6.5625 c 0,-1.007812 -0.8906,-1.898437 -1.9102,-1.898437 z m 54.2754,-0.328125 c -12.2813,0 -18,7.007812 -18,21.445312 0,14.378906 5.7187,21.445313 18,21.445313 12.2812,0 17.9414,-7.066407 17.9414,-21.445313 0,-14.4375 -5.6602,-21.445312 -17.9414,-21.445312 z m 0,10.371093 c 4.3945,0 6.4218,3.632813 6.4218,11.074219 0,7.382813 -2.0273,11.003906 -6.4218,11.003906 -4.4532,0 -6.4922,-3.621093 -6.4922,-11.003906 0,-7.441406 2.039,-11.074219 6.4922,-11.074219 z m 25.5703,-10.042968 c -1.0078,0 -1.8985,0.890625 -1.8985,1.898437 v 38.367188 c 0,1.019531 0.8907,1.910156 1.8985,1.910156 h 7.1953 c 1.0781,0 1.9102,-0.890625 1.9102,-1.910156 V 44.851347 h 1.5234 l 4.0078,11.132812 c 0.3867,1.089844 1.7227,2.039063 2.9297,2.039063 h 6.6094 c 0.9609,0 1.5937,-0.574219 1.5937,-1.394531 0,-0.199219 -0.059,-0.386719 -0.1289,-0.644532 l -5.0859,-14.25 c 2.9297,-2.355468 4.2656,-6.164062 4.2656,-11.390625 0,-9.726562 -4.7695,-14.496093 -15.082,-14.496093 z m 9.1055,10.359375 h 0.6328 c 2.414,0 3.5625,1.40625 3.5625,4.136718 0,2.742188 -1.1485,4.136719 -3.5625,4.136719 h -0.6328 z m 31.4912,-10.359375 h -7.1954 c -1.0781,0 -1.8984,0.890625 -1.8984,1.898437 v 38.367188 c 0,1.019531 0.8203,1.910156 1.8984,1.910156 h 7.1954 c 1.0781,0 1.9101,-0.890625 1.9101,-1.910156 V 17.745878 c 0,-1.007812 -0.832,-1.898437 -1.9101,-1.898437 z m 19.9804,-0.328125 c -1.3359,0 -2.6718,1.019531 -2.9883,2.296875 l -9.4218,38.238281 c -0.059,0.128906 -0.059,0.316406 -0.059,0.445312 0,0.890625 0.6328,1.523438 1.582,1.523438 h 6.6797 c 1.0898,0 2.168,-0.890625 2.4258,-1.96875 l 0.8203,-3.820313 h 9.9961 l 0.8203,3.820313 c 0.2578,1.078125 1.3359,1.96875 2.4258,1.96875 h 7.125 c 0.9492,0 1.582,-0.632813 1.582,-1.523438 0,-0.128906 0,-0.316406 -0.059,-0.445312 l -9.3515,-38.238281 c -0.3165,-1.277344 -1.6524,-2.296875 -2.9883,-2.296875 z m 4.0664,14.378906 2.6133,11.964844 h -5.2851 z m 35.1914,28.511719 c 2.6719,0 4.8985,-0.515625 6.6797,-1.59375 1.711,-1.078125 3.0469,-2.484375 3.9375,-4.324219 0.8907,-1.78125 1.336,-3.761719 1.336,-5.859375 0,-2.484375 -0.5039,-4.582031 -1.5235,-6.234375 -1.0781,-1.59375 -2.3554,-2.988281 -3.8203,-4.066406 -1.5234,-1.089844 -3.0469,-2.039063 -4.582,-2.871094 -1.4649,-0.820313 -2.7305,-1.582031 -3.75,-2.414063 -1.0781,-0.820312 -1.5938,-1.78125 -1.5938,-2.859375 0,-0.574218 0.2578,-1.148437 0.7032,-1.59375 0.4453,-0.445312 1.0781,-0.703125 2.039,-0.703125 1.0781,0 1.9102,0.199219 2.4727,0.644532 0.5742,0.445312 1.0898,1.136718 1.664,2.097656 0.5625,0.949219 1.2071,1.464844 1.8985,1.464844 0.4453,0 0.9609,-0.257813 1.4648,-0.761719 l 3.5039,-3.632813 c 0.8203,-0.890625 1.2071,-1.910156 1.2071,-2.988281 0,-0.761719 -0.1875,-1.464844 -0.6329,-2.039062 -1.3359,-1.78125 -2.9882,-3.117188 -4.8984,-3.9375 -1.9805,-0.832032 -4.0781,-1.21875 -6.4336,-1.21875 -8.9062,0.07031 -13.3594,3.949218 -13.3594,11.519531 0,2.542969 0.5157,4.582031 1.5352,6.175781 1.0078,1.582031 2.2852,2.917969 3.75,3.9375 1.4648,1.089844 2.9297,1.980469 4.3945,2.742188 1.5821,0.820312 2.918,1.582031 4.0078,2.414062 1.0782,0.832031 1.5821,1.910156 1.5821,3.175781 0,0.832032 -0.2461,1.40625 -0.7617,1.851563 -0.5743,0.445312 -1.2071,0.632812 -2.0391,0.632812 -2.0977,0 -3.6211,-0.890625 -4.6406,-2.730468 -0.5743,-0.960938 -1.2071,-1.464844 -1.9102,-1.464844 -0.4453,0 -0.9492,0.257812 -1.4648,0.761719 l -3.4922,3.632812 c -0.8321,0.890625 -1.2071,1.898438 -1.2071,2.988281 0,0.761719 0.1875,1.464844 0.6329,2.027344 1.3359,1.78125 2.9882,3.117188 5.0273,3.949219 2.0273,0.832031 4.7695,1.277344 8.2734,1.277344 z m 23.4756,-11.90625 c -3.1875,0 -5.789,2.613281 -5.789,5.789062 0,2.039063 1.0781,3.890625 2.789,4.898438 -0.1172,2.296875 -0.9492,4.007812 -1.5234,4.96875 -0.1289,0.1875 -0.1875,0.375 -0.1875,0.574218 0,0.246094 0.1875,0.503907 0.5039,0.691407 l 2.0391,0.890625 c 0.1875,0.128906 0.4453,0.128906 0.7031,0.128906 0.375,0 0.7617,-0.05859 1.0195,-0.316406 1.8399,-1.59375 6.1055,-5.847657 6.1641,-11.707032 v -0.128906 c 0,-3.175781 -2.543,-5.789062 -5.7188,-5.789062 z M 341.64548,73.869902 c -1.07813,0 -1.89844,0.890625 -1.89844,1.898437 v 38.367191 c 0,1.01953 0.82031,1.91015 1.89844,1.91015 h 6.67968 c 1.08985,0 1.91016,-0.89062 1.91016,-1.91015 V 96.826933 l 6.43359,16.042967 c 0.12891,0.2461 0.44532,0.50391 0.76172,0.50391 h 0.70313 c 0.3164,0 0.63281,-0.25781 0.76172,-0.50391 l 7.69921,-16.101561 v 17.367191 c 0,1.01953 0.82032,1.91015 1.89844,1.91015 h 7.19531 c 1.01954,0 1.91016,-0.89062 1.91016,-1.91015 V 75.768339 c 0,-1.007812 -0.89062,-1.898437 -1.91016,-1.898437 h -7.38281 c -1.20703,0 -2.09765,0.890625 -2.67187,1.898437 l -6.29297,12.925781 -5.60156,-12.925781 c -0.44532,-1.007812 -1.78125,-1.898437 -2.92969,-1.898437 z m 50.77734,0 h -7.19531 c -1.07813,0 -1.89844,0.890625 -1.89844,1.898437 v 38.367191 c 0,1.01953 0.82031,1.91015 1.89844,1.91015 h 7.19531 c 1.07812,0 1.91016,-0.89062 1.91016,-1.91015 V 75.768339 c 0,-1.007812 -0.83204,-1.898437 -1.91016,-1.898437 z m 9.53613,0 c -1.07812,0 -1.89844,0.890625 -1.89844,1.898437 v 38.367191 c 0,1.01953 0.82032,1.91015 1.89844,1.91015 h 22.78125 c 1.01953,0 1.91016,-0.89062 1.91016,-1.91015 v -6.55078 c 0,-1.07813 -0.89063,-1.91016 -1.91016,-1.91016 h -13.67578 v -5.789063 h 9.60938 c 1.00781,0 1.89843,-0.832032 1.89843,-1.910157 v -6.550781 c 0,-1.019531 -0.89062,-1.910156 -1.89843,-1.910156 h -9.60938 v -5.285156 h 13.41797 c 1.08984,0 1.91016,-0.820313 1.91016,-1.898438 v -6.5625 c 0,-1.007812 -0.82032,-1.898437 -1.91016,-1.898437 z m 32.32031,0 c -1.00781,0 -1.89843,0.890625 -1.89843,1.898437 v 38.367191 c 0,1.01953 0.89062,1.91015 1.89843,1.91015 h 6.75 c 1.07813,0 1.91016,-0.89062 1.91016,-1.91015 V 99.123808 l 7.38281,15.773442 c 0.31641,0.70312 0.94922,1.14843 1.71094,1.14843 h 6.75 c 1.00781,0 1.89844,-0.89062 1.89844,-1.91015 V 75.768339 c 0,-1.007812 -0.89063,-1.898437 -1.89844,-1.898437 h -6.75 c -1.01953,0 -1.91016,0.890625 -1.91016,1.898437 V 88.69412 l -6.10546,-12.925781 c -0.50391,-1.007812 -1.83985,-1.898437 -2.98829,-1.898437 z m 34.03711,0 c -1.07812,0 -1.89843,0.890625 -1.89843,1.898437 v 6.5625 c 0,1.078125 0.82031,1.898438 1.89843,1.898438 h 9.60938 v 29.906253 c 0,1.01953 0.83203,1.91015 1.91015,1.91015 h 7.19532 c 1.00781,0 1.89843,-0.89062 1.89843,-1.91015 V 84.229277 h 9.60938 c 1.01953,0 1.91016,-0.820313 1.91016,-1.898438 v -6.5625 c 0,-1.007812 -0.89063,-1.898437 -1.91016,-1.898437 z m 39.76465,0 c -1.00781,0 -1.89844,0.890625 -1.89844,1.898437 v 38.367191 c 0,1.01953 0.89063,1.91015 1.89844,1.91015 h 7.19531 c 1.07813,0 1.91016,-0.89062 1.91016,-1.91015 v -11.26172 h 1.52344 l 4.00781,11.13281 c 0.38672,1.08984 1.72266,2.03906 2.92969,2.03906 h 6.60937 c 0.96094,0 1.59375,-0.57422 1.59375,-1.39453 0,-0.19922 -0.0586,-0.38672 -0.1289,-0.64453 l -5.08594,-14.25 c 2.92969,-2.355468 4.26562,-6.164062 4.26562,-11.390625 0,-9.726562 -4.76953,-14.496093 -15.08203,-14.496093 z m 9.10547,10.359375 h 0.63281 c 2.41407,0 3.5625,1.40625 3.5625,4.136718 0,2.742188 -1.14843,4.136719 -3.5625,4.136719 h -0.63281 z m 33.45703,-10.6875 c -1.33594,0 -2.67187,1.019531 -2.98828,2.296875 l -9.42187,38.238278 c -0.0586,0.12891 -0.0586,0.31641 -0.0586,0.44532 0,0.89062 0.63281,1.52343 1.58203,1.52343 h 6.67969 c 1.08984,0 2.16797,-0.89062 2.42578,-1.96875 l 0.82031,-3.82031 h 9.9961 l 0.82031,3.82031 c 0.25781,1.07813 1.33594,1.96875 2.42578,1.96875 h 7.125 c 0.94922,0 1.58203,-0.63281 1.58203,-1.52343 0,-0.12891 0,-0.31641 -0.0586,-0.44532 l -9.35156,-38.238278 c -0.31641,-1.277344 -1.65235,-2.296875 -2.98828,-2.296875 z m 4.06641,14.378906 2.61328,11.964844 h -5.28516 z m 35.20019,28.511717 c 2.67188,0 4.89844,-0.51562 6.67969,-1.59375 1.71094,-1.07812 3.04688,-2.48437 3.9375,-4.32422 0.89063,-1.78125 1.33594,-3.76172 1.33594,-5.85937 0,-2.48438 -0.50391,-4.58203 -1.52344,-6.234377 -1.07812,-1.59375 -2.35547,-2.988281 -3.82031,-4.066406 -1.52344,-1.089844 -3.04688,-2.039063 -4.58203,-2.871094 -1.46485,-0.820313 -2.73047,-1.582031 -3.75,-2.414063 -1.07813,-0.820312 -1.59375,-1.78125 -1.59375,-2.859375 0,-0.574218 0.25781,-1.148437 0.70312,-1.59375 0.44531,-0.445312 1.07813,-0.703125 2.03906,-0.703125 1.07813,0 1.91016,0.199219 2.47266,0.644532 0.57422,0.445312 1.08984,1.136718 1.66406,2.097656 0.5625,0.949219 1.20703,1.464844 1.89844,1.464844 0.44531,0 0.96094,-0.257813 1.46484,-0.761719 l 3.50391,-3.632813 c 0.82031,-0.890625 1.20703,-1.910156 1.20703,-2.988281 0,-0.761719 -0.1875,-1.464844 -0.63281,-2.039062 -1.33594,-1.78125 -2.98828,-3.117188 -4.89844,-3.9375 -1.98047,-0.832032 -4.07812,-1.21875 -6.43359,-1.21875 -8.90625,0.07031 -13.35938,3.949218 -13.35938,11.519531 0,2.542969 0.51563,4.582031 1.53516,6.175781 1.00781,1.582031 2.28516,2.917969 3.75,3.9375 1.46484,1.089844 2.92969,1.980469 4.39453,2.742188 1.58203,0.820312 2.91797,1.582031 4.00781,2.414063 1.07813,0.83203 1.58203,1.91016 1.58203,3.17578 0,0.83203 -0.24609,1.40625 -0.76171,1.85156 -0.57422,0.44532 -1.20704,0.63282 -2.03907,0.63282 -2.09765,0 -3.62109,-0.89063 -4.64062,-2.73047 -0.57422,-0.96094 -1.20703,-1.46485 -1.91016,-1.46485 -0.44531,0 -0.94922,0.25782 -1.46484,0.76172 l -3.49219,3.63281 c -0.83203,0.89063 -1.20703,1.89844 -1.20703,2.98829 0,0.76171 0.1875,1.46484 0.63281,2.02734 1.33594,1.78125 2.98828,3.11719 5.02735,3.94922 2.02734,0.83203 4.76953,1.27734 8.27343,1.27734 z m 41.91504,-42.562498 c -1.07812,0 -1.89843,0.890625 -1.89843,1.898437 v 38.367191 c 0,1.01953 0.82031,1.91015 1.89843,1.91015 h 22.78125 c 1.01953,0 1.91016,-0.89062 1.91016,-1.91015 v -6.55078 c 0,-1.07813 -0.89063,-1.91016 -1.91016,-1.91016 h -13.67578 v -5.789063 h 9.60938 c 1.00781,0 1.89843,-0.832032 1.89843,-1.910157 v -6.550781 c 0,-1.019531 -0.89062,-1.910156 -1.89843,-1.910156 h -9.60938 v -5.285156 h 13.41797 c 1.08984,0 1.91016,-0.820313 1.91016,-1.898438 v -6.5625 c 0,-1.007812 -0.82032,-1.898437 -1.91016,-1.898437 z m 44.35547,42.562498 c 2.67188,0 4.89844,-0.51562 6.67969,-1.59375 1.71094,-1.07812 3.04687,-2.48437 3.9375,-4.32422 0.89062,-1.78125 1.33594,-3.76172 1.33594,-5.85937 0,-2.48438 -0.50391,-4.58203 -1.52344,-6.234377 -1.07813,-1.59375 -2.35547,-2.988281 -3.82031,-4.066406 -1.52344,-1.089844 -3.04688,-2.039063 -4.58203,-2.871094 -1.46485,-0.820313 -2.73047,-1.582031 -3.75,-2.414063 -1.07813,-0.820312 -1.59375,-1.78125 -1.59375,-2.859375 0,-0.574218 0.25781,-1.148437 0.70312,-1.59375 0.44531,-0.445312 1.07813,-0.703125 2.03906,-0.703125 1.07813,0 1.91016,0.199219 2.47266,0.644532 0.57422,0.445312 1.08984,1.136718 1.66406,2.097656 0.5625,0.949219 1.20703,1.464844 1.89844,1.464844 0.44531,0 0.96094,-0.257813 1.46484,-0.761719 l 3.50391,-3.632813 c 0.82031,-0.890625 1.20703,-1.910156 1.20703,-2.988281 0,-0.761719 -0.1875,-1.464844 -0.63281,-2.039062 -1.33594,-1.78125 -2.98828,-3.117188 -4.89844,-3.9375 -1.98047,-0.832032 -4.07812,-1.21875 -6.43359,-1.21875 -8.90625,0.07031 -13.35938,3.949218 -13.35938,11.519531 0,2.542969 0.51563,4.582031 1.53516,6.175781 1.00781,1.582031 2.28515,2.917969 3.75,3.9375 1.46484,1.089844 2.92969,1.980469 4.39453,2.742188 1.58203,0.820312 2.91797,1.582031 4.00781,2.414063 1.07813,0.83203 1.58203,1.91016 1.58203,3.17578 0,0.83203 -0.24609,1.40625 -0.76172,1.85156 -0.57421,0.44532 -1.20703,0.63282 -2.03906,0.63282 -2.09765,0 -3.62109,-0.89063 -4.64062,-2.73047 -0.57422,-0.96094 -1.20703,-1.46485 -1.91016,-1.46485 -0.44531,0 -0.94922,0.25782 -1.46484,0.76172 l -3.49219,3.63281 c -0.83203,0.89063 -1.20703,1.89844 -1.20703,2.98829 0,0.76171 0.1875,1.46484 0.63281,2.02734 1.33594,1.78125 2.98828,3.11719 5.02734,3.94922 2.02735,0.83203 4.76954,1.27734 8.27344,1.27734 z m 34.41504,-42.890623 c -12.28125,0 -18,7.007812 -18,21.445312 0,14.378911 5.71875,21.445311 18,21.445311 6.10547,0 9.98438,-1.66406 12.72656,-5.22656 0.44532,-0.5625 0.63282,-1.26563 0.63282,-2.02734 0,-1.08985 -0.44532,-2.22657 -1.14844,-2.98829 l -3.49219,-3.63281 c -0.51562,-0.5039 -1.01953,-0.76172 -1.46484,-0.76172 -0.76172,0 -1.40625,0.57422 -1.96875,1.46485 -1.21875,1.83984 -3.0586,2.73047 -5.28516,2.73047 -4.45312,0 -6.49219,-3.6211 -6.49219,-11.003911 0,-7.441406 2.03907,-11.074219 6.49219,-11.074219 2.22656,0 4.06641,0.890625 5.28516,2.742188 0.5625,0.890625 1.20703,1.464844 1.96875,1.464844 0.44531,0 0.94922,-0.257813 1.46484,-0.761719 l 3.49219,-3.632813 c 0.70312,-0.761718 1.14844,-1.910156 1.14844,-2.988281 0,-0.761719 -0.1875,-1.464844 -0.63282,-2.039062 -2.74218,-3.5625 -6.62109,-5.15625 -12.72656,-5.15625 z m 21.43359,0.328125 c -1.07812,0 -1.89843,0.890625 -1.89843,1.898437 v 28.570311 c 0,8.77735 5.66015,12.09375 14.12109,12.09375 8.46094,0 14.17969,-3.3164 14.17969,-12.09375 V 75.768339 c 0,-1.007812 -0.89063,-1.898437 -1.96875,-1.898437 h -6.67969 c -1.07812,0 -1.91016,0.890625 -1.91016,1.898437 V 102.241 c 0,2.09765 -1.26562,3.375 -3.36328,3.375 -2.10937,0 -3.375,-1.27735 -3.375,-3.375 V 75.768339 c 0,-1.007812 -0.83203,-1.898437 -1.91015,-1.898437 z m 50.14161,-0.328125 c -12.28125,0 -18,7.007812 -18,21.445312 0,14.378911 5.71875,21.445311 18,21.445311 6.10546,0 9.98437,-1.66406 12.72656,-5.22656 0.44531,-0.5625 0.63281,-1.26563 0.63281,-2.02734 0,-1.08985 -0.44531,-2.22657 -1.14844,-2.98829 l -3.49218,-3.63281 c -0.51563,-0.5039 -1.01954,-0.76172 -1.46485,-0.76172 -0.76172,0 -1.40625,0.57422 -1.96875,1.46485 -1.21875,1.83984 -3.05859,2.73047 -5.28515,2.73047 -4.45313,0 -6.49219,-3.6211 -6.49219,-11.003911 0,-7.441406 2.03906,-11.074219 6.49219,-11.074219 2.22656,0 4.0664,0.890625 5.28515,2.742188 0.5625,0.890625 1.20703,1.464844 1.96875,1.464844 0.44531,0 0.94922,-0.257813 1.46485,-0.761719 l 3.49218,-3.632813 c 0.70313,-0.761718 1.14844,-1.910156 1.14844,-2.988281 0,-0.761719 -0.1875,-1.464844 -0.63281,-2.039062 -2.74219,-3.5625 -6.6211,-5.15625 -12.72656,-5.15625 z m 21.43359,0.328125 c -1.07813,0 -1.89844,0.890625 -1.89844,1.898437 v 38.367191 c 0,1.01953 0.82031,1.91015 1.89844,1.91015 h 7.19531 c 1.01953,0 1.91016,-0.89062 1.91016,-1.91015 V 99.75662 h 8.83594 v 14.37891 c 0,1.01953 0.89062,1.91015 1.91015,1.91015 h 7.19531 c 1.07813,0 1.96875,-0.89062 1.96875,-1.91015 V 75.768339 c 0,-1.007812 -0.89062,-1.898437 -1.96875,-1.898437 h -7.19531 c -1.01953,0 -1.91015,0.890625 -1.91015,1.898437 v 13.617188 h -8.83594 V 75.768339 c 0,-1.007812 -0.89063,-1.898437 -1.91016,-1.898437 z m 47.08887,-0.328125 c -1.33594,0 -2.67188,1.019531 -2.98828,2.296875 l -9.42188,38.238278 c -0.0586,0.12891 -0.0586,0.31641 -0.0586,0.44532 0,0.89062 0.63281,1.52343 1.58203,1.52343 h 6.67969 c 1.08984,0 2.16796,-0.89062 2.42578,-1.96875 l 0.82031,-3.82031 h 9.99609 l 0.82032,3.82031 c 0.25781,1.07813 1.33593,1.96875 2.42578,1.96875 h 7.125 c 0.94922,0 1.58203,-0.63281 1.58203,-1.52343 0,-0.12891 0,-0.31641 -0.0586,-0.44532 l -9.35156,-38.238278 c -0.3164,-1.277344 -1.65234,-2.296875 -2.98828,-2.296875 z m 4.0664,14.378906 2.61328,11.964844 h -5.28515 z m 24.42774,-14.050781 c -1.00782,0 -1.89844,0.890625 -1.89844,1.898437 v 38.367191 c 0,1.01953 0.89062,1.91015 1.89844,1.91015 h 6.75 c 1.07812,0 1.91015,-0.89062 1.91015,-1.91015 V 99.123808 l 7.38282,15.773442 c 0.3164,0.70312 0.94921,1.14843 1.71093,1.14843 h 6.75 c 1.00782,0 1.89844,-0.89062 1.89844,-1.91015 V 75.768339 c 0,-1.007812 -0.89062,-1.898437 -1.89844,-1.898437 h -6.75 c -1.01953,0 -1.91015,0.890625 -1.91015,1.898437 V 88.69412 l -6.10547,-12.925781 c -0.50391,-1.007812 -1.83985,-1.898437 -2.98828,-1.898437 z m 56.37011,0 c -1.07812,0 -1.89843,0.890625 -1.89843,1.898437 v 38.367191 c 0,1.01953 0.82031,1.91015 1.89843,1.91015 h 6.67969 c 1.08985,0 1.91016,-0.89062 1.91016,-1.91015 V 96.826933 l 6.43359,16.042967 c 0.12891,0.2461 0.44531,0.50391 0.76172,0.50391 h 0.70313 c 0.3164,0 0.63281,-0.25781 0.76171,-0.50391 l 7.69922,-16.101561 v 17.367191 c 0,1.01953 0.82032,1.91015 1.89844,1.91015 h 7.19531 c 1.01953,0 1.91016,-0.89062 1.91016,-1.91015 V 75.768339 c 0,-1.007812 -0.89063,-1.898437 -1.91016,-1.898437 h -7.38281 c -1.20703,0 -2.09766,0.890625 -2.67187,1.898437 L 953.2529,88.69412 947.65133,75.768339 c -0.44531,-1.007812 -1.78125,-1.898437 -2.92968,-1.898437 z m 43.58204,0 c -1.07813,0 -1.89844,0.890625 -1.89844,1.898437 v 28.570311 c 0,8.77735 5.66015,12.09375 14.12109,12.09375 8.46094,0 14.17973,-3.3164 14.17973,-12.09375 V 75.768339 c 0,-1.007812 -0.8907,-1.898437 -1.9688,-1.898437 h -6.67968 c -1.07812,0 -1.91015,0.890625 -1.91015,1.898437 V 102.241 c 0,2.09765 -1.26563,3.375 -3.36329,3.375 -2.10937,0 -3.375,-1.27735 -3.375,-3.375 V 75.768339 c 0,-1.007812 -0.83203,-1.898437 -1.91015,-1.898437 z m 20.94138,-13.242188 -1.53513,-1.207031 c -0.57422,-0.503906 -1.20704,-0.949219 -1.83985,-0.949219 -0.25781,0 -0.51562,0.128906 -0.76172,0.316406 l -8.21484,6.621094 c -0.5625,0.445313 -0.89063,1.078125 -0.89063,1.710938 0,0.257812 0.0703,0.574218 0.25782,0.890625 l 0.25781,0.386718 c 0.31641,0.574219 0.94922,0.949219 1.65234,0.949219 0.31641,0 0.63282,-0.128906 0.94922,-0.316406 l 9.48047,-5.789063 c 0.64451,-0.386718 1.08981,-1.078125 1.08981,-1.722656 0,-0.375 -0.1289,-0.632812 -0.4453,-0.890625 z m 25.1309,55.804686 c 2.6719,0 4.8984,-0.51562 6.6797,-1.59375 1.7109,-1.07812 3.0468,-2.48437 3.9375,-4.32422 0.8906,-1.78125 1.3359,-3.76172 1.3359,-5.85937 0,-2.48438 -0.5039,-4.58203 -1.5234,-6.234377 -1.0782,-1.59375 -2.3555,-2.988281 -3.8203,-4.066406 -1.5235,-1.089844 -3.0469,-2.039063 -4.5821,-2.871094 -1.4648,-0.820313 -2.7304,-1.582031 -3.75,-2.414063 -1.0781,-0.820312 -1.5937,-1.78125 -1.5937,-2.859375 0,-0.574218 0.2578,-1.148437 0.7031,-1.59375 0.4453,-0.445312 1.0781,-0.703125 2.0391,-0.703125 1.0781,0 1.9101,0.199219 2.4726,0.644532 0.5742,0.445312 1.0899,1.136718 1.6641,2.097656 0.5625,0.949219 1.207,1.464844 1.8984,1.464844 0.4453,0 0.961,-0.257813 1.4649,-0.761719 l 3.5039,-3.632813 c 0.8203,-0.890625 1.207,-1.910156 1.207,-2.988281 0,-0.761719 -0.1875,-1.464844 -0.6328,-2.039062 -1.3359,-1.78125 -2.9883,-3.117188 -4.8984,-3.9375 -1.9805,-0.832032 -4.0782,-1.21875 -6.4336,-1.21875 -8.9063,0.07031 -13.3594,3.949218 -13.3594,11.519531 0,2.542969 0.5156,4.582031 1.5351,6.175781 1.0079,1.582031 2.2852,2.917969 3.75,3.9375 1.4649,1.089844 2.9297,1.980469 4.3946,2.742188 1.582,0.820312 2.9179,1.582031 4.0078,2.414063 1.0781,0.83203 1.582,1.91016 1.582,3.17578 0,0.83203 -0.2461,1.40625 -0.7617,1.85156 -0.5742,0.44532 -1.207,0.63282 -2.0391,0.63282 -2.0976,0 -3.6211,-0.89063 -4.6406,-2.73047 -0.5742,-0.96094 -1.207,-1.46485 -1.9101,-1.46485 -0.4454,0 -0.9493,0.25782 -1.4649,0.76172 l -3.4922,3.63281 c -0.832,0.89063 -1.207,1.89844 -1.207,2.98829 0,0.76171 0.1875,1.46484 0.6328,2.02734 1.3359,1.78125 2.9883,3.11719 5.0273,3.94922 2.0274,0.83203 4.7696,1.27734 8.2735,1.27734 z m 26.7803,-42.562498 h -7.1954 c -1.0781,0 -1.8984,0.890625 -1.8984,1.898437 v 38.367191 c 0,1.01953 0.8203,1.91015 1.8984,1.91015 h 7.1954 c 1.0781,0 1.9101,-0.89062 1.9101,-1.91015 V 75.768339 c 0,-1.007812 -0.832,-1.898437 -1.9101,-1.898437 z m 25.6377,-0.328125 c -12.2813,0 -18,7.007812 -18,21.445312 0,14.378911 5.7187,21.445311 18,21.445311 6.1054,0 9.9843,-1.66406 12.7265,-5.22656 0.4453,-0.5625 0.6328,-1.26563 0.6328,-2.02734 0,-1.08985 -0.4453,-2.22657 -1.1484,-2.98829 l -3.4922,-3.63281 c -0.5156,-0.5039 -1.0195,-0.76172 -1.4648,-0.76172 -0.7618,0 -1.4063,0.57422 -1.9688,1.46485 -1.2187,1.83984 -3.0586,2.73047 -5.2851,2.73047 -4.4532,0 -6.4922,-3.6211 -6.4922,-11.003911 0,-7.441406 2.039,-11.074219 6.4922,-11.074219 2.2265,0 4.0664,0.890625 5.2851,2.742188 0.5625,0.890625 1.207,1.464844 1.9688,1.464844 0.4453,0 0.9492,-0.257813 1.4648,-0.761719 l 3.4922,-3.632813 c 0.7031,-0.761718 1.1484,-1.910156 1.1484,-2.988281 0,-0.761719 -0.1875,-1.464844 -0.6328,-2.039062 -2.7422,-3.5625 -6.6211,-5.15625 -12.7265,-5.15625 z m 30.6064,0 c -1.3359,0 -2.6719,1.019531 -2.9883,2.296875 l -9.4219,38.238278 c -0.059,0.12891 -0.059,0.31641 -0.059,0.44532 0,0.89062 0.6329,1.52343 1.5821,1.52343 h 6.6797 c 1.0898,0 2.1679,-0.89062 2.4257,-1.96875 l 0.8204,-3.82031 h 9.9961 l 0.8203,3.82031 c 0.2578,1.07813 1.3359,1.96875 2.4257,1.96875 h 7.125 c 0.9493,0 1.5821,-0.63281 1.5821,-1.52343 0,-0.12891 0,-0.31641 -0.059,-0.44532 l -9.3516,-38.238278 c -0.3164,-1.277344 -1.6523,-2.296875 -2.9883,-2.296875 z m 4.0664,14.378906 2.6133,11.964844 h -5.2852 z m 34.0371,22.394527 c 0,-3.17578 -2.543,-5.78906 -5.7187,-5.78906 -3.1875,0 -5.7891,2.61328 -5.7891,5.78906 0,3.1875 2.6016,5.73047 5.7891,5.73047 3.1757,0 5.7187,-2.54297 5.7187,-5.73047 z m 0,0"
       style="fill:#ffffff;fill-opacity:1;fill-rule:nonzero;stroke:none"
       aria-label="SON DOS HERMANOS A LOS QUE LES ENCANTA DIBUJAR,&#10;INVENTAR PERSONAJES Y CREAR HISTORIAS,&#10;MIENTRAS ESCUCHAN MSICA. "
       transform="matrix(1.3333333,0,0,1.3333333,789.2852,729.86227)" />
  </g>
</svg>
