<?xml version="1.0" encoding="UTF-8" standalone="no"?>
<!-- Created with Inkscape (http://www.inkscape.org/) -->

<svg
   version="1.1"
   id="svg1"
   width="59.804688"
   height="76.415573"
   viewBox="0 0 59.804687 76.415573"
   sodipodi:docname="Juani y Nacho banner Tienda nube editable organizado x capas.ai"
   xmlns:inkscape="http://www.inkscape.org/namespaces/inkscape"
   xmlns:sodipodi="http://sodipodi.sourceforge.net/DTD/sodipodi-0.dtd"
   xmlns="http://www.w3.org/2000/svg"
   xmlns:svg="http://www.w3.org/2000/svg">
  <defs
     id="defs1">
    <clipPath
       clipPathUnits="userSpaceOnUse"
       id="clipPath2074">
      <path
         d="M 0,0 H 1717.42 V 566.47 H 0 Z"
         transform="translate(-839.3296,-393.52151)"
         id="path2074" />
    </clipPath>
    <clipPath
       clipPathUnits="userSpaceOnUse"
       id="clipPath2076">
      <path
         d="M 0,0 H 1717.42 V 566.47 H 0 Z"
         transform="translate(-858.3154,-373.67291)"
         id="path2076" />
    </clipPath>
    <clipPath
       clipPathUnits="userSpaceOnUse"
       id="clipPath2078">
      <path
         d="M 0,0 H 1717.42 V 566.47 H 0 Z"
         transform="translate(-860.74802,-352.18021)"
         id="path2078" />
    </clipPath>
    <clipPath
       clipPathUnits="userSpaceOnUse"
       id="clipPath2080">
      <path
         d="M 0,0 H 1717.42 V 566.47 H 0 Z"
         transform="translate(-863.81545,-349.18121)"
         id="path2080" />
    </clipPath>
    <clipPath
       clipPathUnits="userSpaceOnUse"
       id="clipPath2082">
      <path
         d="M 0,0 H 1717.42 V 566.47 H 0 Z"
         transform="translate(-865.04102,-355.04881)"
         id="path2082" />
    </clipPath>
    <clipPath
       clipPathUnits="userSpaceOnUse"
       id="clipPath2084">
      <path
         d="M 0,0 H 1717.42 V 566.47 H 0 Z"
         transform="translate(-856.6099,-356.89361)"
         id="path2084" />
    </clipPath>
    <clipPath
       clipPathUnits="userSpaceOnUse"
       id="clipPath2086">
      <path
         d="M 0,0 H 1717.42 V 566.47 H 0 Z"
         transform="translate(-853.26422,-361.56251)"
         id="path2086" />
    </clipPath>
    <clipPath
       clipPathUnits="userSpaceOnUse"
       id="clipPath2088">
      <path
         d="M 0,0 H 1717.42 V 566.47 H 0 Z"
         transform="translate(-850.09772,-367.19041)"
         id="path2088" />
    </clipPath>
    <clipPath
       clipPathUnits="userSpaceOnUse"
       id="clipPath2090">
      <path
         d="M 0,0 H 1717.42 V 566.47 H 0 Z"
         transform="translate(-865.19342,-348.05661)"
         id="path2090" />
    </clipPath>
    <clipPath
       clipPathUnits="userSpaceOnUse"
       id="clipPath2092">
      <path
         d="M 0,0 H 1717.42 V 566.47 H 0 Z"
         transform="translate(-852.0337,-377.10161)"
         id="path2092" />
    </clipPath>
    <clipPath
       clipPathUnits="userSpaceOnUse"
       id="clipPath2094">
      <path
         d="M 0,0 H 1717.42 V 566.47 H 0 Z"
         transform="translate(-846.9595,-373.77731)"
         id="path2094" />
    </clipPath>
    <clipPath
       clipPathUnits="userSpaceOnUse"
       id="clipPath2096">
      <path
         d="M 0,0 H 1717.42 V 566.47 H 0 Z"
         transform="translate(-846.7681,-373.84471)"
         id="path2096" />
    </clipPath>
    <clipPath
       clipPathUnits="userSpaceOnUse"
       id="clipPath2098">
      <path
         d="M 0,0 H 1717.42 V 566.47 H 0 Z"
         transform="translate(-846.90482,-373.92921)"
         id="path2098" />
    </clipPath>
    <clipPath
       clipPathUnits="userSpaceOnUse"
       id="clipPath2099">
      <path
         d="m 840.39,390.067 c -4.708,-2.912 -6.419,-8.682 -3.817,-12.888 v 0 c 1.768,-2.86 5.074,-4.26 8.49,-3.946 v 0 c 1.607,0.147 3.238,0.673 4.746,1.605 v 0 c 4.709,2.913 6.419,8.683 3.818,12.888 v 0 c -1.606,2.597 -4.48,3.99 -7.553,3.99 v 0 c -1.903,0 -3.883,-0.534 -5.684,-1.649"
         transform="matrix(1,0,0,-1,0,2.5000001e-6)"
         id="path2099" />
    </clipPath>
    <clipPath
       clipPathUnits="userSpaceOnUse"
       id="clipPath2100">
      <path
         d="m 840.39,390.067 c -4.708,-2.912 -6.419,-8.682 -3.817,-12.888 v 0 c 1.768,-2.86 5.074,-4.26 8.49,-3.946 v 0 c 1.607,0.147 3.238,0.673 4.746,1.605 v 0 c 4.709,2.913 6.419,8.683 3.818,12.888 v 0 c -1.606,2.597 -4.48,3.99 -7.553,3.99 v 0 c -1.903,0 -3.883,-0.534 -5.684,-1.649"
         transform="matrix(1,0,0,-1,0,2.5000001e-6)"
         id="path2100" />
    </clipPath>
    <clipPath
       clipPathUnits="userSpaceOnUse"
       id="clipPath2101">
      <path
         d="m 840.39,390.067 c -4.708,-2.912 -6.419,-8.682 -3.817,-12.888 v 0 c 1.768,-2.86 5.074,-4.26 8.49,-3.946 v 0 c 1.607,0.147 3.238,0.673 4.746,1.605 v 0 c 4.709,2.913 6.419,8.683 3.818,12.888 v 0 c -1.606,2.597 -4.48,3.99 -7.553,3.99 v 0 c -1.903,0 -3.883,-0.534 -5.684,-1.649"
         transform="matrix(1,0,0,-1,0,2.5000001e-6)"
         id="path2101" />
    </clipPath>
    <clipPath
       clipPathUnits="userSpaceOnUse"
       id="clipPath2102">
      <path
         d="m 840.39,390.067 c -4.708,-2.912 -6.419,-8.682 -3.817,-12.888 v 0 c 1.768,-2.86 5.074,-4.26 8.49,-3.946 v 0 c 1.607,0.147 3.238,0.673 4.746,1.605 v 0 c 4.709,2.913 6.419,8.683 3.818,12.888 v 0 c -1.606,2.597 -4.48,3.99 -7.553,3.99 v 0 c -1.903,0 -3.883,-0.534 -5.684,-1.649"
         transform="matrix(1,0,0,-1,0,2.5000001e-6)"
         id="path2102" />
    </clipPath>
    <clipPath
       clipPathUnits="userSpaceOnUse"
       id="clipPath2103">
      <path
         d="m 840.39,390.067 c -4.708,-2.912 -6.419,-8.682 -3.817,-12.888 v 0 c 1.768,-2.86 5.074,-4.26 8.49,-3.946 v 0 c 1.607,0.147 3.238,0.673 4.746,1.605 v 0 c 4.709,2.913 6.419,8.683 3.818,12.888 v 0 c -1.606,2.597 -4.48,3.99 -7.553,3.99 v 0 c -1.903,0 -3.883,-0.534 -5.684,-1.649"
         transform="matrix(1,0,0,-1,0,2.5000001e-6)"
         id="path2103" />
    </clipPath>
    <clipPath
       clipPathUnits="userSpaceOnUse"
       id="clipPath2104">
      <path
         d="m 840.39,390.067 c -4.708,-2.912 -6.419,-8.682 -3.817,-12.888 v 0 c 1.768,-2.86 5.074,-4.26 8.49,-3.946 v 0 c 1.607,0.147 3.238,0.673 4.746,1.605 v 0 c 4.709,2.913 6.419,8.683 3.818,12.888 v 0 c -1.606,2.597 -4.48,3.99 -7.553,3.99 v 0 c -1.903,0 -3.883,-0.534 -5.684,-1.649"
         transform="matrix(1,0,0,-1,0,2.5000001e-6)"
         id="path2104" />
    </clipPath>
    <clipPath
       clipPathUnits="userSpaceOnUse"
       id="clipPath2105">
      <path
         d="m 840.39,390.067 c -4.708,-2.912 -6.419,-8.682 -3.817,-12.888 v 0 c 1.768,-2.86 5.074,-4.26 8.49,-3.946 v 0 c 1.607,0.147 3.238,0.673 4.746,1.605 v 0 c 4.709,2.913 6.419,8.683 3.818,12.888 v 0 c -1.606,2.597 -4.48,3.99 -7.553,3.99 v 0 c -1.903,0 -3.883,-0.534 -5.684,-1.649"
         transform="matrix(1,0,0,-1,0,2.5000001e-6)"
         id="path2105" />
    </clipPath>
    <clipPath
       clipPathUnits="userSpaceOnUse"
       id="clipPath2106">
      <path
         d="m 840.39,390.067 c -4.708,-2.912 -6.419,-8.682 -3.817,-12.888 v 0 c 1.768,-2.86 5.074,-4.26 8.49,-3.946 v 0 c 1.607,0.147 3.238,0.673 4.746,1.605 v 0 c 4.709,2.913 6.419,8.683 3.818,12.888 v 0 c -1.606,2.597 -4.48,3.99 -7.553,3.99 v 0 c -1.903,0 -3.883,-0.534 -5.684,-1.649"
         transform="matrix(1,0,0,-1,0,2.5000001e-6)"
         id="path2106" />
    </clipPath>
    <clipPath
       clipPathUnits="userSpaceOnUse"
       id="clipPath2107">
      <path
         d="m 840.39,390.067 c -4.708,-2.912 -6.419,-8.682 -3.817,-12.888 v 0 c 1.768,-2.86 5.074,-4.26 8.49,-3.946 v 0 c 1.607,0.147 3.238,0.673 4.746,1.605 v 0 c 4.709,2.913 6.419,8.683 3.818,12.888 v 0 c -1.606,2.597 -4.48,3.99 -7.553,3.99 v 0 c -1.903,0 -3.883,-0.534 -5.684,-1.649"
         transform="matrix(1,0,0,-1,0,2.5000001e-6)"
         id="path2107" />
    </clipPath>
    <clipPath
       clipPathUnits="userSpaceOnUse"
       id="clipPath2108">
      <path
         d="m 840.39,390.067 c -4.708,-2.912 -6.419,-8.682 -3.817,-12.888 v 0 c 1.768,-2.86 5.074,-4.26 8.49,-3.946 v 0 c 1.607,0.147 3.238,0.673 4.746,1.605 v 0 c 4.709,2.913 6.419,8.683 3.818,12.888 v 0 c -1.606,2.597 -4.48,3.99 -7.553,3.99 v 0 c -1.903,0 -3.883,-0.534 -5.684,-1.649"
         transform="matrix(1,0,0,-1,0,2.5000001e-6)"
         id="path2108" />
    </clipPath>
    <clipPath
       clipPathUnits="userSpaceOnUse"
       id="clipPath2109">
      <path
         d="m 840.39,390.067 c -4.708,-2.912 -6.419,-8.682 -3.817,-12.888 v 0 c 1.768,-2.86 5.074,-4.26 8.49,-3.946 v 0 c 1.607,0.147 3.238,0.673 4.746,1.605 v 0 c 4.709,2.913 6.419,8.683 3.818,12.888 v 0 c -1.606,2.597 -4.48,3.99 -7.553,3.99 v 0 c -1.903,0 -3.883,-0.534 -5.684,-1.649"
         transform="matrix(1,0,0,-1,0,2.5000001e-6)"
         id="path2109" />
    </clipPath>
    <clipPath
       clipPathUnits="userSpaceOnUse"
       id="clipPath2110">
      <path
         d="m 840.39,390.067 c -4.708,-2.912 -6.419,-8.682 -3.817,-12.888 v 0 c 1.768,-2.86 5.074,-4.26 8.49,-3.946 v 0 c 1.607,0.147 3.238,0.673 4.746,1.605 v 0 c 4.709,2.913 6.419,8.683 3.818,12.888 v 0 c -1.606,2.597 -4.48,3.99 -7.553,3.99 v 0 c -1.903,0 -3.883,-0.534 -5.684,-1.649"
         transform="matrix(1,0,0,-1,0,2.5000001e-6)"
         id="path2110" />
    </clipPath>
    <clipPath
       clipPathUnits="userSpaceOnUse"
       id="clipPath2111">
      <path
         d="m 840.39,390.067 c -4.708,-2.912 -6.419,-8.682 -3.817,-12.888 v 0 c 1.768,-2.86 5.074,-4.26 8.49,-3.946 v 0 c 1.607,0.147 3.238,0.673 4.746,1.605 v 0 c 4.709,2.913 6.419,8.683 3.818,12.888 v 0 c -1.606,2.597 -4.48,3.99 -7.553,3.99 v 0 c -1.903,0 -3.883,-0.534 -5.684,-1.649"
         transform="matrix(1,0,0,-1,0,2.5000001e-6)"
         id="path2111" />
    </clipPath>
    <clipPath
       clipPathUnits="userSpaceOnUse"
       id="clipPath2112">
      <path
         d="m 840.39,390.067 c -4.708,-2.912 -6.419,-8.682 -3.817,-12.888 v 0 c 1.768,-2.86 5.074,-4.26 8.49,-3.946 v 0 c 1.607,0.147 3.238,0.673 4.746,1.605 v 0 c 4.709,2.913 6.419,8.683 3.818,12.888 v 0 c -1.606,2.597 -4.48,3.99 -7.553,3.99 v 0 c -1.903,0 -3.883,-0.534 -5.684,-1.649"
         transform="matrix(1,0,0,-1,0,2.5000001e-6)"
         id="path2112" />
    </clipPath>
    <clipPath
       clipPathUnits="userSpaceOnUse"
       id="clipPath2113">
      <path
         d="m 840.39,390.067 c -4.708,-2.912 -6.419,-8.682 -3.817,-12.888 v 0 c 1.768,-2.86 5.074,-4.26 8.49,-3.946 v 0 c 1.607,0.147 3.238,0.673 4.746,1.605 v 0 c 4.709,2.913 6.419,8.683 3.818,12.888 v 0 c -1.606,2.597 -4.48,3.99 -7.553,3.99 v 0 c -1.903,0 -3.883,-0.534 -5.684,-1.649"
         transform="matrix(1,0,0,-1,0,2.5000001e-6)"
         id="path2113" />
    </clipPath>
    <clipPath
       clipPathUnits="userSpaceOnUse"
       id="clipPath2114">
      <path
         d="m 840.39,390.067 c -4.708,-2.912 -6.419,-8.682 -3.817,-12.888 v 0 c 1.768,-2.86 5.074,-4.26 8.49,-3.946 v 0 c 1.607,0.147 3.238,0.673 4.746,1.605 v 0 c 4.709,2.913 6.419,8.683 3.818,12.888 v 0 c -1.606,2.597 -4.48,3.99 -7.553,3.99 v 0 c -1.903,0 -3.883,-0.534 -5.684,-1.649"
         transform="matrix(1,0,0,-1,0,2.5000001e-6)"
         id="path2114" />
    </clipPath>
    <clipPath
       clipPathUnits="userSpaceOnUse"
       id="clipPath2115">
      <path
         d="m 840.39,390.067 c -4.708,-2.912 -6.419,-8.682 -3.817,-12.888 v 0 c 1.768,-2.86 5.074,-4.26 8.49,-3.946 v 0 c 1.607,0.147 3.238,0.673 4.746,1.605 v 0 c 4.709,2.913 6.419,8.683 3.818,12.888 v 0 c -1.606,2.597 -4.48,3.99 -7.553,3.99 v 0 c -1.903,0 -3.883,-0.534 -5.684,-1.649"
         transform="matrix(1,0,0,-1,0,2.5000001e-6)"
         id="path2115" />
    </clipPath>
    <clipPath
       clipPathUnits="userSpaceOnUse"
       id="clipPath2116">
      <path
         d="m 840.39,390.067 c -4.708,-2.912 -6.419,-8.682 -3.817,-12.888 v 0 c 1.768,-2.86 5.074,-4.26 8.49,-3.946 v 0 c 1.607,0.147 3.238,0.673 4.746,1.605 v 0 c 4.709,2.913 6.419,8.683 3.818,12.888 v 0 c -1.606,2.597 -4.48,3.99 -7.553,3.99 v 0 c -1.903,0 -3.883,-0.534 -5.684,-1.649"
         transform="matrix(1,0,0,-1,0,2.5000001e-6)"
         id="path2116" />
    </clipPath>
    <clipPath
       clipPathUnits="userSpaceOnUse"
       id="clipPath2117">
      <path
         d="m 840.39,390.067 c -4.708,-2.912 -6.419,-8.682 -3.817,-12.888 v 0 c 1.768,-2.86 5.074,-4.26 8.49,-3.946 v 0 c 1.607,0.147 3.238,0.673 4.746,1.605 v 0 c 4.709,2.913 6.419,8.683 3.818,12.888 v 0 c -1.606,2.597 -4.48,3.99 -7.553,3.99 v 0 c -1.903,0 -3.883,-0.534 -5.684,-1.649"
         transform="matrix(1,0,0,-1,0,2.5000001e-6)"
         id="path2117" />
    </clipPath>
    <clipPath
       clipPathUnits="userSpaceOnUse"
       id="clipPath2118">
      <path
         d="m 840.39,390.067 c -4.708,-2.912 -6.419,-8.682 -3.817,-12.888 v 0 c 1.768,-2.86 5.074,-4.26 8.49,-3.946 v 0 c 1.607,0.147 3.238,0.673 4.746,1.605 v 0 c 4.709,2.913 6.419,8.683 3.818,12.888 v 0 c -1.606,2.597 -4.48,3.99 -7.553,3.99 v 0 c -1.903,0 -3.883,-0.534 -5.684,-1.649"
         transform="matrix(1,0,0,-1,0,2.5000001e-6)"
         id="path2118" />
    </clipPath>
    <clipPath
       clipPathUnits="userSpaceOnUse"
       id="clipPath2119">
      <path
         d="m 840.39,390.067 c -4.708,-2.912 -6.419,-8.682 -3.817,-12.888 v 0 c 1.768,-2.86 5.074,-4.26 8.49,-3.946 v 0 c 1.607,0.147 3.238,0.673 4.746,1.605 v 0 c 4.709,2.913 6.419,8.683 3.818,12.888 v 0 c -1.606,2.597 -4.48,3.99 -7.553,3.99 v 0 c -1.903,0 -3.883,-0.534 -5.684,-1.649"
         transform="matrix(1,0,0,-1,0,2.5000001e-6)"
         id="path2119" />
    </clipPath>
    <clipPath
       clipPathUnits="userSpaceOnUse"
       id="clipPath2120">
      <path
         d="m 840.39,390.067 c -4.708,-2.912 -6.419,-8.682 -3.817,-12.888 v 0 c 1.768,-2.86 5.074,-4.26 8.49,-3.946 v 0 c 1.607,0.147 3.238,0.673 4.746,1.605 v 0 c 4.709,2.913 6.419,8.683 3.818,12.888 v 0 c -1.606,2.597 -4.48,3.99 -7.553,3.99 v 0 c -1.903,0 -3.883,-0.534 -5.684,-1.649"
         transform="matrix(1,0,0,-1,0,2.5000001e-6)"
         id="path2120" />
    </clipPath>
    <clipPath
       clipPathUnits="userSpaceOnUse"
       id="clipPath2121">
      <path
         d="m 840.39,390.067 c -4.708,-2.912 -6.419,-8.682 -3.817,-12.888 v 0 c 1.768,-2.86 5.074,-4.26 8.49,-3.946 v 0 c 1.607,0.147 3.238,0.673 4.746,1.605 v 0 c 4.709,2.913 6.419,8.683 3.818,12.888 v 0 c -1.606,2.597 -4.48,3.99 -7.553,3.99 v 0 c -1.903,0 -3.883,-0.534 -5.684,-1.649"
         transform="matrix(1,0,0,-1,0,2.5000001e-6)"
         id="path2121" />
    </clipPath>
    <clipPath
       clipPathUnits="userSpaceOnUse"
       id="clipPath2122">
      <path
         d="m 840.39,390.067 c -4.708,-2.912 -6.419,-8.682 -3.817,-12.888 v 0 c 1.768,-2.86 5.074,-4.26 8.49,-3.946 v 0 c 1.607,0.147 3.238,0.673 4.746,1.605 v 0 c 4.709,2.913 6.419,8.683 3.818,12.888 v 0 c -1.606,2.597 -4.48,3.99 -7.553,3.99 v 0 c -1.903,0 -3.883,-0.534 -5.684,-1.649"
         transform="matrix(1,0,0,-1,0,2.5000001e-6)"
         id="path2122" />
    </clipPath>
    <clipPath
       clipPathUnits="userSpaceOnUse"
       id="clipPath2123">
      <path
         d="m 840.39,390.067 c -4.708,-2.912 -6.419,-8.682 -3.817,-12.888 v 0 c 1.768,-2.86 5.074,-4.26 8.49,-3.946 v 0 c 1.607,0.147 3.238,0.673 4.746,1.605 v 0 c 4.709,2.913 6.419,8.683 3.818,12.888 v 0 c -1.606,2.597 -4.48,3.99 -7.553,3.99 v 0 c -1.903,0 -3.883,-0.534 -5.684,-1.649"
         transform="matrix(1,0,0,-1,0,2.5000001e-6)"
         id="path2123" />
    </clipPath>
    <clipPath
       clipPathUnits="userSpaceOnUse"
       id="clipPath2124">
      <path
         d="m 840.39,390.067 c -4.708,-2.912 -6.419,-8.682 -3.817,-12.888 v 0 c 1.768,-2.86 5.074,-4.26 8.49,-3.946 v 0 c 1.607,0.147 3.238,0.673 4.746,1.605 v 0 c 4.709,2.913 6.419,8.683 3.818,12.888 v 0 c -1.606,2.597 -4.48,3.99 -7.553,3.99 v 0 c -1.903,0 -3.883,-0.534 -5.684,-1.649"
         transform="matrix(1,0,0,-1,0,2.5000001e-6)"
         id="path2124" />
    </clipPath>
    <clipPath
       clipPathUnits="userSpaceOnUse"
       id="clipPath2125">
      <path
         d="m 840.39,390.067 c -4.708,-2.912 -6.419,-8.682 -3.817,-12.888 v 0 c 1.768,-2.86 5.074,-4.26 8.49,-3.946 v 0 c 1.607,0.147 3.238,0.673 4.746,1.605 v 0 c 4.709,2.913 6.419,8.683 3.818,12.888 v 0 c -1.606,2.597 -4.48,3.99 -7.553,3.99 v 0 c -1.903,0 -3.883,-0.534 -5.684,-1.649"
         transform="matrix(1,0,0,-1,0,2.5000001e-6)"
         id="path2125" />
    </clipPath>
    <clipPath
       clipPathUnits="userSpaceOnUse"
       id="clipPath2126">
      <path
         d="m 840.39,390.067 c -4.708,-2.912 -6.419,-8.682 -3.817,-12.888 v 0 c 1.768,-2.86 5.074,-4.26 8.49,-3.946 v 0 c 1.607,0.147 3.238,0.673 4.746,1.605 v 0 c 4.709,2.913 6.419,8.683 3.818,12.888 v 0 c -1.606,2.597 -4.48,3.99 -7.553,3.99 v 0 c -1.903,0 -3.883,-0.534 -5.684,-1.649"
         transform="matrix(1,0,0,-1,0,2.5000001e-6)"
         id="path2126" />
    </clipPath>
    <clipPath
       clipPathUnits="userSpaceOnUse"
       id="clipPath2127">
      <path
         d="m 840.39,390.067 c -4.708,-2.912 -6.419,-8.682 -3.817,-12.888 v 0 c 1.768,-2.86 5.074,-4.26 8.49,-3.946 v 0 c 1.607,0.147 3.238,0.673 4.746,1.605 v 0 c 4.709,2.913 6.419,8.683 3.818,12.888 v 0 c -1.606,2.597 -4.48,3.99 -7.553,3.99 v 0 c -1.903,0 -3.883,-0.534 -5.684,-1.649"
         transform="matrix(1,0,0,-1,0,2.5000001e-6)"
         id="path2127" />
    </clipPath>
    <clipPath
       clipPathUnits="userSpaceOnUse"
       id="clipPath2128">
      <path
         d="m 840.39,390.067 c -4.708,-2.912 -6.419,-8.682 -3.817,-12.888 v 0 c 1.768,-2.86 5.074,-4.26 8.49,-3.946 v 0 c 1.607,0.147 3.238,0.673 4.746,1.605 v 0 c 4.709,2.913 6.419,8.683 3.818,12.888 v 0 c -1.606,2.597 -4.48,3.99 -7.553,3.99 v 0 c -1.903,0 -3.883,-0.534 -5.684,-1.649"
         transform="matrix(1,0,0,-1,0,2.5000001e-6)"
         id="path2128" />
    </clipPath>
    <clipPath
       clipPathUnits="userSpaceOnUse"
       id="clipPath2129">
      <path
         d="m 840.39,390.067 c -4.708,-2.912 -6.419,-8.682 -3.817,-12.888 v 0 c 1.768,-2.86 5.074,-4.26 8.49,-3.946 v 0 c 1.607,0.147 3.238,0.673 4.746,1.605 v 0 c 4.709,2.913 6.419,8.683 3.818,12.888 v 0 c -1.606,2.597 -4.48,3.99 -7.553,3.99 v 0 c -1.903,0 -3.883,-0.534 -5.684,-1.649"
         transform="matrix(1,0,0,-1,0,2.5000001e-6)"
         id="path2129" />
    </clipPath>
    <clipPath
       clipPathUnits="userSpaceOnUse"
       id="clipPath2130">
      <path
         d="m 840.39,390.067 c -4.708,-2.912 -6.419,-8.682 -3.817,-12.888 v 0 c 1.768,-2.86 5.074,-4.26 8.49,-3.946 v 0 c 1.607,0.147 3.238,0.673 4.746,1.605 v 0 c 4.709,2.913 6.419,8.683 3.818,12.888 v 0 c -1.606,2.597 -4.48,3.99 -7.553,3.99 v 0 c -1.903,0 -3.883,-0.534 -5.684,-1.649"
         transform="matrix(1,0,0,-1,0,2.5000001e-6)"
         id="path2130" />
    </clipPath>
    <clipPath
       clipPathUnits="userSpaceOnUse"
       id="clipPath2131">
      <path
         d="m 840.39,390.067 c -4.708,-2.912 -6.419,-8.682 -3.817,-12.888 v 0 c 1.768,-2.86 5.074,-4.26 8.49,-3.946 v 0 c 1.607,0.147 3.238,0.673 4.746,1.605 v 0 c 4.709,2.913 6.419,8.683 3.818,12.888 v 0 c -1.606,2.597 -4.48,3.99 -7.553,3.99 v 0 c -1.903,0 -3.883,-0.534 -5.684,-1.649"
         transform="matrix(1,0,0,-1,0,2.5000001e-6)"
         id="path2131" />
    </clipPath>
    <clipPath
       clipPathUnits="userSpaceOnUse"
       id="clipPath2132">
      <path
         d="m 840.39,390.067 c -4.708,-2.912 -6.419,-8.682 -3.817,-12.888 v 0 c 1.768,-2.86 5.074,-4.26 8.49,-3.946 v 0 c 1.607,0.147 3.238,0.673 4.746,1.605 v 0 c 4.709,2.913 6.419,8.683 3.818,12.888 v 0 c -1.606,2.597 -4.48,3.99 -7.553,3.99 v 0 c -1.903,0 -3.883,-0.534 -5.684,-1.649"
         transform="matrix(1,0,0,-1,0,2.5000001e-6)"
         id="path2132" />
    </clipPath>
    <clipPath
       clipPathUnits="userSpaceOnUse"
       id="clipPath2133">
      <path
         d="m 840.39,390.067 c -4.708,-2.912 -6.419,-8.682 -3.817,-12.888 v 0 c 1.768,-2.86 5.074,-4.26 8.49,-3.946 v 0 c 1.607,0.147 3.238,0.673 4.746,1.605 v 0 c 4.709,2.913 6.419,8.683 3.818,12.888 v 0 c -1.606,2.597 -4.48,3.99 -7.553,3.99 v 0 c -1.903,0 -3.883,-0.534 -5.684,-1.649"
         transform="matrix(1,0,0,-1,0,2.5000001e-6)"
         id="path2133" />
    </clipPath>
    <clipPath
       clipPathUnits="userSpaceOnUse"
       id="clipPath2134">
      <path
         d="m 840.39,390.067 c -4.708,-2.912 -6.419,-8.682 -3.817,-12.888 v 0 c 1.768,-2.86 5.074,-4.26 8.49,-3.946 v 0 c 1.607,0.147 3.238,0.673 4.746,1.605 v 0 c 4.709,2.913 6.419,8.683 3.818,12.888 v 0 c -1.606,2.597 -4.48,3.99 -7.553,3.99 v 0 c -1.903,0 -3.883,-0.534 -5.684,-1.649"
         transform="matrix(1,0,0,-1,0,2.5000001e-6)"
         id="path2134" />
    </clipPath>
    <clipPath
       clipPathUnits="userSpaceOnUse"
       id="clipPath2135">
      <path
         d="m 840.39,390.067 c -4.708,-2.912 -6.419,-8.682 -3.817,-12.888 v 0 c 1.768,-2.86 5.074,-4.26 8.49,-3.946 v 0 c 1.607,0.147 3.238,0.673 4.746,1.605 v 0 c 4.709,2.913 6.419,8.683 3.818,12.888 v 0 c -1.606,2.597 -4.48,3.99 -7.553,3.99 v 0 c -1.903,0 -3.883,-0.534 -5.684,-1.649"
         transform="matrix(1,0,0,-1,0,2.5000001e-6)"
         id="path2135" />
    </clipPath>
    <clipPath
       clipPathUnits="userSpaceOnUse"
       id="clipPath2136">
      <path
         d="m 840.39,390.067 c -4.708,-2.912 -6.419,-8.682 -3.817,-12.888 v 0 c 1.768,-2.86 5.074,-4.26 8.49,-3.946 v 0 c 1.607,0.147 3.238,0.673 4.746,1.605 v 0 c 4.709,2.913 6.419,8.683 3.818,12.888 v 0 c -1.606,2.597 -4.48,3.99 -7.553,3.99 v 0 c -1.903,0 -3.883,-0.534 -5.684,-1.649"
         transform="matrix(1,0,0,-1,0,2.5000001e-6)"
         id="path2136" />
    </clipPath>
    <clipPath
       clipPathUnits="userSpaceOnUse"
       id="clipPath2137">
      <path
         d="m 840.39,390.067 c -4.708,-2.912 -6.419,-8.682 -3.817,-12.888 v 0 c 1.768,-2.86 5.074,-4.26 8.49,-3.946 v 0 c 1.607,0.147 3.238,0.673 4.746,1.605 v 0 c 4.709,2.913 6.419,8.683 3.818,12.888 v 0 c -1.606,2.597 -4.48,3.99 -7.553,3.99 v 0 c -1.903,0 -3.883,-0.534 -5.684,-1.649"
         transform="matrix(1,0,0,-1,0,2.5000001e-6)"
         id="path2137" />
    </clipPath>
    <clipPath
       clipPathUnits="userSpaceOnUse"
       id="clipPath2138">
      <path
         d="m 840.39,390.067 c -4.708,-2.912 -6.419,-8.682 -3.817,-12.888 v 0 c 1.768,-2.86 5.074,-4.26 8.49,-3.946 v 0 c 1.607,0.147 3.238,0.673 4.746,1.605 v 0 c 4.709,2.913 6.419,8.683 3.818,12.888 v 0 c -1.606,2.597 -4.48,3.99 -7.553,3.99 v 0 c -1.903,0 -3.883,-0.534 -5.684,-1.649"
         transform="matrix(1,0,0,-1,0,2.5000001e-6)"
         id="path2138" />
    </clipPath>
    <clipPath
       clipPathUnits="userSpaceOnUse"
       id="clipPath2139">
      <path
         d="m 840.39,390.067 c -4.708,-2.912 -6.419,-8.682 -3.817,-12.888 v 0 c 1.768,-2.86 5.074,-4.26 8.49,-3.946 v 0 c 1.607,0.147 3.238,0.673 4.746,1.605 v 0 c 4.709,2.913 6.419,8.683 3.818,12.888 v 0 c -1.606,2.597 -4.48,3.99 -7.553,3.99 v 0 c -1.903,0 -3.883,-0.534 -5.684,-1.649"
         transform="matrix(1,0,0,-1,0,2.5000001e-6)"
         id="path2139" />
    </clipPath>
    <clipPath
       clipPathUnits="userSpaceOnUse"
       id="clipPath2140">
      <path
         d="m 840.39,390.067 c -4.708,-2.912 -6.419,-8.682 -3.817,-12.888 v 0 c 1.768,-2.86 5.074,-4.26 8.49,-3.946 v 0 c 1.607,0.147 3.238,0.673 4.746,1.605 v 0 c 4.709,2.913 6.419,8.683 3.818,12.888 v 0 c -1.606,2.597 -4.48,3.99 -7.553,3.99 v 0 c -1.903,0 -3.883,-0.534 -5.684,-1.649"
         transform="matrix(1,0,0,-1,0,2.5000001e-6)"
         id="path2140" />
    </clipPath>
    <clipPath
       clipPathUnits="userSpaceOnUse"
       id="clipPath2141">
      <path
         d="m 840.39,390.067 c -4.708,-2.912 -6.419,-8.682 -3.817,-12.888 v 0 c 1.768,-2.86 5.074,-4.26 8.49,-3.946 v 0 c 1.607,0.147 3.238,0.673 4.746,1.605 v 0 c 4.709,2.913 6.419,8.683 3.818,12.888 v 0 c -1.606,2.597 -4.48,3.99 -7.553,3.99 v 0 c -1.903,0 -3.883,-0.534 -5.684,-1.649"
         transform="matrix(1,0,0,-1,0,2.5000001e-6)"
         id="path2141" />
    </clipPath>
    <clipPath
       clipPathUnits="userSpaceOnUse"
       id="clipPath2142">
      <path
         d="m 840.39,390.067 c -4.708,-2.912 -6.419,-8.682 -3.817,-12.888 v 0 c 1.768,-2.86 5.074,-4.26 8.49,-3.946 v 0 c 1.607,0.147 3.238,0.673 4.746,1.605 v 0 c 4.709,2.913 6.419,8.683 3.818,12.888 v 0 c -1.606,2.597 -4.48,3.99 -7.553,3.99 v 0 c -1.903,0 -3.883,-0.534 -5.684,-1.649"
         transform="matrix(1,0,0,-1,0,2.5000001e-6)"
         id="path2142" />
    </clipPath>
    <clipPath
       clipPathUnits="userSpaceOnUse"
       id="clipPath2143">
      <path
         d="m 840.39,390.067 c -4.708,-2.912 -6.419,-8.682 -3.817,-12.888 v 0 c 1.768,-2.86 5.074,-4.26 8.49,-3.946 v 0 c 1.607,0.147 3.238,0.673 4.746,1.605 v 0 c 4.709,2.913 6.419,8.683 3.818,12.888 v 0 c -1.606,2.597 -4.48,3.99 -7.553,3.99 v 0 c -1.903,0 -3.883,-0.534 -5.684,-1.649"
         transform="matrix(1,0,0,-1,0,2.5000001e-6)"
         id="path2143" />
    </clipPath>
    <clipPath
       clipPathUnits="userSpaceOnUse"
       id="clipPath2144">
      <path
         d="m 840.39,390.067 c -4.708,-2.912 -6.419,-8.682 -3.817,-12.888 v 0 c 1.768,-2.86 5.074,-4.26 8.49,-3.946 v 0 c 1.607,0.147 3.238,0.673 4.746,1.605 v 0 c 4.709,2.913 6.419,8.683 3.818,12.888 v 0 c -1.606,2.597 -4.48,3.99 -7.553,3.99 v 0 c -1.903,0 -3.883,-0.534 -5.684,-1.649"
         transform="matrix(1,0,0,-1,0,2.5000001e-6)"
         id="path2144" />
    </clipPath>
    <clipPath
       clipPathUnits="userSpaceOnUse"
       id="clipPath2145">
      <path
         d="m 840.39,390.067 c -4.708,-2.912 -6.419,-8.682 -3.817,-12.888 v 0 c 1.768,-2.86 5.074,-4.26 8.49,-3.946 v 0 c 1.607,0.147 3.238,0.673 4.746,1.605 v 0 c 4.709,2.913 6.419,8.683 3.818,12.888 v 0 c -1.606,2.597 -4.48,3.99 -7.553,3.99 v 0 c -1.903,0 -3.883,-0.534 -5.684,-1.649"
         transform="matrix(1,0,0,-1,0,2.5000001e-6)"
         id="path2145" />
    </clipPath>
    <clipPath
       clipPathUnits="userSpaceOnUse"
       id="clipPath2146">
      <path
         d="m 840.39,390.067 c -4.708,-2.912 -6.419,-8.682 -3.817,-12.888 v 0 c 1.768,-2.86 5.074,-4.26 8.49,-3.946 v 0 c 1.607,0.147 3.238,0.673 4.746,1.605 v 0 c 4.709,2.913 6.419,8.683 3.818,12.888 v 0 c -1.606,2.597 -4.48,3.99 -7.553,3.99 v 0 c -1.903,0 -3.883,-0.534 -5.684,-1.649"
         transform="matrix(1,0,0,-1,0,2.5000001e-6)"
         id="path2146" />
    </clipPath>
    <clipPath
       clipPathUnits="userSpaceOnUse"
       id="clipPath2147">
      <path
         d="m 840.39,390.067 c -4.708,-2.912 -6.419,-8.682 -3.817,-12.888 v 0 c 1.768,-2.86 5.074,-4.26 8.49,-3.946 v 0 c 1.607,0.147 3.238,0.673 4.746,1.605 v 0 c 4.709,2.913 6.419,8.683 3.818,12.888 v 0 c -1.606,2.597 -4.48,3.99 -7.553,3.99 v 0 c -1.903,0 -3.883,-0.534 -5.684,-1.649"
         transform="matrix(1,0,0,-1,0,2.5000001e-6)"
         id="path2147" />
    </clipPath>
    <clipPath
       clipPathUnits="userSpaceOnUse"
       id="clipPath2148">
      <path
         d="m 840.39,390.067 c -4.708,-2.912 -6.419,-8.682 -3.817,-12.888 v 0 c 1.768,-2.86 5.074,-4.26 8.49,-3.946 v 0 c 1.607,0.147 3.238,0.673 4.746,1.605 v 0 c 4.709,2.913 6.419,8.683 3.818,12.888 v 0 c -1.606,2.597 -4.48,3.99 -7.553,3.99 v 0 c -1.903,0 -3.883,-0.534 -5.684,-1.649"
         transform="matrix(1,0,0,-1,0,2.5000001e-6)"
         id="path2148" />
    </clipPath>
    <clipPath
       clipPathUnits="userSpaceOnUse"
       id="clipPath2149">
      <path
         d="m 840.39,390.067 c -4.708,-2.912 -6.419,-8.682 -3.817,-12.888 v 0 c 1.768,-2.86 5.074,-4.26 8.49,-3.946 v 0 c 1.607,0.147 3.238,0.673 4.746,1.605 v 0 c 4.709,2.913 6.419,8.683 3.818,12.888 v 0 c -1.606,2.597 -4.48,3.99 -7.553,3.99 v 0 c -1.903,0 -3.883,-0.534 -5.684,-1.649"
         transform="matrix(1,0,0,-1,0,2.5000001e-6)"
         id="path2149" />
    </clipPath>
    <clipPath
       clipPathUnits="userSpaceOnUse"
       id="clipPath2150">
      <path
         d="m 840.39,390.067 c -4.708,-2.912 -6.419,-8.682 -3.817,-12.888 v 0 c 1.768,-2.86 5.074,-4.26 8.49,-3.946 v 0 c 1.607,0.147 3.238,0.673 4.746,1.605 v 0 c 4.709,2.913 6.419,8.683 3.818,12.888 v 0 c -1.606,2.597 -4.48,3.99 -7.553,3.99 v 0 c -1.903,0 -3.883,-0.534 -5.684,-1.649"
         transform="matrix(1,0,0,-1,0,2.5000001e-6)"
         id="path2150" />
    </clipPath>
    <clipPath
       clipPathUnits="userSpaceOnUse"
       id="clipPath2151">
      <path
         d="m 828.658,369.554 h 35.523 v 35.524 h -35.523 z"
         transform="translate(-842.4814,-390.91311)"
         id="path2151" />
    </clipPath>
    <clipPath
       clipPathUnits="userSpaceOnUse"
       id="clipPath2205">
      <path
         d="M 0,0 H 1717.42 V 566.47 H 0 Z"
         transform="matrix(1.3333333,0,0,-1.3333333,0,755.29333)"
         id="path2205" />
    </clipPath>
    <clipPath
       clipPathUnits="userSpaceOnUse"
       id="clipPath2207">
      <path
         d="M 0,0 H 1717.42 V 566.47 H 0 Z"
         transform="translate(-841.73245,-392.23631)"
         id="path2207" />
    </clipPath>
    <clipPath
       clipPathUnits="userSpaceOnUse"
       id="clipPath2209">
      <path
         d="M 0,0 H 1717.42 V 566.47 H 0 Z"
         transform="translate(-839.29,-388.81051)"
         id="path2209" />
    </clipPath>
    <clipPath
       clipPathUnits="userSpaceOnUse"
       id="clipPath2211">
      <path
         d="M 0,0 H 1717.42 V 566.47 H 0 Z"
         transform="translate(-836.3062,-389.24951)"
         id="path2211" />
    </clipPath>
    <clipPath
       clipPathUnits="userSpaceOnUse"
       id="clipPath2213">
      <path
         d="M 0,0 H 1717.42 V 566.47 H 0 Z"
         transform="translate(-836.44045,-389.33301)"
         id="path2213" />
    </clipPath>
    <clipPath
       clipPathUnits="userSpaceOnUse"
       id="clipPath2215">
      <path
         d="M 0,0 H 1717.42 V 566.47 H 0 Z"
         transform="translate(-862.9219,-351.27731)"
         id="path2215" />
    </clipPath>
    <clipPath
       clipPathUnits="userSpaceOnUse"
       id="clipPath2219">
      <path
         d="M 0,0 H 1717.42 V 566.47 H 0 Z"
         transform="translate(-865.1338,-347.91061)"
         id="path2219" />
    </clipPath>
    <clipPath
       clipPathUnits="userSpaceOnUse"
       id="clipPath2223">
      <path
         d="M 0,0 H 1717.42 V 566.47 H 0 Z"
         transform="translate(-843.19435,-379.08981)"
         id="path2223" />
    </clipPath>
    <clipPath
       clipPathUnits="userSpaceOnUse"
       id="clipPath2225">
      <path
         d="M 0,0 H 1717.42 V 566.47 H 0 Z"
         transform="translate(-849.56492,-388.99951)"
         id="path2225" />
    </clipPath>
    <clipPath
       clipPathUnits="userSpaceOnUse"
       id="clipPath2227">
      <path
         d="M 0,0 H 1717.42 V 566.47 H 0 Z"
         transform="translate(-850.05475,-382.27491)"
         id="path2227" />
    </clipPath>
    <clipPath
       clipPathUnits="userSpaceOnUse"
       id="clipPath2229">
      <path
         d="M 0,0 H 1717.42 V 566.47 H 0 Z"
         transform="translate(-839.8105,-385.51711)"
         id="path2229" />
    </clipPath>
    <clipPath
       clipPathUnits="userSpaceOnUse"
       id="clipPath2231">
      <path
         d="M 0,0 H 1717.42 V 566.47 H 0 Z"
         transform="translate(-838.16942,-379.86131)"
         id="path2231" />
    </clipPath>
    <clipPath
       clipPathUnits="userSpaceOnUse"
       id="clipPath2233">
      <path
         d="M 0,0 H 1717.42 V 566.47 H 0 Z"
         transform="translate(-846.0439,-385.59231)"
         id="path2233" />
    </clipPath>
    <clipPath
       clipPathUnits="userSpaceOnUse"
       id="clipPath2234">
      <path
         d="m 835.881,377.737 h 17.962 v 10.385 h -17.962 z"
         transform="translate(-850.36675,-387.52541)"
         id="path2234" />
    </clipPath>
    <clipPath
       clipPathUnits="userSpaceOnUse"
       id="clipPath2236">
      <path
         d="M 0,0 H 1717.42 V 566.47 H 0 Z"
         transform="matrix(1.3333333,0,0,-1.3333333,0,755.29333)"
         id="path2236" />
    </clipPath>
    <clipPath
       clipPathUnits="userSpaceOnUse"
       id="clipPath2237">
      <path
         d="m 843.809,388.7 h 5.594 v 2.479 h -5.594 z"
         transform="translate(-846.53912,-388.70951)"
         id="path2237" />
    </clipPath>
    <clipPath
       clipPathUnits="userSpaceOnUse"
       id="clipPath2239">
      <path
         d="M 0,0 H 1717.42 V 566.47 H 0 Z"
         transform="matrix(1.3333333,0,0,-1.3333333,0,755.29333)"
         id="path2239" />
    </clipPath>
  </defs>
  <sodipodi:namedview
     id="namedview1"
     pagecolor="#ffffff"
     bordercolor="#000000"
     borderopacity="0.25"
     inkscape:showpageshadow="2"
     inkscape:pageopacity="0.0"
     inkscape:pagecheckerboard="0"
     inkscape:deskcolor="#d1d1d1">
    <inkscape:page
       x="0"
       y="0"
       width="59.804688"
       height="76.415573"
       id="page2"
       margin="0"
       bleed="0" />
  </sodipodi:namedview>
  <g
     id="layer-MC0"
     inkscape:groupmode="layer"
     inkscape:label="Layer 1"
     transform="translate(-1098.0399,-219.03914)">
    <path
       id="path2073"
       d="m 0,0 c -0.452,-0.266 -1.21,1.019 -1.662,0.752 -0.452,-0.267 0.307,-1.551 -0.146,-1.818 -1.895,-1.118 -4.526,-0.741 -5.829,-1.804 -1.471,-1.2 -1.116,-3.184 -0.836,-5.654 0.113,-1.146 -1.39,-1.283 -1.296,-2.431 0.096,-1.147 1.567,-1.016 1.677,-2.162 0.188,-1.654 -0.334,-3.503 0.713,-4.607 0.997,-1.051 3.244,-0.848 4.509,-1.805 0.276,-0.209 -0.625,-1.399 -0.349,-1.607 0.276,-0.209 1.176,0.981 1.452,0.772 1.8,-1.363 3.39,-3.496 5.554,-3.698 2.166,-0.203 4.12,1.598 6.138,2.612 2.632,1.322 6.521,2.133 8.475,4.752 1.808,2.422 1.436,5.695 0.477,9.376 -1.018,3.903 -2.444,7.041 -5.162,8.363 C 9.611,3.037 4.678,1.438 3.629,1.363 2.918,1.313 1.901,2.562 1.239,2.296 0.583,2.033 0.608,0.359 0,0 Z"
       style="display:inline;fill:none;stroke:#ffffff;stroke-width:0.746;stroke-linecap:butt;stroke-linejoin:miter;stroke-miterlimit:10;stroke-dasharray:none;stroke-opacity:1"
       transform="matrix(1.3333333,0,0,-1.3333333,1119.1061,230.598)"
       clip-path="url(#clipPath2074)" />
    <path
       id="path2075"
       d="m 0,0 c 0.361,0.645 2.193,-0.382 2.554,0.262 0.361,0.644 -1.471,1.671 -1.11,2.315 1.514,2.699 4.981,4.103 5.813,6.316 0.942,2.503 -0.893,4.667 -2.985,7.475 -0.947,1.314 0.785,2.545 -0.143,3.874 -0.928,1.328 -2.625,0.127 -3.57,1.444 -1.399,1.879 -2.073,4.498 -4.127,5.1 -1.958,0.572 -4.548,-1.265 -6.765,-0.996 -0.483,0.059 -0.23,2.144 -0.712,2.202 -0.484,0.059 -0.737,-2.026 -1.22,-1.967 -3.155,0.384 -6.6,1.854 -9.376,0.568 -2.776,-1.286 -3.879,-4.861 -5.617,-7.524 -2.266,-3.469 -6.423,-7.211 -6.947,-11.779 -0.484,-4.226 2.284,-7.945 6.057,-11.744 4.001,-4.027 7.957,-6.836 12.2,-6.52 6.405,0.476 11.275,5.914 12.498,6.747 0.829,0.565 2.95,-0.235 3.567,0.557 C 0.729,-2.886 -0.486,-0.867 0,0 Z"
       style="display:inline;fill:none;stroke:#ffffff;stroke-width:1.05;stroke-linecap:butt;stroke-linejoin:miter;stroke-miterlimit:10;stroke-dasharray:none;stroke-opacity:1"
       transform="matrix(1.3333333,0,0,-1.3333333,1144.4205,257.0628)"
       clip-path="url(#clipPath2076)" />
    <path
       id="path2077"
       d="M 0,0 C -1.553,1.61 -2.926,3.189 -4.138,4.713 -2.746,8.02 -2,11.648 -1.739,15.289 -0.566,13.467 0.65,11.327 1.824,8.848 1.664,5.808 1.074,2.793 0,0"
       style="display:inline;fill:#72b52b;fill-opacity:1;fill-rule:nonzero;stroke:none"
       transform="matrix(1.3333333,0,0,-1.3333333,1147.664,285.71973)"
       clip-path="url(#clipPath2078)" />
    <path
       id="path2079"
       d="m 0,0 c -0.147,0.149 -0.292,0.298 -0.435,0.447 -0.048,0.016 -0.074,0.029 -0.074,0.029 -0.904,0.847 -1.755,1.689 -2.558,2.523 1.074,2.793 1.664,5.808 1.823,8.848 0.857,-1.809 1.691,-3.8 2.47,-5.979 C 1.049,3.86 0.647,1.883 0,0"
       style="display:inline;fill:#54a1d8;fill-opacity:1;fill-rule:nonzero;stroke:none"
       transform="matrix(1.3333333,0,0,-1.3333333,1151.7539,289.7184)"
       clip-path="url(#clipPath2080)" />
    <path
       id="path2081"
       d="m 0,0 c 0.409,-1.145 0.804,-2.34 1.178,-3.591 0,0 0,-0.029 -0.009,-0.079 0.264,-0.734 0.517,-1.502 0.757,-2.305 0,0 0,-0.011 -0.002,-0.031 0.73,-1.679 1.514,-3.783 1.214,-3.97 L 3.119,-9.986 C 3.114,-9.99 3.108,-9.993 3.103,-9.997 c -0.301,-0.186 -1.834,1.455 -3.009,2.859 -0.02,0.007 -0.031,0.013 -0.031,0.013 -0.449,0.421 -0.877,0.84 -1.289,1.257 C -0.578,-3.985 -0.177,-2.008 0,0"
       style="display:inline;fill:#4c4796;fill-opacity:1;fill-rule:nonzero;stroke:none"
       transform="matrix(1.3333333,0,0,-1.3333333,1153.388,281.89493)"
       clip-path="url(#clipPath2082)" />
    <path
       id="path2083"
       d="m 0,0 c -1.292,1.626 -2.403,3.19 -3.354,4.663 1.437,3.296 2.432,6.609 2.838,9.975 C 0.385,13.516 1.376,12.167 2.399,10.576 2.139,6.935 1.393,3.307 0,0"
       style="display:inline;fill:#ffd901;fill-opacity:1;fill-rule:nonzero;stroke:none"
       transform="matrix(1.3333333,0,0,-1.3333333,1142.1465,279.4352)"
       clip-path="url(#clipPath2084)" />
    <path
       id="path2085"
       d="m 0,0 c -1.347,2.085 -2.376,3.99 -3.158,5.633 1.145,2.89 1.744,5.808 1.796,8.737 0.152,-0.119 1.877,-1.501 4.2,-4.395 C 2.433,6.609 1.437,3.295 0,0"
       style="display:inline;fill:#f18b1b;fill-opacity:1;fill-rule:nonzero;stroke:none"
       transform="matrix(1.3333333,0,0,-1.3333333,1137.6856,273.21)"
       clip-path="url(#clipPath2086)" />
    <path
       id="path2087"
       d="m 0,0 c -1.814,3.817 -2.289,6.226 -2.289,6.226 l 2.037,1.26 2.037,1.26 c 0,0 0.004,-0.004 0.011,-0.009 C 1.744,5.808 1.145,2.89 0,0"
       style="display:inline;fill:#e42320;fill-opacity:1;fill-rule:nonzero;stroke:none"
       transform="matrix(1.3333333,0,0,-1.3333333,1133.4636,265.70613)"
       clip-path="url(#clipPath2088)" />
    <path
       id="path2089"
       d="m 0,0 c 0.022,-0.01 0.047,-0.026 0.062,-0.044 1.511,-1.806 2.572,-2.79 2.821,-2.817 0.004,0.002 0.006,0.004 0.008,0.005 -0.005,-0.002 0.005,0.004 0.017,0.011 C 2.985,-2.664 2.581,-1.266 1.626,0.923 1.615,0.948 1.611,0.976 1.614,1.003 1.391,1.747 1.137,2.52 0.87,3.269 0.86,3.294 0.857,3.32 0.862,3.347 0.864,3.361 0.865,3.373 0.866,3.381 0.509,4.578 0.116,5.775 -0.3,6.939 c -0.738,2.064 -1.567,4.071 -2.464,5.965 -1.075,2.269 -2.27,4.43 -3.553,6.423 -0.921,1.432 -1.896,2.791 -2.898,4.041 -0.013,0.015 -0.021,0.031 -0.027,0.05 -1.87,2.323 -3.329,3.646 -3.901,4.131 -0.006,-0.082 -0.078,-0.143 -0.158,-0.145 -0.086,0.001 -0.156,0.07 -0.157,0.156 v 0.043 l -3.749,-2.319 c 0.114,-0.502 0.675,-2.751 2.231,-6.035 0.017,-0.015 0.03,-0.033 0.038,-0.054 0,-0.001 0,-0.003 0.001,-0.004 0.883,-1.856 1.938,-3.736 3.136,-5.593 0.011,-0.017 0.018,-0.035 0.022,-0.054 1.004,-1.551 2.12,-3.102 3.32,-4.609 1.264,-1.591 2.653,-3.173 4.127,-4.702 0.812,-0.844 1.665,-1.684 2.534,-2.5 C -1.79,1.73 -1.778,1.727 -1.764,1.721 -1.739,1.713 -1.717,1.7 -1.7,1.681 -1.557,1.532 -1.413,1.384 -1.266,1.236 -0.854,0.817 -0.428,0.402 0,0 m 2.982,-3.165 c -0.182,-0.067 -0.743,0.032 -3.138,2.89 -0.003,0.001 -0.006,0.003 -0.008,0.004 -0.011,0.006 -0.023,0.013 -0.032,0.022 C -0.634,0.163 -1.069,0.586 -1.49,1.014 -1.629,1.155 -1.766,1.295 -1.901,1.436 -1.939,1.45 -1.958,1.46 -1.958,1.46 -1.971,1.466 -1.984,1.476 -1.995,1.485 -2.874,2.31 -3.736,3.161 -4.559,4.014 -6.04,5.55 -7.436,7.14 -8.707,8.739 c -1.215,1.529 -2.348,3.102 -3.363,4.675 -0.011,0.017 -0.018,0.035 -0.023,0.054 -1.188,1.845 -2.236,3.714 -3.115,5.557 -0.012,0.012 -0.022,0.025 -0.03,0.041 -1.802,3.79 -2.296,6.239 -2.301,6.263 -0.012,0.065 0.016,0.13 0.072,0.164 l 4.073,2.52 c 0.033,0.026 0.079,0.03 0.119,0.02 0.029,-0.003 0.057,-0.014 0.082,-0.033 0.187,-0.147 1.901,-1.525 4.225,-4.421 0.012,-0.015 0.022,-0.032 0.028,-0.05 0.999,-1.249 1.97,-2.605 2.889,-4.032 1.29,-2.003 2.49,-4.177 3.572,-6.458 0.902,-1.904 1.734,-3.921 2.476,-5.993 0.42,-1.178 0.816,-2.389 1.179,-3.6 0.004,-0.012 0.006,-0.027 0.006,-0.04 0,0 0.001,-0.024 -0.003,-0.066 C 1.444,2.597 1.694,1.831 1.925,1.062 1.929,1.048 1.93,1.035 1.931,1.02 V 1.014 C 3.031,-1.514 3.413,-2.903 3.066,-3.117 3.068,-3.118 3.034,-3.139 3.034,-3.139 3.021,-3.147 3.004,-3.157 2.982,-3.165"
       style="display:inline;fill:#000000;fill-opacity:1;fill-rule:nonzero;stroke:none"
       transform="matrix(1.3333333,0,0,-1.3333333,1153.5912,291.21787)"
       clip-path="url(#clipPath2090)" />
    <path
       id="path2091"
       d="M 0,0 C 0,0 0.67,-0.248 0.574,-0.927 0.478,-1.606 -0.203,-2.295 -1.651,-3.19 -3.099,-4.086 -4.144,-4.362 -4.67,-4.17 c -0.526,0.192 -0.574,0.927 -0.574,0.927 z"
       style="display:inline;fill:#cdcdcc;fill-opacity:1;fill-rule:nonzero;stroke:none"
       transform="matrix(1.3333333,0,0,-1.3333333,1136.0449,252.4912)"
       clip-path="url(#clipPath2092)" />
    <path
       id="path2093"
       d="M 0,0 C 0.031,-0.181 0.134,-0.579 0.458,-0.698 0.979,-0.887 2.053,-0.525 3.34,0.268 4.74,1.134 5.404,1.797 5.492,2.419 5.553,2.851 5.231,3.07 5.086,3.146 Z M 1.864,-0.831 C 1.225,-1.066 0.708,-1.125 0.35,-0.994 -0.266,-0.769 -0.324,0.037 -0.327,0.071 L -0.333,0.166 -0.252,0.215 5.057,3.498 5.129,3.472 C 5.402,3.372 5.895,3.011 5.804,2.375 5.7,1.642 5.013,0.932 3.505,0 2.9,-0.375 2.348,-0.653 1.864,-0.831"
       style="display:inline;fill:#000000;fill-opacity:1;fill-rule:nonzero;stroke:none"
       transform="matrix(1.3333333,0,0,-1.3333333,1129.2793,256.9236)"
       clip-path="url(#clipPath2094)" />
    <path
       id="path2095"
       d="M 0,0 C 0.18,-0.292 1.508,0.203 2.965,1.104 4.422,2.006 5.458,2.973 5.277,3.264 5.097,3.556 3.77,3.062 2.312,2.16 0.855,1.259 -0.181,0.292 0,0"
       style="display:inline;fill:#9d9d9d;fill-opacity:1;fill-rule:nonzero;stroke:none"
       transform="matrix(1.3333333,0,0,-1.3333333,1129.0241,256.83373)"
       clip-path="url(#clipPath2096)" />
    <path
       id="path2097"
       d="M 0,0 C 0.176,-0.092 1.213,0.208 2.746,1.154 4.301,2.117 5.032,2.923 5.003,3.105 4.861,3.197 3.813,2.904 2.259,1.941 0.728,0.995 -0.004,0.199 0,0 M 0.888,-0.138 C 0.353,-0.335 -0.119,-0.414 -0.271,-0.167 -0.41,0.057 -0.229,0.39 0.297,0.881 0.742,1.296 1.379,1.768 2.093,2.209 3.197,2.894 4.542,3.528 5.062,3.405 5.183,3.377 5.244,3.312 5.274,3.263 5.414,3.039 5.232,2.705 4.706,2.214 4.262,1.799 3.625,1.328 2.911,0.887 2.841,0.842 1.776,0.188 0.888,-0.138"
       style="display:inline;fill:#000000;fill-opacity:1;fill-rule:nonzero;stroke:none"
       transform="matrix(1.3333333,0,0,-1.3333333,1129.2064,256.72107)"
       clip-path="url(#clipPath2098)" />
    <g
       opacity="0.800003"
       id="g2204"
       clip-path="url(#clipPath2205)"
       style="display:inline">
      <path
         d="m 846.41967,-387.31618 c 0,0 0,0 0,0 -1.48487,-0.14307 -2.70997,-0.26123 -3.76075,-0.36231 -0.0908,0.93848 2.45948,4.03273 3.39845,4.12306 0.10107,-1.05127 0.21923,-2.27589 0.3623,-3.76075 z"
         style="fill:#b8dedb;fill-opacity:1;fill-rule:nonzero;stroke:none"
         transform="matrix(1.3333333,0,0,1.3333333,0,755.29333)"
         clip-path="url(#clipPath2099)"
         id="path2152" />
      <path
         d="m 846.05737,-383.55543 c -0.93897,-0.0903 -3.48927,-3.18458 -3.39845,-4.12306 -1.05127,-0.10156 -1.9292,-0.18603 -2.71973,-0.26221 -0.28955,3.00392 2.85205,6.81545 5.85597,7.105 0.0762,-0.79102 0.16064,-1.66846 0.26221,-2.71973 z"
         style="fill:#85c4db;fill-opacity:1;fill-rule:nonzero;stroke:none"
         transform="matrix(1.3333333,0,0,1.3333333,0,755.29333)"
         clip-path="url(#clipPath2100)"
         id="path2153" />
      <path
         d="m 845.79516,-380.8357 c -3.00392,-0.28955 -6.14552,-4.10108 -5.85597,-7.105 -0.79102,-0.0762 -1.49512,-0.14404 -2.19923,-0.21191 -0.48828,5.06935 2.77394,9.02736 7.84328,9.51565 0.0679,-0.70411 0.13575,-1.40821 0.21192,-2.19874 z"
         style="fill:#60b2db;fill-opacity:1;fill-rule:nonzero;stroke:none"
         transform="matrix(1.3333333,0,0,1.3333333,0,755.29333)"
         clip-path="url(#clipPath2101)"
         id="path2154" />
      <path
         d="m 845.58324,-378.63696 c -5.06934,-0.48829 -8.33156,-4.4463 -7.84328,-9.51565 -0.7041,-0.0679 -1.4082,-0.13574 -2.19922,-0.21191 -0.57861,6.00831 3.82276,11.34817 9.83108,11.92678 0.0762,-0.79102 0.14404,-1.49512 0.21142,-2.19922 z"
         style="fill:#4aa7db;fill-opacity:1;fill-rule:nonzero;stroke:none"
         transform="matrix(1.3333333,0,0,1.3333333,0,755.29333)"
         clip-path="url(#clipPath2102)"
         id="path2155" />
      <path
         d="m 846.41967,-387.31618 c 0,0 0,0 0,0 0.14307,-1.48536 0.26123,-2.70997 0.36231,-3.76124 -0.93897,-0.0903 -4.03273,2.45997 -4.12306,3.39893 1.05078,0.10108 2.27588,0.21924 3.76075,0.36231 z"
         style="fill:#b8dedb;fill-opacity:1;fill-rule:nonzero;stroke:none"
         transform="matrix(1.3333333,0,0,1.3333333,0,755.29333)"
         clip-path="url(#clipPath2103)"
         id="path2156" />
      <path
         d="m 842.65892,-387.67849 c 0.0903,-0.93896 3.18409,-3.48926 4.12306,-3.39893 0.10107,-1.05078 0.18554,-1.92872 0.26172,-2.71973 -3.00392,-0.28907 -6.81545,2.85254 -7.10451,5.85645 0.79053,0.0762 1.66846,0.16065 2.71973,0.26221 z"
         style="fill:#85c4db;fill-opacity:1;fill-rule:nonzero;stroke:none"
         transform="matrix(1.3333333,0,0,1.3333333,0,755.29333)"
         clip-path="url(#clipPath2104)"
         id="path2157" />
      <path
         d="m 839.93919,-387.9407 c 0.28906,-3.00391 4.10059,-6.14552 7.10451,-5.85645 0.0767,-0.79053 0.14404,-1.49464 0.21191,-2.19874 -5.06935,-0.48828 -9.02736,2.77393 -9.51565,7.84328 0.70411,0.0679 1.40821,0.13574 2.19923,0.21191 z"
         style="fill:#60b2db;fill-opacity:1;fill-rule:nonzero;stroke:none"
         transform="matrix(1.3333333,0,0,1.3333333,0,755.29333)"
         clip-path="url(#clipPath2105)"
         id="path2158" />
      <path
         d="m 837.73996,-388.15261 c 0.48829,-5.06935 4.4463,-8.33156 9.51565,-7.84328 0.0679,-0.7041 0.13574,-1.40821 0.21191,-2.19922 -6.00782,-0.57862 -11.34768,3.82276 -11.92678,9.83059 0.79102,0.0762 1.49512,0.14404 2.19922,0.21191 z"
         style="fill:#4aa7db;fill-opacity:1;fill-rule:nonzero;stroke:none"
         transform="matrix(1.3333333,0,0,1.3333333,0,755.29333)"
         clip-path="url(#clipPath2106)"
         id="path2159" />
      <path
         d="m 846.41967,-387.31618 c 0,0 0,0 0,0 1.48487,0.14306 2.70948,0.26074 3.76075,0.3623 0.0903,-0.93896 -2.45948,-4.03272 -3.39844,-4.12354 -0.10108,1.05127 -0.21924,2.27588 -0.36231,3.76124 z"
         style="fill:#b8dedb;fill-opacity:1;fill-rule:nonzero;stroke:none"
         transform="matrix(1.3333333,0,0,1.3333333,0,755.29333)"
         clip-path="url(#clipPath2107)"
         id="path2160" />
      <path
         d="m 846.78198,-391.07742 c 0.93896,0.0908 3.48877,3.18458 3.39844,4.12354 1.05127,0.10108 1.92872,0.18555 2.71973,0.26172 0.28956,-3.00391 -2.85205,-6.81544 -5.85645,-7.10499 -0.0762,0.79101 -0.16065,1.66895 -0.26172,2.71973 z"
         style="fill:#85c4db;fill-opacity:1;fill-rule:nonzero;stroke:none"
         transform="matrix(1.3333333,0,0,1.3333333,0,755.29333)"
         clip-path="url(#clipPath2108)"
         id="path2161" />
      <path
         d="m 847.0437,-393.79715 c 3.0044,0.28955 6.14601,4.10108 5.85645,7.10499 0.79102,0.0762 1.49512,0.14405 2.19923,0.21192 0.48828,-5.06935 -2.77442,-9.02737 -7.84377,-9.51565 -0.0679,0.7041 -0.13525,1.40821 -0.21191,2.19874 z"
         style="fill:#60b2db;fill-opacity:1;fill-rule:nonzero;stroke:none"
         transform="matrix(1.3333333,0,0,1.3333333,0,755.29333)"
         clip-path="url(#clipPath2109)"
         id="path2162" />
      <path
         d="m 847.25561,-395.99589 c 5.06935,0.48828 8.33205,4.4463 7.84377,9.51565 0.7041,0.0679 1.4082,0.13574 2.19873,0.21191 0.57911,-6.00831 -3.82227,-11.34817 -9.83059,-11.92678 -0.0762,0.79101 -0.14404,1.49512 -0.21191,2.19922 z"
         style="fill:#4aa7db;fill-opacity:1;fill-rule:nonzero;stroke:none"
         transform="matrix(1.3333333,0,0,1.3333333,0,755.29333)"
         clip-path="url(#clipPath2110)"
         id="path2163" />
      <path
         d="m 846.41967,-387.31618 c 0,0 0,0 0,0 -0.14307,1.48486 -0.26123,2.70948 -0.3623,3.76075 0.93847,0.0903 4.03272,-2.45997 4.12305,-3.39845 -1.05127,-0.10156 -2.27588,-0.21924 -3.76075,-0.3623 z"
         style="fill:#b8dedb;fill-opacity:1;fill-rule:nonzero;stroke:none"
         transform="matrix(1.3333333,0,0,1.3333333,0,755.29333)"
         clip-path="url(#clipPath2111)"
         id="path2164" />
      <path
         d="m 850.18042,-386.95388 c -0.0903,0.93848 -3.18458,3.48878 -4.12305,3.39845 -0.10157,1.05127 -0.18604,1.92871 -0.26221,2.71973 3.0044,0.28906 6.81544,-2.85254 7.10499,-5.85646 -0.79101,-0.0762 -1.66846,-0.16064 -2.71973,-0.26172 z"
         style="fill:#85c4db;fill-opacity:1;fill-rule:nonzero;stroke:none"
         transform="matrix(1.3333333,0,0,1.3333333,0,755.29333)"
         clip-path="url(#clipPath2112)"
         id="path2165" />
      <path
         d="m 852.90015,-386.69216 c -0.28955,3.00392 -4.10059,6.14552 -7.10499,5.85646 -0.0762,0.79053 -0.14405,1.49463 -0.21192,2.19874 5.06984,0.48877 9.02786,-2.77394 9.51614,-7.84328 -0.70411,-0.0679 -1.40821,-0.13575 -2.19923,-0.21192 z"
         style="fill:#60b2db;fill-opacity:1;fill-rule:nonzero;stroke:none"
         transform="matrix(1.3333333,0,0,1.3333333,0,755.29333)"
         clip-path="url(#clipPath2113)"
         id="path2166" />
      <path
         d="m 855.09938,-386.48024 c -0.48828,5.06934 -4.4463,8.33205 -9.51614,7.84328 -0.0674,0.7041 -0.13525,1.4082 -0.21142,2.19922 6.00782,0.5791 11.34768,-3.82227 11.92629,-9.83059 -0.79053,-0.0762 -1.49463,-0.14404 -2.19873,-0.21191 z"
         style="fill:#4aa7db;fill-opacity:1;fill-rule:nonzero;stroke:none"
         transform="matrix(1.3333333,0,0,1.3333333,0,755.29333)"
         clip-path="url(#clipPath2114)"
         id="path2167" />
      <path
         d="m 845.37182,-376.43774 c -6.00832,-0.57861 -10.40969,-5.91847 -9.83108,-11.92678 -0.14307,-0.0137 -0.28662,-0.0273 -0.42969,-0.0415 -0.58691,6.08986 4.12941,11.81155 10.21926,12.39847 0.0137,-0.14356 0.0273,-0.28663 0.0415,-0.43018 z"
         style="fill:#43a3db;fill-opacity:1;fill-rule:nonzero;stroke:none"
         transform="matrix(1.3333333,0,0,1.3333333,0,755.29333)"
         clip-path="url(#clipPath2115)"
         id="path2168" />
      <path
         d="m 845.33031,-376.00756 c -6.08985,-0.58692 -10.80617,-6.30861 -10.21926,-12.39847 -0.14355,-0.0137 -0.28662,-0.0273 -0.43018,-0.041 -0.60742,6.3047 4.30275,12.26174 10.60794,12.86917 0.0137,-0.14307 0.0273,-0.28663 0.0415,-0.42969 z"
         style="fill:#4ba7dd;fill-opacity:1;fill-rule:nonzero;stroke:none"
         transform="matrix(1.3333333,0,0,1.3333333,0,755.29333)"
         clip-path="url(#clipPath2116)"
         id="path2169" />
      <path
         d="m 845.28881,-375.57787 c -6.30519,-0.60743 -11.21536,-6.56447 -10.60794,-12.86917 -0.14306,-0.0142 -0.28662,-0.0278 -0.42968,-0.0415 -0.63672,6.6089 4.38672,12.70413 10.99611,13.34085 0.0137,-0.14355 0.0278,-0.28662 0.0415,-0.43017 z"
         style="fill:#60b1e1;fill-opacity:1;fill-rule:nonzero;stroke:none"
         transform="matrix(1.3333333,0,0,1.3333333,0,755.29333)"
         clip-path="url(#clipPath2117)"
         id="path2170" />
      <path
         d="m 845.2473,-375.1477 c -6.60939,-0.63672 -11.63283,-6.73195 -10.99611,-13.34085 -0.14356,-0.0142 -0.28663,-0.0278 -0.43018,-0.0415 -0.67041,6.95802 4.42677,13.14163 11.38479,13.81204 0.0142,-0.14307 0.0278,-0.28662 0.0415,-0.42969 z"
         style="fill:#7ec0e6;fill-opacity:1;fill-rule:nonzero;stroke:none"
         transform="matrix(1.3333333,0,0,1.3333333,0,755.29333)"
         clip-path="url(#clipPath2118)"
         id="path2171" />
      <path
         d="m 845.2058,-374.71801 c -6.95802,-0.67041 -12.0552,-6.85402 -11.38479,-13.81204 -0.14307,-0.0137 -0.28662,-0.0278 -0.42969,-0.0415 -0.7041,7.30666 4.46632,13.57962 11.77298,14.28373 0.0142,-0.14356 0.0278,-0.28662 0.0415,-0.43018 z"
         style="fill:#a1d1ed;fill-opacity:1;fill-rule:nonzero;stroke:none"
         transform="matrix(1.3333333,0,0,1.3333333,0,755.29333)"
         clip-path="url(#clipPath2119)"
         id="path2172" />
      <path
         d="m 845.1643,-374.28783 c -7.30666,-0.70411 -12.47708,-6.97707 -11.77298,-14.28373 -0.14355,-0.0137 -0.28662,-0.0273 -0.43018,-0.0415 -0.7334,7.61086 4.5508,14.022 12.16214,14.75492 0.0137,-0.14307 0.0273,-0.28663 0.041,-0.42969 z"
         style="fill:#c4e2f4;fill-opacity:1;fill-rule:nonzero;stroke:none"
         transform="matrix(1.3333333,0,0,1.3333333,0,755.29333)"
         clip-path="url(#clipPath2120)"
         id="path2173" />
      <path
         d="m 845.12328,-373.85814 c -7.61134,-0.73292 -12.89554,-7.14406 -12.16214,-14.75492 -0.14306,-0.0137 -0.28662,-0.0273 -0.42968,-0.0415 -0.7544,7.82619 4.72413,14.47268 12.55032,15.22659 0.0137,-0.14355 0.0273,-0.28662 0.0415,-0.43017 z"
         style="fill:#e2f1f9;fill-opacity:1;fill-rule:nonzero;stroke:none"
         transform="matrix(1.3333333,0,0,1.3333333,0,755.29333)"
         clip-path="url(#clipPath2121)"
         id="path2174" />
      <path
         d="m 845.08178,-373.42797 c -7.82619,-0.75391 -13.30472,-7.4004 -12.55032,-15.22659 -0.14356,-0.0137 -0.28663,-0.0274 -0.43018,-0.041 -0.76172,7.90773 5.03126,14.93558 12.93899,15.6973 0.0137,-0.14307 0.0274,-0.28662 0.0415,-0.42969 z"
         style="fill:#f7fbfd;fill-opacity:1;fill-rule:nonzero;stroke:none"
         transform="matrix(1.3333333,0,0,1.3333333,0,755.29333)"
         clip-path="url(#clipPath2122)"
         id="path2175" />
      <path
         d="m 835.54074,-388.36452 c 0.5791,-6.00783 5.91896,-10.40921 11.92678,-9.83059 0.0142,-0.14356 0.0278,-0.28662 0.0415,-0.43018 -6.08986,-0.58643 -11.81155,4.12989 -12.39798,10.21926 0.14307,0.0142 0.28662,0.0278 0.42969,0.0415 z"
         style="fill:#43a3db;fill-opacity:1;fill-rule:nonzero;stroke:none"
         transform="matrix(1.3333333,0,0,1.3333333,0,755.29333)"
         clip-path="url(#clipPath2123)"
         id="path2176" />
      <path
         d="m 835.11105,-388.40603 c 0.58643,-6.08937 6.30812,-10.80569 12.39798,-10.21926 0.0137,-0.14307 0.0278,-0.28662 0.0415,-0.42969 -6.30519,-0.60742 -12.26223,4.30275 -12.86966,10.60794 0.14356,0.0137 0.28663,0.0273 0.43018,0.041 z"
         style="fill:#4ba7dd;fill-opacity:1;fill-rule:nonzero;stroke:none"
         transform="matrix(1.3333333,0,0,1.3333333,0,755.29333)"
         clip-path="url(#clipPath2124)"
         id="path2177" />
      <path
         d="m 834.68087,-388.44704 c 0.60743,-6.30519 6.56447,-11.21536 12.86966,-10.60794 0.0137,-0.14355 0.0274,-0.28662 0.0415,-0.43018 -6.60939,-0.63672 -12.70413,4.38722 -13.34085,10.99661 0.14306,0.0137 0.28662,0.0273 0.42968,0.0415 z"
         style="fill:#60b1e1;fill-opacity:1;fill-rule:nonzero;stroke:none"
         transform="matrix(1.3333333,0,0,1.3333333,0,755.29333)"
         clip-path="url(#clipPath2125)"
         id="path2178" />
      <path
         d="m 834.25119,-388.48855 c 0.63672,-6.60939 6.73146,-11.63333 13.34085,-10.99661 0.0137,-0.14306 0.0273,-0.28662 0.0415,-0.42968 -6.95802,-0.67042 -13.14212,4.42676 -13.81253,11.38479 0.14355,0.0137 0.28662,0.0273 0.43018,0.0415 z"
         style="fill:#7ec0e6;fill-opacity:1;fill-rule:nonzero;stroke:none"
         transform="matrix(1.3333333,0,0,1.3333333,0,755.29333)"
         clip-path="url(#clipPath2126)"
         id="path2179" />
      <path
         d="m 833.82101,-388.53005 c 0.67041,-6.95803 6.85451,-12.05521 13.81253,-11.38479 0.0137,-0.14356 0.0273,-0.28663 0.041,-0.43018 -7.30666,-0.70362 -13.57962,4.46681 -14.28324,11.77346 0.14307,0.0137 0.28662,0.0278 0.42969,0.0415 z"
         style="fill:#a1d1ed;fill-opacity:1;fill-rule:nonzero;stroke:none"
         transform="matrix(1.3333333,0,0,1.3333333,0,755.29333)"
         clip-path="url(#clipPath2127)"
         id="path2180" />
      <path
         d="m 833.39132,-388.57156 c 0.70362,-7.30665 6.97658,-12.47708 14.28324,-11.77346 0.0142,-0.14307 0.0278,-0.28662 0.0415,-0.42969 -7.61086,-0.7334 -14.02152,4.55079 -14.75492,12.16165 0.14356,0.0142 0.28663,0.0278 0.43018,0.0415 z"
         style="fill:#c4e2f4;fill-opacity:1;fill-rule:nonzero;stroke:none"
         transform="matrix(1.3333333,0,0,1.3333333,0,755.29333)"
         clip-path="url(#clipPath2128)"
         id="path2181" />
      <path
         d="m 832.96114,-388.61306 c 0.7334,-7.61086 7.14406,-12.89505 14.75492,-12.16165 0.0137,-0.14355 0.0278,-0.28662 0.0415,-0.43018 -7.82619,-0.7539 -14.4722,4.72414 -15.2261,12.55033 0.14306,0.0142 0.28662,0.0278 0.42968,0.0415 z"
         style="fill:#e2f1f9;fill-opacity:1;fill-rule:nonzero;stroke:none"
         transform="matrix(1.3333333,0,0,1.3333333,0,755.29333)"
         clip-path="url(#clipPath2129)"
         id="path2182" />
      <path
         d="m 832.53146,-388.65456 c 0.7539,-7.82619 7.39991,-13.30423 15.2261,-12.55033 0.0137,-0.14306 0.0278,-0.28662 0.0415,-0.42968 -7.90773,-0.76221 -14.93607,5.03077 -15.69779,12.93899 0.14355,0.0137 0.28662,0.0273 0.43018,0.041 z"
         style="fill:#f7fbfd;fill-opacity:1;fill-rule:nonzero;stroke:none"
         transform="matrix(1.3333333,0,0,1.3333333,0,755.29333)"
         clip-path="url(#clipPath2130)"
         id="path2183" />
      <path
         d="m 847.46752,-398.19511 c 6.00832,0.57861 10.4097,5.91847 9.83059,11.92678 0.14356,0.0137 0.28711,0.0274 0.43018,0.0415 0.58692,-6.08986 -4.1294,-11.81155 -10.21926,-12.39847 -0.0137,0.14356 -0.0274,0.28662 -0.0415,0.43018 z"
         style="fill:#43a3db;fill-opacity:1;fill-rule:nonzero;stroke:none"
         transform="matrix(1.3333333,0,0,1.3333333,0,755.29333)"
         clip-path="url(#clipPath2131)"
         id="path2184" />
      <path
         d="m 847.50903,-398.62529 c 6.08986,0.58692 10.80618,6.30861 10.21926,12.39847 0.14355,0.0137 0.28662,0.0273 0.43018,0.0415 0.60742,-6.30519 -4.30324,-12.26224 -10.60794,-12.86966 -0.0137,0.14307 -0.0278,0.28662 -0.0415,0.42969 z"
         style="fill:#4ba7dd;fill-opacity:1;fill-rule:nonzero;stroke:none"
         transform="matrix(1.3333333,0,0,1.3333333,0,755.29333)"
         clip-path="url(#clipPath2132)"
         id="path2185" />
      <path
         d="m 847.55053,-399.05498 c 6.3047,0.60742 11.21536,6.56447 10.60794,12.86966 0.14306,0.0137 0.28662,0.0273 0.42969,0.041 0.63672,-6.60891 -4.38722,-12.70413 -10.99612,-13.34086 -0.0142,0.14356 -0.0278,0.28663 -0.0415,0.43018 z"
         style="fill:#60b1e1;fill-opacity:1;fill-rule:nonzero;stroke:none"
         transform="matrix(1.3333333,0,0,1.3333333,0,755.29333)"
         clip-path="url(#clipPath2133)"
         id="path2186" />
      <path
         d="m 847.59204,-399.48516 c 6.6089,0.63673 11.63284,6.73195 10.99612,13.34086 0.14355,0.0142 0.28662,0.0278 0.43017,0.0415 0.66993,-6.95802 -4.42725,-13.14163 -11.38479,-13.81204 -0.0142,0.14306 -0.0278,0.28662 -0.0415,0.42968 z"
         style="fill:#7ec0e6;fill-opacity:1;fill-rule:nonzero;stroke:none"
         transform="matrix(1.3333333,0,0,1.3333333,0,755.29333)"
         clip-path="url(#clipPath2134)"
         id="path2187" />
      <path
         d="m 847.63354,-399.91484 c 6.95754,0.67041 12.05472,6.85402 11.38479,13.81204 0.14307,0.0137 0.28662,0.0278 0.42969,0.0415 0.7041,-7.30665 -4.46632,-13.57962 -11.77346,-14.28372 -0.0137,0.14355 -0.0274,0.28662 -0.041,0.43018 z"
         style="fill:#a1d1ed;fill-opacity:1;fill-rule:nonzero;stroke:none"
         transform="matrix(1.3333333,0,0,1.3333333,0,755.29333)"
         clip-path="url(#clipPath2135)"
         id="path2188" />
      <path
         d="m 847.67456,-400.34502 c 7.30714,0.7041 12.47756,6.97707 11.77346,14.28372 0.14356,0.0137 0.28662,0.0278 0.43018,0.0415 0.73291,-7.61086 -4.55128,-14.02201 -12.16214,-14.75492 -0.0137,0.14307 -0.0273,0.28662 -0.0415,0.42969 z"
         style="fill:#c4e2f4;fill-opacity:1;fill-rule:nonzero;stroke:none"
         transform="matrix(1.3333333,0,0,1.3333333,0,755.29333)"
         clip-path="url(#clipPath2136)"
         id="path2189" />
      <path
         d="m 847.71606,-400.77471 c 7.61086,0.73291 12.89505,7.14406 12.16214,14.75492 0.14306,0.0137 0.28662,0.0273 0.42969,0.0415 0.7539,-7.82619 -4.72414,-14.47269 -12.55033,-15.2266 -0.0137,0.14356 -0.0278,0.28663 -0.0415,0.43018 z"
         style="fill:#e2f1f9;fill-opacity:1;fill-rule:nonzero;stroke:none"
         transform="matrix(1.3333333,0,0,1.3333333,0,755.29333)"
         clip-path="url(#clipPath2137)"
         id="path2190" />
      <path
         d="m 847.75756,-401.20489 c 7.82619,0.75391 13.30423,7.40041 12.55033,15.2266 0.14355,0.0137 0.28662,0.0273 0.43017,0.041 0.76172,-7.90774 -5.03126,-14.93558 -12.93899,-15.6973 -0.0137,0.14306 -0.0278,0.28662 -0.0415,0.42968 z"
         style="fill:#f7fbfd;fill-opacity:1;fill-rule:nonzero;stroke:none"
         transform="matrix(1.3333333,0,0,1.3333333,0,755.29333)"
         clip-path="url(#clipPath2138)"
         id="path2191" />
      <path
         d="m 857.29811,-386.26833 c -0.57861,6.00832 -5.91847,10.40969 -11.92629,9.83059 -0.0142,0.14355 -0.0278,0.28662 -0.0415,0.43018 6.08986,0.58642 11.81155,-4.12941 12.39798,-10.21926 -0.14307,-0.0142 -0.28662,-0.0278 -0.43018,-0.0415 z"
         style="fill:#43a3db;fill-opacity:1;fill-rule:nonzero;stroke:none"
         transform="matrix(1.3333333,0,0,1.3333333,0,755.29333)"
         clip-path="url(#clipPath2139)"
         id="path2192" />
      <path
         d="m 857.72829,-386.22682 c -0.58643,6.08985 -6.30812,10.80568 -12.39798,10.21926 -0.0142,0.14306 -0.0278,0.28662 -0.0415,0.42969 6.3047,0.60742 12.26223,-4.30275 12.86966,-10.60745 -0.14356,-0.0142 -0.28663,-0.0278 -0.43018,-0.0415 z"
         style="fill:#4ba7dd;fill-opacity:1;fill-rule:nonzero;stroke:none"
         transform="matrix(1.3333333,0,0,1.3333333,0,755.29333)"
         clip-path="url(#clipPath2140)"
         id="path2193" />
      <path
         d="m 858.15847,-386.18532 c -0.60743,6.3047 -6.56496,11.21487 -12.86966,10.60745 -0.0137,0.14355 -0.0278,0.28662 -0.0415,0.43017 6.60939,0.63672 12.70413,-4.38721 13.34086,-10.9966 -0.14307,-0.0137 -0.28663,-0.0274 -0.42969,-0.041 z"
         style="fill:#60b1e1;fill-opacity:1;fill-rule:nonzero;stroke:none"
         transform="matrix(1.3333333,0,0,1.3333333,0,755.29333)"
         clip-path="url(#clipPath2141)"
         id="path2194" />
      <path
         d="m 858.58816,-386.1443 c -0.63673,6.60939 -6.73147,11.63332 -13.34086,10.9966 -0.0137,0.14307 -0.0273,0.28662 -0.0415,0.42969 6.95802,0.67041 13.14212,-4.42677 13.81253,-11.38479 -0.14355,-0.0137 -0.28662,-0.0273 -0.43017,-0.0415 z"
         style="fill:#7ec0e6;fill-opacity:1;fill-rule:nonzero;stroke:none"
         transform="matrix(1.3333333,0,0,1.3333333,0,755.29333)"
         clip-path="url(#clipPath2142)"
         id="path2195" />
      <path
         d="m 859.01833,-386.1028 c -0.67041,6.95802 -6.85451,12.0552 -13.81253,11.38479 -0.0137,0.14356 -0.0273,0.28662 -0.0415,0.43018 7.30714,0.70361 13.58011,-4.46681 14.28372,-11.77347 -0.14307,-0.0137 -0.28662,-0.0278 -0.42969,-0.0415 z"
         style="fill:#a1d1ed;fill-opacity:1;fill-rule:nonzero;stroke:none"
         transform="matrix(1.3333333,0,0,1.3333333,0,755.29333)"
         clip-path="url(#clipPath2143)"
         id="path2196" />
      <path
         d="m 859.44802,-386.0613 c -0.70361,7.30666 -6.97658,12.47708 -14.28372,11.77347 -0.0137,0.14306 -0.0274,0.28662 -0.041,0.42969 7.61086,0.7334 14.02152,-4.5508 14.75492,-12.16165 -0.14356,-0.0137 -0.28662,-0.0278 -0.43018,-0.0415 z"
         style="fill:#c4e2f4;fill-opacity:1;fill-rule:nonzero;stroke:none"
         transform="matrix(1.3333333,0,0,1.3333333,0,755.29333)"
         clip-path="url(#clipPath2144)"
         id="path2197" />
      <path
         d="m 859.8782,-386.01979 c -0.7334,7.61085 -7.14406,12.89505 -14.75492,12.16165 -0.0142,0.14355 -0.0278,0.28662 -0.0415,0.43017 7.82619,0.75391 14.4722,-4.72413 15.22611,-12.55032 -0.14307,-0.0142 -0.28663,-0.0278 -0.42969,-0.0415 z"
         style="fill:#e2f1f9;fill-opacity:1;fill-rule:nonzero;stroke:none"
         transform="matrix(1.3333333,0,0,1.3333333,0,755.29333)"
         clip-path="url(#clipPath2145)"
         id="path2198" />
      <path
         d="m 860.30789,-385.97829 c -0.75391,7.82619 -7.39992,13.30423 -15.22611,12.55032 -0.0142,0.14307 -0.0278,0.28662 -0.0415,0.42969 7.90774,0.76221 14.93607,-5.03077 15.69779,-12.93899 -0.14355,-0.0137 -0.28662,-0.0274 -0.43017,-0.041 z"
         style="fill:#f7fbfd;fill-opacity:1;fill-rule:nonzero;stroke:none"
         transform="matrix(1.3333333,0,0,1.3333333,0,755.29333)"
         clip-path="url(#clipPath2146)"
         id="path2199" />
      <path
         d="m 845.04027,-372.99828 c -7.90773,-0.76172 -13.70071,-7.78957 -12.93899,-15.6973 -1.12012,-0.10791 -2.24024,-0.21582 -3.36036,-0.32373 -0.94092,9.76369 6.21193,18.44096 15.97562,19.38188 0.10791,-1.12012 0.21582,-2.24024 0.32373,-3.36085 z"
         style="fill:#ffffff;fill-opacity:1;fill-rule:nonzero;stroke:none"
         transform="matrix(1.3333333,0,0,1.3333333,0,755.29333)"
         clip-path="url(#clipPath2147)"
         id="path2200" />
      <path
         d="m 832.10128,-388.69558 c 0.76172,-7.90822 7.79006,-13.7012 15.69779,-12.93899 0.10791,-1.12012 0.21582,-2.24073 0.32373,-3.36085 -9.76369,-0.94043 -18.44145,6.21193 -19.38188,15.97611 1.12012,0.10791 2.24024,0.21582 3.36036,0.32373 z"
         style="fill:#ffffff;fill-opacity:1;fill-rule:nonzero;stroke:none"
         transform="matrix(1.3333333,0,0,1.3333333,0,755.29333)"
         clip-path="url(#clipPath2148)"
         id="path2201" />
      <path
         d="m 847.79907,-401.63457 c 7.90773,0.76172 13.70071,7.78956 12.93899,15.6973 1.12012,0.1084 2.24024,0.21631 3.36036,0.32422 0.94092,-9.76419 -6.21193,-18.44145 -15.97562,-19.38237 -0.10791,1.12012 -0.21582,2.24073 -0.32373,3.36085 z"
         style="fill:#ffffff;fill-opacity:1;fill-rule:nonzero;stroke:none"
         transform="matrix(1.3333333,0,0,1.3333333,0,755.29333)"
         clip-path="url(#clipPath2149)"
         id="path2202" />
      <path
         d="m 860.73806,-385.93727 c -0.76172,7.90822 -7.79005,13.7012 -15.69779,12.93899 -0.10791,1.12061 -0.21582,2.24073 -0.32373,3.36085 9.7637,0.94043 18.44145,-6.21193 19.38188,-15.97562 -1.12012,-0.10791 -2.24024,-0.21582 -3.36036,-0.32422 z"
         style="fill:#ffffff;fill-opacity:1;fill-rule:nonzero;stroke:none"
         transform="matrix(1.3333333,0,0,1.3333333,0,755.29333)"
         clip-path="url(#clipPath2150)"
         id="path2203" />
      <path
         d="M 0,0 C -0.69,-0.254 -1.363,-0.582 -2.008,-0.979 -4.253,-2.368 -5.88,-4.453 -6.59,-6.85 c -0.708,-2.39 -0.419,-4.805 0.816,-6.801 1.234,-1.995 3.265,-3.332 5.72,-3.767 2.462,-0.435 5.053,0.09 7.298,1.477 2.245,1.389 3.872,3.473 4.583,5.87 0.708,2.391 0.418,4.806 -0.816,6.801 C 9.777,-1.274 7.745,0.063 5.29,0.498 3.535,0.808 1.714,0.63 0,0 m 5.345,-17.217 c -1.766,-0.65 -3.643,-0.831 -5.454,-0.512 -2.544,0.451 -4.652,1.839 -5.933,3.912 -1.283,2.073 -1.584,4.579 -0.851,7.057 0.733,2.471 2.408,4.619 4.719,6.048 2.31,1.43 4.981,1.968 7.519,1.521 2.545,-0.451 4.652,-1.84 5.934,-3.912 1.282,-2.073 1.583,-4.579 0.85,-7.058 -0.733,-2.47 -2.408,-4.619 -4.719,-6.047 -0.662,-0.41 -1.355,-0.748 -2.065,-1.009"
         style="fill:#56c2e8;fill-opacity:1;fill-rule:nonzero;stroke:none"
         transform="matrix(1.3333333,0,0,-1.3333333,1123.3085,234.07587)"
         clip-path="url(#clipPath2151)"
         id="path2204" />
    </g>
    <path
       id="path2206"
       d="m 0,0 c -0.133,-0.99 0.408,-1.659 0.408,-1.659 0.109,-0.176 -0.348,-0.656 -1.297,-1.243 -0.948,-0.587 -1.583,-0.782 -1.692,-0.605 0,0 -0.268,0.872 -1.301,1.106 z"
       style="display:inline;fill:#e42320;fill-opacity:1;fill-rule:nonzero;stroke:none"
       transform="matrix(1.3333333,0,0,-1.3333333,1122.3099,232.3116)"
       clip-path="url(#clipPath2207)" />
    <path
       id="path2208"
       d="M 0,0 C 0.085,-0.016 0.564,0.096 1.471,0.658 2.36,1.208 2.68,1.583 2.707,1.695 2.614,1.822 2.257,2.357 2.264,3.129 L -1.064,1.072 C -0.325,0.77 -0.058,0.157 0,0 m 0.51,-0.193 c -0.364,-0.134 -0.664,-0.162 -0.782,0.028 l -0.011,0.018 -0.006,0.019 c -0.01,0.032 -0.259,0.789 -1.186,0.999 L -1.851,0.955 2.643,3.736 2.599,3.404 C 2.477,2.499 2.969,1.872 2.974,1.866 3.215,1.476 2.378,0.849 1.636,0.39 1.272,0.164 0.861,-0.064 0.51,-0.193"
       style="display:inline;fill:#000000;fill-opacity:1;fill-rule:nonzero;stroke:none"
       transform="matrix(1.3333333,0,0,-1.3333333,1119.0533,236.87933)"
       clip-path="url(#clipPath2209)" />
    <path
       id="path2210"
       d="M 0,0 C 0.21,-0.34 1.868,0.303 3.701,1.437 5.535,2.571 6.85,3.766 6.64,4.106 6.429,4.447 4.711,5.72 2.064,4.083 -0.722,2.36 -0.21,0.34 0,0"
       style="display:inline;fill:#e42320;fill-opacity:1;fill-rule:nonzero;stroke:none"
       transform="matrix(1.3333333,0,0,-1.3333333,1115.0749,236.294)"
       clip-path="url(#clipPath2211)" />
    <path
       id="path2212"
       d="M 0,0 0.004,0.001 Z M -0.001,0.001 C 0.169,-0.135 1.474,0.245 3.484,1.487 5.499,2.733 6.419,3.733 6.369,3.943 6.217,4.188 4.609,5.466 2.013,3.866 -0.6,2.25 -0.234,0.384 -0.001,0.001 M 1.028,-0.117 C 0.416,-0.342 -0.105,-0.429 -0.268,-0.167 -0.534,0.263 -0.992,2.377 1.847,4.134 4.662,5.882 6.431,4.442 6.639,4.106 6.671,4.054 6.703,3.966 6.672,3.839 6.531,3.235 5.006,2.058 3.649,1.22 3.559,1.163 2.143,0.292 1.028,-0.117"
       style="display:inline;fill:#000000;fill-opacity:1;fill-rule:nonzero;stroke:none"
       transform="matrix(1.3333333,0,0,-1.3333333,1115.2539,236.18267)"
       clip-path="url(#clipPath2213)" />
    <path
       id="path2214"
       d="m 0,0 c 0.355,0.245 3.042,-2.602 2.802,-1.293 -0.24,1.308 0.077,1.813 0.495,1.473 0,0 0,-0.028 -0.008,-0.078 0.263,-0.735 0.516,-1.502 0.755,-2.305 0,0 0,-0.011 -0.002,-0.031 0.731,-1.68 1.516,-3.784 1.215,-3.97 L 5.238,-6.214 C 5.233,-6.218 5.228,-6.222 5.222,-6.225 4.92,-6.412 3.388,-4.771 2.213,-3.367 2.193,-3.359 2.184,-3.354 2.184,-3.354 1.572,-2.781 0.998,-2.212 0.458,-1.649 0.41,-1.633 0.385,-1.621 0.385,-1.621 0.372,-1.608 0.359,-1.596 0.347,-1.584 1.854,-1.894 -0.341,-0.235 0,0"
       style="display:inline;fill:#e3d8b3;fill-opacity:1;fill-rule:nonzero;stroke:none"
       transform="matrix(1.3333333,0,0,-1.3333333,1150.5625,286.9236)"
       clip-path="url(#clipPath2215)" />
    <path
       id="path2218"
       d="m 0,0 c 0,0 -0.009,0.641 0.478,0.704 0.484,0.064 1.17,-0.088 1.354,0.46 0,0 10e-4,-0.012 -0.002,-0.032 0.733,-1.679 1.516,-3.783 1.214,-3.969 L 3.026,-2.848 C 3.021,-2.852 3.016,-2.855 3.01,-2.858 2.708,-3.045 1.176,-1.404 0,0"
       style="display:inline;fill:#7159a1;fill-opacity:1;fill-rule:nonzero;stroke:none"
       transform="matrix(1.3333333,0,0,-1.3333333,1153.5117,291.41253)"
       clip-path="url(#clipPath2219)" />
    <path
       id="path2222"
       d="M 0,0 0.067,-0.705 -0.475,-1.16 0.216,-1.313 0.481,-1.969 0.841,-1.36 1.547,-1.311 1.078,-0.78 1.249,-0.093 0.6,-0.375 Z"
       style="display:inline;fill:#f2e500;fill-opacity:1;fill-rule:nonzero;stroke:none"
       transform="matrix(1.3333333,0,0,-1.3333333,1124.2591,249.84027)"
       clip-path="url(#clipPath2223)" />
    <path
       id="path2224"
       d="m 0,0 0.089,-0.929 -0.715,-0.6 0.911,-0.203 0.35,-0.866 0.474,0.805 0.932,0.065 -0.619,0.699 0.226,0.906 -0.856,-0.372 z"
       style="display:inline;fill:#f2e500;fill-opacity:1;fill-rule:nonzero;stroke:none"
       transform="matrix(1.3333333,0,0,-1.3333333,1132.7532,236.62733)"
       clip-path="url(#clipPath2225)" />
    <path
       id="path2226"
       d="m 0,0 0.41,-0.839 -0.459,-0.813 0.924,0.131 0.632,-0.688 0.161,0.919 0.85,0.389 -0.825,0.438 -0.107,0.927 -0.671,-0.649 z"
       style="display:inline;fill:#f2e500;fill-opacity:1;fill-rule:nonzero;stroke:none"
       transform="matrix(1.3333333,0,0,-1.3333333,1133.4063,245.59347)"
       clip-path="url(#clipPath2227)" />
    <path
       id="path2228"
       d="m 0,0 0.089,-0.93 -0.715,-0.6 0.911,-0.202 0.35,-0.866 0.474,0.805 0.932,0.064 -0.619,0.7 0.226,0.906 -0.856,-0.372 z"
       style="display:inline;fill:#f2e500;fill-opacity:1;fill-rule:nonzero;stroke:none"
       transform="matrix(1.3333333,0,0,-1.3333333,1119.7473,241.27053)"
       clip-path="url(#clipPath2229)" />
    <path
       id="path2230"
       d="m 0,0 -0.135,-0.924 -0.838,-0.412 0.837,-0.414 0.133,-0.924 0.652,0.668 0.92,-0.16 -0.433,0.828 0.435,0.825 -0.92,-0.156 z"
       style="display:inline;fill:#f2e500;fill-opacity:1;fill-rule:nonzero;stroke:none"
       transform="matrix(1.3333333,0,0,-1.3333333,1117.5592,248.8116)"
       clip-path="url(#clipPath2231)" />
    <path
       id="path2232"
       d="m 0,0 -0.171,-0.529 -0.533,-0.159 0.451,-0.327 -0.014,-0.556 0.45,0.328 0.525,-0.185 -0.173,0.529 0.338,0.442 -0.557,-0.001 z"
       style="display:inline;fill:#f2e500;fill-opacity:1;fill-rule:nonzero;stroke:none"
       transform="matrix(1.3333333,0,0,-1.3333333,1128.0585,241.17027)"
       clip-path="url(#clipPath2233)" />
    <g
       id="g2235"
       clip-path="url(#clipPath2236)"
       style="display:inline">
      <path
         d="m 0,0 c -5.416,-0.775 -3.771,-4.398 -5.103,-8.228 -0.828,-2.392 -3.998,-1.398 -5.837,-1.109 -1.049,0.299 -2.088,-0.031 -3.069,0.563 -1.363,0.901 0.56,3.314 1.253,4.209 1.991,2.406 3.576,1.354 5.748,0.026 2.081,-1.107 4.583,-2.994 6.983,-1.94 1.21,0.866 2.145,2.204 2.701,3.57 0.296,0.834 0.621,2.001 0.188,2.79 C 2.13,0.348 0.881,0.063 0,0 m -0.055,0.444 c 1.059,0.065 2.283,0.428 3.22,-0.263 1.178,-2.074 -1.246,-5.842 -2.968,-7.044 -2.569,-1.249 -5.273,0.683 -7.478,1.858 -2.032,1.192 -3.283,2.167 -5.213,0.189 -0.682,-0.661 -2.71,-3.028 -1.383,-3.722 0.69,-0.283 1.485,-0.096 2.242,-0.106 0.832,-0.111 1.512,-0.349 2.326,-0.452 1.356,-0.129 3.28,-0.641 3.835,1.024 1.41,3.864 0.084,7.519 5.419,8.516"
         style="fill:#ffffff;fill-opacity:1;fill-rule:nonzero;stroke:none"
         transform="matrix(1.3333333,0,0,-1.3333333,1133.8223,238.5928)"
         clip-path="url(#clipPath2234)"
         id="path2235" />
    </g>
    <g
       id="g2238"
       clip-path="url(#clipPath2239)"
       style="display:inline">
      <path
         d="M 0,0 C 1.544,-0.084 2.826,0.397 2.864,1.077 2.901,1.756 1.679,2.375 0.135,2.459 -1.41,2.544 -2.692,2.063 -2.729,1.383 -2.767,0.704 -1.544,0.085 0,0"
         style="fill:#ffffff;fill-opacity:1;fill-rule:nonzero;stroke:none"
         transform="matrix(1.3333333,0,0,-1.3333333,1128.7188,237.014)"
         clip-path="url(#clipPath2237)"
         id="path2238" />
    </g>
  </g>
</svg>
