<?xml version="1.0" encoding="UTF-8" standalone="no"?>
<!-- Created with Inkscape (http://www.inkscape.org/) -->

<svg
   version="1.1"
   id="svg1"
   width="1857.3218"
   height="607.24921"
   viewBox="0 0 1857.3218 607.2492"
   xmlns="http://www.w3.org/2000/svg"
   xmlns:svg="http://www.w3.org/2000/svg">
  <defs
     id="defs1">
    <clipPath
       clipPathUnits="userSpaceOnUse"
       id="clipPath200">
      <path
         d="M 0,914.759 H 2638.452 V 0 H 0 Z"
         transform="translate(-1784.7567,-518.20471)"
         id="path200" />
    </clipPath>
    <clipPath
       clipPathUnits="userSpaceOnUse"
       id="clipPath202">
      <path
         d="M 0,914.759 H 2638.452 V 0 H 0 Z"
         transform="translate(-1778.2723,-605.68981)"
         id="path202" />
    </clipPath>
    <clipPath
       clipPathUnits="userSpaceOnUse"
       id="clipPath204">
      <path
         d="M 0,914.759 H 2638.452 V 0 H 0 Z"
         transform="translate(-2010.3756,-584.23141)"
         id="path204" />
    </clipPath>
    <clipPath
       clipPathUnits="userSpaceOnUse"
       id="clipPath206">
      <path
         d="M 0,914.759 H 2638.452 V 0 H 0 Z"
         transform="translate(-1862.3961,-610.10802)"
         id="path206" />
    </clipPath>
    <clipPath
       clipPathUnits="userSpaceOnUse"
       id="clipPath208">
      <path
         d="M 0,914.759 H 2638.452 V 0 H 0 Z"
         transform="translate(-1719.2262,-484.11381)"
         id="path208" />
    </clipPath>
    <clipPath
       clipPathUnits="userSpaceOnUse"
       id="clipPath210">
      <path
         d="M 0,914.759 H 2638.452 V 0 H 0 Z"
         transform="translate(-668.20162,-503.48742)"
         id="path210" />
    </clipPath>
    <clipPath
       clipPathUnits="userSpaceOnUse"
       id="clipPath212">
      <path
         d="M 0,914.759 H 2638.452 V 0 H 0 Z"
         transform="translate(-769.72254,-238.23341)"
         id="path212" />
    </clipPath>
    <clipPath
       clipPathUnits="userSpaceOnUse"
       id="clipPath214">
      <path
         d="M 0,914.759 H 2638.452 V 0 H 0 Z"
         transform="translate(-2026.515,-576.50691)"
         id="path214" />
    </clipPath>
    <clipPath
       clipPathUnits="userSpaceOnUse"
       id="clipPath216">
      <path
         d="M 0,914.759 H 2638.452 V 0 H 0 Z"
         transform="translate(-1801.9554,-444.72501)"
         id="path216" />
    </clipPath>
    <clipPath
       clipPathUnits="userSpaceOnUse"
       id="clipPath218">
      <path
         d="M 0,914.759 H 2638.452 V 0 H 0 Z"
         transform="translate(-1817.976,-215.25881)"
         id="path218" />
    </clipPath>
    <clipPath
       clipPathUnits="userSpaceOnUse"
       id="clipPath220">
      <path
         d="M 0,914.759 H 2638.452 V 0 H 0 Z"
         transform="translate(-872.18395,-530.17062)"
         id="path220" />
    </clipPath>
    <clipPath
       clipPathUnits="userSpaceOnUse"
       id="clipPath222">
      <path
         d="M 0,914.759 H 2638.452 V 0 H 0 Z"
         transform="translate(-1762.8093,-630.48652)"
         id="path222" />
    </clipPath>
    <clipPath
       clipPathUnits="userSpaceOnUse"
       id="clipPath224">
      <path
         d="M 0,914.759 H 2638.452 V 0 H 0 Z"
         transform="translate(-856.0966,-655.03171)"
         id="path224" />
    </clipPath>
    <clipPath
       clipPathUnits="userSpaceOnUse"
       id="clipPath226">
      <path
         d="M 0,914.759 H 2638.452 V 0 H 0 Z"
         transform="translate(-1832.5675,-448.64231)"
         id="path226" />
    </clipPath>
    <clipPath
       clipPathUnits="userSpaceOnUse"
       id="clipPath228">
      <path
         d="M 0,914.759 H 2638.452 V 0 H 0 Z"
         transform="translate(-1760.8281,-479.12011)"
         id="path228" />
    </clipPath>
    <clipPath
       clipPathUnits="userSpaceOnUse"
       id="clipPath230">
      <path
         d="M 0,914.759 H 2638.452 V 0 H 0 Z"
         transform="translate(-1989.373,-562.90221)"
         id="path230" />
    </clipPath>
    <clipPath
       clipPathUnits="userSpaceOnUse"
       id="clipPath232">
      <path
         d="M 0,914.759 H 2638.452 V 0 H 0 Z"
         transform="translate(-1986.9774,-507.72811)"
         id="path232" />
    </clipPath>
    <clipPath
       clipPathUnits="userSpaceOnUse"
       id="clipPath234">
      <path
         d="M 0,914.759 H 2638.452 V 0 H 0 Z"
         transform="translate(-1968.186,-506.71261)"
         id="path234" />
    </clipPath>
    <clipPath
       clipPathUnits="userSpaceOnUse"
       id="clipPath236">
      <path
         d="M 0,914.759 H 2638.452 V 0 H 0 Z"
         transform="translate(-1994.3799,-514.78021)"
         id="path236" />
    </clipPath>
    <clipPath
       clipPathUnits="userSpaceOnUse"
       id="clipPath238">
      <path
         d="M 0,914.759 H 2638.452 V 0 H 0 Z"
         transform="translate(-1850.6847,-492.04541)"
         id="path238" />
    </clipPath>
    <clipPath
       clipPathUnits="userSpaceOnUse"
       id="clipPath240">
      <path
         d="M 0,914.759 H 2638.452 V 0 H 0 Z"
         transform="translate(-1870.2424,-489.81921)"
         id="path240" />
    </clipPath>
    <clipPath
       clipPathUnits="userSpaceOnUse"
       id="clipPath242">
      <path
         d="M 0,914.759 H 2638.452 V 0 H 0 Z"
         transform="translate(-1890.0427,-490.62621)"
         id="path242" />
    </clipPath>
    <clipPath
       clipPathUnits="userSpaceOnUse"
       id="clipPath244">
      <path
         d="M 0,914.759 H 2638.452 V 0 H 0 Z"
         transform="translate(-1841.6656,-492.21151)"
         id="path244" />
    </clipPath>
    <clipPath
       clipPathUnits="userSpaceOnUse"
       id="clipPath246">
      <path
         d="M 0,914.759 H 2638.452 V 0 H 0 Z"
         transform="translate(-1850.1034,-552.00691)"
         id="path246" />
    </clipPath>
    <clipPath
       clipPathUnits="userSpaceOnUse"
       id="clipPath248">
      <path
         d="M 0,914.759 H 2638.452 V 0 H 0 Z"
         transform="translate(-1915.6179,-542.64261)"
         id="path248" />
    </clipPath>
    <clipPath
       clipPathUnits="userSpaceOnUse"
       id="clipPath250">
      <path
         d="M 0,914.759 H 2638.452 V 0 H 0 Z"
         transform="translate(-1808.6128,-533.43631)"
         id="path250" />
    </clipPath>
    <clipPath
       clipPathUnits="userSpaceOnUse"
       id="clipPath252">
      <path
         d="M 0,914.759 H 2638.452 V 0 H 0 Z"
         transform="translate(-717.40702,-603.36382)"
         id="path252" />
    </clipPath>
    <clipPath
       clipPathUnits="userSpaceOnUse"
       id="clipPath254">
      <path
         d="M 0,914.759 H 2638.452 V 0 H 0 Z"
         transform="translate(-743.01662,-631.93272)"
         id="path254" />
    </clipPath>
    <clipPath
       clipPathUnits="userSpaceOnUse"
       id="clipPath256">
      <path
         d="M 0,914.759 H 2638.452 V 0 H 0 Z"
         transform="translate(-743.53312,-583.56822)"
         id="path256" />
    </clipPath>
    <clipPath
       clipPathUnits="userSpaceOnUse"
       id="clipPath258">
      <path
         d="M 0,914.759 H 2638.452 V 0 H 0 Z"
         transform="translate(-766.23969,-576.67971)"
         id="path258" />
    </clipPath>
    <clipPath
       clipPathUnits="userSpaceOnUse"
       id="clipPath260">
      <path
         d="M 0,914.759 H 2638.452 V 0 H 0 Z"
         transform="translate(-748.41642,-581.10732)"
         id="path260" />
    </clipPath>
    <clipPath
       clipPathUnits="userSpaceOnUse"
       id="clipPath262">
      <path
         d="M 0,914.759 H 2638.452 V 0 H 0 Z"
         transform="translate(-715.89922,-496.24121)"
         id="path262" />
    </clipPath>
    <clipPath
       clipPathUnits="userSpaceOnUse"
       id="clipPath264">
      <path
         d="M 0,914.759 H 2638.452 V 0 H 0 Z"
         transform="translate(-748.25152,-532.33201)"
         id="path264" />
    </clipPath>
    <clipPath
       clipPathUnits="userSpaceOnUse"
       id="clipPath266">
      <path
         d="M 0,914.759 H 2638.452 V 0 H 0 Z"
         transform="translate(-748.90412,-471.23361)"
         id="path266" />
    </clipPath>
    <clipPath
       clipPathUnits="userSpaceOnUse"
       id="clipPath268">
      <path
         d="M 0,914.759 H 2638.452 V 0 H 0 Z"
         transform="translate(-777.58914,-462.53151)"
         id="path268" />
    </clipPath>
    <clipPath
       clipPathUnits="userSpaceOnUse"
       id="clipPath270">
      <path
         d="M 0,914.759 H 2638.452 V 0 H 0 Z"
         transform="translate(-755.07309,-468.12481)"
         id="path270" />
    </clipPath>
  </defs>
  <g
     id="layer-MC2"
     style="display:inline"
     transform="translate(-845.9418,-339.59975)">
    <path
       id="path199"
       d="M 0,0 C -0.609,-1.013 -1.164,-1.937 -1.839,-3.059 1.012,-2.218 1.012,-2.218 0,0 M 0.818,16.389 C 0.574,16.337 0.33,16.285 0.085,16.233 -0.049,14.475 -0.183,12.717 -0.317,10.958 L 0.64,10.914 c 0.06,1.825 0.119,3.65 0.178,5.475 m 15.163,-26.471 c -1.756,-2.556 -1.733,-2.598 1.907,-3.946 -0.666,1.377 -1.25,2.586 -1.907,3.946 m -35.715,7.259 c -0.158,0.228 -0.316,0.455 -0.473,0.683 -1.371,-0.476 -2.741,-0.951 -5.186,-1.799 1.097,-1.033 1.634,-1.537 2.26,-2.125 1.532,1.461 2.465,2.351 3.399,3.241 m 42.804,-1.43 c -0.408,-0.136 -0.815,-0.273 -1.223,-0.41 -0.074,-1.533 -0.147,-3.065 -0.25,-5.209 2.118,1.113 3.433,1.996 3.236,3.76 -0.075,0.677 -1.146,1.243 -1.763,1.859 M -8.222,6.839 c 0.08,-0.164 0.16,-0.327 0.241,-0.491 1.741,0.622 3.482,1.244 5.334,1.906 0.269,-1.947 0.461,-3.343 0.654,-4.738 0.264,0.05 0.528,0.099 0.793,0.149 -0.381,2.271 -0.762,4.541 -1.272,7.586 C -4.715,9.53 -6.469,8.184 -8.222,6.839 m 19.123,6.894 c -6.602,1.895 -8.087,1.144 -7.712,-3.432 2.657,1.183 5.184,2.308 7.712,3.432 m 6.405,-42.797 c -0.174,0.366 -0.348,0.731 -0.522,1.096 -1.228,0.103 -2.457,0.206 -3.974,0.332 -0.047,2.12 -0.092,4.153 -0.143,6.474 -2.718,-0.967 -5.343,-1.902 -8.729,-3.108 4.296,-2.468 8.119,-4.187 12.238,-5.243 0.317,-0.082 0.751,0.289 1.13,0.449 M -17.208,6.881 c 0.24,-0.27 0.48,-0.541 0.72,-0.812 0.997,0.725 2.018,1.418 2.985,2.179 2.934,2.309 5.819,4.679 8.775,6.958 3.096,2.386 3.123,2.352 3.136,7.673 C -7.035,17.303 -12.121,12.092 -17.208,6.881 m 14.212,-22.35 c -1.819,-0.237 -3.325,-0.433 -5.013,-0.652 -0.317,1.816 -0.572,3.282 -0.881,5.056 -1.78,-0.724 -3.194,-1.299 -4.732,-1.925 4.261,-4.243 12.243,-9.068 16.746,-10.236 -0.032,1.469 -0.065,2.943 -0.099,4.455 -1.84,-0.351 -3.346,-0.639 -5.019,-0.958 -0.359,1.526 -0.645,2.742 -1.002,4.26 M 26.47,9 c 0.387,-0.223 0.774,-0.445 1.161,-0.667 1.555,1.857 3.17,3.667 4.644,5.585 1.116,1.451 1.481,3.065 0.501,4.825 -1.465,2.631 -5.893,4.401 -9.078,3.558 -2.814,-0.745 -4.794,-3.343 -4.822,-6.327 -0.046,-4.936 0.711,-5.974 5.438,-7.272 0.32,1.327 0.642,2.664 0.964,4.001 C 25.485,12.672 25.693,12.64 25.9,12.609 26.09,11.406 26.28,10.203 26.47,9 M 19.887,-0.883 C 18.846,3.649 17.934,7.619 16.984,11.756 12.056,9.443 7.412,7.263 2.335,4.88 2.865,2.904 3.399,0.918 3.969,-1.204 c 5.6,0.914 10.913,-3.427 15.918,0.321 m 135.786,50.226 c -5.997,-3.272 -10.781,-6.981 -15.347,-10.834 0.664,-3.314 1.242,-6.193 1.887,-9.409 5.927,3.063 11.358,5.87 17.184,8.88 -1.222,3.73 -2.395,7.308 -3.724,11.363 m 8.405,-28.889 c -1.315,4.587 -2.439,8.507 -3.731,13.017 -5.473,-2.849 -10.448,-5.346 -15.304,-8.055 -0.822,-0.459 -1.653,-1.869 -1.586,-2.772 0.186,-2.489 0.845,-4.943 1.396,-7.82 6.622,1.939 12.633,3.7 19.225,5.63 m 0.579,-4.715 c -6.445,-1.901 -12.557,-3.704 -18.867,-5.565 0.871,-4.705 1.664,-8.987 2.371,-12.804 5.78,2.471 11.246,-0.665 16.904,-0.529 0.167,4.374 0.434,8.512 0.434,12.65 0,1.962 -0.511,3.925 -0.842,6.248 M 129.422,93 c -0.321,0.245 -0.641,0.49 -0.962,0.735 -1.176,-0.775 -2.423,-1.462 -3.517,-2.338 C 112.059,81.083 99.179,70.763 86.358,60.372 c -1.362,-1.104 -3.573,-2.016 -3.095,-4.264 0.523,-2.463 3.091,-2.411 4.898,-2.778 5.898,-1.197 11.86,-2.075 17.797,-3.081 2.069,-0.351 4.135,-0.716 5.606,-0.971 6.077,14.88 11.967,29.301 17.858,43.722 m 4.645,-126.95 c -16.562,-5.969 -32.613,-11.119 -50.804,-11.829 3.992,-3.385 7.187,-6.158 10.45,-8.848 7.662,-6.318 15.292,-12.649 21.672,-20.349 3.024,-3.649 6.303,-7.088 9.525,-10.568 0.604,-0.653 1.484,-1.051 2.856,-1.992 0.198,2.486 0.424,4.289 0.469,6.097 0.105,4.163 -0.316,8.391 0.266,12.48 1.172,8.246 2.928,16.407 4.323,24.623 0.565,3.327 0.813,6.708 1.243,10.386 M 19.974,-15.558 c 3.425,-2.54 6.627,-3.934 10.34,-3.803 1.946,0.068 4.405,-0.267 5.732,0.752 6.142,4.719 12.399,9.56 16.308,16.383 4.769,8.321 5.809,17.015 0.505,25.736 -3.734,6.141 -9.321,9.806 -16.016,11.558 C 30.826,36.642 24.786,36.56 19.02,33.295 14.483,30.726 10.081,28.086 6.72,24.03 5.766,22.879 5.049,21.532 3.993,19.923 c 4.576,-0.347 8.496,-0.645 12.55,-0.953 0.644,1.526 1.431,3.057 1.921,4.678 0.277,0.919 0.075,1.986 0.077,2.986 0.008,4.939 2.415,6.793 7.171,5.393 2.544,-0.749 4.849,-1.783 5.146,-5.025 0.078,-0.851 1.125,-1.572 1.53,-2.444 0.948,-2.04 2.194,-4.061 2.576,-6.222 C 36.124,11.768 32.307,7.537 27.57,3.852 26.395,2.938 25.319,1.896 24.265,0.972 c 4.703,-7.549 3.316,-13.062 -4.291,-16.53 m 0.937,-15.591 c 1.222,-0.398 2.138,-0.815 3.097,-0.99 15.135,-2.765 30.261,-5.584 45.428,-8.159 2.637,-0.448 5.657,-1.632 8.144,0.907 0.256,0.261 1.179,0.152 1.618,-0.095 3.221,-1.809 6.725,-1.56 10.118,-1.173 15.501,1.77 30.496,5.561 44.657,12.203 4.919,2.307 9.566,5.194 14.703,8.017 -2.534,23.617 -8.369,46.525 -12.785,70.131 -6.743,0.881 -13.384,1.748 -20.14,2.631 -1.004,-3.002 -1.886,-5.641 -2.681,-8.016 -6.657,1.014 -12.804,1.719 -18.846,2.946 -4.481,0.91 -9.013,2.07 -13.173,3.909 -3.874,1.713 -7.676,2.312 -11.732,1.84 -13.346,-1.553 -26.234,-5.046 -38.901,-9.412 -1.529,-0.528 -2.931,-1.424 -4.392,-2.15 0.094,-0.281 0.188,-0.562 0.282,-0.844 1.246,0.028 2.494,0.096 3.74,0.077 9.553,-0.144 17.07,-4.129 22.896,-11.724 7.8,-10.17 6.375,-30.692 -3.004,-40.166 -3.238,-3.271 -6.724,-6.299 -9.92,-9.608 -4.157,-4.303 -9.063,-4.47 -14.355,-3.024 -1.307,0.358 -2.583,0.826 -4.127,1.326 -0.229,-3.142 -0.424,-5.827 -0.627,-8.626 m 106.532,-61.5 c -1.456,1.224 -2.736,2.083 -3.749,3.188 -4.178,4.555 -8.132,9.323 -12.443,13.746 -4.105,4.212 -8.429,8.234 -12.876,12.086 -6.414,5.554 -12.996,10.915 -19.584,16.262 -1.049,0.853 -2.451,1.523 -3.778,1.742 -11.905,1.962 -23.831,3.793 -35.747,5.69 -2.412,0.384 -4.795,0.968 -7.212,1.311 -14.098,2.002 -26.739,7.761 -38.584,15.329 -5.678,3.628 -11.008,7.822 -16.327,11.976 -2.007,1.568 -3.654,3.655 -5.251,5.675 -1.35,1.707 -1.276,4.112 -0.074,5.534 9.011,10.654 18.051,21.299 28.634,30.455 11.807,10.215 25.298,17.435 40.394,21.439 7.773,2.061 15.649,3.759 23.533,5.354 3.213,0.65 6.574,0.844 9.858,0.778 2.828,-0.056 4.823,0.925 6.865,2.8 14.313,13.147 29.4,25.357 45.191,36.686 1.563,1.121 3.348,1.932 5.182,2.974 1.301,-2.958 0.852,-5.348 -0.014,-7.634 -3.259,-8.596 -6.564,-17.175 -9.939,-25.727 -1.253,-3.177 -2.744,-6.26 -4.378,-9.952 3.135,-0.463 5.769,-0.864 8.408,-1.237 2.987,-0.422 5.984,-0.777 8.965,-1.237 2.27,-0.351 3.486,-1.543 3.561,-4.057 0.067,-2.254 0.641,-4.494 1.066,-7.215 5.717,3.93 10.988,7.554 16.729,11.501 0.898,-2.227 1.578,-3.769 2.147,-5.351 2.764,-7.681 4.709,-15.593 6.706,-23.495 0.427,-1.69 0.153,-3.777 2.23,-4.888 0.472,-0.252 0.632,-1.622 0.496,-2.4 -1.422,-8.131 -0.025,-16.32 -0.589,-24.462 -0.166,-2.387 -0.415,-4.769 -0.626,-7.154 -0.317,-0.031 -0.634,-0.061 -0.952,-0.092 -0.272,1.422 -0.545,2.843 -0.868,4.525 -4.803,1.728 -9.911,2.05 -15.513,2.072 0.419,-4.023 0.407,-8.081 1.368,-11.895 0.873,-3.466 0.59,-6.459 -1.086,-9.637 -0.948,0.897 -1.718,1.993 -3.364,0.962 -2.429,-1.522 -5.038,-2.77 -7.627,-4.019 -1.947,-0.939 -2.437,-2.477 -2.686,-4.501 -0.772,-6.263 -1.571,-12.537 -2.739,-18.734 -1.76,-9.337 -3.64,-18.618 -2.837,-28.222 0.273,-3.264 0.189,-6.618 -2.49,-10.176"
       style="fill:#2d0956;fill-opacity:1;fill-rule:nonzero;stroke:none"
       transform="matrix(1.3333333,0,0,-1.3333333,2379.6755,528.73907)"
       clip-path="url(#clipPath200)" />
    <path
       id="path201"
       d="M 0,0 C -0.934,0.346 -1.867,0.692 -2.998,1.11 -2.602,-1.178 -2.602,-1.178 0,0 m -38.317,-14.879 c -1.874,-3.515 -1.853,-4.359 -0.269,-5.962 3.044,-3.079 7.851,-2.984 10.741,0.254 1.057,1.184 2.148,2.398 1.174,4.2 -1.017,1.88 -2.195,3.38 -4.658,2.561 0.034,-1.515 0.089,-2.909 0.089,-4.302 0,-1.869 -0.959,-3.036 -2.806,-3.185 -1.737,-0.14 -3.128,0.65 -3.665,2.378 -0.331,1.067 -0.348,2.231 -0.606,4.056 m 16.415,-34.693 c 1.767,2.704 0.253,5.081 -0.246,7.78 -2.068,0.354 -4.127,0.706 -5.99,1.025 -2.565,-3.273 -4.862,-6.205 -7.338,-9.365 4.847,-1.001 7.655,-0.859 13.574,0.56 m 13.49,32.456 c -0.124,-2.879 -0.231,-5.376 -0.346,-8.058 2.961,0.758 4.757,2.949 6.129,5.429 0.804,1.454 1.443,3.198 1.493,4.832 0.129,4.208 -2.98,5.915 -6.576,3.812 -0.859,-0.503 -1.664,-1.109 -2.553,-1.548 -3.321,-1.641 -5.073,-4.561 -6.196,-7.861 -0.929,-2.727 0.021,-3.981 3.495,-5.099 0.586,3.035 -1.343,7.258 4.554,8.493 M -35.37,-27.03 c -3.839,0.885 -5.689,2.768 -6.189,6.48 -0.498,3.692 -0.214,7.29 1.762,10.762 -2.788,-2.471 -5.269,-5.029 -7.237,-7.936 -1.989,-2.937 -1.115,-6.992 1.638,-9.468 0.293,1.095 0.567,2.113 0.856,3.194 1.718,-0.955 3.133,-2.009 4.723,-2.544 1.383,-0.466 2.963,-0.345 4.456,-0.484 -0.166,-1.548 0.98,-1.924 2.088,-2.224 3.185,-0.863 6.344,-1.986 9.592,-2.415 4.356,-0.575 8.785,-0.595 13.333,-0.862 0.203,-1.131 0.421,-2.345 0.641,-3.57 7.078,1.742 10.33,6.408 8.22,11.711 -0.887,-0.987 -1.623,-2.096 -2.625,-2.852 -1.585,-1.195 -3.225,-2.508 -5.058,-3.142 -4.592,-1.587 -7.937,0.456 -9.018,5.179 -0.943,4.118 -0.24,7.983 1.848,11.63 0.588,1.027 1.116,2.089 1.87,3.51 -5.297,0.831 -9.949,1.561 -14.6,2.291 3.843,-3.366 5.108,-7.349 4.665,-11.91 -0.551,-5.671 -5.709,-9.044 -10.965,-7.35 m 4.892,-49.783 c -3.827,0.911 -4.539,2.929 -2.626,5.166 0.598,0.699 1.414,1.485 1.502,2.3 0.478,4.397 0.759,8.816 1.097,13.096 -4.861,2.054 -8.377,0.903 -11.035,-3.177 -0.94,-1.443 -2.07,-2.761 -3.098,-4.147 -1.335,-1.801 -2.994,-3.045 -5.549,-3.304 -2.019,3.262 -1.618,6.571 -0.116,10.095 0.79,-1.434 1.58,-2.868 2.614,-4.746 1.126,1.301 2.154,2.276 2.927,3.423 2.287,3.393 5.69,6.007 6.744,10.3 0.345,1.405 1.826,2.533 2.796,3.78 0.859,1.103 1.732,2.196 2.206,4.048 -2.761,-0.886 -5.657,-1.491 -8.245,-2.737 -2.619,-1.262 -4.933,-3.16 -7.65,-4.957 -0.646,1.223 -1.143,2.164 -1.713,3.244 -1.749,-0.226 -3.554,-0.459 -5.507,-0.711 -0.751,2.169 -1.331,3.948 0.696,5.607 0.498,0.408 0.528,1.499 0.601,2.291 0.116,1.247 0.086,2.508 0.118,3.776 5.58,-0.433 5.58,-0.433 9.413,-5.642 1.561,0.535 3.243,1.111 5.802,1.988 -4.833,3.199 -9.288,5.79 -10.354,11.824 -2.134,-1.903 -3.841,-3.425 -5.857,-5.223 -0.678,1.319 -1.107,2.156 -1.574,3.065 -0.381,-0.031 -0.815,0.015 -1.191,-0.113 -1.592,-0.541 -3.136,-0.849 -4.147,0.946 -0.878,1.558 -0.459,5.01 0.875,6.007 1.363,1.02 2.934,1.76 4.601,2.731 -0.708,2.117 -2.538,4.225 -0.589,7.132 2.659,-1.67 5.268,-3.31 7.58,-4.762 3.948,4.352 7.781,8.577 11.614,12.803 0.919,2.066 0.85,4.524 0.562,6.969 -0.334,0.131 -0.667,0.262 -1.001,0.393 -0.144,-0.377 -0.509,-0.842 -0.398,-1.116 1.415,-3.513 0.014,-5.704 -3.121,-7.322 -2.11,-1.089 -4.077,-2.458 -6.347,-3.847 -0.939,2.565 -0.921,4.352 0.26,6.243 4.331,6.938 7.259,9.906 11.413,10.91 0.329,-1.935 0.757,-3.84 0.956,-5.769 0.247,-2.412 0.524,-4.858 0.37,-7.262 -0.101,-1.565 -0.948,-3.082 -1.462,-4.62 2.166,0.18 2.166,0.18 2.588,4.846 3.06,0.974 6.166,0.144 9.221,-0.235 3.847,-0.477 7.653,-1.28 11.478,-1.927 3.576,-0.605 7.978,3.038 8.161,6.718 0.094,1.91 -0.643,4.32 2.41,4.642 2.683,0.284 5.938,-2.14 6.455,-4.683 0.752,-3.698 -0.081,-5.246 -3.769,-7.58 0.65,-4.281 1.267,-8.341 1.946,-12.81 2.726,1.084 5.55,2.206 8.498,3.377 1.394,-3.023 0.741,-5.253 -2.41,-7.493 2.87,-0.37 4.666,-0.619 6.466,-0.828 1.624,-0.189 2.627,-0.839 2.686,-2.696 0.061,-1.908 -0.571,-2.958 -2.565,-3.222 -2.21,-0.293 -4.723,-0.247 -5.313,-3.506 -2.597,0.942 -5.926,0.013 -7.258,4.521 -1.74,-9.597 -8.16,-12.563 -16.365,-13.49 2.696,-1.933 5.74,-2.128 8.8,-2.597 3.275,3.54 5.488,8.078 10.105,10.479 1.759,-3.234 0.14,-5.532 -1.57,-8.285 1.887,-0.147 3.347,-0.261 5.046,-0.394 0.033,-1.491 0.064,-2.865 0.106,-4.783 -3.002,-0.641 -6.037,-1.334 -9.093,-1.923 -1.666,-0.322 -3.2,-0.25 -4.048,-2.443 -0.579,-1.498 -2.478,-2.484 -4.287,-4.164 -0.189,2.582 -0.351,4.776 -0.523,7.13 -2.75,0.906 -5.452,1.797 -8.127,2.678 -0.234,-0.329 -0.495,-0.534 -0.533,-0.773 -1.02,-6.419 -1.016,-6.42 -9.376,-8.264 -0.61,-6.75 -1.236,-13.674 -1.896,-20.977"
       style="fill:#2d0956;fill-opacity:1;fill-rule:nonzero;stroke:none"
       transform="matrix(1.3333333,0,0,-1.3333333,2371.0297,412.09227)"
       clip-path="url(#clipPath202)" />
    <path
       id="path203"
       d="m 0,0 c 0.041,-1.847 0.28,-3.021 0.015,-4.068 -0.176,-0.696 -1.062,-1.718 -1.646,-1.729 -6.926,-0.126 -12.858,-3.727 -19.33,-5.401 -2.078,-0.537 -4.103,-1.281 -5.405,-1.693 -1.628,-2.597 -2.883,-4.6 -4.468,-7.13 1.488,-3.975 -1.139,-6.556 -4.739,-8.711 -2.906,-1.74 -5.742,-3.599 -8.379,-6.215 5.899,0.13 11.798,0.261 17.552,0.389 1.539,-4.662 1.282,-5.459 -2.315,-7.211 -1.905,-0.928 -3.886,-1.7 -6.403,-2.789 1.591,-0.462 2.513,-0.776 3.458,-0.993 1.517,-0.35 2.641,-0.939 2.732,-2.778 0.092,-1.871 -0.121,-3.517 -2.11,-4.235 -1.889,-0.682 -3.824,-1.239 -5.75,-1.81 -1.196,-0.354 -2.413,-0.632 -4.391,-1.144 1.621,-0.882 2.576,-1.347 3.477,-1.9 2.983,-1.832 2.98,-5.748 -0.26,-7.134 -2.069,-0.884 -3.234,-2.088 -3.593,-4.333 -3.951,0.264 -7.653,0.511 -11.737,0.784 -0.116,1.548 -0.217,2.906 -0.343,4.589 3.711,0.714 7.184,1.382 10.912,2.099 -0.9,2.128 -2.847,1.967 -4.285,2.558 -3.74,1.538 -3.873,1.707 -3.271,6.565 3.241,0.712 6.639,1.459 10.038,2.206 -0.003,0.218 -0.005,0.436 -0.007,0.654 -3.067,0.361 -6.133,0.721 -9.377,1.102 -0.039,1.723 -0.069,3.106 -0.105,4.721 3.305,0.984 6.534,1.945 9.764,2.906 -0.044,0.253 -0.088,0.505 -0.131,0.757 -1.823,-0.04 -3.649,-0.17 -5.468,-0.103 -4.686,0.173 -6.025,2.364 -4.244,6.84 0.157,0.394 0.427,0.743 0.817,1.406 -1.272,-0.187 -2.315,-0.341 -3.346,-0.493 -0.873,2.387 -0.781,4.372 0.849,5.534 -0.695,1.868 -1.294,3.478 -1.94,5.212 -1.571,-0.596 -3.249,-1.234 -5.093,-1.935 -1.201,2.21 -1.314,4.327 -0.116,5.972 4.73,6.495 9.653,12.849 14.571,19.205 0.463,0.598 1.386,0.839 2.303,1.366 0.799,-2.556 0.442,-4.06 -1.415,-5.912 -3.724,-3.714 -6.898,-7.981 -9.939,-12.451 7.208,3.197 13.6,7.644 20.281,11.767 1.312,-3.06 0.655,-4.984 -1.774,-6.643 -2.588,-1.769 -4.939,-3.887 -7.051,-6.479 4.29,1.785 8.58,3.57 12.869,5.356 0.131,0.054 0.348,0.103 0.368,0.191 1.022,4.42 5.189,3.839 8.153,4.94 5.25,1.951 10.646,3.509 15.994,5.187 C -3.074,-0.606 -1.813,-0.411 0,0"
       style="fill:#2d0956;fill-opacity:1;fill-rule:nonzero;stroke:none"
       transform="matrix(1.3333333,0,0,-1.3333333,2680.5007,440.70347)"
       clip-path="url(#clipPath204)" />
    <path
       id="path205"
       d="M 0,0 0.8,0.38 C 0.316,1.346 -0.168,2.313 -0.652,3.279 L -1.331,2.952 C -0.887,1.968 -0.444,0.984 0,0 m -40.092,2.881 c -6.331,-7.433 -1.95,-19.373 7.313,-21.542 -5.627,5.923 -7.08,13.108 -7.313,21.542 m 27.975,5.296 c -7.044,1.614 -10.8,-0.582 -11.645,-6.465 -0.579,-4.034 2.265,-6.76 6.168,-5.638 1.871,0.539 3.706,1.526 5.291,2.677 3.277,2.381 3.357,3.454 1.255,7.048 -0.423,0.724 -0.696,1.536 -1.069,2.378 M -6.629,4.832 C -6.926,4.663 -7.222,4.494 -7.518,4.325 c -0.426,-7.528 -3.136,-11.264 -9.426,-12.996 -3.752,-1.033 -6.585,0.367 -7.776,4.04 -0.481,1.483 -0.874,3.115 -0.77,4.642 0.22,3.218 0.794,6.411 1.275,10.004 -1.626,0.06 -3.331,0.36 -4.964,0.137 -4.474,-0.61 -8.072,-3.619 -8.847,-7.111 -1.89,-8.519 4.636,-19.02 13.195,-21.02 1.297,-0.303 2.993,-0.331 4.109,0.261 7.23,3.834 14.861,7.246 19.073,15.472 -1.632,2.32 -3.306,4.699 -4.98,7.078 M -22,-26.902 c -4.601,0.96 -8.877,1.57 -12.973,2.789 -3.824,1.138 -6.693,3.827 -8.731,7.304 -4.324,7.375 -3.438,17.677 2.018,24.281 5.18,6.269 11.992,9.145 19.922,9.714 2.975,0.213 5.606,-0.904 8.199,-2.239 2.153,-1.109 4.356,-2.183 6.643,-2.963 C 1.336,9.167 4.238,3.449 1.497,-4.859 1.184,-5.806 0.854,-6.775 0.746,-7.757 c -0.858,-7.82 -5.464,-12.837 -12.3,-15.882 -3.351,-1.493 -7.04,-2.226 -10.446,-3.263"
       style="fill:#2d0956;fill-opacity:1;fill-rule:nonzero;stroke:none"
       transform="matrix(1.3333333,0,0,-1.3333333,2483.1947,406.20133)"
       clip-path="url(#clipPath206)" />
    <path
       id="path207"
       d="m 0,0 c -0.337,-0.05 -0.673,-0.099 -1.01,-0.149 0.149,-2.153 0.297,-4.307 0.446,-6.46 0.236,0.018 0.473,0.036 0.709,0.054 C 0.097,-4.37 0.048,-2.185 0,0 M 0.51,7.492 C 0.914,6.199 1.551,4.927 1.676,3.608 1.947,0.749 1.794,-2.155 2.139,-5 2.318,-6.474 2.83,-8.208 3.808,-9.237 c 7.997,-8.419 8.041,-8.377 19.93,-9.056 0.43,-0.025 0.877,0.017 1.289,-0.084 2.599,-0.634 3.921,0.707 5.029,2.873 4.667,9.131 1.236,22.485 -7.309,28.1 -2.718,1.786 -5.691,2.741 -8.943,2.688 -0.813,-0.013 -2.233,-0.19 -2.328,-0.562 -0.553,-2.14 -2.4,-1.638 -3.752,-2.178 C 5.465,11.643 3.208,10.708 1.06,9.579 0.641,9.359 0.72,8.19 0.525,7.482 -2.087,8.187 -3.393,6.445 -3.854,4.497 -4.669,1.061 -5.367,-2.494 -5.38,-6.002 c -0.015,-3.733 1.675,-5.937 3.744,-7.05 -0.314,4.319 -0.903,8.963 -0.886,13.605 0.009,2.527 0.048,5.503 3.032,6.939 M -9.173,-6.161 c 0.765,4.809 1.206,9.698 2.378,14.405 1.427,5.725 5.009,9.691 11.194,10.555 3.678,0.514 7.44,1.466 11.063,1.131 8.481,-0.784 15.043,-7.441 17.248,-17.032 2.024,-8.805 1.588,-17.434 -2.964,-25.514 -0.385,-0.684 -1.044,-1.262 -1.684,-1.747 -3.316,-2.51 -7.092,-3.816 -11.235,-3.825 -3.734,-0.008 -7.504,-0.082 -11.194,0.38 -6.978,0.873 -12.657,7.022 -13.846,14.677 -0.352,2.266 -0.362,4.586 -0.529,6.881 -0.144,0.03 -0.288,0.06 -0.431,0.089"
       style="fill:#2d0956;fill-opacity:1;fill-rule:nonzero;stroke:none"
       transform="matrix(1.3333333,0,0,-1.3333333,2292.3016,574.1936)"
       clip-path="url(#clipPath208)" />
    <path
       id="path209"
       d="M 0,0 C 0.216,-0.098 0.432,-0.195 0.649,-0.292 1.521,1.682 2.393,3.656 3.266,5.631 2.966,5.792 2.667,5.953 2.367,6.114 1.578,4.076 0.789,2.038 0,0 M 4.927,5.776 C 3.363,1.406 1.229,-2.76 -0.535,-6.716 c 2.324,0.343 4.663,1.84 5.919,5.356 1.181,3.303 1.734,6.884 2.137,10.391 0.229,1.99 -0.406,4.072 -3.102,4.297 0.058,0.733 0.529,1.805 0.21,2.155 -1.635,1.793 -3.439,3.439 -5.257,5.055 -1.088,0.968 -2.996,1.124 -2.787,3.325 0.037,0.382 -1.238,1.032 -1.998,1.321 -3.039,1.156 -6.161,1.269 -9.324,0.514 -9.945,-2.372 -17.716,-13.762 -16.434,-23.936 0.305,-2.414 1.092,-4.124 3.752,-4.413 0.421,-0.045 0.827,-0.236 1.24,-0.36 11.411,-3.406 11.438,-3.46 21.822,1.735 1.27,0.635 2.341,2.091 3.011,3.416 1.293,2.559 2.137,5.341 3.365,7.937 0.566,1.198 1.597,2.177 2.418,3.256 2.317,-2.366 1.341,-5.177 0.49,-7.557 M 8.461,-2.737 C 7.523,-4.839 6.724,-7.016 5.622,-9.028 c -3.723,-6.794 -11.155,-10.643 -18.014,-9.09 -3.627,0.821 -7.147,2.174 -10.655,3.452 -3.893,1.418 -6.999,3.931 -9.264,7.42 -0.436,0.673 -0.859,1.441 -0.989,2.215 -1.531,9.147 0.996,17.409 5.895,25 5.336,8.269 13.772,12.295 22.013,10.147 3.522,-0.918 6.735,-3.092 10.019,-4.827 5.521,-2.917 7.541,-7.866 6.934,-13.734 C 11.062,6.73 9.813,1.982 8.897,-2.8 8.752,-2.779 8.606,-2.758 8.461,-2.737"
       style="fill:#2d0956;fill-opacity:1;fill-rule:nonzero;stroke:none"
       transform="matrix(1.3333333,0,0,-1.3333333,890.93547,548.36213)"
       clip-path="url(#clipPath210)" />
    <path
       id="path211"
       d="m 0,0 c -0.341,-0.116 -0.681,-0.231 -1.021,-0.347 1.075,-3.09 2.151,-6.18 3.227,-9.27 0.499,0.132 0.997,0.263 1.496,0.394 C 2.468,-6.149 1.234,-3.074 0,0 M 0.515,-11.496 C -2.273,-5.036 -4.217,1.787 -6.353,7.994 -8.574,5.21 -9.617,1.133 -7.372,-4.062 c 2.109,-4.881 5.199,-9.421 8.38,-13.724 1.805,-2.441 4.661,-4.092 7.882,-1.553 0.694,-0.87 1.28,-2.547 1.996,-2.604 3.666,-0.294 7.368,-0.253 11.053,-0.164 2.207,0.054 4.482,1.854 6.527,-0.801 0.355,-0.461 2.44,0.138 3.58,0.604 4.564,1.863 8.139,4.966 10.863,9.075 8.565,12.915 5.394,33.571 -6.55,43.518 -2.834,2.36 -5.476,3.441 -8.721,1.009 C 27.124,30.913 26.477,30.705 25.891,30.414 9.725,22.385 9.639,22.417 3.507,5.92 2.758,3.903 3.077,1.182 3.706,-0.979 c 1.213,-4.172 3.155,-8.128 4.48,-12.274 0.612,-1.914 0.483,-4.065 0.689,-6.109 -5.015,0.225 -6.841,4.349 -8.36,7.866 m -12.721,5.777 c -1.134,3.298 -2.502,6.537 -3.361,9.906 -2.902,11.379 1.35,23.331 10.557,28.705 4.868,2.842 10.167,4.984 15.376,7.196 5.78,2.456 11.82,2.885 17.938,1.361 1.18,-0.294 2.443,-0.707 3.387,-1.431 C 42.849,31.467 48.595,19.7 51.019,6.222 53.659,-8.46 48.478,-21.647 37.124,-27.791 c -4.85,-2.625 -10.66,-3.539 -16.093,-5.014 -9.135,-2.479 -16.491,0.915 -21.889,8.045 -4.438,5.861 -7.965,12.413 -11.896,18.66 0.183,0.127 0.366,0.254 0.548,0.381"
       style="fill:#2d0956;fill-opacity:1;fill-rule:nonzero;stroke:none"
       transform="matrix(1.3333333,0,0,-1.3333333,1026.2967,902.03413)"
       clip-path="url(#clipPath212)" />
    <path
       id="path213"
       d="m 0,0 c 1.56,-4.469 1.404,-5.148 -2.332,-7.18 -5.047,-2.745 -10.169,-5.351 -15.245,-8.042 -1.381,-0.732 -2.713,-1.554 -3.993,-3.068 4.527,-0.039 9.054,-0.077 13.414,-0.115 1.281,-5.395 1.133,-5.753 -3.02,-7.475 -4.341,-1.799 -8.701,-3.551 -12.967,-6.177 1.181,0.026 2.365,0.113 3.543,0.066 2.293,-0.092 4.595,-0.157 6.87,-0.431 1.607,-0.193 3.077,-0.756 3.203,-2.833 0.119,-1.972 0.078,-3.781 -2.212,-4.548 -0.408,-0.137 -0.798,-0.327 -1.203,-0.472 -11.995,-4.311 -23.99,-8.619 -36.419,-13.083 -0.136,1.29 -0.275,2.615 -0.475,4.521 10.246,3.822 20.375,7.599 30.503,11.377 -7.332,0.985 -14.319,-1.494 -21.435,-1.619 -0.896,4.504 -0.925,4.738 2.557,6.339 5.086,2.339 10.278,4.447 15.428,6.644 1.44,0.615 2.892,1.2 5.235,2.169 -4.574,0.992 -8.333,-0.691 -11.939,0.123 -1.246,4.186 -1.229,4.847 2.027,6.955 4.334,2.805 8.851,5.333 13.347,7.878 2.748,1.555 5.669,2.808 8.391,4.405 C -4.392,-3.198 -2.235,-1.534 0,0"
       style="fill:#2d0956;fill-opacity:1;fill-rule:nonzero;stroke:none"
       transform="matrix(1.3333333,0,0,-1.3333333,2702.0199,451.0028)"
       clip-path="url(#clipPath214)" />
    <path
       id="path215"
       d="M 0,0 C 3.3,-2.213 6.451,-4.325 10.209,-6.844 9.93,-3.397 9.895,-0.845 9.479,1.644 8.968,4.697 11.873,5.939 13.083,8.46 12.025,8.641 11.374,8.791 10.714,8.858 6.476,9.29 6.497,9.288 5.824,13.651 5.443,16.125 4.978,18.586 4.55,21.052 4.266,21.123 3.982,21.193 3.697,21.263 2.587,19.496 1.275,17.82 0.42,15.937 -0.497,13.921 -0.984,11.709 -1.806,9.116 -3.937,9.069 -6.292,9.017 -8.419,8.969 -8.538,4.012 -8.646,-0.492 -8.776,-5.916 -5.507,-3.713 -2.839,-1.914 0,0 m 4.183,27.789 c 3.019,-4.435 1.98,-9.225 3.68,-13.65 3.598,-0.52 7.37,-1.066 10.955,-1.584 1.211,-3.02 0.719,-5.159 -1.772,-6.696 -0.121,-0.075 -0.213,-0.197 -0.335,-0.271 -4.447,-2.673 -6.438,-6.17 -4.495,-11.49 0.628,-1.721 0.177,-3.837 0.229,-6.176 -5.146,1.338 -8.481,4.605 -12.113,6.988 -3.299,-2.016 -6.428,-3.928 -10.292,-6.289 -0.331,2.655 -0.709,4.432 -0.733,6.214 -0.027,2.004 0.183,4.024 0.444,6.016 0.267,2.037 -0.091,3.681 -2.041,4.736 -0.492,0.266 -0.924,0.697 -1.294,1.13 -2.372,2.773 -1.274,5.973 2.291,6.709 0.421,0.087 0.868,0.222 1.279,0.164 4.795,-0.678 7.24,1.899 9.067,5.969 1.258,2.801 3.25,5.271 5.13,8.23"
       style="fill:#2d0956;fill-opacity:1;fill-rule:nonzero;stroke:none"
       transform="matrix(1.3333333,0,0,-1.3333333,2402.6071,626.712)"
       clip-path="url(#clipPath216)" />
    <path
       id="path217"
       d="m 0,0 c 1.723,5.144 3.154,9.416 4.729,14.119 -1.984,0.768 -4.181,1.618 -6.168,2.387 0.109,2.719 0.403,4.964 0.227,7.172 -0.163,2.062 -0.826,4.084 -1.269,6.124 l -0.874,0.091 c -1.241,-2.174 -2.516,-4.329 -3.716,-6.525 -2.117,-3.875 -2.097,-3.879 -6.23,-2.844 -0.643,0.161 -1.306,0.242 -2.363,0.432 0.28,-2.782 2.59,-4.939 1.071,-7.636 -1.239,-2.198 -2.14,-4.587 -3.575,-7.733 4.391,1.09 8.072,2.004 11.929,2.962 C -4.221,5.784 -2.324,3.184 0,0 M 1.306,26.619 C 1.64,22.169 3.061,18.915 7.801,17.921 8.207,17.836 8.581,17.557 8.948,17.332 12.05,15.426 11.994,12.044 8.819,10.243 8.324,9.962 7.772,9.704 7.218,9.621 5.025,9.292 4.129,7.868 3.688,5.862 3.256,3.9 2.765,1.929 2.058,0.054 1.43,-1.614 0.469,-3.156 -0.746,-5.54 -3.575,-2.005 -5.867,0.858 -8.283,3.875 -12.51,2.871 -16.757,0.934 -22.051,1.427 c 0.844,2.181 1.14,4.324 2.316,5.728 3.638,4.342 2.955,8.308 -0.317,12.335 -0.09,0.11 -0.135,0.257 -0.223,0.368 -1.819,2.294 -1.554,4.472 0.612,6.9 3.548,-0.733 7.281,-1.503 10.84,-2.238 3.105,3.583 3.757,8.441 8.106,11.583 0.761,-3.422 1.794,-6.422 2.023,-9.484"
       style="fill:#2d0956;fill-opacity:1;fill-rule:nonzero;stroke:none"
       transform="matrix(1.3333333,0,0,-1.3333333,2423.968,932.66693)"
       clip-path="url(#clipPath218)" />
    <path
       id="path219"
       d="m 0,0 c 1.723,5.144 3.154,9.416 4.729,14.119 -1.984,0.768 -4.181,1.618 -6.168,2.387 0.109,2.719 0.403,4.964 0.228,7.172 -0.164,2.062 -0.827,4.084 -1.27,6.124 -0.292,0.03 -0.583,0.061 -0.874,0.091 -1.241,-2.174 -2.516,-4.329 -3.716,-6.525 -2.117,-3.875 -2.097,-3.879 -6.229,-2.844 -0.644,0.161 -1.307,0.242 -2.364,0.432 0.28,-2.782 2.59,-4.939 1.071,-7.636 -1.239,-2.198 -2.14,-4.587 -3.575,-7.733 4.391,1.09 8.072,2.004 11.929,2.962 C -4.221,5.784 -2.324,3.184 0,0 M 1.306,26.619 C 1.64,22.169 3.061,18.915 7.801,17.921 8.207,17.836 8.581,17.557 8.948,17.332 12.05,15.427 11.994,12.044 8.819,10.243 8.324,9.962 7.772,9.704 7.218,9.621 5.025,9.292 4.129,7.868 3.688,5.862 3.256,3.9 2.765,1.929 2.058,0.054 1.43,-1.614 0.469,-3.156 -0.746,-5.54 -3.575,-2.005 -5.867,0.858 -8.283,3.875 -12.51,2.871 -16.757,0.934 -22.051,1.427 c 0.844,2.181 1.14,4.324 2.316,5.728 3.638,4.342 2.955,8.308 -0.317,12.335 -0.09,0.11 -0.135,0.257 -0.223,0.368 -1.819,2.294 -1.554,4.472 0.613,6.9 3.547,-0.733 7.28,-1.503 10.839,-2.238 3.105,3.583 3.757,8.441 8.106,11.583 0.761,-3.422 1.794,-6.422 2.023,-9.484"
       style="fill:#2d0956;fill-opacity:1;fill-rule:nonzero;stroke:none"
       transform="matrix(1.3333333,0,0,-1.3333333,1162.9119,512.78453)"
       clip-path="url(#clipPath220)" />
    <path
       id="path221"
       d="m 0,0 c 0.052,1.595 0.088,2.696 0.124,3.817 2.368,1.101 4.135,0.143 5.725,-1.11 4.434,-3.494 6.349,-8.139 5.483,-13.693 -0.214,-1.375 -1.301,-2.927 -2.445,-3.784 -3.524,-2.642 -7.65,-3.985 -12.036,-4.223 -4.646,-0.251 -8.059,2.491 -8.77,7.142 -0.387,2.535 -0.463,5.181 -0.229,7.736 0.415,4.513 4.158,7.806 9.737,8.628 0.136,-1.344 0.27,-2.668 0.371,-3.655 -2.352,-1.378 -4.461,-2.32 -6.215,-3.712 -2.435,-1.932 -3.06,-4.736 -1.921,-7.36 1.141,-2.629 3.241,-3.933 6.117,-3.962 4.467,-0.046 8.442,1.474 12.163,3.813 1.651,1.037 1.909,2.403 0.966,4.048 C 7.123,-2.915 4.524,-0.387 0,0"
       style="fill:#2d0956;fill-opacity:1;fill-rule:nonzero;stroke:none"
       transform="matrix(1.3333333,0,0,-1.3333333,2350.4124,379.03)"
       clip-path="url(#clipPath222)" />
    <path
       id="path223"
       d="m 0,0 c 0.494,1.518 0.835,2.565 1.182,3.632 -1.852,1.841 -3.839,1.541 -5.761,0.904 -5.358,-1.777 -8.74,-5.494 -9.815,-11.011 -0.267,-1.365 0.227,-3.194 1.012,-4.39 2.414,-3.683 5.838,-6.351 9.881,-8.066 4.283,-1.817 8.426,-0.4 10.676,3.731 1.227,2.253 2.199,4.715 2.848,7.197 C 11.168,-3.618 8.769,0.752 3.802,3.423 3.217,2.206 2.641,1.007 2.211,0.113 c 1.742,-2.096 3.404,-3.7 4.58,-5.605 1.633,-2.645 1.267,-5.495 -0.697,-7.575 -1.968,-2.084 -4.386,-2.595 -7.101,-1.645 -4.216,1.477 -7.436,4.259 -10.139,7.725 -1.2,1.537 -0.978,2.909 0.468,4.135 C -7.69,-0.318 -4.386,1.176 0,0"
       style="fill:#2d0956;fill-opacity:1;fill-rule:nonzero;stroke:none"
       transform="matrix(1.3333333,0,0,-1.3333333,1141.4621,346.30307)"
       clip-path="url(#clipPath224)" />
    <path
       id="path225"
       d="m 0,0 c -1.374,-0.679 -2.339,-1.156 -3.819,-1.887 0.124,4.08 0.232,7.654 0.361,11.946 C -2.041,8.903 -1.027,8.076 0.055,7.193 1.287,7.974 2.551,8.776 4.285,9.876 4.633,5.002 5.701,0.634 2.003,-3.351 1.564,-2.792 1.136,-2.332 0.814,-1.808 0.523,-1.335 0.348,-0.791 0,0"
       style="fill:#2d0956;fill-opacity:1;fill-rule:nonzero;stroke:none"
       transform="matrix(1.3333333,0,0,-1.3333333,2443.4233,621.48893)"
       clip-path="url(#clipPath226)" />
    <path
       id="path227"
       d="M 0,0 C 2.282,0.579 4.037,1.024 6.147,1.559 6.268,0.813 6.61,-0.252 6.571,-1.302 6.508,-3.001 6.356,-4.438 7.619,-6.05 8.972,-7.777 8.088,-9.426 5.436,-11.671 4.574,-10.328 3.71,-8.983 2.66,-7.348 1.312,-8.361 0.249,-9.16 -1.016,-10.11 -2.96,-6.184 1.42,-3.328 0,0"
       style="fill:#2d0956;fill-opacity:1;fill-rule:nonzero;stroke:none"
       transform="matrix(1.3333333,0,0,-1.3333333,2347.7707,580.85187)"
       clip-path="url(#clipPath228)" />
    <path
       id="path229"
       d="M 0,0 C 0.109,2.433 0.18,4.024 0.237,5.291 4.954,6.104 9.065,6.813 13.487,7.576 13.618,5.974 13.719,4.75 13.848,3.18 9.395,2.157 5.128,1.178 0,0"
       style="fill:#2d0956;fill-opacity:1;fill-rule:nonzero;stroke:none"
       transform="matrix(1.3333333,0,0,-1.3333333,2652.4973,469.1424)"
       clip-path="url(#clipPath230)" />
    <path
       id="path231"
       d="m 0,0 c -3.238,0.357 -5.997,0.661 -9.153,1.01 0.042,1.57 0.086,3.176 0.138,5.058 3.214,-0.577 5.942,-1.066 8.916,-1.6 C -0.073,3.303 -0.046,2.077 0,0"
       style="fill:#2d0956;fill-opacity:1;fill-rule:nonzero;stroke:none"
       transform="matrix(1.3333333,0,0,-1.3333333,2649.3031,542.70787)"
       clip-path="url(#clipPath232)" />
    <path
       id="path233"
       d="M 0,0 C 5.523,-1.734 7.12,-3.738 6.163,-7.735 -1.387,-4.531 -1.375,-3.521 0,0"
       style="fill:#2d0956;fill-opacity:1;fill-rule:nonzero;stroke:none"
       transform="matrix(1.3333333,0,0,-1.3333333,2624.248,544.06187)"
       clip-path="url(#clipPath234)" />
    <path
       id="path235"
       d="M 0,0 C -2.299,1.49 -1.9,3.394 -1.468,5.469 -0.432,5.492 0.479,5.512 1.419,5.533 2.278,3.305 2.16,1.521 0,0"
       style="fill:#2d0956;fill-opacity:1;fill-rule:nonzero;stroke:none"
       transform="matrix(1.3333333,0,0,-1.3333333,2659.1732,533.30507)"
       clip-path="url(#clipPath236)" />
    <path
       id="path237"
       d="M 0,0 C -0.036,1.613 -0.06,2.728 -0.095,4.295 2.422,4.872 4.883,5.437 7.709,6.085 6.423,6.723 5.3,7.281 4.264,7.795 c -0.626,4.885 -0.571,5.163 3.903,5.861 3.962,0.617 7.98,0.978 11.988,1.183 8.461,0.434 16.945,0.559 25.14,3.135 0.781,0.246 1.667,0.16 2.722,0.246 0.388,-1.133 0.741,-2.163 1.24,-3.619 3.375,0.251 6.755,0.503 10.315,0.768 0.221,1.429 0.408,2.637 0.648,4.191 0.927,-0.559 1.588,-1.276 2.185,-1.226 0.564,0.048 1.06,0.902 2.105,1.894 0.326,-2.418 0.564,-4.189 0.837,-6.215 1.374,0.181 2.722,0.36 4.057,0.536 1.012,-4.214 1.046,-4.453 -2.59,-5.255 C 60.791,7.964 54.737,6.666 48.631,5.845 36.548,4.222 24.42,2.939 12.312,1.506 8.346,1.036 4.383,0.537 0,0"
       style="fill:#2d0956;fill-opacity:1;fill-rule:nonzero;stroke:none"
       transform="matrix(1.3333333,0,0,-1.3333333,2467.5795,563.61813)"
       clip-path="url(#clipPath238)" />
    <path
       id="path239"
       d="M 0,0 C 1.605,0.84 2.988,1.563 4.365,2.284 5.803,-2.134 5.497,-2.781 0.992,-4.783 -0.711,-3.381 0.092,-1.505 0,0"
       style="fill:#2d0956;fill-opacity:1;fill-rule:nonzero;stroke:none"
       transform="matrix(1.3333333,0,0,-1.3333333,2493.6565,566.5864)"
       clip-path="url(#clipPath240)" />
    <path
       id="path241"
       d="M 0,0 C -0.042,1.916 -0.075,3.386 -0.114,5.141 1.654,5.18 3.12,5.212 4.889,5.251 5.025,3.802 5.137,2.603 5.277,1.108 3.573,0.75 2.097,0.44 0,0"
       style="fill:#2d0956;fill-opacity:1;fill-rule:nonzero;stroke:none"
       transform="matrix(1.3333333,0,0,-1.3333333,2520.0569,565.5104)"
       clip-path="url(#clipPath242)" />
    <path
       id="path243"
       d="M 0,0 C 0.912,-4.33 0.912,-4.33 -1.825,-5.136 -2.924,-1.288 -2.924,-1.288 0,0"
       style="fill:#2d0956;fill-opacity:1;fill-rule:nonzero;stroke:none"
       transform="matrix(1.3333333,0,0,-1.3333333,2455.5541,563.39667)"
       clip-path="url(#clipPath244)" />
    <path
       id="path245"
       d="M 0,0 C -2.671,2.407 -2.75,3.836 -0.623,6.58 0.887,4.476 0.505,2.451 0,0"
       style="fill:#2d0956;fill-opacity:1;fill-rule:nonzero;stroke:none"
       transform="matrix(1.3333333,0,0,-1.3333333,2466.8045,483.66947)"
       clip-path="url(#clipPath246)" />
    <path
       id="path247"
       d="M 0,0 C -1.9,1.626 -2.091,3.572 -1.372,6.094 1.535,4.276 0.391,2.084 0,0"
       style="fill:#2d0956;fill-opacity:1;fill-rule:nonzero;stroke:none"
       transform="matrix(1.3333333,0,0,-1.3333333,2554.1572,496.1552)"
       clip-path="url(#clipPath248)" />
    <path
       id="path249"
       d="M 0,0 C -1.842,2.945 -1.833,3.121 0.014,5.329 1.297,3.024 1.297,3.024 0,0"
       style="fill:#2d0956;fill-opacity:1;fill-rule:nonzero;stroke:none"
       transform="matrix(1.3333333,0,0,-1.3333333,2411.4837,508.43027)"
       clip-path="url(#clipPath250)" />
    <path
       id="path251"
       d="M 0,0 C -0.028,0.213 -0.057,0.426 -0.085,0.639 H -2.098 C -2.062,0.294 -2.026,-0.05 -1.989,-0.395 -1.326,-0.263 -0.663,-0.131 0,0 M 45.724,8.965 C 45.426,9.148 45.128,9.33 44.83,9.512 43.577,7.523 42.323,5.533 41.07,3.544 c 0.282,-0.241 0.563,-0.482 0.844,-0.723 1.27,2.048 2.54,4.096 3.81,6.144 M 65.108,-4.848 C 66.802,0.437 64.796,20.032 62.111,24.658 54.933,17.308 50.731,8.194 45.3,-0.909 51.941,-4.625 58.636,-4.297 65.108,-4.848 m 17.776,-15.306 c -4.531,2.975 -9.127,5.871 -13.844,8.538 -3.721,2.103 -4.607,1.78 -6.962,-1.674 -5.391,3.902 -11.786,4.237 -18.191,4.713 -3.373,0.25 -3.637,0.693 -5.691,4.638 -8.217,2.13 -16.67,1.48 -25.925,2.096 8.502,-7.364 49.686,-23.02 77.512,-23.671 -2.292,1.799 -4.473,3.766 -6.899,5.36 m -20.832,-8.568 c 0.049,0.262 0.097,0.523 0.146,0.784 -5.995,1.424 -12.044,2.655 -17.968,4.332 -4.955,1.403 -9.762,3.329 -14.634,5.023 h 2.35 c 0.048,0.191 0.096,0.382 0.144,0.573 -1.789,0.684 -3.558,1.44 -5.391,1.971 -0.261,0.076 -0.837,-0.938 -1.268,-1.447 -1.331,0.293 -2.662,0.586 -3.993,0.88 -2.4,1.269 -4.8,2.539 -7.19,3.8 -3.243,1.785 -6.552,3.483 -9.729,5.401 -2.882,1.74 -5.195,4.537 -8.953,4.58 -0.212,0.002 -0.419,0.437 -0.779,0.838 0.048,0.871 0.107,1.95 0.167,3.042 1.919,0.514 4.225,0.436 5.225,1.541 C 2.417,5.07 5.09,5.076 7.852,5.002 12.775,4.87 17.707,4.697 22.608,4.238 27.819,3.751 32.997,2.913 38.184,2.229 c 5.498,10.863 11.818,20.91 22.13,27.853 4.183,2.817 6.617,2.272 7.773,-2.747 0.877,-3.814 1.209,-7.794 1.392,-11.718 0.23,-4.924 -0.007,-9.868 0.084,-14.801 0.08,-4.294 1.307,-7.817 5.73,-9.841 3.563,-1.631 6.956,-3.771 10.126,-6.092 4.896,-3.584 9.601,-7.44 14.255,-11.339 1.843,-1.544 2.014,-4.044 0.862,-5.842 -0.602,-0.94 -2.886,-1.249 -4.345,-1.119 -9.815,0.877 -19.644,1.708 -29.402,3.043 -6.092,0.834 -12.068,2.523 -18.096,3.829 4.453,-0.726 8.906,-1.451 13.359,-2.177"
       style="fill:#2d0956;fill-opacity:1;fill-rule:nonzero;stroke:none"
       transform="matrix(1.3333333,0,0,-1.3333333,956.54267,415.1936)"
       clip-path="url(#clipPath252)" />
    <path
       id="path253"
       d="M 0,0 C 1.611,0.071 3.461,0.215 3.367,2.54 3.29,4.418 0.582,6.481 -1.249,5.875 -3.891,5.001 -6.41,3.754 -9.198,2.576 -6.405,0.236 -3.253,-0.144 0,0 m 9.121,-5.682 c -1.694,1.056 -3.204,1.774 -5.426,0.732 -5.719,-2.68 -11.017,-0.547 -15.786,2.563 -4.168,2.718 -3.482,8.857 1.08,10.766 2.055,0.86 4.519,1.449 6.677,1.182 2.795,-0.345 4.955,0.33 7.568,2.943 3.517,-5.961 7.317,-11.126 11.673,-15.833 0.091,-0.099 0.008,-0.343 0.085,-0.474 0.467,-0.803 0.775,-2.003 1.472,-2.312 2.329,-1.034 1.457,-2.829 1.468,-5.067 -3.329,2.078 -6.07,3.79 -8.811,5.5"
       style="fill:#2d0956;fill-opacity:1;fill-rule:nonzero;stroke:none"
       transform="matrix(1.3333333,0,0,-1.3333333,990.6888,377.10173)"
       clip-path="url(#clipPath254)" />
    <path
       id="path255"
       d="m 0,0 c -1.562,1.063 -3.125,2.126 -4.688,3.189 -2.4,1.27 -4.8,2.54 -7.191,3.8 C -12.288,6.867 -12.707,6.753 -13.775,6.465 -9.027,3.732 -4.882,1.125 0,0"
       style="fill:#2d0956;fill-opacity:1;fill-rule:nonzero;stroke:none"
       transform="matrix(1.3333333,0,0,-1.3333333,991.37747,441.58773)"
       clip-path="url(#clipPath256)" />
    <path
       id="path257"
       d="M 0,0 C -2.794,0.693 -5.588,1.387 -8.383,2.08 -5.589,1.387 -2.794,0.693 0,0"
       style="fill:#2d0956;fill-opacity:1;fill-rule:nonzero;stroke:none"
       transform="matrix(1.3333333,0,0,-1.3333333,1021.6529,450.7724)"
       clip-path="url(#clipPath258)" />
    <path
       id="path259"
       d="M 0,0 C -1.701,0.864 -3.402,1.728 -5.103,2.591 -3.402,1.728 -1.701,0.864 0,0"
       style="fill:#2d0956;fill-opacity:1;fill-rule:nonzero;stroke:none"
       transform="matrix(1.3333333,0,0,-1.3333333,997.88853,444.86893)"
       clip-path="url(#clipPath260)" />
    <path
       id="path261"
       d="M 0,0 C -0.036,0.269 -0.072,0.538 -0.108,0.807 H -2.65 c 0.045,-0.435 0.091,-0.87 0.137,-1.305 C -1.675,-0.332 -0.838,-0.166 0,0 m 57.763,11.326 c -0.377,0.23 -0.753,0.46 -1.13,0.69 C 55.05,9.503 53.467,6.99 51.884,4.477 52.239,4.173 52.595,3.868 52.95,3.563 Z M 82.25,-6.124 C 84.39,0.552 81.856,25.306 78.464,31.15 69.397,21.865 64.088,10.351 57.227,-1.148 65.616,-5.842 74.075,-5.429 82.25,-6.124 m 22.456,-19.337 c -5.724,3.759 -11.53,7.418 -17.489,10.786 -4.7,2.657 -5.819,2.25 -8.794,-2.114 -6.811,4.93 -14.89,5.352 -22.981,5.953 -4.261,0.317 -4.595,0.876 -7.19,5.86 -10.38,2.691 -21.059,1.869 -32.751,2.647 10.741,-9.302 62.768,-29.081 97.92,-29.903 -2.895,2.273 -5.65,4.758 -8.715,6.771 M 78.39,-36.284 c 0.061,0.33 0.123,0.66 0.184,0.99 -7.573,1.799 -15.216,3.354 -22.698,5.473 -6.26,1.773 -12.333,4.205 -18.488,6.346 0.99,0 1.98,0 2.97,0 0.06,0.241 0.121,0.482 0.181,0.723 -2.26,0.864 -4.494,1.819 -6.81,2.49 -0.33,0.096 -1.058,-1.185 -1.602,-1.828 -1.682,0.37 -3.363,0.741 -5.045,1.111 -3.032,1.604 -6.064,3.208 -9.083,4.801 -4.096,2.255 -8.277,4.4 -12.29,6.823 -3.641,2.198 -6.562,5.732 -11.31,5.786 -0.268,0.003 -0.53,0.552 -0.985,1.059 0.061,1.1 0.136,2.463 0.212,3.843 2.423,0.649 5.337,0.55 6.6,1.946 C 3.053,6.405 6.43,6.413 9.919,6.319 16.138,6.152 22.37,5.933 28.56,5.354 35.144,4.739 41.685,3.68 48.237,2.816 c 6.947,13.723 14.93,26.416 27.957,35.186 5.284,3.558 8.36,2.87 9.819,-3.47 1.109,-4.819 1.527,-9.846 1.759,-14.803 0.291,-6.221 -0.009,-12.466 0.107,-18.698 0.101,-5.425 1.65,-9.875 7.238,-12.432 4.501,-2.06 8.787,-4.763 12.792,-7.696 6.185,-4.528 12.129,-9.399 18.008,-14.324 2.328,-1.951 2.545,-5.109 1.09,-7.38 -0.761,-1.188 -3.646,-1.579 -5.491,-1.414 -12.398,1.107 -24.815,2.157 -37.142,3.844 -7.696,1.053 -15.245,3.187 -22.86,4.837 5.625,-0.917 11.251,-1.833 16.876,-2.75"
       style="fill:#2d0956;fill-opacity:1;fill-rule:nonzero;stroke:none"
       transform="matrix(1.3333333,0,0,-1.3333333,954.53227,558.02373)"
       clip-path="url(#clipPath262)" />
    <path
       id="path263"
       d="M 0,0 C 2.035,0.09 4.372,0.271 4.253,3.209 4.157,5.581 0.735,8.187 -1.578,7.422 -4.916,6.317 -8.098,4.743 -11.62,3.254 -8.092,0.298 -4.109,-0.182 0,0 m 11.522,-7.179 c -2.14,1.335 -4.047,2.242 -6.854,0.926 -7.225,-3.387 -13.918,-0.691 -19.943,3.238 -5.264,3.433 -4.398,11.189 1.365,13.6 2.596,1.087 5.709,1.831 8.435,1.494 3.531,-0.437 6.26,0.417 9.561,3.717 4.443,-7.531 9.243,-14.055 14.746,-20.001 0.115,-0.125 0.01,-0.434 0.107,-0.6 0.59,-1.014 0.979,-2.53 1.86,-2.921 2.941,-1.306 1.84,-3.573 1.854,-6.4 -4.206,2.625 -7.668,4.787 -11.131,6.947"
       style="fill:#2d0956;fill-opacity:1;fill-rule:nonzero;stroke:none"
       transform="matrix(1.3333333,0,0,-1.3333333,997.66867,509.90267)"
       clip-path="url(#clipPath264)" />
    <path
       id="path265"
       d="M 0,0 C -1.974,1.343 -3.947,2.685 -5.922,4.028 -8.955,5.633 -11.987,7.237 -15.006,8.829 -15.523,8.675 -16.053,8.532 -17.402,8.167 -11.404,4.715 -6.167,1.421 0,0"
       style="fill:#2d0956;fill-opacity:1;fill-rule:nonzero;stroke:none"
       transform="matrix(1.3333333,0,0,-1.3333333,998.5388,591.3672)"
       clip-path="url(#clipPath266)" />
    <path
       id="path267"
       d="M 0,0 C -3.53,0.876 -7.06,1.752 -10.59,2.628 -7.06,1.752 -3.53,0.876 0,0"
       style="fill:#2d0956;fill-opacity:1;fill-rule:nonzero;stroke:none"
       transform="matrix(1.3333333,0,0,-1.3333333,1036.7855,602.97)"
       clip-path="url(#clipPath268)" />
    <path
       id="path269"
       d="M 0,0 C -2.149,1.091 -4.297,2.183 -6.446,3.274 -4.297,2.183 -2.149,1.091 0,0"
       style="fill:#2d0956;fill-opacity:1;fill-rule:nonzero;stroke:none"
       transform="matrix(1.3333333,0,0,-1.3333333,1006.7641,595.51227)"
       clip-path="url(#clipPath270)" />
  </g>
</svg>
