<?xml version="1.0" encoding="UTF-8" standalone="no"?>
<!-- Created with Inkscape (http://www.inkscape.org/) -->

<svg
   version="1.1"
   id="svg1"
   width="272.07999"
   height="579.19397"
   viewBox="0 0 272.07998 579.19396"
   sodipodi:docname="Juani y Nacho Banner INFO 2.ai"
   inkscape:export-batch-path="export"
   inkscape:export-batch-name="Juani y Nacho Banner INFO 2"
   xmlns:inkscape="http://www.inkscape.org/namespaces/inkscape"
   xmlns:sodipodi="http://sodipodi.sourceforge.net/DTD/sodipodi-0.dtd"
   xmlns="http://www.w3.org/2000/svg"
   xmlns:svg="http://www.w3.org/2000/svg">
  <defs
     id="defs1">
    <clipPath
       clipPathUnits="userSpaceOnUse"
       id="clipPath1224">
      <path
         d="M 0,914.759 H 2638.452 V 0 H 0 Z"
         transform="translate(-635.88431,-379.46051)"
         id="path1224" />
    </clipPath>
    <clipPath
       clipPathUnits="userSpaceOnUse"
       id="clipPath1226">
      <path
         d="M 0,914.759 H 2638.452 V 0 H 0 Z"
         transform="translate(-639.47822,-345.15471)"
         id="path1226" />
    </clipPath>
    <clipPath
       clipPathUnits="userSpaceOnUse"
       id="clipPath1228">
      <path
         d="M 0,914.759 H 2638.452 V 0 H 0 Z"
         transform="translate(-596.36962,-366.71491)"
         id="path1228" />
    </clipPath>
    <clipPath
       clipPathUnits="userSpaceOnUse"
       id="clipPath1230">
      <path
         d="M 0,914.759 H 2638.452 V 0 H 0 Z"
         transform="translate(-626.82482,-429.06981)"
         id="path1230" />
    </clipPath>
    <clipPath
       clipPathUnits="userSpaceOnUse"
       id="clipPath1232">
      <path
         d="M 0,914.759 H 2638.452 V 0 H 0 Z"
         transform="translate(-614.09392,-473.46051)"
         id="path1232" />
    </clipPath>
    <clipPath
       clipPathUnits="userSpaceOnUse"
       id="clipPath1234">
      <path
         d="M 0,914.759 H 2638.452 V 0 H 0 Z"
         transform="translate(-594.42221,-521.51041)"
         id="path1234" />
    </clipPath>
    <clipPath
       clipPathUnits="userSpaceOnUse"
       id="clipPath1236">
      <path
         d="M 0,914.759 H 2638.452 V 0 H 0 Z"
         transform="translate(-614.07502,-473.51541)"
         id="path1236" />
    </clipPath>
    <clipPath
       clipPathUnits="userSpaceOnUse"
       id="clipPath1238">
      <path
         d="M 0,914.759 H 2638.452 V 0 H 0 Z"
         transform="translate(-522.28231,-558.77562)"
         id="path1238" />
    </clipPath>
    <clipPath
       clipPathUnits="userSpaceOnUse"
       id="clipPath1240">
      <path
         d="M 0,914.759 H 2638.452 V 0 H 0 Z"
         transform="translate(-569.09392,-575.71411)"
         id="path1240" />
    </clipPath>
    <radialGradient
       fx="0"
       fy="0"
       cx="0"
       cy="0"
       r="1"
       gradientUnits="userSpaceOnUse"
       gradientTransform="matrix(97.14035,-62.768272,-62.768272,-97.14035,485.91739,645.14069)"
       spreadMethod="pad"
       id="radialGradient1243">
      <stop
         style="stop-opacity:1;stop-color:#b3f6e9"
         offset="0"
         id="stop1240" />
      <stop
         style="stop-opacity:1;stop-color:#b3f6e9"
         offset="0.18963067"
         id="stop1241" />
      <stop
         style="stop-opacity:1;stop-color:#00acfe"
         offset="0.759777"
         id="stop1242" />
      <stop
         style="stop-opacity:1;stop-color:#ffffff"
         offset="1"
         id="stop1243" />
    </radialGradient>
    <clipPath
       clipPathUnits="userSpaceOnUse"
       id="clipPath1243">
      <path
         d="M 442.211,703.517 H 604.109 V 554.869 H 442.211 Z"
         transform="translate(-598.96061,-656.62132)"
         id="path1243" />
    </clipPath>
    <clipPath
       clipPathUnits="userSpaceOnUse"
       id="clipPath1246">
      <path
         d="M 0,914.759 H 2638.452 V 0 H 0 Z"
         transform="matrix(1.3333333,0,0,-1.3333333,0,1219.6787)"
         id="path1246" />
    </clipPath>
    <clipPath
       clipPathUnits="userSpaceOnUse"
       id="clipPath1248">
      <path
         d="M 0,914.759 H 2638.452 V 0 H 0 Z"
         transform="translate(-478.29501,-699.24952)"
         id="path1248" />
    </clipPath>
    <clipPath
       clipPathUnits="userSpaceOnUse"
       id="clipPath1250">
      <path
         d="M 0,914.759 H 2638.452 V 0 H 0 Z"
         transform="translate(-524.20421,-718.54442)"
         id="path1250" />
    </clipPath>
    <clipPath
       clipPathUnits="userSpaceOnUse"
       id="clipPath1252">
      <path
         d="M 0,914.759 H 2638.452 V 0 H 0 Z"
         transform="translate(-630.71882,-361.24781)"
         id="path1252" />
    </clipPath>
    <clipPath
       clipPathUnits="userSpaceOnUse"
       id="clipPath1254">
      <path
         d="M 0,914.759 H 2638.452 V 0 H 0 Z"
         transform="translate(-640.90222,-330.50291)"
         id="path1254" />
    </clipPath>
    <clipPath
       clipPathUnits="userSpaceOnUse"
       id="clipPath1256">
      <path
         d="M 0,914.759 H 2638.452 V 0 H 0 Z"
         transform="translate(-553.86931,-624.41862)"
         id="path1256" />
    </clipPath>
    <clipPath
       clipPathUnits="userSpaceOnUse"
       id="clipPath1258">
      <path
         d="M 0,914.759 H 2638.452 V 0 H 0 Z"
         transform="translate(-459.60621,-633.72001)"
         id="path1258" />
    </clipPath>
    <clipPath
       clipPathUnits="userSpaceOnUse"
       id="clipPath1260">
      <path
         d="M 0,914.759 H 2638.452 V 0 H 0 Z"
         transform="translate(-499.55141,-597.06931)"
         id="path1260" />
    </clipPath>
    <clipPath
       clipPathUnits="userSpaceOnUse"
       id="clipPath1262">
      <path
         d="M 0,914.759 H 2638.452 V 0 H 0 Z"
         transform="translate(-530.24341,-677.82481)"
         id="path1262" />
    </clipPath>
    <clipPath
       clipPathUnits="userSpaceOnUse"
       id="clipPath1264">
      <path
         d="M 0,914.759 H 2638.452 V 0 H 0 Z"
         transform="translate(-574.08401,-659.94061)"
         id="path1264" />
    </clipPath>
    <clipPath
       clipPathUnits="userSpaceOnUse"
       id="clipPath1266">
      <path
         d="M 0,914.759 H 2638.452 V 0 H 0 Z"
         transform="translate(-498.65671,-638.90962)"
         id="path1266" />
    </clipPath>
    <clipPath
       clipPathUnits="userSpaceOnUse"
       id="clipPath1267">
      <path
         d="M 447.914,679.028 H 590.202 V 583.869 H 447.914 Z"
         transform="translate(-462.37091,-623.87161)"
         id="path1267" />
    </clipPath>
    <clipPath
       clipPathUnits="userSpaceOnUse"
       id="clipPath1269">
      <path
         d="M 0,914.759 H 2638.452 V 0 H 0 Z"
         transform="matrix(1.3333333,0,0,-1.3333333,0,1219.6787)"
         id="path1269" />
    </clipPath>
    <clipPath
       clipPathUnits="userSpaceOnUse"
       id="clipPath1270">
      <path
         d="m 453.144,676.325 h 30.609 v -38.529 h -30.609 z"
         transform="translate(-476.53631,-651.34822)"
         id="path1270" />
    </clipPath>
    <clipPath
       clipPathUnits="userSpaceOnUse"
       id="clipPath1272">
      <path
         d="M 0,914.759 H 2638.452 V 0 H 0 Z"
         transform="matrix(1.3333333,0,0,-1.3333333,0,1219.6787)"
         id="path1272" />
    </clipPath>
  </defs>
  <sodipodi:namedview
     id="namedview1"
     pagecolor="#ffffff"
     bordercolor="#000000"
     borderopacity="0.25"
     inkscape:showpageshadow="2"
     inkscape:pageopacity="0.0"
     inkscape:pagecheckerboard="0"
     inkscape:deskcolor="#d1d1d1" />
  <g
     id="layer-MC4"
     inkscape:groupmode="layer"
     inkscape:label="lapiz"
     transform="translate(-589.61466,-246.04191)">
    <path
       id="path1223"
       d="M 0,0 C -2.4,17.826 -5.499,34.364 -9.06,49.609 -36.854,57.333 -63.446,70.74 -87.699,87.268 -82.065,70.78 -74.644,52.434 -64.879,32.665 -44.917,18.498 -22.972,7.172 0,0"
       style="fill:#60da00;fill-opacity:1;fill-rule:nonzero;stroke:none"
       transform="matrix(1.3333333,0,0,-1.3333333,847.84573,713.73133)"
       clip-path="url(#clipPath1224)" />
    <path
       id="path1225"
       d="m 0,0 c -0.207,1.675 -0.422,3.335 -0.648,4.975 0.143,0.383 0.187,0.608 0.187,0.608 -0.831,9.926 -1.89,19.494 -3.133,28.723 -22.972,7.171 -44.917,18.497 -64.879,32.664 7.128,-14.431 15.516,-29.626 25.364,-45.41 C -29.571,12.652 -15.102,5.315 0,0"
       style="fill:#38a9fc;fill-opacity:1;fill-rule:nonzero;stroke:none"
       transform="matrix(1.3333333,0,0,-1.3333333,852.6376,759.4724)"
       clip-path="url(#clipPath1226)" />
    <path
       id="path1227"
       d="m 0,0 c 5.175,-8.293 10.745,-16.746 16.765,-25.343 0,0 0.177,-0.144 0.532,-0.348 3.318,-5.321 6.895,-10.746 10.758,-16.263 0,0 0.069,-0.057 0.209,-0.145 6.931,-12.99 16.283,-28.432 18.964,-27.462 0.052,0.019 0.101,0.038 0.152,0.057 0.051,0.018 0.101,0.035 0.153,0.054 2.681,0.97 -0.014,18.82 -3,33.238 0.051,0.157 0.068,0.245 0.068,0.245 -0.414,4.939 -0.916,9.739 -1.492,14.407 C 28.007,-16.245 13.538,-8.909 0,0"
       style="fill:#6b00ff;fill-opacity:1;fill-rule:nonzero;stroke:none"
       transform="matrix(1.3333333,0,0,-1.3333333,795.15947,730.72547)"
       clip-path="url(#clipPath1228)" />
    <path
       id="path1229"
       d="M 0,0 C -3.798,16.263 -8.114,31.068 -12.652,44.419 -40.601,51.808 -66.455,62.073 -89.697,76.313 -87.121,65.034 -83.559,52.052 -78.64,37.658 -54.386,21.131 -27.794,7.724 0,0"
       style="fill:#ffda00;fill-opacity:1;fill-rule:nonzero;stroke:none"
       transform="matrix(1.3333333,0,0,-1.3333333,835.7664,647.5856)"
       clip-path="url(#clipPath1230)" />
    <path
       id="path1231"
       d="m 0,0 c -6.424,18.898 -13.29,34.895 -19.75,48.021 -23.93,7.211 -45.313,17.996 -64.035,32.287 -0.005,-1.547 0.095,-19.323 6.74,-48.414 C -53.803,17.654 -27.949,7.389 0,0"
       style="fill:#ff8e00;fill-opacity:1;fill-rule:nonzero;stroke:none"
       transform="matrix(1.3333333,0,0,-1.3333333,818.79187,588.398)"
       clip-path="url(#clipPath1232)" />
    <path
       id="path1233"
       d="m 0,0 c -15.006,30.487 -27.823,45.504 -27.823,45.504 l -18.106,-6.551 -18.106,-6.552 c 0,0 0,-0.041 0,-0.114 C -45.313,17.995 -23.93,7.211 0,0"
       style="fill:#ff0000;fill-opacity:1;fill-rule:nonzero;stroke:none"
       transform="matrix(1.3333333,0,0,-1.3333333,792.56293,524.33147)"
       clip-path="url(#clipPath1234)" />
    <path
       id="path1235"
       d="m 0,0 c -6.418,18.874 -13.277,34.853 -19.731,47.967 -0.004,0.001 -0.008,0.002 -0.012,0.003 0.03,0.009 0.06,0.016 0.09,0.025 -15.006,30.487 -27.823,45.504 -27.823,45.504 l -18.106,-6.551 -18.105,-6.552 c 0,0 -0.001,-0.041 -0.001,-0.114 0.652,-0.498 1.301,-1.012 1.947,-1.537 -0.676,0.501 -1.356,0.998 -2.025,1.508 -0.005,-1.547 0.095,-19.323 6.74,-48.414 0.033,-0.02 0.066,-0.039 0.099,-0.059 2.574,-11.258 6.13,-24.21 11.037,-38.567 5.635,-16.488 13.056,-34.834 22.82,-54.603 7.129,-14.432 15.516,-29.627 25.365,-45.411 5.174,-8.293 10.745,-16.746 16.764,-25.342 0,0 0.177,-0.145 0.532,-0.348 3.319,-5.321 6.896,-10.747 10.759,-16.264 0,0 0.069,-0.057 0.209,-0.144 6.931,-12.991 16.282,-28.433 18.963,-27.462 0.052,0.018 0.102,0.038 0.152,0.057 0.052,0.017 0.102,0.034 0.154,0.053 2.681,0.97 -0.014,18.82 -3.001,33.239 0.052,0.156 0.068,0.244 0.068,0.244 -0.413,4.939 -0.915,9.739 -1.492,14.407 -0.207,1.675 -0.422,3.335 -0.648,4.975 0.143,0.384 0.187,0.608 0.187,0.608 -0.831,9.926 -1.89,19.494 -3.133,28.723 -2.4,17.826 -5.499,34.364 -9.059,49.609 C 8.952,-28.183 4.636,-13.378 0.097,-0.026 0.065,-0.018 0.033,-0.009 0,0 Z"
       style="fill:none;stroke:#000000;stroke-width:2.535;stroke-linecap:round;stroke-linejoin:round;stroke-miterlimit:10;stroke-dasharray:none;stroke-opacity:1"
       transform="matrix(1.3333333,0,0,-1.3333333,818.76667,588.3248)"
       clip-path="url(#clipPath1236)" />
    <path
       id="path1237"
       d="m 0,0 c 0,0 -1.78,-5.458 2.983,-8.243 4.763,-2.785 12.499,-1.932 25.371,2.726 12.872,4.658 19.824,9.864 21.241,14.14 1.418,4.277 -2.982,8.244 -2.982,8.244 z"
       style="fill:#cecece;fill-opacity:1;fill-rule:nonzero;stroke:#000000;stroke-width:2.535;stroke-linecap:round;stroke-linejoin:miter;stroke-miterlimit:10;stroke-dasharray:none;stroke-opacity:1"
       transform="matrix(1.3333333,0,0,-1.3333333,696.3764,474.64453)"
       clip-path="url(#clipPath1238)" />
    <path
       id="path1239"
       d="m 0,0 c 0.938,-2.591 -8.805,-8.492 -21.761,-13.18 -12.955,-4.688 -24.218,-6.388 -25.156,-3.797 -0.937,2.592 8.805,8.493 21.761,13.181 C -12.2,0.891 -0.938,2.591 0,0"
       style="fill:#9e9e9e;fill-opacity:1;fill-rule:nonzero;stroke:#000000;stroke-width:2.535;stroke-linecap:round;stroke-linejoin:miter;stroke-miterlimit:10;stroke-dasharray:none;stroke-opacity:1"
       transform="matrix(1.3333333,0,0,-1.3333333,758.79187,452.05987)"
       clip-path="url(#clipPath1240)" />
    <g
       opacity="0.800003"
       id="g1245"
       clip-path="url(#clipPath1246)">
      <path
         d="m 598.961,656.621 c -13.528,37.385 -58.431,55.412 -100.295,40.264 -41.863,-15.148 -64.834,-57.734 -51.307,-95.12 13.528,-37.385 58.431,-55.411 100.295,-40.263 41.863,15.148 64.834,57.734 51.307,95.119"
         transform="matrix(1.3333333,0,0,-1.3333333,0,1219.6787)"
         style="fill:url(#radialGradient1243);stroke:none"
         id="path1244" />
      <path
         d="m 0,0 c -13.528,37.385 -58.431,55.412 -100.294,40.264 -41.864,-15.148 -64.835,-57.735 -51.307,-95.12 13.527,-37.385 58.431,-55.412 100.294,-40.264 C -9.443,-79.972 13.528,-37.385 0,0 Z"
         style="fill:none;stroke:#00dbff;stroke-width:2.535;stroke-linecap:round;stroke-linejoin:miter;stroke-miterlimit:10;stroke-dasharray:none;stroke-opacity:1"
         transform="matrix(1.3333333,0,0,-1.3333333,798.61413,344.1836)"
         clip-path="url(#clipPath1243)"
         id="path1245" />
    </g>
    <path
       id="path1247"
       d="m 0,0 c 6.909,-4.103 8.421,-10.855 8.421,-10.855 0.566,-1.566 5.876,-1.08 14.309,1.972 8.433,3.051 12.824,6.076 12.258,7.641 0,0 -4.16,6.047 -0.475,13.73 z"
       style="fill:#ff0000;fill-opacity:1;fill-rule:nonzero;stroke:#000000;stroke-width:2.535;stroke-linecap:round;stroke-linejoin:miter;stroke-miterlimit:10;stroke-dasharray:none;stroke-opacity:1"
       transform="matrix(1.3333333,0,0,-1.3333333,637.72667,287.346)"
       clip-path="url(#clipPath1248)" />
    <path
       id="path1249"
       d="m 0,0 c 1.095,-3.026 -11.23,-10.26 -27.529,-16.158 -16.298,-5.898 -30.399,-8.225 -31.494,-5.199 -1.095,3.026 -0.551,20.209 22.982,28.724 C -11.272,16.329 -1.095,3.026 0,0"
       style="fill:#ff0000;fill-opacity:1;fill-rule:nonzero;stroke:#000000;stroke-width:2.535;stroke-linecap:round;stroke-linejoin:miter;stroke-miterlimit:10;stroke-dasharray:none;stroke-opacity:1"
       transform="matrix(1.3333333,0,0,-1.3333333,698.93893,261.61947)"
       clip-path="url(#clipPath1250)" />
    <path
       id="path1251"
       d="m 0,0 c -3.314,-1.019 1.219,-32.164 -5.826,-24.115 -7.044,8.05 -11.813,8.57 -11.759,4.239 0,0 0.177,-0.144 0.533,-0.348 3.318,-5.321 6.895,-10.746 10.758,-16.263 0,0 0.069,-0.057 0.209,-0.145 6.931,-12.99 16.283,-28.432 18.963,-27.462 0.052,0.019 0.102,0.038 0.153,0.057 0.051,0.018 0.101,0.035 0.153,0.054 2.681,0.97 -0.014,18.82 -3.001,33.238 0.052,0.157 0.068,0.245 0.068,0.245 -0.561,6.711 -1.284,13.169 -2.139,19.382 0.143,0.383 0.186,0.608 0.186,0.608 -0.012,0.14 -0.025,0.279 -0.036,0.42 C 2.688,-21.132 3.187,0.98 0,0"
       style="fill:#e3d8b3;fill-opacity:1;fill-rule:nonzero;stroke:#000000;stroke-width:2.535;stroke-linecap:round;stroke-linejoin:miter;stroke-miterlimit:10;stroke-dasharray:none;stroke-opacity:1"
       transform="matrix(1.3333333,0,0,-1.3333333,840.9584,738.01493)"
       clip-path="url(#clipPath1252)" />
    <path
       id="path1253"
       d="m 0,0 c 0,0 -3.993,3.256 -6.816,0.511 -2.824,-2.746 -5.295,-7.826 -9.661,-6.253 0,0 0.069,-0.057 0.208,-0.145 6.932,-12.99 16.283,-28.432 18.964,-27.462 0.052,0.019 0.101,0.038 0.152,0.057 0.051,0.018 0.101,0.035 0.154,0.054 C 5.681,-32.268 2.986,-14.418 0,0"
       style="fill:#9d54fc;fill-opacity:1;fill-rule:nonzero;stroke:#000000;stroke-width:2.535;stroke-linecap:round;stroke-linejoin:round;stroke-miterlimit:10;stroke-dasharray:none;stroke-opacity:1"
       transform="matrix(1.3333333,0,0,-1.3333333,854.53627,779.00813)"
       clip-path="url(#clipPath1254)" />
    <path
       id="path1255"
       d="m 0,0 4.104,-3.942 5.574,1.147 -2.48,-5.121 2.813,-4.947 -5.637,0.776 -3.836,-4.204 -1.004,5.602 -5.183,2.348 5.017,2.686 z"
       style="fill:#ffff00;fill-opacity:1;fill-rule:nonzero;stroke:none"
       transform="matrix(1.3333333,0,0,-1.3333333,738.4924,387.12053)"
       clip-path="url(#clipPath1256)" />
    <path
       id="path1257"
       d="m 0,0 5.414,-5.199 7.352,1.513 -3.272,-6.756 3.71,-6.524 -7.435,1.023 -5.059,-5.545 -1.324,7.389 -6.837,3.097 6.618,3.543 z"
       style="fill:#ffff00;fill-opacity:1;fill-rule:nonzero;stroke:none"
       transform="matrix(1.3333333,0,0,-1.3333333,612.80827,374.71867)"
       clip-path="url(#clipPath1258)" />
    <path
       id="path1259"
       d="m 0,0 3.242,-6.77 7.415,-1.167 -5.437,-5.175 1.182,-7.412 -6.602,3.571 -6.685,-3.414 1.356,7.382 -5.312,5.303 7.44,0.991 z"
       style="fill:#ffff00;fill-opacity:1;fill-rule:nonzero;stroke:none"
       transform="matrix(1.3333333,0,0,-1.3333333,666.06853,423.58627)"
       clip-path="url(#clipPath1260)" />
    <path
       id="path1261"
       d="m 0,0 5.414,-5.199 7.352,1.513 -3.272,-6.756 3.71,-6.525 -7.435,1.024 -5.059,-5.545 -1.324,7.389 -6.837,3.097 6.618,3.543 z"
       style="fill:#ffff00;fill-opacity:1;fill-rule:nonzero;stroke:none"
       transform="matrix(1.3333333,0,0,-1.3333333,706.9912,315.91227)"
       clip-path="url(#clipPath1262)" />
    <path
       id="path1263"
       d="m 0,0 6.498,-3.757 6.779,3.223 -1.566,-7.341 5.16,-5.451 -7.465,-0.78 -3.59,-6.592 -3.048,6.859 -7.379,1.377 5.581,5.019 z"
       style="fill:#ffff00;fill-opacity:1;fill-rule:nonzero;stroke:none"
       transform="matrix(1.3333333,0,0,-1.3333333,765.44533,339.75787)"
       clip-path="url(#clipPath1264)" />
    <path
       id="path1265"
       d="m 0,0 4.191,-1.564 3.664,2.565 -0.193,-4.469 3.572,-2.693 -4.31,-1.197 -1.457,-4.229 -2.47,3.729 -4.473,0.078 2.783,3.502 z"
       style="fill:#ffff00;fill-opacity:1;fill-rule:nonzero;stroke:none"
       transform="matrix(1.3333333,0,0,-1.3333333,664.8756,367.7992)"
       clip-path="url(#clipPath1266)" />
    <g
       id="g1268"
       clip-path="url(#clipPath1269)">
      <path
         d="m 0,0 c 6.344,5.863 14.17,10.042 22.551,12.097 8.683,2.244 17.112,0.177 24.756,-4.165 7.453,-3.903 14.55,-8.341 22.026,-11.909 6.801,-3.042 18.264,-8.653 24.466,-2.475 8.704,8.707 14.254,20.006 19.533,31.025 0.378,0.744 0.74,1.61 1.219,2.344 4.931,6.637 19.683,18.857 5.098,23.572 -11.312,4.13 -37.888,3.419 -44.196,-8.407 -3.141,-7.37 -3.578,-15.834 -4.923,-23.753 -3.003,-18.63 -6.333,-50.143 -27.318,-56.906 -3.636,-1.17 -7.535,-1.165 -11.304,-1.4 -12.758,-0.27 -26.005,1.597 -37.121,8.285 -2.832,1.767 -5.499,3.796 -7.576,6.469 -0.793,1.009 -1.525,2.306 -1.65,3.613 C -14.934,-13.978 -4.965,-5.091 0,0 m 2.526,-2.565 c -3.668,-3.955 -15.204,-14.308 -13.319,-19.568 6.157,-9.122 19.754,-13.187 30.287,-14.237 6.108,-0.674 12.324,-0.445 18.437,0.126 1.374,0.205 2.922,0.473 4.246,0.935 18.733,6.372 21.128,37.347 23.819,54.28 0.89,6.248 1.661,12.578 3.191,18.772 0.937,4.335 3.073,9.219 6.91,11.837 9.169,6.414 21.032,6.065 31.596,4.911 4.207,-0.549 8.385,-1.343 12.397,-2.77 1.983,-0.782 4.004,-1.588 5.713,-3.202 4.788,-5.697 0.041,-13.473 -3.386,-18.564 -1.368,-2.059 -3.172,-3.917 -4.392,-5.988 C 112.315,12.085 106.234,-0.163 96.363,-9.219 84.448,-20.802 58.109,0.327 46.405,6.263 42.832,8.244 39.171,10.212 35.11,10.86 22.904,12.617 11.049,5.565 2.526,-2.565"
         style="fill:#ffffff;fill-opacity:1;fill-rule:nonzero;stroke:none"
         transform="matrix(1.3333333,0,0,-1.3333333,616.49453,387.84987)"
         clip-path="url(#clipPath1267)"
         id="path1268" />
    </g>
    <g
       id="g1271"
       clip-path="url(#clipPath1272)">
      <path
         d="m 0,0 c -7.174,-10.158 -16.611,-15.835 -21.078,-12.68 -4.467,3.155 -2.272,13.947 4.902,24.105 C -9.002,21.583 0.435,27.26 4.902,24.105 9.369,20.95 7.174,10.158 0,0"
         style="fill:#ffffff;fill-opacity:1;fill-rule:nonzero;stroke:none"
         transform="matrix(1.3333333,0,0,-1.3333333,635.38173,351.2144)"
         clip-path="url(#clipPath1270)"
         id="path1271" />
    </g>
  </g>
</svg>
