<?xml version="1.0" encoding="UTF-8" standalone="no"?>
<!-- Created with Inkscape (http://www.inkscape.org/) -->

<svg
   version="1.1"
   id="svg1"
   width="1185.6862"
   height="250.89326"
   viewBox="0 0 1185.6862 250.89327"
   sodipodi:docname="Juani y Nacho Banners Editables VIDEOS Y MÃšSICA.ai"
   xmlns:inkscape="http://www.inkscape.org/namespaces/inkscape"
   xmlns:sodipodi="http://sodipodi.sourceforge.net/DTD/sodipodi-0.dtd"
   xmlns="http://www.w3.org/2000/svg"
   xmlns:svg="http://www.w3.org/2000/svg">
  <defs
     id="defs1">
    <pattern
       patternTransform="translate(293.965,886.749)"
       patternUnits="userSpaceOnUse"
       x="0"
       y="0"
       width="210"
       height="210"
       id="pattern8">
      <path
         d="m 0,0 -7.487,25.108 c -1.183,3.967 1.902,7.586 5.552,6.515 l 23.106,-6.78 23.105,-6.781 c 3.651,-1.071 5.129,-6.03 2.662,-8.925 L 31.319,-9.191 15.701,-27.518 c -2.468,-2.896 -7.031,-1.557 -8.214,2.41 L 0,0 Z"
         style="fill:#29235c;fill-opacity:1;fill-rule:nonzero;stroke:none"
         transform="translate(189.794,51.1303)"
         id="path2" />
      <path
         d="m 0,0 -7.487,25.108 c -1.183,3.967 1.902,7.586 5.552,6.515 l 23.106,-6.78 23.105,-6.781 c 3.651,-1.071 5.129,-6.03 2.662,-8.925 L 31.319,-9.191 15.701,-27.518 c -2.468,-2.896 -7.031,-1.557 -8.214,2.41 L 0,0 Z"
         style="fill:#29235c;fill-opacity:1;fill-rule:nonzero;stroke:none"
         transform="translate(84.794,-1.3697)"
         id="path3" />
      <path
         d="m 0,0 -7.487,25.108 c -1.183,3.967 1.902,7.586 5.552,6.515 l 23.106,-6.78 23.105,-6.781 c 3.651,-1.071 5.129,-6.03 2.662,-8.925 L 31.319,-9.191 15.701,-27.518 c -2.468,-2.896 -7.031,-1.557 -8.214,2.41 L 0,0 Z"
         style="fill:#29235c;fill-opacity:1;fill-rule:nonzero;stroke:none"
         transform="translate(-20.206,51.1303)"
         id="path4" />
      <path
         d="m 0,0 -7.487,25.108 c -1.183,3.967 1.902,7.586 5.552,6.515 l 23.106,-6.78 23.105,-6.781 c 3.651,-1.071 5.129,-6.03 2.662,-8.925 L 31.319,-9.191 15.701,-27.518 c -2.468,-2.896 -7.031,-1.557 -8.214,2.41 L 0,0 Z"
         style="fill:#29235c;fill-opacity:1;fill-rule:nonzero;stroke:none"
         transform="translate(189.794,156.1303)"
         id="path5" />
      <path
         d="m 0,0 -7.487,25.108 c -1.183,3.967 1.902,7.586 5.552,6.515 l 23.106,-6.78 23.105,-6.781 c 3.651,-1.071 5.129,-6.03 2.662,-8.925 L 31.319,-9.191 15.701,-27.518 c -2.468,-2.896 -7.031,-1.557 -8.214,2.41 L 0,0 Z"
         style="fill:#29235c;fill-opacity:1;fill-rule:nonzero;stroke:none"
         transform="translate(84.794,103.6303)"
         id="path6" />
      <path
         d="m 0,0 -7.487,25.108 c -1.183,3.967 1.902,7.586 5.552,6.515 l 23.106,-6.78 23.105,-6.781 c 3.651,-1.071 5.129,-6.03 2.662,-8.925 L 31.319,-9.191 15.701,-27.518 c -2.468,-2.896 -7.031,-1.557 -8.214,2.41 L 0,0 Z"
         style="fill:#29235c;fill-opacity:1;fill-rule:nonzero;stroke:none"
         transform="translate(-20.206,156.1303)"
         id="path7" />
      <path
         d="m 0,0 -7.487,25.108 c -1.183,3.967 1.902,7.586 5.552,6.515 l 23.106,-6.78 23.105,-6.781 c 3.651,-1.071 5.129,-6.03 2.662,-8.925 L 31.319,-9.191 15.701,-27.518 c -2.468,-2.896 -7.031,-1.557 -8.214,2.41 L 0,0 Z"
         style="fill:#29235c;fill-opacity:1;fill-rule:nonzero;stroke:none"
         transform="translate(84.794,208.6303)"
         id="path8" />
    </pattern>
    <clipPath
       clipPathUnits="userSpaceOnUse"
       id="clipPath9">
      <path
         d="M -160.71,567.221 H 1977.7 V -117.941 H -160.71 Z"
         id="path9" />
    </clipPath>
    <clipPath
       clipPathUnits="userSpaceOnUse"
       id="clipPath11">
      <path
         d="M 0,453.543 H 1785.827 V 0 H 0 Z"
         transform="matrix(1.3333333,0,0,-1.3333333,0,604.724)"
         id="path11" />
    </clipPath>
    <clipPath
       clipPathUnits="userSpaceOnUse"
       id="clipPath39">
      <path
         d="m 1.145,2.433 h 1784.682 v 450 H 1.145 Z"
         transform="translate(-202.93071,-152.9628)"
         id="path39" />
    </clipPath>
    <clipPath
       clipPathUnits="userSpaceOnUse"
       id="clipPath57">
      <path
         d="m 1.145,2.433 h 1784.682 v 450 H 1.145 Z"
         transform="translate(-896.48792,-351.80441)"
         id="path57" />
    </clipPath>
    <clipPath
       clipPathUnits="userSpaceOnUse"
       id="clipPath59">
      <path
         d="m 1.145,2.433 h 1784.682 v 450 H 1.145 Z"
         transform="translate(-834.46292,-338.70581)"
         id="path59" />
    </clipPath>
    <clipPath
       clipPathUnits="userSpaceOnUse"
       id="clipPath1741">
      <path
         d="M 0,453.543 H 1785.827 V 0 H 0 Z"
         transform="translate(-1154.3844,-257.2189)"
         id="path1741" />
    </clipPath>
    <clipPath
       clipPathUnits="userSpaceOnUse"
       id="clipPath1743">
      <path
         d="M 0,453.543 H 1785.827 V 0 H 0 Z"
         transform="translate(-1171.4835,-243.56751)"
         id="path1743" />
    </clipPath>
    <clipPath
       clipPathUnits="userSpaceOnUse"
       id="clipPath1745">
      <path
         d="M 0,453.543 H 1785.827 V 0 H 0 Z"
         transform="translate(-1191.0184,-246.13201)"
         id="path1745" />
    </clipPath>
    <clipPath
       clipPathUnits="userSpaceOnUse"
       id="clipPath1747">
      <path
         d="M 0,453.543 H 1785.827 V 0 H 0 Z"
         transform="translate(-1217.4876,-237.56461)"
         id="path1747" />
    </clipPath>
    <clipPath
       clipPathUnits="userSpaceOnUse"
       id="clipPath1749">
      <path
         d="M 0,453.543 H 1785.827 V 0 H 0 Z"
         transform="translate(-1252.9044,-250.98081)"
         id="path1749" />
    </clipPath>
    <clipPath
       clipPathUnits="userSpaceOnUse"
       id="clipPath1751">
      <path
         d="M 0,453.543 H 1785.827 V 0 H 0 Z"
         transform="translate(-1289.7504,-244.10781)"
         id="path1751" />
    </clipPath>
    <clipPath
       clipPathUnits="userSpaceOnUse"
       id="clipPath1753">
      <path
         d="M 0,453.543 H 1785.827 V 0 H 0 Z"
         transform="translate(-1317.4888,-255.50011)"
         id="path1753" />
    </clipPath>
    <clipPath
       clipPathUnits="userSpaceOnUse"
       id="clipPath1755">
      <path
         d="M 0,453.543 H 1785.827 V 0 H 0 Z"
         transform="translate(-1340.6763,-261.87991)"
         id="path1755" />
    </clipPath>
    <clipPath
       clipPathUnits="userSpaceOnUse"
       id="clipPath1757">
      <path
         d="M 0,453.543 H 1785.827 V 0 H 0 Z"
         transform="translate(-1378.1565,-250.88911)"
         id="path1757" />
    </clipPath>
    <clipPath
       clipPathUnits="userSpaceOnUse"
       id="clipPath1759">
      <path
         d="M 0,453.543 H 1785.827 V 0 H 0 Z"
         transform="translate(-1396.7377,-257.50611)"
         id="path1759" />
    </clipPath>
    <clipPath
       clipPathUnits="userSpaceOnUse"
       id="clipPath1761">
      <path
         d="M 0,453.543 H 1785.827 V 0 H 0 Z"
         transform="translate(-1430.7241,-252.06021)"
         id="path1761" />
    </clipPath>
    <clipPath
       clipPathUnits="userSpaceOnUse"
       id="clipPath1763">
      <path
         d="M 0,453.543 H 1785.827 V 0 H 0 Z"
         transform="translate(-1448.4591,-259.74331)"
         id="path1763" />
    </clipPath>
    <clipPath
       clipPathUnits="userSpaceOnUse"
       id="clipPath1765">
      <path
         d="M 0,453.543 H 1785.827 V 0 H 0 Z"
         transform="translate(-1468.7862,-267.90651)"
         id="path1765" />
    </clipPath>
    <clipPath
       clipPathUnits="userSpaceOnUse"
       id="clipPath1897">
      <path
         d="M 0,453.543 H 1785.827 V 0 H 0 Z"
         transform="translate(-1135.062,-253.64781)"
         id="path1897" />
    </clipPath>
    <clipPath
       clipPathUnits="userSpaceOnUse"
       id="clipPath1899">
      <path
         d="M 0,453.543 H 1785.827 V 0 H 0 Z"
         transform="translate(-1148.5089,-261.72741)"
         id="path1899" />
    </clipPath>
    <clipPath
       clipPathUnits="userSpaceOnUse"
       id="clipPath1901">
      <path
         d="M 0,453.543 H 1785.827 V 0 H 0 Z"
         transform="translate(-1165.6078,-248.07601)"
         id="path1901" />
    </clipPath>
    <clipPath
       clipPathUnits="userSpaceOnUse"
       id="clipPath1903">
      <path
         d="M 0,453.543 H 1785.827 V 0 H 0 Z"
         transform="translate(-1185.1428,-250.6405)"
         id="path1903" />
    </clipPath>
    <clipPath
       clipPathUnits="userSpaceOnUse"
       id="clipPath1905">
      <path
         d="M 0,453.543 H 1785.827 V 0 H 0 Z"
         transform="translate(-1211.6119,-242.07301)"
         id="path1905" />
    </clipPath>
    <clipPath
       clipPathUnits="userSpaceOnUse"
       id="clipPath1907">
      <path
         d="M 0,453.543 H 1785.827 V 0 H 0 Z"
         transform="translate(-1247.0289,-255.48931)"
         id="path1907" />
    </clipPath>
    <clipPath
       clipPathUnits="userSpaceOnUse"
       id="clipPath1909">
      <path
         d="M 0,453.543 H 1785.827 V 0 H 0 Z"
         transform="translate(-1283.8749,-248.61631)"
         id="path1909" />
    </clipPath>
    <clipPath
       clipPathUnits="userSpaceOnUse"
       id="clipPath1911">
      <path
         d="M 0,453.543 H 1785.827 V 0 H 0 Z"
         transform="translate(-1311.6132,-260.0086)"
         id="path1911" />
    </clipPath>
    <clipPath
       clipPathUnits="userSpaceOnUse"
       id="clipPath1913">
      <path
         d="M 0,453.543 H 1785.827 V 0 H 0 Z"
         transform="translate(-1334.8008,-266.3884)"
         id="path1913" />
    </clipPath>
    <clipPath
       clipPathUnits="userSpaceOnUse"
       id="clipPath1915">
      <path
         d="M 0,453.543 H 1785.827 V 0 H 0 Z"
         transform="translate(-1372.281,-255.3976)"
         id="path1915" />
    </clipPath>
    <clipPath
       clipPathUnits="userSpaceOnUse"
       id="clipPath1917">
      <path
         d="M 0,453.543 H 1785.827 V 0 H 0 Z"
         transform="translate(-1390.8622,-262.01461)"
         id="path1917" />
    </clipPath>
    <clipPath
       clipPathUnits="userSpaceOnUse"
       id="clipPath1919">
      <path
         d="M 0,453.543 H 1785.827 V 0 H 0 Z"
         transform="translate(-1424.8485,-256.56871)"
         id="path1919" />
    </clipPath>
    <clipPath
       clipPathUnits="userSpaceOnUse"
       id="clipPath1921">
      <path
         d="M 0,453.543 H 1785.827 V 0 H 0 Z"
         transform="translate(-1442.5836,-264.25171)"
         id="path1921" />
    </clipPath>
    <clipPath
       clipPathUnits="userSpaceOnUse"
       id="clipPath1923">
      <path
         d="M 0,453.543 H 1785.827 V 0 H 0 Z"
         transform="translate(-1462.9107,-272.41491)"
         id="path1923" />
    </clipPath>
    <clipPath
       clipPathUnits="userSpaceOnUse"
       id="clipPath2015">
      <path
         d="M 0,453.543 H 1785.827 V 0 H 0 Z"
         transform="translate(-945.1021,-318.72881)"
         id="path2015" />
    </clipPath>
    <clipPath
       clipPathUnits="userSpaceOnUse"
       id="clipPath2017">
      <path
         d="M 0,453.543 H 1785.827 V 0 H 0 Z"
         transform="translate(-1060.2579,-373.61611)"
         id="path2017" />
    </clipPath>
    <clipPath
       clipPathUnits="userSpaceOnUse"
       id="clipPath2019">
      <path
         d="M 0,453.543 H 1785.827 V 0 H 0 Z"
         transform="translate(-1226.3592,-401.47451)"
         id="path2019" />
    </clipPath>
    <clipPath
       clipPathUnits="userSpaceOnUse"
       id="clipPath2021">
      <path
         d="M 0,453.543 H 1785.827 V 0 H 0 Z"
         transform="translate(-594.72442,-360.33371)"
         id="path2021" />
    </clipPath>
    <clipPath
       clipPathUnits="userSpaceOnUse"
       id="clipPath2023">
      <path
         d="M 0,453.543 H 1785.827 V 0 H 0 Z"
         transform="translate(-670.98212,-358.20591)"
         id="path2023" />
    </clipPath>
    <clipPath
       clipPathUnits="userSpaceOnUse"
       id="clipPath2025">
      <path
         d="M 0,453.543 H 1785.827 V 0 H 0 Z"
         transform="translate(-697.47161,-299.2708)"
         id="path2025" />
    </clipPath>
    <clipPath
       clipPathUnits="userSpaceOnUse"
       id="clipPath2027">
      <path
         d="M 0,453.543 H 1785.827 V 0 H 0 Z"
         transform="translate(-795.58854,-368.85351)"
         id="path2027" />
    </clipPath>
    <clipPath
       clipPathUnits="userSpaceOnUse"
       id="clipPath2029">
      <path
         d="M 0,453.543 H 1785.827 V 0 H 0 Z"
         transform="translate(-824.90642,-328.62031)"
         id="path2029" />
    </clipPath>
    <clipPath
       clipPathUnits="userSpaceOnUse"
       id="clipPath2031">
      <path
         d="M 0,453.543 H 1785.827 V 0 H 0 Z"
         transform="translate(-887.4058,-293.23951)"
         id="path2031" />
    </clipPath>
    <clipPath
       clipPathUnits="userSpaceOnUse"
       id="clipPath2033">
      <path
         d="M 0,453.543 H 1785.827 V 0 H 0 Z"
         transform="translate(-987.7087,-385.16381)"
         id="path2033" />
    </clipPath>
    <clipPath
       clipPathUnits="userSpaceOnUse"
       id="clipPath2035">
      <path
         d="M 0,453.543 H 1785.827 V 0 H 0 Z"
         transform="translate(-1101.9009,-395.66601)"
         id="path2035" />
    </clipPath>
    <clipPath
       clipPathUnits="userSpaceOnUse"
       id="clipPath2037">
      <path
         d="M 0,453.543 H 1785.827 V 0 H 0 Z"
         transform="translate(-1207.3467,-429.06991)"
         id="path2037" />
    </clipPath>
    <clipPath
       clipPathUnits="userSpaceOnUse"
       id="clipPath2039">
      <path
         d="M 0,453.543 H 1785.827 V 0 H 0 Z"
         transform="translate(-1233.192,-323.25541)"
         id="path2039" />
    </clipPath>
    <clipPath
       clipPathUnits="userSpaceOnUse"
       id="clipPath2041">
      <path
         d="M 0,453.543 H 1785.827 V 0 H 0 Z"
         transform="translate(-1300.5751,-406.28071)"
         id="path2041" />
    </clipPath>
    <clipPath
       clipPathUnits="userSpaceOnUse"
       id="clipPath2043">
      <path
         d="M 0,453.543 H 1785.827 V 0 H 0 Z"
         transform="translate(-1366.9291,-403.03151)"
         id="path2043" />
    </clipPath>
    <clipPath
       clipPathUnits="userSpaceOnUse"
       id="clipPath2045">
      <path
         d="M 0,453.543 H 1785.827 V 0 H 0 Z"
         transform="translate(-1398.5635,-361.22291)"
         id="path2045" />
    </clipPath>
  </defs>
  <sodipodi:namedview
     id="namedview1"
     pagecolor="#ffffff"
     bordercolor="#000000"
     borderopacity="0.25"
     inkscape:showpageshadow="2"
     inkscape:pageopacity="0.0"
     inkscape:pagecheckerboard="0"
     inkscape:deskcolor="#d1d1d1">
    <inkscape:page
       x="0"
       y="0"
       width="1185.6862"
       height="250.89326"
       id="page2"
       margin="0"
       bleed="0" />
  </sodipodi:namedview>
  <g
     id="layer-MC0"
     inkscape:groupmode="layer"
     inkscape:label="color fondo"
     transform="translate(-765.57914,-19.33366)">
    <path
       id="path1"
       d="M 1.145,1.483 H 1785.827 V 453.382 H 1.145 Z"
       style="fill:#e500ba;fill-opacity:1;fill-rule:nonzero;stroke:none"
       transform="matrix(1.3333333,0,0,-1.3333333,0,604.724)" />
  </g>
  <g
     id="layer-MC1"
     inkscape:groupmode="layer"
     inkscape:label="trama fondo"
     transform="translate(-765.57914,-19.33366)">
    <g
       opacity="0.210007"
       id="g10"
       clip-path="url(#clipPath11)"
       style="display:inline">
      <path
         d="M 1977.701,-117.941 H -160.71 V 567.22 h 2138.411 z"
         style="fill:url(#pattern8);fill-opacity:1;fill-rule:nonzero;stroke:none"
         transform="matrix(1.3333333,0,0,-1.3333333,0,604.724)"
         clip-path="url(#clipPath9)"
         id="path10" />
    </g>
  </g>
  <g
     id="layer-MC2"
     inkscape:groupmode="layer"
     inkscape:label="recorte rayo"
     transform="translate(-765.57914,-19.33366)">
    <path
       id="path38"
       d="m 0,0 c 0,0 347.666,66.459 279.888,96.887 0,0 411.563,41.416 244.667,60.697 0,0 462.384,105.99 311.959,121.474 l 416.112,89.806 -1478.255,-9.353 V -61.445 Z"
       style="fill:#cc00af;fill-opacity:1;fill-rule:nonzero;stroke:none"
       transform="matrix(1.3333333,0,0,-1.3333333,270.57427,400.7736)"
       clip-path="url(#clipPath39)" />
    <path
       id="path56"
       d="M 0,0 C -0.381,-0.092 -0.821,-0.197 -1.237,-0.297 -6.959,-2.049 -4.433,-1.332 0,0"
       style="display:inline;fill:#ffee1d;fill-opacity:1;fill-rule:nonzero;stroke:none"
       transform="matrix(1.3333333,0,0,-1.3333333,1195.3172,135.65147)"
       clip-path="url(#clipPath57)" />
    <path
       id="path58"
       d="M 0,0 3.809,0.85 C -4.688,-1.48 -2.331,-0.74 0,0 m -820.936,171.874 c -2.015,-0.08 -1.876,-0.146 -1.024,-0.208 1.398,0.131 5.903,0.168 11.03,0.166 -1.425,0.118 -4.018,0.188 -10.006,0.042 m 20.055,-0.082 c 0.185,0.01 0.313,0.018 0.463,0.026 9.658,-0.127 6.232,-0.074 -0.463,-0.026 m 946.164,9.346 c 3.218,0.18 8.196,0.132 13.816,-0.015 -4.076,-0.065 -8.695,-0.077 -13.816,0.015 m 339.652,3.31 c 4.329,0.129 12.958,0.496 16.125,0.231 -4.928,-0.584 -8.743,-0.343 -16.125,-0.231 m 51.358,-22.186 14.697,2.773 c -17.504,-4.434 -30.314,-6.973 -16.478,-4.547 0.89,0.887 15.085,3.986 29.275,7.084 7.095,1.549 14.189,3.097 19.619,4.369 1.866,0.436 3.592,0.84 5.142,1.202 1.905,0.46 3.594,0.869 5.024,1.214 2.767,0.699 4.273,1.156 4.295,1.335 l 16.891,3.353 c -4.575,-1.013 -5.308,-1.175 -9.831,-2.176 6.438,1.263 11.435,2.299 15.208,3.126 3.788,0.831 6.39,1.461 8.459,2.002 4.152,1.085 6.206,1.824 12.164,3.285 -6.06,-0.148 -12.747,-0.251 -21.404,-0.259 -6.105,0.013 -11.328,0.056 -13.9,0.122 -2.554,0.066 -2.431,0.156 2.619,0.269 l -15.728,-0.268 -12.698,-0.248 c -5.58,-0.009 -4.218,0.236 1.337,0.245 l -29.25,-0.294 0.217,0.042 c -4.172,-0.24 -13.627,-0.629 -18.245,-0.798 -7.432,0.148 3.727,0.167 1.825,0.325 l -16.196,-0.432 c -6.6,0.311 6.822,0.737 18.01,0.757 -15.134,1.26 -13.436,-0.427 -46.085,0.159 l 15.292,0.269 c -9.865,0.708 -21.798,0.353 -39.092,0.724 4.103,-0.225 34.624,-0.991 17.047,-1.441 -4.953,0.072 -11.484,0.079 -20.964,-0.254 -0.092,0.482 -9.349,0.305 -20.936,0.204 l 0.787,0.645 c -12.526,-0.264 -11.534,-0.584 -18.903,-0.918 -13.961,-0.026 -16.859,0.452 -20.149,0.848 -22.358,-0.039 15.445,-0.696 -11.018,-0.984 -18.595,0.127 -31.651,-0.217 -53.892,-0.741 -13.016,0.138 2.273,0.406 -2.396,0.559 l -11.534,-0.583 c -2.824,-0.006 -1.913,0.157 -1.451,0.239 -9.719,-0.259 -0.797,-0.644 -16.078,-0.915 -4.115,-0.73 -31.38,0.831 -50.289,-0.088 -4.663,0.152 2.247,0.406 0.822,0.644 -25.948,-0.689 -22.245,-0.522 -43.548,-1.363 l -18.155,0.305 c 13.341,-0.396 -3.697,-1.072 -18.62,-1.634 4.734,-0.202 8.776,-0.379 11.49,-0.459 l -23.819,-0.494 c -2.878,0.087 -0.479,0.322 3.422,0.614 -1.623,-0.067 -3.165,-0.131 -4.365,-0.181 -8.518,0.182 -4.105,0.579 1.995,0.975 2.903,-0.115 5.784,-0.229 8.584,-0.34 5.88,0.426 11.382,0.891 10.155,1.258 -1.549,-0.084 -4.528,-0.166 -7.808,-0.222 1.538,0.115 2.52,0.215 1.807,0.275 -0.808,0.062 -3.293,-0.095 -7.187,-0.283 l -5.42,0.679 -1.313,-0.292 -31.166,0.249 c -22.292,-0.859 -41.681,-2.038 -77.069,-2.556 8.778,0.578 1.882,0.866 2.355,1.488 9.661,-0.595 27.409,0.452 45.751,0.435 -9.572,0.008 -7.469,0.317 -5.034,0.436 l -32.709,-0.804 c 0.734,0.511 -6.949,0.336 -15.496,0.491 6.465,-0.96 -24.379,-0.821 -37.687,-1.212 -0.829,0.331 2.36,0.694 18.6,0.716 -17.922,0.641 -23.144,-1.323 -40.734,-0.793 3.966,0.033 6.103,-0.005 7.669,0.176 -9.26,-0.358 -31.904,-0.264 -26.579,0.062 l 3.956,0.032 c -26.325,-0.048 -80.133,-0.499 -84.056,-1.375 -0.264,0.108 3.444,1.047 5.035,1.229 l -46.951,-3.159 c 4.133,0.757 -11.763,2.396 10.065,2.947 -6.267,0.064 -14.023,0.137 -27.235,-0.205 4.277,-0.077 10.664,-0.988 4.821,-1.092 -16.043,0.712 -11.137,0.364 -30.911,0.933 6.411,-0.117 -0.703,-1.307 -10.83,-1.335 1.58,0.182 -0.851,1.126 2.851,1.269 l -25.203,-1.284 c 6.291,0.242 1.105,0.96 -4.537,1.242 2.619,-0.204 -21.795,-0.118 -28.513,-0.271 l 10.687,-0.194 c -28.465,-0.01 -28.105,-1.759 -56.342,-1.879 3.417,0.255 8.433,1.483 -5.928,1.534 -6.576,-0.617 -29.123,-2.955 -54.102,-3.556 l -4.795,0.299 -19.165,-0.496 c 11.93,0.942 45.414,2.977 63.701,3.803 -10.652,0.193 -2.969,0.369 -18.92,0.238 -5.635,0.273 8.692,0.523 13.385,0.571 l -37.14,-0.035 c 1.657,-0.663 -28.395,-0.855 -26.975,-1.406 l 40.331,0.952 c 1.639,-0.66 -23.31,-2.055 -49.624,-2.103 -6.696,0.225 4.998,1.228 4.449,1.449 -3.414,-0.253 -24.972,-0.6 -27.391,-0.451 l 11.16,0.43 c -14.65,0.16 -23.901,-1.043 -41.509,-0.512 -6.075,0.004 -18.147,0.75 -19.195,0.346 9.914,-0.704 11.866,-3.065 5.265,-3.683 -2.13,0.038 -31.909,0.531 -38.847,0.866 -10.01,0.539 15.01,1.529 6.489,1.992 -0.365,-0.186 -5.89,-0.448 -8.193,-0.535 -6.382,0.116 2.638,0.585 -11.227,0.415 -2.31,-0.697 -28.201,-0.121 -6.551,-0.618 -13.562,-0.281 -14.415,0.049 -30.342,-0.082 5.073,-0.408 -14.29,-1.589 -27.876,-1.869 0.8,0.178 -2.253,0.384 -3.732,0.478 -27.802,-0.114 -42.727,0.101 -68.652,-0.057 -2.391,0.149 -14.901,0.27 -9.576,0.597 -3.727,-0.144 -7.151,-0.397 -15.148,-0.464 -15.479,0.492 17.828,0.205 6.027,0.838 -1.006,-0.402 -20.678,-0.677 -32.063,-0.997 3.508,-0.589 26.314,0.05 37.718,0.369 0.029,-0.422 -4.919,-0.885 -13.26,-1.313 -8.342,-0.428 -20.078,-0.821 -33.625,-1.102 -21.534,-0.345 -9.34,0.487 -13.078,0.343 -40.45,-0.108 -34.451,-1.692 -68.043,-1.295 -13.331,0.453 -0.608,1.066 -3.566,1.435 17.542,0.314 26.935,-0.171 38.824,-0.074 l -14.639,0.161 c 5.578,0.214 17.288,0.424 23.67,0.309 -5.586,0.206 -22.671,0.121 -42.26,0.016 -9.795,-0.046 -20.216,-0.094 -30.139,-0.14 -4.961,-0.006 -9.798,-0.012 -14.37,-0.018 -4.643,0.018 -9.016,0.034 -12.978,0.049 -0.643,-0.022 -1.338,-0.046 -2.073,-0.072 0.04,-1.489 0.083,-3.09 0.123,-4.586 0.048,-1.385 0.093,-2.673 0.127,-3.663 0.087,-1.978 0.177,-2.762 0.274,-0.743 l -0.066,8.537 1.177,0.017 c 3.364,-0.141 1.556,-0.278 -0.796,-0.396 0.075,-2.227 0.173,-5.178 0.223,-6.663 0.066,-1.596 0.125,-1.616 0.189,2.294 0.305,-13.246 0.784,-28.095 0.538,-46.742 l -0.613,-3.504 c 0.179,0.399 0.365,12.188 0.179,17.43 0.271,-7.773 -0.83,-28.593 -0.027,-37.111 l 0.424,13.072 c 0.308,-13.299 0.959,-29.74 0.766,-46.265 0.605,7.52 -0.069,3.81 0.639,15.553 -0.881,-10.18 0.037,42.277 -0.889,25.923 0.822,12.049 0.349,20.855 1.05,36.608 -0.202,-0.488 -0.387,-5.58 -0.287,8.293 -0.059,0.627 -0.135,2.105 -0.179,3.045 0.007,0.423 0.01,0.573 0.016,0.936 -0.009,-0.278 -0.016,-0.484 -0.024,-0.765 -0.031,0.601 -0.037,0.655 -0.009,-0.285 -0.088,-3.305 -0.194,-5.982 -0.307,-7.068 -0.159,2.347 -0.261,6.457 -0.337,11.143 -0.057,4.153 -0.121,8.817 -0.178,12.939 1.613,0.038 3.121,0.074 4.441,0.106 1.815,0.05 3.372,0.094 4.559,0.127 8.233,-0.044 -3.442,-0.254 1.053,-0.441 l 11.143,0.43 c 1.107,-0.443 21.875,-0.608 2.485,-0.994 l 17.454,0.09 c 10.278,-0.187 24.415,-0.197 33.13,0.047 8.233,-0.045 20.792,0.629 13.623,0.232 l 27.372,0.451 0.254,-0.111 c 27.008,0.115 55.596,1.096 86.479,0.481 9.093,0.171 18.489,0.369 33.701,0.338 l 2.969,-0.37 c 11.671,0.209 35.061,-0.167 40.075,0.269 12.601,-0.965 56.663,0.131 77.196,0.075 l 0.773,0.512 c 14.132,0.061 27.683,0.291 45.226,0.605 l -1.082,0.442 c 15.123,0.464 38.888,-0.073 62.812,0.124 -1.626,-0.181 -7.694,-0.175 -11.988,-0.099 28.588,-0.831 60.299,1.119 86.226,0.545 6.458,0.204 11.137,0.178 15.667,0.094 -0.602,-0.013 -1.139,-0.024 -1.602,-0.034 0.662,0.003 1.645,0.007 2.652,0.012 2.853,-0.058 5.791,-0.118 8.975,-0.182 -2.707,0.091 -5.296,0.165 -7.55,0.192 4.981,0.041 12.536,0.144 19.942,0.304 l 3.158,-0.462 c 0.602,0.009 1.086,0.016 1.712,0.025 7.269,-0.132 5.842,0.265 1.962,0.602 3.728,0.103 7.145,0.22 9.794,0.353 5.908,-0.74 19.429,0.385 27.492,-0.394 4.99,0.436 37.232,0.54 41.172,1.416 0.254,-0.109 2.437,-0.148 -1.562,-0.181 8.258,-0.044 16.509,-0.089 23.913,0.198 l 3.508,-0.59 18.023,0.937 c 10.955,-0.304 15.496,-0.492 4.625,-1.032 26.255,0.891 21.305,0.408 43.633,1.267 l -1.087,-0.402 c 7.983,0.065 20.741,0.676 25.558,0.379 17.861,-0.639 88.359,0.456 134.2,0.046 -8.898,1.11 21.311,-0.387 23.121,0.528 2.672,-0.259 9.061,-0.374 1.639,-0.661 23.392,0.419 35.15,-0.215 51.297,0.649 2.679,-0.26 -5.004,-0.436 -2.621,-0.584 1.876,0.071 7.43,0.287 9.866,0.137 2.384,-0.149 -3.424,-0.253 -7.126,-0.396 23.896,0.197 26.308,1.062 28.041,1.871 12.112,-0.301 18.154,-0.21 26.896,0.368 4.217,-0.234 11.252,-0.462 -3.596,-0.65 8.354,0.015 51.031,-0.059 51.878,0.585 2.618,-0.145 11.676,0.027 13.876,0.115 18.743,0.08 20.392,0.033 38.797,0.21 l -5.103,0.072 c 7.263,0.817 15.299,0.269 30.136,0.455 l -0.423,-0.081 c 34.026,-0.341 14.686,0.359 48.257,-0.063 l -1.83,0.468 c 3.124,1.051 29.743,-0.42 49.221,0.097 l -7.034,0.23 c 10.637,0.42 29.748,-1.215 40.434,-1.276 2.33,-0.075 -3.677,-0.167 -6.927,-0.254 27.976,-0.432 3.62,0.651 24.464,0.929 3.848,-0.315 -4.948,-0.893 9.082,-0.868 6.991,-0.23 40.688,1.358 59.835,0.829 -4.221,0.235 -8.41,0.469 1.27,0.726 14.84,0.188 40.128,-0.733 53.525,0.175 0.28,-0.007 0.355,-0.015 0.466,-0.024 0.106,-0.008 0.202,-0.017 0.289,-0.024 0.173,-0.016 0.306,-0.033 0.408,-0.049 0.203,-0.033 0.28,-0.066 0.279,-0.098 4.171,0.182 13.16,0.356 21.939,0.639 -1.557,-0.42 -2.788,-0.785 -3.153,-0.985 -2.437,-0.314 -4.678,-0.652 -6.733,-0.999 -2.063,-0.349 -3.96,-0.712 -5.89,-1.115 -1.928,-0.403 -3.901,-0.849 -6.063,-1.353 -3.706,-0.848 -7.533,-1.724 -11.282,-2.582 -15.878,-3.649 -30.44,-7.031 -30.478,-6.258 l -34.093,-7.441 0.858,0.344 c -21.824,-4.606 -29.456,-6.628 -37.043,-8.641 -5.062,-0.986 -1.413,-0.053 -1.012,0.116 -31.923,-6.575 -35.077,-7.322 -61.627,-13.831 l -2.882,-0.115 c -7.179,-1.844 -46.223,-9.18 -77.347,-16.489 0.295,0.121 0.922,0.355 3.389,0.959 -35.032,-8.156 -84.452,-16.82 -96.953,-21.365 L 213.54,96.37 c 30.043,6.341 -4.303,-1.73 8.106,0.642 -5.43,-1.222 -12.362,-2.604 -16.728,-3.399 l -1.857,-0.338 1.89,-0.264 c 2.585,-0.36 4.345,-0.663 4.573,-0.781 0.229,-0.107 -1.068,0.008 -4.617,0.36 l -4.475,0.444 4.396,0.993 c 0.072,0.016 0.365,0.082 0.672,0.152 l 2.289,0.401 c 1.187,0.48 -0.177,0.323 -3.036,-0.205 l -6.5,-1.202 6.618,-0.937 c 4.585,-0.649 13.3,-1.598 20.269,-3.823 3.465,-1.057 6.473,-2.64 7.686,-4.208 0.633,-0.765 0.749,-1.43 0.749,-1.862 0.026,-0.431 -0.111,-0.656 -0.151,-0.594 -0.075,-1.247 -1.087,-2.693 -2.23,-3.935 -1.175,-1.262 -2.578,-2.407 -4.037,-3.482 -2.943,-2.141 -6.156,-3.999 -9.425,-5.736 -6.555,-3.463 -13.385,-6.439 -20.248,-9.244 C 183.732,53.776 169.769,48.946 155.855,44.374 127.998,35.286 100.262,27.331 73.031,19.725 l 6.471,1.056 -19.022,-5.246 c -5.041,-1.199 -6.85,-1.296 6.725,2.417 -3.622,-0.79 -9.288,-2.437 -14.096,-3.909 -4.808,-1.473 -8.758,-2.773 -8.932,-2.902 -26.7,-6.843 10.179,3.606 2.007,1.443 l -11.07,-3.026 2.522,0.585 C 28.723,7.465 28.01,6.927 11.627,2.693 1.226,0.149 6.198,1.751 2.11,0.726 2.116,0.755 1.772,0.686 0.816,0.446 -0.137,0.195 -1.706,-0.217 -4.156,-0.86 l -24.116,-6.039 9.782,1.864 c -10.615,-2.976 -22.688,-5.644 -11.396,-3.507 -11.62,-2.206 -51.275,-12.057 -77.443,-18.083 l -8.982,-2.068 9.153,-1.03 c 11.429,-1.286 20.178,-2.862 23.131,-3.618 3.741,-0.685 7.479,-1.497 10.958,-2.822 0.429,-0.172 0.866,-0.336 1.269,-0.537 0.422,-0.183 0.819,-0.389 1.197,-0.61 l 0.29,-0.161 0.205,-0.137 c 0.132,-0.094 0.281,-0.179 0.402,-0.282 l 0.363,-0.313 0.314,-0.365 c 0.399,-0.519 0.439,-1.263 0.104,-1.832 -0.342,-0.593 -0.758,-0.971 -1.472,-1.504 -1.483,-1.092 -3.288,-1.984 -5.148,-2.792 -1.87,-0.809 -3.831,-1.537 -5.858,-2.216 -4.055,-1.362 -8.36,-2.566 -12.912,-3.721 2.277,0.519 4.126,0.834 3.453,0.475 -0.675,-0.344 -3.87,-1.413 -11.801,-3.207 2.739,1.332 -4.519,-0.266 -14.168,-2.102 -9.643,-1.86 -21.684,-3.941 -28.242,-4.563 5.841,0.682 -5.536,-1.343 -16.12,-3.087 -10.581,-1.755 -20.354,-3.306 -11.167,-2.381 -13.444,-1.919 -0.89,0.364 -11.124,-0.842 -31.898,-5.23 -70.611,-9.341 -110.279,-14.098 -0.599,-0.246 6.08,0.255 -2.405,-0.989 l -21.062,-1.493 c -7.834,-0.947 -7.11,-1.816 -21.513,-2.741 2.04,0.068 5.087,0.168 -0.171,-0.448 -3.119,-0.301 -6.242,-0.602 -9.375,-0.904 -1.779,-0.171 -3.559,-0.342 -5.344,-0.514 l -1.347,-0.129 -0.675,-0.064 -0.168,-0.017 -0.001,-0.036 -10e-4,-0.073 c -0.05,-0.203 0.132,-0.367 -0.28,-0.625 1.956,-0.965 4.194,-2.124 6.161,-3.207 1.925,-1.072 3.638,-2.177 4.426,-3.304 1.203,-1.596 1.292,-3.177 0.462,-4.918 -0.822,-1.716 -2.345,-3.311 -4.007,-4.72 -1.671,-1.42 -3.524,-2.701 -5.444,-3.895 -7.747,-4.732 -16.31,-8.379 -24.919,-11.807 -17.306,-6.757 -35.21,-12.353 -53.216,-17.602 -36.06,-10.398 -72.716,-19.153 -109.136,-26.603 10.573,2.041 3.587,0.417 -4.432,-1.391 5.233,1.088 -0.024,-0.45 1.053,-0.453 -10.874,-2.206 -21.759,-4.353 -32.654,-6.447 -2.896,-0.956 -11.62,-2.816 -20.038,-4.561 -8.416,-1.749 -16.524,-3.384 -18.166,-4.034 l 10.307,2.202 c -13.585,-3.548 19.55,2.313 17.735,0.996 15.19,4.042 40.779,7.392 65.619,14.409 5.586,1.095 -4.658,-1.397 -1.644,-0.926 6.273,1.879 13.938,3.735 28.191,7.006 l -1.583,-0.489 c 19.947,4.905 34.174,8.51 48.985,12.409 7.404,1.958 14.952,3.999 23.408,6.417 8.454,2.426 17.824,5.2 28.809,8.853 l -3.399,-0.644 c 9.44,3.11 11.447,3.732 15.867,5.223 5.219,2.36 -1.309,-0.16 -8.026,-2.485 -6.717,-2.335 -13.606,-4.517 -8.795,-2.528 3.201,0.81 8.956,2.609 15.862,5.091 6.901,2.491 14.96,5.651 22.669,9.395 3.849,1.884 7.613,3.907 11.04,6.181 1.712,1.139 3.341,2.339 4.822,3.663 1.474,1.328 2.82,2.779 3.824,4.502 0.509,0.848 0.895,1.805 1.125,2.798 0.234,1.001 0.232,2.055 0.072,3.033 -0.31,1.911 -1.656,3.68 -1.869,3.914 -0.747,0.866 -1.324,1.226 -1.411,1.384 -0.057,0.031 -0.114,0.062 -0.127,0.069 -0.294,0.171 -0.652,0.301 -0.804,0.405 0.244,0.033 0.446,0.059 0.612,0.081 0.322,0.048 0.484,0.087 0.536,0.118 0.106,0.063 -0.248,0.095 -0.642,0.122 -0.775,0.057 -1.713,0.092 2.37,0.514 l 1.122,-0.031 2.026,0.064 3.793,0.788 c 9.948,1 15.002,1.192 15.401,0.981 -2.414,-0.236 -6.848,-0.821 -9.432,-1.121 12.934,1.028 36.328,4.168 40.763,4.584 l -14.581,-1.493 c 41.326,4.951 91.821,10.883 131.507,17.581 l -3.053,-0.238 c 15.154,2.514 21.23,3.477 27.686,4.461 6.449,1.027 13.294,1.979 29.848,5.327 l -1.194,-0.291 c 6.587,1.533 15.404,3.477 24.391,5.724 -4.116,-1.154 -0.18,-0.336 3.426,0.495 3.603,0.841 6.888,1.657 1.5,-0.02 8.072,2.339 13.028,4.247 16.266,5.829 1.618,0.795 2.809,1.49 3.739,2.137 0.233,0.152 0.448,0.332 0.651,0.482 0.21,0.167 0.372,0.273 0.6,0.485 0.422,0.382 0.788,0.716 1.08,1.108 0.656,0.714 0.993,1.475 1.236,2.346 0.218,0.874 0.13,2.01 -0.66,3.136 -0.732,1.11 -2.417,2.261 -3.972,2.912 -1.666,0.743 -3.768,1.425 -6.479,2.093 -1.615,0.598 -3.25,1.113 -4.891,1.616 -3.735,0.65 -5.768,0.865 -8.95,1.311 -3.184,0.426 -7.52,1.038 -15.898,1.98 9.705,-0.952 0.459,0.367 -0.279,0.69 l 0.153,-2.765 c 0.264,0.037 0.28,0.016 0.016,-0.07 l -0.161,2.907 c 0.145,0.058 1.603,-0.013 5.091,-0.358 -1.736,0.271 -3.43,0.492 -5.049,0.72 l 0.2,-3.624 c 31.259,6.699 46.681,11.987 61.918,14.557 7.752,2.445 0.299,0.742 -8.002,-1.248 -8.3,-1.992 -17.452,-4.258 -13.061,-3.085 -7.473,-1.464 12.836,3.887 23.619,6.461 10.956,2.704 18.951,3.308 46.452,10.387 -2.738,-0.699 -2.904,-0.824 -5.635,-1.519 10.359,2.388 20.073,5.542 32.782,8.469 6.904,2.467 16.362,4.337 18.188,5.653 L 24.576,2.83 c 14.224,3.973 27.365,8.403 50.911,14.508 -1.78,-0.669 -8.697,-2.81 -13.462,-4.239 6.922,1.661 13.16,3.8 20.321,5.574 C 81.443,18.006 73.837,15.809 64.559,13.231 55.281,10.651 44.328,7.697 36.761,5.37 c 7.471,1.621 28.743,8.371 21.296,5.453 10.734,4.067 27.022,7.298 45.259,13.496 l -1.085,-0.811 c 2.902,0.923 8.891,2.917 14.261,4.515 l -9.55,-3.478 c 14.792,4.903 28.908,8.192 43.057,13.08 -14.904,-4.81 -16.645,-5.119 -16.216,-4.811 0.423,0.332 2.99,1.367 -3.38,-0.425 18.332,6.025 23.669,7.551 29.605,9.134 2.964,0.803 6.068,1.649 10.977,3.219 4.904,1.585 11.63,3.849 21.723,7.838 -5.434,-2.27 -20.756,-7.395 -12.206,-4.069 7.786,2.706 17.996,6.55 22.767,8.339 26.301,11.995 -4.211,-1.476 6.866,3.884 4.582,1.793 7.753,3.434 11.122,5.468 1.685,1.015 3.413,2.146 5.366,3.512 1.942,1.387 4.13,2.985 6.502,5.37 l 0.413,-0.272 c 1.569,1.583 2.913,3.349 3.5,5.547 0.149,0.534 0.193,1.135 0.22,1.685 -0.043,0.571 -0.047,1.138 -0.225,1.65 -0.078,0.258 -0.155,0.512 -0.231,0.762 -0.111,0.224 -0.221,0.445 -0.329,0.663 -0.211,0.453 -0.478,0.801 -0.74,1.138 -1.063,1.314 -2.151,2.08 -3.079,2.631 -0.467,0.291 -0.902,0.537 -1.311,0.722 -0.407,0.192 -0.783,0.395 -1.133,0.529 -2.802,1.133 -3.818,1.215 -4.723,1.388 -0.451,0.074 -0.875,0.143 -1.491,0.244 -0.607,0.119 -1.402,0.276 -2.602,0.512 -2.39,0.472 -6.373,1.305 -13.703,2.252 4.163,-0.26 8.334,-0.635 12.525,-1.283 -5.011,0.98 -10.021,1.6 -15.028,2.064 l 0.218,-3.968 0.335,0.077 -0.323,-0.131 -0.224,4.078 2.879,0.172 c -1.105,0.093 -2.159,0.183 -2.837,0.241 l 0.27,-4.897 c 14.159,3.383 19.58,4.449 34.496,7.521 -3.775,-0.467 1.897,1.305 16.001,4.364 9.681,1.796 -5.292,-1.611 14.69,2.772 -4.451,-1.269 -9.317,-2.707 -18.112,-4.151 -0.858,-0.346 -4.388,-1.256 -5.274,-1.606 10.432,1.914 26.055,5.546 33.293,7.113 -2.791,-0.584 -6.128,-1.278 -7.851,-1.58 l 28.845,6.91 c 4.602,0.808 1.012,-0.116 -2.542,-1.029 5.86,1.318 9.875,2.412 18.499,4.315 -2.152,-0.865 -1.531,-1.145 -13.712,-3.963 l 27.527,6.386 c 1.88,0.231 14.272,2.601 10.717,1.686 15.36,3.079 37.399,8.85 57.762,12.933 1.039,0.302 3.14,0.83 7.444,1.817 19.096,4.03 36.099,7.208 58.6,12.614 l 12.978,2.082 c 17.675,3.978 -17.556,-2.883 11.876,3.74 20.83,4.725 7.92,1.096 15.285,2.485 10.307,2.587 28.206,7.188 47.505,10.768 -6.321,-1.5 -11.32,-2.472 -17.24,-3.803"
       style="fill:#ffee1d;fill-opacity:1;fill-rule:nonzero;stroke:none"
       transform="matrix(1.3333333,0,0,-1.3333333,1112.6172,153.11627)"
       clip-path="url(#clipPath59)" />
  </g>
  <g
     id="layer-MC7"
     inkscape:groupmode="layer"
     inkscape:label="cada dos semanas"
     transform="translate(-765.57914,-19.33366)">
    <path
       id="path1740"
       d="m 0,0 c 0,-0.883 -0.136,-1.617 -0.423,-2.153 -0.335,-0.625 -0.866,-1.168 -1.536,-1.613 -0.388,-0.28 -0.918,-0.448 -1.588,-0.505 -0.071,-0.006 -0.159,-0.014 -0.265,-0.023 -0.071,-0.006 -0.141,-0.011 -0.212,-0.017 -0.635,-0.054 -1.271,0.067 -1.905,0.367 -0.636,0.298 -1.131,0.726 -1.482,1.276 -0.353,0.552 -0.53,1.181 -0.53,1.888 0,0.07 0.003,0.179 0,0.317 -0.017,0.756 0.071,1.383 0.318,1.828 0.246,0.444 0.722,0.908 1.429,1.391 0.07,0.041 0.123,0.064 0.158,0.067 0.741,0.521 1.395,0.806 1.959,0.854 C -3.441,3.731 -2.755,3.6 -2.065,3.266 -1.47,2.978 -0.958,2.509 -0.583,1.909 -0.191,1.284 0,0.635 0,0 m -0.635,-26.894 c 0,-0.106 -0.005,-0.235 0,-0.371 0.017,-0.475 0.063,-0.889 0.052,-1.16 -0.034,-0.856 -0.432,-1.678 -1.085,-2.368 -0.653,-0.691 -1.439,-1.111 -2.356,-1.259 -0.105,-0.009 -0.23,-0.02 -0.37,-0.032 -0.847,-0.072 -1.607,0.103 -2.276,0.521 -0.671,0.42 -1.1,1.049 -1.324,1.82 -0.128,0.439 -0.229,0.969 -0.265,1.566 -0.137,2.278 -0.24,4.398 -0.318,6.325 -0.095,2.346 0.035,5.368 0.424,9.036 0.035,0.391 0.106,0.905 0.159,1.496 0.049,0.55 0.072,0.995 0.106,1.28 0.11,0.92 0.458,1.706 1.058,2.34 0.6,0.633 1.341,1.022 2.223,1.168 0.071,0.006 0.16,0.014 0.265,0.023 0.848,0.072 1.589,-0.13 2.224,-0.606 0.635,-0.475 1.012,-1.146 1.165,-1.965 0.096,-0.515 0.172,-1.29 0.158,-2.264 -0.017,-1.256 -0.083,-3.188 -0.158,-5.73 -0.034,-1.131 -0.072,-1.859 -0.106,-2.18 0.042,-0.695 0.063,-1.043 0.106,-1.738 0,-0.071 0.043,-0.879 0.132,-2.424 0.088,-1.546 0.15,-2.705 0.186,-3.478"
       style="fill:#000b30;fill-opacity:1;fill-rule:nonzero;stroke:none"
       transform="matrix(1.3333333,0,0,-1.3333333,1539.1792,261.76547)"
       clip-path="url(#clipPath1741)" />
    <path
       id="path1742"
       d="m 0,0 c 0,0.317 -0.204,0.539 -0.609,0.664 -0.406,0.125 -0.839,0.168 -1.297,0.13 -0.635,-0.053 -1.13,-0.2 -1.482,-0.441 -1.201,-0.948 -2.057,-1.991 -2.568,-3.127 -0.512,-1.138 -0.767,-2.535 -0.767,-4.194 0,-1.271 0.265,-2.21 0.794,-2.819 0.529,-0.609 1.357,-0.954 2.488,-1.035 0.212,-0.018 0.405,-0.019 0.582,-0.004 1.129,0.094 1.977,0.694 2.541,1.8 0.141,0.858 0.282,3.319 0.318,7.279 0.009,0.944 0,1.535 0,1.747 m -4.606,-18.067 c -2.788,-0.233 -5.141,0.507 -6.935,2.224 -2.222,2.126 -3.248,5.637 -3.07,10.382 0.021,0.044 0.031,0.066 0.052,0.11 v 0.053 c 0.353,2.323 1.033,4.304 2.039,5.942 1.006,1.638 2.529,3.263 4.526,4.881 1.588,1.286 3.458,2.037 5.611,2.217 1.623,0.136 3,-0.173 4.13,-0.926 0.106,0.185 0.258,3.205 0.37,8.977 0.046,2.391 1.076,3.69 3.124,3.86 1.094,0.09 1.872,-0.235 2.33,-0.972 C 8.029,17.943 8.187,17.024 8.152,16.029 7.689,2.505 8.047,-7.638 7.994,-12.783 7.99,-13.202 7.985,-13.627 7.941,-14.005 7.83,-14.946 7.393,-15.789 6.723,-16.462 c -0.67,-0.672 -1.465,-1.065 -2.382,-1.177 -0.071,-0.006 -0.159,-0.013 -0.264,-0.022 -1.343,-0.111 -2.33,0.213 -2.966,0.971 -1.694,-0.67 -3.476,-1.118 -5.346,-1.346 -0.107,-0.009 -0.23,-0.019 -0.371,-0.031"
       style="fill:#000b30;fill-opacity:1;fill-rule:nonzero;stroke:none"
       transform="matrix(1.3333333,0,0,-1.3333333,1561.9779,279.96733)"
       clip-path="url(#clipPath1743)" />
    <path
       id="path1744"
       d="m 0,0 c -0.812,-0.949 -1.288,-2.1 -1.429,-3.452 1.376,0.253 2.399,0.531 3.071,0.833 1.587,0.694 2.311,2.006 2.17,3.935 C 3.565,1.508 3.229,1.586 2.806,1.552 1.747,1.466 0.812,0.948 0,0 m 8.1,-10.353 c 1.411,0.114 2.399,-0.372 2.965,-1.455 0.811,-1.558 0.353,-3.052 -1.165,-4.488 -1.587,-1.501 -4.677,-2.548 -9.264,-2.922 -0.064,-0.005 -0.096,-0.008 -0.16,-0.013 -0.021,-0.002 -0.031,-0.002 -0.052,-0.004 -2.577,-0.105 -4.713,0.706 -6.406,2.334 -1.385,1.331 -2.378,3.127 -2.911,5.372 -0.805,3.386 -0.912,6.439 -0.318,9.132 0.64,2.904 2.118,5.627 4.446,8.148 0.213,0.194 0.494,0.446 0.848,0.758 0.141,0.082 0.229,0.142 0.265,0.18 1.446,1.213 3.326,1.914 5.638,2.102 C 4.297,8.979 6.367,8.621 8.154,7.704 10.266,6.62 11.429,4.993 11.595,2.899 11.819,0.072 11.172,-2.556 9.741,-4.927 8.184,-7.506 5.771,-9.254 2.488,-10.12 c -0.423,-0.14 -1.501,-0.37 -3.229,-0.687 -0.036,-0.003 -0.105,-0.027 -0.212,-0.07 0.071,-0.136 0.159,-0.252 0.265,-0.349 0.6,-0.587 1.641,-0.819 3.123,-0.699 0.777,0.063 1.377,0.183 1.8,0.359 1.589,0.728 2.877,1.133 3.865,1.213"
       style="fill:#000b30;fill-opacity:1;fill-rule:nonzero;stroke:none"
       transform="matrix(1.3333333,0,0,-1.3333333,1588.0245,276.548)"
       clip-path="url(#clipPath1745)" />
    <path
       id="path1746"
       d="M 0,0 C 1.13,2.065 1.589,4.43 1.377,7.097 1.377,7.167 1.359,7.271 1.324,7.41 1.253,7.792 1.2,8.089 1.165,8.297 0.882,9.475 0.442,10.358 -0.158,10.946 -0.511,11.342 -0.882,11.524 -1.27,11.493 -1.517,11.474 -1.818,11.326 -2.17,11.052 -2.734,10.654 -3.212,10.104 -3.599,9.403 -5.011,6.891 -5.453,4.208 -4.923,1.357 c 0.246,-1.322 0.705,-2.326 1.377,-3.014 0.351,-0.396 0.705,-0.579 1.058,-0.552 0.282,0.023 0.6,0.154 0.954,0.393 C -0.97,-1.383 -0.459,-0.777 0,0 M 7.942,9.835 C 8.694,5.737 8.241,1.688 6.406,-2.197 5.454,-4.177 4.169,-5.81 2.594,-7.102 1.042,-8.374 -0.635,-9.103 -2.435,-9.246 c -2.507,-0.198 -4.644,0.691 -6.405,2.668 -1.73,1.94 -2.824,4.709 -3.124,8.167 -0.331,3.802 0.512,7.47 2.383,10.831 0.882,1.624 2.006,2.964 3.335,4.025 1.55,1.238 3.211,1.949 4.976,2.089 2.436,0.193 4.578,-0.665 6.353,-2.57 1.483,-1.592 2.411,-3.691 2.859,-6.129"
       style="fill:#000b30;fill-opacity:1;fill-rule:nonzero;stroke:none"
       transform="matrix(1.3333333,0,0,-1.3333333,1623.3167,287.9712)"
       clip-path="url(#clipPath1747)" />
    <path
       id="path1748"
       d="m 0,0 c -0.812,-0.943 -1.288,-2.091 -1.429,-3.442 1.376,0.244 2.399,0.514 3.071,0.812 1.587,0.682 2.311,1.989 2.17,3.92 C 3.565,1.483 3.229,1.564 2.806,1.532 1.747,1.454 0.812,0.942 0,0 m 8.1,-10.411 c 1.411,0.104 2.399,-0.389 2.965,-1.476 0.811,-1.565 0.353,-3.055 -1.165,-4.48 -1.586,-1.489 -4.677,-2.513 -9.264,-2.855 -0.064,-0.005 -0.096,-0.007 -0.16,-0.012 -0.021,-0.002 -0.031,-0.003 -0.052,-0.004 -2.577,-0.087 -4.713,0.739 -6.406,2.378 -1.385,1.34 -2.378,3.143 -2.912,5.391 -0.804,3.391 -0.911,6.446 -0.317,9.134 0.64,2.9 2.118,5.614 4.446,8.119 0.213,0.192 0.494,0.442 0.848,0.752 0.141,0.081 0.229,0.14 0.265,0.178 1.446,1.203 3.326,1.891 5.638,2.063 2.311,0.172 4.381,-0.201 6.168,-1.131 2.112,-1.1 3.274,-2.735 3.44,-4.831 0.224,-2.828 -0.422,-5.451 -1.853,-7.811 -1.557,-2.568 -3.97,-4.298 -7.253,-5.142 -0.423,-0.137 -1.501,-0.359 -3.229,-0.664 -0.036,-0.003 -0.105,-0.026 -0.212,-0.069 0.071,-0.136 0.159,-0.253 0.265,-0.35 0.6,-0.591 1.641,-0.831 3.123,-0.721 0.777,0.058 1.377,0.173 1.8,0.346 1.589,0.717 2.877,1.112 3.865,1.185"
       style="fill:#000b30;fill-opacity:1;fill-rule:nonzero;stroke:none"
       transform="matrix(1.3333333,0,0,-1.3333333,1670.5392,270.08293)"
       clip-path="url(#clipPath1749)" />
    <path
       id="path1750"
       d="M 0,0 C -0.042,-0.702 -0.009,-1.492 0.053,-2.325 0.133,-3.403 0.107,-4.424 0,-5.347 -0.07,-5.951 -0.23,-6.501 -0.477,-6.995 -0.724,-7.488 -1.068,-7.909 -1.51,-8.257 c -0.441,-0.349 -0.925,-0.612 -1.455,-0.79 -0.283,-0.055 -0.565,-0.092 -0.847,-0.112 -1.025,-0.072 -1.941,0.218 -2.647,0.873 -0.74,0.686 -1.112,1.633 -1.112,2.727 0,0.353 0.037,0.869 0.106,1.543 0.036,0.353 0.071,0.622 0.106,0.802 0.176,2.447 0.107,5.439 -0.105,8.886 -0.084,1.358 -0.318,2.289 -0.742,2.753 -0.247,0.123 -0.548,0.174 -0.9,0.149 -0.953,-0.068 -1.858,-0.502 -2.7,-1.304 -0.952,-0.908 -1.547,-2.036 -1.694,-3.297 -0.085,-0.729 -0.095,-2.313 -0.106,-4.666 -0.018,-3.691 -0.195,-5.943 -0.477,-6.705 -0.564,-1.769 -1.799,-2.722 -3.705,-2.859 -0.177,-0.013 -0.365,0.006 -0.53,0.014 -0.781,0.037 -1.57,0.276 -2.17,0.902 -0.6,0.627 -0.941,1.48 -1.059,2.517 -0.094,0.831 -0.159,1.577 -0.159,2.212 0,0.918 -0.036,2.081 -0.053,3.437 -0.026,2.021 -0.002,3.834 0.053,5.298 0.052,1.364 0.236,3.322 0.477,5.805 0.072,0.745 0.122,1.334 0.158,1.759 0.034,0.389 0.125,0.785 0.265,1.183 0.178,0.506 0.442,0.977 0.795,1.408 0.352,0.431 0.758,0.77 1.217,1.015 0.459,0.244 0.918,0.384 1.377,0.417 0.105,0.007 0.229,0.016 0.37,0.026 0.021,0.002 0.032,0.003 0.053,0.004 0.848,-0.045 1.482,-0.177 1.906,-0.393 0.67,-0.375 1.093,-0.963 1.27,-1.761 0.53,0.425 1.113,0.837 1.747,1.236 1.377,0.874 2.735,1.358 4.077,1.453 2.364,0.167 4.376,-0.825 5.982,-2.968 C -0.563,11.375 0.194,8.976 0.212,6.209 0.225,4.14 0.121,2.039 0,0"
       style="fill:#000b30;fill-opacity:1;fill-rule:nonzero;stroke:none"
       transform="matrix(1.3333333,0,0,-1.3333333,1719.6672,279.24693)"
       clip-path="url(#clipPath1751)" />
    <path
       id="path1752"
       d="m 0,0 c -0.812,-0.935 -1.288,-2.078 -1.429,-3.428 1.376,0.23 2.399,0.491 3.071,0.781 1.587,0.667 2.311,1.967 2.17,3.899 C 3.565,1.448 3.229,1.532 2.806,1.505 1.747,1.436 0.812,0.934 0,0 m 8.1,-10.492 c 1.411,0.089 2.399,-0.413 2.965,-1.507 0.811,-1.572 0.352,-3.058 -1.165,-4.467 -1.586,-1.473 -4.677,-2.466 -9.264,-2.763 -0.064,-0.004 -0.096,-0.006 -0.16,-0.01 -0.021,-10e-4 -0.031,-0.002 -0.052,-0.003 -2.577,-0.061 -4.713,0.784 -6.406,2.44 -1.385,1.354 -2.378,3.165 -2.912,5.419 -0.803,3.399 -0.911,6.454 -0.317,9.137 0.64,2.894 2.118,5.594 4.446,8.076 0.213,0.19 0.494,0.438 0.848,0.744 0.141,0.079 0.229,0.138 0.265,0.176 1.446,1.189 3.325,1.859 5.638,2.008 2.311,0.149 4.38,-0.245 6.167,-1.194 2.113,-1.121 3.275,-2.768 3.441,-4.865 0.224,-2.831 -0.422,-5.447 -1.853,-7.793 -1.557,-2.552 -3.97,-4.257 -7.253,-5.068 -0.423,-0.133 -1.501,-0.344 -3.229,-0.633 -0.036,-0.002 -0.105,-0.025 -0.212,-0.066 0.071,-0.137 0.159,-0.255 0.265,-0.354 0.6,-0.596 1.641,-0.846 3.123,-0.751 0.777,0.05 1.377,0.159 1.8,0.328 1.589,0.701 2.877,1.083 3.865,1.146"
       style="fill:#000b30;fill-opacity:1;fill-rule:nonzero;stroke:none"
       transform="matrix(1.3333333,0,0,-1.3333333,1756.6517,264.0572)"
       clip-path="url(#clipPath1753)" />
    <path
       id="path1754"
       d="m 0,0 c 0,-0.635 -0.072,-4.928 -0.212,-12.877 -0.042,-1.168 -0.063,-1.751 -0.106,-2.919 0,-1.023 -0.025,-2.256 -0.106,-3.659 -0.061,-1.055 -0.442,-1.985 -1.111,-2.767 -0.671,-0.782 -1.501,-1.221 -2.489,-1.318 -0.071,-0.004 -0.142,-0.008 -0.211,-0.013 -0.954,-0.058 -1.774,0.218 -2.462,0.828 -0.688,0.61 -1.1,1.427 -1.244,2.437 -0.069,0.488 -0.106,1.07 -0.106,1.741 0,0.282 0.05,1.533 0.106,3.713 0.282,10.844 0.361,17.306 0.423,19.137 0.041,1.195 0.194,3.011 0.477,5.429 0.07,0.498 0.203,0.974 0.397,1.428 0.193,0.452 0.441,0.83 0.741,1.131 0.299,0.3 0.652,0.551 1.059,0.754 0.405,0.2 0.838,0.315 1.297,0.344 0.105,0.006 0.211,0.013 0.318,0.019 0.635,-0.032 1.2,-0.209 1.694,-0.531 0.493,-0.322 0.873,-0.768 1.138,-1.334 0.265,-0.567 0.376,-1.189 0.344,-1.858 -0.077,-1.587 -0.083,-3.987 0,-7.147 C -0.023,1.379 0,0.529 0,0"
       style="fill:#000b30;fill-opacity:1;fill-rule:nonzero;stroke:none"
       transform="matrix(1.3333333,0,0,-1.3333333,1787.5684,255.5508)"
       clip-path="url(#clipPath1755)" />
    <path
       id="path1756"
       d="M 0,0 C 0.811,-0.522 1.359,-1.235 1.641,-2.136 1.923,-3.039 1.887,-3.923 1.534,-4.789 1.514,-4.811 1.503,-4.823 1.482,-4.845 V -4.898 C 1.129,-5.587 0.793,-6.17 0.476,-6.645 0.158,-7.121 -0.23,-7.565 -0.689,-7.978 c -0.459,-0.413 -0.856,-0.743 -1.19,-0.99 -0.337,-0.248 -0.874,-0.603 -1.615,-1.066 -0.042,-0.024 -0.064,-0.035 -0.106,-0.059 -1.094,-0.694 -2.524,-1.089 -4.289,-1.186 -1.376,-0.076 -2.797,0.066 -4.261,0.426 -1.465,0.36 -2.62,0.973 -3.468,1.843 -1.977,2.006 -3.105,4.712 -3.387,8.119 -0.036,0.28 -0.053,0.58 -0.053,0.897 -0.085,-0.005 -0.127,-0.007 -0.212,-0.012 0.042,0.532 0.063,0.798 0.105,1.33 0.035,0.248 0.067,0.625 0.107,1.117 0.096,1.197 0.211,2.112 0.318,2.718 0.741,4.313 2.981,7.564 6.723,9.75 1.376,0.818 2.911,1.273 4.605,1.366 2.576,0.141 4.624,-0.525 6.142,-1.996 C -0.424,13.441 0.08,12.56 0.212,11.658 0.323,10.895 0.219,10.158 -0.08,9.472 -0.38,8.785 -0.88,8.233 -1.535,7.806 -1.992,7.508 -2.47,7.332 -2.964,7.306 -3.6,7.271 -4.341,7.549 -5.189,8.138 -5.231,8.178 -5.252,8.198 -5.294,8.238 -5.315,8.279 -5.326,8.3 -5.347,8.341 -5.559,8.47 -6,8.518 -6.671,8.481 -7.589,8.431 -8.258,8.235 -8.683,7.894 -9.917,6.802 -10.644,5.595 -10.853,4.28 c -0.356,-2.238 -0.318,-4.129 0.106,-5.659 0.106,-0.347 0.388,-0.878 0.847,-1.594 0.021,-0.041 0.032,-0.062 0.053,-0.103 0.318,-0.371 0.882,-0.533 1.694,-0.489 1.093,0.06 2.077,0.73 2.964,1.909 1.021,1.358 2.225,2.079 3.494,2.148 C -1.059,0.526 -0.495,0.362 0,0"
       style="fill:#000b30;fill-opacity:1;fill-rule:nonzero;stroke:none"
       transform="matrix(1.3333333,0,0,-1.3333333,1837.5419,270.2052)"
       clip-path="url(#clipPath1757)" />
    <path
       id="path1758"
       d="M 0,0 C 0.009,0.945 0,1.535 0,1.747 0,2.065 -0.205,2.294 -0.609,2.432 -1.015,2.571 -1.448,2.629 -1.906,2.606 -2.541,2.574 -3.036,2.425 -3.389,2.161 -4.589,1.289 -5.445,0.285 -5.956,-0.853 -6.468,-1.99 -6.723,-3.372 -6.723,-4.994 v -0.054 c 0,-1.236 0.265,-2.175 0.794,-2.818 0.528,-0.644 1.357,-1.026 2.488,-1.146 0.212,-0.024 0.405,-0.032 0.582,-0.023 1.129,0.056 1.976,0.645 2.541,1.767 C -0.177,-6.414 -0.036,-3.957 0,0 M 8.152,6.483 C 8.009,-0.535 8.046,-6.666 7.994,-11.313 7.989,-11.767 7.99,-12.215 7.941,-12.586 7.864,-13.169 7.623,-13.748 7.305,-14.257 6.988,-14.766 6.563,-15.184 6.035,-15.509 5.507,-15.834 4.94,-16.011 4.34,-16.04 c -0.105,-0.005 -0.194,-0.01 -0.264,-0.013 -1.342,-0.065 -2.329,0.292 -2.965,1.073 -1.694,-0.613 -3.476,-1 -5.346,-1.165 -0.106,-0.04 -0.23,-0.064 -0.371,-0.072 -2.789,-0.14 -5.108,0.694 -6.935,2.505 -2.224,2.205 -3.248,5.707 -3.071,10.481 0.021,0.022 0.032,0.033 0.053,0.056 v 0.106 c 0.246,1.565 0.626,2.944 1.138,4.135 0.512,1.192 1.201,2.304 2.066,3.337 0.864,1.031 1.985,2.084 3.361,3.138 1.582,1.21 3.459,1.869 5.611,1.976 1.623,0.081 2.999,-0.257 4.13,-1.014 0.741,1.06 1.711,1.619 2.911,1.677 0.353,0.017 0.706,-0.019 1.059,-0.108 C 6.529,9.828 7.146,9.381 7.57,8.731 7.994,8.081 8.169,7.314 8.152,6.483"
       style="fill:#000b30;fill-opacity:1;fill-rule:nonzero;stroke:none"
       transform="matrix(1.3333333,0,0,-1.3333333,1862.3169,261.38253)"
       clip-path="url(#clipPath1759)" />
    <path
       id="path1760"
       d="m 0,0 c -0.042,-0.701 -0.009,-1.491 0.053,-2.327 0.08,-1.079 0.054,-2.1 -0.053,-3.02 -0.07,-0.602 -0.23,-1.148 -0.476,-1.634 -0.248,-0.487 -0.592,-0.898 -1.033,-1.234 -0.442,-0.336 -0.926,-0.586 -1.455,-0.75 -0.284,-0.046 -0.566,-0.076 -0.848,-0.088 -1.024,-0.043 -1.941,0.271 -2.646,0.946 -0.741,0.707 -1.113,1.664 -1.113,2.758 0,0.352 0.038,0.868 0.107,1.539 0.036,0.353 0.07,0.621 0.105,0.799 0.177,2.443 0.107,5.436 -0.105,8.89 -0.084,1.36 -0.318,2.297 -0.742,2.773 -0.247,0.13 -0.548,0.189 -0.9,0.173 -0.953,-0.041 -1.859,-0.451 -2.7,-1.23 -0.952,-0.883 -1.547,-1.996 -1.694,-3.252 -0.085,-0.727 -0.095,-2.31 -0.106,-4.663 -0.017,-3.69 -0.194,-5.938 -0.476,-6.692 -0.565,-1.754 -1.8,-2.674 -3.706,-2.761 -0.177,-0.008 -0.365,0.016 -0.53,0.028 -0.779,0.058 -1.57,0.317 -2.17,0.96 -0.6,0.642 -0.941,1.504 -1.059,2.545 -0.094,0.833 -0.158,1.58 -0.158,2.216 0,0.917 -0.036,2.081 -0.053,3.438 -0.026,2.02 -0.002,3.833 0.053,5.297 0.051,1.362 0.236,3.316 0.476,5.792 0.072,0.743 0.122,1.331 0.159,1.755 0.033,0.388 0.124,0.782 0.264,1.176 0.178,0.501 0.442,0.965 0.795,1.387 0.352,0.422 0.758,0.75 1.217,0.982 0.459,0.233 0.918,0.36 1.377,0.381 0.105,0.005 0.229,0.011 0.37,0.017 0.021,0.001 0.032,0.002 0.053,0.003 0.848,-0.068 1.483,-0.217 1.906,-0.444 0.67,-0.393 1.093,-0.993 1.27,-1.796 0.53,0.412 1.113,0.808 1.747,1.19 1.377,0.836 2.735,1.284 4.077,1.342 2.364,0.103 4.375,-0.945 5.982,-3.133 C -0.563,11.391 0.193,8.972 0.212,6.203 0.225,4.134 0.121,2.036 0,0"
       style="fill:#000b30;fill-opacity:1;fill-rule:nonzero;stroke:none"
       transform="matrix(1.3333333,0,0,-1.3333333,1907.6321,268.64373)"
       clip-path="url(#clipPath1761)" />
    <path
       id="path1762"
       d="M 0,0 C 0.009,0.945 0,1.535 0,1.747 0,2.065 -0.205,2.296 -0.609,2.44 -1.015,2.583 -1.448,2.647 -1.906,2.629 -2.541,2.606 -3.036,2.463 -3.389,2.203 -4.589,1.345 -5.445,0.351 -5.956,-0.78 -6.468,-1.912 -6.723,-3.29 -6.723,-4.913 v -0.053 c 0,-1.236 0.265,-2.178 0.794,-2.828 0.528,-0.65 1.357,-1.042 2.488,-1.176 0.212,-0.027 0.405,-0.037 0.582,-0.03 1.129,0.042 1.976,0.621 2.541,1.736 C -0.177,-6.412 -0.036,-3.956 0,0 M 8.152,6.381 C 8.009,-0.636 8.046,-6.766 7.994,-11.412 7.989,-11.866 7.99,-12.314 7.941,-12.685 c -0.077,-0.582 -0.318,-1.158 -0.636,-1.663 -0.317,-0.505 -0.742,-0.917 -1.27,-1.236 -0.528,-0.318 -1.095,-0.488 -1.695,-0.51 -0.105,-0.004 -0.194,-0.007 -0.264,-0.009 -1.342,-0.049 -2.329,0.321 -2.965,1.109 -1.694,-0.591 -3.476,-0.957 -5.346,-1.1 -0.106,-0.038 -0.23,-0.061 -0.371,-0.066 -2.789,-0.107 -5.108,0.755 -6.935,2.588 -2.224,2.231 -3.248,5.746 -3.071,10.517 0.021,0.022 0.032,0.033 0.053,0.055 v 0.106 c 0.246,1.563 0.626,2.937 1.138,4.122 0.512,1.186 1.201,2.29 2.065,3.312 0.864,1.021 1.986,2.061 3.362,3.098 1.582,1.192 3.458,1.827 5.611,1.908 1.623,0.061 2.999,-0.294 4.13,-1.064 0.741,1.05 1.711,1.598 2.911,1.641 0.353,0.012 0.706,-0.028 1.059,-0.122 C 6.529,9.747 7.146,9.292 7.57,8.637 7.994,7.981 8.169,7.213 8.152,6.381"
       style="fill:#000b30;fill-opacity:1;fill-rule:nonzero;stroke:none"
       transform="matrix(1.3333333,0,0,-1.3333333,1931.2787,258.3996)"
       clip-path="url(#clipPath1763)" />
    <path
       id="path1764"
       d="m 0,0 c 0,-0.635 -0.072,-4.926 -0.212,-12.871 -0.042,-1.166 -0.064,-1.749 -0.106,-2.915 0,-1.024 -0.025,-2.255 -0.107,-3.657 -0.061,-1.052 -0.441,-1.972 -1.111,-2.735 -0.67,-0.763 -1.5,-1.177 -2.488,-1.245 -0.071,-0.003 -0.142,-0.005 -0.211,-0.007 -0.954,-0.032 -1.775,0.268 -2.463,0.898 -0.687,0.629 -1.099,1.457 -1.243,2.472 -0.069,0.49 -0.106,1.073 -0.106,1.744 0,0.282 0.05,1.532 0.106,3.709 0.282,10.839 0.361,17.296 0.423,19.125 0.041,1.195 0.194,3.007 0.477,5.416 0.07,0.497 0.203,0.969 0.397,1.417 0.193,0.447 0.441,0.817 0.741,1.11 0.3,0.292 0.652,0.532 1.059,0.723 0.405,0.189 0.838,0.292 1.297,0.307 0.105,0.003 0.211,0.007 0.318,0.01 0.635,-0.05 1.2,-0.243 1.694,-0.58 0.493,-0.336 0.873,-0.793 1.138,-1.366 0.265,-0.575 0.376,-1.2 0.344,-1.869 -0.077,-1.585 -0.083,-3.984 0,-7.147 C -0.023,1.379 0,0.529 0,0"
       style="fill:#000b30;fill-opacity:1;fill-rule:nonzero;stroke:none"
       transform="matrix(1.3333333,0,0,-1.3333333,1958.3815,247.51533)"
       clip-path="url(#clipPath1765)" />
    <path
       id="path1896"
       d="M 0,0 C 0.846,-0.245 1.49,-0.746 1.931,-1.502 2.373,-2.259 2.488,-3.105 2.275,-4.041 2.241,-4.326 2.188,-4.578 2.117,-4.795 1.87,-5.346 1.49,-6.349 0.953,-7.754 c -0.821,-2.143 -1.483,-3.745 -1.907,-4.768 -0.177,-0.474 -0.437,-1.212 -0.793,-2.186 -0.517,-1.416 -0.954,-2.499 -1.271,-3.232 -0.529,-1.387 -1.2,-2.927 -2.011,-4.619 -0.354,-0.737 -0.76,-1.389 -1.218,-1.958 -0.883,-1.064 -1.96,-1.65 -3.229,-1.76 -1.166,-0.1 -2.171,0.236 -3.018,1.01 -0.813,0.742 -1.43,1.589 -1.853,2.541 -2.471,5.644 -3.953,10.775 -4.447,15.391 -0.036,0.137 -0.091,0.382 -0.158,0.727 -0.074,0.379 -0.107,0.68 -0.107,0.891 -0.141,0.87 0.026,1.688 0.503,2.453 0.476,0.763 1.155,1.291 2.039,1.578 0.282,0.131 0.581,0.21 0.899,0.237 0.494,0.043 0.953,-0.015 1.377,-0.172 0.423,-0.158 0.804,-0.39 1.138,-0.696 0.335,-0.305 0.586,-0.694 0.768,-1.125 0.198,-0.471 0.423,-1.216 0.634,-2.221 0.071,-0.242 0.124,-0.396 0.16,-0.463 0.021,-0.125 0.032,-0.188 0.053,-0.313 0.846,-3.386 1.552,-5.902 2.117,-7.547 0.035,0.109 0.088,0.246 0.158,0.411 0.071,0.165 0.124,0.283 0.16,0.358 0.776,2.007 1.359,3.522 1.747,4.544 0.246,0.621 0.619,1.542 1.059,2.738 0.396,1.075 0.679,1.949 0.9,2.512 0.225,0.577 0.493,1.083 0.741,1.494 0.776,1.265 1.853,1.958 3.229,2.076 C -0.919,0.186 -0.46,0.137 0,0"
       style="fill:#ffffff;fill-opacity:1;fill-rule:nonzero;stroke:none"
       transform="matrix(1.3333333,0,0,-1.3333333,1513.416,266.52693)"
       clip-path="url(#clipPath1897)" />
    <path
       id="path1898"
       d="m 0,0 c 0,-0.883 -0.136,-1.617 -0.423,-2.153 -0.335,-0.625 -0.866,-1.168 -1.536,-1.613 -0.388,-0.28 -0.918,-0.448 -1.588,-0.505 -0.071,-0.006 -0.159,-0.014 -0.265,-0.023 -0.071,-0.006 -0.141,-0.012 -0.212,-0.018 -0.635,-0.053 -1.27,0.068 -1.905,0.368 -0.636,0.298 -1.131,0.726 -1.482,1.276 -0.353,0.552 -0.53,1.181 -0.53,1.888 0,0.07 0.003,0.179 0,0.317 -0.017,0.756 0.071,1.383 0.318,1.828 0.246,0.444 0.723,0.908 1.429,1.391 0.071,0.041 0.123,0.064 0.158,0.067 0.742,0.521 1.395,0.806 1.959,0.854 C -3.441,3.731 -2.755,3.6 -2.065,3.266 -1.47,2.978 -0.958,2.509 -0.583,1.909 -0.191,1.284 0,0.635 0,0 m -0.635,-26.894 c 0,-0.106 -0.005,-0.235 0,-0.371 0.017,-0.475 0.063,-0.889 0.052,-1.16 -0.034,-0.856 -0.432,-1.678 -1.085,-2.368 -0.653,-0.691 -1.439,-1.111 -2.356,-1.259 -0.105,-0.009 -0.23,-0.02 -0.37,-0.032 -0.847,-0.072 -1.607,0.103 -2.276,0.521 -0.671,0.42 -1.1,1.049 -1.324,1.82 -0.128,0.439 -0.229,0.969 -0.265,1.566 -0.137,2.278 -0.24,4.398 -0.318,6.325 -0.095,2.346 0.035,5.368 0.424,9.036 0.035,0.391 0.106,0.905 0.159,1.496 0.049,0.55 0.072,0.995 0.106,1.28 0.11,0.92 0.458,1.706 1.058,2.34 0.6,0.633 1.341,1.022 2.224,1.168 0.07,0.006 0.159,0.014 0.264,0.023 0.848,0.072 1.589,-0.13 2.224,-0.606 0.635,-0.475 1.012,-1.146 1.165,-1.966 0.096,-0.514 0.172,-1.289 0.158,-2.263 -0.017,-1.256 -0.083,-3.188 -0.158,-5.73 -0.034,-1.132 -0.072,-1.859 -0.106,-2.18 0.042,-0.695 0.063,-1.043 0.106,-1.738 0,-0.071 0.043,-0.879 0.132,-2.424 0.088,-1.546 0.15,-2.705 0.186,-3.478"
       style="fill:#ffffff;fill-opacity:1;fill-rule:nonzero;stroke:none"
       transform="matrix(1.3333333,0,0,-1.3333333,1531.3451,255.75413)"
       clip-path="url(#clipPath1899)" />
    <path
       id="path1900"
       d="m 0,0 c 0,0.317 -0.204,0.539 -0.609,0.664 -0.406,0.125 -0.839,0.168 -1.296,0.13 -0.636,-0.053 -1.131,-0.2 -1.483,-0.441 -1.201,-0.948 -2.057,-1.991 -2.568,-3.127 -0.512,-1.138 -0.767,-2.535 -0.767,-4.194 0,-1.271 0.265,-2.21 0.794,-2.819 0.53,-0.609 1.357,-0.954 2.488,-1.035 0.212,-0.018 0.405,-0.019 0.582,-0.004 1.129,0.094 1.977,0.694 2.541,1.8 0.141,0.858 0.282,3.319 0.318,7.279 0.009,0.944 0,1.535 0,1.747 m -4.606,-18.067 c -2.788,-0.233 -5.141,0.507 -6.935,2.224 -2.222,2.126 -3.248,5.637 -3.07,10.382 0.021,0.044 0.031,0.066 0.052,0.11 v 0.053 c 0.353,2.323 1.033,4.304 2.039,5.942 1.006,1.638 2.529,3.263 4.526,4.881 1.588,1.286 3.458,2.037 5.611,2.217 1.623,0.136 3,-0.173 4.13,-0.926 0.106,0.185 0.258,3.205 0.37,8.977 0.046,2.391 1.076,3.69 3.124,3.86 1.094,0.09 1.872,-0.235 2.33,-0.972 C 8.029,17.943 8.187,17.024 8.152,16.029 7.689,2.505 8.047,-7.638 7.994,-12.783 7.99,-13.202 7.985,-13.627 7.941,-14.005 7.83,-14.946 7.393,-15.789 6.723,-16.462 c -0.67,-0.672 -1.465,-1.065 -2.381,-1.177 -0.072,-0.006 -0.16,-0.013 -0.265,-0.022 -1.343,-0.111 -2.33,0.213 -2.966,0.971 -1.694,-0.67 -3.475,-1.118 -5.346,-1.346 -0.106,-0.009 -0.23,-0.019 -0.371,-0.031"
       style="fill:#ffffff;fill-opacity:1;fill-rule:nonzero;stroke:none"
       transform="matrix(1.3333333,0,0,-1.3333333,1554.1437,273.956)"
       clip-path="url(#clipPath1901)" />
    <path
       id="path1902"
       d="m 0,0 c -0.812,-0.949 -1.288,-2.1 -1.429,-3.452 1.376,0.253 2.399,0.531 3.071,0.833 1.587,0.694 2.311,2.006 2.17,3.935 C 3.565,1.508 3.229,1.586 2.806,1.552 1.747,1.466 0.812,0.948 0,0 m 8.1,-10.353 c 1.411,0.114 2.4,-0.372 2.965,-1.455 0.811,-1.558 0.353,-3.052 -1.164,-4.488 -1.587,-1.501 -4.678,-2.548 -9.265,-2.922 -0.064,-0.005 -0.096,-0.008 -0.16,-0.013 -0.02,-0.002 -0.031,-0.002 -0.052,-0.004 -2.577,-0.105 -4.713,0.706 -6.406,2.334 -1.385,1.331 -2.378,3.127 -2.911,5.372 -0.805,3.386 -0.912,6.439 -0.318,9.132 0.64,2.904 2.118,5.627 4.446,8.148 0.213,0.194 0.494,0.446 0.848,0.758 0.141,0.082 0.229,0.142 0.265,0.18 1.446,1.213 3.326,1.914 5.638,2.102 C 4.297,8.979 6.367,8.621 8.154,7.704 10.266,6.62 11.429,4.993 11.595,2.899 11.819,0.072 11.172,-2.556 9.741,-4.927 8.184,-7.506 5.771,-9.254 2.488,-10.12 c -0.423,-0.14 -1.5,-0.37 -3.229,-0.687 -0.036,-0.003 -0.105,-0.027 -0.212,-0.07 0.071,-0.136 0.159,-0.252 0.265,-0.349 0.6,-0.587 1.641,-0.819 3.123,-0.699 0.777,0.063 1.377,0.183 1.8,0.359 1.589,0.728 2.877,1.133 3.865,1.213"
       style="fill:#ffffff;fill-opacity:1;fill-rule:nonzero;stroke:none"
       transform="matrix(1.3333333,0,0,-1.3333333,1580.1904,270.53667)"
       clip-path="url(#clipPath1903)" />
    <path
       id="path1904"
       d="M 0,0 C 1.13,2.065 1.589,4.43 1.377,7.097 1.377,7.167 1.359,7.271 1.324,7.41 1.253,7.792 1.2,8.089 1.165,8.297 0.882,9.475 0.442,10.358 -0.158,10.946 -0.511,11.342 -0.882,11.524 -1.27,11.493 -1.517,11.474 -1.818,11.326 -2.17,11.052 -2.734,10.654 -3.212,10.104 -3.599,9.403 -5.011,6.891 -5.453,4.208 -4.923,1.357 c 0.246,-1.322 0.705,-2.326 1.377,-3.014 0.352,-0.396 0.705,-0.579 1.058,-0.552 0.282,0.023 0.6,0.154 0.954,0.393 C -0.97,-1.383 -0.459,-0.777 0,0 M 7.942,9.835 C 8.694,5.737 8.241,1.688 6.406,-2.197 5.454,-4.177 4.169,-5.81 2.594,-7.102 1.042,-8.374 -0.635,-9.103 -2.435,-9.246 c -2.507,-0.198 -4.644,0.691 -6.405,2.668 -1.73,1.94 -2.824,4.709 -3.124,8.167 -0.331,3.802 0.512,7.47 2.383,10.831 0.882,1.624 2.006,2.964 3.335,4.025 1.55,1.238 3.211,1.949 4.976,2.089 2.436,0.193 4.578,-0.665 6.353,-2.57 1.483,-1.592 2.411,-3.691 2.859,-6.129"
       style="fill:#ffffff;fill-opacity:1;fill-rule:nonzero;stroke:none"
       transform="matrix(1.3333333,0,0,-1.3333333,1615.4825,281.96)"
       clip-path="url(#clipPath1905)" />
    <path
       id="path1906"
       d="m 0,0 c -0.812,-0.943 -1.288,-2.091 -1.429,-3.442 1.376,0.244 2.399,0.514 3.071,0.812 1.587,0.682 2.311,1.989 2.17,3.92 C 3.565,1.483 3.229,1.564 2.806,1.532 1.747,1.454 0.812,0.942 0,0 m 8.1,-10.411 c 1.411,0.104 2.4,-0.389 2.965,-1.476 0.811,-1.565 0.353,-3.055 -1.164,-4.48 -1.587,-1.489 -4.678,-2.513 -9.265,-2.855 -0.064,-0.005 -0.096,-0.007 -0.16,-0.012 -0.02,-0.002 -0.031,-0.003 -0.052,-0.004 -2.577,-0.087 -4.713,0.739 -6.406,2.378 -1.385,1.34 -2.378,3.143 -2.911,5.391 -0.805,3.391 -0.912,6.446 -0.318,9.134 0.64,2.9 2.118,5.614 4.446,8.119 0.213,0.192 0.494,0.442 0.848,0.752 0.141,0.081 0.229,0.14 0.265,0.178 1.446,1.203 3.326,1.891 5.638,2.063 2.311,0.172 4.381,-0.201 6.168,-1.131 2.112,-1.1 3.274,-2.735 3.44,-4.831 0.224,-2.828 -0.422,-5.451 -1.853,-7.811 -1.557,-2.568 -3.97,-4.298 -7.253,-5.142 -0.423,-0.137 -1.501,-0.359 -3.229,-0.664 -0.036,-0.003 -0.105,-0.026 -0.212,-0.069 0.071,-0.136 0.159,-0.253 0.265,-0.35 0.6,-0.591 1.641,-0.831 3.123,-0.721 0.777,0.058 1.377,0.173 1.8,0.346 1.589,0.717 2.877,1.112 3.865,1.185"
       style="fill:#ffffff;fill-opacity:1;fill-rule:nonzero;stroke:none"
       transform="matrix(1.3333333,0,0,-1.3333333,1662.7051,264.0716)"
       clip-path="url(#clipPath1907)" />
    <path
       id="path1908"
       d="M 0,0 C -0.042,-0.702 -0.009,-1.492 0.053,-2.325 0.133,-3.403 0.107,-4.424 0,-5.347 -0.07,-5.951 -0.23,-6.501 -0.477,-6.995 -0.724,-7.488 -1.068,-7.909 -1.51,-8.257 c -0.441,-0.349 -0.925,-0.612 -1.455,-0.79 -0.283,-0.055 -0.565,-0.092 -0.847,-0.112 -1.025,-0.072 -1.941,0.218 -2.647,0.873 -0.74,0.686 -1.112,1.633 -1.112,2.727 0,0.353 0.037,0.869 0.106,1.543 0.036,0.353 0.071,0.622 0.106,0.802 0.177,2.447 0.107,5.439 -0.105,8.886 -0.084,1.358 -0.318,2.289 -0.741,2.753 -0.248,0.123 -0.548,0.174 -0.901,0.149 -0.953,-0.068 -1.858,-0.502 -2.7,-1.304 -0.952,-0.908 -1.547,-2.036 -1.694,-3.297 -0.085,-0.729 -0.095,-2.313 -0.106,-4.666 -0.018,-3.691 -0.195,-5.943 -0.477,-6.704 -0.564,-1.77 -1.799,-2.723 -3.705,-2.86 -0.177,-0.013 -0.365,0.006 -0.53,0.014 -0.781,0.037 -1.57,0.276 -2.17,0.902 -0.6,0.627 -0.941,1.48 -1.059,2.517 -0.094,0.831 -0.158,1.577 -0.158,2.212 0,0.918 -0.037,2.081 -0.054,3.437 -0.025,2.021 -0.002,3.834 0.054,5.298 0.051,1.364 0.235,3.322 0.476,5.805 0.072,0.745 0.122,1.335 0.159,1.759 0.033,0.389 0.124,0.785 0.264,1.183 0.178,0.506 0.442,0.977 0.795,1.408 0.352,0.431 0.758,0.77 1.217,1.015 0.459,0.244 0.918,0.384 1.377,0.417 0.105,0.007 0.229,0.016 0.37,0.026 0.021,0.002 0.032,0.003 0.053,0.004 0.848,-0.045 1.483,-0.177 1.906,-0.393 0.67,-0.375 1.093,-0.963 1.27,-1.761 0.53,0.425 1.113,0.837 1.747,1.236 1.377,0.874 2.735,1.358 4.077,1.453 2.364,0.167 4.376,-0.825 5.982,-2.968 C -0.563,11.375 0.194,8.976 0.212,6.209 0.225,4.14 0.121,2.039 0,0"
       style="fill:#ffffff;fill-opacity:1;fill-rule:nonzero;stroke:none"
       transform="matrix(1.3333333,0,0,-1.3333333,1711.8331,273.2356)"
       clip-path="url(#clipPath1909)" />
    <path
       id="path1910"
       d="m 0,0 c -0.812,-0.935 -1.288,-2.078 -1.429,-3.428 1.376,0.23 2.399,0.491 3.071,0.781 1.587,0.667 2.311,1.967 2.17,3.899 C 3.565,1.448 3.229,1.532 2.806,1.505 1.747,1.436 0.812,0.934 0,0 m 8.1,-10.492 c 1.411,0.089 2.4,-0.413 2.965,-1.507 0.811,-1.572 0.352,-3.058 -1.164,-4.467 -1.587,-1.473 -4.678,-2.466 -9.265,-2.763 -0.064,-0.004 -0.096,-0.006 -0.16,-0.01 -0.02,-10e-4 -0.031,-0.002 -0.052,-0.003 -2.577,-0.061 -4.713,0.784 -6.406,2.44 -1.385,1.354 -2.378,3.165 -2.911,5.419 -0.804,3.399 -0.912,6.454 -0.318,9.137 0.64,2.894 2.118,5.594 4.446,8.076 0.213,0.19 0.494,0.438 0.848,0.744 0.141,0.079 0.229,0.138 0.265,0.176 1.446,1.189 3.325,1.859 5.638,2.008 2.311,0.149 4.38,-0.245 6.167,-1.194 2.113,-1.121 3.275,-2.768 3.441,-4.865 0.224,-2.831 -0.422,-5.447 -1.853,-7.793 -1.557,-2.552 -3.97,-4.257 -7.253,-5.068 -0.423,-0.133 -1.501,-0.344 -3.229,-0.633 -0.036,-0.002 -0.105,-0.025 -0.212,-0.066 0.071,-0.137 0.159,-0.255 0.265,-0.354 0.6,-0.596 1.641,-0.846 3.123,-0.751 0.777,0.05 1.377,0.159 1.8,0.328 1.589,0.701 2.877,1.083 3.865,1.146"
       style="fill:#ffffff;fill-opacity:1;fill-rule:nonzero;stroke:none"
       transform="matrix(1.3333333,0,0,-1.3333333,1748.8176,258.04587)"
       clip-path="url(#clipPath1911)" />
    <path
       id="path1912"
       d="m 0,0 c 0,-0.635 -0.072,-4.928 -0.212,-12.877 -0.042,-1.168 -0.063,-1.751 -0.106,-2.919 0,-1.023 -0.025,-2.256 -0.106,-3.659 -0.061,-1.055 -0.442,-1.985 -1.111,-2.767 -0.671,-0.782 -1.501,-1.221 -2.489,-1.318 -0.071,-0.004 -0.142,-0.008 -0.211,-0.013 -0.954,-0.058 -1.774,0.218 -2.462,0.828 -0.688,0.61 -1.1,1.427 -1.244,2.437 -0.069,0.488 -0.106,1.07 -0.106,1.741 0,0.282 0.05,1.533 0.106,3.713 0.282,10.844 0.361,17.306 0.423,19.137 0.041,1.195 0.194,3.011 0.477,5.429 0.07,0.498 0.203,0.974 0.397,1.428 0.193,0.452 0.441,0.83 0.741,1.131 0.3,0.3 0.652,0.551 1.059,0.754 0.405,0.2 0.838,0.315 1.297,0.344 0.105,0.006 0.211,0.013 0.318,0.019 0.635,-0.032 1.2,-0.209 1.694,-0.531 0.493,-0.322 0.873,-0.768 1.138,-1.334 0.265,-0.567 0.376,-1.189 0.344,-1.858 -0.077,-1.587 -0.083,-3.987 0,-7.147 C -0.022,1.379 0,0.529 0,0"
       style="fill:#ffffff;fill-opacity:1;fill-rule:nonzero;stroke:none"
       transform="matrix(1.3333333,0,0,-1.3333333,1779.7343,249.53947)"
       clip-path="url(#clipPath1913)" />
    <path
       id="path1914"
       d="M 0,0 C 0.811,-0.522 1.359,-1.235 1.641,-2.136 1.923,-3.039 1.887,-3.923 1.534,-4.789 1.513,-4.811 1.503,-4.823 1.482,-4.845 V -4.898 C 1.129,-5.587 0.793,-6.17 0.476,-6.645 0.158,-7.121 -0.23,-7.565 -0.689,-7.978 c -0.459,-0.413 -0.856,-0.743 -1.19,-0.99 -0.337,-0.248 -0.874,-0.603 -1.615,-1.066 -0.043,-0.024 -0.064,-0.035 -0.106,-0.059 -1.094,-0.694 -2.524,-1.089 -4.289,-1.186 -1.376,-0.076 -2.797,0.066 -4.261,0.426 -1.465,0.36 -2.62,0.973 -3.468,1.843 -1.977,2.006 -3.105,4.712 -3.387,8.119 -0.036,0.28 -0.053,0.58 -0.053,0.897 -0.085,-0.005 -0.127,-0.007 -0.212,-0.012 0.042,0.532 0.063,0.798 0.105,1.33 0.035,0.248 0.067,0.625 0.107,1.117 0.096,1.197 0.211,2.112 0.318,2.718 0.741,4.313 2.981,7.564 6.723,9.75 1.376,0.818 2.911,1.273 4.605,1.366 2.576,0.141 4.624,-0.525 6.142,-1.996 C -0.424,13.441 0.08,12.56 0.212,11.658 0.323,10.895 0.219,10.158 -0.08,9.472 -0.38,8.785 -0.88,8.233 -1.535,7.806 -1.992,7.508 -2.47,7.332 -2.964,7.306 -3.6,7.271 -4.341,7.549 -5.189,8.138 -5.231,8.178 -5.252,8.198 -5.294,8.238 -5.315,8.279 -5.326,8.3 -5.347,8.341 -5.559,8.47 -6,8.518 -6.671,8.481 -7.589,8.431 -8.258,8.235 -8.683,7.894 -9.918,6.802 -10.644,5.595 -10.853,4.28 c -0.356,-2.238 -0.318,-4.129 0.106,-5.659 0.105,-0.347 0.388,-0.878 0.846,-1.594 0.022,-0.041 0.033,-0.062 0.054,-0.103 0.318,-0.371 0.882,-0.533 1.694,-0.489 1.093,0.06 2.077,0.73 2.964,1.909 1.021,1.358 2.225,2.079 3.494,2.148 C -1.059,0.526 -0.495,0.362 0,0"
       style="fill:#ffffff;fill-opacity:1;fill-rule:nonzero;stroke:none"
       transform="matrix(1.3333333,0,0,-1.3333333,1829.7079,264.19387)"
       clip-path="url(#clipPath1915)" />
    <path
       id="path1916"
       d="M 0,0 C 0.009,0.945 0,1.535 0,1.747 0,2.065 -0.205,2.294 -0.609,2.432 -1.015,2.571 -1.448,2.629 -1.907,2.606 -2.541,2.574 -3.036,2.425 -3.389,2.162 -4.589,1.289 -5.445,0.285 -5.956,-0.853 -6.468,-1.99 -6.723,-3.372 -6.723,-4.994 v -0.054 c 0,-1.236 0.264,-2.175 0.794,-2.818 0.528,-0.644 1.357,-1.026 2.488,-1.146 0.212,-0.024 0.405,-0.032 0.582,-0.023 1.129,0.056 1.976,0.645 2.541,1.767 C -0.177,-6.414 -0.036,-3.957 0,0 M 8.152,6.483 C 8.009,-0.535 8.046,-6.666 7.994,-11.313 7.989,-11.767 7.99,-12.215 7.941,-12.586 7.864,-13.169 7.623,-13.748 7.305,-14.257 6.988,-14.766 6.563,-15.184 6.035,-15.509 5.507,-15.834 4.94,-16.011 4.34,-16.04 c -0.105,-0.005 -0.194,-0.01 -0.264,-0.013 -1.342,-0.065 -2.329,0.292 -2.965,1.073 -1.694,-0.613 -3.477,-1 -5.346,-1.165 -0.107,-0.04 -0.23,-0.064 -0.371,-0.072 -2.789,-0.14 -5.108,0.694 -6.935,2.505 -2.224,2.205 -3.248,5.707 -3.071,10.481 0.021,0.022 0.032,0.033 0.053,0.056 v 0.106 c 0.246,1.565 0.626,2.944 1.138,4.135 0.512,1.192 1.201,2.304 2.066,3.337 0.864,1.031 1.985,2.084 3.361,3.138 1.582,1.21 3.458,1.869 5.611,1.976 1.623,0.081 2.999,-0.257 4.13,-1.014 0.741,1.06 1.711,1.619 2.911,1.677 0.353,0.017 0.706,-0.019 1.059,-0.108 C 6.529,9.828 7.146,9.381 7.57,8.731 7.994,8.081 8.169,7.314 8.152,6.483"
       style="fill:#ffffff;fill-opacity:1;fill-rule:nonzero;stroke:none"
       transform="matrix(1.3333333,0,0,-1.3333333,1854.4829,255.3712)"
       clip-path="url(#clipPath1917)" />
    <path
       id="path1918"
       d="m 0,0 c -0.042,-0.701 -0.009,-1.491 0.053,-2.327 0.08,-1.079 0.054,-2.1 -0.053,-3.02 -0.07,-0.602 -0.23,-1.148 -0.476,-1.634 -0.248,-0.487 -0.592,-0.898 -1.033,-1.234 -0.442,-0.336 -0.926,-0.586 -1.455,-0.75 -0.284,-0.046 -0.566,-0.076 -0.848,-0.088 -1.024,-0.043 -1.941,0.271 -2.646,0.946 -0.741,0.707 -1.113,1.664 -1.113,2.758 0,0.352 0.038,0.868 0.107,1.539 0.036,0.353 0.07,0.621 0.105,0.799 0.177,2.443 0.107,5.436 -0.105,8.89 -0.084,1.36 -0.318,2.297 -0.741,2.773 -0.248,0.13 -0.548,0.189 -0.901,0.173 -0.953,-0.041 -1.859,-0.451 -2.7,-1.23 -0.952,-0.883 -1.547,-1.996 -1.694,-3.252 -0.085,-0.727 -0.095,-2.31 -0.106,-4.663 -0.017,-3.69 -0.194,-5.938 -0.476,-6.692 -0.565,-1.754 -1.799,-2.674 -3.706,-2.761 -0.177,-0.008 -0.365,0.016 -0.53,0.028 -0.779,0.058 -1.57,0.317 -2.17,0.96 -0.6,0.642 -0.941,1.504 -1.059,2.545 -0.094,0.833 -0.158,1.58 -0.158,2.216 0,0.917 -0.036,2.081 -0.053,3.438 -0.026,2.02 -0.002,3.833 0.053,5.297 0.051,1.362 0.236,3.316 0.476,5.792 0.072,0.743 0.122,1.331 0.159,1.755 0.033,0.388 0.124,0.782 0.264,1.176 0.178,0.501 0.442,0.965 0.795,1.387 0.352,0.422 0.758,0.75 1.217,0.982 0.459,0.233 0.918,0.36 1.377,0.381 0.105,0.005 0.229,0.011 0.37,0.017 0.021,0.001 0.032,0.002 0.053,0.003 0.848,-0.068 1.483,-0.217 1.906,-0.444 0.67,-0.393 1.093,-0.993 1.27,-1.796 0.53,0.412 1.113,0.808 1.747,1.19 1.377,0.836 2.735,1.284 4.077,1.342 2.365,0.103 4.375,-0.945 5.982,-3.133 C -0.563,11.391 0.193,8.972 0.212,6.203 0.225,4.134 0.121,2.036 0,0"
       style="fill:#ffffff;fill-opacity:1;fill-rule:nonzero;stroke:none"
       transform="matrix(1.3333333,0,0,-1.3333333,1899.798,262.6324)"
       clip-path="url(#clipPath1919)" />
    <path
       id="path1920"
       d="M 0,0 C 0.009,0.945 0,1.535 0,1.747 0,2.065 -0.205,2.296 -0.609,2.44 -1.015,2.583 -1.448,2.647 -1.907,2.629 -2.541,2.606 -3.036,2.463 -3.389,2.203 -4.589,1.345 -5.445,0.351 -5.956,-0.78 -6.468,-1.912 -6.723,-3.29 -6.723,-4.913 v -0.053 c 0,-1.236 0.264,-2.178 0.794,-2.828 0.528,-0.65 1.357,-1.042 2.488,-1.176 0.212,-0.027 0.405,-0.037 0.582,-0.03 1.129,0.042 1.976,0.621 2.541,1.736 C -0.177,-6.412 -0.036,-3.956 0,0 M 8.152,6.381 C 8.009,-0.636 8.046,-6.766 7.994,-11.412 7.989,-11.866 7.99,-12.314 7.941,-12.685 c -0.077,-0.582 -0.318,-1.158 -0.636,-1.663 -0.317,-0.505 -0.742,-0.917 -1.27,-1.236 -0.528,-0.318 -1.095,-0.488 -1.695,-0.51 -0.105,-0.004 -0.194,-0.007 -0.264,-0.009 -1.342,-0.049 -2.329,0.321 -2.965,1.109 -1.694,-0.591 -3.477,-0.957 -5.346,-1.1 -0.107,-0.038 -0.23,-0.061 -0.371,-0.066 -2.789,-0.107 -5.108,0.755 -6.935,2.588 -2.224,2.231 -3.248,5.746 -3.071,10.517 0.021,0.022 0.032,0.033 0.053,0.055 v 0.106 c 0.246,1.563 0.626,2.937 1.138,4.122 0.511,1.186 1.201,2.29 2.065,3.312 0.864,1.021 1.986,2.061 3.362,3.098 1.582,1.192 3.458,1.827 5.611,1.908 1.623,0.061 2.999,-0.294 4.13,-1.064 0.741,1.05 1.711,1.598 2.911,1.641 0.353,0.012 0.706,-0.028 1.059,-0.122 C 6.529,9.747 7.146,9.292 7.57,8.637 7.994,7.981 8.169,7.213 8.152,6.381"
       style="fill:#ffffff;fill-opacity:1;fill-rule:nonzero;stroke:none"
       transform="matrix(1.3333333,0,0,-1.3333333,1923.4447,252.3884)"
       clip-path="url(#clipPath1921)" />
    <path
       id="path1922"
       d="m 0,0 c 0,-0.635 -0.072,-4.926 -0.212,-12.871 -0.042,-1.166 -0.064,-1.749 -0.106,-2.915 0,-1.024 -0.025,-2.255 -0.107,-3.657 -0.061,-1.052 -0.441,-1.972 -1.111,-2.735 -0.67,-0.763 -1.5,-1.177 -2.488,-1.245 -0.071,-0.003 -0.142,-0.005 -0.211,-0.007 -0.954,-0.032 -1.775,0.268 -2.463,0.898 -0.687,0.629 -1.1,1.457 -1.243,2.472 -0.069,0.49 -0.106,1.073 -0.106,1.744 0,0.282 0.05,1.532 0.106,3.709 0.282,10.839 0.361,17.297 0.423,19.125 0.041,1.195 0.194,3.007 0.477,5.416 0.07,0.497 0.203,0.969 0.397,1.417 0.193,0.447 0.441,0.817 0.741,1.11 0.299,0.292 0.652,0.532 1.059,0.723 0.405,0.189 0.838,0.292 1.297,0.307 0.105,0.003 0.211,0.007 0.318,0.01 0.635,-0.05 1.2,-0.243 1.694,-0.58 0.493,-0.336 0.873,-0.793 1.138,-1.366 0.265,-0.575 0.376,-1.2 0.344,-1.869 -0.077,-1.585 -0.083,-3.984 0,-7.147 C -0.023,1.379 0,0.529 0,0"
       style="fill:#ffffff;fill-opacity:1;fill-rule:nonzero;stroke:none"
       transform="matrix(1.3333333,0,0,-1.3333333,1950.5475,241.50413)"
       clip-path="url(#clipPath1923)" />
  </g>
  <g
     id="layer-MC8"
     inkscape:groupmode="layer"
     inkscape:label="video sy música"
     style="display:inline"
     transform="translate(-765.57914,-19.33366)">
    <path
       id="path2014"
       d="m 0,0 c -2.664,2.609 -5.4,5.218 -8.081,7.765 0.202,0.035 0.405,0.079 0.607,0.132 2.608,0.687 4.353,2.668 5.893,4.417 l 1.995,2.242 c 1.106,1.236 2.211,2.473 3.3,3.725 3.486,4.01 5.986,10.236 2.55,15.687 -1.154,1.83 -2.756,3.31 -4.305,4.741 -0.388,0.358 -0.771,0.712 -1.144,1.069 l -6.006,5.761 c -1.254,1.2 -2.499,2.412 -3.744,3.624 -2.536,2.467 -5.159,5.019 -7.824,7.438 -3.965,3.597 -8.777,5.815 -14.305,6.594 -10.01,1.412 -20.029,-0.625 -27.496,-5.586 -5.844,-3.883 -10.012,-9.485 -11.884,-15.919 -1.543,1.481 -3.081,2.965 -4.619,4.449 l -2.106,2.033 c -4.041,3.897 -8.637,6.671 -13.659,8.245 -10.941,3.427 -23.833,1.8 -33.648,-4.251 -3.465,-2.137 -6.662,-4.901 -9.514,-8.227 -0.425,0.43 -0.852,0.857 -1.293,1.276 -0.5,0.473 -0.994,0.947 -1.488,1.421 -1.13,1.084 -2.266,2.172 -3.493,3.283 -0.303,0.275 -0.599,0.562 -0.897,0.85 -1.556,1.506 -3.319,3.213 -6.26,3.373 -2.553,0.142 -5.206,-0.141 -7.767,-0.413 -1.206,-0.128 -2.402,-0.255 -3.571,-0.336 -7.585,-0.523 -15.17,-1.025 -22.757,-1.504 -1.48,-0.094 -2.96,-0.181 -4.441,-0.268 -2.316,-0.137 -4.633,-0.274 -6.947,-0.433 -3.919,-0.27 -6.728,-2.008 -8.123,-5.026 -0.835,-1.807 -0.822,-3.637 -0.812,-5.408 l 0.003,-9.338 -1.197,1.15 c -1.695,1.63 -3.39,3.261 -5.089,4.886 -3.445,3.297 -7.767,6.964 -13.711,9.157 -6.121,2.258 -12.392,2.311 -18.254,2.034 -5.784,-0.275 -11.567,-0.536 -17.352,-0.773 l -5.601,-0.224 c -1.854,-0.072 -3.77,-0.146 -5.574,-1.201 -0.791,-0.462 -1.459,-1.016 -2.022,-1.678 -0.128,0.118 -0.259,0.236 -0.391,0.352 -2.761,2.418 -6.451,2.157 -9.71,1.926 -0.675,-0.048 -1.339,-0.095 -1.978,-0.116 -1.585,-0.053 -3.168,-0.103 -4.751,-0.153 -0.42,-0.012 -0.85,-0.014 -1.283,-0.016 -1.551,-0.006 -3.155,-0.013 -4.688,-0.491 -1.241,-0.386 -2.379,-1.088 -3.341,-2.053 -2.608,2.323 -5.861,2.189 -9.011,2.062 -0.468,-0.019 -0.94,-0.038 -1.414,-0.05 -1.904,-0.046 -3.807,-0.089 -5.71,-0.13 l -0.638,-0.011 c -1.946,-0.032 -3.958,-0.065 -5.932,-1.015 -4.362,-2.099 -5.255,-6.213 -6.119,-10.189 l -1.489,-6.693 c -0.173,0.16 -0.345,0.319 -0.514,0.48 -1.303,1.235 -2.603,2.473 -3.902,3.71 -1.328,1.264 -2.654,2.527 -3.984,3.788 -0.839,0.793 -1.66,1.639 -2.487,2.489 -1.741,1.791 -3.541,3.643 -5.577,5.112 -2.75,1.984 -5.923,1.887 -8.99,1.796 -0.557,-0.017 -1.112,-0.033 -1.66,-0.037 -1.022,-0.006 -2.055,0.022 -3.098,0.05 -2.346,0.063 -4.769,0.127 -7.1,-0.179 -2.001,-0.263 -3.771,-1.277 -4.984,-2.857 -1.207,-1.574 -1.727,-3.537 -1.464,-5.53 0.362,-2.744 1.122,-5.498 1.856,-8.161 0.335,-1.214 0.668,-2.422 0.961,-3.619 l 14.79,-60.408 c 0.144,-0.587 0.276,-1.175 0.408,-1.761 0.753,-3.338 1.531,-6.79 4.284,-9.461 1.345,-1.304 2.706,-2.593 4.067,-3.882 1.19,-1.129 2.381,-2.257 3.562,-3.396 l 2.042,-1.973 c 1.929,-1.866 3.858,-3.731 5.804,-5.579 0.419,-0.398 0.837,-0.814 1.259,-1.234 2.17,-2.161 4.63,-4.61 8.038,-5.189 0.934,-0.158 1.878,-0.205 2.817,-0.205 0.692,0 1.382,0.025 2.062,0.05 0.539,0.021 1.076,0.04 1.604,0.047 1.755,0.021 3.509,0.044 5.264,0.07 0.786,0.012 1.604,-0.005 2.436,-0.023 3.117,-0.066 6.646,-0.14 9.571,1.349 4.19,2.128 5.402,5.862 6.455,10.164 l 1.592,6.497 c 0.455,-0.435 0.9,-0.884 1.337,-1.324 0.75,-0.755 1.525,-1.537 2.355,-2.253 2.19,-1.891 4.296,-3.958 6.333,-5.957 1.062,-1.044 2.128,-2.09 3.215,-3.123 0.193,-0.182 0.387,-0.38 0.588,-0.585 0.653,-0.661 1.391,-1.412 2.314,-1.953 1.762,-1.032 3.584,-1.128 5.306,-1.076 2.901,0.088 5.806,0.179 8.707,0.277 0.515,0.018 1.042,0.021 1.572,0.024 2.653,0.017 5.66,0.037 8.067,1.867 0.447,0.341 0.845,0.708 1.197,1.111 0.466,-0.454 0.991,-0.925 1.632,-1.299 1.783,-1.041 3.699,-1.117 5.338,-1.051 5.274,0.208 10.548,0.424 15.821,0.663 l 1.741,0.076 c 9.933,0.431 20.205,0.876 29.127,6.723 2.977,1.952 5.704,4.375 8.119,7.214 0.842,-0.866 1.712,-1.759 2.64,-2.577 1.137,-1.002 2.206,-2.037 3.239,-3.038 1.044,-1.012 2.125,-2.058 3.295,-3.092 1.541,-1.361 3.025,-2.297 5.265,-2.442 1.768,-0.115 3.59,0.057 5.35,0.224 0.772,0.073 1.537,0.145 2.286,0.192 4.753,0.292 9.505,0.595 14.255,0.906 4.874,0.319 9.747,0.648 14.619,0.985 l 6.942,0.487 c 0.356,0.025 0.714,0.045 1.073,0.065 2.121,0.117 4.315,0.237 6.301,1.463 4.187,2.583 4.149,6.998 4.114,10.894 l -0.007,5.961 c 0.569,-0.552 1.136,-1.109 1.703,-1.668 4.113,-4.044 8.363,-8.225 13.779,-10.746 12.428,-5.785 28.188,-4.146 39.222,4.077 4.153,3.097 7.748,6.974 10.7,11.539 l 0.078,-0.074 c 1.29,-1.227 2.579,-2.453 3.859,-3.689 l 0.121,-0.118 c 2.574,-2.487 5.234,-5.059 8.619,-6.718 6.846,-3.358 14.695,-3.278 20.006,-2.927 8.637,0.573 15.032,2.881 20.123,7.266 5.672,4.883 9.223,12.155 10.002,20.478 0.413,4.427 -0.043,8.879 -1.287,12.537 C 5.841,-6.723 3.522,-3.326 0,0"
       style="fill:#000b30;fill-opacity:1;fill-rule:nonzero;stroke:none"
       transform="matrix(1.3333333,0,0,-1.3333333,1260.1361,179.75227)"
       clip-path="url(#clipPath2015)" />
    <path
       id="path2016"
       d="M 0,0 C -0.298,0.331 -0.601,0.622 -0.925,0.886 -1.228,1.221 -1.533,1.512 -1.85,1.771 -2.148,2.103 -2.452,2.393 -2.774,2.656 -3.074,2.988 -3.378,3.28 -3.699,3.542 -4,3.874 -4.303,4.165 -4.624,4.427 -4.925,4.76 -5.229,5.051 -5.55,5.313 -5.85,5.645 -6.153,5.935 -6.475,6.197 -6.777,6.532 -7.08,6.823 -7.4,7.083 -7.701,7.417 -8.004,7.708 -8.323,7.968 -8.627,8.303 -8.93,8.594 -9.247,8.853 c -0.302,0.333 -0.606,0.624 -0.926,0.885 -0.299,0.332 -0.604,0.623 -0.925,0.885 -0.302,0.334 -0.605,0.625 -0.924,0.886 -0.3,0.332 -0.604,0.622 -0.925,0.885 -0.301,0.333 -0.606,0.624 -0.926,0.885 -0.304,0.336 -0.607,0.627 -0.924,0.885 -0.299,0.332 -0.602,0.623 -0.924,0.885 -0.301,0.333 -0.606,0.625 -0.927,0.887 -0.302,0.334 -0.606,0.624 -0.924,0.883 -0.327,0.363 -0.672,0.685 -1.048,0.98 -1.551,1.578 -3.477,2.344 -5.682,2.275 -1.367,-0.042 -2.743,-0.2 -4.072,-0.352 -0.655,-0.075 -1.309,-0.15 -1.958,-0.211 l -5.633,-0.528 c -2.394,-0.224 -4.654,-0.436 -6.799,-1.987 -1.814,-1.311 -3.014,-2.936 -4.013,-5.434 -0.543,-1.352 -1.171,-2.718 -1.779,-4.039 -0.26,-0.565 -0.521,-1.13 -0.775,-1.696 l -2.271,-5.052 c -0.375,0.374 -0.75,0.745 -1.126,1.112 -1.111,1.083 -2.239,2.149 -3.367,3.214 -0.787,0.744 -1.574,1.487 -2.356,2.237 -0.663,0.637 -1.322,1.278 -1.982,1.919 -1.24,1.207 -2.48,2.414 -3.749,3.591 -1.628,1.511 -3.107,2.333 -4.799,2.666 -1.681,0.333 -3.366,0.127 -4.993,-0.071 -0.452,-0.055 -0.901,-0.109 -1.343,-0.151 -1.075,-0.1 -2.153,-0.198 -3.23,-0.294 -2.13,-0.192 -4.262,-0.385 -6.391,-0.605 -4.933,-0.511 -7.983,-3.348 -8.156,-7.589 -0.082,-2.006 0.786,-3.615 1.626,-5.171 0.145,-0.271 0.291,-0.541 0.432,-0.814 l 20.562,-39.904 V -63.8 c 0,-0.651 -0.027,-1.324 -0.054,-2.006 -0.07,-1.819 -0.143,-3.699 0.235,-5.473 0.5,-2.359 2.186,-4.116 3.931,-5.662 1.374,-1.218 2.698,-2.527 3.976,-3.791 1.107,-1.095 2.251,-2.226 3.413,-3.282 1.186,-1.079 2.298,-2.149 3.406,-3.216 1.292,-1.243 2.627,-2.529 4.063,-3.807 0.438,-0.389 0.882,-0.861 1.352,-1.361 0.542,-0.579 1.104,-1.176 1.712,-1.703 1.797,-1.558 3.691,-1.963 5.729,-1.963 0.79,0 1.602,0.061 2.437,0.139 1.341,0.126 2.682,0.242 4.025,0.358 2.663,0.23 5.416,0.468 8.119,0.782 2.746,0.319 4.918,1.495 6.457,3.495 1.822,2.369 1.821,4.989 1.82,7.523 v 28.299 l 19.413,41.312 c 0.272,0.579 0.598,1.185 0.932,1.81 1.004,1.873 2.142,3.996 2.269,6.117 C 2.909,-3.767 1.93,-1.558 0,0"
       style="fill:#000b30;fill-opacity:1;fill-rule:nonzero;stroke:none"
       transform="matrix(1.3333333,0,0,-1.3333333,1413.6771,106.5692)"
       clip-path="url(#clipPath2017)" />
    <path
       id="path2018"
       d="M 0,0 C -0.056,0.056 -0.11,0.111 -0.166,0.164 0.018,0.286 0.204,0.408 0.39,0.53 0.489,0.595 0.589,0.661 0.689,0.727 0.455,0.488 0.225,0.246 0,0 m 127.829,-41.95 c 0.124,0.598 0.263,1.172 0.417,1.729 0.515,1.862 0.782,2.57 1.678,4 0.103,0.165 0.213,0.327 0.326,0.486 0.065,0.074 0.15,0.18 0.292,0.354 0.085,0.104 0.165,0.203 0.188,0.231 0.117,0.124 0.238,0.242 0.36,0.359 l 0.197,0.193 c 0.104,0.097 0.213,0.19 0.3,0.262 0.437,0.293 0.879,0.547 1.314,0.754 0.12,0.039 0.282,0.094 0.431,0.147 l 0.242,0.086 c 0.172,0.051 0.345,0.092 0.52,0.134 l 0.269,0.067 c 0.179,0.039 0.361,0.073 0.514,0.098 0.389,0.038 0.778,0.06 1.168,0.068 1.06,0.024 2.001,-0.111 3.275,-0.458 0.043,-0.011 0.084,-0.021 0.12,-0.031 0.023,-0.024 0.046,-0.05 0.072,-0.078 0.407,-0.442 0.846,-0.865 1.285,-1.272 0.723,-0.669 1.432,-1.35 2.133,-2.042 1.493,-1.475 3.164,-3.128 5.481,-3.787 l -2.799,-11.435 c -0.63,0.594 -1.261,1.187 -1.891,1.78 -1.71,1.608 -3.42,3.216 -5.104,4.846 -1.735,1.678 -4.368,4.227 -7.716,4.227 -0.965,0 -1.992,-0.212 -3.072,-0.718 m 109.008,-44.54 c -5.702,23.309 -11.409,46.617 -17.119,69.924 -0.192,0.788 -0.363,1.603 -0.535,2.426 -0.449,2.149 -0.913,4.371 -1.815,6.372 -0.942,2.092 -2.572,3.599 -4.15,5.057 -0.313,0.288 -0.624,0.575 -0.927,0.866 L 201.194,8.777 c -0.596,0.571 -1.188,1.152 -1.781,1.733 -1.217,1.195 -2.476,2.431 -3.779,3.579 -2.349,2.075 -4.942,3.045 -8.156,3.052 -3.634,0.012 -7.356,-0.064 -10.943,-0.134 L 172.95,16.94 c -2.888,-0.05 -5.94,-0.284 -8.707,-2.504 -2.916,-2.337 -3.677,-5.444 -4.415,-8.449 l -3.014,-12.312 c -1.409,1.347 -2.816,2.698 -4.223,4.049 -1.552,1.491 -3.103,2.981 -4.659,4.466 l -1.178,1.132 c -3.915,3.77 -7.614,7.331 -12.837,9.443 -5.006,2.025 -10.976,2.874 -18.243,2.603 C 109.155,15.125 102.945,13.433 97.715,10.477 93.803,8.266 90.242,5.23 87.116,1.442 c -1.061,1.008 -2.13,2.011 -3.199,3.014 -1.339,1.257 -2.68,2.514 -4.003,3.78 -0.27,0.259 -0.536,0.524 -0.8,0.787 -1.547,1.542 -3.146,3.137 -5.656,3.585 -1.905,0.341 -3.903,0.159 -5.832,-0.017 -0.688,-0.063 -1.367,-0.125 -2.027,-0.16 C 63.276,12.308 60.956,12.18 58.634,12.052 55.935,11.902 53.147,11.418 51.043,8.91 49.292,6.822 49.062,4.478 49.032,2.161 47.351,3.708 45.452,5.286 43.362,6.574 38.696,9.451 32.662,10.826 25.396,10.672 17.478,10.499 10.169,8.122 4.479,3.988 6.901,7.228 6.714,11.23 3.961,13.9 c -0.374,0.443 -0.77,0.836 -1.203,1.197 -0.299,0.327 -0.604,0.617 -0.924,0.886 -0.302,0.327 -0.606,0.619 -0.925,0.885 -0.303,0.328 -0.607,0.619 -0.925,0.885 -0.303,0.33 -0.608,0.621 -0.926,0.886 -0.301,0.328 -0.605,0.618 -0.924,0.885 -0.301,0.327 -0.604,0.617 -0.925,0.885 -0.302,0.328 -0.605,0.618 -0.925,0.886 -0.304,0.33 -0.609,0.621 -0.925,0.884 -0.299,0.326 -0.602,0.616 -0.924,0.885 -0.302,0.328 -0.605,0.619 -0.926,0.886 -0.3,0.327 -0.603,0.618 -0.924,0.886 -0.302,0.328 -0.606,0.619 -0.926,0.885 -0.299,0.325 -0.602,0.615 -0.923,0.884 -0.298,0.325 -0.603,0.616 -0.924,0.885 -0.303,0.328 -0.606,0.618 -0.925,0.886 -0.301,0.326 -0.605,0.617 -0.925,0.885 -0.301,0.327 -0.606,0.618 -0.925,0.885 -0.3,0.326 -0.604,0.617 -0.925,0.886 -0.311,0.336 -0.628,0.638 -0.967,0.918 -1.28,1.358 -2.857,2.425 -4.381,3.457 l -0.761,0.518 c -3.189,2.187 -6.738,2.191 -9.493,0.012 -2.727,-2.157 -5.347,-4.543 -7.882,-6.85 -1.175,-1.071 -2.347,-2.139 -3.531,-3.185 -0.527,-0.467 -1.108,-0.946 -1.71,-1.443 -3.759,-3.104 -8.437,-6.968 -6.608,-12.616 0.744,-2.296 2.651,-4.191 4.419,-5.743 0.656,-0.575 1.28,-1.192 1.886,-1.793 -1.719,0.642 -3.561,0.584 -5.442,0.434 -1.327,-0.105 -2.657,-0.199 -3.989,-0.293 -2.795,-0.196 -5.686,-0.399 -8.521,-0.714 -2.552,-0.283 -4.652,-1.353 -6.134,-3.113 -2.35,2.215 -5.194,2.183 -7.906,1.954 l -6.755,-0.567 c -0.726,-0.061 -1.467,-0.102 -2.213,-0.143 -1.797,-0.098 -3.654,-0.199 -5.423,-0.591 -5.256,-1.166 -7.44,-5.946 -9.367,-10.162 -0.186,-0.408 -0.369,-0.811 -0.554,-1.205 l -3.229,-6.902 c -1.753,1.673 -3.493,3.393 -5.185,5.066 -1.843,1.821 -3.748,3.704 -5.656,5.513 -2.762,2.621 -5.632,4.937 -9.734,4.819 -2.353,-0.08 -4.737,-0.339 -7.042,-0.588 -1.133,-0.123 -2.263,-0.246 -3.39,-0.347 l -4.716,-0.428 c -0.421,-0.038 -0.851,-0.065 -1.282,-0.094 -1.751,-0.113 -3.56,-0.23 -5.234,-1.007 -4.482,-2.082 -5.087,-6.267 -5.087,-10.087 v -70.013 c 0,-0.588 -0.021,-1.193 -0.043,-1.806 -0.059,-1.684 -0.12,-3.426 0.221,-5.087 0.572,-2.771 2.617,-4.58 4.423,-6.177 0.362,-0.32 0.716,-0.633 1.045,-0.943 0.656,-0.62 1.313,-1.28 1.974,-1.943 1.008,-1.012 2.051,-2.058 3.11,-2.987 2.722,-2.387 5.332,-4.94 7.854,-7.408 0.92,-0.901 1.842,-1.803 2.775,-2.704 1.273,-1.228 3.075,-2.649 5.724,-2.733 0.154,-0.004 0.308,-0.007 0.463,-0.007 1.276,0 2.559,0.156 3.805,0.308 0.605,0.074 1.205,0.147 1.797,0.2 l 5.43,0.49 c 0.308,0.028 0.618,0.051 0.929,0.075 1.893,0.145 3.852,0.294 5.662,1.352 4.351,2.545 4.323,7.083 4.299,11.087 l -0.005,2.195 c 0.247,-0.276 0.524,-0.537 0.842,-0.79 0.266,-0.311 0.57,-0.602 0.925,-0.885 0.266,-0.311 0.569,-0.602 0.924,-0.885 0.264,-0.31 0.568,-0.601 0.925,-0.885 0.265,-0.312 0.569,-0.603 0.926,-0.886 0.314,-0.368 0.691,-0.713 1.148,-1.051 2.475,-2.533 6.601,-2.795 9.442,-0.581 1.491,1.162 2.219,2.862 2.862,4.362 0.129,0.303 0.258,0.604 0.392,0.899 l 6.865,-6.571 c 1.86,-1.78 3.781,-3.621 7.191,-3.62 h 0.058 c 1.714,0.01 3.45,0.203 5.13,0.389 0.835,0.092 1.667,0.185 2.491,0.254 0.728,0.062 1.488,0.099 2.26,0.137 4.423,0.22 9.435,0.47 11.903,5.119 1.196,2.252 1.116,4.869 1.044,7.178 -0.005,0.171 -0.011,0.341 -0.016,0.51 1.528,-1.474 3.152,-2.943 4.915,-4.258 4.12,-3.072 9.389,-5.013 15.659,-5.771 10.647,-1.283 21.784,1.612 29.801,7.749 2.936,2.25 5.352,4.921 7.196,7.955 l 2.308,-2.206 c 1.926,-1.85 3.918,-3.763 6.309,-5.232 4.211,-2.587 9.336,-3.921 16.129,-4.197 7.653,-0.312 13.465,0.46 18.299,2.426 3.909,1.591 7.428,4.14 10.239,7.407 0.498,-0.456 0.998,-0.906 1.492,-1.351 l 0.583,-0.524 c 0.448,-0.403 0.88,-0.841 1.316,-1.281 1.473,-1.487 2.996,-3.025 5.229,-3.609 1.917,-0.502 3.999,-0.297 6.009,-0.099 0.656,0.064 1.299,0.128 1.911,0.161 2.394,0.13 4.789,0.256 7.185,0.38 2.796,0.146 5.712,0.507 7.923,3.136 2.034,2.419 2.026,5.192 2.018,7.874 l -0.001,8.716 c 1.063,-1.022 2.124,-2.046 3.185,-3.07 l 2.512,-2.425 c 3.401,-3.291 6.918,-6.694 11.304,-8.969 8.883,-4.607 20.52,-5.329 31.927,-1.975 4.036,1.188 7.672,3.009 10.824,5.421 0.169,-0.163 0.34,-0.316 0.514,-0.461 0.302,-0.331 0.606,-0.622 0.925,-0.885 0.288,-0.317 0.559,-0.581 0.841,-0.82 0.99,-1.182 1.912,-1.981 2.897,-2.513 1.846,-0.996 3.869,-0.93 5.645,-0.872 l 0.603,0.018 c 3.232,0.082 6.465,0.157 9.696,0.226 4.42,0.093 7.608,1.722 9.476,4.843 1.237,2.066 1.732,4.589 2.155,7.077 2.446,0.043 4.89,0.084 7.334,0.118 1.543,-1.528 3.143,-3.034 4.694,-4.494 0.896,-0.843 1.791,-1.686 2.677,-2.534 l 0.467,-0.451 c 1.337,-1.295 2.72,-2.635 4.609,-3.389 1.868,-0.746 3.783,-0.703 5.638,-0.659 0.354,0.008 0.706,0.017 1.058,0.019 1.267,0.008 2.535,-0.01 3.811,-0.029 2.458,-0.035 5.004,-0.071 7.499,0.087 2.383,0.152 4.515,1.288 5.851,3.118 1.334,1.827 1.752,4.102 1.175,6.408"
       style="fill:#000b30;fill-opacity:1;fill-rule:nonzero;stroke:none"
       transform="matrix(1.3333333,0,0,-1.3333333,1635.1455,69.424667)"
       clip-path="url(#clipPath2019)" />
    <path
       id="path2020"
       d="m 0,0 c 2.186,0.016 4.373,-1.751 4.887,-3.916 3.898,-17.447 7.799,-34.893 11.702,-52.339 3.945,17.557 7.889,35.115 11.83,52.673 0.516,2.18 2.702,4.01 4.888,4.055 5.401,0.112 8.101,0.175 13.502,0.315 1.929,0.049 3.214,-1.192 3.214,-2.98 0,-0.255 0,-0.638 -0.127,-0.897 -6.341,-25.728 -12.685,-51.456 -19.032,-77.183 -0.643,-2.566 -3.343,-4.789 -6.044,-4.836 -6.996,-0.122 -10.493,-0.172 -17.488,-0.245 -2.573,-0.027 -5.273,2.121 -5.917,4.669 -6.306,25.552 -12.607,51.105 -18.903,76.66 -0.129,0.383 -0.129,0.638 -0.129,0.893 0,1.788 1.285,3.064 3.215,3.067 C -8.641,-0.056 -5.761,-0.043 0,0"
       style="fill:#ffffff;fill-opacity:1;fill-rule:nonzero;stroke:none"
       transform="matrix(1.3333333,0,0,-1.3333333,792.96587,124.27907)"
       clip-path="url(#clipPath2021)" />
    <path
       id="path2022"
       d="m 0,0 c 0,-25.664 0,-51.328 0,-76.992 0,-2.043 -1.672,-3.891 -3.858,-3.967 -5.812,-0.203 -8.719,-0.298 -14.531,-0.471 -2.186,-0.065 -3.857,1.675 -3.857,3.718 0,25.664 -0.001,51.328 0,76.992 0,2.043 1.67,3.878 3.856,3.943 5.813,0.173 8.719,0.268 14.532,0.471 C -1.672,3.77 0,2.043 0,0"
       style="fill:#ffffff;fill-opacity:1;fill-rule:nonzero;stroke:none"
       transform="matrix(1.3333333,0,0,-1.3333333,894.6428,127.11613)"
       clip-path="url(#clipPath2023)" />
    <path
       id="path2024"
       d="m 0,0 c 1.749,0.078 2.623,0.118 4.372,0.199 11.574,0.535 16.974,7.978 16.974,22.278 0,14.428 -5.4,21.285 -16.974,20.751 C 2.623,43.147 1.748,43.107 0,43.029 0,28.686 0,14.343 0,0 M 8.23,64.22 C 33.297,65.718 44.54,46.517 44.492,23.739 44.444,0.761 33.345,-19.372 8.23,-20.433 c -10.648,-0.504 -15.972,-0.735 -26.619,-1.15 -2.186,-0.085 -3.857,1.64 -3.857,3.683 0,25.664 -0.001,51.328 0,76.992 0,2.043 1.67,3.893 3.856,3.978 10.648,0.415 15.972,0.646 26.62,1.15"
       style="fill:#ffffff;fill-opacity:1;fill-rule:nonzero;stroke:none"
       transform="matrix(1.3333333,0,0,-1.3333333,929.96213,205.69627)"
       clip-path="url(#clipPath2025)" />
    <path
       id="path2026"
       d="m 0,0 c 2.186,0.154 3.857,-1.514 3.857,-3.557 -0.001,-5.26 -0.001,-7.89 -0.001,-13.151 0,-2.17 -1.67,-3.95 -3.856,-4.104 -10.854,-0.766 -16.281,-1.134 -27.134,-1.834 v -10.597 c 7.767,0.5 11.651,0.76 19.418,1.295 2.057,0.142 3.858,-1.52 3.858,-3.563 0,-5.26 0,-7.891 0,-13.151 0,-2.171 -1.801,-3.956 -3.858,-4.098 -7.767,-0.535 -11.651,-0.795 -19.418,-1.295 v -11.619 c 11.059,0.712 16.589,1.088 27.648,1.87 2.057,0.145 3.858,-1.386 3.858,-3.557 0,-5.26 0,-7.89 0,-13.15 0,-2.044 -1.801,-3.96 -3.858,-4.105 -15.338,-1.095 -30.686,-2.103 -46.037,-3.014 -2.186,-0.131 -3.857,1.559 -3.857,3.602 0,25.664 0,51.328 0,76.991 0,2.044 1.671,3.929 3.857,4.06 C -30.344,-2.076 -15.167,-1.08 0,0"
       style="fill:#ffffff;fill-opacity:1;fill-rule:nonzero;stroke:none"
       transform="matrix(1.3333333,0,0,-1.3333333,1060.7847,112.91933)"
       clip-path="url(#clipPath2027)" />
    <path
       id="path2028"
       d="m 0,0 c 0,-14.811 4.116,-21.779 13.118,-21.071 8.872,0.699 12.988,8.315 12.988,23.126 0,14.938 -4.116,21.878 -12.989,21.179 C 4.116,22.525 0,14.939 0,0 M 49.38,3.977 C 49.312,-17.853 37.182,-40.471 13.118,-42.011 -10.753,-43.538 -23.338,-23.074 -23.274,-1.727 -23.208,20.2 -11.402,42.306 13.117,44.046 37.935,45.807 49.452,26.748 49.38,3.977"
       style="fill:#ffffff;fill-opacity:1;fill-rule:nonzero;stroke:none"
       transform="matrix(1.3333333,0,0,-1.3333333,1099.8752,166.5636)"
       clip-path="url(#clipPath2029)" />
    <path
       id="path2030"
       d="m 0,0 c -4.114,1.307 -7.458,3.704 -10.159,7.05 -0.9,1.073 -1.285,2.445 -1.285,3.977 0,2.17 0.771,4.279 2.442,6.208 2.83,3.151 4.244,4.727 7.073,7.88 1.028,1.11 2.058,1.709 2.958,1.787 1.414,0.121 2.7,-0.789 3.858,-2.604 2.057,-3.525 5.144,-5.045 9.387,-4.673 1.672,0.146 3.016,0.639 4.116,1.638 1.025,0.931 1.543,2.179 1.543,3.838 0,2.554 -1.029,4.634 -3.215,6.102 -2.187,1.468 -4.891,2.762 -8.102,4.144 -2.956,1.272 -5.932,2.881 -8.873,4.723 -2.883,1.806 -5.53,4.251 -7.587,7.268 -2.059,3.017 -2.988,7.117 -3.087,12.124 -0.301,15.254 12.792,24.518 27.006,25.438 4.656,0.301 9.035,0.044 12.987,-1.278 3.842,-1.284 7.202,-3.697 9.902,-7.03 0.901,-1.068 1.286,-2.438 1.286,-3.97 0,-2.171 -0.772,-4.283 -2.443,-6.221 -2.829,-3.165 -4.243,-4.747 -7.073,-7.911 -1.028,-1.113 -2.057,-1.715 -2.958,-1.795 -1.414,-0.126 -2.699,0.781 -3.858,2.594 -1.156,1.813 -2.186,3.126 -3.343,3.918 -1.158,0.792 -2.828,1.027 -5.016,0.836 -1.928,-0.17 -3.214,-0.792 -4.114,-1.765 -0.901,-0.972 -1.414,-2.166 -1.414,-3.315 0,-2.17 1.086,-3.986 3.215,-5.465 2.047,-1.423 4.643,-2.829 7.586,-4.186 3.042,-1.403 6.228,-3.016 9.259,-4.924 2.946,-1.854 5.658,-4.508 7.716,-7.481 2.082,-3.007 3.087,-7.256 3.087,-12.236 0,-4.213 -0.937,-8.266 -2.701,-11.989 C 36.38,8.855 33.685,5.722 30.22,3.286 26.666,0.787 22.119,-0.626 16.718,-1.101 9.644,-1.722 4.116,-1.306 0,0"
       style="display:inline;fill:#ffffff;fill-opacity:1;fill-rule:nonzero;stroke:none"
       transform="matrix(1.3333333,0,0,-1.3333333,1183.2077,213.738)"
       clip-path="url(#clipPath2031)" />
    <path
       id="path2032"
       d="m 0,0 c 2.186,0.203 4.373,-1.38 4.887,-3.503 4.681,-9.575 7.021,-14.362 11.702,-23.936 4.732,10.452 7.099,15.677 11.831,26.129 0.515,2.218 2.701,4.209 5.016,4.425 5.349,0.498 8.024,0.747 13.373,1.243 1.929,0.18 3.216,-0.978 3.216,-2.766 0,-0.255 0,-0.638 -0.129,-0.905 -7.502,-15.849 -15.004,-31.698 -22.504,-47.548 0,-12.564 0,-18.846 0,-31.409 0,-2.044 -1.801,-3.999 -3.987,-4.203 -5.813,-0.541 -8.719,-0.812 -14.532,-1.354 -2.057,-0.191 -3.857,1.428 -3.857,3.472 0,12.563 0,18.845 0,31.409 -7.502,14.455 -15.003,28.91 -22.504,43.366 -0.129,0.243 -0.129,0.626 -0.129,0.881 0,1.788 1.285,3.183 3.215,3.362 C -8.641,-0.803 -5.761,-0.536 0,0"
       style="display:inline;fill:#ffffff;fill-opacity:1;fill-rule:nonzero;stroke:none"
       transform="matrix(1.3333333,0,0,-1.3333333,1316.9449,91.172267)"
       clip-path="url(#clipPath2033)" />
    <path
       id="path2034"
       d="m 0,0 c 2.315,0.205 5.015,-1.344 5.915,-3.307 4.527,-9.969 6.79,-14.955 11.316,-24.929 5.093,10.811 7.639,16.214 12.731,27.017 1.156,2.142 2.957,4.083 5.4,4.29 5.966,0.506 8.949,0.756 14.916,1.25 2.059,0.17 3.858,-1.47 3.858,-3.513 0,-25.664 0,-51.328 0,-76.991 0,-2.044 -1.799,-3.979 -3.858,-4.149 -5.812,-0.481 -8.718,-0.724 -14.53,-1.217 -2.186,-0.185 -3.858,1.46 -3.858,3.503 0,13.943 0,20.914 0,34.857 -6.223,-13.451 -9.336,-20.181 -15.559,-33.644 -0.258,-0.533 -0.9,-1.099 -1.543,-1.155 -0.566,-0.05 -0.849,-0.074 -1.414,-0.124 -0.643,-0.056 -1.286,0.398 -1.544,0.886 -5.195,12.416 -7.793,18.622 -12.988,31.03 0,-13.892 0,-20.837 0,-34.729 0,-2.043 -1.672,-3.979 -3.858,-4.174 -5.401,-0.482 -8.101,-0.725 -13.502,-1.212 -2.186,-0.198 -3.857,1.438 -3.857,3.481 0,25.664 0,51.328 0,76.992 0,2.043 1.671,3.982 3.857,4.179 C -11.111,-0.989 -7.407,-0.657 0,0"
       style="fill:#ffffff;fill-opacity:1;fill-rule:nonzero;stroke:none"
       transform="matrix(1.3333333,0,0,-1.3333333,1469.2012,77.169333)"
       clip-path="url(#clipPath2035)" />
    <path
       id="path2036"
       d="m 0,0 c 0,-1.276 -0.901,-2.747 -2.186,-3.607 -7.665,-5.212 -11.497,-7.825 -19.161,-13.065 -0.643,-0.433 -1.286,-0.737 -1.929,-0.787 -1.414,-0.11 -2.701,0.556 -3.344,1.655 -0.205,0.29 -0.308,0.435 -0.514,0.725 -0.386,0.609 -0.514,1.237 -0.514,1.748 0,1.276 0.643,2.604 1.8,3.587 6.635,5.83 9.953,8.74 16.589,14.549 0.514,0.422 1.029,0.715 1.543,0.754 1.285,0.096 2.572,-0.703 3.729,-1.638 C -2.752,3.042 -2.135,2.602 -0.901,1.722 -0.258,1.258 0,0.766 0,0 m -28.677,-26.946 c 2.186,0.171 3.858,-1.486 3.858,-3.53 v -53.115 c 0,-4.213 2.571,-6.565 6.816,-6.24 4.243,0.325 6.815,3.071 6.815,7.284 v 53.116 c 0,2.043 1.671,3.956 3.857,4.119 5.4,0.403 8.101,0.601 13.502,0.99 2.186,0.157 3.987,-1.503 3.987,-3.546 v -57.329 c 0.687,-16.573 -14.274,-25.177 -28.677,-26.38 -13.936,-1.163 -29.58,5.441 -28.546,22 -0.001,19.109 -0.001,38.219 0,57.328 0,2.044 1.67,3.967 3.856,4.144 5.813,0.47 8.719,0.702 14.532,1.159"
       style="fill:#ffffff;fill-opacity:1;fill-rule:nonzero;stroke:none"
       transform="matrix(1.3333333,0,0,-1.3333333,1609.7956,32.6308)"
       clip-path="url(#clipPath2037)" />
    <path
       id="path2038"
       d="m 0,0 c -4.114,1.382 -7.458,3.832 -10.158,7.218 -0.901,1.086 -1.286,2.463 -1.286,3.996 0,2.17 0.771,4.268 2.442,6.172 2.83,3.108 4.244,4.661 7.073,7.764 1.028,1.091 2.058,1.672 2.958,1.733 1.414,0.095 2.7,-0.84 3.858,-2.679 2.057,-3.566 5.144,-5.149 9.387,-4.876 1.672,0.108 3.016,0.569 4.115,1.539 1.025,0.905 1.544,2.141 1.544,3.8 0,2.554 -1.03,4.661 -3.216,6.181 -2.186,1.521 -4.89,2.878 -8.101,4.328 -2.956,1.335 -5.931,3.002 -8.873,4.898 -2.884,1.859 -5.53,4.348 -7.587,7.397 -2.058,3.049 -2.983,7.169 -3.086,12.17 -0.316,15.21 12.806,24.345 27.005,24.92 4.651,0.188 9.035,-0.184 12.987,-1.618 3.843,-1.394 7.202,-3.91 9.902,-7.329 0.9,-1.097 1.285,-2.479 1.285,-4.011 0,-2.171 -0.771,-4.257 -2.442,-6.143 -2.829,-3.076 -4.244,-4.615 -7.073,-7.697 -1.028,-1.083 -2.057,-1.656 -2.958,-1.711 -1.414,-0.086 -2.7,0.856 -3.858,2.7 -1.157,1.843 -2.186,3.183 -3.343,4.005 -1.158,0.821 -2.828,1.098 -5.016,0.959 -1.928,-0.124 -3.214,-0.717 -4.114,-1.67 -0.901,-0.952 -1.414,-2.135 -1.414,-3.284 0,-2.17 1.086,-4.009 3.215,-5.537 2.048,-1.471 4.642,-2.937 7.586,-4.37 3.042,-1.481 6.227,-3.18 9.259,-5.175 2.947,-1.94 5.656,-4.673 7.716,-7.714 2.083,-3.074 3.086,-7.355 3.086,-12.334 0,-4.213 -0.937,-8.237 -2.701,-11.903 C 36.379,7.959 33.683,4.909 30.22,2.574 26.667,0.177 22.119,-1.111 16.718,-1.455 9.644,-1.906 4.116,-1.381 0,0"
       style="fill:#ffffff;fill-opacity:1;fill-rule:nonzero;stroke:none"
       transform="matrix(1.3333333,0,0,-1.3333333,1644.2559,173.7168)"
       clip-path="url(#clipPath2039)" />
    <path
       id="path2040"
       d="m 0,0 c 0,-25.664 0,-51.328 0,-76.991 0,-2.044 -1.672,-3.915 -3.858,-4.026 -5.813,-0.298 -8.719,-0.453 -14.532,-0.774 -2.186,-0.121 -3.856,1.572 -3.856,3.615 -0.001,25.664 -0.001,51.327 -0.001,76.991 0,2.044 1.671,3.925 3.857,4.046 5.813,0.322 8.719,0.477 14.532,0.774 C -1.672,3.747 0,2.043 0,0"
       style="fill:#ffffff;fill-opacity:1;fill-rule:nonzero;stroke:none"
       transform="matrix(1.3333333,0,0,-1.3333333,1734.1001,63.0164)"
       clip-path="url(#clipPath2041)" />
    <path
       id="path2042"
       d="m 0,0 c 0.899,-1.124 1.286,-2.517 1.286,-4.05 0,-2.17 -0.901,-4.493 -2.315,-6.066 -2.83,-2.992 -4.244,-4.49 -7.074,-7.49 -1.027,-1.053 -2.057,-1.597 -2.957,-1.626 -1.543,-0.049 -2.829,1.057 -3.986,2.806 -2.443,3.62 -6.173,5.279 -10.673,5.112 -9.002,-0.336 -13.118,-7.795 -13.118,-22.734 0,-14.811 4.116,-21.907 13.118,-21.571 4.5,0.167 8.23,2.083 10.673,5.868 1.157,1.826 2.443,3.018 3.986,3.068 0.9,0.029 1.93,-0.449 2.957,-1.439 2.83,-2.822 4.244,-4.236 7.074,-7.065 1.414,-1.492 2.315,-3.766 2.315,-5.936 0,-1.532 -0.387,-2.947 -1.286,-4.122 -5.53,-7.307 -13.612,-10.642 -25.719,-11.314 -24.645,-1.369 -36.433,19.956 -36.392,41.458 0.042,21.717 11.595,44.057 36.392,44.599 C -13.561,9.763 -5.53,6.994 0,0"
       style="fill:#ffffff;fill-opacity:1;fill-rule:nonzero;stroke:none"
       transform="matrix(1.3333333,0,0,-1.3333333,1822.5721,67.348667)"
       clip-path="url(#clipPath2043)" />
    <path
       id="path2044"
       d="M 0,0 C 4.27,0.07 6.404,0.1 10.674,0.152 8.565,9.728 7.51,14.515 5.401,24.087 3.241,14.454 2.161,9.637 0,0 m 14.532,53.055 c 2.7,0.029 5.401,-1.991 6.044,-4.539 6.305,-25.553 12.607,-51.106 18.903,-76.66 0.129,-0.255 0.129,-0.638 0.129,-0.894 0,-1.787 -1.287,-3.064 -3.215,-3.066 -5.761,-0.008 -8.642,-0.021 -14.403,-0.064 -2.186,-0.017 -4.372,1.75 -4.886,3.916 -0.669,3.058 -1.003,4.587 -1.672,7.645 -8.076,-0.082 -12.113,-0.14 -20.189,-0.287 -0.669,-3.077 -1.003,-4.616 -1.672,-7.693 -0.514,-2.18 -2.7,-4.009 -4.886,-4.054 -5.401,-0.112 -8.102,-0.175 -13.502,-0.315 -1.93,-0.05 -3.216,1.192 -3.216,2.98 0,0.255 0,0.638 0.129,0.897 6.34,25.728 12.683,51.456 19.031,77.182 0.643,2.566 3.344,4.662 6.044,4.709 6.944,0.121 10.417,0.17 17.361,0.243"
       style="fill:#ffffff;fill-opacity:1;fill-rule:nonzero;stroke:none"
       transform="matrix(1.3333333,0,0,-1.3333333,1864.7513,123.09347)"
       clip-path="url(#clipPath2045)" />
  </g>
</svg>
