<?xml version="1.0" encoding="UTF-8" standalone="no"?>
<!-- Created with Inkscape (http://www.inkscape.org/) -->

<svg
   version="1.1"
   id="svg1"
   width="2108.6133"
   height="326.67188"
   viewBox="0 0 2108.6133 326.67187"
   sodipodi:docname="Juani y Nacho Banner INFO 2.ai"
   inkscape:export-batch-path="export"
   inkscape:export-batch-name="Juani y Nacho Banner INFO 2"
   xmlns:inkscape="http://www.inkscape.org/namespaces/inkscape"
   xmlns:sodipodi="http://sodipodi.sourceforge.net/DTD/sodipodi-0.dtd"
   xmlns="http://www.w3.org/2000/svg"
   xmlns:svg="http://www.w3.org/2000/svg">
  <defs
     id="defs1" />
  <sodipodi:namedview
     id="namedview1"
     pagecolor="#ffffff"
     bordercolor="#000000"
     borderopacity="0.25"
     inkscape:showpageshadow="2"
     inkscape:pageopacity="0.0"
     inkscape:pagecheckerboard="0"
     inkscape:deskcolor="#d1d1d1" />
  <g
     id="layer-MC5"
     inkscape:groupmode="layer"
     inkscape:label="texto"
     transform="translate(-915.59765,-362.30469)">
    <path
       id="path1273"
       d="m 19.277342,-42.505072 c -12.2812498,0 -17.9999998,7.007813 -17.9999998,21.445313 0,14.3789059 5.71875,21.44531212 17.9999998,21.44531212 6.175781,0 9.984375,-1.66406252 12.726563,-5.22656252 0.445312,-0.5625 0.632812,-1.265625 0.632812,-2.0273437 V -23.344916 c 0,-1.089843 -0.820312,-1.910156 -1.910156,-1.910156 H 19.335936 c -1.007813,0 -1.898438,0.820313 -1.898438,1.910156 v 6.550782 c 0,1.019531 0.890625,1.910156 1.898438,1.910156 h 2.296875 v 4.453125 c -0.703125,0.246094 -1.523438,0.375 -2.355469,0.375 -4.453125,0 -6.492187,-3.621094 -6.492187,-11.003906 0,-7.441407 2.039062,-11.074219 6.492187,-11.074219 2.226563,0 4.066406,0.890625 5.285156,2.742187 0.5625,0.890625 1.265625,1.464844 1.96875,1.464844 0.503907,0 0.949219,-0.257812 1.464844,-0.761719 l 3.492188,-3.632812 c 0.703125,-0.761719 1.148437,-1.910156 1.148437,-2.988281 0,-0.761719 -0.1875,-1.464844 -0.632812,-2.039063 -2.742188,-3.5625 -6.550782,-5.15625 -12.726563,-5.15625 z m 21.436524,0.328125 c -1.007813,0 -1.898438,0.890625 -1.898438,1.898438 v 38.3671871 c 0,1.01953127 0.890625,1.91015627 1.898438,1.91015627 h 7.195312 c 1.078125,0 1.910156,-0.890625 1.910156,-1.91015627 V -13.173041 h 1.523438 l 4.007812,11.1328129 c 0.386719,1.08984372 1.722657,2.03906247 2.929688,2.03906247 h 6.609375 c 0.960937,0 1.59375,-0.57421875 1.59375,-1.39453127 0,-0.1992187 -0.05859,-0.3867187 -0.128906,-0.6445312 L 61.268553,-16.290228 c 2.929688,-2.355469 4.265625,-6.164063 4.265625,-11.390625 0,-9.726563 -4.769531,-14.496094 -15.082031,-14.496094 z m 9.105468,10.359375 h 0.632813 c 2.414062,0 3.5625,1.40625 3.5625,4.136719 0,2.742187 -1.148438,4.136719 -3.5625,4.136719 h -0.632813 z m 33.462891,-10.6875 c -1.335937,0 -2.671875,1.019531 -2.988281,2.296875 l -9.421875,38.2382814 c -0.05859,0.1289062 -0.05859,0.3164062 -0.05859,0.4453125 0,0.89062497 0.632813,1.52343747 1.582031,1.52343747 h 6.679688 c 1.089844,0 2.167969,-0.890625 2.425781,-1.96874997 l 0.820313,-3.8203125 h 9.996093 l 0.820313,3.8203125 c 0.257812,1.07812497 1.335937,1.96874997 2.425781,1.96874997 h 7.125001 c 0.94921,0 1.58203,-0.6328125 1.58203,-1.52343747 0,-0.1289063 0,-0.3164063 -0.0586,-0.4453125 L 94.86035,-40.208197 c -0.316406,-1.277344 -1.652344,-2.296875 -2.988281,-2.296875 z m 4.066406,14.378906 2.613282,11.964844 H 84.676756 Z M 125.6543,-42.505072 c -12.28125,0 -18,7.007813 -18,21.445313 0,14.3789059 5.71875,21.44531212 18,21.44531212 6.10546,0 9.98437,-1.66406252 12.72656,-5.22656252 0.44531,-0.5625 0.63281,-1.265625 0.63281,-2.0273437 0,-1.0898438 -0.44531,-2.2265625 -1.14844,-2.9882813 l -3.49218,-3.6328126 c -0.51563,-0.503906 -1.01954,-0.761719 -1.46485,-0.761719 -0.76172,0 -1.40625,0.574219 -1.96875,1.464844 -1.21875,1.839844 -3.05859,2.730469 -5.28515,2.730469 -4.45313,0 -6.49219,-3.621094 -6.49219,-11.003906 0,-7.441407 2.03906,-11.074219 6.49219,-11.074219 2.22656,0 4.0664,0.890625 5.28515,2.742187 0.5625,0.890625 1.20703,1.464844 1.96875,1.464844 0.44531,0 0.94922,-0.257812 1.46485,-0.761719 l 3.49218,-3.632812 c 0.70313,-0.761719 1.14844,-1.910156 1.14844,-2.988281 0,-0.761719 -0.1875,-1.464844 -0.63281,-2.039063 -2.74219,-3.5625 -6.6211,-5.15625 -12.72656,-5.15625 z m 28.6289,0.328125 h -7.19531 c -1.07813,0 -1.89844,0.890625 -1.89844,1.898438 v 38.3671871 c 0,1.01953127 0.82031,1.91015627 1.89844,1.91015627 h 7.19531 c 1.07813,0 1.91016,-0.890625 1.91016,-1.91015627 V -40.278509 c 0,-1.007813 -0.83203,-1.898438 -1.91016,-1.898438 z m 19.98047,-0.328125 c -1.33594,0 -2.67187,1.019531 -2.98828,2.296875 l -9.42188,38.2382814 c -0.0586,0.1289062 -0.0586,0.3164062 -0.0586,0.4453125 0,0.89062497 0.63281,1.52343747 1.58203,1.52343747 h 6.67969 c 1.08984,0 2.16797,-0.890625 2.42578,-1.96874997 l 0.82031,-3.8203125 h 9.9961 l 0.82031,3.8203125 c 0.25781,1.07812497 1.33594,1.96874997 2.42578,1.96874997 h 7.125 c 0.94922,0 1.58203,-0.6328125 1.58203,-1.52343747 0,-0.1289063 0,-0.3164063 -0.0586,-0.4453125 L 185.8418,-40.208197 c -0.31641,-1.277344 -1.65235,-2.296875 -2.98829,-2.296875 z m 4.06641,14.378906 2.61328,11.964844 h -5.28516 z m 35.1914,28.51171912 c 2.67188,0 4.89844,-0.515625 6.67969,-1.59375002 1.71094,-1.078125 3.04688,-2.484375 3.9375,-4.3242187 0.89063,-1.78125 1.33594,-3.7617188 1.33594,-5.8593754 0,-2.484375 -0.50391,-4.582031 -1.52344,-6.234375 -1.07812,-1.59375 -2.35547,-2.988281 -3.82031,-4.066406 -1.52344,-1.089844 -3.04688,-2.039062 -4.58203,-2.871094 -1.46485,-0.820312 -2.73047,-1.582031 -3.75,-2.414062 -1.07813,-0.820313 -1.59375,-1.78125 -1.59375,-2.859375 0,-0.574219 0.25781,-1.148438 0.70312,-1.59375 0.44531,-0.445313 1.07813,-0.703125 2.03906,-0.703125 1.07813,0 1.91016,0.199219 2.47266,0.644531 0.57422,0.445313 1.08984,1.136719 1.66406,2.097656 0.5625,0.949219 1.20703,1.464844 1.89844,1.464844 0.44531,0 0.96094,-0.257812 1.46484,-0.761719 l 3.50391,-3.632812 c 0.82031,-0.890625 1.20703,-1.910156 1.20703,-2.988281 0,-0.761719 -0.1875,-1.464844 -0.63281,-2.039063 -1.33594,-1.78125 -2.98828,-3.117187 -4.89844,-3.9375 -1.98047,-0.832031 -4.07812,-1.21875 -6.43359,-1.21875 -8.90625,0.07031 -13.35938,3.949219 -13.35938,11.519531 0,2.542969 0.51563,4.582032 1.53516,6.175782 1.00781,1.582031 2.28516,2.917968 3.75,3.9375 1.46484,1.089843 2.92969,1.980468 4.39453,2.742187 1.58203,0.820313 2.91797,1.582031 4.00781,2.414063 1.07813,0.832031 1.58203,1.910156 1.58203,3.175781 0,0.832031 -0.24609,1.40625 -0.76171,1.851562 -0.57422,0.445313 -1.20704,0.632813 -2.03907,0.632813 -2.09765,0 -3.62109,-0.890625 -4.64062,-2.730469 -0.57422,-0.960937 -1.20703,-1.464844 -1.91016,-1.464844 -0.44531,0 -0.94922,0.257813 -1.46484,0.761719 l -3.49219,3.6328126 c -0.83203,0.890625 -1.20703,1.8984375 -1.20703,2.9882813 0,0.7617187 0.1875,1.4648437 0.63281,2.0273437 1.33594,1.78125 2.98828,3.1171875 5.02735,3.94921877 2.02734,0.83203125 4.76953,1.27734375 8.27343,1.27734375 z M 265.87793,-42.505072 c -1.33594,0 -2.67188,1.019531 -2.98828,2.296875 l -9.42188,38.2382814 c -0.0586,0.1289062 -0.0586,0.3164062 -0.0586,0.4453125 0,0.89062497 0.63281,1.52343747 1.58203,1.52343747 h 6.67969 c 1.08984,0 2.16797,-0.890625 2.42578,-1.96874997 l 0.82031,-3.8203125 h 9.99609 l 0.82032,3.8203125 c 0.25781,1.07812497 1.33593,1.96874997 2.42578,1.96874997 h 7.125 c 0.94922,0 1.58203,-0.6328125 1.58203,-1.52343747 0,-0.1289063 0,-0.3164063 -0.0586,-0.4453125 l -9.35157,-38.2382814 c -0.3164,-1.277344 -1.65234,-2.296875 -2.98828,-2.296875 z m 4.0664,14.378906 2.61329,11.964844 h -5.28516 z m 46.76075,-14.050781 c -1.07813,0 -1.89844,0.890625 -1.89844,1.898438 v 28.570312 c 0,8.7773439 5.66016,12.09375012 14.12109,12.09375012 8.46094,0 14.17969,-3.31640622 14.17969,-12.09375012 v -28.570312 c 0,-1.007813 -0.89062,-1.898438 -1.96875,-1.898438 h -6.67969 c -1.07812,0 -1.91015,0.890625 -1.91015,1.898438 v 26.472656 c 0,2.097656 -1.26563,3.375 -3.36328,3.375 -2.10938,0 -3.375,-1.277344 -3.375,-3.375 v -26.472656 c 0,-1.007813 -0.83204,-1.898438 -1.91016,-1.898438 z m 34.03711,0 c -1.00782,0 -1.89844,0.890625 -1.89844,1.898438 v 38.3671871 c 0,1.01953127 0.89062,1.91015627 1.89844,1.91015627 h 6.75 c 1.07812,0 1.91015,-0.890625 1.91015,-1.91015627 V -16.923041 l 7.38281,15.7734379 c 0.31641,0.70312497 0.94922,1.14843747 1.71094,1.14843747 h 6.75 c 1.00781,0 1.89844,-0.890625 1.89844,-1.91015627 V -40.278509 c 0,-1.007813 -0.89063,-1.898438 -1.89844,-1.898438 h -6.75 c -1.01953,0 -1.91015,0.890625 -1.91015,1.898438 v 12.925781 l -6.10547,-12.925781 c -0.50391,-1.007813 -1.83985,-1.898438 -2.98828,-1.898438 z m 56.37011,0 c -1.00781,0 -1.89843,0.890625 -1.89843,1.898438 v 38.3671871 c 0,1.01953127 0.89062,1.91015627 1.89843,1.91015627 h 22.78125 c 1.07813,0 1.91016,-0.890625 1.91016,-1.91015627 v -6.5507812 c 0,-1.078125 -0.83203,-1.9101559 -1.91016,-1.9101559 h -13.67578 v -29.90625 c 0,-1.007813 -0.83203,-1.898438 -1.91015,-1.898438 z m 42.76172,-0.328125 c -1.33594,0 -2.67187,1.019531 -2.98828,2.296875 l -9.42187,38.2382814 c -0.0586,0.1289062 -0.0586,0.3164062 -0.0586,0.4453125 0,0.89062497 0.63281,1.52343747 1.58203,1.52343747 h 6.67969 c 1.08984,0 2.16797,-0.890625 2.42578,-1.96874997 l 0.82031,-3.8203125 h 9.9961 l 0.82031,3.8203125 c 0.25781,1.07812497 1.33594,1.96874997 2.42578,1.96874997 h 7.125 c 0.94922,0 1.58203,-0.6328125 1.58203,-1.52343747 0,-0.1289063 0,-0.3164063 -0.0586,-0.4453125 l -9.35156,-38.2382814 c -0.31641,-1.277344 -1.65235,-2.296875 -2.98828,-2.296875 z m 4.06641,14.378906 2.61328,11.964844 h -5.28516 z m 8.97656,-27.292968 -1.53516,-1.207032 c -0.5625,-0.503906 -1.20703,-0.949218 -1.83984,-0.949218 -0.25781,0 -0.50391,0.128906 -0.76172,0.316406 l -8.20312,6.621094 c -0.57422,0.445312 -0.89063,1.078125 -0.89063,1.710937 0,0.257813 0.0586,0.574219 0.2461,0.890625 l 0.25781,0.386719 c 0.3164,0.574219 0.94922,0.949219 1.65234,0.949219 0.31641,0 0.63281,-0.128907 0.96094,-0.316407 l 9.46875,-5.789062 c 0.64453,-0.386719 1.08984,-1.078125 1.08984,-1.722656 0,-0.375 -0.1289,-0.632813 -0.44531,-0.890625 z m 15.45117,13.242187 c -1.07812,0 -1.89843,0.890625 -1.89843,1.898438 v 38.3671871 c 0,1.01953127 0.82031,1.91015627 1.89843,1.91015627 h 7.19532 c 1.01953,0 1.91015,-0.890625 1.91015,-1.91015627 v -8.2734371 c 10.30078,0 15.07031,-5.273438 15.07031,-15.960938 0,-10.757812 -4.76953,-16.03125 -15.07031,-16.03125 z m 9.10547,10.359375 c 2.48438,0 3.5625,1.851563 3.5625,5.671875 0,3.75 -1.07812,5.589844 -3.5625,5.589844 z m 29.90332,-10.359375 h -7.19531 c -1.07813,0 -1.89844,0.890625 -1.89844,1.898438 v 38.3671871 c 0,1.01953127 0.82031,1.91015627 1.89844,1.91015627 h 7.19531 c 1.07813,0 1.91016,-0.890625 1.91016,-1.91015627 V -40.278509 c 0,-1.007813 -0.83203,-1.898438 -1.91016,-1.898438 z m 9.79395,0 c -1.07813,0 -1.91016,0.890625 -1.91016,1.898438 v 6.5625 c 0,1.078125 0.83203,1.898437 1.91016,1.898437 h 12.22265 l -13.74609,25.3945314 c -0.31641,0.6914062 -0.63281,1.8398437 -0.63281,2.6015625 v 1.9101562 c 0,1.01953127 0.82031,1.91015627 1.89843,1.91015627 h 25.89844 c 1.07813,0 1.91016,-0.890625 1.91016,-1.91015627 v -6.5507812 c 0,-1.078125 -0.83203,-1.9101559 -1.91016,-1.9101559 h -12.65625 l 13.67578,-25.382813 c 0.375,-0.632812 0.63282,-1.851562 0.63282,-2.613281 v -1.910156 c 0,-1.007813 -0.82032,-1.898438 -1.91016,-1.898438 z m 57.50976,0 c -1.07812,0 -1.89843,0.890625 -1.89843,1.898438 v 38.3671871 c 0,1.01953127 0.82031,1.91015627 1.89843,1.91015627 h 6.67969 c 1.08984,0 1.91016,-0.890625 1.91016,-1.91015627 V -19.219916 l 6.43359,16.0429691 c 0.12891,0.2460938 0.44531,0.5039063 0.76172,0.5039063 h 0.70312 c 0.31641,0 0.63282,-0.2578125 0.76172,-0.5039063 l 7.69922,-16.1015621 v 17.3671871 c 0,1.01953127 0.82031,1.91015627 1.89844,1.91015627 h 7.19531 c 1.01953,0 1.91016,-0.890625 1.91016,-1.91015627 V -40.278509 c 0,-1.007813 -0.89063,-1.898438 -1.91016,-1.898438 h -7.38281 c -1.20703,0 -2.09766,0.890625 -2.67188,1.898438 l -6.29296,12.925781 -5.60157,-12.925781 c -0.44531,-1.007813 -1.78125,-1.898438 -2.92968,-1.898438 z m 54.02344,-0.328125 c -1.33594,0 -2.67187,1.019531 -2.98828,2.296875 l -9.42188,38.2382814 c -0.0586,0.1289062 -0.0586,0.3164062 -0.0586,0.4453125 0,0.89062497 0.63281,1.52343747 1.58203,1.52343747 h 6.67969 c 1.08984,0 2.16797,-0.890625 2.42578,-1.96874997 l 0.82031,-3.8203125 h 9.9961 l 0.82031,3.8203125 c 0.25781,1.07812497 1.33594,1.96874997 2.42578,1.96874997 h 7.125 c 0.94922,0 1.58203,-0.6328125 1.58203,-1.52343747 0,-0.1289063 0,-0.3164063 -0.0586,-0.4453125 l -9.35156,-38.2382814 c -0.31641,-1.277344 -1.65235,-2.296875 -2.98829,-2.296875 z m 4.06641,14.378906 2.61328,11.964844 h -5.28516 z m 8.97656,-27.292968 -1.53516,-1.207032 c -0.5625,-0.503906 -1.20703,-0.949218 -1.83984,-0.949218 -0.25781,0 -0.50391,0.128906 -0.76172,0.316406 l -8.20312,6.621094 c -0.57422,0.445312 -0.89063,1.078125 -0.89063,1.710937 0,0.257813 0.0586,0.574219 0.24609,0.890625 l 0.25782,0.386719 c 0.3164,0.574219 0.94922,0.949219 1.65234,0.949219 0.31641,0 0.63281,-0.128907 0.96094,-0.316407 l 9.46875,-5.789062 c 0.64453,-0.386719 1.08984,-1.078125 1.08984,-1.722656 0,-0.375 -0.1289,-0.632813 -0.44531,-0.890625 z m 29.33496,12.914062 c -12.28125,0 -18,7.007813 -18,21.445313 0,14.3789059 5.71875,21.44531212 18,21.44531212 6.17578,0 9.98437,-1.66406252 12.72656,-5.22656252 0.44531,-0.5625 0.63281,-1.265625 0.63281,-2.0273437 V -23.344916 c 0,-1.089843 -0.82031,-1.910156 -1.91015,-1.910156 h -11.39063 c -1.00781,0 -1.89843,0.820313 -1.89843,1.910156 v 6.550782 c 0,1.019531 0.89062,1.910156 1.89843,1.910156 h 2.29688 v 4.453125 c -0.70313,0.246094 -1.52344,0.375 -2.35547,0.375 -4.45313,0 -6.49219,-3.621094 -6.49219,-11.003906 0,-7.441407 2.03906,-11.074219 6.49219,-11.074219 2.22656,0 4.06641,0.890625 5.28516,2.742187 0.5625,0.890625 1.26562,1.464844 1.96875,1.464844 0.5039,0 0.94921,-0.257812 1.46484,-0.761719 l 3.49219,-3.632812 c 0.70312,-0.761719 1.14843,-1.910156 1.14843,-2.988281 0,-0.761719 -0.1875,-1.464844 -0.63281,-2.039063 -2.74219,-3.5625 -6.55078,-5.15625 -12.72656,-5.15625 z m 28.62891,0.328125 h -7.19532 c -1.07812,0 -1.89843,0.890625 -1.89843,1.898438 v 38.3671871 c 0,1.01953127 0.82031,1.91015627 1.89843,1.91015627 h 7.19532 c 1.07812,0 1.91015,-0.890625 1.91015,-1.91015627 V -40.278509 c 0,-1.007813 -0.83203,-1.898438 -1.91015,-1.898438 z m 25.64062,-0.328125 c -12.28125,0 -18,7.007813 -18,21.445313 0,14.3789059 5.71875,21.44531212 18,21.44531212 6.10547,0 9.98438,-1.66406252 12.72656,-5.22656252 0.44532,-0.5625 0.63282,-1.265625 0.63282,-2.0273437 0,-1.0898438 -0.44532,-2.2265625 -1.14844,-2.9882813 l -3.49219,-3.6328126 c -0.51562,-0.503906 -1.01953,-0.761719 -1.46484,-0.761719 -0.76172,0 -1.40625,0.574219 -1.96875,1.464844 -1.21875,1.839844 -3.0586,2.730469 -5.28516,2.730469 -4.45312,0 -6.49219,-3.621094 -6.49219,-11.003906 0,-7.441407 2.03907,-11.074219 6.49219,-11.074219 2.22656,0 4.06641,0.890625 5.28516,2.742187 0.5625,0.890625 1.20703,1.464844 1.96875,1.464844 0.44531,0 0.94922,-0.257812 1.46484,-0.761719 l 3.49219,-3.632812 c 0.70312,-0.761719 1.14844,-1.910156 1.14844,-2.988281 0,-0.761719 -0.1875,-1.464844 -0.63282,-2.039063 -2.74218,-3.5625 -6.62109,-5.15625 -12.72656,-5.15625 z m 36.26367,0 c -12.28125,0 -18,7.007813 -18,21.445313 0,14.3789059 5.71875,21.44531212 18,21.44531212 12.28125,0 17.94141,-7.06640622 17.94141,-21.44531212 0,-14.4375 -5.66016,-21.445313 -17.94141,-21.445313 z m 0,10.371094 c 4.39453,0 6.42188,3.632812 6.42188,11.074219 0,7.382812 -2.02735,11.003906 -6.42188,11.003906 -4.45312,0 -6.49218,-3.621094 -6.49218,-11.003906 0,-7.441407 2.03906,-11.074219 6.49218,-11.074219 z m 47.45801,-10.042969 c -0.94922,0 -1.58203,0.632813 -1.58203,1.523438 0,0.128906 0,0.316406 0.0586,0.445312 l 11.13282,22.652344 v 15.6445311 c 0,1.01953127 0.89062,1.91015627 1.91015,1.91015627 h 7.19531 c 1.07813,0 1.96875,-0.890625 1.96875,-1.91015627 V -17.555853 l 11.13282,-22.652344 c 0.0586,-0.128906 0.0586,-0.316406 0.0586,-0.445312 0,-0.890625 -0.63281,-1.523438 -1.58203,-1.523438 h -6.62109 c -1.14844,0 -2.22657,0.890625 -2.48438,1.96875 l -5.84766,12.46875 -5.78906,-12.46875 c -0.25781,-1.078125 -1.33594,-1.96875 -2.42578,-1.96875 z m 73.74609,42.56250012 c 2.67188,0 4.89844,-0.515625 6.67969,-1.59375002 1.71094,-1.078125 3.04688,-2.484375 3.9375,-4.3242187 0.89063,-1.78125 1.33594,-3.7617188 1.33594,-5.8593754 0,-2.484375 -0.50391,-4.582031 -1.52344,-6.234375 -1.07812,-1.59375 -2.35547,-2.988281 -3.82031,-4.066406 -1.52344,-1.089844 -3.04688,-2.039062 -4.58203,-2.871094 -1.46485,-0.820312 -2.73047,-1.582031 -3.75,-2.414062 -1.07813,-0.820313 -1.59375,-1.78125 -1.59375,-2.859375 0,-0.574219 0.25781,-1.148438 0.70312,-1.59375 0.44532,-0.445313 1.07813,-0.703125 2.03907,-0.703125 1.07812,0 1.91015,0.199219 2.47265,0.644531 0.57422,0.445313 1.08985,1.136719 1.66406,2.097656 0.5625,0.949219 1.20704,1.464844 1.89844,1.464844 0.44531,0 0.96094,-0.257812 1.46485,-0.761719 l 3.5039,-3.632812 c 0.82031,-0.890625 1.20703,-1.910156 1.20703,-2.988281 0,-0.761719 -0.1875,-1.464844 -0.63281,-2.039063 -1.33594,-1.78125 -2.98828,-3.117187 -4.89844,-3.9375 -1.98047,-0.832031 -4.07812,-1.21875 -6.43359,-1.21875 -8.90625,0.07031 -13.35938,3.949219 -13.35938,11.519531 0,2.542969 0.51563,4.582032 1.53516,6.175782 1.00781,1.582031 2.28516,2.917968 3.75,3.9375 1.46484,1.089843 2.92969,1.980468 4.39453,2.742187 1.58203,0.820313 2.91797,1.582031 4.00781,2.414063 1.07813,0.832031 1.58204,1.910156 1.58204,3.175781 0,0.832031 -0.2461,1.40625 -0.76172,1.851562 -0.57422,0.445313 -1.20703,0.632813 -2.03907,0.632813 -2.09765,0 -3.62109,-0.890625 -4.64062,-2.730469 -0.57422,-0.960937 -1.20703,-1.464844 -1.91016,-1.464844 -0.44531,0 -0.94922,0.257813 -1.46484,0.761719 l -3.49219,3.6328126 c -0.83203,0.890625 -1.20703,1.8984375 -1.20703,2.9882813 0,0.7617187 0.1875,1.4648437 0.63281,2.0273437 1.33594,1.78125 2.98828,3.1171875 5.02735,3.94921877 2.02734,0.83203125 4.76953,1.27734375 8.27343,1.27734375 z M 912.4043,-42.176947 c -1.07813,0 -1.89844,0.890625 -1.89844,1.898438 v 28.570312 c 0,8.7773439 5.66015,12.09375012 14.12109,12.09375012 8.46094,0 14.17969,-3.31640622 14.17969,-12.09375012 v -28.570312 c 0,-1.007813 -0.89063,-1.898438 -1.96875,-1.898438 h -6.67969 c -1.07812,0 -1.91015,0.890625 -1.91015,1.898438 v 26.472656 c 0,2.097656 -1.26563,3.375 -3.36329,3.375 -2.10937,0 -3.375,-1.277344 -3.375,-3.375 v -26.472656 c 0,-1.007813 -0.83203,-1.898438 -1.91015,-1.898438 z m 63.56543,0 h -7.19532 c -1.07812,0 -1.89843,0.890625 -1.89843,1.898438 v 38.3671871 c 0,1.01953127 0.82031,1.91015627 1.89843,1.91015627 h 7.19532 c 1.07812,0 1.91015,-0.890625 1.91015,-1.91015627 V -40.278509 c 0,-1.007813 -0.83203,-1.898438 -1.91015,-1.898438 z m 9.53906,0 c -1.00781,0 -1.89844,0.890625 -1.89844,1.898438 v 38.3671871 c 0,1.01953127 0.89063,1.91015627 1.89844,1.91015627 h 6.75 c 1.07812,0 1.91015,-0.890625 1.91015,-1.91015627 V -16.923041 l 7.38286,15.7734379 c 0.3164,0.70312497 0.9492,1.14843747 1.7109,1.14843747 h 6.75 c 1.0078,0 1.8984,-0.890625 1.8984,-1.91015627 V -40.278509 c 0,-1.007813 -0.8906,-1.898438 -1.8984,-1.898438 h -6.75 c -1.0195,0 -1.9102,0.890625 -1.9102,1.898438 v 12.925781 l -6.10543,-12.925781 c -0.50391,-1.007813 -1.83984,-1.898438 -2.98828,-1.898438 z m 34.03711,0 c -1.0781,0 -1.8984,0.890625 -1.8984,1.898438 v 38.3671871 c 0,1.01953127 0.8203,1.91015627 1.8984,1.91015627 h 6.6797 c 1.0898,0 1.9101,-0.890625 1.9101,-1.91015627 V -19.219916 l 6.4336,16.0429691 c 0.1289,0.2460938 0.4453,0.5039063 0.7618,0.5039063 h 0.7031 c 0.3164,0 0.6328,-0.2578125 0.7617,-0.5039063 l 7.6992,-16.1015621 v 17.3671871 c 0,1.01953127 0.8203,1.91015627 1.8985,1.91015627 h 7.1953 c 1.0195,0 1.9101,-0.890625 1.9101,-1.91015627 V -40.278509 c 0,-1.007813 -0.8906,-1.898438 -1.9101,-1.898438 h -7.3828 c -1.2071,0 -2.0977,0.890625 -2.6719,1.898438 l -6.293,12.925781 -5.6016,-12.925781 c -0.4453,-1.007813 -1.7812,-1.898438 -2.9296,-1.898438 z m 43.5791,0 c -1.0781,0 -1.8984,0.890625 -1.8984,1.898438 v 38.3671871 c 0,1.01953127 0.8203,1.91015627 1.8984,1.91015627 h 22.7812 c 1.0196,0 1.9102,-0.890625 1.9102,-1.91015627 v -6.5507812 c 0,-1.078125 -0.8906,-1.9101559 -1.9102,-1.9101559 h -13.6757 v -5.789063 h 9.6093 c 1.0079,0 1.8985,-0.832031 1.8985,-1.910156 v -6.550781 c 0,-1.019532 -0.8906,-1.910157 -1.8985,-1.910157 h -9.6093 v -5.285156 h 13.4179 c 1.0899,0 1.9102,-0.820312 1.9102,-1.898437 v -6.5625 c 0,-1.007813 -0.8203,-1.898438 -1.9102,-1.898438 z m 32.3203,0 c -1.0078,0 -1.8984,0.890625 -1.8984,1.898438 v 38.3671871 c 0,1.01953127 0.8906,1.91015627 1.8984,1.91015627 h 6.75 c 1.0781,0 1.9102,-0.890625 1.9102,-1.91015627 V -16.923041 l 7.3828,15.7734379 c 0.3164,0.70312497 0.9492,1.14843747 1.7109,1.14843747 h 6.75 c 1.0078,0 1.8985,-0.890625 1.8985,-1.91015627 V -40.278509 c 0,-1.007813 -0.8907,-1.898438 -1.8985,-1.898438 h -6.75 c -1.0195,0 -1.9101,0.890625 -1.9101,1.898438 v 12.925781 l -6.1055,-12.925781 c -0.5039,-1.007813 -1.8399,-1.898438 -2.9883,-1.898438 z m 46.0752,42.56250012 c 2.6719,0 4.8984,-0.515625 6.6797,-1.59375002 1.7109,-1.078125 3.0469,-2.484375 3.9375,-4.3242187 0.8906,-1.78125 1.3359,-3.7617188 1.3359,-5.8593754 0,-2.484375 -0.5039,-4.582031 -1.5234,-6.234375 -1.0781,-1.59375 -2.3555,-2.988281 -3.8203,-4.066406 -1.5235,-1.089844 -3.0469,-2.039062 -4.582,-2.871094 -1.4649,-0.820312 -2.7305,-1.582031 -3.75,-2.414062 -1.0782,-0.820313 -1.5938,-1.78125 -1.5938,-2.859375 0,-0.574219 0.2578,-1.148438 0.7031,-1.59375 0.4453,-0.445313 1.0782,-0.703125 2.0391,-0.703125 1.0781,0 1.9101,0.199219 2.4726,0.644531 0.5743,0.445313 1.0899,1.136719 1.6641,2.097656 0.5625,0.949219 1.207,1.464844 1.8984,1.464844 0.4454,0 0.961,-0.257812 1.4649,-0.761719 l 3.5039,-3.632812 c 0.8203,-0.890625 1.207,-1.910156 1.207,-2.988281 0,-0.761719 -0.1875,-1.464844 -0.6328,-2.039063 -1.3359,-1.78125 -2.9883,-3.117187 -4.8984,-3.9375 -1.9805,-0.832031 -4.0781,-1.21875 -6.4336,-1.21875 -8.9063,0.07031 -13.3594,3.949219 -13.3594,11.519531 0,2.542969 0.5156,4.582032 1.5352,6.175782 1.0078,1.582031 2.2851,2.917968 3.75,3.9375 1.4648,1.089843 2.9297,1.980468 4.3945,2.742187 1.582,0.820313 2.918,1.582031 4.0078,2.414063 1.0781,0.832031 1.582,1.910156 1.582,3.175781 0,0.832031 -0.2461,1.40625 -0.7617,1.851562 -0.5742,0.445313 -1.207,0.632813 -2.039,0.632813 -2.0977,0 -3.6211,-0.890625 -4.6407,-2.730469 -0.5742,-0.960937 -1.207,-1.464844 -1.9101,-1.464844 -0.4453,0 -0.9492,0.257813 -1.4649,0.761719 l -3.4922,3.6328126 c -0.832,0.890625 -1.207,1.8984375 -1.207,2.9882813 0,0.7617187 0.1875,1.4648437 0.6328,2.0273437 1.336,1.78125 2.9883,3.1171875 5.0274,3.94921877 2.0273,0.83203125 4.7695,1.27734375 8.2734,1.27734375 z m 28.752,-42.89062512 c -1.336,0 -2.6719,1.019531 -2.9883,2.296875 l -9.4219,38.2382814 c -0.059,0.1289062 -0.059,0.3164062 -0.059,0.4453125 0,0.89062497 0.6328,1.52343747 1.582,1.52343747 h 6.6797 c 1.0899,0 2.168,-0.890625 2.4258,-1.96874997 l 0.8203,-3.8203125 h 9.9961 l 0.8203,3.8203125 c 0.2578,1.07812497 1.336,1.96874997 2.4258,1.96874997 h 7.125 c 0.9492,0 1.582,-0.6328125 1.582,-1.52343747 0,-0.1289063 0,-0.3164063 -0.059,-0.4453125 l -9.3515,-38.2382814 c -0.3164,-1.277344 -1.6524,-2.296875 -2.9883,-2.296875 z m 4.0664,14.378906 2.6132,11.964844 h -5.2851 z m 53.956,-14.050781 h -7.1953 c -1.0781,0 -1.8984,0.890625 -1.8984,1.898438 v 38.3671871 c 0,1.01953127 0.8203,1.91015627 1.8984,1.91015627 h 7.1953 c 1.0781,0 1.9102,-0.890625 1.9102,-1.91015627 V -40.278509 c 0,-1.007813 -0.8321,-1.898438 -1.9102,-1.898438 z m 9.5391,0 c -1.0781,0 -1.8985,0.890625 -1.8985,1.898438 v 38.3671871 c 0,1.01953127 0.8204,1.91015627 1.8985,1.91015627 h 6.6797 c 1.0898,0 1.9101,-0.890625 1.9101,-1.91015627 V -19.219916 l 6.4336,16.0429691 c 0.1289,0.2460938 0.4453,0.5039063 0.7617,0.5039063 h 0.7032 c 0.3164,0 0.6328,-0.2578125 0.7617,-0.5039063 l 7.6992,-16.1015621 v 17.3671871 c 0,1.01953127 0.8203,1.91015627 1.8984,1.91015627 h 7.1954 c 1.0195,0 1.9101,-0.890625 1.9101,-1.91015627 V -40.278509 c 0,-1.007813 -0.8906,-1.898438 -1.9101,-1.898438 h -7.3829 c -1.207,0 -2.0976,0.890625 -2.6718,1.898438 l -6.293,12.925781 -5.6016,-12.925781 c -0.4453,-1.007813 -1.7812,-1.898438 -2.9297,-1.898438 z m 54.0205,-0.328125 c -1.3359,0 -2.6719,1.019531 -2.9883,2.296875 l -9.4219,38.2382814 c -0.059,0.1289062 -0.059,0.3164062 -0.059,0.4453125 0,0.89062497 0.6329,1.52343747 1.5821,1.52343747 h 6.6797 c 1.0898,0 2.1679,-0.890625 2.4257,-1.96874997 l 0.8204,-3.8203125 h 9.996 l 0.8204,3.8203125 c 0.2578,1.07812497 1.3359,1.96874997 2.4257,1.96874997 h 7.125 c 0.9493,0 1.5821,-0.6328125 1.5821,-1.52343747 0,-0.1289063 0,-0.3164063 -0.059,-0.4453125 l -9.3516,-38.2382814 c -0.3164,-1.277344 -1.6523,-2.296875 -2.9883,-2.296875 z m 4.0664,14.378906 2.6133,11.964844 h -5.2852 z m 38.3115,-14.378906 c -12.2812,0 -18,7.007813 -18,21.445313 0,14.3789059 5.7188,21.44531212 18,21.44531212 6.1758,0 9.9844,-1.66406252 12.7266,-5.22656252 0.4453,-0.5625 0.6328,-1.265625 0.6328,-2.0273437 V -23.344916 c 0,-1.089843 -0.8203,-1.910156 -1.9102,-1.910156 h -11.3906 c -1.0078,0 -1.8984,0.820313 -1.8984,1.910156 v 6.550782 c 0,1.019531 0.8906,1.910156 1.8984,1.910156 h 2.2969 v 4.453125 c -0.7031,0.246094 -1.5234,0.375 -2.3555,0.375 -4.4531,0 -6.4922,-3.621094 -6.4922,-11.003906 0,-7.441407 2.0391,-11.074219 6.4922,-11.074219 2.2266,0 4.0664,0.890625 5.2852,2.742187 0.5625,0.890625 1.2656,1.464844 1.9687,1.464844 0.5039,0 0.9492,-0.257812 1.4649,-0.761719 l 3.4922,-3.632812 c 0.7031,-0.761719 1.1484,-1.910156 1.1484,-2.988281 0,-0.761719 -0.1875,-1.464844 -0.6328,-2.039063 -2.7422,-3.5625 -6.5508,-5.15625 -12.7266,-5.15625 z m 28.6289,0.328125 h -7.1953 c -1.0781,0 -1.8984,0.890625 -1.8984,1.898438 v 38.3671871 c 0,1.01953127 0.8203,1.91015627 1.8984,1.91015627 h 7.1953 c 1.0782,0 1.9102,-0.890625 1.9102,-1.91015627 V -40.278509 c 0,-1.007813 -0.832,-1.898438 -1.9102,-1.898438 z m 9.5391,0 c -1.0078,0 -1.8984,0.890625 -1.8984,1.898438 v 38.3671871 c 0,1.01953127 0.8906,1.91015627 1.8984,1.91015627 h 6.75 c 1.0781,0 1.9101,-0.890625 1.9101,-1.91015627 V -16.923041 l 7.3829,15.7734379 c 0.3164,0.70312497 0.9492,1.14843747 1.7109,1.14843747 h 6.75 c 1.0078,0 1.8984,-0.890625 1.8984,-1.91015627 V -40.278509 c 0,-1.007813 -0.8906,-1.898438 -1.8984,-1.898438 h -6.75 c -1.0195,0 -1.9102,0.890625 -1.9102,1.898438 v 12.925781 l -6.1054,-12.925781 c -0.5039,-1.007813 -1.8399,-1.898438 -2.9883,-1.898438 z m 44.4785,-0.328125 c -1.3359,0 -2.6719,1.019531 -2.9883,2.296875 l -9.4219,38.2382814 c -0.058,0.1289062 -0.058,0.3164062 -0.058,0.4453125 0,0.89062497 0.6328,1.52343747 1.582,1.52343747 h 6.6797 c 1.0898,0 2.1679,-0.890625 2.4258,-1.96874997 l 0.8203,-3.8203125 h 9.9961 l 0.8203,3.8203125 c 0.2578,1.07812497 1.3359,1.96874997 2.4258,1.96874997 h 7.125 c 0.9492,0 1.582,-0.6328125 1.582,-1.52343747 0,-0.1289063 0,-0.3164063 -0.059,-0.4453125 l -9.3516,-38.2382814 c -0.3164,-1.277344 -1.6523,-2.296875 -2.9883,-2.296875 z m 4.0664,14.378906 2.6133,11.964844 h -5.2852 z m 38.3027,-14.378906 c -12.2812,0 -18,7.007813 -18,21.445313 0,14.3789059 5.7188,21.44531212 18,21.44531212 6.1055,0 9.9844,-1.66406252 12.7266,-5.22656252 0.4453,-0.5625 0.6328,-1.265625 0.6328,-2.0273437 0,-1.0898438 -0.4453,-2.2265625 -1.1484,-2.9882813 l -3.4922,-3.6328126 c -0.5156,-0.503906 -1.0195,-0.761719 -1.4648,-0.761719 -0.7618,0 -1.4063,0.574219 -1.9688,1.464844 -1.2187,1.839844 -3.0586,2.730469 -5.2852,2.730469 -4.4531,0 -6.4921,-3.621094 -6.4921,-11.003906 0,-7.441407 2.039,-11.074219 6.4921,-11.074219 2.2266,0 4.0665,0.890625 5.2852,2.742187 0.5625,0.890625 1.207,1.464844 1.9688,1.464844 0.4453,0 0.9492,-0.257812 1.4648,-0.761719 l 3.4922,-3.632812 c 0.7031,-0.761719 1.1484,-1.910156 1.1484,-2.988281 0,-0.761719 -0.1875,-1.464844 -0.6328,-2.039063 -2.7422,-3.5625 -6.6211,-5.15625 -12.7266,-5.15625 z m 28.6319,0.328125 h -7.1953 c -1.0782,0 -1.8985,0.890625 -1.8985,1.898438 v 38.3671871 c 0,1.01953127 0.8203,1.91015627 1.8985,1.91015627 h 7.1953 c 1.0781,0 1.9101,-0.890625 1.9101,-1.91015627 V -40.278509 c 0,-1.007813 -0.832,-1.898438 -1.9101,-1.898438 z m 25.6377,-0.328125 c -12.2813,0 -18,7.007813 -18,21.445313 0,14.3789059 5.7187,21.44531212 18,21.44531212 12.2812,0 17.9414,-7.06640622 17.9414,-21.44531212 0,-14.4375 -5.6602,-21.445313 -17.9414,-21.445313 z m 0,10.371094 c 4.3945,0 6.4219,3.632812 6.4219,11.074219 0,7.382812 -2.0274,11.003906 -6.4219,11.003906 -4.4531,0 -6.4922,-3.621094 -6.4922,-11.003906 0,-7.441407 2.0391,-11.074219 6.4922,-11.074219 z m 8.7187,-23.285156 -1.5351,-1.207032 c -0.5625,-0.503906 -1.2071,-0.949218 -1.8399,-0.949218 -0.2578,0 -0.5039,0.128906 -0.7617,0.316406 l -8.2031,6.621094 c -0.5742,0.445312 -0.8906,1.078125 -0.8906,1.710937 0,0.257813 0.059,0.574219 0.2461,0.890625 l 0.2578,0.386719 c 0.3164,0.574219 0.9492,0.949219 1.6523,0.949219 0.3164,0 0.6328,-0.128907 0.9609,-0.316407 l 9.4688,-5.789062 c 0.6445,-0.386719 1.0898,-1.078125 1.0898,-1.722656 0,-0.375 -0.1289,-0.632813 -0.4453,-0.890625 z m 16.8545,13.242187 c -1.0078,0 -1.8984,0.890625 -1.8984,1.898438 v 38.3671871 c 0,1.01953127 0.8906,1.91015627 1.8984,1.91015627 h 6.75 c 1.0781,0 1.9102,-0.890625 1.9102,-1.91015627 V -16.923041 l 7.3828,15.7734379 c 0.3164,0.70312497 0.9492,1.14843747 1.7109,1.14843747 h 6.75 c 1.0078,0 1.8985,-0.890625 1.8985,-1.91015627 V -40.278509 c 0,-1.007813 -0.8907,-1.898438 -1.8985,-1.898438 h -6.75 c -1.0195,0 -1.9101,0.890625 -1.9101,1.898438 v 12.925781 l -6.1055,-12.925781 c -0.5039,-1.007813 -1.8398,-1.898438 -2.9883,-1.898438 z m 37.9278,30.65625 c -3.1875,0 -5.7891,2.6132814 -5.7891,5.7890626 0,2.0390625 1.0781,3.890625 2.7891,4.89843752 -0.1172,2.29687498 -0.9493,4.00781248 -1.5235,4.96874998 -0.1289,0.1875 -0.1875,0.375 -0.1875,0.5742188 0,0.2460937 0.1875,0.5039062 0.5039,0.6914062 l 2.0391,0.890625 c 0.1875,0.1289063 0.4453,0.1289063 0.7031,0.1289063 0.375,0 0.7617,-0.058594 1.0195,-0.3164063 1.8399,-1.59375 6.1055,-5.84765623 6.1641,-11.7070312 v -0.1289063 c 0,-3.1757812 -2.543,-5.7890626 -5.7187,-5.7890626 z M 146.07129,15.848444 c -1.00781,0 -1.89844,0.890625 -1.89844,1.898437 v 38.367188 c 0,1.019531 0.89063,1.910156 1.89844,1.910156 h 22.78125 c 1.07812,0 1.91015,-0.890625 1.91015,-1.910156 v -6.550782 c 0,-1.078125 -0.83203,-1.910156 -1.91015,-1.910156 h -13.67578 v -29.90625 c 0,-1.007812 -0.83203,-1.898437 -1.91016,-1.898437 z m 47.14746,-0.328125 c -12.28125,0 -18,7.007812 -18,21.445312 0,14.378906 5.71875,21.445313 18,21.445313 12.28125,0 17.9414,-7.066407 17.9414,-21.445313 0,-14.4375 -5.66015,-21.445312 -17.9414,-21.445312 z m 0,10.371093 c 4.39453,0 6.42187,3.632813 6.42187,11.074219 0,7.382813 -2.02734,11.003906 -6.42187,11.003906 -4.45313,0 -6.49219,-3.621093 -6.49219,-11.003906 0,-7.441406 2.03906,-11.074219 6.49219,-11.074219 z m 41.6748,-10.371093 c -12.28125,0 -18,7.007812 -18,21.445312 0,14.378906 5.71875,21.445313 18,21.445313 6.17578,0 9.98438,-1.664063 12.72657,-5.226563 0.44531,-0.5625 0.63281,-1.265625 0.63281,-2.027344 V 34.680475 c 0,-1.089844 -0.82031,-1.910156 -1.91016,-1.910156 h -11.39062 c -1.00782,0 -1.89844,0.820312 -1.89844,1.910156 v 6.550781 c 0,1.019531 0.89062,1.910156 1.89844,1.910156 h 2.29687 v 4.453125 c -0.70312,0.246094 -1.52344,0.375 -2.35547,0.375 -4.45312,0 -6.49218,-3.621093 -6.49218,-11.003906 0,-7.441406 2.03906,-11.074219 6.49218,-11.074219 2.22657,0 4.06641,0.890625 5.28516,2.742188 0.5625,0.890625 1.26562,1.464844 1.96875,1.464844 0.50391,0 0.94922,-0.257813 1.46484,-0.761719 l 3.49219,-3.632813 c 0.70313,-0.761718 1.14844,-1.910156 1.14844,-2.988281 0,-0.761719 -0.1875,-1.464844 -0.63281,-2.039062 -2.74219,-3.5625 -6.55079,-5.15625 -12.72657,-5.15625 z m 21.4336,0.328125 c -1.00782,0 -1.89844,0.890625 -1.89844,1.898437 v 38.367188 c 0,1.019531 0.89062,1.910156 1.89844,1.910156 h 7.19531 c 1.07812,0 1.91016,-0.890625 1.91016,-1.910156 V 44.85235 h 1.52343 l 4.00782,11.132812 c 0.38671,1.089844 1.72265,2.039063 2.92968,2.039063 h 6.60938 c 0.96094,0 1.59375,-0.574219 1.59375,-1.394531 0,-0.199219 -0.0586,-0.386719 -0.12891,-0.644532 l -5.08594,-14.25 c 2.92969,-2.355468 4.26563,-6.164062 4.26563,-11.390625 0,-9.726562 -4.76953,-14.496093 -15.08203,-14.496093 z m 9.10547,10.359375 h 0.63281 c 2.41406,0 3.5625,1.40625 3.5625,4.136718 0,2.742188 -1.14844,4.136719 -3.5625,4.136719 h -0.63281 z m 33.46582,-10.6875 c -1.33594,0 -2.67188,1.019531 -2.98829,2.296875 l -9.42187,38.238281 c -0.0586,0.128906 -0.0586,0.316406 -0.0586,0.445312 0,0.890625 0.63281,1.523438 1.58203,1.523438 h 6.67968 c 1.08985,0 2.16797,-0.890625 2.42579,-1.96875 l 0.82031,-3.820313 h 9.99609 l 0.82031,3.820313 c 0.25782,1.078125 1.33594,1.96875 2.42579,1.96875 h 7.125 c 0.94921,0 1.58203,-0.632813 1.58203,-1.523438 0,-0.128906 0,-0.316406 -0.0586,-0.445312 l -9.35156,-38.238281 c -0.31641,-1.277344 -1.65234,-2.296875 -2.98828,-2.296875 z m 4.0664,14.378906 2.61328,11.964844 h -5.28515 z m 24.42774,-14.050781 c -1.00782,0 -1.89844,0.890625 -1.89844,1.898437 v 38.367188 c 0,1.019531 0.89062,1.910156 1.89844,1.910156 h 7.19531 c 1.07812,0 1.91016,-0.890625 1.91016,-1.910156 V 44.85235 h 1.52343 l 4.00782,11.132812 c 0.38671,1.089844 1.72265,2.039063 2.92968,2.039063 h 6.60938 c 0.96094,0 1.59375,-0.574219 1.59375,-1.394531 0,-0.199219 -0.0586,-0.386719 -0.12891,-0.644532 l -5.08594,-14.25 c 2.92969,-2.355468 4.26563,-6.164062 4.26563,-11.390625 0,-9.726562 -4.76953,-14.496093 -15.08203,-14.496093 z m 9.10547,10.359375 h 0.63281 c 2.41406,0 3.5625,1.40625 3.5625,4.136718 0,2.742188 -1.14844,4.136719 -3.5625,4.136719 h -0.63281 z m 38.80957,-10.6875 c -12.28125,0 -18,7.007812 -18,21.445312 0,14.378906 5.71875,21.445313 18,21.445313 12.28125,0 17.9414,-7.066407 17.9414,-21.445313 0,-14.4375 -5.66015,-21.445312 -17.9414,-21.445312 z m 0,10.371093 c 4.39453,0 6.42187,3.632813 6.42187,11.074219 0,7.382813 -2.02734,11.003906 -6.42187,11.003906 -4.45313,0 -6.49219,-3.621093 -6.49219,-11.003906 0,-7.441406 2.03906,-11.074219 6.49219,-11.074219 z m 25.57031,-10.042968 c -1.00781,0 -1.89844,0.890625 -1.89844,1.898437 v 38.367188 c 0,1.019531 0.89063,1.910156 1.89844,1.910156 h 6.75 c 1.07812,0 1.91015,-0.890625 1.91015,-1.910156 V 41.10235 l 7.38282,15.773437 c 0.3164,0.703125 0.94922,1.148438 1.71093,1.148438 h 6.75 c 1.00782,0 1.89844,-0.890625 1.89844,-1.910156 V 17.746881 c 0,-1.007812 -0.89062,-1.898437 -1.89844,-1.898437 h -6.75 c -1.01953,0 -1.91015,0.890625 -1.91015,1.898437 v 12.925781 l -6.10547,-12.925781 c -0.50391,-1.007812 -1.83984,-1.898437 -2.98828,-1.898437 z m 66.81152,-0.328125 c -1.33594,0 -2.67187,1.019531 -2.98828,2.296875 l -9.42187,38.238281 c -0.0586,0.128906 -0.0586,0.316406 -0.0586,0.445312 0,0.890625 0.63281,1.523438 1.58203,1.523438 h 6.67969 c 1.08984,0 2.16797,-0.890625 2.42578,-1.96875 l 0.82031,-3.820313 h 9.9961 l 0.82031,3.820313 c 0.25781,1.078125 1.33594,1.96875 2.42578,1.96875 h 7.125 c 0.94922,0 1.58203,-0.632813 1.58203,-1.523438 0,-0.128906 0,-0.316406 -0.0586,-0.445312 l -9.35156,-38.238281 c -0.31641,-1.277344 -1.65235,-2.296875 -2.98828,-2.296875 z m 4.06641,14.378906 2.61328,11.964844 h -5.28516 z m 24.42773,-14.050781 c -1.00781,0 -1.89844,0.890625 -1.89844,1.898437 v 38.367188 c 0,1.019531 0.89063,1.910156 1.89844,1.910156 h 10.69922 c 10.24219,0 15.01172,-4.066406 15.01172,-12.410156 0,-4.582032 -1.40625,-7.816407 -4.32422,-9.855469 2.34375,-1.910156 3.43359,-4.769531 3.43359,-8.589844 0,-7.570312 -4.45312,-11.320312 -14.12109,-11.320312 z m 9.16406,10.359375 h 0.70313 c 2.35547,0 3.50391,0.902343 3.50391,3.246093 0,2.355469 -1.14844,3.246094 -3.50391,3.246094 h -0.70313 z m 0,12.796875 h 0.44532 c 3.11718,0 4.58203,1.265625 4.58203,4.324218 0,3.046875 -1.46485,4.324219 -4.58203,4.324219 h -0.44532 z m 24.17286,-23.15625 c -1.00782,0 -1.89844,0.890625 -1.89844,1.898437 v 38.367188 c 0,1.019531 0.89062,1.910156 1.89844,1.910156 h 7.19531 c 1.07812,0 1.91016,-0.890625 1.91016,-1.910156 V 44.85235 h 1.52343 l 4.00782,11.132812 c 0.38671,1.089844 1.72265,2.039063 2.92968,2.039063 h 6.60938 c 0.96094,0 1.59375,-0.574219 1.59375,-1.394531 0,-0.199219 -0.0586,-0.386719 -0.12891,-0.644532 l -5.08594,-14.25 c 2.92969,-2.355468 4.26563,-6.164062 4.26563,-11.390625 0,-9.726562 -4.76953,-14.496093 -15.08203,-14.496093 z m 9.10547,10.359375 h 0.63281 c 2.41406,0 3.5625,1.40625 3.5625,4.136718 0,2.742188 -1.14844,4.136719 -3.5625,4.136719 h -0.63281 z m 31.49121,-10.359375 h -7.19532 c -1.07812,0 -1.89843,0.890625 -1.89843,1.898437 v 38.367188 c 0,1.019531 0.82031,1.910156 1.89843,1.910156 h 7.19532 c 1.07812,0 1.91015,-0.890625 1.91015,-1.910156 V 17.746881 c 0,-1.007812 -0.83203,-1.898437 -1.91015,-1.898437 z m 9.53906,0 c -1.00781,0 -1.89844,0.890625 -1.89844,1.898437 v 38.367188 c 0,1.019531 0.89063,1.910156 1.89844,1.910156 h 7.19531 c 1.07813,0 1.91016,-0.890625 1.91016,-1.910156 V 44.85235 h 1.52343 l 4.00782,11.132812 c 0.38672,1.089844 1.72265,2.039063 2.92968,2.039063 h 6.60938 c 0.96094,0 1.59375,-0.574219 1.59375,-1.394531 0,-0.199219 -0.0586,-0.386719 -0.12891,-0.644532 l -5.08593,-14.25 c 2.92968,-2.355468 4.26562,-6.164062 4.26562,-11.390625 0,-9.726562 -4.76953,-14.496093 -15.08203,-14.496093 z m 9.10547,10.359375 h 0.63281 c 2.41406,0 3.5625,1.40625 3.5625,4.136718 0,2.742188 -1.14844,4.136719 -3.5625,4.136719 h -0.63281 z m 46.62597,-10.359375 c -1.07812,0 -1.89843,0.890625 -1.89843,1.898437 v 28.570313 c 0,8.777343 5.66015,12.09375 14.12109,12.09375 8.46094,0 14.17969,-3.316407 14.17969,-12.09375 V 17.746881 c 0,-1.007812 -0.89063,-1.898437 -1.96875,-1.898437 h -6.67969 c -1.07812,0 -1.91016,0.890625 -1.91016,1.898437 v 26.472656 c 0,2.097657 -1.26562,3.375 -3.36328,3.375 -2.10937,0 -3.375,-1.277343 -3.375,-3.375 V 17.746881 c 0,-1.007812 -0.83203,-1.898437 -1.91015,-1.898437 z m 34.04004,0 c -1.00781,0 -1.89843,0.890625 -1.89843,1.898437 v 38.367188 c 0,1.019531 0.89062,1.910156 1.89843,1.910156 h 6.75 c 1.07813,0 1.91016,-0.890625 1.91016,-1.910156 V 41.10235 l 7.38281,15.773437 c 0.31641,0.703125 0.94922,1.148438 1.71094,1.148438 h 6.75 c 1.00781,0 1.89844,-0.890625 1.89844,-1.910156 V 17.746881 c 0,-1.007812 -0.89063,-1.898437 -1.89844,-1.898437 h -6.75 c -1.01953,0 -1.91016,0.890625 -1.91016,1.898437 v 12.925781 l -6.10547,-12.925781 c -0.5039,-1.007812 -1.83984,-1.898437 -2.98828,-1.898437 z m 56.36719,0 c -1.07812,0 -1.89844,0.890625 -1.89844,1.898437 v 38.367188 c 0,1.019531 0.82032,1.910156 1.89844,1.910156 h 7.19531 c 1.01953,0 1.91016,-0.890625 1.91016,-1.910156 v -8.273438 c 10.30078,0 15.07031,-5.273437 15.07031,-15.960937 0,-10.757813 -4.76953,-16.03125 -15.07031,-16.03125 z m 9.10547,10.359375 c 2.48437,0 3.5625,1.851562 3.5625,5.671875 0,3.75 -1.07813,5.589843 -3.5625,5.589843 z m 38.80664,-10.6875 c -12.28125,0 -18,7.007812 -18,21.445312 0,14.378906 5.71875,21.445313 18,21.445313 12.28125,0 17.94141,-7.066407 17.94141,-21.445313 0,-14.4375 -5.66016,-21.445312 -17.94141,-21.445312 z m 0,10.371093 c 4.39453,0 6.42187,3.632813 6.42187,11.074219 0,7.382813 -2.02734,11.003906 -6.42187,11.003906 -4.45313,0 -6.49219,-3.621093 -6.49219,-11.003906 0,-7.441406 2.03906,-11.074219 6.49219,-11.074219 z m 25.57324,-10.042968 c -1.00781,0 -1.89844,0.890625 -1.89844,1.898437 v 38.367188 c 0,1.019531 0.89063,1.910156 1.89844,1.910156 h 7.19531 c 1.07813,0 1.91016,-0.890625 1.91016,-1.910156 V 44.85235 h 1.52344 l 4.00781,11.132812 c 0.38672,1.089844 1.72266,2.039063 2.92969,2.039063 h 6.60937 c 0.96094,0 1.59375,-0.574219 1.59375,-1.394531 0,-0.199219 -0.0586,-0.386719 -0.1289,-0.644532 l -5.08594,-14.25 c 2.92969,-2.355468 4.26562,-6.164062 4.26562,-11.390625 0,-9.726562 -4.76953,-14.496093 -15.08203,-14.496093 z m 9.10547,10.359375 h 0.63281 c 2.41407,0 3.5625,1.40625 3.5625,4.136718 0,2.742188 -1.14843,4.136719 -3.5625,4.136719 h -0.63281 z m 22.70508,-10.359375 c -1.07813,0 -1.89844,0.890625 -1.89844,1.898437 v 6.5625 c 0,1.078125 0.82031,1.898438 1.89844,1.898438 h 9.60937 v 29.90625 c 0,1.019531 0.83204,1.910156 1.91016,1.910156 h 7.19531 c 1.00782,0 1.89844,-0.890625 1.89844,-1.910156 v -29.90625 h 9.60938 c 1.01953,0 1.91015,-0.820313 1.91015,-1.898438 v -6.5625 c 0,-1.007812 -0.89062,-1.898437 -1.91015,-1.898437 z m 45.75,-0.328125 c -1.33594,0 -2.67188,1.019531 -2.98828,2.296875 l -9.42188,38.238281 c -0.0586,0.128906 -0.0586,0.316406 -0.0586,0.445312 0,0.890625 0.63281,1.523438 1.58203,1.523438 h 6.67969 c 1.08984,0 2.16797,-0.890625 2.42578,-1.96875 l 0.82031,-3.820313 h 9.9961 l 0.82031,3.820313 c 0.25781,1.078125 1.33594,1.96875 2.42578,1.96875 h 7.125 c 0.94922,0 1.58203,-0.632813 1.58203,-1.523438 0,-0.128906 0,-0.316406 -0.0586,-0.445312 l -9.35157,-38.238281 c -0.3164,-1.277344 -1.65234,-2.296875 -2.98828,-2.296875 z m 4.06641,14.378906 2.61328,11.964844 h -5.28516 z m 24.43066,-14.050781 c -1.00781,0 -1.89844,0.890625 -1.89844,1.898437 v 38.367188 c 0,1.019531 0.89063,1.910156 1.89844,1.910156 h 22.78125 c 1.07812,0 1.91016,-0.890625 1.91016,-1.910156 v -6.550782 c 0,-1.078125 -0.83204,-1.910156 -1.91016,-1.910156 h -13.67578 v -29.90625 c 0,-1.007812 -0.83203,-1.898437 -1.91016,-1.898437 z m 70.69336,-0.328125 c -12.28125,0 -17.94141,7.007812 -17.94141,21.445312 0,14.378906 5.66016,21.445313 17.94141,21.445313 1.20703,0 2.28515,-0.07031 3.30469,-0.199219 l 1.71093,3.117187 c 0.32813,0.644532 1.01953,1.019532 1.72266,1.019532 0.31641,0 0.63281,-0.05859 0.89062,-0.257813 l 5.78907,-3.117187 c 0.63281,-0.375 1.01953,-1.007813 1.01953,-1.710938 0,-0.316406 -0.12891,-0.632812 -0.25781,-0.890625 L 988.875,53.887506 c 3.43359,-3.492187 5.15625,-9.164062 5.15625,-16.921875 0,-14.4375 -5.73047,-21.445312 -18,-21.445312 z m 0,10.371093 c 4.45312,0 6.48047,3.632813 6.48047,11.074219 0,1.78125 -0.12891,3.304688 -0.375,4.710938 -0.31641,-0.644532 -1.01953,-1.019532 -1.65235,-1.019532 -0.32812,0 -0.64453,0.05859 -0.96093,0.257813 l -5.71875,3.117187 c -0.64454,0.316407 -1.01954,1.007813 -1.01954,1.652344 0,0.316406 0.0586,0.632813 0.2461,0.949219 l 0.44531,0.832031 c -2.67187,-1.207031 -3.9375,-4.710937 -3.9375,-10.5 0,-7.441406 2.09766,-11.074219 6.49219,-11.074219 z m 25.62895,-10.042968 c -1.0782,0 -1.89848,0.890625 -1.89848,1.898437 v 28.570313 c 0,8.777343 5.66018,12.09375 14.12108,12.09375 8.4609,0 14.1797,-3.316407 14.1797,-12.09375 V 17.746881 c 0,-1.007812 -0.8906,-1.898437 -1.9688,-1.898437 h -6.6796 c -1.0782,0 -1.9102,0.890625 -1.9102,1.898437 v 26.472656 c 0,2.097657 -1.2656,3.375 -3.3633,3.375 -2.1094,0 -3.375,-1.277343 -3.375,-3.375 V 17.746881 c 0,-1.007812 -0.832,-1.898437 -1.9101,-1.898437 z m 34.04,0 c -1.0781,0 -1.8984,0.890625 -1.8984,1.898437 v 38.367188 c 0,1.019531 0.8203,1.910156 1.8984,1.910156 h 22.7812 c 1.0196,0 1.9102,-0.890625 1.9102,-1.910156 v -6.550782 c 0,-1.078125 -0.8906,-1.910156 -1.9102,-1.910156 h -13.6757 v -5.789062 h 9.6093 c 1.0079,0 1.8985,-0.832032 1.8985,-1.910157 v -6.550781 c 0,-1.019531 -0.8906,-1.910156 -1.8985,-1.910156 h -9.6093 v -5.285156 h 13.4179 c 1.0899,0 1.9102,-0.820313 1.9102,-1.898438 v -6.5625 c 0,-1.007812 -0.8203,-1.898437 -1.9102,-1.898437 z m 54.6504,0 c -1.0078,0 -1.8985,0.890625 -1.8985,1.898437 v 38.367188 c 0,1.019531 0.8907,1.910156 1.8985,1.910156 h 22.7812 c 1.0782,0 1.9102,-0.890625 1.9102,-1.910156 v -6.550782 c 0,-1.078125 -0.832,-1.910156 -1.9102,-1.910156 h -13.6757 v -29.90625 c 0,-1.007812 -0.8321,-1.898437 -1.9102,-1.898437 z m 47.1474,-0.328125 c -12.2812,0 -18,7.007812 -18,21.445312 0,14.378906 5.7188,21.445313 18,21.445313 12.2813,0 17.9415,-7.066407 17.9415,-21.445313 0,-14.4375 -5.6602,-21.445312 -17.9415,-21.445312 z m 0,10.371093 c 4.3946,0 6.4219,3.632813 6.4219,11.074219 0,7.382813 -2.0273,11.003906 -6.4219,11.003906 -4.4531,0 -6.4921,-3.621093 -6.4921,-11.003906 0,-7.441406 2.039,-11.074219 6.4921,-11.074219 z m 36.334,32.519532 c 2.6719,0 4.8985,-0.515625 6.6797,-1.59375 1.711,-1.078125 3.0469,-2.484375 3.9375,-4.324219 0.8906,-1.78125 1.336,-3.761719 1.336,-5.859375 0,-2.484375 -0.504,-4.582031 -1.5235,-6.234375 -1.0781,-1.59375 -2.3555,-2.988281 -3.8203,-4.066406 -1.5234,-1.089844 -3.0469,-2.039063 -4.582,-2.871094 -1.4649,-0.820313 -2.7305,-1.582031 -3.75,-2.414063 -1.0782,-0.820312 -1.5938,-1.78125 -1.5938,-2.859375 0,-0.574218 0.2578,-1.148437 0.7031,-1.59375 0.4454,-0.445312 1.0782,-0.703125 2.0391,-0.703125 1.0781,0 1.9102,0.199219 2.4727,0.644532 0.5742,0.445312 1.0898,1.136718 1.664,2.097656 0.5625,0.949219 1.2071,1.464844 1.8985,1.464844 0.4453,0 0.9609,-0.257813 1.4648,-0.761719 l 3.5039,-3.632813 c 0.8203,-0.890625 1.207,-1.910156 1.207,-2.988281 0,-0.761719 -0.1875,-1.464844 -0.6328,-2.039062 -1.3359,-1.78125 -2.9882,-3.117188 -4.8984,-3.9375 -1.9805,-0.832032 -4.0781,-1.21875 -6.4336,-1.21875 -8.9062,0.07031 -13.3594,3.949218 -13.3594,11.519531 0,2.542969 0.5157,4.582031 1.5352,6.175781 1.0078,1.582031 2.2851,2.917969 3.75,3.9375 1.4648,1.089844 2.9297,1.980469 4.3945,2.742188 1.582,0.820312 2.918,1.582031 4.0078,2.414062 1.0782,0.832031 1.5821,1.910156 1.5821,3.175781 0,0.832032 -0.2461,1.40625 -0.7618,1.851563 -0.5742,0.445312 -1.207,0.632812 -2.039,0.632812 -2.0977,0 -3.6211,-0.890625 -4.6406,-2.730468 -0.5743,-0.960938 -1.2071,-1.464844 -1.9102,-1.464844 -0.4453,0 -0.9492,0.257812 -1.4648,0.761719 l -3.4922,3.632812 c -0.8321,0.890625 -1.2071,1.898438 -1.2071,2.988281 0,0.761719 0.1875,1.464844 0.6328,2.027344 1.336,1.78125 2.9883,3.117188 5.0274,3.949219 2.0273,0.832031 4.7695,1.277344 8.2734,1.277344 z m 41.918,-42.5625 c -1.0078,0 -1.8984,0.890625 -1.8984,1.898437 v 38.367188 c 0,1.019531 0.8906,1.910156 1.8984,1.910156 h 22.7812 c 1.0782,0 1.9102,-0.890625 1.9102,-1.910156 v -6.550782 c 0,-1.078125 -0.832,-1.910156 -1.9102,-1.910156 h -13.6757 v -29.90625 c 0,-1.007812 -0.8321,-1.898437 -1.9102,-1.898437 z m 32.3203,0 c -1.0078,0 -1.8984,0.890625 -1.8984,1.898437 v 38.367188 c 0,1.019531 0.8906,1.910156 1.8984,1.910156 h 22.7813 c 1.0781,0 1.9101,-0.890625 1.9101,-1.910156 v -6.550782 c 0,-1.078125 -0.832,-1.910156 -1.9101,-1.910156 h -13.6758 v -29.90625 c 0,-1.007812 -0.8321,-1.898437 -1.9102,-1.898437 z m 32.3203,0 c -1.0781,0 -1.8984,0.890625 -1.8984,1.898437 v 38.367188 c 0,1.019531 0.8203,1.910156 1.8984,1.910156 h 22.7813 c 1.0195,0 1.9101,-0.890625 1.9101,-1.910156 v -6.550782 c 0,-1.078125 -0.8906,-1.910156 -1.9101,-1.910156 h -13.6758 v -5.789062 h 9.6094 c 1.0078,0 1.8984,-0.832032 1.8984,-1.910157 v -6.550781 c 0,-1.019531 -0.8906,-1.910156 -1.8984,-1.910156 h -9.6094 v -5.285156 h 13.418 c 1.0898,0 1.9101,-0.820313 1.9101,-1.898438 v -6.5625 c 0,-1.007812 -0.8203,-1.898437 -1.9101,-1.898437 z m 31.8721,0 c -0.9492,0 -1.582,0.632812 -1.582,1.523437 0,0.128906 0,0.257813 0.059,0.445313 l 9.3515,38.238281 c 0.3164,1.265625 1.6524,2.355469 2.9297,2.355469 h 8.6484 c 1.336,0 2.6719,-1.089844 2.9883,-2.355469 l 9.4219,-38.238281 c 0.059,-0.128907 0.059,-0.316407 0.059,-0.445313 0,-0.890625 -0.6328,-1.523437 -1.582,-1.523437 h -6.6797 c -1.0899,0 -2.168,0.890625 -2.4258,1.96875 l -5.8477,26.144531 -5.789,-26.144531 c -0.2578,-1.078125 -1.336,-1.96875 -2.4258,-1.96875 z m 45.3721,-0.328125 c -1.336,0 -2.6719,1.019531 -2.9883,2.296875 l -9.4219,38.238281 c -0.059,0.128906 -0.059,0.316406 -0.059,0.445312 0,0.890625 0.6328,1.523438 1.582,1.523438 h 6.6797 c 1.0899,0 2.168,-0.890625 2.4258,-1.96875 l 0.8203,-3.820313 h 9.9961 l 0.8203,3.820313 c 0.2578,1.078125 1.336,1.96875 2.4258,1.96875 h 7.125 c 0.9492,0 1.582,-0.632813 1.582,-1.523438 0,-0.128906 0,-0.316406 -0.059,-0.445312 l -9.3516,-38.238281 c -0.3164,-1.277344 -1.6524,-2.296875 -2.9883,-2.296875 z m 4.0664,14.378906 2.6133,11.964844 h -5.2852 z m 57.2021,-14.378906 c -1.3359,0 -2.6719,1.019531 -2.9883,2.296875 l -9.4218,38.238281 c -0.059,0.128906 -0.059,0.316406 -0.059,0.445312 0,0.890625 0.6328,1.523438 1.582,1.523438 h 6.6797 c 1.0898,0 2.168,-0.890625 2.4258,-1.96875 l 0.8203,-3.820313 h 9.9961 l 0.8203,3.820313 c 0.2578,1.078125 1.3359,1.96875 2.4258,1.96875 h 7.125 c 0.9492,0 1.582,-0.632813 1.582,-1.523438 0,-0.128906 0,-0.316406 -0.059,-0.445312 l -9.3516,-38.238281 c -0.3164,-1.277344 -1.6523,-2.296875 -2.9882,-2.296875 z m 4.0664,14.378906 2.6133,11.964844 h -5.2851 z m 0,0"
       style="fill:#3c0f68;fill-opacity:1;fill-rule:nonzero;stroke:none"
       aria-label="GRACIAS A UN LÁPIZ MÁGICO Y SU INMENSA IMAGINACIÓN,&#10;LOGRARON ABRIR UN PORTAL QUE LOS LLEVA A"
       transform="matrix(1.3333333,0,0,1.3333333,913.89453,439.07187)" />
    <path
       id="path1274"
       d="m 3.8540516,-51.058783 c -1.3125,0 -2.3203125,1.078125 -2.3203125,2.320313 v 34.570312 c 0,10.6289064 6.8554687,14.62500019 17.0976559,14.62500019 10.242188,0 17.179688,-3.99609379 17.179688,-14.62500019 V -48.73847 c 0,-1.242188 -1.078125,-2.320313 -2.390625,-2.320313 H 25.33452 c -1.3125,0 -2.308593,1.078125 -2.308593,2.320313 v 32.027343 c 0,2.542969 -1.546875,4.078125 -4.089844,4.078125 -2.53125,0 -4.078125,-1.535156 -4.078125,-4.078125 V -48.73847 c 0,-1.242188 -0.996094,-2.320313 -2.308594,-2.320313 z m 41.1972654,0 c -1.242187,0 -2.320312,1.078125 -2.320312,2.320313 v 46.4296872 c 0,1.2304687 1.078125,2.3085937375 2.320312,2.3085937375 h 8.15625 c 1.3125,0 2.308594,-1.0781250375 2.308594,-2.3085937375 V -20.484564 l 8.929687,19.1015624 c 0.386719,0.84375004 1.160157,1.3828125375 2.085938,1.3828125375 h 8.15625 c 1.242187,0 2.320312,-1.0781250375 2.320312,-2.3085937375 V -48.73847 c 0,-1.242188 -1.078125,-2.320313 -2.320312,-2.320313 h -8.15625 c -1.230469,0 -2.308594,1.078125 -2.308594,2.320313 v 15.621093 L 56.828661,-48.73847 c -0.621094,-1.242188 -2.238281,-2.320313 -3.621094,-2.320313 z m 68.220703,0 c -1.3125,0 -2.32031,1.078125 -2.32031,2.320313 v 46.4296872 c 0,1.2304687 1.00781,2.3085937375 2.32031,2.3085937375 h 8.08594 c 1.30078,0 2.30859,-1.0781250375 2.30859,-2.3085937375 V -23.250189 l 7.76953,19.3945312 c 0.15235,0.3164062 0.53907,0.6210937 0.92578,0.6210937 h 0.84375 c 0.38672,0 0.77344,-0.3046875 0.92579,-0.6210937 l 9.3164,-19.4765622 v 21.0234372 c 0,1.2304687 1.00781,2.3085937375 2.32031,2.3085937375 h 8.69532 c 1.23047,0 2.30859,-1.0781250375 2.30859,-2.3085937375 V -48.73847 c 0,-1.242188 -1.07812,-2.320313 -2.30859,-2.320313 h -8.92969 c -1.46484,0 -2.54297,1.078125 -3.23438,2.320313 l -7.6289,15.621093 -6.77344,-15.621093 c -0.53906,-1.242188 -2.15625,-2.320313 -3.53906,-2.320313 z m 52.74609,0 c -1.3125,0 -2.32031,1.078125 -2.32031,2.320313 v 34.570312 c 0,10.6289064 6.85547,14.62500019 17.09766,14.62500019 10.24219,0 17.17969,-3.99609379 17.17969,-14.62500019 V -48.73847 c 0,-1.242188 -1.07813,-2.320313 -2.39063,-2.320313 h -8.08594 c -1.3125,0 -2.30859,1.078125 -2.30859,2.320313 v 32.027343 c 0,2.542969 -1.54688,4.078125 -4.08984,4.078125 -2.53125,0 -4.07813,-1.535156 -4.07813,-4.078125 V -48.73847 c 0,-1.242188 -0.99609,-2.320313 -2.30859,-2.320313 z m 41.19434,0 c -1.24219,0 -2.32031,1.078125 -2.32031,2.320313 v 46.4296872 c 0,1.2304687 1.07812,2.3085937375 2.32031,2.3085937375 h 8.15625 c 1.3125,0 2.30859,-1.0781250375 2.30859,-2.3085937375 V -20.484564 l 8.92969,19.1015624 c 0.38672,0.84375004 1.16016,1.3828125375 2.08594,1.3828125375 h 8.15625 c 1.24219,0 2.32031,-1.0781250375 2.32031,-2.3085937375 V -48.73847 c 0,-1.242188 -1.07812,-2.320313 -2.32031,-2.320313 h -8.15625 c -1.23047,0 -2.30859,1.078125 -2.30859,2.320313 v 15.621093 l -7.39454,-15.621093 c -0.62109,-1.242188 -2.23828,-2.320313 -3.62109,-2.320313 z m 41.19434,0 c -1.3125,0 -2.32032,1.078125 -2.32032,2.320313 v 46.4296872 c 0,1.2304687 1.00782,2.3085937375 2.32032,2.3085937375 h 15.9375 c 14.85937,0 21.71484,-8.3906250375 21.71484,-25.4882809375 0,-17.167969 -6.85547,-25.570313 -21.71484,-25.570313 z m 11.0039,12.5625 h 2.625 c 6.92578,0 10.16016,4.300781 10.16016,13.007813 0,8.625 -3.23438,12.9375 -10.16016,12.9375 h -2.625 z m 55.36524,-12.9375 c -14.85938,0 -21.79688,8.460938 -21.79688,25.945313 0,17.4023434 6.9375,25.94531219 21.79688,25.94531219 14.85937,0 21.71484,-8.54296879 21.71484,-25.94531219 0,-17.484375 -6.85547,-25.945313 -21.71484,-25.945313 z m 0,12.550781 c 5.30859,0 7.78125,4.382813 7.78125,13.394532 0,8.929687 -2.47266,13.324218 -7.78125,13.324218 -5.39063,0 -7.85157,-4.394531 -7.85157,-13.324218 0,-9.011719 2.46094,-13.394532 7.85157,-13.394532 z m 57.9873,-12.175781 c -1.3125,0 -2.32031,1.078125 -2.32031,2.320313 v 46.4296872 c 0,1.2304687 1.00781,2.3085937375 2.32031,2.3085937375 h 15.9375 c 14.85938,0 21.71485,-8.3906250375 21.71485,-25.4882809375 0,-17.167969 -6.85547,-25.570313 -21.71485,-25.570313 z m 11.00391,12.5625 h 2.625 c 6.92578,0 10.16015,4.300781 10.16015,13.007813 0,8.625 -3.23437,12.9375 -10.16015,12.9375 h -2.625 z m 44.58398,-12.5625 h -8.69531 c -1.3125,0 -2.32031,1.078125 -2.32031,2.320313 v 46.4296872 c 0,1.2304687 1.00781,2.3085937375 2.32031,2.3085937375 h 8.69531 c 1.3125,0 2.3086,-1.0781250375 2.3086,-2.3085937375 V -48.73847 c 0,-1.242188 -0.9961,-2.320313 -2.3086,-2.320313 z m 11.55469,0 c -1.24219,0 -2.32031,1.078125 -2.32031,2.320313 v 46.4296872 c 0,1.2304687 1.07812,2.3085937375 2.32031,2.3085937375 h 12.92578 c 12.39844,0 18.17578,-4.9335937375 18.17578,-15.0117189375 0,-5.542969 -1.6875,-9.480469 -5.23828,-11.941406 2.85938,-2.308594 4.16016,-5.777344 4.16016,-10.394531 0,-9.164063 -5.39063,-13.710938 -17.09766,-13.710938 z m 11.08594,12.5625 h 0.84375 c 2.84765,0 4.23047,1.066406 4.23047,3.925781 0,2.847657 -1.38282,3.925782 -4.23047,3.925782 h -0.84375 z m 0,15.46875 h 0.53906 c 3.77344,0 5.54297,1.546875 5.54297,5.238281 0,3.703125 -1.76953,5.238282 -5.54297,5.238282 h -0.53906 z m 29.26172,-28.03125 c -1.3125,0 -2.32032,1.078125 -2.32032,2.320313 v 34.570312 c 0,10.6289064 6.85547,14.62500019 17.09766,14.62500019 10.24219,0 17.17969,-3.99609379 17.17969,-14.62500019 V -48.73847 c 0,-1.242188 -1.07813,-2.320313 -2.39063,-2.320313 h -8.08594 c -1.3125,0 -2.30859,1.078125 -2.30859,2.320313 v 32.027343 c 0,2.542969 -1.54687,4.078125 -4.08984,4.078125 -2.53125,0 -4.07813,-1.535156 -4.07813,-4.078125 V -48.73847 c 0,-1.242188 -0.99609,-2.320313 -2.30859,-2.320313 z m 49.89257,0 h -8.69531 c -1.3125,0 -2.32031,1.078125 -2.32031,2.320313 v 47.4257809 c 0,1.85156254 -0.99609,3.5507813 -2.69531,4.2421875 -0.9961,0.4570313 -1.92188,1.3007813 -1.92188,2.3789063 v 7.9335933 c 0,1.699219 1.23047,3 2.84766,3 h 0.23437 c 9.55078,-0.761718 14.85938,-5.460937 14.85938,-15.0117183 V -48.73847 c 0,-1.242188 -0.9961,-2.320313 -2.3086,-2.320313 z m 24.17579,-0.375 c -1.61719,0 -3.23438,1.230469 -3.6211,2.765625 l -11.39062,46.2773439 c -0.082,0.1523438 -0.082,0.3867188 -0.082,0.5390625 0,1.07812504 0.77343,1.8515625375 1.93359,1.8515625375 h 8.08594 c 1.30078,0 2.61328,-1.0781250375 2.91797,-2.3906250375 l 1.00781,-4.6171875 h 12.08203 l 1.00781,4.6171875 c 0.30469,1.3125 1.61719,2.3906250375 2.91797,2.3906250375 h 8.625 c 1.16016,0 1.93359,-0.7734374975 1.93359,-1.8515625375 0,-0.1523437 0,-0.3867187 -0.082,-0.5390625 L 568.33745,-48.668158 c -0.38672,-1.535156 -2.00391,-2.765625 -3.62109,-2.765625 z m 4.93359,17.402344 3.15234,14.472656 h -6.38672 z m 29.56933,-17.027344 c -1.3125,0 -2.32031,1.078125 -2.32031,2.320313 v 46.4296872 c 0,1.2304687 1.00781,2.3085937375 2.32031,2.3085937375 h 15.9375 c 14.85938,0 21.71485,-8.3906250375 21.71485,-25.4882809375 0,-17.167969 -6.85547,-25.570313 -21.71485,-25.570313 z m 11.00391,12.5625 h 2.625 c 6.92578,0 10.16016,4.300781 10.16016,13.007813 0,8.625 -3.23438,12.9375 -10.16016,12.9375 h -2.625 z m 55.36524,-12.9375 c -14.85938,0 -21.79688,8.460938 -21.79688,25.945313 0,17.4023434 6.9375,25.94531219 21.79688,25.94531219 14.85937,0 21.71484,-8.54296879 21.71484,-25.94531219 0,-17.484375 -6.85547,-25.945313 -21.71484,-25.945313 z m 0,12.550781 c 5.30859,0 7.78125,4.382813 7.78125,13.394532 0,8.929687 -2.47266,13.324218 -7.78125,13.324218 -5.39063,0 -7.85157,-4.394531 -7.85157,-13.324218 0,-9.011719 2.46094,-13.394532 7.85157,-13.394532 z m 0,0"
       style="fill:#ed0093;fill-opacity:1;fill-rule:nonzero;stroke:none"
       aria-label="UN MUNDO DIBUJADO"
       transform="matrix(1.3333333,0,0,1.3333333,1517.5917,593.73853)" />
    <path
       id="path1275"
       d="m 3.1747563,-42.176947 c -1.078125,0 -1.8984375,0.890625 -1.8984375,1.898438 v 38.3671871 c 0,1.01953127 0.8203125,1.91015627 1.8984375,1.91015627 H 25.956006 c 1.019532,0 1.910157,-0.890625 1.910157,-1.91015627 v -6.5507812 c 0,-1.078125 -0.890625,-1.9101559 -1.910157,-1.9101559 H 12.280225 v -5.789063 H 21.8896 c 1.007813,0 1.898438,-0.832031 1.898438,-1.910156 v -6.550781 c 0,-1.019532 -0.890625,-1.910157 -1.898438,-1.910157 h -9.609375 v -5.285156 h 13.417969 c 1.089844,0 1.910156,-0.820312 1.910156,-1.898437 v -6.5625 c 0,-1.007813 -0.820312,-1.898438 -1.910156,-1.898438 z m 32.3203127,0 c -1.007813,0 -1.898438,0.890625 -1.898438,1.898438 v 38.3671871 c 0,1.01953127 0.890625,1.91015627 1.898438,1.91015627 h 6.75 c 1.078125,0 1.910156,-0.890625 1.910156,-1.91015627 V -16.923041 l 7.382813,15.7734379 c 0.316406,0.70312497 0.949218,1.14843747 1.710937,1.14843747 h 6.75 c 1.007813,0 1.898438,-0.890625 1.898438,-1.91015627 V -40.278509 c 0,-1.007813 -0.890625,-1.898438 -1.898438,-1.898438 h -6.75 c -1.019531,0 -1.910156,0.890625 -1.910156,1.898438 v 12.925781 L 45.23335,-40.278509 c -0.503906,-1.007813 -1.839844,-1.898438 -2.988281,-1.898438 z m 56.370117,0 c -1.078125,0 -1.898438,0.890625 -1.898438,1.898438 v 38.3671871 c 0,1.01953127 0.820313,1.91015627 1.898438,1.91015627 h 22.781254 c 1.01953,0 1.91015,-0.890625 1.91015,-1.91015627 v -6.5507812 c 0,-1.078125 -0.89062,-1.9101559 -1.91015,-1.9101559 h -13.67579 v -5.789063 h 9.60938 c 1.00781,0 1.89844,-0.832031 1.89844,-1.910156 v -6.550781 c 0,-1.019532 -0.89063,-1.910157 -1.89844,-1.910157 h -9.60938 v -5.285156 h 13.41797 c 1.08985,0 1.91016,-0.820312 1.91016,-1.898437 v -6.5625 c 0,-1.007813 -0.82031,-1.898438 -1.91016,-1.898438 z m 32.320314,0 c -1.00781,0 -1.89844,0.890625 -1.89844,1.898438 v 38.3671871 c 0,1.01953127 0.89063,1.91015627 1.89844,1.91015627 h 22.78125 c 1.07812,0 1.91015,-0.890625 1.91015,-1.91015627 v -6.5507812 c 0,-1.078125 -0.83203,-1.9101559 -1.91015,-1.9101559 h -13.67578 v -29.90625 c 0,-1.007813 -0.83203,-1.898438 -1.91016,-1.898438 z m 70.69336,-0.328125 c -12.28125,0 -17.94141,7.007813 -17.94141,21.445313 0,14.3789059 5.66016,21.44531212 17.94141,21.44531212 1.20703,0 2.28515,-0.0703125 3.30469,-0.19921875 l 1.71093,3.11718753 c 0.32813,0.6445312 1.01953,1.0195312 1.72266,1.0195312 0.31641,0 0.63281,-0.058594 0.89062,-0.2578125 l 5.78907,-3.11718748 c 0.63281,-0.375 1.01953,-1.0078125 1.01953,-1.7109375 0,-0.31640622 -0.12891,-0.63281252 -0.25781,-0.89062502 l -1.33594,-2.484375 c 3.43359,-3.4921875 5.15625,-9.1640626 5.15625,-16.9218746 0,-14.4375 -5.73047,-21.445313 -18,-21.445313 z m 0,10.371094 c 4.45312,0 6.48047,3.632812 6.48047,11.074219 0,1.78125 -0.12891,3.304687 -0.375,4.710937 -0.31641,-0.644531 -1.01953,-1.019531 -1.65235,-1.019531 -0.32812,0 -0.64453,0.05859 -0.96093,0.257812 l -5.71875,3.117188 c -0.64454,0.316406 -1.01954,1.007812 -1.01954,1.652344 0,0.316406 0.0586,0.632812 0.2461,0.949218 l 0.44531,0.832032 c -2.67187,-1.207032 -3.9375,-4.710938 -3.9375,-10.5 0,-7.441407 2.09766,-11.074219 6.49219,-11.074219 z m 25.6289,-10.042969 c -1.07812,0 -1.89843,0.890625 -1.89843,1.898438 v 28.570312 c 0,8.7773439 5.66015,12.09375012 14.12109,12.09375012 8.46094,0 14.17969,-3.31640622 14.17969,-12.09375012 v -28.570312 c 0,-1.007813 -0.89063,-1.898438 -1.96875,-1.898438 h -6.67969 c -1.07812,0 -1.91016,0.890625 -1.91016,1.898438 v 26.472656 c 0,2.097656 -1.26562,3.375 -3.36328,3.375 -2.10937,0 -3.375,-1.277344 -3.375,-3.375 v -26.472656 c 0,-1.007813 -0.83203,-1.898438 -1.91015,-1.898438 z m 34.04004,0 c -1.07812,0 -1.89843,0.890625 -1.89843,1.898438 v 38.3671871 c 0,1.01953127 0.82031,1.91015627 1.89843,1.91015627 h 22.78125 c 1.01953,0 1.91016,-0.890625 1.91016,-1.91015627 v -6.5507812 c 0,-1.078125 -0.89063,-1.9101559 -1.91016,-1.9101559 h -13.67578 v -5.789063 h 9.60938 c 1.00781,0 1.89843,-0.832031 1.89843,-1.910156 v -6.550781 c 0,-1.019532 -0.89062,-1.910157 -1.89843,-1.910157 h -9.60938 v -5.285156 h 13.41797 c 1.08984,0 1.91016,-0.820312 1.91016,-1.898437 v -6.5625 c 0,-1.007813 -0.82032,-1.898438 -1.91016,-1.898438 z m 66.68555,42.56250012 c 2.67188,0 4.89844,-0.515625 6.67969,-1.59375002 1.71094,-1.078125 3.04687,-2.484375 3.9375,-4.3242187 0.89062,-1.78125 1.33594,-3.7617188 1.33594,-5.8593754 0,-2.484375 -0.50391,-4.582031 -1.52344,-6.234375 -1.07813,-1.59375 -2.35547,-2.988281 -3.82031,-4.066406 -1.52344,-1.089844 -3.04688,-2.039062 -4.58204,-2.871094 -1.46484,-0.820312 -2.73046,-1.582031 -3.75,-2.414062 -1.07812,-0.820313 -1.59375,-1.78125 -1.59375,-2.859375 0,-0.574219 0.25782,-1.148438 0.70313,-1.59375 0.44531,-0.445313 1.07812,-0.703125 2.03906,-0.703125 1.07813,0 1.91016,0.199219 2.47266,0.644531 0.57422,0.445313 1.08984,1.136719 1.66406,2.097656 0.5625,0.949219 1.20703,1.464844 1.89844,1.464844 0.44531,0 0.96094,-0.257812 1.46484,-0.761719 l 3.50391,-3.632812 c 0.82031,-0.890625 1.20703,-1.910156 1.20703,-2.988281 0,-0.761719 -0.1875,-1.464844 -0.63281,-2.039063 -1.33594,-1.78125 -2.98828,-3.117187 -4.89844,-3.9375 -1.98047,-0.832031 -4.07813,-1.21875 -6.43359,-1.21875 -8.90625,0.07031 -13.35938,3.949219 -13.35938,11.519531 0,2.542969 0.51563,4.582032 1.53516,6.175782 1.00781,1.582031 2.28515,2.917968 3.75,3.9375 1.46484,1.089843 2.92968,1.980468 4.39453,2.742187 1.58203,0.820313 2.91797,1.582031 4.00781,2.414063 1.07813,0.832031 1.58203,1.910156 1.58203,3.175781 0,0.832031 -0.24609,1.40625 -0.76172,1.851562 -0.57422,0.445313 -1.20703,0.632813 -2.03906,0.632813 -2.09766,0 -3.62109,-0.890625 -4.64062,-2.730469 -0.57422,-0.960937 -1.20704,-1.464844 -1.91016,-1.464844 -0.44531,0 -0.94922,0.257813 -1.46484,0.761719 l -3.49219,3.6328126 c -0.83203,0.890625 -1.20703,1.8984375 -1.20703,2.9882813 0,0.7617187 0.1875,1.4648437 0.63281,2.0273437 1.33594,1.78125 2.98828,3.1171875 5.02734,3.94921877 2.02735,0.83203125 4.76953,1.27734375 8.27344,1.27734375 z M 340.81831,-42.176947 c -1.07812,0 -1.89844,0.890625 -1.89844,1.898438 v 28.570312 c 0,8.7773439 5.66016,12.09375012 14.1211,12.09375012 8.46093,0 14.17968,-3.31640622 14.17968,-12.09375012 v -28.570312 c 0,-1.007813 -0.89062,-1.898438 -1.96875,-1.898438 h -6.67968 c -1.07813,0 -1.91016,0.890625 -1.91016,1.898438 v 26.472656 c 0,2.097656 -1.26562,3.375 -3.36328,3.375 -2.10938,0 -3.375,-1.277344 -3.375,-3.375 v -26.472656 c 0,-1.007813 -0.83203,-1.898438 -1.91016,-1.898438 z m 46.07227,42.56250012 c 2.67187,0 4.89843,-0.515625 6.67968,-1.59375002 1.71094,-1.078125 3.04688,-2.484375 3.9375,-4.3242187 0.89063,-1.78125 1.33594,-3.7617188 1.33594,-5.8593754 0,-2.484375 -0.5039,-4.582031 -1.52344,-6.234375 -1.07812,-1.59375 -2.35546,-2.988281 -3.82031,-4.066406 -1.52344,-1.089844 -3.04687,-2.039062 -4.58203,-2.871094 -1.46484,-0.820312 -2.73047,-1.582031 -3.75,-2.414062 -1.07812,-0.820313 -1.59375,-1.78125 -1.59375,-2.859375 0,-0.574219 0.25781,-1.148438 0.70313,-1.59375 0.44531,-0.445313 1.07812,-0.703125 2.03906,-0.703125 1.07812,0 1.91015,0.199219 2.47265,0.644531 0.57422,0.445313 1.08985,1.136719 1.66407,2.097656 0.5625,0.949219 1.20703,1.464844 1.89843,1.464844 0.44532,0 0.96094,-0.257812 1.46485,-0.761719 l 3.5039,-3.632812 c 0.82032,-0.890625 1.20704,-1.910156 1.20704,-2.988281 0,-0.761719 -0.1875,-1.464844 -0.63282,-2.039063 -1.33593,-1.78125 -2.98828,-3.117187 -4.89843,-3.9375 -1.98047,-0.832031 -4.07813,-1.21875 -6.4336,-1.21875 -8.90625,0.07031 -13.35937,3.949219 -13.35937,11.519531 0,2.542969 0.51562,4.582032 1.53515,6.175782 1.00782,1.582031 2.28516,2.917968 3.75,3.9375 1.46485,1.089843 2.92969,1.980468 4.39453,2.742187 1.58204,0.820313 2.91797,1.582031 4.00782,2.414063 1.07812,0.832031 1.58203,1.910156 1.58203,3.175781 0,0.832031 -0.2461,1.40625 -0.76172,1.851562 -0.57422,0.445313 -1.20703,0.632813 -2.03906,0.632813 -2.09766,0 -3.6211,-0.890625 -4.64063,-2.730469 -0.57422,-0.960937 -1.20703,-1.464844 -1.91015,-1.464844 -0.44532,0 -0.94922,0.257813 -1.46485,0.761719 l -3.49219,3.6328126 c -0.83203,0.890625 -1.20703,1.8984375 -1.20703,2.9882813 0,0.7617187 0.1875,1.4648437 0.63282,2.0273437 1.33593,1.78125 2.98828,3.1171875 5.02734,3.94921877 2.02734,0.83203125 4.76953,1.27734375 8.27344,1.27734375 z M 428.80855,-42.176947 c -1.07813,0 -1.89844,0.890625 -1.89844,1.898438 v 38.3671871 c 0,1.01953127 0.82031,1.91015627 1.89844,1.91015627 h 7.19531 c 1.01953,0 1.91015,-0.890625 1.91015,-1.91015627 v -8.2734371 c 10.30079,0 15.07032,-5.273438 15.07032,-15.960938 0,-10.757812 -4.76953,-16.03125 -15.07032,-16.03125 z m 9.10546,10.359375 c 2.48438,0 3.5625,1.851563 3.5625,5.671875 0,3.75 -1.07812,5.589844 -3.5625,5.589844 z m 22.70508,-10.359375 c -1.07812,0 -1.89844,0.890625 -1.89844,1.898438 v 38.3671871 c 0,1.01953127 0.82032,1.91015627 1.89844,1.91015627 h 22.78125 c 1.01953,0 1.91016,-0.890625 1.91016,-1.91015627 v -6.5507812 c 0,-1.078125 -0.89063,-1.9101559 -1.91016,-1.9101559 h -13.67578 v -5.789063 h 9.60938 c 1.00781,0 1.89843,-0.832031 1.89843,-1.910156 v -6.550781 c 0,-1.019532 -0.89062,-1.910157 -1.89843,-1.910157 h -9.60938 v -5.285156 h 13.41797 c 1.08984,0 1.91016,-0.820312 1.91016,-1.898437 v -6.5625 c 0,-1.007813 -0.82032,-1.898438 -1.91016,-1.898438 z m 32.32031,0 c -1.00781,0 -1.89843,0.890625 -1.89843,1.898438 v 38.3671871 c 0,1.01953127 0.89062,1.91015627 1.89843,1.91015627 h 7.19532 c 1.07812,0 1.91015,-0.890625 1.91015,-1.91015627 V -13.173041 h 1.52344 l 4.00781,11.1328129 c 0.38672,1.08984372 1.72266,2.03906247 2.92969,2.03906247 h 6.60938 c 0.96093,0 1.59375,-0.57421875 1.59375,-1.39453127 0,-0.1992187 -0.0586,-0.3867187 -0.12891,-0.6445312 l -5.08594,-14.2499999 c 2.92969,-2.355469 4.26563,-6.164063 4.26563,-11.390625 0,-9.726563 -4.76953,-14.496094 -15.08203,-14.496094 z m 9.10547,10.359375 h 0.63282 c 2.41406,0 3.5625,1.40625 3.5625,4.136719 0,2.742187 -1.14844,4.136719 -3.5625,4.136719 h -0.63282 z m 35.05957,32.20312512 c 2.67188,0 4.89844,-0.515625 6.67969,-1.59375002 1.71094,-1.078125 3.04688,-2.484375 3.9375,-4.3242187 0.89063,-1.78125 1.33594,-3.7617188 1.33594,-5.8593754 0,-2.484375 -0.50391,-4.582031 -1.52344,-6.234375 -1.07812,-1.59375 -2.35547,-2.988281 -3.82031,-4.066406 -1.52344,-1.089844 -3.04688,-2.039062 -4.58203,-2.871094 -1.46485,-0.820312 -2.73047,-1.582031 -3.75,-2.414062 -1.07813,-0.820313 -1.59375,-1.78125 -1.59375,-2.859375 0,-0.574219 0.25781,-1.148438 0.70312,-1.59375 0.44532,-0.445313 1.07813,-0.703125 2.03907,-0.703125 1.07812,0 1.91015,0.199219 2.47265,0.644531 0.57422,0.445313 1.08985,1.136719 1.66406,2.097656 0.5625,0.949219 1.20704,1.464844 1.89844,1.464844 0.44531,0 0.96094,-0.257812 1.46485,-0.761719 l 3.5039,-3.632812 c 0.82031,-0.890625 1.20703,-1.910156 1.20703,-2.988281 0,-0.761719 -0.1875,-1.464844 -0.63281,-2.039063 -1.33594,-1.78125 -2.98828,-3.117187 -4.89844,-3.9375 -1.98047,-0.832031 -4.07812,-1.21875 -6.43359,-1.21875 -8.90625,0.07031 -13.35938,3.949219 -13.35938,11.519531 0,2.542969 0.51563,4.582032 1.53516,6.175782 1.00781,1.582031 2.28516,2.917968 3.75,3.9375 1.46484,1.089843 2.92969,1.980468 4.39453,2.742187 1.58203,0.820313 2.91797,1.582031 4.00781,2.414063 1.07813,0.832031 1.58204,1.910156 1.58204,3.175781 0,0.832031 -0.2461,1.40625 -0.76172,1.851562 -0.57422,0.445313 -1.20703,0.632813 -2.03907,0.632813 -2.09765,0 -3.62109,-0.890625 -4.64062,-2.730469 -0.57422,-0.960937 -1.20703,-1.464844 -1.91016,-1.464844 -0.44531,0 -0.94922,0.257813 -1.46484,0.761719 l -3.49219,3.6328126 c -0.83203,0.890625 -1.20703,1.8984375 -1.20703,2.9882813 0,0.7617187 0.1875,1.4648437 0.63281,2.0273437 1.33594,1.78125 2.98828,3.1171875 5.02735,3.94921877 2.02734,0.83203125 4.76953,1.27734375 8.27343,1.27734375 z M 571.51655,-42.505072 c -12.28125,0 -18,7.007813 -18,21.445313 0,14.3789059 5.71875,21.44531212 18,21.44531212 12.28125,0 17.94141,-7.06640622 17.94141,-21.44531212 0,-14.4375 -5.66016,-21.445313 -17.94141,-21.445313 z m 0,10.371094 c 4.39453,0 6.42188,3.632812 6.42188,11.074219 0,7.382812 -2.02735,11.003906 -6.42188,11.003906 -4.45312,0 -6.49218,-3.621094 -6.49218,-11.003906 0,-7.441407 2.03906,-11.074219 6.49218,-11.074219 z m 25.57032,-10.042969 c -1.00782,0 -1.89844,0.890625 -1.89844,1.898438 v 38.3671871 c 0,1.01953127 0.89062,1.91015627 1.89844,1.91015627 h 6.75 c 1.07812,0 1.91015,-0.890625 1.91015,-1.91015627 V -16.923041 l 7.38281,15.7734379 c 0.31641,0.70312497 0.94922,1.14843747 1.71094,1.14843747 h 6.75 c 1.00781,0 1.89844,-0.890625 1.89844,-1.91015627 V -40.278509 c 0,-1.007813 -0.89063,-1.898438 -1.89844,-1.898438 h -6.75 c -1.01953,0 -1.91015,0.890625 -1.91015,1.898438 v 12.925781 l -6.10547,-12.925781 c -0.50391,-1.007813 -1.83985,-1.898438 -2.98828,-1.898438 z m 44.48144,-0.328125 c -1.33594,0 -2.67187,1.019531 -2.98828,2.296875 l -9.42188,38.2382814 c -0.0586,0.1289062 -0.0586,0.3164062 -0.0586,0.4453125 0,0.89062497 0.63281,1.52343747 1.58203,1.52343747 h 6.67969 c 1.08984,0 2.16797,-0.890625 2.42578,-1.96874997 l 0.82031,-3.8203125 h 9.9961 l 0.82031,3.8203125 c 0.25781,1.07812497 1.33594,1.96874997 2.42578,1.96874997 h 7.125 c 0.94922,0 1.58203,-0.6328125 1.58203,-1.52343747 0,-0.1289063 0,-0.3164063 -0.0586,-0.4453125 l -9.35156,-38.2382814 c -0.31641,-1.277344 -1.65235,-2.296875 -2.98829,-2.296875 z m 4.06641,14.378906 2.61328,11.964844 h -5.28516 z m 31.62304,-14.050781 h -7.19531 c -1.07812,0 -1.89844,0.890625 -1.89844,1.898438 v 39.1992184 c 0,1.52343747 -0.83203,2.9179687 -2.22656,3.4921875 -0.83203,0.3867187 -1.59375,1.0898437 -1.59375,1.9804687 v 6.5507814 c 0,1.394531 1.01953,2.484375 2.35547,2.484375 h 0.1875 c 7.88672,-0.644531 12.28125,-4.5234376 12.28125,-12.4101564 V -40.278509 c 0,-1.007813 -0.83203,-1.898438 -1.91016,-1.898438 z m 9.53614,0 c -1.07813,0 -1.89844,0.890625 -1.89844,1.898438 v 38.3671871 c 0,1.01953127 0.82031,1.91015627 1.89844,1.91015627 h 22.78125 c 1.01953,0 1.91015,-0.890625 1.91015,-1.91015627 v -6.5507812 c 0,-1.078125 -0.89062,-1.9101559 -1.91015,-1.9101559 h -13.67578 v -5.789063 h 9.60937 c 1.00781,0 1.89844,-0.832031 1.89844,-1.910156 v -6.550781 c 0,-1.019532 -0.89063,-1.910157 -1.89844,-1.910157 h -9.60937 v -5.285156 h 13.41796 c 1.08985,0 1.91016,-0.820312 1.91016,-1.898437 v -6.5625 c 0,-1.007813 -0.82031,-1.898438 -1.91016,-1.898438 z m 44.35547,42.56250012 c 2.67187,0 4.89843,-0.515625 6.67968,-1.59375002 1.71094,-1.078125 3.04688,-2.484375 3.9375,-4.3242187 0.89063,-1.78125 1.33594,-3.7617188 1.33594,-5.8593754 0,-2.484375 -0.50391,-4.582031 -1.52344,-6.234375 -1.07812,-1.59375 -2.35547,-2.988281 -3.82031,-4.066406 -1.52344,-1.089844 -3.04687,-2.039062 -4.58203,-2.871094 -1.46484,-0.820312 -2.73047,-1.582031 -3.75,-2.414062 -1.07813,-0.820313 -1.59375,-1.78125 -1.59375,-2.859375 0,-0.574219 0.25781,-1.148438 0.70312,-1.59375 0.44532,-0.445313 1.07813,-0.703125 2.03907,-0.703125 1.07812,0 1.91015,0.199219 2.47265,0.644531 0.57422,0.445313 1.08985,1.136719 1.66407,2.097656 0.5625,0.949219 1.20703,1.464844 1.89843,1.464844 0.44532,0 0.96094,-0.257812 1.46485,-0.761719 l 3.5039,-3.632812 c 0.82032,-0.890625 1.20703,-1.910156 1.20703,-2.988281 0,-0.761719 -0.1875,-1.464844 -0.63281,-2.039063 -1.33594,-1.78125 -2.98828,-3.117187 -4.89844,-3.9375 -1.98046,-0.832031 -4.07812,-1.21875 -6.43359,-1.21875 -8.90625,0.07031 -13.35937,3.949219 -13.35937,11.519531 0,2.542969 0.51562,4.582032 1.53515,6.175782 1.00781,1.582031 2.28516,2.917968 3.75,3.9375 1.46485,1.089843 2.92969,1.980468 4.39453,2.742187 1.58203,0.820313 2.91797,1.582031 4.00782,2.414063 1.07812,0.832031 1.58203,1.910156 1.58203,3.175781 0,0.832031 -0.2461,1.40625 -0.76172,1.851562 -0.57422,0.445313 -1.20703,0.632813 -2.03906,0.632813 -2.09766,0 -3.6211,-0.890625 -4.64063,-2.730469 -0.57422,-0.960937 -1.20703,-1.464844 -1.91016,-1.464844 -0.44531,0 -0.94921,0.257813 -1.46484,0.761719 l -3.49219,3.6328126 c -0.83203,0.890625 -1.20703,1.8984375 -1.20703,2.9882813 0,0.7617187 0.1875,1.4648437 0.63281,2.0273437 1.33594,1.78125 2.98829,3.1171875 5.02735,3.94921877 2.02734,0.83203125 4.76953,1.27734375 8.27344,1.27734375 z M 789.1689,-42.505072 c -12.28125,0 -18,7.007813 -18,21.445313 0,14.3789059 5.71875,21.44531212 18,21.44531212 6.10547,0 9.98437,-1.66406252 12.72656,-5.22656252 0.44531,-0.5625 0.63281,-1.265625 0.63281,-2.0273437 0,-1.0898438 -0.44531,-2.2265625 -1.14844,-2.9882813 l -3.49218,-3.6328126 c -0.51563,-0.503906 -1.01953,-0.761719 -1.46485,-0.761719 -0.76172,0 -1.40625,0.574219 -1.96875,1.464844 -1.21875,1.839844 -3.05859,2.730469 -5.28515,2.730469 -4.45313,0 -6.49219,-3.621094 -6.49219,-11.003906 0,-7.441407 2.03906,-11.074219 6.49219,-11.074219 2.22656,0 4.0664,0.890625 5.28515,2.742187 0.5625,0.890625 1.20703,1.464844 1.96875,1.464844 0.44532,0 0.94922,-0.257812 1.46485,-0.761719 l 3.49218,-3.632812 c 0.70313,-0.761719 1.14844,-1.910156 1.14844,-2.988281 0,-0.761719 -0.1875,-1.464844 -0.63281,-2.039063 -2.74219,-3.5625 -6.62109,-5.15625 -12.72656,-5.15625 z m 36.26367,0 c -12.28125,0 -18,7.007813 -18,21.445313 0,14.3789059 5.71875,21.44531212 18,21.44531212 12.28125,0 17.94141,-7.06640622 17.94141,-21.44531212 0,-14.4375 -5.66016,-21.445313 -17.94141,-21.445313 z m 0,10.371094 c 4.39453,0 6.42187,3.632812 6.42187,11.074219 0,7.382812 -2.02734,11.003906 -6.42187,11.003906 -4.45313,0 -6.49219,-3.621094 -6.49219,-11.003906 0,-7.441407 2.03906,-11.074219 6.49219,-11.074219 z m 25.57031,-10.042969 c -1.00781,0 -1.89844,0.890625 -1.89844,1.898438 v 38.3671871 c 0,1.01953127 0.89063,1.91015627 1.89844,1.91015627 h 10.69922 c 10.24219,0 15.01172,-4.06640627 15.01172,-12.41015637 0,-4.582031 -1.40625,-7.816406 -4.32422,-9.855469 2.34375,-1.910156 3.43359,-4.769531 3.43359,-8.589843 0,-7.570313 -4.45312,-11.320313 -14.12109,-11.320313 z m 9.16406,10.359375 h 0.70313 c 2.35547,0 3.50391,0.902344 3.50391,3.246094 0,2.355469 -1.14844,3.246094 -3.50391,3.246094 h -0.70313 z m 0,12.796875 h 0.44532 c 3.11718,0 4.58203,1.265625 4.58203,4.324219 0,3.046875 -1.46485,4.324219 -4.58203,4.324219 h -0.44532 z m 24.17579,-23.15625 c -1.00782,0 -1.89844,0.890625 -1.89844,1.898438 v 38.3671871 c 0,1.01953127 0.89062,1.91015627 1.89844,1.91015627 h 7.19531 c 1.07812,0 1.91015,-0.890625 1.91015,-1.91015627 V -13.173041 h 1.52344 l 4.00781,11.1328129 c 0.38672,1.08984372 1.72266,2.03906247 2.92969,2.03906247 h 6.60938 c 0.96093,0 1.59375,-0.57421875 1.59375,-1.39453127 0,-0.1992187 -0.0586,-0.3867187 -0.12891,-0.6445312 l -5.08594,-14.2499999 c 2.92969,-2.355469 4.26563,-6.164063 4.26563,-11.390625 0,-9.726563 -4.76953,-14.496094 -15.08203,-14.496094 z m 9.10546,10.359375 h 0.63282 c 2.41406,0 3.5625,1.40625 3.5625,4.136719 0,2.742187 -1.14844,4.136719 -3.5625,4.136719 h -0.63282 z m 33.46289,-10.6875 c -1.33593,0 -2.67187,1.019531 -2.98828,2.296875 l -9.42187,38.2382814 c -0.0586,0.1289062 -0.0586,0.3164062 -0.0586,0.4453125 0,0.89062497 0.63282,1.52343747 1.58204,1.52343747 h 6.67968 c 1.08985,0 2.16797,-0.890625 2.42578,-1.96874997 l 0.82032,-3.8203125 h 9.99609 l 0.82031,3.8203125 c 0.25782,1.07812497 1.33594,1.96874997 2.42578,1.96874997 h 7.125 c 0.94922,0 1.58204,-0.6328125 1.58204,-1.52343747 0,-0.1289063 0,-0.3164063 -0.0586,-0.4453125 l -9.35156,-38.2382814 c -0.31641,-1.277344 -1.65234,-2.296875 -2.98828,-2.296875 z m 4.06641,14.378906 2.61328,11.964844 h -5.28515 z m 24.43066,-14.050781 c -1.00781,0 -1.89843,0.890625 -1.89843,1.898438 v 38.3671871 c 0,1.01953127 0.89062,1.91015627 1.89843,1.91015627 h 6.75 c 1.07813,0 1.91016,-0.890625 1.91016,-1.91015627 V -16.923041 l 7.38281,15.7734379 c 0.31641,0.70312497 0.94922,1.14843747 1.71094,1.14843747 h 6.75 c 1.00781,0 1.89844,-0.890625 1.89844,-1.91015627 V -40.278509 c 0,-1.007813 -0.89063,-1.898438 -1.89844,-1.898438 h -6.75 c -1.01953,0 -1.91016,0.890625 -1.91016,1.898438 v 12.925781 l -6.10546,-12.925781 c -0.50391,-1.007813 -1.83985,-1.898438 -2.98829,-1.898438 z m 55.92485,0 c -0.9493,0 -1.5821,0.632813 -1.5821,1.523438 0,0.128906 0,0.257812 0.059,0.445312 l 9.3516,38.2382814 c 0.3164,1.26562497 1.6523,2.35546872 2.9297,2.35546872 h 8.6484 c 1.3359,0 2.6719,-1.08984375 2.9883,-2.35546872 l 9.4219,-38.2382814 c 0.059,-0.128906 0.059,-0.316406 0.059,-0.445312 0,-0.890625 -0.6329,-1.523438 -1.5821,-1.523438 h -6.6797 c -1.0898,0 -2.1679,0.890625 -2.4257,1.96875 l -5.8477,26.144531 -5.7891,-26.144531 c -0.2578,-1.078125 -1.3359,-1.96875 -2.4257,-1.96875 z m 46.5761,0 h -7.1953 c -1.0781,0 -1.8984,0.890625 -1.8984,1.898438 v 38.3671871 c 0,1.01953127 0.8203,1.91015627 1.8984,1.91015627 h 7.1953 c 1.0782,0 1.9102,-0.890625 1.9102,-1.91015627 V -40.278509 c 0,-1.007813 -0.832,-1.898438 -1.9102,-1.898438 z m 9.5362,0 c -1.0782,0 -1.8985,0.890625 -1.8985,1.898438 v 38.3671871 c 0,1.01953127 0.8203,1.91015627 1.8985,1.91015627 h 13.1718 c 12.2813,0 17.9414,-6.93749997 17.9414,-21.05859337 0,-14.191407 -5.6601,-21.117188 -17.9414,-21.117188 z m 9.1054,10.359375 h 2.1563 c 5.7305,0 8.4023,3.574219 8.4023,10.757813 0,7.125 -2.6718,10.6875 -8.4023,10.6875 h -2.1563 z m 37.8633,-10.6875 c -1.3359,0 -2.6719,1.019531 -2.9883,2.296875 l -9.4218,38.2382814 c -0.059,0.1289062 -0.059,0.3164062 -0.059,0.4453125 0,0.89062497 0.6328,1.52343747 1.582,1.52343747 h 6.6797 c 1.0898,0 2.168,-0.890625 2.4258,-1.96874997 l 0.8203,-3.8203125 h 9.9961 l 0.8203,3.8203125 c 0.2578,1.07812497 1.3359,1.96874997 2.4258,1.96874997 h 7.125 c 0.9492,0 1.582,-0.6328125 1.582,-1.52343747 0,-0.1289063 0,-0.3164063 -0.059,-0.4453125 l -9.3516,-38.2382814 c -0.3164,-1.277344 -1.6523,-2.296875 -2.9882,-2.296875 z m 4.0664,14.378906 2.6133,11.964844 h -5.2852 z m 34.0371,22.3945316 c 0,-3.1757812 -2.5429,-5.7890626 -5.7187,-5.7890626 -3.1875,0 -5.7891,2.6132814 -5.7891,5.7890626 0,3.1875 2.6016,5.73046877 5.7891,5.73046877 3.1758,0 5.7187,-2.54296877 5.7187,-5.73046877 z m 0,0"
       style="fill:#3c0f68;fill-opacity:1;fill-rule:nonzero;stroke:none"
       aria-label="EN EL QUE SUS PERSONAJES COBRAN VIDA. "
       transform="matrix(1.3333333,0,0,1.3333333,1185.8139,671.07187)" />
  </g>
</svg>
